<svg xmlns="http://www.w3.org/2000/svg" xmlns:xlink="http://www.w3.org/1999/xlink" width="169.85" height="48.85" viewBox="0 0 169.85 48.85"><defs><style>.cls-1,.cls-2{fill:none;}.cls-2{clip-rule:evenodd;}.cls-3{clip-path:url(#clip-path);}.cls-4{fill:#0a1287;}.cls-5{clip-path:url(#clip-path-2);}.cls-6{clip-path:url(#clip-path-3);}.cls-7{clip-path:url(#clip-path-4);}.cls-8{clip-path:url(#clip-path-5);}.cls-9{fill:#e06727;}.cls-10{clip-path:url(#clip-path-6);}.cls-11{clip-path:url(#clip-path-7);}.cls-12{clip-path:url(#clip-path-8);}.cls-13{clip-path:url(#clip-path-9);}.cls-14{clip-path:url(#clip-path-10);}.cls-15{clip-path:url(#clip-path-11);}.cls-16{clip-path:url(#clip-path-12);}.cls-17{clip-path:url(#clip-path-13);}.cls-18{clip-path:url(#clip-path-14);}.cls-19{fill:#e06639;}.cls-20{clip-path:url(#clip-path-15);}.cls-21{clip-path:url(#clip-path-16);}.cls-22{clip-path:url(#clip-path-17);}.cls-23{clip-path:url(#clip-path-18);}.cls-24{clip-path:url(#clip-path-19);}.cls-25{clip-path:url(#clip-path-20);}.cls-26{clip-path:url(#clip-path-21);}.cls-27{clip-path:url(#clip-path-22);}.cls-28{clip-path:url(#clip-path-23);}.cls-29{clip-path:url(#clip-path-24);}.cls-30{clip-path:url(#clip-path-25);}.cls-31{clip-path:url(#clip-path-26);}.cls-32{clip-path:url(#clip-path-27);}.cls-33{clip-path:url(#clip-path-28);}.cls-34{clip-path:url(#clip-path-29);}.cls-35{clip-path:url(#clip-path-30);}.cls-36{clip-path:url(#clip-path-31);}.cls-37{clip-path:url(#clip-path-32);}.cls-38{clip-path:url(#clip-path-33);}.cls-39{clip-path:url(#clip-path-34);}.cls-40{clip-path:url(#clip-path-35);}.cls-41{clip-path:url(#clip-path-36);}</style><clipPath id="clip-path"><ellipse class="cls-1" cx="7.85" cy="7.87" rx="2.44" ry="2.47"/></clipPath><clipPath id="clip-path-2"><ellipse class="cls-1" cx="27.28" cy="17.69" rx="2.44" ry="2.47"/></clipPath><clipPath id="clip-path-3"><ellipse class="cls-1" cx="27.28" cy="27.52" rx="2.44" ry="2.47"/></clipPath><clipPath id="clip-path-4"><ellipse class="cls-1" cx="17.56" cy="27.52" rx="2.44" ry="2.47"/></clipPath><clipPath id="clip-path-5"><path class="cls-2" d="M9.87,25.48a4.09,4.09,0,0,1,0-5.74,4,4,0,0,1,5.68,0,2.83,2.83,0,0,0,4,0,2.91,2.91,0,0,0,0-4.08,4.09,4.09,0,0,1,0-5.74,4,4,0,0,1,5.68,0,2.83,2.83,0,0,0,4,0,4,4,0,0,1,5.68,0,2.83,2.83,0,0,0,4,0A2.91,2.91,0,0,0,39,5.83a2.83,2.83,0,0,0-4,0,4.09,4.09,0,0,1-5.69,0,2.83,2.83,0,0,0-4,0,4.13,4.13,0,0,1-5.72,0,2.83,2.83,0,0,0-4,0,2.91,2.91,0,0,0,0,4.08,4.09,4.09,0,0,1,0,5.74,4,4,0,0,1-5.68,0,2.83,2.83,0,0,0-4,0,2.91,2.91,0,0,0,0,4.08,4.24,4.24,0,0,1-.07,5.75,2.91,2.91,0,0,0,0,4.08,2.83,2.83,0,0,0,4,0A2.87,2.87,0,0,0,9.87,25.48Z"/></clipPath><clipPath id="clip-path-6"><ellipse class="cls-1" cx="37" cy="17.69" rx="2.44" ry="2.47"/></clipPath><clipPath id="clip-path-7"><path class="cls-2" d="M39,25.48a2.83,2.83,0,0,0-4,0,2.91,2.91,0,0,0,0,4.08,2.83,2.83,0,0,0,4,0A2.91,2.91,0,0,0,39,25.48Z"/></clipPath><clipPath id="clip-path-8"><path class="cls-2" d="M149.1,5.4a4,4,0,0,0-3.89,4v.32h7.17a.53.53,0,0,1,.52.53V29.46a.53.53,0,0,0,.52.53h3.22a.53.53,0,0,0,.52-.53V9.71h7.17a.53.53,0,0,0,.52-.53V5.93a.53.53,0,0,0-.52-.53Z"/></clipPath><clipPath id="clip-path-9"><path class="cls-2" d="M110.86,5.4a4,4,0,0,0-3.74,2.72L100.06,30h4.49L107,22.33h3.65a.53.53,0,0,0,.5-.69l-1-3.26a.52.52,0,0,0-.5-.37h-1.22l2.45-7.59,3.79,11.9L116,26.64,117.11,30h4.48L113.75,5.4Z"/></clipPath><clipPath id="clip-path-10"><path class="cls-2" d="M71.33,22.39,61,5.4H60.3a4,4,0,0,0-4,4V30h4.27V13L71,30h4.64V5.4h-4.3Z"/></clipPath><clipPath id="clip-path-11"><path class="cls-2" d="M46.72,9.4V30H51V5.4h-.32A4,4,0,0,0,46.72,9.4Z"/></clipPath><clipPath id="clip-path-12"><path class="cls-2" d="M97.6,19a4.37,4.37,0,0,0-1.13-1.16A7.42,7.42,0,0,0,95,17.11a22.05,22.05,0,0,0-3-1q-1.61-.45-3.81-1A7.06,7.06,0,0,1,85.58,14a2.08,2.08,0,0,1-.84-1.68q0-2.81,4.05-2.81a5.26,5.26,0,0,1,3.3.87,3,3,0,0,1,.68.79A3.94,3.94,0,0,0,96.12,13h1.77a8.1,8.1,0,0,0-.72-3.11,6.84,6.84,0,0,0-1.84-2.4A8.45,8.45,0,0,0,92.5,6a11.92,11.92,0,0,0-3.71-.58A11.35,11.35,0,0,0,85.1,6a7.9,7.9,0,0,0-2.63,1.46,5.73,5.73,0,0,0-1.58,2.17,6.94,6.94,0,0,0-.52,2.67A7.13,7.13,0,0,0,81,15.33a5.26,5.26,0,0,0,1.82,2.07A11.24,11.24,0,0,0,86,18.82q1.91.57,4.52,1.13a10.27,10.27,0,0,1,1.79.54,3.59,3.59,0,0,1,1.08.68,2,2,0,0,1,.53.85A3.65,3.65,0,0,1,94,23a2.63,2.63,0,0,1-1.17,2.26,5.89,5.89,0,0,1-3.43.83,5.72,5.72,0,0,1-3.49-1,3.37,3.37,0,0,1-1.42-2.79H79.9a7.19,7.19,0,0,0,2.64,5.76A11.06,11.06,0,0,0,88.82,30h2a11.44,11.44,0,0,0,2.46-.44A8.5,8.5,0,0,0,96,28.19,6.6,6.6,0,0,0,97.93,26a6.17,6.17,0,0,0,.69-3,8.8,8.8,0,0,0-.27-2.36A5.89,5.89,0,0,0,97.6,19Z"/></clipPath><clipPath id="clip-path-13"><path class="cls-2" d="M140,20.21A8.47,8.47,0,0,0,134.53,5.4h-5.64a4,4,0,0,0-4,4V29.46a.53.53,0,0,0,.52.53h3.22a.53.53,0,0,0,.52-.53V9.71h5.12a4.22,4.22,0,0,1,4.24,3.87,4.13,4.13,0,0,1-4,4.4h-2a.53.53,0,0,0-.52.53v3.26a.53.53,0,0,0,.52.53h2a8.31,8.31,0,0,0,1.66-.17l2.51,7.47a.52.52,0,0,0,.49.36h3.4a.53.53,0,0,0,.49-.7Z"/></clipPath><clipPath id="clip-path-14"><polygon class="cls-2" points="5.79 43.74 5.79 38.44 9.7 38.44 9.7 39.29 6.7 39.29 6.7 40.74 9.37 40.74 9.37 41.59 6.71 41.59 6.71 43.75 5.79 43.74"/></clipPath><clipPath id="clip-path-15"><rect class="cls-1" x="12.26" y="38.44" width="0.92" height="5.3"/></clipPath><clipPath id="clip-path-16"><polygon class="cls-2" points="16.09 43.74 16.09 38.44 16.93 38.44 19.75 42.11 19.75 38.44 20.66 38.44 20.66 43.74 19.89 43.74 17 39.98 17 43.75 16.09 43.74"/></clipPath><clipPath id="clip-path-17"><polygon class="cls-2" points="24.79 43.74 24.79 39.3 23.13 39.3 23.13 38.44 27.38 38.44 27.38 39.3 25.71 39.3 25.71 43.74 24.79 43.74"/></clipPath><clipPath id="clip-path-18"><polygon class="cls-2" points="29.84 43.74 29.84 38.44 33.73 38.44 33.73 39.27 30.73 39.27 30.73 40.65 33.4 40.65 33.4 41.48 30.77 41.48 30.77 42.9 33.77 42.9 33.77 43.73 29.84 43.74"/></clipPath><clipPath id="clip-path-19"><path class="cls-2" d="M38.79,43.83a2.54,2.54,0,0,1-1.9-.79,2.87,2.87,0,0,1,0-3.9,2.57,2.57,0,0,1,1.94-.79,2.83,2.83,0,0,1,1.16.21,3.16,3.16,0,0,1,.9.61l-.59.69a2.14,2.14,0,0,0-1.47-.66,1.59,1.59,0,0,0-1.24.55,2.07,2.07,0,0,0,0,2.68,1.59,1.59,0,0,0,1.24.55,1.77,1.77,0,0,0,.79-.17,3,3,0,0,0,.71-.52l.59.61a3.17,3.17,0,0,1-.94.71A2.76,2.76,0,0,1,38.79,43.83Z"/></clipPath><clipPath id="clip-path-20"><polygon class="cls-2" points="43.4 43.74 43.4 38.44 44.31 38.44 44.31 40.64 46.81 40.64 46.81 38.44 47.73 38.44 47.73 43.74 46.81 43.74 46.81 41.51 44.31 41.51 44.31 43.74 43.4 43.74"/></clipPath><clipPath id="clip-path-21"><path class="cls-2" d="M55.91,40.53a1.71,1.71,0,0,0,.62-.35.66.66,0,0,0,.2-.49.57.57,0,0,0-.6-.6.59.59,0,0,0-.45.18.65.65,0,0,0-.17.47,1.26,1.26,0,0,0,.37.78ZM55.78,43a1.42,1.42,0,0,0,1-.46l-1.17-1.2a1,1,0,0,0-.7.89.71.71,0,0,0,.25.55.91.91,0,0,0,.58.21Zm2.21.8-.7-.72a2.31,2.31,0,0,1-1.61.69,1.8,1.8,0,0,1-1.22-.42A1.4,1.4,0,0,1,54,42.29a1.58,1.58,0,0,1,1.12-1.48,1.83,1.83,0,0,1-.43-1.12,1.25,1.25,0,0,1,.41-.94,1.53,1.53,0,0,1,1.09-.39,1.4,1.4,0,0,1,1,.37,1.23,1.23,0,0,1,.39.92q0,.94-1.15,1.38l.9.92a8.27,8.27,0,0,0,.56-1l.7.37a8.46,8.46,0,0,1-.71,1.21l.82.85Z"/></clipPath><clipPath id="clip-path-22"><path class="cls-2" d="M65.94,43.82A2,2,0,0,1,64.26,43l.61-.63a1.36,1.36,0,0,0,1.06.62.76.76,0,0,0,.61-.26,1.16,1.16,0,0,0,.22-.78V38.44h.94V42a1.92,1.92,0,0,1-.49,1.41A1.71,1.71,0,0,1,65.94,43.82Z"/></clipPath><clipPath id="clip-path-23"><path class="cls-2" d="M71.65,41.63h1.8l-.91-2.12Zm-1.82,2.11,2.31-5.34H73l2.31,5.34h-1l-.53-1.28H71.31l-.54,1.28Z"/></clipPath><clipPath id="clip-path-24"><polygon class="cls-2" points="78.67 43.78 76.5 38.44 77.5 38.44 79.08 42.52 80.64 38.44 81.64 38.44 79.48 43.78 78.67 43.78"/></clipPath><clipPath id="clip-path-25"><path class="cls-2" d="M84.68,41.63h1.8l-.91-2.12Zm-1.82,2.11,2.31-5.34H86l2.31,5.34h-1l-.53-1.28H84.34l-.54,1.28Z"/></clipPath><clipPath id="clip-path-26"><polygon class="cls-2" points="94.47 43.74 94.47 38.44 98.36 38.44 98.36 39.27 95.36 39.27 95.36 40.65 98 40.65 98 41.48 95.39 41.48 95.39 42.9 98.39 42.9 98.39 43.73 94.47 43.74"/></clipPath><clipPath id="clip-path-27"><polygon class="cls-2" points="101 43.74 101 38.44 101.84 38.44 104.66 42.11 104.66 38.44 105.56 38.44 105.56 43.74 104.8 43.74 101.89 39.98 101.89 43.75 101 43.74"/></clipPath><clipPath id="clip-path-28"><path class="cls-2" d="M110.89,43.83a2.62,2.62,0,0,1-2-.78,2.89,2.89,0,0,1,0-3.9,2.57,2.57,0,0,1,1.94-.8,3.16,3.16,0,0,1,1.12.18,3.09,3.09,0,0,1,.89.54l-.58.7a2.45,2.45,0,0,0-.66-.43,2.07,2.07,0,0,0-.81-.14,1.56,1.56,0,0,0-1.21.55,2.09,2.09,0,0,0,0,2.69,1.68,1.68,0,0,0,1.29.53,2,2,0,0,0,1.27-.4v-1H110.8v-.79H113V43A3.24,3.24,0,0,1,110.89,43.83Z"/></clipPath><clipPath id="clip-path-29"><rect class="cls-1" x="115.82" y="38.44" width="0.92" height="5.3"/></clipPath><clipPath id="clip-path-30"><polygon class="cls-2" points="119.64 43.74 119.64 38.44 120.5 38.44 123.31 42.11 123.31 38.44 124.22 38.44 124.22 43.74 123.44 43.74 120.56 39.98 120.56 43.75 119.64 43.74"/></clipPath><clipPath id="clip-path-31"><polygon class="cls-2" points="127.06 43.74 127.06 38.44 131 38.44 131 39.27 128 39.27 128 40.65 130.63 40.65 130.63 41.48 128 41.48 128 42.9 131 42.9 131 43.73 127.06 43.74"/></clipPath><clipPath id="clip-path-32"><polygon class="cls-2" points="133.57 43.74 133.57 38.44 137.47 38.44 137.47 39.27 134.47 39.27 134.47 40.65 137.09 40.65 137.09 41.48 134.47 41.48 134.47 42.9 137.47 42.9 137.47 43.73 133.57 43.74"/></clipPath><clipPath id="clip-path-33"><path class="cls-2" d="M141,41.07h1.35a1.19,1.19,0,0,0,.79-.24.81.81,0,0,0,.29-.66.78.78,0,0,0-.29-.65,1.25,1.25,0,0,0-.8-.23H141Zm-.92,2.67v-5.3h2.34a2.08,2.08,0,0,1,1.43.46,1.73,1.73,0,0,1,.18,2.26,1.8,1.8,0,0,1-.91.57l1.42,2h-1.09l-1.3-1.85H141v1.85Z"/></clipPath><clipPath id="clip-path-34"><rect class="cls-1" x="147.06" y="38.44" width="0.93" height="5.3"/></clipPath><clipPath id="clip-path-35"><polygon class="cls-2" points="150.88 43.74 150.88 38.44 151.74 38.44 154.54 42.11 154.54 38.44 155.46 38.44 155.46 43.74 154.69 43.74 151.78 39.98 151.78 43.75 150.88 43.74"/></clipPath><clipPath id="clip-path-36"><path class="cls-2" d="M160.78,43.83a2.62,2.62,0,0,1-2-.78,2.89,2.89,0,0,1,0-3.9,2.57,2.57,0,0,1,1.94-.8,3.16,3.16,0,0,1,1.12.18,3.09,3.09,0,0,1,.89.54l-.58.7a2.45,2.45,0,0,0-.66-.43,2.07,2.07,0,0,0-.81-.14,1.56,1.56,0,0,0-1.21.55,2.09,2.09,0,0,0,0,2.69,1.68,1.68,0,0,0,1.29.53,2,2,0,0,0,1.27-.4v-1h-1.34v-.79H163V43A3.24,3.24,0,0,1,160.78,43.83Z"/></clipPath></defs><title>Ресурс 1</title><g id="Слой_2" data-name="Слой 2"><g id="Слой_1-2" data-name="Слой 1"><g class="cls-3"><rect class="cls-4" x="0.41" y="0.4" width="14.88" height="14.94"/></g><g class="cls-5"><rect class="cls-4" x="19.84" y="10.22" width="14.88" height="14.94"/></g><g class="cls-6"><rect class="cls-4" x="19.84" y="20.05" width="14.88" height="14.94"/></g><g class="cls-7"><rect class="cls-4" x="10.12" y="20.05" width="14.88" height="14.94"/></g><g class="cls-8"><rect class="cls-9" width="44.8" height="35.39"/></g><g class="cls-10"><rect class="cls-4" x="29.56" y="10.22" width="14.88" height="14.94"/></g><g class="cls-11"><rect class="cls-4" x="29.16" y="19.65" width="15.67" height="15.74"/></g><g class="cls-12"><rect class="cls-4" x="140.21" y="0.4" width="29.64" height="34.59"/></g><g class="cls-13"><rect class="cls-4" x="95.06" y="0.4" width="31.53" height="34.58"/></g><g class="cls-14"><rect class="cls-4" x="51.3" y="0.4" width="29.33" height="34.58"/></g><g class="cls-15"><rect class="cls-4" x="41.72" y="0.4" width="14.27" height="34.58"/></g><g class="cls-16"><rect class="cls-4" x="74.9" y="0.4" width="28.72" height="34.58"/></g><g class="cls-17"><rect class="cls-4" x="119.89" y="0.4" width="28.16" height="34.59"/></g><g class="cls-18"><rect class="cls-19" x="0.79" y="33.44" width="13.9" height="15.31"/></g><g class="cls-20"><rect class="cls-19" x="7.26" y="33.44" width="10.92" height="15.3"/></g><g class="cls-21"><rect class="cls-19" x="11.08" y="33.44" width="14.57" height="15.31"/></g><g class="cls-22"><rect class="cls-19" x="18.12" y="33.44" width="14.25" height="15.3"/></g><g class="cls-23"><rect class="cls-19" x="24.84" y="33.44" width="13.92" height="15.3"/></g><g class="cls-24"><rect class="cls-19" x="31.13" y="33.35" width="14.79" height="15.48"/></g><g class="cls-25"><rect class="cls-19" x="38.39" y="33.44" width="14.34" height="15.3"/></g><g class="cls-26"><rect class="cls-19" x="48.98" y="33.36" width="14.7" height="15.49"/></g><g class="cls-27"><rect class="cls-19" x="59.26" y="33.44" width="13.44" height="15.39"/></g><g class="cls-28"><rect class="cls-19" x="64.83" y="33.4" width="15.47" height="15.34"/></g><g class="cls-29"><rect class="cls-19" x="71.49" y="33.44" width="15.15" height="15.34"/></g><g class="cls-30"><rect class="cls-19" x="77.86" y="33.4" width="15.44" height="15.34"/></g><g class="cls-31"><rect class="cls-19" x="89.47" y="33.44" width="13.92" height="15.3"/></g><g class="cls-32"><rect class="cls-19" x="95.99" y="33.44" width="14.57" height="15.31"/></g><g class="cls-33"><rect class="cls-19" x="103.14" y="33.35" width="14.9" height="15.48"/></g><g class="cls-34"><rect class="cls-19" x="110.82" y="33.44" width="10.92" height="15.3"/></g><g class="cls-35"><rect class="cls-19" x="114.64" y="33.44" width="14.57" height="15.31"/></g><g class="cls-36"><rect class="cls-19" x="122.06" y="33.44" width="13.93" height="15.3"/></g><g class="cls-37"><rect class="cls-19" x="128.57" y="33.44" width="13.89" height="15.3"/></g><g class="cls-38"><rect class="cls-19" x="135.09" y="33.43" width="14.46" height="15.3"/></g><g class="cls-39"><rect class="cls-19" x="142.06" y="33.44" width="10.93" height="15.3"/></g><g class="cls-40"><rect class="cls-19" x="145.88" y="33.44" width="14.57" height="15.31"/></g><g class="cls-41"><rect class="cls-19" x="153.03" y="33.35" width="14.97" height="15.48"/></g></g></g></svg>