<svg xmlns="http://www.w3.org/2000/svg" xmlns:xlink="http://www.w3.org/1999/xlink" width="169.85" height="48.85" viewBox="0 0 169.85 48.85"><defs><style>.cls-1,.cls-2{fill:none;}.cls-2{clip-rule:evenodd;}.cls-3{clip-path:url(#clip-path);}.cls-4{clip-path:url(#clip-path-2);}.cls-5{fill:#fff;}.cls-6{clip-path:url(#clip-path-3);}.cls-7{clip-path:url(#clip-path-5);}.cls-8{clip-path:url(#clip-path-7);}.cls-9{clip-path:url(#clip-path-9);}.cls-10{fill:#e06727;}.cls-11{clip-path:url(#clip-path-11);}.cls-12{clip-path:url(#clip-path-13);}.cls-13{clip-path:url(#clip-path-15);}.cls-14{clip-path:url(#clip-path-17);}.cls-15{clip-path:url(#clip-path-19);}.cls-16{clip-path:url(#clip-path-21);}.cls-17{clip-path:url(#clip-path-23);}.cls-18{clip-path:url(#clip-path-25);}.cls-19{clip-path:url(#clip-path-27);}.cls-20{fill:#e06639;}.cls-21{clip-path:url(#clip-path-29);}.cls-22{clip-path:url(#clip-path-31);}.cls-23{clip-path:url(#clip-path-33);}.cls-24{clip-path:url(#clip-path-35);}.cls-25{clip-path:url(#clip-path-37);}.cls-26{clip-path:url(#clip-path-39);}.cls-27{clip-path:url(#clip-path-41);}.cls-28{clip-path:url(#clip-path-43);}.cls-29{clip-path:url(#clip-path-45);}.cls-30{clip-path:url(#clip-path-47);}.cls-31{clip-path:url(#clip-path-49);}.cls-32{clip-path:url(#clip-path-51);}.cls-33{clip-path:url(#clip-path-53);}.cls-34{clip-path:url(#clip-path-55);}.cls-35{clip-path:url(#clip-path-57);}.cls-36{clip-path:url(#clip-path-59);}.cls-37{clip-path:url(#clip-path-61);}.cls-38{clip-path:url(#clip-path-63);}.cls-39{clip-path:url(#clip-path-65);}.cls-40{clip-path:url(#clip-path-67);}.cls-41{clip-path:url(#clip-path-69);}.cls-42{clip-path:url(#clip-path-71);}</style><clipPath id="clip-path" transform="translate(-35.01 -35.02)"><ellipse class="cls-1" cx="42.86" cy="42.89" rx="2.44" ry="2.47"/></clipPath><clipPath id="clip-path-2" transform="translate(-35.01 -35.02)"><rect class="cls-1" width="1920" height="6071"/></clipPath><clipPath id="clip-path-3" transform="translate(-35.01 -35.02)"><ellipse class="cls-1" cx="62.29" cy="52.71" rx="2.44" ry="2.47"/></clipPath><clipPath id="clip-path-5" transform="translate(-35.01 -35.02)"><ellipse class="cls-1" cx="62.29" cy="62.54" rx="2.44" ry="2.47"/></clipPath><clipPath id="clip-path-7" transform="translate(-35.01 -35.02)"><ellipse class="cls-1" cx="52.57" cy="62.54" rx="2.44" ry="2.47"/></clipPath><clipPath id="clip-path-9" transform="translate(-35.01 -35.02)"><path class="cls-2" d="M44.88,60.5a4.09,4.09,0,0,1,0-5.74,4,4,0,0,1,5.68,0,2.83,2.83,0,0,0,4,0,2.91,2.91,0,0,0,0-4.08,4.09,4.09,0,0,1,0-5.74,4,4,0,0,1,5.68,0,2.83,2.83,0,0,0,4,0,4,4,0,0,1,5.68,0,2.83,2.83,0,0,0,4,0A2.91,2.91,0,0,0,74,40.85a2.83,2.83,0,0,0-4,0,4.09,4.09,0,0,1-5.69,0,2.83,2.83,0,0,0-4,0,4.13,4.13,0,0,1-5.72,0,2.83,2.83,0,0,0-4,0,2.91,2.91,0,0,0,0,4.08,4.09,4.09,0,0,1,0,5.74,4,4,0,0,1-5.68,0,2.83,2.83,0,0,0-4,0,2.91,2.91,0,0,0,0,4.08,4.24,4.24,0,0,1-.07,5.75,2.91,2.91,0,0,0,0,4.08,2.83,2.83,0,0,0,4,0A2.87,2.87,0,0,0,44.88,60.5Z"/></clipPath><clipPath id="clip-path-11" transform="translate(-35.01 -35.02)"><ellipse class="cls-1" cx="72.01" cy="52.71" rx="2.44" ry="2.47"/></clipPath><clipPath id="clip-path-13" transform="translate(-35.01 -35.02)"><path class="cls-2" d="M74,60.5a2.83,2.83,0,0,0-4,0,2.91,2.91,0,0,0,0,4.08,2.83,2.83,0,0,0,4,0A2.91,2.91,0,0,0,74,60.5Z"/></clipPath><clipPath id="clip-path-15" transform="translate(-35.01 -35.02)"><path class="cls-2" d="M184.11,40.42a4,4,0,0,0-3.89,4v.32h7.17a.53.53,0,0,1,.52.53V64.48a.53.53,0,0,0,.52.53h3.22a.53.53,0,0,0,.52-.53V44.73h7.17a.53.53,0,0,0,.52-.53V41a.53.53,0,0,0-.52-.53Z"/></clipPath><clipPath id="clip-path-17" transform="translate(-35.01 -35.02)"><path class="cls-2" d="M145.87,40.42a4,4,0,0,0-3.74,2.72L135.07,65h4.49L142,57.35h3.65a.53.53,0,0,0,.5-.69l-1-3.26a.52.52,0,0,0-.5-.37h-1.22l2.45-7.59,3.79,11.9L151,61.66,152.12,65h4.48l-7.84-24.58Z"/></clipPath><clipPath id="clip-path-19" transform="translate(-35.01 -35.02)"><path class="cls-2" d="M106.34,57.41,96,40.42h-.69a4,4,0,0,0-4,4V65h4.27V48L106,65h4.64V40.42h-4.3Z"/></clipPath><clipPath id="clip-path-21" transform="translate(-35.01 -35.02)"><path class="cls-2" d="M81.73,44.42V65H86V40.42h-.32A4,4,0,0,0,81.73,44.42Z"/></clipPath><clipPath id="clip-path-23" transform="translate(-35.01 -35.02)"><path class="cls-2" d="M132.61,54.07a4.37,4.37,0,0,0-1.13-1.16,7.42,7.42,0,0,0-1.43-.78,22.05,22.05,0,0,0-3-1q-1.61-.45-3.81-1A7.06,7.06,0,0,1,120.59,49a2.08,2.08,0,0,1-.84-1.68q0-2.81,4.05-2.81a5.26,5.26,0,0,1,3.3.87,3,3,0,0,1,.68.79A3.94,3.94,0,0,0,131.13,48h1.77a8.1,8.1,0,0,0-.72-3.11,6.84,6.84,0,0,0-1.84-2.4A8.45,8.45,0,0,0,127.51,41a11.92,11.92,0,0,0-3.71-.58,11.35,11.35,0,0,0-3.69.58,7.9,7.9,0,0,0-2.63,1.46,5.73,5.73,0,0,0-1.58,2.17,6.94,6.94,0,0,0-.52,2.67,7.13,7.13,0,0,0,.62,3.05,5.26,5.26,0,0,0,1.82,2.07A11.24,11.24,0,0,0,121,53.84q1.91.57,4.52,1.13a10.27,10.27,0,0,1,1.79.54,3.59,3.59,0,0,1,1.08.68,2,2,0,0,1,.53.85,3.65,3.65,0,0,1,.14,1,2.63,2.63,0,0,1-1.17,2.26,5.89,5.89,0,0,1-3.43.83,5.72,5.72,0,0,1-3.49-1,3.37,3.37,0,0,1-1.42-2.79h-4.6a7.19,7.19,0,0,0,2.64,5.76,11.06,11.06,0,0,0,6.28,1.9h2a11.44,11.44,0,0,0,2.46-.44A8.5,8.5,0,0,0,131,63.21a6.6,6.6,0,0,0,1.9-2.21,6.17,6.17,0,0,0,.69-3,8.8,8.8,0,0,0-.27-2.36A5.89,5.89,0,0,0,132.61,54.07Z"/></clipPath><clipPath id="clip-path-25" transform="translate(-35.01 -35.02)"><path class="cls-2" d="M175,55.23a8.47,8.47,0,0,0-5.46-14.81H163.9a4,4,0,0,0-4,4V64.48a.53.53,0,0,0,.52.53h3.22a.53.53,0,0,0,.52-.53V44.73h5.12a4.22,4.22,0,0,1,4.24,3.87,4.13,4.13,0,0,1-4,4.4h-2a.53.53,0,0,0-.52.53v3.26a.53.53,0,0,0,.52.53h2a8.31,8.31,0,0,0,1.66-.17l2.51,7.47a.52.52,0,0,0,.49.36h3.4a.53.53,0,0,0,.49-.7Z"/></clipPath><clipPath id="clip-path-27" transform="translate(-35.01 -35.02)"><polygon class="cls-2" points="40.8 78.76 40.8 73.46 44.7 73.46 44.7 74.31 41.7 74.31 41.7 75.76 44.37 75.76 44.37 76.61 41.72 76.61 41.72 78.77 40.8 78.76"/></clipPath><clipPath id="clip-path-29" transform="translate(-35.01 -35.02)"><rect class="cls-1" x="47.27" y="73.46" width="0.92" height="5.3"/></clipPath><clipPath id="clip-path-31" transform="translate(-35.01 -35.02)"><polygon class="cls-2" points="51.09 78.76 51.09 73.46 51.94 73.46 54.75 77.13 54.75 73.46 55.66 73.46 55.66 78.76 54.89 78.76 52 75 52 78.77 51.09 78.76"/></clipPath><clipPath id="clip-path-33" transform="translate(-35.01 -35.02)"><polygon class="cls-2" points="59.79 78.76 59.79 74.32 58.13 74.32 58.13 73.46 62.38 73.46 62.38 74.32 60.72 74.32 60.72 78.76 59.79 78.76"/></clipPath><clipPath id="clip-path-35" transform="translate(-35.01 -35.02)"><polygon class="cls-2" points="64.85 78.76 64.85 73.46 68.74 73.46 68.74 74.29 65.74 74.29 65.74 75.67 68.4 75.67 68.4 76.5 65.77 76.5 65.77 77.92 68.77 77.92 68.77 78.75 64.85 78.76"/></clipPath><clipPath id="clip-path-37" transform="translate(-35.01 -35.02)"><path class="cls-2" d="M73.8,78.85a2.54,2.54,0,0,1-1.9-.79,2.87,2.87,0,0,1,0-3.9,2.57,2.57,0,0,1,1.94-.79,2.83,2.83,0,0,1,1.16.21,3.16,3.16,0,0,1,.9.61l-.59.69a2.14,2.14,0,0,0-1.47-.66,1.59,1.59,0,0,0-1.24.55,2.07,2.07,0,0,0,0,2.68,1.59,1.59,0,0,0,1.24.55,1.77,1.77,0,0,0,.79-.17,3,3,0,0,0,.71-.52l.59.61a3.17,3.17,0,0,1-.94.71A2.76,2.76,0,0,1,73.8,78.85Z"/></clipPath><clipPath id="clip-path-39" transform="translate(-35.01 -35.02)"><polygon class="cls-2" points="78.4 78.76 78.4 73.46 79.32 73.46 79.32 75.66 81.82 75.66 81.82 73.46 82.74 73.46 82.74 78.76 81.82 78.76 81.82 76.53 79.32 76.53 79.32 78.76 78.4 78.76"/></clipPath><clipPath id="clip-path-41" transform="translate(-35.01 -35.02)"><path class="cls-2" d="M90.92,75.55a1.71,1.71,0,0,0,.62-.35.66.66,0,0,0,.2-.49.57.57,0,0,0-.6-.6.59.59,0,0,0-.45.18.65.65,0,0,0-.17.47,1.26,1.26,0,0,0,.37.78Zm-.13,2.52a1.42,1.42,0,0,0,1-.46l-1.17-1.2a1,1,0,0,0-.7.89.71.71,0,0,0,.25.55.91.91,0,0,0,.58.21Zm2.21.8-.7-.72a2.31,2.31,0,0,1-1.61.69,1.8,1.8,0,0,1-1.22-.42A1.4,1.4,0,0,1,89,77.31a1.58,1.58,0,0,1,1.12-1.48,1.83,1.83,0,0,1-.43-1.12,1.25,1.25,0,0,1,.41-.94,1.53,1.53,0,0,1,1.09-.39,1.4,1.4,0,0,1,1,.37,1.23,1.23,0,0,1,.39.92q0,.94-1.15,1.38l.9.92a8.27,8.27,0,0,0,.56-1l.7.37a8.46,8.46,0,0,1-.71,1.21l.82.85Z"/></clipPath><clipPath id="clip-path-43" transform="translate(-35.01 -35.02)"><path class="cls-2" d="M100.95,78.84A2,2,0,0,1,99.27,78l.61-.63a1.36,1.36,0,0,0,1.06.62.76.76,0,0,0,.61-.26,1.16,1.16,0,0,0,.22-.78V73.46h.94V77a1.92,1.92,0,0,1-.49,1.41A1.71,1.71,0,0,1,100.95,78.84Z"/></clipPath><clipPath id="clip-path-45" transform="translate(-35.01 -35.02)"><path class="cls-2" d="M106.66,76.65h1.8l-.91-2.12Zm-1.82,2.11,2.31-5.34H108l2.31,5.34h-1l-.53-1.28h-2.46l-.54,1.28Z"/></clipPath><clipPath id="clip-path-47" transform="translate(-35.01 -35.02)"><polygon class="cls-2" points="113.68 78.8 111.5 73.46 112.5 73.46 114.08 77.54 115.65 73.46 116.65 73.46 114.49 78.8 113.68 78.8"/></clipPath><clipPath id="clip-path-49" transform="translate(-35.01 -35.02)"><path class="cls-2" d="M119.69,76.65h1.8l-.91-2.12Zm-1.82,2.11,2.31-5.34H121l2.31,5.34h-1l-.53-1.28h-2.43l-.54,1.28Z"/></clipPath><clipPath id="clip-path-51" transform="translate(-35.01 -35.02)"><polygon class="cls-2" points="129.48 78.76 129.48 73.46 133.37 73.46 133.37 74.29 130.37 74.29 130.37 75.67 133 75.67 133 76.5 130.4 76.5 130.4 77.92 133.4 77.92 133.4 78.75 129.48 78.76"/></clipPath><clipPath id="clip-path-53" transform="translate(-35.01 -35.02)"><polygon class="cls-2" points="136 78.76 136 73.46 136.85 73.46 139.66 77.13 139.66 73.46 140.57 73.46 140.57 78.76 139.8 78.76 136.9 75 136.9 78.77 136 78.76"/></clipPath><clipPath id="clip-path-55" transform="translate(-35.01 -35.02)"><path class="cls-2" d="M145.9,78.85a2.62,2.62,0,0,1-2-.78,2.89,2.89,0,0,1,0-3.9,2.57,2.57,0,0,1,1.94-.8,3.16,3.16,0,0,1,1.12.18,3.09,3.09,0,0,1,.89.54l-.58.7a2.45,2.45,0,0,0-.66-.43,2.07,2.07,0,0,0-.81-.14,1.56,1.56,0,0,0-1.21.55,2.09,2.09,0,0,0,0,2.69,1.68,1.68,0,0,0,1.29.53,2,2,0,0,0,1.27-.4v-1h-1.34V75.8H148V78A3.24,3.24,0,0,1,145.9,78.85Z"/></clipPath><clipPath id="clip-path-57" transform="translate(-35.01 -35.02)"><rect class="cls-1" x="150.83" y="73.46" width="0.92" height="5.3"/></clipPath><clipPath id="clip-path-59" transform="translate(-35.01 -35.02)"><polygon class="cls-2" points="154.65 78.76 154.65 73.46 155.5 73.46 158.31 77.13 158.31 73.46 159.22 73.46 159.22 78.76 158.45 78.76 155.56 75 155.56 78.77 154.65 78.76"/></clipPath><clipPath id="clip-path-61" transform="translate(-35.01 -35.02)"><polygon class="cls-2" points="162.07 78.76 162.07 73.46 166 73.46 166 74.29 163 74.29 163 75.67 165.63 75.67 165.63 76.5 163 76.5 163 77.92 166 77.92 166 78.75 162.07 78.76"/></clipPath><clipPath id="clip-path-63" transform="translate(-35.01 -35.02)"><polygon class="cls-2" points="168.58 78.76 168.58 73.46 172.47 73.46 172.47 74.29 169.47 74.29 169.47 75.67 172.1 75.67 172.1 76.5 169.47 76.5 169.47 77.92 172.47 77.92 172.47 78.75 168.58 78.76"/></clipPath><clipPath id="clip-path-65" transform="translate(-35.01 -35.02)"><path class="cls-2" d="M176,76.09h1.35a1.19,1.19,0,0,0,.79-.24.81.81,0,0,0,.29-.66.78.78,0,0,0-.29-.65,1.25,1.25,0,0,0-.8-.23H176Zm-.92,2.67v-5.3h2.34a2.08,2.08,0,0,1,1.43.46,1.73,1.73,0,0,1,.18,2.26,1.8,1.8,0,0,1-.91.57l1.42,2h-1.09l-1.3-1.85H176v1.85Z"/></clipPath><clipPath id="clip-path-67" transform="translate(-35.01 -35.02)"><rect class="cls-1" x="182.07" y="73.46" width="0.93" height="5.3"/></clipPath><clipPath id="clip-path-69" transform="translate(-35.01 -35.02)"><polygon class="cls-2" points="185.89 78.76 185.89 73.46 186.74 73.46 189.55 77.13 189.55 73.46 190.46 73.46 190.46 78.76 189.69 78.76 186.79 75 186.79 78.77 185.89 78.76"/></clipPath><clipPath id="clip-path-71" transform="translate(-35.01 -35.02)"><path class="cls-2" d="M195.79,78.85a2.62,2.62,0,0,1-2-.78,2.89,2.89,0,0,1,0-3.9,2.57,2.57,0,0,1,1.94-.8,3.16,3.16,0,0,1,1.12.18,3.09,3.09,0,0,1,.89.54l-.58.7a2.45,2.45,0,0,0-.66-.43,2.07,2.07,0,0,0-.81-.14,1.56,1.56,0,0,0-1.21.55,2.09,2.09,0,0,0,0,2.69,1.68,1.68,0,0,0,1.29.53,2,2,0,0,0,1.27-.4v-1H195.7V75.8H198V78A3.24,3.24,0,0,1,195.79,78.85Z"/></clipPath></defs><title>Ресурс 4</title><g id="Слой_2" data-name="Слой 2"><g id="Слой_1-2" data-name="Слой 1"><g class="cls-3"><g class="cls-4"><rect class="cls-5" x="0.41" y="0.4" width="14.88" height="14.94"/></g></g><g class="cls-6"><g class="cls-4"><rect class="cls-5" x="19.84" y="10.22" width="14.88" height="14.94"/></g></g><g class="cls-7"><g class="cls-4"><rect class="cls-5" x="19.84" y="20.05" width="14.88" height="14.94"/></g></g><g class="cls-8"><g class="cls-4"><rect class="cls-5" x="10.12" y="20.05" width="14.88" height="14.94"/></g></g><g class="cls-9"><g class="cls-4"><rect class="cls-10" width="44.8" height="35.39"/></g></g><g class="cls-11"><g class="cls-4"><rect class="cls-5" x="29.56" y="10.22" width="14.88" height="14.94"/></g></g><g class="cls-12"><g class="cls-4"><rect class="cls-515" fill="#e06727" x="29.16" y="19.65" width="15.67" height="15.74"/></g></g><g class="cls-13"><g class="cls-4"><rect class="cls-5" x="140.21" y="0.4" width="29.64" height="34.59"/></g></g><g class="cls-14"><g class="cls-4"><rect class="cls-5" x="95.06" y="0.4" width="31.53" height="34.58"/></g></g><g class="cls-15"><g class="cls-4"><rect class="cls-5" x="51.3" y="0.4" width="29.33" height="34.58"/></g></g><g class="cls-16"><g class="cls-4"><rect class="cls-5" x="41.72" y="0.4" width="14.27" height="34.58"/></g></g><g class="cls-17"><g class="cls-4"><rect class="cls-5" x="74.9" y="0.4" width="28.72" height="34.58"/></g></g><g class="cls-18"><g class="cls-4"><rect class="cls-5" x="119.89" y="0.4" width="28.16" height="34.59"/></g></g><g class="cls-19"><g class="cls-4"><rect class="cls-20" x="0.79" y="33.44" width="13.9" height="15.31"/></g></g><g class="cls-21"><g class="cls-4"><rect class="cls-20" x="7.26" y="33.44" width="10.92" height="15.3"/></g></g><g class="cls-22"><g class="cls-4"><rect class="cls-20" x="11.08" y="33.44" width="14.57" height="15.31"/></g></g><g class="cls-23"><g class="cls-4"><rect class="cls-20" x="18.12" y="33.44" width="14.25" height="15.3"/></g></g><g class="cls-24"><g class="cls-4"><rect class="cls-20" x="24.84" y="33.44" width="13.92" height="15.3"/></g></g><g class="cls-25"><g class="cls-4"><rect class="cls-20" x="31.13" y="33.35" width="14.79" height="15.48"/></g></g><g class="cls-26"><g class="cls-4"><rect class="cls-20" x="38.39" y="33.44" width="14.34" height="15.3"/></g></g><g class="cls-27"><g class="cls-4"><rect class="cls-20" x="48.98" y="33.36" width="14.7" height="15.49"/></g></g><g class="cls-28"><g class="cls-4"><rect class="cls-20" x="59.26" y="33.44" width="13.44" height="15.39"/></g></g><g class="cls-29"><g class="cls-4"><rect class="cls-20" x="64.83" y="33.4" width="15.47" height="15.34"/></g></g><g class="cls-30"><g class="cls-4"><rect class="cls-20" x="71.49" y="33.44" width="15.15" height="15.34"/></g></g><g class="cls-31"><g class="cls-4"><rect class="cls-20" x="77.86" y="33.4" width="15.44" height="15.34"/></g></g><g class="cls-32"><g class="cls-4"><rect class="cls-20" x="89.47" y="33.44" width="13.92" height="15.3"/></g></g><g class="cls-33"><g class="cls-4"><rect class="cls-20" x="95.99" y="33.44" width="14.57" height="15.31"/></g></g><g class="cls-34"><g class="cls-4"><rect class="cls-20" x="103.14" y="33.35" width="14.9" height="15.48"/></g></g><g class="cls-35"><g class="cls-4"><rect class="cls-20" x="110.82" y="33.44" width="10.92" height="15.3"/></g></g><g class="cls-36"><g class="cls-4"><rect class="cls-20" x="114.64" y="33.44" width="14.57" height="15.31"/></g></g><g class="cls-37"><g class="cls-4"><rect class="cls-20" x="122.06" y="33.44" width="13.93" height="15.3"/></g></g><g class="cls-38"><g class="cls-4"><rect class="cls-20" x="128.57" y="33.44" width="13.89" height="15.3"/></g></g><g class="cls-39"><g class="cls-4"><rect class="cls-20" x="135.09" y="33.43" width="14.46" height="15.3"/></g></g><g class="cls-40"><g class="cls-4"><rect class="cls-20" x="142.06" y="33.44" width="10.93" height="15.3"/></g></g><g class="cls-41"><g class="cls-4"><rect class="cls-20" x="145.88" y="33.44" width="14.57" height="15.31"/></g></g><g class="cls-42"><g class="cls-4"><rect class="cls-20" x="153.03" y="33.35" width="14.97" height="15.48"/></g></g></g></g></svg>