<svg xmlns="http://www.w3.org/2000/svg" width="40" height="40" viewBox="0 0 40 40"><g fill="none" fill-rule="evenodd"><circle cx="20" cy="20" r="20" fill="#F4731C"/><path fill="#FFF" d="M20 11.486a2.585 2.585 0 0 1 2.583 2.583A2.585 2.585 0 0 1 20 16.651a2.586 2.586 0 0 1-2.583-2.582A2.586 2.586 0 0 1 20 11.486zm0 8.819a6.243 6.243 0 0 0 6.238-6.236A6.244 6.244 0 0 0 20 7.831a6.245 6.245 0 0 0-6.238 6.238A6.243 6.243 0 0 0 20 20.305zm2.524 5.088a11.68 11.68 0 0 0 3.622-1.5 1.827 1.827 0 0 0-1.947-3.095 7.92 7.92 0 0 1-8.398 0 1.825 1.825 0 0 0-2.52.575 1.827 1.827 0 0 0 .573 2.52 11.701 11.701 0 0 0 3.622 1.5l-3.488 3.488a1.828 1.828 0 0 0 2.586 2.584L20 28.038l3.429 3.427a1.826 1.826 0 1 0 2.583-2.584l-3.487-3.488z"/></g></svg>