<?xml version="1.0" encoding="UTF-8" standalone="no"?>
<svg width="200px" height="39px" viewBox="0 0 200 39" version="1.1" xmlns="http://www.w3.org/2000/svg" xmlns:xlink="http://www.w3.org/1999/xlink">
    <!-- Generator: Sketch 46 (44423) - http://www.bohemiancoding.com/sketch -->
    <title>Dimark</title>
    <desc>Created with Sketch.</desc>
    <defs></defs>
    <g id="CLIENTS-BANNERS" stroke="none" stroke-width="1" fill="none" fill-rule="evenodd">
        <g id="Dimark" transform="translate(-60.000000, -57.000000)" fill="#FFFFFF">
            <g id="Logo" transform="translate(60.000000, 57.000000)">
                <g id="Dimark">
                    <path d="M4.99266667,21.0469333 L22.966,21.0469333 C24.0906667,21.0469333 24.9113333,20.8696 25.4286667,20.5136 C25.9446667,20.1582667 26.2026667,19.6242667 26.2026667,18.9116 L26.2026667,7.7216 C26.2026667,7.0096 25.9446667,6.47626667 25.4286667,6.12026667 C24.9113333,5.76493333 24.0906667,5.58693333 22.966,5.58693333 L4.99266667,5.58693333 L4.99266667,21.0469333 Z M0,26.0396 L0,0.5936 L22.932,0.5936 C24.4693333,0.5936 25.778,0.7436 26.8573333,1.0416 C27.936,1.34026667 28.802,1.78226667 29.4566667,2.3676 C30.1106667,2.95293333 30.5873333,3.67626667 30.8853333,4.53626667 C31.184,5.39693333 31.3333333,6.39093333 31.3333333,7.51493333 L31.3333333,19.1182667 C31.3333333,20.2436 31.184,21.2362667 30.8853333,22.0969333 C30.5873333,22.9582667 30.1106667,23.6809333 29.4566667,24.2669333 C28.802,24.8516 27.936,25.2942667 26.8573333,25.5916 C25.778,25.8909333 24.4693333,26.0396 22.932,26.0396 L0,26.0396 Z" id="Fill-1"></path>
                    <polygon id="Fill-3" points="36.016 0.594 41.0086667 0.594 41.0086667 26.0393333 36.016 26.0393333"></polygon>
                    <path d="M45.8289333,26.0394667 L45.8289333,2.66013333 C45.8289333,1.8568 46.0696,1.2548 46.5516,0.852133333 C47.0336,0.4508 47.5849333,0.249466667 48.2042667,0.249466667 C48.5949333,0.249466667 48.9849333,0.3188 49.3756,0.456133333 C49.7656,0.594133333 50.1209333,0.8348 50.4429333,1.17946667 L68.0376,20.3921333 L85.6329333,1.17946667 C85.9309333,0.8588 86.2816,0.6228 86.6822667,0.473466667 C87.0836,0.3248 87.4802667,0.249466667 87.8709333,0.249466667 C88.4909333,0.249466667 89.0416,0.4508 89.5236,0.852133333 C90.0056,1.2548 90.2462667,1.8568 90.2462667,2.66013333 L90.2462667,26.0394667 L85.2536,26.0394667 L85.2536,8.7888 L69.8282667,25.6608 C69.3462667,26.1654667 68.7489333,26.4181333 68.0376,26.4181333 C67.3262667,26.4181333 66.7296,26.1654667 66.2476,25.6608 L50.8216,8.7888 L50.8216,26.0394667 L45.8289333,26.0394667 Z" id="Fill-5"></path>
                    <path d="M99.7156667,13.2653333 L121.098333,13.2653333 L121.098333,9.23666667 C121.098333,8.61666667 121.023,8.08333333 120.874333,7.63533333 C120.725,7.188 120.461,6.80933333 120.082333,6.49866667 C119.703,6.18933333 119.204333,5.96 118.584333,5.81066667 C117.965,5.66133333 117.184333,5.58666667 116.243667,5.58666667 L104.570333,5.58666667 C103.629,5.58666667 102.849,5.66133333 102.229667,5.81066667 C101.609667,5.96 101.110333,6.18933333 100.731667,6.49866667 C100.353,6.80933333 100.088333,7.188 99.9396667,7.63533333 C99.7896667,8.08333333 99.7156667,8.61666667 99.7156667,9.23666667 L99.7156667,13.2653333 Z M94.723,26.0393333 L94.723,9.23666667 C94.723,6.45933333 95.5323333,4.32466667 97.1503333,2.832 C98.7683333,1.34 101.230333,0.594 104.535667,0.594 L116.277667,0.594 C119.583,0.594 122.045667,1.34 123.663,2.832 C125.281667,4.32466667 126.091,6.45933333 126.091,9.23666667 L126.091,26.0393333 L121.098333,26.0393333 L121.098333,17.914 L99.7156667,17.914 L99.7156667,26.0393333 L94.723,26.0393333 Z" id="Fill-6"></path>
                    <path d="M135.559067,12.4730667 L153.567733,12.4730667 C154.691733,12.4730667 155.5124,12.2957333 156.029067,11.9397333 C156.545733,11.5844 156.803733,11.0504 156.803733,10.3384 L156.803733,7.72173333 C156.803733,7.00973333 156.545733,6.4764 156.029067,6.1204 C155.5124,5.7644 154.691733,5.5864 153.567733,5.5864 L135.559067,5.5864 L135.559067,12.4730667 Z M130.5664,26.0397333 L130.5664,0.593733333 L153.5324,0.593733333 C155.0704,0.593733333 156.379067,0.743733333 157.4584,1.04173333 C158.537067,1.3404 159.403733,1.78173333 160.0584,2.36773333 C160.711733,2.95306667 161.1884,3.6764 161.487067,4.5364 C161.7844,5.39706667 161.933733,6.3904 161.933733,7.51506667 L161.933733,10.0284 C161.933733,11.1537333 161.7844,12.1464 161.487067,13.0064 C161.1884,13.8677333 160.711733,14.5910667 160.0584,15.1764 C159.403733,15.7610667 158.537067,16.2037333 157.4584,16.5010667 C156.379067,16.8004 155.0704,16.9490667 153.5324,16.9490667 L149.6764,16.9490667 L162.691733,26.0397333 L153.739733,26.0397333 L141.6884,16.9490667 L135.559067,16.9490667 L135.559067,26.0397333 L130.5664,26.0397333 Z" id="Fill-7"></path>
                    <polygon id="Fill-8" points="165.2746 26.0394667 165.2746 0.594133333 170.267267 0.594133333 170.267267 10.1661333 173.2966 10.1661333 188.757267 0.594133333 198.2606 0.594133333 178.323933 12.3701333 199.465933 26.0394667 190.237933 26.0394667 173.2966 14.5734667 170.267267 14.5734667 170.267267 26.0394667"></polygon>
                    <path d="M66.161,38.5365333 L66.161,36.8245333 L73.7196667,36.8245333 C74.105,36.8245333 74.3863333,36.7638667 74.5636667,36.6412 C74.741,36.5198667 74.8296667,36.3358667 74.8296667,36.0918667 L74.8296667,35.1945333 C74.8296667,34.9512 74.741,34.7678667 74.5636667,34.6458667 C74.3863333,34.5232 74.105,34.4625333 73.7196667,34.4625333 L68.689,34.4625333 C67.0036667,34.4625333 66.161,33.8365333 66.161,32.5852 L66.161,31.4858667 C66.161,30.3685333 66.995,29.8092 68.6643333,29.8092 L76.235,29.8092 L76.235,31.5218667 L68.6056667,31.5218667 C68.3456667,31.5218667 68.1683333,31.5478667 68.075,31.5992 C67.9803333,31.6498667 67.9323333,31.7305333 67.9323333,31.8412 L67.9323333,32.3605333 C67.9323333,32.5025333 67.9803333,32.6025333 68.075,32.6612 C68.1683333,32.7198667 68.3496667,32.7505333 68.6183333,32.7505333 L73.7076667,32.7505333 C74.235,32.7505333 74.6836667,32.8012 75.0536667,32.9038667 C75.4236667,33.0058667 75.721,33.1578667 75.9456667,33.3585333 C76.1696667,33.5592 76.333,33.8072 76.4356667,34.1025333 C76.5376667,34.3978667 76.589,34.7385333 76.589,35.1238667 L76.589,36.1632 C76.589,36.5492 76.5376667,36.8892 76.4356667,37.1845333 C76.333,37.4798667 76.1696667,37.7278667 75.9456667,37.9285333 C75.721,38.1292 75.4236667,38.2812 75.0536667,38.3832 C74.6836667,38.4852 74.235,38.5365333 73.7076667,38.5365333 L66.161,38.5365333 Z" id="Fill-9"></path>
                    <path d="M79.7892,36.0918667 C79.7892,36.3358667 79.8778667,36.5198667 80.0552,36.6412 C80.2325333,36.7638667 80.5138667,36.8245333 80.8998667,36.8245333 L85.9192,36.8245333 C86.3045333,36.8245333 86.5858667,36.7638667 86.7625333,36.6412 C86.9405333,36.5198667 87.0292,36.3358667 87.0292,36.0918667 L87.0292,32.2545333 C87.0292,32.0098667 86.9405333,31.8265333 86.7625333,31.7045333 C86.5858667,31.5832 86.3045333,31.5218667 85.9192,31.5218667 L80.8998667,31.5218667 C80.5138667,31.5218667 80.2325333,31.5832 80.0552,31.7045333 C79.8778667,31.8265333 79.7892,32.0098667 79.7892,32.2545333 L79.7892,36.0918667 Z M80.9112,38.5365333 C80.3758667,38.5365333 79.9252,38.4852 79.5592,38.3832 C79.1932,38.2812 78.8978667,38.1292 78.6738667,37.9285333 C78.4492,37.7278667 78.2858667,37.4798667 78.1832,37.1845333 C78.0805333,36.8892 78.0298667,36.5492 78.0298667,36.1632 L78.0298667,32.1832 C78.0298667,31.7972 78.0805333,31.4565333 78.1832,31.1612 C78.2858667,30.8665333 78.4492,30.6185333 78.6738667,30.4172 C78.8978667,30.2165333 79.1932,30.0658667 79.5592,29.9625333 C79.9252,29.8605333 80.3758667,29.8092 80.9112,29.8092 L85.9072,29.8092 C86.4345333,29.8092 86.8832,29.8605333 87.2532,29.9625333 C87.6225333,30.0658667 87.9205333,30.2165333 88.1452,30.4172 C88.3692,30.6185333 88.5318667,30.8665333 88.6352,31.1612 C88.7372,31.4565333 88.7885333,31.7972 88.7885333,32.1832 L88.7885333,36.1632 C88.7885333,36.5492 88.7372,36.8892 88.6352,37.1845333 C88.5318667,37.4798667 88.3692,37.7278667 88.1452,37.9285333 C87.9205333,38.1292 87.6225333,38.2812 87.2532,38.3832 C86.8832,38.4852 86.4345333,38.5365333 85.9072,38.5365333 L80.9112,38.5365333 Z" id="Fill-10"></path>
                    <polygon id="Fill-11" points="90.299 38.5365333 90.299 29.8092 101.057667 29.8092 101.057667 31.5218667 92.011 31.5218667 92.011 32.6678667 98.9436667 32.6678667 98.9436667 34.2618667 92.011 34.2618667 92.011 38.5365333"></polygon>
                    <polygon id="Fill-12" points="106.396333 38.5365333 106.396333 31.5218667 101.872333 31.5218667 101.872333 29.8092 112.631 29.8092 112.631 31.5218667 108.108333 31.5218667 108.108333 38.5365333"></polygon>
                    <path d="M116.422067,38.5365333 C115.886067,38.5365333 115.436067,38.4852 115.0694,38.3832 C114.7034,38.2812 114.408733,38.1292 114.184067,37.9285333 C113.9594,37.7278667 113.796067,37.4798667 113.694067,37.1845333 C113.5914,36.8892 113.540733,36.5492 113.540733,36.1632 L113.540733,29.8092 L115.300067,29.8092 L115.300067,36.0918667 C115.300067,36.3358667 115.388733,36.5198667 115.5654,36.6412 C115.742733,36.7638667 116.024733,36.8245333 116.410067,36.8245333 L120.602733,36.8245333 L120.602733,29.8092 L122.314067,29.8092 L122.314067,36.8245333 L126.4834,36.8245333 C126.868733,36.8245333 127.150733,36.7638667 127.328067,36.6412 C127.504733,36.5198667 127.5934,36.3358667 127.5934,36.0918667 L127.5934,29.8092 L129.3534,29.8092 L129.3534,36.1632 C129.3534,36.5492 129.3014,36.8892 129.1994,37.1845333 C129.0974,37.4798667 128.934067,37.7278667 128.7094,37.9285333 C128.4854,38.1292 128.1874,38.2812 127.818067,38.3832 C127.4474,38.4852 126.998733,38.5365333 126.472067,38.5365333 L116.422067,38.5365333 Z" id="Fill-13"></path>
                    <path d="M132.577,34.155 L139.910333,34.155 L139.910333,32.7736667 C139.910333,32.561 139.885,32.3783333 139.834333,32.2243333 C139.783,32.071 139.691667,31.941 139.562333,31.835 C139.433,31.7283333 139.261,31.6503333 139.049,31.599 C138.836333,31.5476667 138.568333,31.5216667 138.245,31.5216667 L134.242333,31.5216667 C133.919,31.5216667 133.651667,31.5476667 133.439,31.599 C133.226333,31.6503333 133.055,31.7283333 132.925667,31.835 C132.795667,31.941 132.704333,32.071 132.653667,32.2243333 C132.602333,32.3783333 132.577,32.561 132.577,32.7736667 L132.577,34.155 Z M130.865,38.5363333 L130.865,32.7736667 C130.865,31.8216667 131.142333,31.0883333 131.697,30.577 C132.252333,30.0656667 133.096333,29.809 134.230333,29.809 L138.257667,29.809 C139.391667,29.809 140.235667,30.0656667 140.791,30.577 C141.345667,31.0883333 141.623,31.8216667 141.623,32.7736667 L141.623,38.5363333 L139.910333,38.5363333 L139.910333,35.7496667 L132.577,35.7496667 L132.577,38.5363333 L130.865,38.5363333 Z" id="Fill-14"></path>
                    <path d="M144.870267,33.8838667 L151.046933,33.8838667 C151.432933,33.8838667 151.714267,33.8232 151.8916,33.7005333 C152.068933,33.5785333 152.156933,33.3958667 152.156933,33.1518667 L152.156933,32.2545333 C152.156933,32.0098667 152.068933,31.8265333 151.8916,31.7045333 C151.714267,31.5832 151.432933,31.5218667 151.046933,31.5218667 L144.870267,31.5218667 L144.870267,33.8838667 Z M143.158267,38.5365333 L143.158267,29.8092 L151.0356,29.8092 C151.562267,29.8092 152.0116,29.8605333 152.3816,29.9625333 C152.750933,30.0658667 153.048933,30.2172 153.272933,30.4172 C153.4976,30.6185333 153.660933,30.8665333 153.762933,31.1618667 C153.864933,31.4565333 153.916933,31.7972 153.916933,32.1832 L153.916933,33.0452 C153.916933,33.4312 153.864933,33.7718667 153.762933,34.0672 C153.660933,34.3618667 153.4976,34.6098667 153.272933,34.8112 C153.048933,35.0118667 152.750933,35.1625333 152.3816,35.2652 C152.0116,35.3678667 151.562267,35.4192 151.0356,35.4192 L149.712933,35.4192 L154.176267,38.5365333 L151.106267,38.5365333 L146.972267,35.4192 L144.870267,35.4192 L144.870267,38.5365333 L143.158267,38.5365333 Z" id="Fill-15"></path>
                    <polygon id="Fill-16" points="155.061667 38.5365333 155.061667 29.8092 165.796333 29.8092 165.796333 31.5218667 156.773667 31.5218667 156.773667 32.6678667 164.155 32.6678667 164.155 34.2618667 156.773667 34.2618667 156.773667 36.8245333 165.820333 36.8245333 165.820333 38.5365333"></polygon>
                    <polygon id="Fill-17" points="171.548 29.8093333 173.26 29.8093333 173.26 38.5366667 171.548 38.5366667"></polygon>
                    <path d="M174.9136,38.5365333 L174.9136,30.5652 C174.9136,30.2898667 174.994267,30.0758667 175.1556,29.9212 C175.316933,29.7678667 175.504267,29.6912 175.716933,29.6912 C175.810933,29.6912 175.9096,29.7072 176.0116,29.7385333 C176.1136,29.7705333 176.208267,29.8212 176.2956,29.8918667 L183.958933,36.0805333 L183.958933,29.8092 L185.672267,29.8092 L185.672267,37.7925333 C185.672267,38.0685333 185.590933,38.2825333 185.430267,38.4358667 C185.268267,38.5898667 185.080933,38.6665333 184.868933,38.6665333 C184.774933,38.6665333 184.6756,38.6505333 184.5736,38.6192 C184.470933,38.5878667 184.376267,38.5365333 184.2896,38.4658667 L176.6256,32.2778667 L176.6256,38.5365333 L174.9136,38.5365333 Z" id="Fill-18"></path>
                    <path d="M190.064933,38.5365333 C189.5296,38.5365333 189.078933,38.4852 188.712933,38.3832 C188.346933,38.2812 188.0516,38.1292 187.8276,37.9285333 C187.602933,37.7278667 187.4396,37.4798667 187.336933,37.1845333 C187.234267,36.8892 187.1836,36.5492 187.1836,36.1632 L187.1836,32.1832 C187.1836,31.7972 187.234267,31.4565333 187.336933,31.1612 C187.4396,30.8665333 187.602933,30.6185333 187.8276,30.4172 C188.0516,30.2172 188.346933,30.0658667 188.712933,29.9625333 C189.078933,29.8605333 189.5296,29.8092 190.064933,29.8092 L197.918267,29.8092 L197.918267,31.5218667 L190.0536,31.5218667 C189.6676,31.5218667 189.386267,31.5832 189.208933,31.7045333 C189.0316,31.8265333 188.942933,32.0098667 188.942933,32.2545333 L188.942933,36.0918667 C188.942933,36.3358667 189.0316,36.5198667 189.208933,36.6412 C189.386267,36.7638667 189.6676,36.8245333 190.0536,36.8245333 L197.942267,36.8245333 L197.942267,38.5365333 L190.064933,38.5365333 Z" id="Fill-19"></path>
                </g>
            </g>
        </g>
    </g>
</svg>