<svg xmlns="http://www.w3.org/2000/svg" xmlns:xlink="http://www.w3.org/1999/xlink" width="31" height="31" viewBox="0 0 31 31"><defs><clipPath id="defa8a6b-92ab-4b49-b093-2c6ca6977e5a"><path d="M15.7,15,5.85,5.14a.5.5,0,0,0-.71.71h0l9.63,9.65L5.15,24.93a.5.5,0,0,0,.65.76l.05-.05L15.7,16a.5.5,0,0,1-.4,0l9.85,9.88a.5.5,0,0,0,.71-.71L16.23,15.5l9.62-9.42a.5.5,0,0,0-.7-.71L15.3,15a.5.5,0,0,1,.4,0Z" style="fill:none"/></clipPath></defs><title>error-bg</title><g id="c0cfbdc0-c83d-47ea-828f-6e18476edfd6" data-name="Слой 2"><g id="63c84c53-05d3-4bbe-82cf-f29106676f4e" data-name="Слой 1"><g id="fffef0ea-1bfb-487c-b642-692f9fffefc0" data-name="31497e7e-a4ca-4156-8280-7418dc5d17de"><g id="c0f83388-c757-4f95-8d9d-d418209a6219" data-name="af6592da-1db6-4efb-b564-4024afe7e2dc"><g style="clip-path:url(#defa8a6b-92ab-4b49-b093-2c6ca6977e5a)"><rect width="31" height="31" style="fill:#d80000"/></g></g></g></g></g></svg>