<svg xmlns="http://www.w3.org/2000/svg" xmlns:xlink="http://www.w3.org/1999/xlink" width="142" height="142" viewBox="0 0 142 142"><defs><clipPath id="1f9263f1-f285-46d2-ae18-da36550d1a44"><rect x="5" y="5" width="132" height="132" style="fill:none"/></clipPath><clipPath id="a4aa63d4-7d0e-4d5e-8f7c-0dfa8cdc6f78"><path d="M69.24,55.23a8,8,0,0,1,10.78,0,2.84,2.84,0,0,0,3.89,0,8.06,8.06,0,1,1,5.35,14.08,8.19,8.19,0,0,1-5.43-2.05,2.84,2.84,0,0,0-3.89,0,8,8,0,0,1-11.37-.59A8.18,8.18,0,0,1,69.24,55.23ZM67.33,69.46a11,11,0,0,0,14.67,0A11,11,0,0,0,96.74,53.11a10.89,10.89,0,0,0-7.33-2.79,11.12,11.12,0,0,0-7.33,2.79,11.08,11.08,0,0,0-15.55.81A11,11,0,0,0,67.33,69.46Z" style="fill:none;clip-rule:evenodd"/></clipPath><clipPath id="3c83ae51-8d61-4dfa-98eb-3aa6e986398d"><path d="M89.7,125.49A16.5,16.5,0,1,1,106.2,109,16.52,16.52,0,0,1,89.7,125.49Zm-26.77-.37A16.47,16.47,0,0,1,43.5,112.21a24.15,24.15,0,0,1-.37-3.23v-.15a16.37,16.37,0,0,1,2.79-9.09,16.54,16.54,0,0,1,23-4.62A15.89,15.89,0,0,1,73,99a19.84,19.84,0,0,0-2.71,9.9,19.11,19.11,0,0,0,2.71,9.9A16.56,16.56,0,0,1,62.93,125.12Zm46.57-17.67h-.44A19.47,19.47,0,0,0,74.67,96.52a19.09,19.09,0,0,0-4.25-3.81A19.55,19.55,0,0,0,40.2,107.52h-.44a1.47,1.47,0,1,0,0,2.93h.44c.07.81.15,1.61.29,2.42a19.34,19.34,0,0,0,19,15.62,23.21,23.21,0,0,0,3.89-.37,19.36,19.36,0,0,0,11.15-6.67,19.47,19.47,0,0,0,34.39-10.93h.44a1.47,1.47,0,0,0,1.47-1.47A1.49,1.49,0,0,0,109.5,107.45Z" style="fill:none;clip-rule:evenodd"/></clipPath><clipPath id="ceecc3d4-5ad2-458f-a506-273c5a1f7c08"><path d="M122.33,50.61a1.47,1.47,0,0,0-1.47,1.47v3.67a1.47,1.47,0,0,0,2.93,0V52.08A1.47,1.47,0,0,0,122.33,50.61Z" style="fill:none;clip-rule:evenodd"/></clipPath><clipPath id="91484bed-abf6-40dd-bd41-567c586ad7da"><path d="M122.33,61.69a1.47,1.47,0,0,0-1.47,1.47v3.67a1.47,1.47,0,1,0,2.93,0V63.15A1.47,1.47,0,0,0,122.33,61.69Z" style="fill:none;clip-rule:evenodd"/></clipPath><clipPath id="862c423a-0da9-4bd1-b96c-c091b2a26057"><path d="M116.76,44.67a5.94,5.94,0,0,1,2.49,1.54,1.49,1.49,0,0,0,1.1.44,1.75,1.75,0,0,0,1-.37,1.49,1.49,0,0,0,.07-2.05,8.34,8.34,0,0,0-3.74-2.35,1.45,1.45,0,0,0-1.83,1A1.42,1.42,0,0,0,116.76,44.67Z" style="fill:none;clip-rule:evenodd"/></clipPath><clipPath id="3db1185f-cb87-46ad-a587-0377daa98f52"><path d="M122.33,83.83a1.47,1.47,0,0,0-1.47,1.47V89a1.47,1.47,0,0,0,2.93,0V85.3A1.47,1.47,0,0,0,122.33,83.83Z" style="fill:none;clip-rule:evenodd"/></clipPath><clipPath id="108f9893-4c57-4cab-a3dc-0ff49608afab"><path d="M122.33,94.91a1.47,1.47,0,0,0-1.47,1.47V100a1.47,1.47,0,1,0,2.93,0V96.37A1.47,1.47,0,0,0,122.33,94.91Z" style="fill:none;clip-rule:evenodd"/></clipPath><clipPath id="862ef60d-7a10-4099-904d-5fd37811db4a"><path d="M119,105.83a5.88,5.88,0,0,1-2.57,1.39,1.46,1.46,0,0,0,.37,2.86.66.66,0,0,0,.37-.07,8.19,8.19,0,0,0,3.81-2.13,1.49,1.49,0,0,0,.07-2.05A1.42,1.42,0,0,0,119,105.83Z" style="fill:none;clip-rule:evenodd"/></clipPath><clipPath id="2d4044f7-8ff4-4465-a283-5f355e856583"><path d="M122.33,72.76a1.47,1.47,0,0,0-1.47,1.47v3.67a1.47,1.47,0,1,0,2.93,0V74.23A1.47,1.47,0,0,0,122.33,72.76Z" style="fill:none;clip-rule:evenodd"/></clipPath><clipPath id="853e5d02-d598-4cbf-9275-5d82adbe8fd1"><path d="M104.73,72.25a4.41,4.41,0,0,1-4.4,4.4H19.67a4.41,4.41,0,0,1-4.4-4.4V44.38h89.47ZM15.27,29.71h89.47V41.45H15.27Zm0-8.8a4.41,4.41,0,0,1,4.4-4.4h80.67a4.41,4.41,0,0,1,4.4,4.4v5.87H15.27Zm94.6,20.53H108a.66.66,0,0,0-.37.07V20.91a7.35,7.35,0,0,0-7.33-7.33H19.67a7.35,7.35,0,0,0-7.33,7.33V72.25a7.36,7.36,0,0,0,7.33,7.33h5.87v1.83a1.47,1.47,0,1,0,2.93,0V79.58h71.87a7.36,7.36,0,0,0,7.33-7.33V44.31c.15,0,.22.07.37.07h1.83a1.47,1.47,0,1,0,0-2.93Z" style="fill:none;clip-rule:evenodd"/></clipPath><clipPath id="0dcb7c9c-fb06-4d3e-b1fc-3aaaf5a1b7f2"><path d="M27,96.89a1.47,1.47,0,0,0-1.47,1.47v3.37a1.47,1.47,0,0,0,2.93,0V98.35A1.47,1.47,0,0,0,27,96.89Z" style="fill:none;clip-rule:evenodd"/></clipPath><clipPath id="043bedf4-7e4a-4fdf-b29c-5353c2f9bb71"><path d="M27,93.07a1.47,1.47,0,0,0,1.47-1.47V88.23a1.47,1.47,0,0,0-2.93,0v3.37A1.47,1.47,0,0,0,27,93.07Z" style="fill:none;clip-rule:evenodd"/></clipPath><clipPath id="b2ff4657-41e4-4db7-bbba-7ba568286eaf"><path d="M33.31,107.37a6.21,6.21,0,0,1-2.49-1,1.47,1.47,0,1,0-1.76,2.35,9.69,9.69,0,0,0,3.67,1.61h.22a1.49,1.49,0,0,0,1.47-1.25A1.34,1.34,0,0,0,33.31,107.37Z" style="fill:none;clip-rule:evenodd"/></clipPath><clipPath id="27d28764-c53a-4054-bf2d-5b0867d21a86"><path d="M63.3,109a6.6,6.6,0,0,0-1.17-.81c-.44-.22-1-.44-1.47-.66a5.32,5.32,0,0,1-.88-.37c-.22-.07-.44-.22-.66-.29a.88.88,0,0,1-.37-.37,1.06,1.06,0,0,1-.15-.51.9.9,0,0,1,.37-.73,2.41,2.41,0,0,1,1.25-.29,11,11,0,0,1,1.61.15,5.09,5.09,0,0,1,1.39.44l.59-2.2a6.46,6.46,0,0,0-1.1-.37,12.45,12.45,0,0,0-1.61-.29v-1.91H58.83v2a4.45,4.45,0,0,0-1.39.44A2.9,2.9,0,0,0,56,105a3,3,0,0,0-.15,1.17,2.68,2.68,0,0,0,.29,1.32,3,3,0,0,0,.73,1,4.94,4.94,0,0,0,1,.66c.37.15.73.37,1.17.51a8.68,8.68,0,0,1,1.1.44,3.93,3.93,0,0,1,.81.37,1.24,1.24,0,0,1,.44.44.79.79,0,0,1,.15.59,1.22,1.22,0,0,1-.37.88,2.53,2.53,0,0,1-1.47.29,7.37,7.37,0,0,1-1.83-.22,8.75,8.75,0,0,1-1.47-.59l-.81,2.05a6.38,6.38,0,0,0,1.25.51,9.9,9.9,0,0,0,2.13.44v2.13h2.27v-2.2a4.9,4.9,0,0,0,1.47-.44,2.55,2.55,0,0,0,1-.81,2.71,2.71,0,0,0,.51-1,5.65,5.65,0,0,0,.15-1.1,3,3,0,0,0-.29-1.39A4.16,4.16,0,0,0,63.3,109Z" style="fill:none;clip-rule:evenodd"/></clipPath><clipPath id="a1a155c7-6d86-483e-a493-2a0c4c1a9c8f"><path d="M89.41,112.14a11.36,11.36,0,0,0,.07-1.54h3.08v-2.49H89.48v-1.32a7.22,7.22,0,0,1,.15-1.25,2.72,2.72,0,0,1,.37-.81,1,1,0,0,1,.59-.37,3,3,0,0,1,.81-.07,3.71,3.71,0,0,1,.88.15,3.91,3.91,0,0,1,.81.37l.66-2.42a3.6,3.6,0,0,0-1.25-.44,4.28,4.28,0,0,0-1.39-.15,7.22,7.22,0,0,0-1.76.22,2.84,2.84,0,0,0-1.39.88,3.9,3.9,0,0,0-.88,1.61,9.87,9.87,0,0,0-.37,2.57v1.1H85.08v2.49h1.61c0,.81-.07,1.69-.15,2.57a22.24,22.24,0,0,1-.44,3.08h7.77v-2.57H89.11A4.17,4.17,0,0,0,89.41,112.14Z" style="fill:none;clip-rule:evenodd"/></clipPath></defs><title>ft-1</title><g id="ff494480-487e-4b3a-a6d4-3712e42d8741" data-name="Слой 2"><g id="07d42985-bd59-4cac-a78a-0c2a683d1171" data-name="Слой 1"><g style="clip-path:url(#1f9263f1-f285-46d2-ae18-da36550d1a44)"><rect width="142" height="142" style="fill:#fff"/></g><g style="clip-path:url(#a4aa63d4-7d0e-4d5e-8f7c-0dfa8cdc6f78)"><rect x="58.67" y="45.31" width="46.68" height="31.96" style="fill:#e06727"/></g><g style="clip-path:url(#3c83ae51-8d61-4dfa-98eb-3aa6e986398d)"><rect x="33.29" y="84.48" width="82.53" height="49.02" style="fill:#e06727"/></g><g style="clip-path:url(#ceecc3d4-5ad2-458f-a506-273c5a1f7c08)"><rect x="115.87" y="45.61" width="12.93" height="16.6" style="fill:#e06727"/></g><g style="clip-path:url(#91484bed-abf6-40dd-bd41-567c586ad7da)"><rect x="115.87" y="56.69" width="12.93" height="16.6" style="fill:#e06727"/></g><g style="clip-path:url(#862c423a-0da9-4bd1-b96c-c091b2a26057)"><rect x="110.79" y="36.82" width="16.04" height="14.83" style="fill:#e06727"/></g><g style="clip-path:url(#3db1185f-cb87-46ad-a587-0377daa98f52)"><rect x="115.87" y="78.83" width="12.93" height="16.6" style="fill:#e06727"/></g><g style="clip-path:url(#108f9893-4c57-4cab-a3dc-0ff49608afab)"><rect x="115.87" y="89.91" width="12.93" height="16.6" style="fill:#e06727"/></g><g style="clip-path:url(#862ef60d-7a10-4099-904d-5fd37811db4a)"><rect x="110.38" y="100.39" width="16.08" height="14.69" style="fill:#e06727"/></g><g style="clip-path:url(#2d4044f7-8ff4-4465-a283-5f355e856583)"><rect x="115.87" y="67.76" width="12.93" height="16.6" style="fill:#e06727"/></g><g style="clip-path:url(#853e5d02-d598-4cbf-9275-5d82adbe8fd1)"><rect x="7.33" y="8.58" width="109" height="79.3" style="fill:#e06727"/></g><g style="clip-path:url(#0dcb7c9c-fb06-4d3e-b1fc-3aaaf5a1b7f2)"><rect x="20.53" y="91.89" width="12.93" height="16.31" style="fill:#e06727"/></g><g style="clip-path:url(#043bedf4-7e4a-4fdf-b29c-5353c2f9bb71)"><rect x="20.53" y="81.77" width="12.93" height="16.31" style="fill:#e06727"/></g><g style="clip-path:url(#b2ff4657-41e4-4db7-bbba-7ba568286eaf)"><rect x="23.45" y="101.04" width="16.01" height="14.27" style="fill:#e06727"/></g><g style="clip-path:url(#27d28764-c53a-4054-bf2d-5b0867d21a86)"><rect x="50.6" y="95.77" width="18.73" height="26.13" style="fill:#e06727"/></g><g style="clip-path:url(#a1a155c7-6d86-483e-a493-2a0c4c1a9c8f)"><rect x="80.08" y="96.8" width="18.8" height="24.52" style="fill:#e06727"/></g></g></g></svg>