<svg xmlns="http://www.w3.org/2000/svg" xmlns:xlink="http://www.w3.org/1999/xlink" width="142" height="142" viewBox="0 0 142 142"><defs><clipPath id="3d923fde-a6d7-46e0-a617-4dca4b3325b9"><rect x="5" y="5" width="132" height="132" style="fill:none"/></clipPath><clipPath id="fe1035bc-5337-4ee8-811b-836d3f2d115e"><path d="M79,11.6A45.48,45.48,0,0,0,46.07,24.73a44,44,0,0,0-13.2,31.61v22a1.47,1.47,0,0,0,1.47,1.47h13.2v20.75a8.59,8.59,0,0,0,8.58,8.58H76.87v20.53a1.47,1.47,0,0,0,2.93,0v-22a1.47,1.47,0,0,0-1.47-1.47H56.11a5.65,5.65,0,0,1-5.65-5.65V94.47H63.89a1.47,1.47,0,0,0,0-2.93H50.47V78.33A1.47,1.47,0,0,0,49,76.87H35.8V56.33A41.31,41.31,0,0,1,48.12,26.78,42.6,42.6,0,0,1,79,14.53c23.1.29,41.95,19.65,41.95,43.12v72a1.47,1.47,0,0,0,2.93,0v-72C123.8,32.57,103.71,12,79,11.6Z" style="fill:none;clip-rule:evenodd"/></clipPath><clipPath id="394b6846-6be9-41f0-a10f-0b898bdbbbfa"><path d="M20.69,11.31a1.45,1.45,0,1,0-2.05,2.05L26,20.69a1.42,1.42,0,0,0,2.05,0,1.42,1.42,0,0,0,0-2.05Z" style="fill:none;clip-rule:evenodd"/></clipPath><clipPath id="eb0cb88b-5e64-464a-bdb5-71490fe902da"><path d="M20.69,26A1.45,1.45,0,1,0,18.64,28L26,35.36a1.42,1.42,0,0,0,2.05,0,1.42,1.42,0,0,0,0-2.05Z" style="fill:none;clip-rule:evenodd"/></clipPath><clipPath id="9033eb32-dde2-4386-95b4-aeb8e0aa1186"><path d="M40.64,20.69a1.42,1.42,0,0,0,2.05,0,1.42,1.42,0,0,0,0-2.05l-7.33-7.33a1.45,1.45,0,0,0-2.05,2.05Z" style="fill:none;clip-rule:evenodd"/></clipPath><clipPath id="e162fe31-86b2-44f9-9b81-89d6c13eb84c"><path d="M47,54.94A11.28,11.28,0,0,1,57.65,43.06.66.66,0,0,0,58,43h.07c.15-.07.22-.07.29-.15h.07c.07-.07.22-.15.29-.29a.07.07,0,0,1,.07-.07c.07-.15.15-.22.22-.37a20.54,20.54,0,0,1,38.65-.37,1.56,1.56,0,0,0,1.39,1.32,11.29,11.29,0,0,1,10.63,11.66,11.16,11.16,0,0,1-3.15,7.41H50.17A10.81,10.81,0,0,1,47,54.94Zm61.67-10.27a14.31,14.31,0,0,0-8.58-4.4,23.46,23.46,0,0,0-43.63,0A14.2,14.2,0,0,0,44.09,55.16a14.1,14.1,0,0,0,4.47,9.61,1.75,1.75,0,0,0,1,.37H76.87V71a1.45,1.45,0,0,0,.44,1L91.53,87v42.68a1.47,1.47,0,0,0,2.93,0V86.4a1.45,1.45,0,0,0-.44-1l-14.23-15V65.13h26.4v64.53a1.47,1.47,0,0,0,2.93,0V63.59a14,14,0,0,0,3.37-8.73A13.85,13.85,0,0,0,108.69,44.67Z" style="fill:none;clip-rule:evenodd"/></clipPath><clipPath id="62413adb-48de-4ad7-bc55-64dc89d0c153"><path d="M80,41.67a1.47,1.47,0,0,0,1.47,1.47h3.67a1.47,1.47,0,1,0,0-2.93H81.49A1.47,1.47,0,0,0,80,41.67Z" style="fill:none;clip-rule:evenodd"/></clipPath><clipPath id="2daab6a3-9e54-48a7-a454-0e3e840f4ecf"><path d="M75.62,41.67a1.47,1.47,0,0,0-1.47-1.47H70.49a1.47,1.47,0,1,0,0,2.93h3.67A1.47,1.47,0,0,0,75.62,41.67Z" style="fill:none;clip-rule:evenodd"/></clipPath><clipPath id="c562f049-0200-4cea-b04a-3d7c7098cfd7"><path d="M98.35,50.47H102a1.47,1.47,0,0,0,0-2.93H98.35a1.47,1.47,0,0,0,0,2.93Z" style="fill:none;clip-rule:evenodd"/></clipPath><clipPath id="e3610fa8-fb96-46ad-93fd-5aa7473f6ed8"><path d="M69,47.53H65.35a1.47,1.47,0,0,0,0,2.93H69a1.47,1.47,0,0,0,0-2.93Z" style="fill:none;clip-rule:evenodd"/></clipPath><clipPath id="2546c764-d230-4833-8a4c-785b94754fae"><path d="M80,47.53H76.35a1.47,1.47,0,0,0,0,2.93H80a1.47,1.47,0,0,0,0-2.93Z" style="fill:none;clip-rule:evenodd"/></clipPath><clipPath id="577119a5-6c6f-402b-8636-77fcde5d6eb1"><path d="M58,47.53H54.35a1.47,1.47,0,0,0,0,2.93H58a1.47,1.47,0,0,0,0-2.93Z" style="fill:none;clip-rule:evenodd"/></clipPath><clipPath id="01c5b437-a53b-4d00-b1ca-bfbb5bafc919"><path d="M85.89,49a1.47,1.47,0,0,0,1.47,1.47H91a1.47,1.47,0,0,0,0-2.93H87.35A1.47,1.47,0,0,0,85.89,49Z" style="fill:none;clip-rule:evenodd"/></clipPath><clipPath id="e75d99c2-7180-45d1-8e99-8f1169727f0d"><path d="M76.35,35.8H80a1.47,1.47,0,1,0,0-2.93H76.35a1.47,1.47,0,1,0,0,2.93Z" style="fill:none;clip-rule:evenodd"/></clipPath><clipPath id="ce53e8c0-3d32-497f-baf9-8d7dcf20de9f"><path d="M65.35,55.09H61.69a1.47,1.47,0,1,0,0,2.93h3.67a1.47,1.47,0,1,0,0-2.93Z" style="fill:none;clip-rule:evenodd"/></clipPath><clipPath id="0518d760-ed70-4eab-8a1d-8ce5cd647825"><path d="M76.35,55.09H72.69a1.47,1.47,0,1,0,0,2.93h3.67a1.47,1.47,0,1,0,0-2.93Z" style="fill:none;clip-rule:evenodd"/></clipPath><clipPath id="fcdaf1f0-35f6-4130-bf76-3278f2f3c570"><path d="M87.35,55.09H83.69a1.47,1.47,0,1,0,0,2.93h3.67a1.47,1.47,0,1,0,0-2.93Z" style="fill:none;clip-rule:evenodd"/></clipPath><clipPath id="90a7fd29-bdc9-4582-87e9-1ede8422322a"><path d="M94.69,58h3.67a1.47,1.47,0,1,0,0-2.93H94.69a1.47,1.47,0,1,0,0,2.93Z" style="fill:none;clip-rule:evenodd"/></clipPath></defs><title>ft-2</title><g id="e73227a4-aeda-42dc-a61b-c202ea723ca5" data-name="Слой 2"><g id="4c805ab6-73f6-49ae-a503-da9cff5a1666" data-name="Слой 1"><g style="clip-path:url(#3d923fde-a6d7-46e0-a617-4dca4b3325b9)"><rect width="142" height="142" style="fill:#fff"/></g><g style="clip-path:url(#fe1035bc-5337-4ee8-811b-836d3f2d115e)"><rect x="27.87" y="6.6" width="101.01" height="129.54" style="fill:#e06727"/></g><g style="clip-path:url(#394b6846-6be9-41f0-a10f-0b898bdbbbfa)"><rect x="13.2" y="5.87" width="20.27" height="20.27" style="fill:#e06727"/></g><g style="clip-path:url(#eb0cb88b-5e64-464a-bdb5-71490fe902da)"><rect x="13.2" y="20.53" width="20.27" height="20.27" style="fill:#e06727"/></g><g style="clip-path:url(#9033eb32-dde2-4386-95b4-aeb8e0aa1186)"><rect x="27.87" y="5.87" width="20.27" height="20.27" style="fill:#e06727"/></g><g style="clip-path:url(#e162fe31-86b2-44f9-9b81-89d6c13eb84c)"><rect x="39.06" y="20.45" width="78.46" height="115.68" style="fill:#e06727"/></g><g style="clip-path:url(#62413adb-48de-4ad7-bc55-64dc89d0c153)"><rect x="75.02" y="35.2" width="16.6" height="12.93" style="fill:#e06727"/></g><g style="clip-path:url(#2daab6a3-9e54-48a7-a454-0e3e840f4ecf)"><rect x="64.02" y="35.2" width="16.6" height="12.93" style="fill:#e06727"/></g><g style="clip-path:url(#c562f049-0200-4cea-b04a-3d7c7098cfd7)"><rect x="91.89" y="42.53" width="16.6" height="12.93" style="fill:#e06727"/></g><g style="clip-path:url(#e3610fa8-fb96-46ad-93fd-5aa7473f6ed8)"><rect x="58.89" y="42.53" width="16.6" height="12.93" style="fill:#e06727"/></g><g style="clip-path:url(#2546c764-d230-4833-8a4c-785b94754fae)"><rect x="69.89" y="42.53" width="16.6" height="12.93" style="fill:#e06727"/></g><g style="clip-path:url(#577119a5-6c6f-402b-8636-77fcde5d6eb1)"><rect x="47.89" y="42.53" width="16.6" height="12.93" style="fill:#e06727"/></g><g style="clip-path:url(#01c5b437-a53b-4d00-b1ca-bfbb5bafc919)"><rect x="80.89" y="42.53" width="16.6" height="12.93" style="fill:#e06727"/></g><g style="clip-path:url(#e75d99c2-7180-45d1-8e99-8f1169727f0d)"><rect x="69.89" y="27.87" width="16.6" height="12.93" style="fill:#e06727"/></g><g style="clip-path:url(#ce53e8c0-3d32-497f-baf9-8d7dcf20de9f)"><rect x="55.22" y="50.09" width="16.6" height="12.93" style="fill:#e06727"/></g><g style="clip-path:url(#0518d760-ed70-4eab-8a1d-8ce5cd647825)"><rect x="66.22" y="50.09" width="16.6" height="12.93" style="fill:#e06727"/></g><g style="clip-path:url(#fcdaf1f0-35f6-4130-bf76-3278f2f3c570)"><rect x="77.22" y="50.09" width="16.6" height="12.93" style="fill:#e06727"/></g><g style="clip-path:url(#90a7fd29-bdc9-4582-87e9-1ede8422322a)"><rect x="88.22" y="50.09" width="16.6" height="12.93" style="fill:#e06727"/></g></g></g></svg>