<svg xmlns="http://www.w3.org/2000/svg" xmlns:xlink="http://www.w3.org/1999/xlink" width="142" height="142" viewBox="0 0 142 142"><defs><clipPath id="175bb8f2-fe0e-4588-99df-bcf5f8f2c27e"><rect x="5" y="5" width="132" height="132" style="fill:none"/></clipPath><clipPath id="85f9acb2-4791-4659-b5df-134e5b24660a"><path d="M92.12,20.25a1.47,1.47,0,0,0-.29,2.93,27.15,27.15,0,0,1,3.3.81,1.49,1.49,0,1,0,.81-2.86c-.81-.22-1.69-.44-2.57-.66h-.22l-.81-.15H92ZM102,23.7a1.47,1.47,0,0,0-1.47,1.47,1.55,1.55,0,0,0,.81,1.32c1,.51,2,1.1,2.93,1.69a1.38,1.38,0,0,0,2-.51,1.58,1.58,0,0,0-.37-2,27,27,0,0,0-3.15-1.83A2.15,2.15,0,0,0,102,23.7Zm8.51,6.23a1.47,1.47,0,0,0-1.47,1.47,1.45,1.45,0,0,0,.44,1c.81.81,1.54,1.61,2.27,2.49a1.43,1.43,0,0,0,2.05.22,1.5,1.5,0,0,0,.22-2.05l-1.1-1.32h-.15l-.07-.07h-.15l-.07-.07h-.15l-.07-.07h-.15l-.07-.73h-.15l-.37-.37a1.44,1.44,0,0,0-1-.44Zm6.23,8.43a1.47,1.47,0,0,0-1.47,1.47,1.75,1.75,0,0,0,.15.66,23.23,23.23,0,0,1,1.39,3.08,1.48,1.48,0,0,0,2.79-1c0-.07,0-.07-.07-.15l-.29-.66h-.07c-.15-.22-.22-.51-.37-.73v-.15l-.07-.15h-.15l-.07-.15-.37-.66a1.38,1.38,0,0,0-1.32-.81Zm3.52,10a1.47,1.47,0,0,0-1.47,1.47v.29a24.88,24.88,0,0,1,.44,3.37,1.5,1.5,0,0,0,1.47,1.32h.15a1.48,1.48,0,0,0,1.32-1.61v-.07c-.07-.44-.07-.88-.15-1.39a13.59,13.59,0,0,0-.29-1.69,1.43,1.43,0,0,0-1.47-1.17Zm.37,10.49a1.5,1.5,0,0,0-1.47,1.32c-.15,1.1-.29,2.2-.51,3.3a1.47,1.47,0,1,0,2.86.66,20.22,20.22,0,0,0,.37-2.05V62H122v-.07a1.63,1.63,0,0,1,.07-.59,1.48,1.48,0,0,0-1.32-1.61ZM117.93,69a1.45,1.45,0,0,0-1.32.88,23.24,23.24,0,0,1-1.54,3,1.45,1.45,0,1,0,2.49,1.47,34.39,34.39,0,0,0,1.61-3.3,1.46,1.46,0,0,0-.73-1.91A.62.62,0,0,0,117.93,69Zm-5.65,8.87a1.56,1.56,0,0,0-1.1.51,24.67,24.67,0,0,1-2.35,2.42,1.42,1.42,0,0,0,0,2.05,1.46,1.46,0,0,0,2,.07l.73-.73.07-.07h.15c.59-.59,1.1-1.17,1.61-1.76a1.49,1.49,0,0,0-.15-2.05,1.54,1.54,0,0,0-1-.37Zm-8,6.82a1.68,1.68,0,0,0-.81.22,22.84,22.84,0,0,1-2.93,1.61,1.48,1.48,0,0,0,1.32,2.64A26.7,26.7,0,0,0,105,87.43a1.51,1.51,0,0,0,.44-2.05A1.39,1.39,0,0,0,104.29,84.71Zm-9.68,4.18a.66.66,0,0,0-.37.07,26.4,26.4,0,0,1-3.3.66,1.47,1.47,0,1,0,.29,2.93h.22c1.17-.22,2.42-.44,3.59-.73a1.47,1.47,0,0,0,1-1.83A1.79,1.79,0,0,0,94.61,88.89Zm-13.93.81a1.43,1.43,0,0,0-1.54,1.39,1.47,1.47,0,0,0,1.39,1.54l1.83.22h.37a9.79,9.79,0,0,0,1.47.07h.07a1.47,1.47,0,1,0,0-2.93c-1.1-.07-2.27-.15-3.37-.29Zm-10-3a1.47,1.47,0,0,0-1.47,1.47A1.38,1.38,0,0,0,70,89.48l.81.37h.59c.66.29,1.32.51,2.05.81a1.48,1.48,0,1,0,1-2.79,23,23,0,0,1-3.08-1.32,2.13,2.13,0,0,0-.66-.15Zm-8.73-5.87a1.47,1.47,0,0,0-1.47,1.47,1.49,1.49,0,0,0,.44,1.1c.88.81,1.83,1.61,2.79,2.35a1.47,1.47,0,0,0,1.76-2.35c-.88-.66-1.76-1.39-2.57-2.13A1.29,1.29,0,0,0,61.91,80.83Zm-6.6-8.21a1.47,1.47,0,0,0-1.47,1.47,1.41,1.41,0,0,0,.22.73l.37.59h.15c.51.73,1,1.54,1.54,2.27a1.47,1.47,0,1,0,2.35-1.76,22.78,22.78,0,0,1-1.83-2.79,1.51,1.51,0,0,0-1.25-.73Zm-4-9.75a1.47,1.47,0,0,0-1.47,1.47.66.66,0,0,0,.07.37c.15.51.22,1,.37,1.54a17.82,17.82,0,0,0,.59,1.83,1.49,1.49,0,0,0,1.91.81,1.43,1.43,0,0,0,.88-1.76c-.37-1.1-.66-2.13-1-3.23a1.5,1.5,0,0,0-1.47-1.17Zm-.81-10.49a1.46,1.46,0,0,0-1.47,1.39c0,.44-.07.81-.07,1.25v1.32a1.41,1.41,0,0,0,1.47,1.39h.07a1.36,1.36,0,0,0,1.39-.15v-1c0-.81,0-1.61.07-2.42a1.43,1.43,0,0,0-1.39-1.54Zm2.27-10.27a1.5,1.5,0,0,0-1.39,1,17.66,17.66,0,0,0-.88,2.57h-.07l-.07.22a1.46,1.46,0,0,0,2.79.88v-.15c.29-1.1.66-2.13,1-3.23a1.49,1.49,0,0,0-.81-1.91,1.24,1.24,0,0,0-.51-.07ZM58.09,33a1.53,1.53,0,0,0-1.17.59h-.07l-.07.07h-.15v.07h-.15l-.15.59h-.15l-.07.07H56l-.07.07h-.15l-.07.07h-.29l-.59,2a1.49,1.49,0,0,0,2.49,1.61,23.89,23.89,0,0,1,2-2.79A1.43,1.43,0,0,0,58.09,33Zm7.7-7.19a1.1,1.1,0,0,0-.81.29l-.22.15h-.66l-.15.07h-.15c-.59.44-1.25,1-1.76,1.39A1.46,1.46,0,0,0,64,29.93c.88-.73,1.76-1.39,2.71-2.05A1.5,1.5,0,0,0,67,25.83a1.61,1.61,0,0,0-1.17-.66Zm9.46-4.62a.94.94,0,0,0-.44.07l-.88.29h-.15l-.29.07h-.44l-.22.07h-.44l-.15.07h-.44l-.51.22a1.48,1.48,0,1,0,1,2.79.07.07,0,0,0,.07-.07,23.93,23.93,0,0,1,3.15-.66,1.43,1.43,0,0,0,1-1.83A1.16,1.16,0,0,0,75.25,21.21Zm10.41-1.54h-1c-.88,0-1.76.07-2.64.15a1.47,1.47,0,0,0,.15,2.93h.15c1.1-.07,2.27-.15,3.37-.15a1.47,1.47,0,0,0,0-2.93Z" style="fill:none;clip-rule:evenodd"/></clipPath><clipPath id="c7bdbcd7-8051-44fd-8622-58ff9a9caf6b"><path d="M85.67,27A29.33,29.33,0,1,0,115,56.33,29.33,29.33,0,0,0,85.67,27Zm0,2.93a26.4,26.4,0,1,1-26.4,26.4A26.38,26.38,0,0,1,85.67,29.93Z" style="fill:none;clip-rule:evenodd"/></clipPath><clipPath id="44434cca-4405-4641-9783-d29dd8be821d"><path d="M27,116.47a1.45,1.45,0,0,1-1-.44A1.42,1.42,0,0,1,26,114L48,92A1.45,1.45,0,1,1,50,94L28,116A1.45,1.45,0,0,1,27,116.47Z" style="fill:none;clip-rule:evenodd"/></clipPath><clipPath id="d0180eed-2b41-49fa-8601-a2fc9eb762d8"><path d="M20.11,123.36a1.45,1.45,0,0,1-1-.44,1.42,1.42,0,0,1,0-2.05l2.57-2.57a1.45,1.45,0,0,1,2.05,2.05l-2.57,2.57A1.45,1.45,0,0,1,20.11,123.36Zm-7.77,7.77a1.44,1.44,0,0,1-1-.44,1.42,1.42,0,0,1,0-2.05l2.57-2.57a1.45,1.45,0,0,1,2.05,2.05l-2.57,2.57A1.44,1.44,0,0,1,12.33,131.13Z" style="fill:none;clip-rule:evenodd"/></clipPath><clipPath id="d824bc48-ac2a-40db-b14b-13551cd62e7d"><path d="M19.67,101.8a1.45,1.45,0,0,1-1-.44,1.42,1.42,0,0,1,0-2.05l22-22a1.45,1.45,0,0,1,2.05,2.05l-22,22A1.45,1.45,0,0,1,19.67,101.8Z" style="fill:none;clip-rule:evenodd"/></clipPath><clipPath id="29adddcb-f67d-42ee-b742-01f37a2b6444"><path d="M41.67,123.8a1.45,1.45,0,0,1-1-.44,1.42,1.42,0,0,1,0-2.05l22-22a1.45,1.45,0,1,1,2.05,2.05l-22,22A1.45,1.45,0,0,1,41.67,123.8Z" style="fill:none;clip-rule:evenodd"/></clipPath><clipPath id="7d9dc0d3-bfc7-41f7-a4dc-d0702c22cf84"><path d="M27,72.47A1.45,1.45,0,0,1,26,72,1.42,1.42,0,0,1,26,70L40.64,55.31a1.45,1.45,0,0,1,2.05,2.05L28,72A1.45,1.45,0,0,1,27,72.47Z" style="fill:none;clip-rule:evenodd"/></clipPath><clipPath id="d695bfae-5c9c-455b-ab07-6d1bce8314a0"><path d="M20.11,79.36a1.45,1.45,0,0,1-1-.44,1.42,1.42,0,0,1,0-2.05l2.57-2.57a1.45,1.45,0,0,1,2.05,2.05l-2.57,2.57A1.45,1.45,0,0,1,20.11,79.36Zm-7.77,7.77a1.44,1.44,0,0,1-1-.44,1.42,1.42,0,0,1,0-2.05l2.57-2.57a1.45,1.45,0,1,1,2.05,2.05l-2.57,2.57A1.44,1.44,0,0,1,12.33,87.13Z" style="fill:none;clip-rule:evenodd"/></clipPath><clipPath id="7c371874-a470-4508-a32d-531347f11e7b"><path d="M71,116.47a1.45,1.45,0,0,1-1-.44A1.42,1.42,0,0,1,70,114L84.64,99.31a1.45,1.45,0,1,1,2.05,2.05L72,116A1.45,1.45,0,0,1,71,116.47Z" style="fill:none;clip-rule:evenodd"/></clipPath><clipPath id="abd115fb-cef3-4d5c-90fd-5242ff9b6ca5"><path d="M64.11,123.36a1.45,1.45,0,0,1-1-.44,1.42,1.42,0,0,1,0-2.05l2.57-2.57a1.45,1.45,0,0,1,2.05,2.05l-2.57,2.57A1.45,1.45,0,0,1,64.11,123.36Zm-7.77,7.77a1.44,1.44,0,0,1-1-.44,1.42,1.42,0,0,1,0-2.05l2.57-2.57a1.45,1.45,0,0,1,2.05,2.05l-2.57,2.57A1.44,1.44,0,0,1,56.33,131.13Z" style="fill:none;clip-rule:evenodd"/></clipPath><clipPath id="38328ff2-8706-45c9-b56d-4d11c89ab7d3"><path d="M92.56,61.25c0-3.15-1.83-5.06-5.57-6.53-3.08-1.32-4.4-2.2-4.4-4,0-1.47.88-3.08,3.81-3.08a5.85,5.85,0,0,1,4.33,1.54l.37.22L92,46.14a9.78,9.78,0,0,0-4.47-1.25V41.37H84.57v4a5.53,5.53,0,0,0-5.06,5.72c0,3.08,2.27,4.77,5.87,6.16,2.64,1.1,4,2.27,4,4.25S87.72,65,85.15,65a9.17,9.17,0,0,1-4.91-1.83L78.77,66l.22.15a10.59,10.59,0,0,0,5.28,1.61v3.59h3V67.26A5.84,5.84,0,0,0,92.56,61.25Z" style="fill:none;clip-rule:evenodd"/></clipPath></defs><title>ft-3</title><g id="341313e7-0296-45a5-8201-30f3aea1bc8f" data-name="Слой 2"><g id="9cc4f4b5-9692-4f7a-ab6e-c9bbcfa4a62c" data-name="Слой 1"><g style="clip-path:url(#175bb8f2-fe0e-4588-99df-bcf5f8f2c27e)"><rect width="142" height="142" style="fill:#fff"/></g><g style="clip-path:url(#85f9acb2-4791-4659-b5df-134e5b24660a)"><rect x="44" y="14.67" width="83.19" height="83.26" style="fill:#e06727"/></g><g style="clip-path:url(#c7bdbcd7-8051-44fd-8622-58ff9a9caf6b)"><rect x="51.33" y="22" width="68.67" height="68.67" style="fill:#e06727"/></g><g style="clip-path:url(#44434cca-4405-4641-9783-d29dd8be821d)"><rect x="20.53" y="86.53" width="34.93" height="34.93" style="fill:#e06727"/></g><g style="clip-path:url(#d0180eed-2b41-49fa-8601-a2fc9eb762d8)"><rect x="5.87" y="112.86" width="23.27" height="23.27" style="fill:#e06727"/></g><g style="clip-path:url(#d824bc48-ac2a-40db-b14b-13551cd62e7d)"><rect x="13.2" y="71.87" width="34.93" height="34.93" style="fill:#e06727"/></g><g style="clip-path:url(#29adddcb-f67d-42ee-b742-01f37a2b6444)"><rect x="35.2" y="93.87" width="34.93" height="34.93" style="fill:#e06727"/></g><g style="clip-path:url(#7d9dc0d3-bfc7-41f7-a4dc-d0702c22cf84)"><rect x="20.53" y="49.87" width="27.6" height="27.6" style="fill:#e06727"/></g><g style="clip-path:url(#d695bfae-5c9c-455b-ab07-6d1bce8314a0)"><rect x="5.87" y="68.86" width="23.27" height="23.27" style="fill:#e06727"/></g><g style="clip-path:url(#7c371874-a470-4508-a32d-531347f11e7b)"><rect x="64.53" y="93.87" width="27.6" height="27.6" style="fill:#e06727"/></g><g style="clip-path:url(#abd115fb-cef3-4d5c-90fd-5242ff9b6ca5)"><rect x="49.87" y="112.86" width="23.27" height="23.27" style="fill:#e06727"/></g><g style="clip-path:url(#38328ff2-8706-45c9-b56d-4d11c89ab7d3)"><rect x="73.77" y="36.37" width="23.79" height="39.99" style="fill:#e06727"/></g></g></g></svg>