<svg xmlns="http://www.w3.org/2000/svg" xmlns:xlink="http://www.w3.org/1999/xlink" width="142" height="142" viewBox="0 0 142 142"><defs><clipPath id="81ec87f6-531d-47f7-985a-cfdc974c4894"><rect x="5" y="5" width="132" height="132" style="fill:none"/></clipPath><clipPath id="c5fbba35-b09a-4c8a-be93-e599c30254d6"><path d="M31.4,90.07H22.6V73.93h8.8ZM31.4,71H28.47V63.67a1.47,1.47,0,0,0-2.93,0V71H22.6a2.94,2.94,0,0,0-2.93,2.93V90.07A2.94,2.94,0,0,0,22.6,93h2.93v14.67a1.47,1.47,0,0,0,2.93,0V93H31.4a2.94,2.94,0,0,0,2.93-2.93V73.93A2.94,2.94,0,0,0,31.4,71Z" style="fill:none;clip-rule:evenodd"/></clipPath><clipPath id="4d46de27-7260-4a87-af64-b52371fee952"><path d="M60.73,112.07h-8.8V81.27h8.8Zm0-33.73H57.8V69.9a1.47,1.47,0,1,0-2.93,0v8.43H51.93A2.94,2.94,0,0,0,49,81.27v30.8A2.94,2.94,0,0,0,51.93,115h2.93v14.67a1.47,1.47,0,0,0,2.93,0V115h2.93a2.94,2.94,0,0,0,2.93-2.93V81.27A2.94,2.94,0,0,0,60.73,78.33Z" style="fill:none;clip-rule:evenodd"/></clipPath><clipPath id="5073aff2-b13b-465b-95b9-f69fdf7a81c5"><path d="M90.07,82.73h-8.8V59.27h8.8Zm0-26.4H87.13V41.67a1.47,1.47,0,1,0-2.93,0V56.33H81.27a2.94,2.94,0,0,0-2.93,2.93V82.73a2.94,2.94,0,0,0,2.93,2.93H84.2v14.67a1.47,1.47,0,1,0,2.93,0V85.67h2.93A2.94,2.94,0,0,0,93,82.73V59.27A2.94,2.94,0,0,0,90.07,56.33Z" style="fill:none;clip-rule:evenodd"/></clipPath><clipPath id="72ca5602-de0e-4901-b7f6-79c5eb435940"><path d="M119.4,90.07h-8.8V44.6h8.8Zm0-48.4h-2.93V34.33a1.47,1.47,0,0,0-2.93,0v7.33H110.6a2.94,2.94,0,0,0-2.93,2.93V90.07A2.94,2.94,0,0,0,110.6,93h2.93v15a1.47,1.47,0,0,0,2.93,0V93h2.93a2.94,2.94,0,0,0,2.93-2.93V44.6A2.94,2.94,0,0,0,119.4,41.67Z" style="fill:none;clip-rule:evenodd"/></clipPath><clipPath id="3c1afa8f-4927-4839-9b40-9f989ea8417e"><path d="M52.74,59.12l2.42.81a.93.93,0,0,0,.44.07,1.32,1.32,0,0,0,1.1-.51l.73-.88a1.46,1.46,0,1,0-2.2-1.91l-.07.07-1.47-.51a1.46,1.46,0,0,0-1.83,1A1.41,1.41,0,0,0,52.74,59.12Z" style="fill:none;clip-rule:evenodd"/></clipPath><clipPath id="2a37571e-0221-441f-bafd-ca730e63bd55"><path d="M15,53.4,11.67,55A1.47,1.47,0,0,0,11,57a1.55,1.55,0,0,0,1.32.81,2.12,2.12,0,0,0,.66-.15L16.29,56A1.48,1.48,0,0,0,15,53.4Z" style="fill:none;clip-rule:evenodd"/></clipPath><clipPath id="0271ff5a-c81b-468f-964f-9d9935882f5a"><path d="M36.24,50.54l-3.45-1.17a1.46,1.46,0,1,0-.88,2.79l3.45,1.17a.94.94,0,0,0,.44.07,1.46,1.46,0,0,0,.44-2.86Z" style="fill:none;clip-rule:evenodd"/></clipPath><clipPath id="0ed6f4b8-b545-458a-adbc-f960c373a4bd"><path d="M114.27,23.41h.15l.73-.07A1.8,1.8,0,0,0,116,23l2.35-1.76a1.47,1.47,0,0,0-1.76-2.35l-2.05,1.54h-.29A1.41,1.41,0,0,0,112.87,22,1.39,1.39,0,0,0,114.27,23.41Z" style="fill:none;clip-rule:evenodd"/></clipPath><clipPath id="d770d96d-2eaf-4f28-904c-79274a64f57b"><path d="M22.16,52.89a2.16,2.16,0,0,0,.66-.15l3.3-1.61a1.48,1.48,0,0,0-1.32-2.64L21.5,50.1a1.47,1.47,0,0,0-.66,2A1.55,1.55,0,0,0,22.16,52.89Z" style="fill:none;clip-rule:evenodd"/></clipPath><clipPath id="27cabc46-9683-4f21-a7e3-34e710d8e898"><path d="M82.88,28.76a1.32,1.32,0,0,0,1.1-.51l2.42-2.71a1.46,1.46,0,1,0-2.2-1.91l-2.42,2.79a1.49,1.49,0,0,0,.15,2.05A1.35,1.35,0,0,0,82.88,28.76Z" style="fill:none;clip-rule:evenodd"/></clipPath><clipPath id="fd40798c-93cd-4739-8c61-3fc64dcf4fb6"><path d="M108.47,22.38a1.41,1.41,0,0,0-1.54-1.32l-3.67.29a1.41,1.41,0,0,0-1.32,1.54,1.51,1.51,0,0,0,1.47,1.39h.15l3.67-.29A1.54,1.54,0,0,0,108.47,22.38Z" style="fill:none;clip-rule:evenodd"/></clipPath><clipPath id="b0775aff-334e-48c8-983a-4da9a5338e3b"><path d="M95.93,21.87l-3.67.29a1.41,1.41,0,0,0-1.32,1.54,1.51,1.51,0,0,0,1.47,1.39h.15l3.67-.29a1.41,1.41,0,0,0,1.32-1.54A1.53,1.53,0,0,0,95.93,21.87Z" style="fill:none;clip-rule:evenodd"/></clipPath><clipPath id="a687f00d-b569-45e1-bbba-4cd212041834"><path d="M127,12.19a1.42,1.42,0,0,0-2.05,0l-2.05,2.05-.51.29a1.44,1.44,0,0,0-.29,2.05,1.53,1.53,0,0,0,1.17.59,1.41,1.41,0,0,0,.88-.29l.59-.44.15-.15L127,14.17A1.33,1.33,0,0,0,127,12.19Z" style="fill:none;clip-rule:evenodd"/></clipPath><clipPath id="8bdd1a60-2da6-414e-bcc1-c900eafaa79a"><path d="M79,31.77a1.49,1.49,0,0,0-2.05.15L74.52,34.7a1.49,1.49,0,0,0,.15,2.05,1.54,1.54,0,0,0,1,.37,1.32,1.32,0,0,0,1.1-.51l2.42-2.79A1.48,1.48,0,0,0,79,31.77Z" style="fill:none;clip-rule:evenodd"/></clipPath><clipPath id="7700eb8c-f67c-455d-b1f9-ba9356fc5225"><path d="M62.49,48.49,60.07,51.2a1.49,1.49,0,0,0,.15,2.05,1.54,1.54,0,0,0,1,.37,1.32,1.32,0,0,0,1.1-.51l2.42-2.79a1.49,1.49,0,0,0-.15-2.05A1.42,1.42,0,0,0,62.49,48.49Z" style="fill:none;clip-rule:evenodd"/></clipPath><clipPath id="5de4c808-e2a9-48a5-9a1d-bb81d9419d18"><path d="M69.68,40.2,67.26,43A1.49,1.49,0,0,0,67.41,45a1.54,1.54,0,0,0,1,.37,1.32,1.32,0,0,0,1.1-.51l2.42-2.79a1.49,1.49,0,0,0-.15-2.05A1.37,1.37,0,0,0,69.68,40.2Z" style="fill:none;clip-rule:evenodd"/></clipPath><clipPath id="c86f0893-0307-47ea-8606-c5e2e5dcde33"><path d="M46.73,54.06l-3.45-1.17a1.46,1.46,0,1,0-.88,2.79l3.45,1.17a.93.93,0,0,0,.44.07,1.47,1.47,0,0,0,1.39-1A1.52,1.52,0,0,0,46.73,54.06Z" style="fill:none;clip-rule:evenodd"/></clipPath></defs><title>ft-4</title><g id="3fb3c1a8-abb0-4526-b0fe-98d132eb7a62" data-name="Слой 2"><g id="cd730696-cfe3-45f4-b534-a30d6010a20f" data-name="Слой 1"><g style="clip-path:url(#81ec87f6-531d-47f7-985a-cfdc974c4894)"><rect width="142" height="142" style="fill:#fff"/></g><g style="clip-path:url(#c5fbba35-b09a-4c8a-be93-e599c30254d6)"><rect x="14.67" y="57.2" width="24.67" height="56.93" style="fill:#e06727"/></g><g style="clip-path:url(#4d46de27-7260-4a87-af64-b52371fee952)"><rect x="44" y="63.43" width="24.67" height="72.7" style="fill:#e06727"/></g><g style="clip-path:url(#5073aff2-b13b-465b-95b9-f69fdf7a81c5)"><rect x="73.33" y="35.2" width="24.67" height="71.6" style="fill:#e06727"/></g><g style="clip-path:url(#72ca5602-de0e-4901-b7f6-79c5eb435940)"><rect x="102.67" y="27.87" width="24.67" height="86.63" style="fill:#e06727"/></g><g style="clip-path:url(#3c1afa8f-4927-4839-9b40-9f989ea8417e)"><rect x="46.76" y="51.2" width="16.02" height="13.8" style="fill:#e06727"/></g><g style="clip-path:url(#2a37571e-0221-441f-bafd-ca730e63bd55)"><rect x="5.85" y="48.24" width="16.26" height="14.56" style="fill:#e06727"/></g><g style="clip-path:url(#0271ff5a-c81b-468f-964f-9d9935882f5a)"><rect x="25.9" y="44.3" width="16.36" height="14.1" style="fill:#e06727"/></g><g style="clip-path:url(#0ed6f4b8-b545-458a-adbc-f960c373a4bd)"><rect x="107.87" y="13.63" width="16.04" height="14.78" style="fill:#e06727"/></g><g style="clip-path:url(#d770d96d-2eaf-4f28-904c-79274a64f57b)"><rect x="15.68" y="43.33" width="16.26" height="14.56" style="fill:#e06727"/></g><g style="clip-path:url(#27cabc46-9683-4f21-a7e3-34e710d8e898)"><rect x="76.44" y="18.14" width="15.31" height="15.62" style="fill:#e06727"/></g><g style="clip-path:url(#fd40798c-93cd-4739-8c61-3fc64dcf4fb6)"><rect x="96.94" y="16.05" width="16.54" height="13.23" style="fill:#e06727"/></g><g style="clip-path:url(#b0775aff-334e-48c8-983a-4da9a5338e3b)"><rect x="85.94" y="16.86" width="16.61" height="13.23" style="fill:#e06727"/></g><g style="clip-path:url(#a687f00d-b569-45e1-bbba-4cd212041834)"><rect x="116.73" y="6.75" width="15.66" height="15.43" style="fill:#e06727"/></g><g style="clip-path:url(#8bdd1a60-2da6-414e-bcc1-c900eafaa79a)"><rect x="69.18" y="26.42" width="15.31" height="15.7" style="fill:#e06727"/></g><g style="clip-path:url(#7700eb8c-f67c-455d-b1f9-ba9356fc5225)"><rect x="54.73" y="42.93" width="15.31" height="15.69" style="fill:#e06727"/></g><g style="clip-path:url(#5de4c808-e2a9-48a5-9a1d-bb81d9419d18)"><rect x="61.92" y="34.66" width="15.31" height="15.75" style="fill:#e06727"/></g><g style="clip-path:url(#c86f0893-0307-47ea-8606-c5e2e5dcde33)"><rect x="36.38" y="47.82" width="16.35" height="14.1" style="fill:#e06727"/></g></g></g></svg>