<svg xmlns="http://www.w3.org/2000/svg" xmlns:xlink="http://www.w3.org/1999/xlink" width="142" height="142" viewBox="0 0 142 142"><defs><clipPath id="39259442-97f8-4913-8a7e-40ba854e5551"><rect x="5" y="5" width="132" height="132" style="fill:none"/></clipPath><clipPath id="aa643210-bbc3-45e3-adaf-2c13f3f05104"><path d="M107.67,76.87a8.72,8.72,0,0,0-7.33,4,8.9,8.9,0,0,0-7.33-4,8.72,8.72,0,0,0-7.33,4,8.9,8.9,0,0,0-7.33-4,8.72,8.72,0,0,0-7.33,4,8.9,8.9,0,0,0-7.33-4,8.72,8.72,0,0,0-7.33,4,8.9,8.9,0,0,0-7.33-4,8.72,8.72,0,0,0-7.33,4,8.9,8.9,0,0,0-7.33-4,8.78,8.78,0,0,0-5.28,1.76,42.53,42.53,0,0,1,83.89,0A8.79,8.79,0,0,0,107.67,76.87ZM72.47,40.27V34.33a1.47,1.47,0,0,0-2.93,0v5.94a45.44,45.44,0,0,0-44,45.39,1.47,1.47,0,0,0,2.93,0,5.87,5.87,0,1,1,11.73,0,1.47,1.47,0,0,0,2.93,0,5.87,5.87,0,1,1,11.73,0,1.47,1.47,0,0,0,2.93,0,5.87,5.87,0,1,1,11.73,0v36.67a8.83,8.83,0,0,0,8.8,8.8,1.47,1.47,0,1,0,0-2.93,5.88,5.88,0,0,1-5.87-5.87V85.67a5.87,5.87,0,1,1,11.73,0,1.47,1.47,0,0,0,2.93,0,5.87,5.87,0,1,1,11.73,0,1.47,1.47,0,0,0,2.93,0,5.87,5.87,0,1,1,11.73,0,1.47,1.47,0,0,0,2.93,0A45.44,45.44,0,0,0,72.47,40.27Z" style="fill:none;clip-rule:evenodd"/></clipPath><clipPath id="bd15a541-1673-4db5-8e26-9c3615edfa15"><path d="M56.33,28.47A1.47,1.47,0,0,0,57.8,27V23.33a1.47,1.47,0,0,0-2.93,0V27A1.47,1.47,0,0,0,56.33,28.47Z" style="fill:none;clip-rule:evenodd"/></clipPath><clipPath id="54f6542e-13d6-41bc-9009-eec178157a3b"><path d="M56.33,17.47A1.47,1.47,0,0,0,57.8,16V12.33a1.47,1.47,0,0,0-2.93,0V16A1.47,1.47,0,0,0,56.33,17.47Z" style="fill:none;clip-rule:evenodd"/></clipPath><clipPath id="6f91a935-4001-4b6a-b62b-ffd2ba19ab2f"><path d="M85.67,28.47A1.47,1.47,0,0,0,87.13,27V23.33a1.47,1.47,0,0,0-2.93,0V27A1.47,1.47,0,0,0,85.67,28.47Z" style="fill:none;clip-rule:evenodd"/></clipPath><clipPath id="5ce3c10a-05d1-41e8-a771-6af829993bdc"><path d="M85.67,17.47A1.47,1.47,0,0,0,87.13,16V12.33a1.47,1.47,0,0,0-2.93,0V16A1.47,1.47,0,0,0,85.67,17.47Z" style="fill:none;clip-rule:evenodd"/></clipPath><clipPath id="b30c42be-f850-4226-aac3-42cd70647553"><path d="M71,17.47A1.47,1.47,0,0,0,72.47,16V12.33a1.47,1.47,0,0,0-2.93,0V16A1.47,1.47,0,0,0,71,17.47Z" style="fill:none;clip-rule:evenodd"/></clipPath><clipPath id="4fb979db-7f98-43ef-b4a8-2613a269359e"><path d="M41.67,39.47A1.47,1.47,0,0,0,43.13,38V34.33a1.47,1.47,0,0,0-2.93,0V38A1.47,1.47,0,0,0,41.67,39.47Z" style="fill:none;clip-rule:evenodd"/></clipPath><clipPath id="b91a4fac-e2d9-4fb4-b18d-10a12e052a9e"><path d="M41.67,28.47A1.47,1.47,0,0,0,43.13,27V23.33a1.47,1.47,0,0,0-2.93,0V27A1.47,1.47,0,0,0,41.67,28.47Z" style="fill:none;clip-rule:evenodd"/></clipPath><clipPath id="7d484e63-8a66-446f-a211-dd7d75b75cdc"><path d="M41.67,17.47A1.47,1.47,0,0,0,43.13,16V12.33a1.47,1.47,0,0,0-2.93,0V16A1.47,1.47,0,0,0,41.67,17.47Z" style="fill:none;clip-rule:evenodd"/></clipPath><clipPath id="8c9ea2f4-851d-40d6-9faa-972716f2837d"><path d="M100.33,17.47A1.47,1.47,0,0,0,101.8,16V12.33a1.47,1.47,0,0,0-2.93,0V16A1.47,1.47,0,0,0,100.33,17.47Z" style="fill:none;clip-rule:evenodd"/></clipPath><clipPath id="99bb7b67-3e2d-4b6e-982f-eca822f46dd4"><path d="M100.33,28.47A1.47,1.47,0,0,0,101.8,27V23.33a1.47,1.47,0,0,0-2.93,0V27A1.47,1.47,0,0,0,100.33,28.47Z" style="fill:none;clip-rule:evenodd"/></clipPath><clipPath id="2dd39dff-ccfa-4372-a8bd-696acdc738b1"><path d="M100.33,39.47A1.47,1.47,0,0,0,101.8,38V34.33a1.47,1.47,0,0,0-2.93,0V38A1.47,1.47,0,0,0,100.33,39.47Z" style="fill:none;clip-rule:evenodd"/></clipPath><clipPath id="c28169fb-b39c-4507-9528-58cf9905c775"><path d="M27,39.47A1.47,1.47,0,0,0,28.47,38V34.33a1.47,1.47,0,0,0-2.93,0V38A1.47,1.47,0,0,0,27,39.47Z" style="fill:none;clip-rule:evenodd"/></clipPath><clipPath id="0384d6ef-d372-4933-832b-526c317fab7b"><path d="M27,28.47A1.47,1.47,0,0,0,28.47,27V23.33a1.47,1.47,0,0,0-2.93,0V27A1.47,1.47,0,0,0,27,28.47Z" style="fill:none;clip-rule:evenodd"/></clipPath><clipPath id="05f3326d-89fc-4627-84a5-81fa19a3890c"><path d="M27,17.47A1.47,1.47,0,0,0,28.47,16V12.33a1.47,1.47,0,0,0-2.93,0V16A1.47,1.47,0,0,0,27,17.47Z" style="fill:none;clip-rule:evenodd"/></clipPath><clipPath id="71664015-0374-4439-b729-30c73838b633"><path d="M27,50.47A1.47,1.47,0,0,0,28.47,49V45.33a1.47,1.47,0,0,0-2.93,0V49A1.47,1.47,0,0,0,27,50.47Z" style="fill:none;clip-rule:evenodd"/></clipPath><clipPath id="943d9ecf-939d-44c8-b4b9-f43d6d32005c"><path d="M115,32.87a1.47,1.47,0,0,0-1.47,1.47V38a1.47,1.47,0,1,0,2.93,0V34.33A1.47,1.47,0,0,0,115,32.87Z" style="fill:none;clip-rule:evenodd"/></clipPath><clipPath id="0ac8f8e2-3994-4e56-86e7-4e462a874f42"><path d="M115,43.87a1.47,1.47,0,0,0-1.47,1.47V49a1.47,1.47,0,1,0,2.93,0V45.33A1.47,1.47,0,0,0,115,43.87Z" style="fill:none;clip-rule:evenodd"/></clipPath><clipPath id="621efba3-5414-426b-8985-4a82d8452bb3"><path d="M115,10.87a1.47,1.47,0,0,0-1.47,1.47V16a1.47,1.47,0,1,0,2.93,0V12.33A1.47,1.47,0,0,0,115,10.87Z" style="fill:none;clip-rule:evenodd"/></clipPath><clipPath id="94484f68-a75b-4601-a838-9a6fc884f663"><path d="M115,21.87a1.47,1.47,0,0,0-1.47,1.47V27a1.47,1.47,0,1,0,2.93,0V23.33A1.47,1.47,0,0,0,115,21.87Z" style="fill:none;clip-rule:evenodd"/></clipPath><clipPath id="b137327b-1c2c-4393-b60d-0a054fb7392f"><path d="M47.39,68.21a1.46,1.46,0,0,0-2.05.44c-.37.51-.66,1.1-1,1.61a1.45,1.45,0,1,0,2.49,1.47,10.1,10.1,0,0,1,1-1.47A1.5,1.5,0,0,0,47.39,68.21Z" style="fill:none;clip-rule:evenodd"/></clipPath><clipPath id="7002951d-e0bb-4165-93fb-c874f769c70f"><path d="M62.2,56.11a31.61,31.61,0,0,0-3.37,1.25,1.46,1.46,0,0,0,.59,2.79A1.73,1.73,0,0,0,60,60a21,21,0,0,1,3-1.1,1.38,1.38,0,0,0,1-1.83A1.4,1.4,0,0,0,62.2,56.11Z" style="fill:none;clip-rule:evenodd"/></clipPath><clipPath id="76756f8f-7061-45f9-8cb7-bb0af95f05bd"><path d="M52.67,60.88c-1,.73-1.83,1.47-2.71,2.27a1.43,1.43,0,0,0,1,2.49,1.75,1.75,0,0,0,1-.37,21.74,21.74,0,0,1,2.49-2.05,1.44,1.44,0,0,0,.29-2.05A1.69,1.69,0,0,0,52.67,60.88Z" style="fill:none;clip-rule:evenodd"/></clipPath><clipPath id="195dbcdd-6af9-4c30-a882-16afe9306952"><path d="M89.33,60.88a1.47,1.47,0,1,0-1.76,2.35c.88.66,1.69,1.32,2.49,2.05a1.37,1.37,0,0,0,1,.37,1.62,1.62,0,0,0,1.1-.44,1.42,1.42,0,0,0-.07-2.05C91.17,62.35,90.29,61.61,89.33,60.88Z" style="fill:none;clip-rule:evenodd"/></clipPath><clipPath id="4f033568-927b-453f-b49b-0f6bfa3a500d"><path d="M83.1,57.36a26.13,26.13,0,0,0-3.37-1.17A1.46,1.46,0,1,0,78.85,59a21,21,0,0,1,3,1.1,1.72,1.72,0,0,0,.59.15,1.45,1.45,0,0,0,1.32-.88A1.33,1.33,0,0,0,83.1,57.36Z" style="fill:none;clip-rule:evenodd"/></clipPath><clipPath id="39c59e44-46ba-4bf2-b6ca-3226ac2580d5"><path d="M72.76,54.94a29.61,29.61,0,0,0-3.59,0,1.52,1.52,0,0,0-1.39,1.54,1.46,1.46,0,0,0,1.47,1.39h.07a23.72,23.72,0,0,1,3.23,0,1.47,1.47,0,0,0,1.54-1.39A1.37,1.37,0,0,0,72.76,54.94Z" style="fill:none;clip-rule:evenodd"/></clipPath><clipPath id="bdd6a137-5f53-424e-ad5c-fd378e1628bc"><path d="M96.67,68.58a1.47,1.47,0,1,0-2.42,1.69c.29.44.59,1,.88,1.47a1.36,1.36,0,0,0,1.25.73,1.42,1.42,0,0,0,.73-.22,1.46,1.46,0,0,0,.59-2C97.33,69.68,97,69.17,96.67,68.58Z" style="fill:none;clip-rule:evenodd"/></clipPath><clipPath id="64f6b544-f715-481c-8cd9-10e8232f12a8"><path d="M64,112.65a28,28,0,0,1-20-20,1.44,1.44,0,0,0-2.79.73,30.92,30.92,0,0,0,22.15,22.15c.15,0,.22.07.37.07a1.41,1.41,0,0,0,1.39-1.1A1.57,1.57,0,0,0,64,112.65Z" style="fill:none;clip-rule:evenodd"/></clipPath><clipPath id="b3d6e296-94a3-44b2-b4e7-fd16d8d7ccb3"><path d="M99.75,91.61a1.41,1.41,0,0,0-1.76,1,28,28,0,0,1-20,20,1.46,1.46,0,0,0,.37,2.86.66.66,0,0,0,.37-.07,30.92,30.92,0,0,0,22.15-22.15A1.37,1.37,0,0,0,99.75,91.61Z" style="fill:none;clip-rule:evenodd"/></clipPath></defs><title>ft-5</title><g id="14f6980e-92ef-4613-8a3a-44b75448582e" data-name="Слой 2"><g id="75e814c7-0bfa-429f-a4c2-46798a86fc5a" data-name="Слой 1"><g style="clip-path:url(#39259442-97f8-4913-8a7e-40ba854e5551)"><rect width="142" height="142" style="fill:#fff"/></g><g style="clip-path:url(#aa643210-bbc3-45e3-adaf-2c13f3f05104)"><rect x="20.53" y="27.87" width="100.93" height="108.27" style="fill:#e06727"/></g><g style="clip-path:url(#bd15a541-1673-4db5-8e26-9c3615edfa15)"><rect x="49.87" y="16.87" width="12.93" height="16.6" style="fill:#e06727"/></g><g style="clip-path:url(#54f6542e-13d6-41bc-9009-eec178157a3b)"><rect x="49.87" y="5.87" width="12.93" height="16.6" style="fill:#e06727"/></g><g style="clip-path:url(#6f91a935-4001-4b6a-b62b-ffd2ba19ab2f)"><rect x="79.2" y="16.87" width="12.93" height="16.6" style="fill:#e06727"/></g><g style="clip-path:url(#5ce3c10a-05d1-41e8-a771-6af829993bdc)"><rect x="79.2" y="5.87" width="12.93" height="16.6" style="fill:#e06727"/></g><g style="clip-path:url(#b30c42be-f850-4226-aac3-42cd70647553)"><rect x="64.53" y="5.87" width="12.93" height="16.6" style="fill:#e06727"/></g><g style="clip-path:url(#4fb979db-7f98-43ef-b4a8-2613a269359e)"><rect x="35.2" y="27.87" width="12.93" height="16.6" style="fill:#e06727"/></g><g style="clip-path:url(#b91a4fac-e2d9-4fb4-b18d-10a12e052a9e)"><rect x="35.2" y="16.87" width="12.93" height="16.6" style="fill:#e06727"/></g><g style="clip-path:url(#7d484e63-8a66-446f-a211-dd7d75b75cdc)"><rect x="35.2" y="5.87" width="12.93" height="16.6" style="fill:#e06727"/></g><g style="clip-path:url(#8c9ea2f4-851d-40d6-9faa-972716f2837d)"><rect x="93.87" y="5.87" width="12.93" height="16.6" style="fill:#e06727"/></g><g style="clip-path:url(#99bb7b67-3e2d-4b6e-982f-eca822f46dd4)"><rect x="93.87" y="16.87" width="12.93" height="16.6" style="fill:#e06727"/></g><g style="clip-path:url(#2dd39dff-ccfa-4372-a8bd-696acdc738b1)"><rect x="93.87" y="27.87" width="12.93" height="16.6" style="fill:#e06727"/></g><g style="clip-path:url(#c28169fb-b39c-4507-9528-58cf9905c775)"><rect x="20.53" y="27.87" width="12.93" height="16.6" style="fill:#e06727"/></g><g style="clip-path:url(#0384d6ef-d372-4933-832b-526c317fab7b)"><rect x="20.53" y="16.87" width="12.93" height="16.6" style="fill:#e06727"/></g><g style="clip-path:url(#05f3326d-89fc-4627-84a5-81fa19a3890c)"><rect x="20.53" y="5.87" width="12.93" height="16.6" style="fill:#e06727"/></g><g style="clip-path:url(#71664015-0374-4439-b729-30c73838b633)"><rect x="20.53" y="38.87" width="12.93" height="16.6" style="fill:#e06727"/></g><g style="clip-path:url(#943d9ecf-939d-44c8-b4b9-f43d6d32005c)"><rect x="108.53" y="27.87" width="12.93" height="16.6" style="fill:#e06727"/></g><g style="clip-path:url(#0ac8f8e2-3994-4e56-86e7-4e462a874f42)"><rect x="108.53" y="38.87" width="12.93" height="16.6" style="fill:#e06727"/></g><g style="clip-path:url(#621efba3-5414-426b-8985-4a82d8452bb3)"><rect x="108.53" y="5.87" width="12.93" height="16.6" style="fill:#e06727"/></g><g style="clip-path:url(#94484f68-a75b-4601-a838-9a6fc884f663)"><rect x="108.53" y="16.87" width="12.93" height="16.6" style="fill:#e06727"/></g><g style="clip-path:url(#b137327b-1c2c-4393-b60d-0a054fb7392f)"><rect x="39.1" y="62.97" width="13.91" height="14.5" style="fill:#e06727"/></g><g style="clip-path:url(#7002951d-e0bb-4165-93fb-c874f769c70f)"><rect x="52.95" y="51.06" width="16.1" height="14.09" style="fill:#e06727"/></g><g style="clip-path:url(#76756f8f-7061-45f9-8cb7-bb0af95f05bd)"><rect x="44.5" y="55.62" width="15.6" height="15.02" style="fill:#e06727"/></g><g style="clip-path:url(#195dbcdd-6af9-4c30-a882-16afe9306952)"><rect x="81.97" y="55.57" width="15.63" height="15.08" style="fill:#e06727"/></g><g style="clip-path:url(#4f033568-927b-453f-b49b-0f6bfa3a500d)"><rect x="72.84" y="51.13" width="16.13" height="14.09" style="fill:#e06727"/></g><g style="clip-path:url(#39c59e44-46ba-4bf2-b6ca-3226ac2580d5)"><rect x="62.77" y="49.88" width="16.31" height="12.99" style="fill:#e06727"/></g><g style="clip-path:url(#bdd6a137-5f53-424e-ad5c-fd378e1628bc)"><rect x="89" y="62.96" width="13.87" height="14.5" style="fill:#e06727"/></g><g style="clip-path:url(#64f6b544-f715-481c-8cd9-10e8232f12a8)"><rect x="36.17" y="86.55" width="33.99" height="34.04" style="fill:#e06727"/></g><g style="clip-path:url(#b3d6e296-94a3-44b2-b4e7-fd16d8d7ccb3)"><rect x="71.88" y="86.56" width="34.01" height="33.96" style="fill:#e06727"/></g></g></g></svg>