<svg xmlns="http://www.w3.org/2000/svg" xmlns:xlink="http://www.w3.org/1999/xlink" width="142" height="142" viewBox="0 0 142 142"><defs><clipPath id="2d9ca2e9-5f78-4d6f-823c-0438864d11b7"><rect x="5" y="5" width="132" height="132" style="fill:none"/></clipPath><clipPath id="d7f534fa-8a28-4a81-8431-62745ff6e469"><path d="M115,25.53h-3.67a1.47,1.47,0,0,0,0,2.93H115a1.47,1.47,0,0,0,0-2.93Z" style="fill:none;clip-rule:evenodd"/></clipPath><clipPath id="1c265466-d480-4535-a032-d76c4ebd7ce2"><path d="M122.33,28.47H126a1.47,1.47,0,0,0,0-2.93h-3.67a1.47,1.47,0,0,0,0,2.93Z" style="fill:none;clip-rule:evenodd"/></clipPath><clipPath id="fb4e93eb-dec5-4200-bf3c-dd5e8d4f8407"><path d="M104,25.53H74.52l4.84-4.84a1.45,1.45,0,1,0-2.05-2.05L70,26l-.22.22a.26.26,0,0,0-.07.15c0,.07-.07.07-.07.15s0,.07-.07.15,0,.07-.07.15a.81.81,0,0,0,0,.59c0,.07,0,.07.07.15s0,.07.07.15.07.07.07.15.07.07.07.15l.22.22,7.33,7.33a2.4,2.4,0,0,0,1,.29,1.45,1.45,0,0,0,1-.44,1.42,1.42,0,0,0,0-2.05l-4.84-4.84H104a1.47,1.47,0,0,0,0-2.93Z" style="fill:none;clip-rule:evenodd"/></clipPath><clipPath id="1eb8552e-c4de-493f-835d-bc11d7a02768"><path d="M126,62.2h-3.67a1.47,1.47,0,1,0,0,2.93H126a1.47,1.47,0,1,0,0-2.93Z" style="fill:none;clip-rule:evenodd"/></clipPath><clipPath id="23ff1a7e-038e-4226-9ce7-863fc7387523"><path d="M104,62.2H89.19L94,57.36A1.45,1.45,0,0,0,92,55.31l-7.33,7.33-.22.22a.26.26,0,0,0-.07.15c0,.07-.07.07-.07.15s0,.07-.07.15,0,.07-.07.15a.81.81,0,0,0,0,.59c0,.07,0,.07.07.15s0,.07.07.15.07.07.07.15.07.07.07.15l.22.22L92,72.17a1.42,1.42,0,0,0,2.05,0,1.42,1.42,0,0,0,0-2.05l-4.84-4.84H104a1.47,1.47,0,0,0,1.47-1.47A1.6,1.6,0,0,0,104,62.2Z" style="fill:none;clip-rule:evenodd"/></clipPath><clipPath id="791bd056-1881-4b09-9647-234da489435c"><path d="M115,62.2h-3.67a1.47,1.47,0,1,0,0,2.93H115a1.47,1.47,0,1,0,0-2.93Z" style="fill:none;clip-rule:evenodd"/></clipPath><clipPath id="4e6ea9ef-5ef7-49f9-8eb5-a60a0d69a6bf"><path d="M126,98.87h-3.67a1.47,1.47,0,1,0,0,2.93H126a1.47,1.47,0,1,0,0-2.93Z" style="fill:none;clip-rule:evenodd"/></clipPath><clipPath id="0f023f16-4556-473a-a3aa-f64c5125dcdd"><path d="M79.14,113.75l-12-12H82.66A25,25,0,0,1,79.14,113.75Zm-6.23,7.11a36.37,36.37,0,0,1-9.24,5.65c-4-1.61-19.07-9-19.07-26.18V81.27H82.73v17.6H63.67a1.45,1.45,0,0,0-1.32.88,1.63,1.63,0,0,0,.29,1.61l14.81,14.81A30.44,30.44,0,0,1,72.91,120.87Zm-53.24-7.33a5.88,5.88,0,0,1-5.87-5.87V101.8H27a1.47,1.47,0,1,0,0-2.93H13.8v-4.4H27a1.47,1.47,0,0,0,0-2.93H13.8v-4.4H27a1.47,1.47,0,1,0,0-2.93H13.8V79.8H27a1.47,1.47,0,1,0,0-2.93H13.8V65.13H69.53v13.2H41.67v22a29,29,0,0,0,3.08,13.2Zm8.8-51.33v-4c0-11.66,7.11-15.77,13.2-15.77s13.2,4.11,13.2,15.77v4Zm-7.33-5.87c0-9.9,5.43-20.53,20.53-20.53S62.2,46.43,62.2,56.33V62.2H57.8v-4c0-12.91-8.07-18.7-16.13-18.7s-16.13,5.79-16.13,18.7v4h-4.4ZM104,98.87H85.67V78.33H72.47V63.67A1.47,1.47,0,0,0,71,62.2H65.13V56.33c0-14.23-9.24-23.47-23.47-23.47S18.2,42.11,18.2,56.33V62.2H12.33a1.47,1.47,0,0,0-1.47,1.47v44a8.83,8.83,0,0,0,8.8,8.8H45.55a1.48,1.48,0,0,0,.81-.22c6.45,9.75,17.31,13.42,17.31,13.42A37.79,37.79,0,0,0,79.51,118.3l9.9,9.9H82.59a1.47,1.47,0,1,0,0,2.93H93.29c.07,0,.07,0,.15-.07s.07,0,.15-.07.07-.07.15-.07a.07.07,0,0,0,.07-.07,1.24,1.24,0,0,0,.44-.44l.07-.07c0-.07.07-.07.07-.15s0-.07.07-.15,0-.07.07-.15V119.25a1.47,1.47,0,0,0-2.93,0v6.82L81.34,115.81a28,28,0,0,0,4.4-14H104a1.47,1.47,0,1,0,0-2.93Z" style="fill:none;clip-rule:evenodd"/></clipPath><clipPath id="80f2c98d-cf7a-4ba0-8c19-0cda5bb42320"><path d="M115,98.87h-3.67a1.47,1.47,0,1,0,0,2.93H115a1.47,1.47,0,1,0,0-2.93Z" style="fill:none;clip-rule:evenodd"/></clipPath><clipPath id="96854275-4169-41b9-a772-f640f6191269"><path d="M61.83,90.95h.22a10.93,10.93,0,0,1,1.61-.15,1.47,1.47,0,1,0,0-2.93,19.35,19.35,0,0,0-2.05.15,1.43,1.43,0,0,0-1.17,1.69A1.37,1.37,0,0,0,61.83,90.95Z" style="fill:none;clip-rule:evenodd"/></clipPath><clipPath id="556ec779-ffeb-49ef-bf55-ca4c58882b12"><path d="M54.72,103.63a1.49,1.49,0,1,0-2.79,1,12,12,0,0,0,2.2,3.74,1.41,1.41,0,0,0,1.1.51,1.54,1.54,0,0,0,1-.37,1.42,1.42,0,0,0,.15-2.05A11,11,0,0,1,54.72,103.63Z" style="fill:none;clip-rule:evenodd"/></clipPath><clipPath id="cae5256c-2baf-4f42-8a24-5a45ff97c471"><path d="M54.13,92.27A12.88,12.88,0,0,0,51.93,96a1.53,1.53,0,0,0,.88,1.91,1.24,1.24,0,0,0,.51.07,1.5,1.5,0,0,0,1.39-1,9.5,9.5,0,0,1,1.69-2.86,1.49,1.49,0,0,0-.15-2.05A1.57,1.57,0,0,0,54.13,92.27Z" style="fill:none;clip-rule:evenodd"/></clipPath><clipPath id="9a85743d-e6a4-44bf-b596-d65b2db2bee2"><path d="M60.37,111a1.49,1.49,0,0,0,1.17,1.69,9.66,9.66,0,0,0,2.05.15,1.47,1.47,0,1,0,0-2.93,13.29,13.29,0,0,1-1.61-.15A1.49,1.49,0,0,0,60.37,111Z" style="fill:none;clip-rule:evenodd"/></clipPath></defs><title>ft-6</title><g id="39cba9c4-101e-4077-b7b4-b6c9b1940d67" data-name="Слой 2"><g id="404f16f3-f02f-447d-8655-80f8738c5961" data-name="Слой 1"><g style="clip-path:url(#2d9ca2e9-5f78-4d6f-823c-0438864d11b7)"><rect width="142" height="142" style="fill:#fff"/></g><g style="clip-path:url(#d7f534fa-8a28-4a81-8431-62745ff6e469)"><rect x="104.87" y="20.53" width="16.6" height="12.93" style="fill:#e06727"/></g><g style="clip-path:url(#1c265466-d480-4535-a032-d76c4ebd7ce2)"><rect x="115.87" y="20.53" width="16.6" height="12.93" style="fill:#e06727"/></g><g style="clip-path:url(#fb4e93eb-dec5-4200-bf3c-dd5e8d4f8407)"><rect x="64.41" y="13.2" width="46.06" height="27.6" style="fill:#e06727"/></g><g style="clip-path:url(#1eb8552e-c4de-493f-835d-bc11d7a02768)"><rect x="115.87" y="57.2" width="16.6" height="12.93" style="fill:#e06727"/></g><g style="clip-path:url(#23ff1a7e-038e-4226-9ce7-863fc7387523)"><rect x="79.07" y="49.87" width="31.39" height="27.75" style="fill:#e06727"/></g><g style="clip-path:url(#791bd056-1881-4b09-9647-234da489435c)"><rect x="104.87" y="57.2" width="16.6" height="12.93" style="fill:#e06727"/></g><g style="clip-path:url(#4e6ea9ef-5ef7-49f9-8eb5-a60a0d69a6bf)"><rect x="115.87" y="93.87" width="16.6" height="12.93" style="fill:#e06727"/></g><g style="clip-path:url(#0f023f16-4556-473a-a3aa-f64c5125dcdd)"><rect x="5.87" y="27.87" width="104.6" height="108.27" style="fill:#e06727"/></g><g style="clip-path:url(#80f2c98d-cf7a-4ba0-8c19-0cda5bb42320)"><rect x="104.87" y="93.87" width="16.6" height="12.93" style="fill:#e06727"/></g><g style="clip-path:url(#96854275-4169-41b9-a772-f640f6191269)"><rect x="55.41" y="82.87" width="14.72" height="13.08" style="fill:#e06727"/></g><g style="clip-path:url(#556ec779-ffeb-49ef-bf55-ca4c58882b12)"><rect x="46.84" y="97.66" width="14.87" height="16.25" style="fill:#e06727"/></g><g style="clip-path:url(#cae5256c-2baf-4f42-8a24-5a45ff97c471)"><rect x="46.84" y="86.78" width="14.91" height="16.21" style="fill:#e06727"/></g><g style="clip-path:url(#9a85743d-e6a4-44bf-b596-d65b2db2bee2)"><rect x="55.34" y="104.7" width="14.72" height="13.1" style="fill:#e06727"/></g></g></g></svg>