<svg xmlns="http://www.w3.org/2000/svg" xmlns:xlink="http://www.w3.org/1999/xlink" width="142" height="142" viewBox="0 0 142 142"><defs><clipPath id="b8da58ae-6177-41b6-b898-864688ef917c"><rect x="5" y="5" width="132" height="132" style="fill:none"/></clipPath><clipPath id="d3884122-3d14-4ec3-8681-14547384197f"><path d="M71,75.4A4.4,4.4,0,1,1,75.4,71,4.41,4.41,0,0,1,71,75.4Zm0-11.73A7.33,7.33,0,1,0,78.33,71,7.35,7.35,0,0,0,71,63.67Z" style="fill:none;clip-rule:evenodd"/></clipPath><clipPath id="d5cf7de4-2213-419e-8840-cc7016962291"><path d="M33.23,28.83a4.4,4.4,0,1,1-4.4,4.4A4.41,4.41,0,0,1,33.23,28.83Zm0,11.73a7.09,7.09,0,0,0,4-1.25.07.07,0,0,0,.07.07l3.3,3.3a1.42,1.42,0,0,0,2.05,0,1.42,1.42,0,0,0,0-2.05l-3.3-3.3a.07.07,0,0,1-.07-.07,7.09,7.09,0,0,0,1.25-4,7.33,7.33,0,1,0-7.33,7.33Z" style="fill:none;clip-rule:evenodd"/></clipPath><clipPath id="0e3ed040-4686-4c51-8d21-e9eaa255f54e"><path d="M111.33,119.4a8.07,8.07,0,1,1,8.07-8.07A8,8,0,0,1,111.33,119.4Zm0-19.07a10.75,10.75,0,0,0-6.75,2.35,1.55,1.55,0,0,0-.29-.44l-2.93-2.93a1.45,1.45,0,1,0-2.05,2.05l2.93,2.93a1.54,1.54,0,0,0,.44.29,10.76,10.76,0,0,0-2.35,6.75,11,11,0,1,0,11-11Z" style="fill:none;clip-rule:evenodd"/></clipPath><clipPath id="e212fdb1-1470-46e4-8343-68dc6412626f"><path d="M115,38.73A11.73,11.73,0,1,1,126.73,27,11.77,11.77,0,0,1,115,38.73Zm0-26.4a14.7,14.7,0,0,0-11.37,24l-4.33,4.33a1.42,1.42,0,0,0,0,2.05,1.42,1.42,0,0,0,2.05,0l4.33-4.33a14.68,14.68,0,1,0,9.31-26Z" style="fill:none;clip-rule:evenodd"/></clipPath><clipPath id="4fbd9ffb-eed7-4bef-b30c-16a6a883e7a1"><path d="M71,97.4A26.4,26.4,0,1,1,97.4,71,26.38,26.38,0,0,1,71,97.4Zm0-55.73A29.33,29.33,0,1,0,100.33,71,29.32,29.32,0,0,0,71,41.67Z" style="fill:none;clip-rule:evenodd"/></clipPath><clipPath id="beb6a723-dd64-49c2-bf31-e2d4eb3f95cd"><path d="M27,126.73A11.73,11.73,0,1,1,38.73,115,11.77,11.77,0,0,1,27,126.73ZM40.64,99.31,37,103a2,2,0,0,0-.44.88A14.53,14.53,0,0,0,27,100.33,14.67,14.67,0,1,0,41.67,115a14.53,14.53,0,0,0-3.52-9.53A1,1,0,0,0,39,105l3.67-3.67a1.45,1.45,0,1,0-2.05-2.05Z" style="fill:none;clip-rule:evenodd"/></clipPath><clipPath id="089c2daf-c589-4b08-8c0f-9c394f709f48"><path d="M89.19,40.86a25.82,25.82,0,0,1,2.93,2,1.41,1.41,0,0,0,.88.29,1.53,1.53,0,0,0,1.17-.59,1.43,1.43,0,0,0-.29-2.05c-1-.73-2.05-1.47-3.15-2.13a1.38,1.38,0,0,0-2,.51A1.49,1.49,0,0,0,89.19,40.86Z" style="fill:none;clip-rule:evenodd"/></clipPath><clipPath id="beb36515-d497-4bf6-b065-70f16fb65cec"><path d="M49,43.13a1.41,1.41,0,0,0,.88-.29c.81-.59,1.69-1.17,2.49-1.76a1.48,1.48,0,0,0-1.61-2.49c-1,.59-1.83,1.25-2.71,1.91a1.44,1.44,0,0,0-.29,2.05A1.81,1.81,0,0,0,49,43.13Z" style="fill:none;clip-rule:evenodd"/></clipPath><clipPath id="cf4381f3-1957-4073-8ca4-9c07c761b870"><path d="M58.24,38.07a1.25,1.25,0,0,0,.51-.07,25.75,25.75,0,0,1,3.37-1,1.44,1.44,0,0,0-.73-2.79,35.3,35.3,0,0,0-3.67,1.17,1.5,1.5,0,0,0-.88,1.91A1.54,1.54,0,0,0,58.24,38.07Z" style="fill:none;clip-rule:evenodd"/></clipPath><clipPath id="73f579eb-3665-488a-99f3-0407c907dd92"><path d="M68.95,35.87H69a28.22,28.22,0,0,1,3.52,0,1.47,1.47,0,0,0,1.54-1.39,1.52,1.52,0,0,0-1.39-1.54,33.35,33.35,0,0,0-3.81,0,1.52,1.52,0,0,0-1.39,1.54A1.41,1.41,0,0,0,68.95,35.87Z" style="fill:none;clip-rule:evenodd"/></clipPath><clipPath id="95f3b434-5bcc-441c-ae6f-4396dcb48ff5"><path d="M79.51,36.83c1.1.29,2.27.66,3.37,1a1.08,1.08,0,0,0,.51.07,1.5,1.5,0,0,0,1.39-1,1.53,1.53,0,0,0-.88-1.91A30.23,30.23,0,0,0,80.24,34a1.41,1.41,0,0,0-1.76,1.1A1.34,1.34,0,0,0,79.51,36.83Z" style="fill:none;clip-rule:evenodd"/></clipPath><clipPath id="d29aa942-0785-4a55-8c61-7a1009772da9"><path d="M92.12,99.16c-.81.59-1.69,1.17-2.49,1.76a1.51,1.51,0,0,0-.44,2.05,1.44,1.44,0,0,0,1.25.66,1.67,1.67,0,0,0,.81-.22c1-.59,1.83-1.25,2.71-1.91a1.44,1.44,0,0,0,.29-2.05A1.53,1.53,0,0,0,92.12,99.16Z" style="fill:none;clip-rule:evenodd"/></clipPath><clipPath id="b20fd017-f629-4239-8c9b-b78aedc414fe"><path d="M52.81,101.14a25.82,25.82,0,0,1-2.93-2,1.47,1.47,0,0,0-1.76,2.35c1,.73,2.05,1.47,3.15,2.13a1.41,1.41,0,0,0,.73.22,1.36,1.36,0,0,0,1.25-.73A1.43,1.43,0,0,0,52.81,101.14Z" style="fill:none;clip-rule:evenodd"/></clipPath><clipPath id="97a1e869-9690-416a-93cc-32e69117b6b4"><path d="M73,106.13a28.22,28.22,0,0,1-3.52,0,1.47,1.47,0,0,0-.15,2.93H71a19.94,19.94,0,0,0,2.13-.07,1.52,1.52,0,0,0,1.39-1.54A1.47,1.47,0,0,0,73,106.13Z" style="fill:none;clip-rule:evenodd"/></clipPath><clipPath id="feb5968e-ad10-4b40-a626-7af8e03634a7"><path d="M83.25,104a25.75,25.75,0,0,1-3.37,1,1.46,1.46,0,0,0,.37,2.86.66.66,0,0,0,.37-.07,35.3,35.3,0,0,0,3.67-1.17,1.5,1.5,0,0,0,.88-1.91A1.37,1.37,0,0,0,83.25,104Z" style="fill:none;clip-rule:evenodd"/></clipPath><clipPath id="32308327-a7ae-4b3b-bd0f-a15e6e18e416"><path d="M62.49,105.17a29.48,29.48,0,0,1-3.37-1,1.48,1.48,0,1,0-1,2.79,30.23,30.23,0,0,0,3.67,1.1c.15,0,.22.07.37.07a1.41,1.41,0,0,0,1.39-1.1A1.39,1.39,0,0,0,62.49,105.17Z" style="fill:none;clip-rule:evenodd"/></clipPath><clipPath id="136903b3-65f9-4656-a63a-f25b70ff3388"><path d="M101.14,89.19a25.86,25.86,0,0,1-2,2.93,1.43,1.43,0,0,0,.29,2.05,1.41,1.41,0,0,0,.88.29,1.53,1.53,0,0,0,1.17-.59c.73-1,1.47-2.05,2.13-3.15a1.38,1.38,0,0,0-.51-2A1.49,1.49,0,0,0,101.14,89.19Z" style="fill:none;clip-rule:evenodd"/></clipPath><clipPath id="3e53eb0f-8495-4f70-9836-c9e4f25ab52a"><path d="M109.13,72.69V71a20,20,0,0,0-.07-2.13,1.47,1.47,0,0,0-2.93.15,18,18,0,0,1,.07,2v1.54a1.52,1.52,0,0,0,1.39,1.54h.07A1.57,1.57,0,0,0,109.13,72.69Z" style="fill:none;clip-rule:evenodd"/></clipPath><clipPath id="63dc561c-8725-48b8-a922-6660d584a56b"><path d="M101.51,48.12a1.47,1.47,0,0,0-2.35,1.76c.59.81,1.17,1.69,1.76,2.49a1.44,1.44,0,0,0,1.25.66,1.67,1.67,0,0,0,.81-.22,1.51,1.51,0,0,0,.44-2.05C102.83,50,102.17,49,101.51,48.12Z" style="fill:none;clip-rule:evenodd"/></clipPath><clipPath id="08f552ec-c980-4ea7-a437-d1bc15758bbf"><path d="M106.71,57.73a1.48,1.48,0,0,0-2.79,1,25.61,25.61,0,0,1,1,3.37,1.41,1.41,0,0,0,1.39,1.1.65.65,0,0,0,.37-.07,1.42,1.42,0,0,0,1-1.76A15.07,15.07,0,0,0,106.71,57.73Z" style="fill:none;clip-rule:evenodd"/></clipPath><clipPath id="6ccba9b2-d851-4763-a859-3b3605889b59"><path d="M105.17,79.51a29.47,29.47,0,0,1-1,3.37,1.53,1.53,0,0,0,.88,1.91,1.25,1.25,0,0,0,.51.07,1.5,1.5,0,0,0,1.39-1,30.25,30.25,0,0,0,1.1-3.67,1.41,1.41,0,0,0-1.1-1.76A1.34,1.34,0,0,0,105.17,79.51Z" style="fill:none;clip-rule:evenodd"/></clipPath><clipPath id="ab8c7ce3-76c4-40b0-95b0-f611cdee675e"><path d="M35.43,63.59a1.41,1.41,0,0,0,1.39-1.1c.29-1.1.66-2.27,1-3.37a1.48,1.48,0,1,0-2.79-1A30.25,30.25,0,0,0,34,61.76a1.41,1.41,0,0,0,1.1,1.76A.66.66,0,0,0,35.43,63.59Z" style="fill:none;clip-rule:evenodd"/></clipPath><clipPath id="f65bee08-c553-4866-be9f-feacbe191249"><path d="M39.61,53.47a1.36,1.36,0,0,0,1.25-.73,25.69,25.69,0,0,1,2-2.93A1.47,1.47,0,1,0,40.49,48c-.73,1-1.47,2.05-2.13,3.15a1.38,1.38,0,0,0,.51,2A.75.75,0,0,0,39.61,53.47Z" style="fill:none;clip-rule:evenodd"/></clipPath><clipPath id="8a1e81b0-c978-48b0-ae76-e3145f121a79"><path d="M35.29,84.27a1.5,1.5,0,0,0,1.39,1,1.23,1.23,0,0,0,.51-.07,1.49,1.49,0,0,0,.88-1.91,25.61,25.61,0,0,1-1-3.37,1.44,1.44,0,0,0-2.79.73A15.07,15.07,0,0,0,35.29,84.27Z" style="fill:none;clip-rule:evenodd"/></clipPath><clipPath id="12b3d664-bdb1-44b7-af85-0943f81d4da7"><path d="M40.49,93.88a1.53,1.53,0,0,0,1.17.59,1.41,1.41,0,0,0,.88-.29,1.43,1.43,0,0,0,.29-2.05c-.59-.81-1.17-1.69-1.76-2.57a1.48,1.48,0,1,0-2.49,1.61C39.17,92,39.83,93,40.49,93.88Z" style="fill:none;clip-rule:evenodd"/></clipPath><clipPath id="44c492cf-da96-4553-bea6-6d7bcd17184f"><path d="M32.87,69.31V71a20,20,0,0,0,.07,2.13,1.46,1.46,0,0,0,1.47,1.39h.07A1.52,1.52,0,0,0,35.87,73a18,18,0,0,1-.07-2V69.46a1.47,1.47,0,0,0-2.93-.15Z" style="fill:none;clip-rule:evenodd"/></clipPath></defs><title>ft-7</title><g id="b3c4026a-5ed9-45a1-9ed6-c462df1ce4a2" data-name="Слой 2"><g id="e21864f8-e483-41e2-981b-559da1de4476" data-name="Слой 1"><g style="clip-path:url(#b8da58ae-6177-41b6-b898-864688ef917c)"><rect width="142" height="142" style="fill:#fff"/></g><g style="clip-path:url(#d3884122-3d14-4ec3-8681-14547384197f)"><rect x="58.67" y="58.67" width="24.67" height="24.67" style="fill:#e06727"/></g><g style="clip-path:url(#d5cf7de4-2213-419e-8840-cc7016962291)"><rect x="20.9" y="20.9" width="27.23" height="27.23" style="fill:#e06727"/></g><g style="clip-path:url(#0e3ed040-4686-4c51-8d21-e9eaa255f54e)"><rect x="93.87" y="93.87" width="33.47" height="33.47" style="fill:#e06727"/></g><g style="clip-path:url(#e212fdb1-1470-46e4-8343-68dc6412626f)"><rect x="93.87" y="7.33" width="40.8" height="40.8" style="fill:#e06727"/></g><g style="clip-path:url(#4fbd9ffb-eed7-4bef-b30c-16a6a883e7a1)"><rect x="36.67" y="36.67" width="68.67" height="68.67" style="fill:#e06727"/></g><g style="clip-path:url(#beb6a723-dd64-49c2-bf31-e2d4eb3f95cd)"><rect x="7.33" y="93.87" width="40.8" height="40.8" style="fill:#e06727"/></g><g style="clip-path:url(#089c2daf-c589-4b08-8c0f-9c394f709f48)"><rect x="83.55" y="33.14" width="15.93" height="14.99" style="fill:#e06727"/></g><g style="clip-path:url(#beb36515-d497-4bf6-b065-70f16fb65cec)"><rect x="42.44" y="33.36" width="15.6" height="14.77" style="fill:#e06727"/></g><g style="clip-path:url(#cf4381f3-1957-4073-8ca4-9c07c761b870)"><rect x="51.76" y="29.13" width="16.45" height="13.94" style="fill:#e06727"/></g><g style="clip-path:url(#73f579eb-3665-488a-99f3-0407c907dd92)"><rect x="62.48" y="27.88" width="16.6" height="12.99" style="fill:#e06727"/></g><g style="clip-path:url(#95f3b434-5bcc-441c-ae6f-4396dcb48ff5)"><rect x="73.4" y="28.92" width="16.48" height="14.01" style="fill:#e06727"/></g><g style="clip-path:url(#d29aa942-0785-4a55-8c61-7a1009772da9)"><rect x="83.96" y="93.85" width="15.6" height="14.78" style="fill:#e06727"/></g><g style="clip-path:url(#b20fd017-f629-4239-8c9b-b78aedc414fe)"><rect x="42.52" y="93.85" width="15.96" height="15" style="fill:#e06727"/></g><g style="clip-path:url(#97a1e869-9690-416a-93cc-32e69117b6b4)"><rect x="62.92" y="101.13" width="16.6" height="12.93" style="fill:#e06727"/></g><g style="clip-path:url(#feb5968e-ad10-4b40-a626-7af8e03634a7)"><rect x="73.79" y="98.88" width="16.45" height="14.01" style="fill:#e06727"/></g><g style="clip-path:url(#32308327-a7ae-4b3b-bd0f-a15e6e18e416)"><rect x="52.12" y="99.06" width="16.48" height="14.05" style="fill:#e06727"/></g><g style="clip-path:url(#136903b3-65f9-4656-a63a-f25b70ff3388)"><rect x="93.85" y="83.55" width="15.01" height="15.92" style="fill:#e06727"/></g><g style="clip-path:url(#3e53eb0f-8495-4f70-9836-c9e4f25ab52a)"><rect x="101.13" y="62.48" width="13.01" height="16.6" style="fill:#e06727"/></g><g style="clip-path:url(#63dc561c-8725-48b8-a922-6660d584a56b)"><rect x="93.85" y="42.52" width="14.79" height="15.52" style="fill:#e06727"/></g><g style="clip-path:url(#08f552ec-c980-4ea7-a437-d1bc15758bbf)"><rect x="98.83" y="51.75" width="13.96" height="16.47" style="fill:#e06727"/></g><g style="clip-path:url(#6ccba9b2-d851-4763-a859-3b3605889b59)"><rect x="99.06" y="73.4" width="14.03" height="16.46" style="fill:#e06727"/></g><g style="clip-path:url(#ab8c7ce3-76c4-40b0-95b0-f611cdee675e)"><rect x="28.92" y="52.12" width="14.03" height="16.47" style="fill:#e06727"/></g><g style="clip-path:url(#f65bee08-c553-4866-be9f-feacbe191249)"><rect x="33.14" y="42.44" width="15.01" height="16.03" style="fill:#e06727"/></g><g style="clip-path:url(#8a1e81b0-c978-48b0-ae76-e3145f121a79)"><rect x="29.2" y="73.79" width="13.96" height="16.44" style="fill:#e06727"/></g><g style="clip-path:url(#12b3d664-bdb1-44b7-af85-0943f81d4da7)"><rect x="33.36" y="83.88" width="14.79" height="15.58" style="fill:#e06727"/></g><g style="clip-path:url(#44c492cf-da96-4553-bea6-6d7bcd17184f)"><rect x="27.87" y="62.92" width="13.01" height="16.6" style="fill:#e06727"/></g></g></g></svg>