<svg xmlns="http://www.w3.org/2000/svg" xmlns:xlink="http://www.w3.org/1999/xlink" width="142" height="142" viewBox="0 0 142 142"><defs><clipPath id="8651cf12-7033-4fdb-a8e1-db71b72d1b65"><rect x="5" y="5" width="132" height="132" style="fill:none"/></clipPath><clipPath id="27dde5cf-c1f9-4604-b5a8-2896b986531e"><path d="M60,112.07H34.33a2.66,2.66,0,0,0-2.05.88l-7.19,7.19a1.44,1.44,0,0,1-1,.44,1.47,1.47,0,0,1-1.47-1.47v-3.23c0-1.17-.07-4-2.64-4.18a14.84,14.84,0,0,1,3.37-29.41h.15a3,3,0,0,0,2.93-2.57,15.39,15.39,0,0,1,15.25-13,15.17,15.17,0,0,1,15.25,13,2.8,2.8,0,0,0,1,1.83,2.87,2.87,0,0,0,1.91.66H60a14.93,14.93,0,1,1,0,29.85Zm0-32.63h-.15A18.06,18.06,0,0,0,41.67,63.81,18.19,18.19,0,0,0,23.48,79.36h-.15A18.09,18.09,0,0,0,5,97.18a17.88,17.88,0,0,0,14.52,17.38c.07,0,.07,2,.07,4.47a4.41,4.41,0,0,0,4.4,4.4,4.1,4.1,0,0,0,3.08-1.32L34.33,115H60A18.09,18.09,0,0,0,78.33,97.18C78.33,87.35,70.12,79.43,60,79.43Z" style="fill:none;clip-rule:evenodd"/></clipPath><clipPath id="672dbcb3-a161-4a3a-82f2-cdedfc90f438"><path d="M89.7,13.8h3.67a1.47,1.47,0,0,0,.07-2.93H89.7a1.47,1.47,0,1,0,0,2.93Z" style="fill:none;clip-rule:evenodd"/></clipPath><clipPath id="1d53c312-b346-4951-966b-202bf4d52388"><path d="M78.7,13.8h3.67a1.47,1.47,0,0,0,0-2.93H78.7a1.47,1.47,0,1,0,0,2.93Z" style="fill:none;clip-rule:evenodd"/></clipPath><clipPath id="5c35845f-d8dc-4505-9890-1b3e0760ed09"><path d="M67.7,13.8h3.67a1.47,1.47,0,0,0,0-2.93H67.7a1.47,1.47,0,1,0,0,2.93Z" style="fill:none;clip-rule:evenodd"/></clipPath><clipPath id="89750843-b5ea-4916-ad1d-b3363e00bbba"><path d="M98.87,19.52a1.47,1.47,0,1,0,2.93,0,8.36,8.36,0,0,0-1.17-4.18,1.45,1.45,0,0,0-2.49,1.47A5.77,5.77,0,0,1,98.87,19.52Z" style="fill:none;clip-rule:evenodd"/></clipPath><clipPath id="d4edbd16-2766-439b-9cca-936c0a6cb50a"><path d="M40.57,58.17a1.42,1.42,0,0,0,2.05,0L50,50.83a1.45,1.45,0,1,0-2.05-2.05l-4.77,4.77V19.67A5.88,5.88,0,0,1,49,13.8H60.37a1.47,1.47,0,0,0,0-2.93H49a8.83,8.83,0,0,0-8.8,8.8v34l-4.91-4.91a1.45,1.45,0,0,0-2.05,2.05Z" style="fill:none;clip-rule:evenodd"/></clipPath><clipPath id="7dc1e77e-b715-48f9-86af-f74e60e3105c"><path d="M75,128.2H71.37a1.47,1.47,0,1,0,0,2.93H75a1.47,1.47,0,1,0,0-2.93Z" style="fill:none;clip-rule:evenodd"/></clipPath><clipPath id="b9d0846f-3d32-4ca7-84d4-405a7d1f3585"><path d="M53,128.2H49.37a1.47,1.47,0,1,0,0,2.93H53a1.47,1.47,0,1,0,0-2.93Z" style="fill:none;clip-rule:evenodd"/></clipPath><clipPath id="04a79c35-f058-4f13-afb9-37966e2c9488"><path d="M64,128.2H60.37a1.47,1.47,0,1,0,0,2.93H64a1.47,1.47,0,1,0,0-2.93Z" style="fill:none;clip-rule:evenodd"/></clipPath><clipPath id="3a31f9f6-b897-4093-8496-6d6958c0e4d5"><path d="M43.21,123.07a1.44,1.44,0,1,0-2.86.37,8.11,8.11,0,0,0,1.61,4,1.53,1.53,0,0,0,1.17.59,1.41,1.41,0,0,0,.88-.29,1.5,1.5,0,0,0,.37-2.05A4.15,4.15,0,0,1,43.21,123.07Z" style="fill:none;clip-rule:evenodd"/></clipPath><clipPath id="f48eda37-d401-4d65-b58a-b4354022578b"><path d="M101.43,84.57a1.42,1.42,0,0,0-2.05,0l-.07.07L92,91.9A1.45,1.45,0,0,0,94.1,94l4.77-4.77v33.15A5.88,5.88,0,0,1,93,128.2H82.37a1.47,1.47,0,1,0,0,2.93H93a8.83,8.83,0,0,0,8.8-8.8V89.11L106.71,94a1.42,1.42,0,0,0,2.05,0,1.42,1.42,0,0,0,0-2.05Z" style="fill:none;clip-rule:evenodd"/></clipPath><clipPath id="3a94bcd3-d42e-4f6f-aeb8-d919f6251dc3"><path d="M122.11,75c-2.57.22-2.64,2.93-2.64,4.18v3.23A1.47,1.47,0,0,1,118,83.91a1.45,1.45,0,0,1-1-.44l-7.19-7.19a2.93,2.93,0,0,0-2.13-.88H82a14.9,14.9,0,1,1,0-29.77h.15a3,3,0,0,0,2.93-2.57,15.45,15.45,0,0,1,30.51,0,3,3,0,0,0,2.93,2.57h.15A14.85,14.85,0,0,1,122.11,75Zm-3.45-32.27h-.15a18.41,18.41,0,0,0-36.37,0H82A18.09,18.09,0,0,0,63.67,60.59c0,9.83,8.21,17.75,18.33,17.75h25.67l7.19,7.19a4.36,4.36,0,0,0,7.48-3.08c0-2.49.07-4.47.07-4.47a17.75,17.75,0,0,0-3.74-35.2Z" style="fill:none;clip-rule:evenodd"/></clipPath></defs><title>ft-8</title><g id="f83d4c0d-a56b-47d5-a512-3ded4b81da99" data-name="Слой 2"><g id="7a194886-9a2f-41b3-9969-78513880b82a" data-name="Слой 1"><g style="clip-path:url(#8651cf12-7033-4fdb-a8e1-db71b72d1b65)"><rect width="142" height="142" style="fill:#fff"/></g><g style="clip-path:url(#27dde5cf-c1f9-4604-b5a8-2896b986531e)"><rect y="58.81" width="83.33" height="69.62" style="fill:#e06727"/></g><g style="clip-path:url(#672dbcb3-a161-4a3a-82f2-cdedfc90f438)"><rect x="83.23" y="5.87" width="16.61" height="12.93" style="fill:#e06727"/></g><g style="clip-path:url(#1d53c312-b346-4951-966b-202bf4d52388)"><rect x="72.23" y="5.87" width="16.6" height="12.93" style="fill:#e06727"/></g><g style="clip-path:url(#5c35845f-d8dc-4505-9890-1b3e0760ed09)"><rect x="61.23" y="5.87" width="16.6" height="12.93" style="fill:#e06727"/></g><g style="clip-path:url(#89750843-b5ea-4916-ad1d-b3363e00bbba)"><rect x="92.91" y="9.6" width="13.89" height="16.39" style="fill:#e06727"/></g><g style="clip-path:url(#d4edbd16-2766-439b-9cca-936c0a6cb50a)"><rect x="27.79" y="5.87" width="39.04" height="57.74" style="fill:#e06727"/></g><g style="clip-path:url(#7dc1e77e-b715-48f9-86af-f74e60e3105c)"><rect x="64.9" y="123.2" width="16.6" height="12.93" style="fill:#e06727"/></g><g style="clip-path:url(#b9d0846f-3d32-4ca7-84d4-405a7d1f3585)"><rect x="42.9" y="123.2" width="16.6" height="12.93" style="fill:#e06727"/></g><g style="clip-path:url(#04a79c35-f058-4f13-afb9-37966e2c9488)"><rect x="53.9" y="123.2" width="16.6" height="12.93" style="fill:#e06727"/></g><g style="clip-path:url(#3a31f9f6-b897-4093-8496-6d6958c0e4d5)"><rect x="35.32" y="116.8" width="14.31" height="16.26" style="fill:#e06727"/></g><g style="clip-path:url(#f48eda37-d401-4d65-b58a-b4354022578b)"><rect x="75.9" y="79.13" width="38.31" height="57.01" style="fill:#e06727"/></g><g style="clip-path:url(#3a94bcd3-d42e-4f6f-aeb8-d919f6251dc3)"><rect x="58.67" y="22.22" width="83.33" height="69.62" style="fill:#e06727"/></g></g></g></svg>