<?xml version="1.0" encoding="UTF-8" standalone="no"?>
<svg width="199px" height="44px" viewBox="0 0 199 44" version="1.1" xmlns="http://www.w3.org/2000/svg" xmlns:xlink="http://www.w3.org/1999/xlink">
    <!-- Generator: Sketch 46 (44423) - http://www.bohemiancoding.com/sketch -->
    <title>HostedPCI</title>
    <desc>Created with Sketch.</desc>
    <defs></defs>
    <g id="CLIENTS-BANNERS" stroke="none" stroke-width="1" fill="none" fill-rule="evenodd">
        <g id="Hosted-PCI" transform="translate(-60.000000, -57.000000)" fill="#FFFFFF">
            <g id="Logo" transform="translate(60.000000, 57.000000)">
                <g id="HostedPCI">
                    <path d="M134,28.5086466 L146.021244,21.7260697 L151.80925,33.2272109 C151.80925,33.2272109 163.385263,8.30821903 176,3 C176,3 174.664306,8.52939483 176,18.6296086 C176,19.1458329 163.978756,25.5599309 152.699713,43.9909521 C152.996682,44.4333037 134,28.5086466 134,28.5086466" id="Fill-1"></path>
                    <path d="M170.445118,32.3533097 L170.445118,37.6519205 L171.523928,37.6519205 C171.927466,37.6519205 172.218886,37.6266412 172.397333,37.575647 C172.631838,37.5102697 172.826118,37.3991283 172.981028,37.2430945 C173.135511,37.086189 173.26175,36.8290384 173.359746,36.4703351 C173.456886,36.1125034 173.50567,35.6239172 173.50567,35.0054481 C173.50567,34.386979 173.456886,33.9119041 173.359746,33.5806592 C173.26175,33.250286 173.125241,32.9918278 172.949362,32.8061564 C172.773483,32.6204849 172.550531,32.4949605 172.280508,32.4295832 C172.078525,32.3790248 171.683546,32.3533097 171.094287,32.3533097 L170.445118,32.3533097 Z M169,31 L171.641181,31 C172.236859,31 172.690464,31.0509943 173.003281,31.152547 C173.422652,31.290711 173.78254,31.5365296 174.081663,31.8895669 C174.381214,32.2421683 174.608872,32.6740943 174.765495,33.1853446 C174.921689,33.6965949 175,34.3268319 175,35.0760556 C175,35.7350586 174.926396,36.3025334 174.780044,36.7789158 C174.60117,37.3607736 174.345268,37.8319259 174.013622,38.1919368 C173.762856,38.4652138 173.424363,38.6783438 172.998146,38.8308908 C172.679338,38.9437755 172.25312,39 171.719492,39 L169,39 L169,31 Z" id="Fill-3"></path>
                    <path d="M177.501325,33.9947321 C177.501325,34.8708845 177.689908,35.5346363 178.067505,35.9868303 C178.44467,36.4390244 178.924111,36.6649107 179.504963,36.6649107 C180.085383,36.6649107 180.562234,36.4407101 180.934653,35.9918875 C181.307071,35.5434863 181.493496,34.8708845 181.493496,33.9736606 C181.493496,33.087394 181.31225,32.4257494 180.949756,31.9895696 C180.586832,31.5533899 180.105234,31.3350893 179.504963,31.3350893 C178.90426,31.3350893 178.420073,31.5563399 178.052401,31.9975768 C177.685161,32.4392351 177.501325,33.105094 177.501325,33.9947321 M176,34.0474108 C176,33.2597587 176.109179,32.5985355 176.329265,32.0637412 C176.493681,31.669283 176.71765,31.316125 177.001603,31.0025813 C177.285124,30.6898804 177.596264,30.4576727 177.934591,30.3063794 C178.383823,30.1024074 178.902534,30 179.489859,30 C180.553172,30 181.404167,30.3535795 182.042414,31.06116 C182.680661,31.768319 183,32.7515145 183,34.0107465 C183,35.2594427 182.68325,36.2363167 182.04975,36.94179 C181.416251,37.6472633 180.56957,38 179.50971,38 C178.436471,38 177.582886,37.6489491 176.949818,36.9472686 C176.316318,36.2451667 176,35.2788284 176,34.0474108" id="Fill-5"></path>
                    <polygon id="Fill-7" points="184 39 184 31 185.485641 31 188.581292 36.3421956 188.581292 31 190 31 190 39 188.467777 39 185.418708 33.7828929 185.418708 39"></polygon>
                    <polygon id="Fill-9" points="192 39 192 31 197.848585 31 197.848585 32.3533097 193.592453 32.3533097 193.592453 34.1267774 197.55283 34.1267774 197.55283 35.4744211 193.592453 35.4744211 193.592453 37.6519205 198 37.6519205 198 39"></polygon>
                    <polygon id="Fill-11" points="198 37 199 37 199 39 198 39"></polygon>
                    <path d="M47.0480427,34.9821996 C47.2771352,35.0415342 47.5658363,35.0644204 47.9154804,35.0644204 C49.180605,35.0644204 49.9515125,34.4638695 49.9515125,33.3678745 C49.9515125,32.3193473 49.1921708,31.8124603 48.036032,31.8124603 C47.577847,31.8124603 47.2286477,31.8476372 47.0480427,31.8951049 L47.0480427,34.9821996 Z M46,31.1529985 C46.5057829,31.0707777 47.1685943,31 48.0115658,31 C49.0480427,31 49.8069395,31.2352193 50.2887011,31.6594618 C50.7344306,32.0366603 51,32.6139013 51,33.3208307 C51,34.039627 50.7829181,34.6050011 50.3732206,35.0178004 C49.8189502,35.5950413 48.9154804,35.8895953 47.8914591,35.8895953 C47.577847,35.8895953 47.2887011,35.8777283 47.0480427,35.8188175 L47.0480427,39 L46,39 L46,31.1529985 Z" id="Fill-13"></path>
                    <path d="M57.9887503,39.5854681 C57.6136151,39.7922683 56.8633446,40 55.9027908,40 C53.675777,40 52,38.4457382 52,35.5840708 C52,32.8518864 53.675777,31 56.1251893,31 C57.1099733,31 57.7308719,31.2328831 58,31.388449 L57.7542367,32.3078714 C57.3674191,32.1010713 56.816615,31.9455054 56.1602365,31.9455054 C54.3087907,31.9455054 53.0782433,33.252911 53.0782433,35.5449464 C53.0782433,37.6818817 54.1919665,39.0540289 56.1135069,39.0540289 C56.7348381,39.0540289 57.3674191,38.9119702 57.7776015,38.6916628 L57.9887503,39.5854681 Z" id="Fill-14"></path>
                    <polygon id="Fill-15" points="61 39 60 39 60 31 61 31"></polygon>
                    <path d="M70.9887503,39.5854681 C70.6136151,39.7922683 69.8633446,40 68.9027908,40 C66.675777,40 65,38.4457382 65,35.5840708 C65,32.8518864 66.675777,31 69.1251893,31 C70.1099733,31 70.7308719,31.2328831 71,31.388449 L70.7542367,32.3078714 C70.3674191,32.1010713 69.816615,31.9455054 69.1602365,31.9455054 C67.3087907,31.9455054 66.0782433,33.252911 66.0782433,35.5449464 C66.0782433,37.6818817 67.1919665,39.0540289 69.1135069,39.0540289 C69.7348381,39.0540289 70.3674191,38.9119702 70.7776015,38.6916628 L70.9887503,39.5854681 Z" id="Fill-16"></path>
                    <path d="M72.057237,35.5518631 C72.057237,37.4138198 72.9433024,39.0822782 74.5002098,39.0822782 C76.0684447,39.0822782 76.95451,37.4398677 76.95451,35.4616259 C76.95451,33.7285131 76.159065,31.918187 74.5115373,31.918187 C72.8753371,31.918187 72.057237,33.6382759 72.057237,35.5518631 M78,35.4095302 C78,38.4096853 76.3977824,40 74.4431525,40 C72.4205574,40 71,38.2157217 71,35.577911 C71,32.8103261 72.5115972,31 74.5568475,31 C76.6474079,31 78,32.82335 78,35.4095302" id="Fill-17"></path>
                    <path d="M86.8137813,35.4867115 C86.7553934,34.3711175 86.6858431,33.0296723 86.6974348,32.0327676 L86.6622303,32.0327676 C86.3951916,32.9703277 86.0697649,33.9672324 85.6743587,35.071299 L84.2906515,38.9526097 L83.5230224,38.9526097 L82.2556617,35.1425979 C81.8838682,34.0150496 81.5696039,32.982282 81.3489321,32.0327676 L81.3253193,32.0327676 C81.3021359,33.0296723 81.243748,34.3711175 81.1741977,35.5699648 L80.9651175,39 L80,39 L80.5460985,31 L81.837072,31 L83.173983,34.8697833 C83.499839,35.8547337 83.7673071,36.7329491 83.9647955,37.5637741 L83.9995707,37.5637741 C84.1974885,36.7568577 84.4765482,35.8786423 84.8251583,34.8697833 L86.2204572,31 L87.5114307,31 L88,39 L87.0112697,39 L86.8137813,35.4867115 Z" id="Fill-18"></path>
                    <path d="M91.0480427,34.9821996 C91.2771352,35.0415342 91.5658363,35.0644204 91.9154804,35.0644204 C93.180605,35.0644204 93.9515125,34.4638695 93.9515125,33.3678745 C93.9515125,32.3193473 93.1921708,31.8124603 92.036032,31.8124603 C91.577847,31.8124603 91.2286477,31.8476372 91.0480427,31.8951049 L91.0480427,34.9821996 Z M90,31.1529985 C90.5057829,31.0707777 91.1685943,31 92.0115658,31 C93.0480427,31 93.8069395,31.2352193 94.2887011,31.6594618 C94.7344306,32.0366603 95,32.6139013 95,33.3208307 C95,34.039627 94.7829181,34.6050011 94.3732206,35.0178004 C93.8189502,35.5950413 92.9154804,35.8895953 91.8914591,35.8895953 C91.577847,35.8895953 91.2887011,35.8777283 91.0480427,35.8188175 L91.0480427,39 L90,39 L90,31.1529985 Z" id="Fill-19"></path>
                    <polygon id="Fill-20" points="96 31 96.9279244 31 96.9279244 38.1337389 100 38.1337389 100 39 96 39"></polygon>
                    <polygon id="Fill-21" points="103 39 102 39 102 31 103 31"></polygon>
                    <path d="M108.728528,35.6766998 L107.909662,33.3737859 C107.723619,32.8516384 107.598979,32.3768812 107.475255,31.9140783 L107.450511,31.9140783 C107.325871,32.3888355 107.189775,32.8751201 107.028476,33.3618316 L106.209152,35.6766998 L108.728528,35.6766998 Z M105.985991,36.4840431 L105.116719,39 L104,39 L106.842433,31 L108.145653,31 L111,39 L109.845706,39 L108.951689,36.4840431 L105.985991,36.4840431 Z" id="Fill-22"></path>
                    <path d="M112,39 L112,31 L113.126532,31 L115.687828,35.0473903 C116.280648,35.9849504 116.743433,36.8277297 117.122592,37.6470274 L117.146673,37.6350731 C117.051664,36.5668695 117.027583,35.5934465 117.027583,34.3472089 L117.027583,31 L118,31 L118,39 L116.956655,39 L114.419002,34.9406554 C113.861646,34.0504856 113.327933,33.1364073 112.924694,32.2697193 L112.889229,32.2821005 C112.948774,33.2909595 112.972417,34.2524282 112.972417,35.5814922 L112.972417,39 L112,39 Z" id="Fill-23"></path>
                    <path d="M124.98875,39.5854681 C124.613615,39.7922683 123.863345,40 122.902791,40 C120.675777,40 119,38.4457382 119,35.5840708 C119,32.8518864 120.675777,31 123.125189,31 C124.109973,31 124.730872,31.2328831 125,31.388449 L124.754237,32.3078714 C124.367419,32.1010713 123.816615,31.9455054 123.160237,31.9455054 C121.308791,31.9455054 120.078243,33.252911 120.078243,35.5449464 C120.078243,37.6818817 121.191967,39.0540289 123.113507,39.0540289 C123.734838,39.0540289 124.367419,38.9119702 124.777601,38.6916628 L124.98875,39.5854681 Z" id="Fill-24"></path>
                    <polygon id="Fill-25" points="131.604443 35.2493329 128.147701 35.2493329 128.147701 38.1337389 132 38.1337389 132 39 127 39 127 31 131.802221 31 131.802221 31.8662611 128.147701 31.8662611 128.147701 34.3945992 131.604443 34.3945992"></polygon>
                    <path d="M0,4 L2.56339102,4 L2.56339102,13.3577465 L2.62102615,13.3577465 C3.02904628,12.5830986 3.66943661,11.9014085 4.45620188,11.4370688 C5.21323473,10.971831 6.1161851,10.6619718 7.07768545,10.6619718 C8.9704963,10.6619718 12,11.9014085 12,17.0760563 L12,26 L9.4370664,26 L9.4370664,17.3863646 C9.4370664,14.9690141 8.59220858,12.9239437 6.17473508,12.9239437 C4.51429443,12.9239437 3.20378135,14.1633803 2.73766867,15.6507042 C2.59220858,16.0225352 2.56339102,16.4253521 2.56339102,16.9521127 L2.56339102,26 L0,26 L0,4 Z" id="Fill-26"></path>
                    <path d="M17.4460788,17.5296443 C17.4460788,20.6715071 19.1225513,23.0434783 21.4861877,23.0434783 C23.7950063,23.0434783 25.5267282,20.701581 25.5267282,17.4703557 C25.5267282,15.0395257 24.3992961,11.9560921 21.5410054,11.9560921 C18.6827147,11.9560921 17.4460788,14.8019419 17.4460788,17.5296443 M28,17.3814229 C28,22.687747 24.5922372,25 21.3761206,25 C17.7758483,25 15,22.1541502 15,17.6185771 C15,12.8157759 17.9131084,10 21.5958231,10 C25.4166611,10 28,12.9936415 28,17.3814229" id="Fill-27"></path>
                    <path d="M30.6242568,22.029703 C31.3626635,22.5346535 32.668698,23.0693069 33.9181034,23.0693069 C35.7351367,23.0693069 36.5868014,22.1188119 36.5868014,20.9306931 C36.5868014,19.6831683 35.8769322,19 34.0318074,18.2871287 C31.5615339,17.3663366 30.3972949,15.9401636 30.3972949,14.2178218 C30.3972949,11.9009901 32.1862366,10 35.1389715,10 C36.5301724,10 37.7505945,10.4158416 38.5175386,10.8910891 L37.8928359,12.7920792 C37.3537455,12.4356436 36.3593936,11.9599656 35.0818966,11.9599656 C33.605975,11.9599656 32.7824019,12.8514851 32.7824019,13.9207921 C32.7824019,15.1089109 33.605975,15.6435644 35.3944709,16.3564356 C37.7795779,17.3069307 39,18.5544554 39,20.6930693 C39,23.2178218 37.1263377,25 33.8614744,25 C32.3565696,25 30.9653686,24.6138614 30,24.019802 L30.6242568,22.029703 Z" id="Fill-28"></path>
                    <path d="M45.4876874,6 L45.4876874,10.1721004 L49,10.1721004 L49,12.1831128 L45.4876874,12.1831128 L45.4876874,20.0174916 C45.4876874,21.8179633 45.9618037,22.838477 47.3276787,22.838477 C47.9685893,22.838477 48.4427055,22.7484317 48.7491518,22.6583864 L48.8607858,24.6398187 C48.3866696,24.8494894 47.634125,25 46.6863303,25 C45.5437233,25 44.6235088,24.6093686 44.0381963,23.8890059 C43.3416876,23.108613 43.0904017,21.8179633 43.0904017,20.107537 L43.0904017,12.1831128 L41,12.1831128 L41,10.1721004 L43.0904017,10.1721004 L43.0904017,6.69034754 L45.4876874,6 Z" id="Fill-29"></path>
                    <path d="M59.6112991,16.1186363 C59.6391055,14.4557481 58.9651317,11.8716639 56.1822863,11.8716639 C53.6810358,11.8716639 52.5851111,14.3068071 52.3887009,16.1186363 L59.6112991,16.1186363 Z M52.3604531,17.9903002 C52.4165073,21.5248522 54.5527439,22.9798255 57.026188,22.9798255 C58.7960865,22.9798255 59.8642048,22.6535327 60.791967,22.237703 L61.2134765,24.1089365 C60.3417684,24.5243356 58.852582,25 56.6885391,25 C52.5012506,25 50,22.088762 50,17.7522528 C50,13.416174 52.4165073,10 56.3795792,10 C60.8197734,10 62,14.1285944 62,16.7725133 C62,17.3071515 61.9439459,17.7229811 61.9161395,17.9903002 L52.3604531,17.9903002 Z" id="Fill-30"></path>
                    <path d="M75.3829771,16.9070735 C75.3829771,16.5709864 75.3548323,16.1137309 75.2690576,15.7776438 C74.899154,14.0693481 73.5339062,12.6652998 71.6562437,12.6652998 C69.0678124,12.6652998 67.5319085,15.1067961 67.5319085,18.371706 C67.5319085,21.361555 68.8971564,23.8335645 71.5995072,23.8335645 C73.2779222,23.8335645 74.8142728,22.6435506 75.2690576,20.629681 C75.3548323,20.2635229 75.3829771,19.8973648 75.3829771,19.4701803 L75.3829771,16.9070735 Z M77.8865272,4 L77.8865272,21.850208 C77.8865272,23.1622746 77.914672,24.656978 78,25.6643551 L75.7524339,25.6643551 L75.6389611,23.1012483 L75.5817779,23.1012483 C74.8142728,24.7485176 73.1358578,26 70.8882917,26 C67.5600534,26 65.0002137,22.9787533 65.0002137,18.4937587 C64.9716221,13.5811373 67.8164841,10.5598907 71.1728673,10.5598907 C73.2779222,10.5598907 74.7003532,11.6278518 75.325794,12.8183079 L75.3829771,12.8183079 L75.3829771,4 L77.8865272,4 Z" id="Fill-31"></path>
                    <path d="M86.6155022,11.3108438 C87.0989052,11.4167677 87.6941403,11.452365 88.5121377,11.452365 C91.524839,11.452365 93.3844978,10.003292 93.3844978,7.56443882 C93.3844978,5.37259655 91.7850289,4.06504477 88.958564,4.06504477 C87.8059724,4.06504477 87.0245008,4.17140273 86.6155022,4.27732658 L86.6155022,11.3108438 Z M81,0.495324229 C82.7478267,0.212715927 85.2022697,0 88.6609465,0 C92.1570509,0 94.6484706,0.636411323 96.3223439,1.90923397 C97.9213618,3.11042778 99,5.08998824 99,7.42291761 C99,9.75584697 98.1815517,11.7354074 96.6943658,13.0781225 C94.7603026,14.8102379 91.896861,15.5881704 88.5495653,15.5881704 C87.8059724,15.5881704 87.1363329,15.552573 86.6155022,15.4818124 L86.6155022,24 L81,24 L81,0.495324229 Z" id="Fill-32"></path>
                    <path d="M119.715265,23.9569343 C118.719125,24.4605747 116.477487,25 113.559819,25 C105.269726,25 101,19.7842299 101,12.8777303 C101,4.60433307 106.835335,0 114.093912,0 C116.904157,0 119.039668,0.575652082 120,1.07929243 L118.8973,5.43180533 C117.794169,4.96439174 116.263936,4.53232134 114.34284,4.53232134 C110.037306,4.53232134 106.692537,7.15876157 106.692537,12.5538984 C106.692537,17.4104934 109.539452,20.4676787 114.378216,20.4676787 C116.015009,20.4676787 117.829545,20.1080618 118.8973,19.6764332 L119.715265,23.9569343 Z" id="Fill-33"></path>
                    <polygon id="Fill-34" points="130 25 124 25 124 1 130 1"></polygon>
                </g>
            </g>
        </g>
    </g>
</svg>