<svg xmlns="http://www.w3.org/2000/svg" xmlns:xlink="http://www.w3.org/1999/xlink" width="29.66" height="28.01" viewBox="0 0 29.66 28.01"><defs><clipPath id="f77f8a39-1a30-4771-95f9-dd2b95597088"><path d="M16,12.62Zm3.8-2a4.22,4.22,0,0,0-3.8,2V10.85H11.8C11.85,12,11.8,23,11.8,23H16V16.22a2.59,2.59,0,0,1,.14-1,2.29,2.29,0,0,1,2.17-1.48c1.52,0,2.13,1.11,2.13,2.74V23h4.22V16c0-3.73-2.08-5.46-4.85-5.46Z" style="fill:none"/></clipPath><clipPath id="9cee2632-26bc-4690-a05b-283c6257988c"><rect x="5.25" y="10.86" width="4.22" height="12.15" style="fill:none"/></clipPath><clipPath id="dafc965f-3792-43f6-85e7-43f70848bb19"><path d="M7.38,5A2.16,2.16,0,0,0,5,6.93Q5,7,5,7.1A2.14,2.14,0,0,0,7.17,9.21h.16a2.16,2.16,0,0,0,2.4-1.89q0-.1,0-.21A2.15,2.15,0,0,0,7.55,5H7.38" style="fill:none"/></clipPath></defs><title>ic-in</title><g id="56c035a4-7425-44eb-8bb4-7158cea6f3f8" data-name="Слой 2"><g id="18bf7121-8d48-4b06-ace6-794d088f6b04" data-name="Слой 1"><g style="clip-path:url(#f77f8a39-1a30-4771-95f9-dd2b95597088)"><rect x="6.8" y="5.57" width="22.86" height="22.43" style="fill:#d7d7d7"/></g><g style="clip-path:url(#9cee2632-26bc-4690-a05b-283c6257988c)"><rect x="0.25" y="5.86" width="14.22" height="22.15" style="fill:#d7d7d7"/></g><g style="clip-path:url(#dafc965f-3792-43f6-85e7-43f70848bb19)"><rect width="14.74" height="14.2" style="fill:#d7d7d7"/></g></g></g></svg>