<svg xmlns="http://www.w3.org/2000/svg" xmlns:xlink="http://www.w3.org/1999/xlink" width="29.66" height="26.25" viewBox="0 0 29.66 26.25"><defs><clipPath id="f2eb8100-7525-4efe-883a-23aab53ccf32"><path d="M22.65,9v.53c0,5.42-4.06,11.67-11.48,11.67A11.25,11.25,0,0,1,5,19.41a7.78,7.78,0,0,0,1,.06,8,8,0,0,0,5-1.76,4,4,0,0,1-3.77-2.85,3.88,3.88,0,0,0,.76.07,3.94,3.94,0,0,0,1-.14,4.09,4.09,0,0,1-3.24-4,.31.31,0,0,1,0-.05,3.93,3.93,0,0,0,1.83.51,4.15,4.15,0,0,1-1.22-5.5A11.39,11.39,0,0,0,14.68,10a4.2,4.2,0,0,1-.1-.94,4.07,4.07,0,0,1,4-4.1,4,4,0,0,1,2.94,1.29,7.89,7.89,0,0,0,2.57-1,4.11,4.11,0,0,1-1.78,2.27,7.88,7.88,0,0,0,2.32-.64,8.31,8.31,0,0,1-2,2.12" style="fill:none"/></clipPath></defs><title>ic-twit</title><g id="44fbb8a3-2aaf-44d0-b56e-868394160fde" data-name="Слой 2"><g id="5fd85cbd-112f-4642-87f8-4b6250f30219" data-name="Слой 1"><g style="clip-path:url(#f2eb8100-7525-4efe-883a-23aab53ccf32)"><rect width="29.66" height="26.25" style="fill:#d7d7d7"/></g></g></g></svg>