<svg xmlns="http://www.w3.org/2000/svg" xmlns:xlink="http://www.w3.org/1999/xlink" width="152" height="152" viewBox="0 0 152 152"><defs><clipPath id="bb452ba3-504e-4e96-9f3e-da24ed4b7b55"><rect x="5" y="5" width="142" height="142" style="fill:none"/></clipPath><clipPath id="94e1105a-392e-4892-b8b4-13733fa5992d"><path d="M129.64,82.39a17.42,17.42,0,0,0-15.7,15.7H93a18.62,18.62,0,0,0,1.1-6.31,18.07,18.07,0,1,0-36.13,0A18.62,18.62,0,0,0,59,98.09h-21a17.42,17.42,0,0,0-15.7-15.7V45.94a17.42,17.42,0,0,0,15.7-15.7h75.89a17.42,17.42,0,0,0,15.7,15.7ZM85.31,131.22V115.29a1.58,1.58,0,1,0-3.16,0v13.09l-3-2.68a5.62,5.62,0,0,0-1.74-1v-9.39a1.58,1.58,0,1,0-3.16,0v9.47a6.92,6.92,0,0,0-1.42.87l-3.39,3.08V115.29a1.58,1.58,0,1,0-3.16,0v16.25l-4.5,4V102.9A18.14,18.14,0,0,0,76,109.84a17.91,17.91,0,0,0,14.2-6.94v32.66ZM76,106.69A14.91,14.91,0,1,1,90.91,91.78,14.95,14.95,0,0,1,76,106.69Zm55.22-63.82A14.24,14.24,0,0,1,117,28.67a1.58,1.58,0,0,0-1.58-1.58H36.56A1.58,1.58,0,0,0,35,28.67a14.24,14.24,0,0,1-14.2,14.2,1.58,1.58,0,0,0-1.58,1.58V83.89a1.58,1.58,0,0,0,1.58,1.58A14.24,14.24,0,0,1,35,99.67a1.58,1.58,0,0,0,1.58,1.58H58.64v34.32a3.37,3.37,0,0,0,.79,2.13,3.13,3.13,0,0,0,4.42.24l11-9.94A1.58,1.58,0,0,1,77,128l5.44,4.89a1.06,1.06,0,0,0,.55.47l5.13,4.58a3,3,0,0,0,2.13.79,3.16,3.16,0,0,0,3.16-3.16V101.24h22.09a1.58,1.58,0,0,0,1.58-1.58,14.24,14.24,0,0,1,14.2-14.2,1.58,1.58,0,0,0,1.58-1.58V44.44A1.71,1.71,0,0,0,131.22,42.87Z" style="fill:none;clip-rule:evenodd"/></clipPath><clipPath id="7faa4ef9-5fb5-461f-82b3-5dbc7229c490"><path d="M46,38.13h60V50.76H46ZM44.44,53.91h63.11a1.58,1.58,0,0,0,1.58-1.58V36.56A1.58,1.58,0,0,0,107.56,35H44.44a1.58,1.58,0,0,0-1.58,1.58V52.33A1.58,1.58,0,0,0,44.44,53.91Z" style="fill:none;clip-rule:evenodd"/></clipPath><clipPath id="aeb0e484-d110-4595-98fe-62f60f1c0e23"><path d="M27.09,60.22a1.58,1.58,0,0,0,1.58,1.58h94.67a1.58,1.58,0,0,0,0-3.16H28.67A1.58,1.58,0,0,0,27.09,60.22Z" style="fill:none;clip-rule:evenodd"/></clipPath><clipPath id="29ec063c-1dc6-45bb-9ec3-846f8c43af15"><path d="M52.33,74.42H36.56a1.58,1.58,0,0,0,0,3.16H52.33a1.58,1.58,0,0,0,0-3.16Z" style="fill:none;clip-rule:evenodd"/></clipPath><clipPath id="38fe9097-8a87-47c1-84ee-ffba0bb38555"><path d="M115.44,74.42H99.67a1.58,1.58,0,0,0,0,3.16h15.78a1.58,1.58,0,0,0,0-3.16Z" style="fill:none;clip-rule:evenodd"/></clipPath><clipPath id="2e5eb931-daa6-49c5-bb6a-a710c73e5d3c"><path d="M46.42,69.69a1.58,1.58,0,0,0,0-3.16h-2a1.58,1.58,0,0,0,0,3.16Z" style="fill:none;clip-rule:evenodd"/></clipPath><clipPath id="741ba5f8-81ae-4cf4-a6e4-aab3c5d092c2"><path d="M107.56,69.69a1.58,1.58,0,0,0,0-3.16h-2a1.58,1.58,0,0,0,0,3.16Z" style="fill:none;clip-rule:evenodd"/></clipPath><clipPath id="46b103a4-8d0b-4e29-8028-52853d700c07"><path d="M71.74,66.53H67.48a1.58,1.58,0,0,0,0,3.16h4.26a1.58,1.58,0,0,0,1.58-1.58A1.53,1.53,0,0,0,71.74,66.53Z" style="fill:none;clip-rule:evenodd"/></clipPath><clipPath id="70774c5f-53ad-48ef-aadb-347b084c0b0d"><path d="M98.72,68.11a1.58,1.58,0,0,0-1.58-1.58H92.88a1.58,1.58,0,0,0,0,3.16h4.26A1.58,1.58,0,0,0,98.72,68.11Z" style="fill:none;clip-rule:evenodd"/></clipPath><clipPath id="2d279a9c-c124-4d38-ac73-60aca25ada55"><path d="M59.12,66.53H54.86a1.58,1.58,0,0,0,0,3.16H59a1.58,1.58,0,0,0,1.58-1.58A1.52,1.52,0,0,0,59.12,66.53Z" style="fill:none;clip-rule:evenodd"/></clipPath><clipPath id="f5ba67cd-0288-4878-b0ef-b00c311d9aba"><path d="M84.44,66.53H80.18a1.58,1.58,0,0,0,0,3.16h4.18a1.58,1.58,0,0,0,1.58-1.58A1.52,1.52,0,0,0,84.44,66.53Z" style="fill:none;clip-rule:evenodd"/></clipPath><clipPath id="b8e6f7ec-6a19-41d1-b8f0-822a0a41727a"><path d="M20.78,38.13a1.58,1.58,0,0,0,1.58-1.58V30.24h6.31a1.58,1.58,0,1,0,0-3.16H20.78a1.58,1.58,0,0,0-1.58,1.58v7.89A1.58,1.58,0,0,0,20.78,38.13Z" style="fill:none;clip-rule:evenodd"/></clipPath><clipPath id="1a6517de-8bb7-41ae-9507-5cfa17dd725d"><path d="M28.67,98.09H22.36V91.78a1.58,1.58,0,0,0-3.16,0v7.89a1.58,1.58,0,0,0,1.58,1.58h7.89a1.58,1.58,0,1,0,0-3.16Z" style="fill:none;clip-rule:evenodd"/></clipPath><clipPath id="ad76c08a-df89-4bde-bf43-94ca4b717ac5"><path d="M131.22,27.09h-7.89a1.58,1.58,0,1,0,0,3.16h6.31v6.31a1.58,1.58,0,0,0,3.16,0V28.67A1.58,1.58,0,0,0,131.22,27.09Z" style="fill:none;clip-rule:evenodd"/></clipPath><clipPath id="92932e5d-c9a6-47a7-bf3c-e1140e75f9d2"><path d="M131.22,90.2a1.58,1.58,0,0,0-1.58,1.58v6.31h-6.31a1.58,1.58,0,1,0,0,3.16h7.89a1.58,1.58,0,0,0,1.58-1.58V91.78A1.58,1.58,0,0,0,131.22,90.2Z" style="fill:none;clip-rule:evenodd"/></clipPath><clipPath id="f5b9afd8-6acb-4243-bcf5-ca5e59a924dd"><path d="M70.56,88.62A1.6,1.6,0,0,0,70,86.49a1.53,1.53,0,0,0-2.13.55,9.87,9.87,0,0,0-1.26,4.73v.08a1.58,1.58,0,0,0,3.16,0v-.08A5.54,5.54,0,0,1,70.56,88.62Z" style="fill:none;clip-rule:evenodd"/></clipPath><clipPath id="386b078e-ce64-4548-a1a2-b01958a3c60e"><path d="M83.89,90.2a1.58,1.58,0,0,0-1.58,1.58,6.32,6.32,0,0,1-.87,3.16,1.56,1.56,0,1,0,2.68,1.58,9.87,9.87,0,0,0,1.26-4.73A1.47,1.47,0,0,0,83.89,90.2Z" style="fill:none;clip-rule:evenodd"/></clipPath><clipPath id="023126db-4a72-4e7a-837c-bf4fb94b1be4"><path d="M80.73,83.57A9.87,9.87,0,0,0,76,82.31h-.08a1.58,1.58,0,0,0,0,3.16,6.33,6.33,0,0,1,3.16.87,1.5,1.5,0,0,0,2.13-.55A1.49,1.49,0,0,0,80.73,83.57Z" style="fill:none;clip-rule:evenodd"/></clipPath><clipPath id="350ee874-b141-4943-8390-fa56f57fdf5c"><path d="M76,98.09h0a6.33,6.33,0,0,1-3.16-.87,1.6,1.6,0,0,0-2.13.55,1.62,1.62,0,0,0,.55,2.13A9.87,9.87,0,0,0,76,101.17h.08a1.52,1.52,0,0,0,1.5-1.58A1.57,1.57,0,0,0,76,98.09Z" style="fill:none;clip-rule:evenodd"/></clipPath><clipPath id="c0ed7d9f-e5ef-43e6-8da5-5842a2f8f315"><path d="M52.33,22.28h2a1.58,1.58,0,0,0,0-3.16h-2a1.58,1.58,0,0,0,0,3.16Z" style="fill:none;clip-rule:evenodd"/></clipPath><clipPath id="b287c435-93a1-4118-a2b7-76c487cc3141"><path d="M85.15,22.28H89a1.58,1.58,0,0,0,0-3.16H85.15a1.58,1.58,0,0,0,0,3.16Z" style="fill:none;clip-rule:evenodd"/></clipPath><clipPath id="c983edce-4fad-4ad6-8d81-50c037b03579"><path d="M62,22.28h3.87a1.58,1.58,0,0,0,0-3.16H62a1.58,1.58,0,0,0,0,3.16Z" style="fill:none;clip-rule:evenodd"/></clipPath><clipPath id="5663f3da-f4bf-4dd2-8b73-d6af35166863"><path d="M73.55,22.28h3.87a1.58,1.58,0,0,0,0-3.16H73.55a1.58,1.58,0,0,0,0,3.16Z" style="fill:none;clip-rule:evenodd"/></clipPath><clipPath id="995db7bc-416e-4672-8eba-efea4155d9b8"><path d="M96.67,22.28h2a1.58,1.58,0,0,0,0-3.16h-2a1.58,1.58,0,0,0,0,3.16Z" style="fill:none;clip-rule:evenodd"/></clipPath></defs><title>j-prop-1</title><g id="cc30f70d-63be-4c4d-8a44-6ef2f1d459b3" data-name="Слой 2"><g id="62fc4389-99ca-4f9b-9178-e4abe0b7d8e5" data-name="Слой 1"><g style="clip-path:url(#bb452ba3-504e-4e96-9f3e-da24ed4b7b55)"><rect width="152" height="152" style="fill:#fff"/></g><g style="clip-path:url(#94e1105a-392e-4892-b8b4-13733fa5992d)"><rect x="14.2" y="22.09" width="123.68" height="121.64" style="fill:#e06727"/></g><g style="clip-path:url(#7faa4ef9-5fb5-461f-82b3-5dbc7229c490)"><rect x="37.87" y="29.98" width="76.27" height="28.93" style="fill:#e06727"/></g><g style="clip-path:url(#aeb0e484-d110-4595-98fe-62f60f1c0e23)"><rect x="22.09" y="53.64" width="107.82" height="13.16" style="fill:#e06727"/></g><g style="clip-path:url(#29ec063c-1dc6-45bb-9ec3-846f8c43af15)"><rect x="29.98" y="69.42" width="28.93" height="13.16" style="fill:#e06727"/></g><g style="clip-path:url(#38fe9097-8a87-47c1-84ee-ffba0bb38555)"><rect x="93.09" y="69.42" width="28.93" height="13.16" style="fill:#e06727"/></g><g style="clip-path:url(#2e5eb931-daa6-49c5-bb6a-a710c73e5d3c)"><rect x="37.87" y="61.53" width="15.13" height="13.16" style="fill:#e06727"/></g><g style="clip-path:url(#741ba5f8-81ae-4cf4-a6e4-aab3c5d092c2)"><rect x="99.01" y="61.53" width="15.13" height="13.16" style="fill:#e06727"/></g><g style="clip-path:url(#46b103a4-8d0b-4e29-8028-52853d700c07)"><rect x="60.9" y="61.53" width="17.42" height="13.16" style="fill:#e06727"/></g><g style="clip-path:url(#70774c5f-53ad-48ef-aadb-347b084c0b0d)"><rect x="86.3" y="61.53" width="17.42" height="13.16" style="fill:#e06727"/></g><g style="clip-path:url(#2d279a9c-c124-4d38-ac73-60aca25ada55)"><rect x="48.28" y="61.53" width="17.34" height="13.16" style="fill:#e06727"/></g><g style="clip-path:url(#f5ba67cd-0288-4878-b0ef-b00c311d9aba)"><rect x="73.6" y="61.53" width="17.34" height="13.16" style="fill:#e06727"/></g><g style="clip-path:url(#b8e6f7ec-6a19-41d1-b8f0-822a0a41727a)"><rect x="14.2" y="22.09" width="21.04" height="21.04" style="fill:#e06727"/></g><g style="clip-path:url(#1a6517de-8bb7-41ae-9507-5cfa17dd725d)"><rect x="14.2" y="85.2" width="21.04" height="21.04" style="fill:#e06727"/></g><g style="clip-path:url(#ad76c08a-df89-4bde-bf43-94ca4b717ac5)"><rect x="116.76" y="22.09" width="21.04" height="21.04" style="fill:#e06727"/></g><g style="clip-path:url(#92932e5d-c9a6-47a7-bf3c-e1140e75f9d2)"><rect x="116.76" y="85.2" width="21.04" height="21.04" style="fill:#e06727"/></g><g style="clip-path:url(#f5b9afd8-6acb-4243-bcf5-ca5e59a924dd)"><rect x="61.61" y="81.27" width="14.13" height="17.17" style="fill:#e06727"/></g><g style="clip-path:url(#386b078e-ce64-4548-a1a2-b01958a3c60e)"><rect x="76.22" y="85.2" width="14.18" height="17.1" style="fill:#e06727"/></g><g style="clip-path:url(#023126db-4a72-4e7a-837c-bf4fb94b1be4)"><rect x="69.34" y="77.31" width="17.16" height="14.26" style="fill:#e06727"/></g><g style="clip-path:url(#350ee874-b141-4943-8390-fa56f57fdf5c)"><rect x="65.52" y="92.03" width="17.05" height="14.14" style="fill:#e06727"/></g><g style="clip-path:url(#c0ed7d9f-e5ef-43e6-8da5-5842a2f8f315)"><rect x="45.76" y="14.12" width="15.13" height="13.16" style="fill:#e06727"/></g><g style="clip-path:url(#b287c435-93a1-4118-a2b7-76c487cc3141)"><rect x="78.57" y="14.12" width="17.02" height="13.16" style="fill:#e06727"/></g><g style="clip-path:url(#c983edce-4fad-4ad6-8d81-50c037b03579)"><rect x="55.38" y="14.12" width="17.02" height="13.16" style="fill:#e06727"/></g><g style="clip-path:url(#5663f3da-f4bf-4dd2-8b73-d6af35166863)"><rect x="66.98" y="14.12" width="17.02" height="13.16" style="fill:#e06727"/></g><g style="clip-path:url(#995db7bc-416e-4672-8eba-efea4155d9b8)"><rect x="90.09" y="14.12" width="15.13" height="13.16" style="fill:#e06727"/></g></g></g></svg>