<svg xmlns="http://www.w3.org/2000/svg" xmlns:xlink="http://www.w3.org/1999/xlink" width="152" height="152" viewBox="0 0 152 152"><defs><clipPath id="aee04a4f-8828-485b-9087-57502d22d85c"><rect x="5" y="5" width="142" height="142" style="fill:none"/></clipPath><clipPath id="aa564bef-f2d0-4fb2-bd60-1d796c7317fa"><path d="M76.32,22.43l33.61,14.36L76.32,51.15,42.79,36.79Zm20,34.87-11.2,5.6a9,9,0,0,0-17.36,0l-11.2-5.6V46.1l19.25,8.28a1.34,1.34,0,0,0,1.26,0L96.27,46.1ZM87.68,71H83.89a1.58,1.58,0,0,0-1.58,1.58v3.79l-2.76-2.76a9,9,0,0,0,5.29-5.44ZM76.24,71a5.76,5.76,0,0,1-5.76-5.84A5.84,5.84,0,1,1,76.32,71Zm-5.92,5.36V72.61A1.58,1.58,0,0,0,68.74,71H65l2.84-2.84a9,9,0,0,0,5.29,5.44Zm43.63-21.93a1.1,1.1,0,1,1-1.1,1.1A1.08,1.08,0,0,1,113.95,54.46ZM38.13,38.21l15.15,6.47V58.25a1.49,1.49,0,0,0,.87,1.42L66,65.59,60.06,71.5a1.58,1.58,0,0,0,1.1,2.68h6v6a1.56,1.56,0,0,0,.95,1.42,1.48,1.48,0,0,0,.63.16,1.56,1.56,0,0,0,1.1-.47l6.47-6.47,6.47,6.47a1.56,1.56,0,0,0,1.1.47,1,1,0,0,0,.63-.16,1.56,1.56,0,0,0,.95-1.42v-6h6a1.56,1.56,0,0,0,1.42-.95,1.75,1.75,0,0,0-.32-1.74l-5.92-5.92,11.83-5.92a1.49,1.49,0,0,0,.87-1.42V44.76l12.94-5.52V51.7a4.26,4.26,0,1,0,3.16,0V36.79a.59.59,0,0,0-.08-.39v-.08c-.08-.16-.08-.24-.16-.32s-.16-.24-.24-.31l-.08-.08c-.08-.08-.24-.16-.32-.24L76.95,19.2a1.74,1.74,0,0,0-1.26,0L38.13,35.37a1.54,1.54,0,0,0,0,2.84Z" style="fill:none;clip-rule:evenodd"/></clipPath><clipPath id="38a6537b-ed80-4acb-b710-f105d6815fae"><path d="M116.23,118.52H69.37v-4.34a5.84,5.84,0,1,0-11.68,0v4H34a5.42,5.42,0,0,1-5.36-5l6.94-19.8H57.7v6.71a5.82,5.82,0,0,0,5.84,5.84,5.33,5.33,0,0,0,2.76-.71,5.86,5.86,0,0,0,5.76,5,5.79,5.79,0,0,0,5.76-5,5.33,5.33,0,0,0,2.76.71A5.67,5.67,0,0,0,84.84,104a6.11,6.11,0,0,0,4.26,1.89,5.82,5.82,0,0,0,5.84-5.84V93.36H117.1a5.43,5.43,0,0,1,5.36,5.13Zm-55.38-27a2.68,2.68,0,0,1,5.36,0v8.52a2.68,2.68,0,0,1-5.36,0Zm8.52,8.52V91.54a2.68,2.68,0,0,1,5.36,0v12.78a2.68,2.68,0,0,1-5.36,0ZM78,91.62h0a2.68,2.68,0,1,1,5.36-.08v8.52a2.68,2.68,0,0,1-5.36,0V91.62Zm8.52,0h0a2.68,2.68,0,1,1,5.36-.08v8.52a2.68,2.68,0,0,1-5.36,0V91.62Zm30.69-1.42H94.85a5.83,5.83,0,0,0-5.68-4.5,5.66,5.66,0,0,0-4.26,1.89,6.1,6.1,0,0,0-4.26-1.89,5.66,5.66,0,0,0-4.26,1.89,6.1,6.1,0,0,0-4.26-1.89,5.79,5.79,0,0,0-4.26,1.89,6.1,6.1,0,0,0-4.26-1.89,5.84,5.84,0,0,0-5.68,4.58H34.43a1.54,1.54,0,0,0-1.5,1l-7.34,21.14a1.17,1.17,0,0,0-.08.55A8.54,8.54,0,0,0,34,121.52H57.78v3a5.77,5.77,0,0,0,4.26,5.6v7.18a1.58,1.58,0,0,0,3.16,0v-8.52a1.58,1.58,0,0,0-1.58-1.58,2.66,2.66,0,0,1-2.68-2.68V114.34a2.68,2.68,0,0,1,5.36,0v8.52a1.58,1.58,0,1,0,3.16,0v-1H96.12v2.68a2.66,2.66,0,0,1-2.68,2.68,1.58,1.58,0,0,0-1.58,1.58v8.52a1.58,1.58,0,0,0,3.16,0v-7.18a5.84,5.84,0,0,0,4.26-5.6v-2.68h18.14a1.54,1.54,0,0,0,1.5-1.1l6.63-21.38a1,1,0,0,0,.08-.47A8.5,8.5,0,0,0,117.18,90.2Z" style="fill:none;clip-rule:evenodd"/></clipPath><clipPath id="36db6f1a-e03e-46ec-aed9-07158423ce26"><path d="M45.86,64.48A1.5,1.5,0,0,0,48,63.93c.63-1.1,1.34-2.13,2.05-3.16a1.58,1.58,0,0,0-2.52-1.89c-.79,1.1-1.58,2.29-2.29,3.47A1.55,1.55,0,0,0,45.86,64.48Z" style="fill:none;clip-rule:evenodd"/></clipPath><clipPath id="1108a66d-98ff-4d0f-8603-ecf63201b8cc"><path d="M45.08,70.79a1.57,1.57,0,1,0-3-.95,37.06,37.06,0,0,0-.95,4,1.54,1.54,0,0,0,1.26,1.81h.32a1.6,1.6,0,0,0,1.58-1.34A16.13,16.13,0,0,1,45.08,70.79Z" style="fill:none;clip-rule:evenodd"/></clipPath><clipPath id="e19af29f-2a4d-4a01-a2ed-b08645e22555"><path d="M42.08,80.5a1.64,1.64,0,0,0-1.5,1.66,36.34,36.34,0,0,0,.47,4.1,1.61,1.61,0,0,0,1.58,1.34h.24a1.54,1.54,0,0,0,1.26-1.81,31.21,31.21,0,0,1-.39-3.71A1.59,1.59,0,0,0,42.08,80.5Z" style="fill:none;clip-rule:evenodd"/></clipPath><clipPath id="8f8bfe7a-a374-4a71-91fe-e0c9b20cbada"><path d="M110,86.49h.24a1.6,1.6,0,0,0,1.58-1.34,35.9,35.9,0,0,0,.32-4.1A1.58,1.58,0,0,0,109,81a30.64,30.64,0,0,1-.32,3.79A1.55,1.55,0,0,0,110,86.49Z" style="fill:none;clip-rule:evenodd"/></clipPath><clipPath id="df7eac07-ddb1-4a31-8c5b-5aa07d6d870a"><path d="M110.16,74.74a1.51,1.51,0,0,0,1.18-1.89,32.31,32.31,0,0,0-1.1-3.94,1.63,1.63,0,0,0-2-1,1.67,1.67,0,0,0-1,2,30.67,30.67,0,0,1,.95,3.63,1.61,1.61,0,0,0,1.58,1.26Z" style="fill:none;clip-rule:evenodd"/></clipPath><clipPath id="4d11ed64-d98e-40e9-b818-456e01b22ee3"><path d="M102.19,57.78A1.53,1.53,0,0,0,102,60a26.78,26.78,0,0,1,2.13,3.08,1.55,1.55,0,0,0,1.34.71,1.81,1.81,0,0,0,.87-.24,1.62,1.62,0,0,0,.47-2.21,32.69,32.69,0,0,0-2.37-3.39A1.67,1.67,0,0,0,102.19,57.78Z" style="fill:none;clip-rule:evenodd"/></clipPath></defs><title>j-prop-2</title><g id="c3c00770-0d57-475d-9899-3baa7bc97819" data-name="Слой 2"><g id="fc46779f-84e6-4a6a-82c3-cd188d36019c" data-name="Слой 1"><g style="clip-path:url(#aee04a4f-8828-485b-9087-57502d22d85c)"><rect width="152" height="152" style="fill:#fff"/></g><g style="clip-path:url(#aa564bef-f2d0-4fb2-bd60-1d796c7317fa)"><rect x="32.19" y="14.08" width="90.94" height="72.68" style="fill:#e06727"/></g><g style="clip-path:url(#38a6537b-ed80-4acb-b710-f105d6815fae)"><rect x="20.51" y="80.7" width="110.11" height="63.17" style="fill:#e06727"/></g><g style="clip-path:url(#36db6f1a-e03e-46ec-aed9-07158423ce26)"><rect x="40.05" y="53.23" width="15.33" height="16.49" style="fill:#e06727"/></g><g style="clip-path:url(#1108a66d-98ff-4d0f-8603-ecf63201b8cc)"><rect x="36.1" y="63.76" width="14.03" height="16.92" style="fill:#e06727"/></g><g style="clip-path:url(#e19af29f-2a4d-4a01-a2ed-b08645e22555)"><rect x="35.58" y="75.49" width="13.58" height="17.11" style="fill:#e06727"/></g><g style="clip-path:url(#8f8bfe7a-a374-4a71-91fe-e0c9b20cbada)"><rect x="103.65" y="74.47" width="13.48" height="17.02" style="fill:#e06727"/></g><g style="clip-path:url(#df7eac07-ddb1-4a31-8c5b-5aa07d6d870a)"><rect x="102.18" y="62.81" width="14.22" height="16.92" style="fill:#e06727"/></g><g style="clip-path:url(#4d11ed64-d98e-40e9-b818-456e01b22ee3)"><rect x="96.59" y="52.43" width="15.42" height="16.34" style="fill:#e06727"/></g></g></g></svg>