<svg xmlns="http://www.w3.org/2000/svg" xmlns:xlink="http://www.w3.org/1999/xlink" width="152" height="152" viewBox="0 0 152 152"><defs><clipPath id="973efbca-8f55-475c-817d-45b300fdfabe"><rect x="5" y="5" width="142" height="142" style="fill:none"/></clipPath><clipPath id="b37207a4-cc75-4b70-86d5-d634c8d68d11"><path d="M93.28,106h0a6.43,6.43,0,0,0,6-4.1,43.83,43.83,0,0,1,5.13-9.23,33.7,33.7,0,0,0,6.31-22.17A35,35,0,0,0,77.26,38.13H74.58a33.62,33.62,0,0,0-25,12.23,35.81,35.81,0,0,0-8.12,27.69,31.43,31.43,0,0,0,5.92,14.2,41.73,41.73,0,0,1,5.36,9.47A6.55,6.55,0,0,0,58.64,106Zm0,3.15H58.64a9.45,9.45,0,0,1-8.84-6.23,40.31,40.31,0,0,0-5-8.76,34.58,34.58,0,0,1-6.47-15.62,38.71,38.71,0,0,1,8.84-30.21A37.23,37.23,0,0,1,74.58,35h2.76a38.1,38.1,0,0,1,36.53,35.26A36.94,36.94,0,0,1,107,94.46a39.68,39.68,0,0,0-4.73,8.6A9.79,9.79,0,0,1,93.28,109.13Z" style="fill:none;clip-rule:evenodd"/></clipPath><clipPath id="25e70924-ed67-42b4-bc2c-801578c74693"><path d="M91.78,117H60.22a1.58,1.58,0,1,1,0-3.15H91.78a1.58,1.58,0,1,1,0,3.15Z" style="fill:none;clip-rule:evenodd"/></clipPath><clipPath id="973a8a6f-88c6-42be-b404-951b0cc926e2"><path d="M91.78,124.91H60.22a1.58,1.58,0,1,1,0-3.16H91.78a1.58,1.58,0,1,1,0,3.16Z" style="fill:none;clip-rule:evenodd"/></clipPath><clipPath id="5a8e9b67-5540-455f-ae47-c89d52e024e1"><path d="M83.89,132.8H68.11a1.58,1.58,0,1,1,0-3.16H83.89a1.58,1.58,0,1,1,0,3.16Z" style="fill:none;clip-rule:evenodd"/></clipPath><clipPath id="47bff734-2225-413e-80b1-fe3436043126"><path d="M76,30.24a1.58,1.58,0,0,1-1.58-1.58V12.89a1.58,1.58,0,1,1,3.16,0V28.67A1.58,1.58,0,0,1,76,30.24Z" style="fill:none;clip-rule:evenodd"/></clipPath><clipPath id="6c636263-64d7-4e77-8f44-9de75676a698"><path d="M139.11,77.58H123.33a1.58,1.58,0,0,1,0-3.16h15.78a1.58,1.58,0,0,1,0,3.16Z" style="fill:none;clip-rule:evenodd"/></clipPath><clipPath id="ebaa6a8a-3d17-4bdb-94e5-dc5df022a4dc"><path d="M28.67,77.58H12.89a1.58,1.58,0,0,1,0-3.16H28.67a1.58,1.58,0,0,1,0,3.16Z" style="fill:none;clip-rule:evenodd"/></clipPath><clipPath id="174b7e42-d173-4c7e-9f87-ee61d6dacf70"><path d="M41,41.76a1.56,1.56,0,0,1-1.1-.47l-5.68-5.68A1.56,1.56,0,0,1,36.4,33.4L42,39a1.53,1.53,0,0,1,0,2.21A1.15,1.15,0,0,1,41,41.76Z" style="fill:none;clip-rule:evenodd"/></clipPath><clipPath id="1f89f0b4-ebdb-4785-bff5-b9030c5baf1a"><path d="M111,42.55a1.56,1.56,0,0,1-1.1-.47,1.53,1.53,0,0,1,0-2.21l5.6-5.6a1.56,1.56,0,1,1,2.21,2.21l-5.6,5.6A1.43,1.43,0,0,1,111,42.55Z" style="fill:none;clip-rule:evenodd"/></clipPath><clipPath id="a58633bc-9cf2-4a2b-8b2b-2b0d5c1f8c31"><path d="M76,95.72a24.27,24.27,0,0,1-7.42-1.18,24.52,24.52,0,0,1-15.7-15.7,1.57,1.57,0,0,1,3-.95,21.08,21.08,0,0,0,40.15,0,1.57,1.57,0,0,1,3,.95A24.21,24.21,0,0,1,76,95.72Z" style="fill:none;clip-rule:evenodd"/></clipPath><clipPath id="595f2481-1431-41d5-ab80-ed14f7719486"><path d="M66.85,52.41h-.4a8.6,8.6,0,0,0-2.05.24,4.4,4.4,0,0,0-1.34.71,3.32,3.32,0,0,0-.71,1.1,5,5,0,0,0-.24,1.5v2.92a2.06,2.06,0,0,1-.4,1.34,1.31,1.31,0,0,1-1.26.47V63a1.5,1.5,0,0,1,1.26.47,2.65,2.65,0,0,1,.4,1.34v2.92a5,5,0,0,0,.24,1.5,3.33,3.33,0,0,0,.71,1.1A4.38,4.38,0,0,0,64.4,71a9.07,9.07,0,0,0,2.05.24h.4V69h-.47a1.3,1.3,0,0,1-1.18-.4,2.23,2.23,0,0,1-.32-1.18V64.8a6.57,6.57,0,0,0-.24-1.74,2.32,2.32,0,0,0-1.1-1.18,2.68,2.68,0,0,0,1.1-1.18A3.22,3.22,0,0,0,64.88,59v-2.6a2.06,2.06,0,0,1,.32-1.18,1.31,1.31,0,0,1,1.18-.39h.47Z" style="fill:none;clip-rule:evenodd"/></clipPath><clipPath id="7a8fffa2-2767-4d66-a1af-20334294af3c"><polygon points="80.73 52.41 77.81 52.41 71.27 71.35 74.26 71.35 80.73 52.41" style="fill:none;clip-rule:evenodd"/></clipPath><clipPath id="d7a87091-0430-4051-9124-4b4f26b77f93"><path d="M85.55,52.41h-.4v2.37h.47a1.31,1.31,0,0,1,1.18.39,2.23,2.23,0,0,1,.32,1.18V59a6.57,6.57,0,0,0,.24,1.74,2.32,2.32,0,0,0,1.1,1.18,2.68,2.68,0,0,0-1.1,1.18,3.22,3.22,0,0,0-.24,1.74v2.6a2.06,2.06,0,0,1-.32,1.18,1.3,1.3,0,0,1-1.18.4h-.47v2.29h.4A8.58,8.58,0,0,0,87.6,71a4.38,4.38,0,0,0,1.34-.71,3.33,3.33,0,0,0,.71-1.1,4.59,4.59,0,0,0,.24-1.5v-3a2.06,2.06,0,0,1,.4-1.34,1.31,1.31,0,0,1,1.26-.47V60.62a1.51,1.51,0,0,1-1.26-.47,2.06,2.06,0,0,1-.4-1.34v-3a4.94,4.94,0,0,0-.24-1.5,3.32,3.32,0,0,0-.71-1.1,4.41,4.41,0,0,0-1.34-.71C86.89,52.49,86.26,52.41,85.55,52.41Z" style="fill:none;clip-rule:evenodd"/></clipPath></defs><title>j-prop-3</title><g id="f827419a-5261-465b-8bfd-3e08dafa1b55" data-name="Слой 2"><g id="a965e141-dcbd-4d84-874a-2efafc856f4d" data-name="Слой 1"><g style="clip-path:url(#973efbca-8f55-475c-817d-45b300fdfabe)"><rect width="152" height="152" style="fill:#fff"/></g><g style="clip-path:url(#b37207a4-cc75-4b70-86d5-d634c8d68d11)"><rect x="33.01" y="29.98" width="85.95" height="84.15" style="fill:#e06727"/></g><g style="clip-path:url(#25e70924-ed67-42b4-bc2c-801578c74693)"><rect x="53.64" y="108.87" width="44.71" height="13.15" style="fill:#e06727"/></g><g style="clip-path:url(#973a8a6f-88c6-42be-b404-951b0cc926e2)"><rect x="53.64" y="116.76" width="44.71" height="13.16" style="fill:#e06727"/></g><g style="clip-path:url(#5a8e9b67-5540-455f-ae47-c89d52e024e1)"><rect x="61.53" y="124.64" width="28.93" height="13.16" style="fill:#e06727"/></g><g style="clip-path:url(#47bff734-2225-413e-80b1-fe3436043126)"><rect x="69.42" y="6.31" width="13.16" height="28.93" style="fill:#e06727"/></g><g style="clip-path:url(#6c636263-64d7-4e77-8f44-9de75676a698)"><rect x="116.76" y="69.42" width="28.93" height="13.16" style="fill:#e06727"/></g><g style="clip-path:url(#ebaa6a8a-3d17-4bdb-94e5-dc5df022a4dc)"><rect x="6.31" y="69.42" width="28.93" height="13.16" style="fill:#e06727"/></g><g style="clip-path:url(#174b7e42-d173-4c7e-9f87-ee61d6dacf70)"><rect x="28.72" y="27.93" width="18.76" height="18.84" style="fill:#e06727"/></g><g style="clip-path:url(#1f89f0b4-ebdb-4785-bff5-b9030c5baf1a)"><rect x="104.45" y="28.79" width="18.76" height="18.76" style="fill:#e06727"/></g><g style="clip-path:url(#a58633bc-9cf2-4a2b-8b2b-2b0d5c1f8c31)"><rect x="47.82" y="71.8" width="56.29" height="28.92" style="fill:#e06727"/></g><g style="clip-path:url(#595f2481-1431-41d5-ab80-ed14f7719486)"><rect x="55.46" y="47.41" width="16.39" height="28.85" style="fill:#e06727"/></g><g style="clip-path:url(#7a8fffa2-2767-4d66-a1af-20334294af3c)"><rect x="66.27" y="47.41" width="19.47" height="28.93" style="fill:#e06727"/></g><g style="clip-path:url(#d7a87091-0430-4051-9124-4b4f26b77f93)"><rect x="80.15" y="47.41" width="16.39" height="28.85" style="fill:#e06727"/></g></g></g></svg>