<svg xmlns="http://www.w3.org/2000/svg" xmlns:xlink="http://www.w3.org/1999/xlink" width="276.5" height="552" viewBox="0 0 276.5 552"><defs><clipPath id="ce329952-782a-45cd-bc74-1b2372ee8e15"><rect x="15.5" y="491" width="260" height="60" style="fill:none"/></clipPath><clipPath id="b85b1f51-b2a0-4dad-9b74-f36a7859e58b"><rect x="15.5" y="421" width="260" height="60" style="fill:none"/></clipPath><clipPath id="fb9aff92-2790-48f1-9972-621f1e2e20eb"><rect x="15.5" y="351" width="260" height="60" style="fill:none"/></clipPath><clipPath id="0288e76d-f1da-4c93-acd1-fc8431de26f1"><rect x="15.5" y="281" width="260" height="60" style="fill:none"/></clipPath><clipPath id="c3e70a34-40ed-4461-9c21-e09a83dbdda6"><rect x="15.5" y="211" width="260" height="60" style="fill:none"/></clipPath><clipPath id="729bcd76-47d2-4723-94d2-1f6756a71bfc"><rect x="15.5" y="141" width="260" height="60" style="fill:none"/></clipPath><clipPath id="61c5b435-a52b-4ba7-80be-d0cb4af89319"><rect x="15.5" y="71" width="260" height="60" style="fill:none"/></clipPath><clipPath id="bdea3db2-81b8-4d20-9faf-1957709d9baf"><rect x="15.5" y="1" width="260" height="60" style="fill:none"/></clipPath><clipPath id="82560252-6a3b-4362-a242-ee3a6259f76f"><circle cx="141.5" cy="276" r="3" style="fill:none"/></clipPath><clipPath id="78fd384b-8ce8-40ef-9705-f0aa6d26548e"><circle cx="141.5" cy="206" r="3" style="fill:none"/></clipPath><clipPath id="e3d5abaa-a530-40b1-bde5-414cde3b7900"><circle cx="141.5" cy="136" r="3" style="fill:none"/></clipPath><clipPath id="71bbe883-a370-479b-b146-4fc2729bdf42"><circle cx="141.5" cy="346" r="3" style="fill:none"/></clipPath><clipPath id="7674b62f-d503-4f5b-8ee1-ecf1f1ab16e8"><circle cx="141.5" cy="416" r="3" style="fill:none"/></clipPath><clipPath id="bed1310d-eb98-4279-b2db-5479eabe6982"><circle cx="141.5" cy="486" r="3" style="fill:none"/></clipPath><clipPath id="fd085898-e836-4078-89bf-95c54ee826be"><rect x="121.5" y="251" width="40" height="20" style="fill:none"/></clipPath><clipPath id="0a848b23-7c2d-4bf9-9c8a-c6844f40d461"><rect x="121.5" y="181" width="40" height="20" style="fill:none"/></clipPath><clipPath id="6f7a49e5-a41b-4b00-9a56-3a745fc459cd"><rect x="121.5" y="111" width="40" height="20" style="fill:none"/></clipPath><clipPath id="6486ef08-6adb-48e8-adcc-c6d91c2a80ec"><rect x="121.5" y="281" width="40" height="20" style="fill:none"/></clipPath><clipPath id="2dbf06af-01d7-4025-a5c3-5265ec3ee114"><rect x="121.5" y="211" width="40" height="20" style="fill:none"/></clipPath><clipPath id="40332920-83c9-4085-b0af-4661f31a948c"><rect x="121.5" y="141" width="40" height="20" style="fill:none"/></clipPath><clipPath id="f7135071-11f9-4e79-b7bd-199e16993076"><rect x="121.5" y="321" width="40" height="20" style="fill:none"/></clipPath><clipPath id="40d1830d-82cb-4f19-a6f8-c694b143d851"><rect x="121.5" y="351" width="40" height="20" style="fill:none"/></clipPath><clipPath id="20e8859d-37e2-4841-80af-b24cfa2727c3"><rect x="121.5" y="391" width="40" height="20" style="fill:none"/></clipPath><clipPath id="e3bf8588-0e57-476a-98ea-3c2c8c045218"><rect x="121.5" y="421" width="40" height="20" style="fill:none"/></clipPath><clipPath id="f192b3ab-7ceb-4747-9b00-d395d73d8d2b"><rect x="121.5" y="461" width="40" height="20" style="fill:none"/></clipPath><clipPath id="13dbac7d-6e77-401a-9e60-99284c2cf089"><rect x="121.5" y="491" width="40" height="20" style="fill:none"/></clipPath><clipPath id="d75ec4ff-9dd2-49cb-a786-ed14f785350a"><rect x="15.5" y="221" width="20" height="40" style="fill:none"/></clipPath><clipPath id="8fcc1570-ca51-419d-a5f9-ed9e594c2e87"><rect x="15.5" y="11" width="20" height="40" style="fill:none"/></clipPath><clipPath id="fbfa7ff7-4237-4c1c-a3a7-5a41669c3e00"><circle cx="15.5" cy="241" r="3" style="fill:none"/></clipPath><clipPath id="4a37d058-a028-4af9-825c-b247057638f7"><circle cx="15.5" cy="31" r="3" style="fill:none"/></clipPath></defs><title>java-mob-1</title><g id="4a648075-47fd-42a1-982b-e6b35df7dcaf" data-name="Слой 2"><g id="04006e19-0714-441f-9d6d-789ad64d7572" data-name="Слой 1"><g style="clip-path:url(#ce329952-782a-45cd-bc74-1b2372ee8e15)"><rect x="15.5" y="491" width="260" height="60" style="fill:none;stroke:#d9d9d9;stroke-miterlimit:10;stroke-width:2px"/></g><text transform="translate(85.87 526)" style="font-size:14px;fill:#818181;font-family:Montserrat-Light, Montserrat">Database Storage</text><g style="clip-path:url(#b85b1f51-b2a0-4dad-9b74-f36a7859e58b)"><rect x="15.5" y="421" width="260" height="60" style="fill:none;stroke:#d9d9d9;stroke-miterlimit:10;stroke-width:2px"/></g><text transform="translate(87.54 456)" style="font-size:14px;fill:#818181;font-family:Montserrat-Light, Montserrat">Persistence Logic</text><text transform="translate(75.72 386)" style="font-size:14px;fill:#818181;font-family:Montserrat-Light, Montserrat">Data Transformation</text><g style="clip-path:url(#fb9aff92-2790-48f1-9972-621f1e2e20eb)"><rect x="15.5" y="351" width="260" height="60" style="fill:none;stroke:#d9d9d9;stroke-miterlimit:10;stroke-width:2px"/></g><g style="clip-path:url(#0288e76d-f1da-4c93-acd1-fc8431de26f1)"><rect x="15.5" y="281" width="260" height="60" style="fill:none;stroke:#d9d9d9;stroke-miterlimit:10;stroke-width:2px"/></g><text transform="translate(87.52 316)" style="font-size:14px;fill:#818181;font-family:Montserrat-Light, Montserrat">Data Distribution</text><g style="clip-path:url(#c3e70a34-40ed-4461-9c21-e09a83dbdda6)"><rect x="15.5" y="211" width="260" height="60" style="fill:none;stroke:#d9d9d9;stroke-miterlimit:10;stroke-width:2px"/></g><text transform="translate(66.65 246)" style="font-size:14px;fill:#818181;font-family:Montserrat-Light, Montserrat">Service / Business Logic</text><g style="clip-path:url(#729bcd76-47d2-4723-94d2-1f6756a71bfc)"><rect x="15.5" y="141" width="260" height="60" style="fill:none;stroke:#d9d9d9;stroke-miterlimit:10;stroke-width:2px"/></g><text transform="translate(112.34 176)" style="font-size:14px;fill:#818181;font-family:Montserrat-Light, Montserrat">Client API</text><g style="clip-path:url(#61c5b435-a52b-4ba7-80be-d0cb4af89319)"><rect x="15.5" y="71" width="260" height="60" style="fill:none;stroke:#d9d9d9;stroke-miterlimit:10;stroke-width:2px"/></g><text transform="translate(84.48 106)" style="font-size:14px;fill:#818181;font-family:Montserrat-Light, Montserrat">Client Application</text><g style="clip-path:url(#bdea3db2-81b8-4d20-9faf-1957709d9baf)"><rect x="15.5" y="1" width="260" height="60" style="fill:none;stroke:#d9d9d9;stroke-miterlimit:10;stroke-width:2px"/></g><text transform="translate(61.61 36)" style="font-size:14px;fill:#818181;font-family:Montserrat-Light, Montserrat">Third-Party Systems APIs</text><g style="clip-path:url(#82560252-6a3b-4362-a242-ee3a6259f76f)"><rect x="133.5" y="268" width="16" height="16" style="fill:#e06727"/></g><g style="clip-path:url(#78fd384b-8ce8-40ef-9705-f0aa6d26548e)"><rect x="133.5" y="198" width="16" height="16" style="fill:#e06727"/></g><g style="clip-path:url(#e3d5abaa-a530-40b1-bde5-414cde3b7900)"><rect x="133.5" y="128" width="16" height="16" style="fill:#e06727"/></g><g style="clip-path:url(#71bbe883-a370-479b-b146-4fc2729bdf42)"><rect x="133.5" y="338" width="16" height="16" style="fill:#e06727"/></g><g style="clip-path:url(#7674b62f-d503-4f5b-8ee1-ecf1f1ab16e8)"><rect x="133.5" y="408" width="16" height="16" style="fill:#e06727"/></g><g style="clip-path:url(#bed1310d-eb98-4279-b2db-5479eabe6982)"><rect x="133.5" y="478" width="16" height="16" style="fill:#e06727"/></g><g style="clip-path:url(#fd085898-e836-4078-89bf-95c54ee826be)"><rect x="116.5" y="246" width="50" height="30" style="fill:#fff"/></g><g style="clip-path:url(#0a848b23-7c2d-4bf9-9c8a-c6844f40d461)"><rect x="116.5" y="176" width="50" height="30" style="fill:#fff"/></g><g style="clip-path:url(#6f7a49e5-a41b-4b00-9a56-3a745fc459cd)"><rect x="116.5" y="106" width="50" height="30" style="fill:#fff"/></g><g style="clip-path:url(#6486ef08-6adb-48e8-adcc-c6d91c2a80ec)"><rect x="116.5" y="276" width="50" height="30" style="fill:#fff"/></g><g style="clip-path:url(#2dbf06af-01d7-4025-a5c3-5265ec3ee114)"><rect x="116.5" y="206" width="50" height="30" style="fill:#fff"/></g><g style="clip-path:url(#40332920-83c9-4085-b0af-4661f31a948c)"><rect x="116.5" y="136" width="50" height="30" style="fill:#fff"/></g><g style="clip-path:url(#f7135071-11f9-4e79-b7bd-199e16993076)"><rect x="116.5" y="316" width="50" height="30" style="fill:#fff"/></g><g style="clip-path:url(#40d1830d-82cb-4f19-a6f8-c694b143d851)"><rect x="116.5" y="346" width="50" height="30" style="fill:#fff"/></g><g style="clip-path:url(#20e8859d-37e2-4841-80af-b24cfa2727c3)"><rect x="116.5" y="386" width="50" height="30" style="fill:#fff"/></g><g style="clip-path:url(#e3bf8588-0e57-476a-98ea-3c2c8c045218)"><rect x="116.5" y="416" width="50" height="30" style="fill:#fff"/></g><g style="clip-path:url(#f192b3ab-7ceb-4747-9b00-d395d73d8d2b)"><rect x="116.5" y="456" width="50" height="30" style="fill:#fff"/></g><g style="clip-path:url(#13dbac7d-6e77-401a-9e60-99284c2cf089)"><rect x="116.5" y="486" width="50" height="30" style="fill:#fff"/></g><g style="clip-path:url(#d75ec4ff-9dd2-49cb-a786-ed14f785350a)"><rect x="10.5" y="216" width="30" height="50" style="fill:#fff"/></g><g style="clip-path:url(#8fcc1570-ca51-419d-a5f9-ed9e594c2e87)"><rect x="10.5" y="6" width="30" height="50" style="fill:#fff"/></g><g style="clip-path:url(#fbfa7ff7-4237-4c1c-a3a7-5a41669c3e00)"><rect x="7.5" y="233" width="16" height="16" style="fill:#e06727"/></g><polyline points="15.49 31 0.5 31 0.5 241 15.5 241" style="fill:none;stroke:#e06727;stroke-miterlimit:10"/><g style="clip-path:url(#4a37d058-a028-4af9-825c-b247057638f7)"><rect x="7.5" y="23" width="16" height="16" style="fill:#e06727"/></g></g></g></svg>