<svg xmlns="http://www.w3.org/2000/svg" width="582" height="743.32" viewBox="0 0 582 743.32"><title>jb-mid</title><g id="efcb0ca4-e354-4039-b122-f34bd81674dc" data-name="Слой 2"><g id="92c59a0d-1060-444f-ba55-07a422a2cb28" data-name="Слой 1"><g id="cde6a38a-20f3-437d-b35d-507cf1b65d7a" data-name="JAVA-ENGINEERING" style="opacity:0.8500000238418579"><g id="0a07fc35-d53a-440e-ba7b-4ef1771d0e16" data-name="Java-Engineering"><g id="a23a8fa8-cf8b-48d5-b0a1-cb66236dc742" data-name="Schemes"><g id="796f3ca1-f988-481e-b7cc-dccea6134c08" data-name="Reenginiring-&amp;-Microservices"><g id="bba2e858-d1d0-4acb-a4f7-4cc43d2fd92f" data-name="Links"><g id="17bb760c-448a-467d-b100-a15e4849f98e" data-name="03"><path id="67e3ba22-ffbb-4cc5-a438-93ee45c259e4" data-name="Fill-2" d="M576.49,574.05a.6.6,0,1,0,0-1.2H450.56a.6.6,0,1,0,0,1.2Z" style="fill:#dadada"/><path id="b2ae9fac-8e73-4fb0-bb65-aa84f10c5a4d" data-name="Fill-215" d="M576.61,573.51h.6a1.8,1.8,0,1,1,1.8,1.8,1.8,1.8,0,0,1-1.8-1.8H576a3,3,0,1,0,3-3,3,3,0,0,0-3,3h.6" style="fill:#dadada"/></g><g id="68ed0020-57ee-418e-96c9-f00f3114cdc7" data-name="02"><path id="85a88616-a83c-49c0-8d13-0f6a329d771f" data-name="Fill-2" d="M5.51,369.95a.6.6,0,1,0,0,1.2H131.44a.6.6,0,1,0,0-1.2Z" style="fill:#ff671b"/><path id="6a411b6c-526e-43f2-becd-ca30fbadec71" data-name="Fill-215" d="M5.39,370.5h-.6A1.8,1.8,0,1,1,3,368.7a1.8,1.8,0,0,1,1.8,1.8H6a3,3,0,1,0-3,3,3,3,0,0,0,3-3h-.6" style="fill:#ff671b"/></g><g id="a3af3978-613b-4995-a986-1ed40a5e0092" data-name="01"><path id="433f3b6e-f952-4151-8a2b-6634c8017866" data-name="Fill-2" d="M576.49,168.05a.6.6,0,1,0,0-1.2H450.56a.6.6,0,1,0,0,1.2Z" style="fill:#dadada"/><path id="e77657cc-c644-4e89-920c-fc025dd0baee" data-name="Fill-215" d="M576.61,167.51h.6a1.8,1.8,0,1,1,1.8,1.8,1.8,1.8,0,0,1-1.8-1.8H576a3,3,0,1,0,3-3,3,3,0,0,0-3,3h.6" style="fill:#dadada"/></g></g></g></g></g></g><g id="0c481fb9-bf0c-4fe2-93ba-95aad6b9e145" data-name="JAVA-ENGINEERING"><g id="5b236ace-98fc-4255-ba5a-fa66c9ea3c05" data-name="Java-Engineering"><g id="954cca3a-088a-492b-9c5d-960bb550b3cd" data-name="Schemes"><g id="58ea920a-4e95-4590-8def-78a7c22341cf" data-name="Reenginiring-&amp;-Microservices"><g id="82691293-6416-4cdc-aafc-ebc57a2ccc8f" data-name="Scheme"><g id="39d60367-03c7-41d0-a9d5-4feca04f89ec" data-name="Hover Mid"><g id="ea0d01cd-aac2-4ae4-9bd8-b5fc58a92dbe" data-name="Static Bottom" style="opacity:0.6000000238418579"><path id="e636c886-2d34-4a3d-9e92-0ec82167ca28" data-name="Fill-1" d="M167.08,646.73V672.2a.66.66,0,1,0,1.31,0V646.73a.66.66,0,1,0-1.31,0" style="fill:#0a0b09"/><path id="367d9e30-91d7-4a92-ac88-b307fa5391d4" data-name="Fill-2" d="M189.14,645.07v3.27a.66.66,0,1,0,1.31,0v-3.27a.66.66,0,1,0-1.31,0" style="fill:#0a0b09"/><path id="1d916fd7-c534-42ca-a653-789147a53e96" data-name="Fill-3" d="M145,634v25.48a.66.66,0,0,0,1.31,0V634a.66.66,0,1,0-1.31,0" style="fill:#0a0b09"/><path id="7b90e294-db0a-47a7-9fbc-017d63be2693" data-name="Fill-4" d="M145.34,634.56l22.06,12.74a.66.66,0,0,0,.65-1.14L146,633.42a.66.66,0,1,0-.65,1.14" style="fill:#0a0b09"/><path id="da2e38b3-c6f6-4b09-a2d1-31cbda7a2c53" data-name="Fill-5" d="M177.25,627.5l2.83,1.63a.66.66,0,0,0,.65-1.14l-2.83-1.63a.66.66,0,0,0-.65,1.14" style="fill:#0a0b09"/><path id="ba94f885-05c1-4bd5-9285-556509e7717d" data-name="Fill-6" d="M145.34,660l22.06,12.74a.66.66,0,0,0,.65-1.14L146,658.9a.66.66,0,0,0-.65,1.14" style="fill:#0a0b09"/><path id="63acc81d-8247-4f68-b4b5-36e719ef0282" data-name="Fill-7" d="M168.06,647.3,180.73,640a.66.66,0,1,0-.66-1.14l-12.67,7.32a.66.66,0,0,0,.66,1.14" style="fill:#0a0b09"/><path id="22755bd6-9871-4d08-b413-be74ac37ebf8" data-name="Fill-8" d="M146,634.56l12.2-7a.66.66,0,0,0-.66-1.14l-12.2,7a.66.66,0,1,0,.66,1.14" style="fill:#0a0b09"/><path id="0ae0895d-bb24-4f9e-8cd1-12e87ad35618" data-name="Fill-9" d="M168.06,672.77l12.67-7.31a.66.66,0,1,0-.66-1.14l-12.67,7.31a.66.66,0,0,0,.66,1.14" style="fill:#0a0b09"/><path id="76d29e4b-d168-4849-9f4a-88298cb31fd1" data-name="Fill-10" d="M167.08,607.14v25.48a.66.66,0,1,0,1.31,0V607.14a.66.66,0,1,0-1.31,0" style="fill:#0a0b09"/><path id="a741b1ea-648c-4f4b-8c03-3310872bb288" data-name="Fill-11" d="M189.14,594.4v14.35a.66.66,0,1,0,1.31,0V594.4a.66.66,0,1,0-1.31,0" style="fill:#0a0b09"/><path id="3a62f357-e888-4b66-825a-39ecae21c17f" data-name="Fill-12" d="M145,594.4v25.48a.66.66,0,0,0,1.31,0V594.4a.66.66,0,1,0-1.31,0" style="fill:#0a0b09"/><path id="3df4024a-096b-4720-8135-8ebf94f1acdf" data-name="Fill-13" d="M145.34,595l22.06,12.74a.66.66,0,0,0,.65-1.14L146,593.83a.66.66,0,1,0-.65,1.14" style="fill:#0a0b09"/><path id="a1353035-56f2-4fea-a47e-0340ff3d6a7a" data-name="Fill-14" d="M167.51,582.17l22,12.68a.66.66,0,1,0,.66-1.14l-22-12.68a.66.66,0,0,0-.66,1.14" style="fill:#0a0b09"/><path id="cbbc43db-eda4-4313-a2e1-8d0a586bdbcc" data-name="Fill-15" d="M145.34,620.44l22.06,12.74a.66.66,0,0,0,.65-1.14L146,619.31a.66.66,0,1,0-.65,1.14" style="fill:#0a0b09"/><path id="53fea846-3684-4a89-9a3d-62d8e96229d0" data-name="Fill-16" d="M168.06,607.71,190.13,595a.66.66,0,0,0-.66-1.14l-22.06,12.74a.66.66,0,0,0,.65,1.14" style="fill:#0a0b09"/><path id="f4f8920c-35f9-4738-b197-e3eb3543853c" data-name="Fill-17" d="M146,595l22.17-12.8a.66.66,0,0,0-.66-1.14l-22.17,12.8A.66.66,0,1,0,146,595" style="fill:#0a0b09"/><path id="d0bf8dd8-376b-4157-a329-a1be5bf2c6e8" data-name="Fill-18" d="M168.06,633.18l12.67-7.32a.66.66,0,0,0-.66-1.14L167.41,632a.66.66,0,0,0,.66,1.14" style="fill:#0a0b09"/><path id="bb7f7983-bc34-4035-92e0-cd9f202c8f32" data-name="Fill-19" d="M201.81,666.49V692a.66.66,0,1,0,1.31,0V666.49a.66.66,0,1,0-1.31,0" style="fill:#0a0b09"/><path id="539e44fa-6381-4fe4-b63b-bf3a828c5867" data-name="Fill-20" d="M223.88,653.76v25.48a.66.66,0,0,0,1.31,0V653.76a.66.66,0,1,0-1.31,0" style="fill:#0a0b09"/><path id="ebfa4d7a-1b8d-499b-ac62-35cc6202e525" data-name="Fill-21" d="M179.75,653.76v25.48a.66.66,0,0,0,1.31,0V653.76a.66.66,0,1,0-1.31,0" style="fill:#0a0b09"/><path id="01b77b35-afea-4b84-8b8e-f005cd3ac9c2" data-name="Fill-22" d="M180.08,654.32l22.06,12.74a.66.66,0,0,0,.66-1.14l-22.06-12.74a.65.65,0,1,0-.65,1.13" style="fill:#0a0b09"/><path id="2b2f43c3-e503-4997-be8f-39b235953f9d" data-name="Fill-23" d="M212,647.27l12.23,7.06a.66.66,0,0,0,.66-1.14l-12.23-7.06a.66.66,0,0,0-.66,1.14" style="fill:#0a0b09"/><path id="ad40b763-28d8-43a7-8f08-790310cefca9" data-name="Fill-24" d="M180.08,679.8l22.06,12.74a.66.66,0,0,0,.66-1.14l-22.06-12.74a.66.66,0,0,0-.65,1.14" style="fill:#0a0b09"/><path id="4662cae2-ce43-4010-9f30-0fac77ee8bab" data-name="Fill-25" d="M202.8,667.06l22.06-12.74a.66.66,0,1,0-.66-1.13l-22.06,12.74a.66.66,0,0,0,.66,1.14" style="fill:#0a0b09"/><path id="46925b68-27c1-44c0-908a-ff87672e06c4" data-name="Fill-26" d="M180.73,654.32,193,647.27a.66.66,0,0,0-.66-1.14l-12.22,7.06a.66.66,0,0,0,.65,1.14" style="fill:#0a0b09"/><path id="41b85aa2-c894-48f5-824d-2e9ed77e4ab4" data-name="Fill-27" d="M202.8,692.54l22.06-12.74a.66.66,0,0,0-.66-1.14L202.14,691.4a.66.66,0,0,0,.66,1.14" style="fill:#0a0b09"/><path id="e073ec88-843c-45c2-b925-e282f37572d5" data-name="Fill-28" d="M201.81,626.91v25.48a.66.66,0,1,0,1.31,0V626.91a.66.66,0,1,0-1.31,0" style="fill:#0a0b09"/><path id="6c317d8f-d32e-43b2-8bc7-fe3727af1f6d" data-name="Fill-29" d="M223.88,614.17v25.48a.66.66,0,0,0,1.31,0V614.17a.66.66,0,1,0-1.31,0" style="fill:#0a0b09"/><path id="00412117-e636-467d-b291-54542e5fa166" data-name="Fill-30" d="M179.75,614.17v25.48a.66.66,0,0,0,1.31,0V614.17a.66.66,0,1,0-1.31,0" style="fill:#0a0b09"/><path id="6a864127-db34-44eb-9103-f95f9af13832" data-name="Fill-31" d="M180.08,614.74l22.06,12.74a.66.66,0,0,0,.66-1.14L180.73,613.6a.66.66,0,0,0-.65,1.14" style="fill:#0a0b09"/><path id="8121e4c8-e138-4c76-a4c3-ed4f77015ab9" data-name="Fill-32" d="M202.14,602l22.06,12.74a.66.66,0,0,0,.66-1.14L202.8,600.86a.66.66,0,0,0-.66,1.14" style="fill:#0a0b09"/><path id="5ff81d5b-bf5f-4370-bdb9-ef18676b8711" data-name="Fill-33" d="M180.08,640.21,202.14,653a.66.66,0,0,0,.66-1.14l-22.06-12.74a.66.66,0,0,0-.65,1.14" style="fill:#0a0b09"/><path id="3724f8af-e821-4ae4-9879-4169d2391d5a" data-name="Fill-34" d="M202.8,627.47l22.06-12.74a.66.66,0,1,0-.66-1.14l-22.06,12.74a.66.66,0,0,0,.66,1.14" style="fill:#0a0b09"/><path id="54361497-9d7b-4343-a4a3-faf6ad334d70" data-name="Fill-35" d="M180.73,614.74,202.8,602a.66.66,0,1,0-.66-1.14L180.08,613.6a.66.66,0,0,0,.65,1.14" style="fill:#0a0b09"/><path id="f7f8747d-de99-47bc-be24-5fc7526cee23" data-name="Fill-36" d="M202.8,653l22.06-12.74a.66.66,0,0,0-.66-1.14l-22.06,12.74a.66.66,0,0,0,.66,1.14" style="fill:#0a0b09"/><path id="97e25f7e-6958-4726-a7d8-73fb2bded586" data-name="Fill-37" d="M413.22,646.73V672.2a.66.66,0,1,0,1.31,0V646.73a.66.66,0,1,0-1.31,0" style="fill:#0a0b09"/><path id="88743eac-13dd-48ed-a3f9-d3360e64acc3" data-name="Fill-38" d="M435.28,634v25.48a.66.66,0,0,0,1.31,0V634a.66.66,0,1,0-1.31,0" style="fill:#0a0b09"/><path id="41b2ec7c-3c6b-46d7-942c-236d6e73c65f" data-name="Fill-39" d="M391.16,645.07v3.27a.66.66,0,1,0,1.31,0v-3.27a.66.66,0,1,0-1.31,0" style="fill:#0a0b09"/><path id="e2116455-0ecd-4124-b8f2-4627ea4a60dc" data-name="Fill-40" d="M400.87,640l12.67,7.32a.66.66,0,0,0,.66-1.14l-12.67-7.32a.66.66,0,1,0-.66,1.14" style="fill:#0a0b09"/><path id="4c999e28-3e29-4c7c-a99c-27b8b0847d0e" data-name="Fill-41" d="M423.39,627.5l12.22,7.06a.66.66,0,0,0,.66-1.14L424,626.36a.66.66,0,1,0-.66,1.14" style="fill:#0a0b09"/><path id="1e5da9e4-4e0e-4861-96de-3b229365a816" data-name="Fill-42" d="M400.87,665.45l12.67,7.32a.66.66,0,0,0,.66-1.14l-12.67-7.32a.66.66,0,1,0-.66,1.14" style="fill:#0a0b09"/><path id="5d5c8075-0d8f-4c6a-8dbe-61d1b28a1335" data-name="Fill-43" d="M414.2,647.3l22.06-12.74a.66.66,0,0,0-.65-1.14l-22.06,12.74a.66.66,0,1,0,.66,1.14" style="fill:#0a0b09"/><path id="fd681646-ebbd-4316-b1da-c0470500fb2d" data-name="Fill-44" d="M401.53,629.13l2.83-1.63a.66.66,0,0,0-.66-1.14L400.88,628a.66.66,0,0,0,.66,1.14" style="fill:#0a0b09"/><path id="57650389-469a-4398-9be8-a3a1b9fe396d" data-name="Fill-45" d="M414.2,672.77,436.27,660a.66.66,0,0,0-.65-1.14l-22.06,12.74a.66.66,0,1,0,.66,1.14" style="fill:#0a0b09"/><path id="9f40e047-97ea-4820-a389-bb8312e165df" data-name="Fill-46" d="M413.22,607.14v25.48a.66.66,0,1,0,1.31,0V607.14a.66.66,0,1,0-1.31,0" style="fill:#0a0b09"/><path id="58ca8008-2815-4880-a9a3-e9d5ed581761" data-name="Fill-47" d="M435.28,594.4v25.48a.66.66,0,0,0,1.31,0V594.4a.66.66,0,1,0-1.31,0" style="fill:#0a0b09"/><path id="37aa99b9-4566-411a-9782-1d20896e1f27" data-name="Fill-48" d="M391.16,594.4v14.35a.66.66,0,1,0,1.31,0V594.4a.66.66,0,1,0-1.31,0" style="fill:#0a0b09"/><path id="a249f33d-843c-4077-9694-ad4de10f3e2f" data-name="Fill-49" d="M391.48,595l22.06,12.74a.66.66,0,0,0,.66-1.14l-22.06-12.74a.66.66,0,1,0-.66,1.14" style="fill:#0a0b09"/><path id="116861af-bc94-41e2-98b3-08d8984364ca" data-name="Fill-50" d="M413.44,582.17,435.61,595a.66.66,0,0,0,.66-1.14L414.1,581a.66.66,0,1,0-.66,1.14" style="fill:#0a0b09"/><path id="5fb0cd45-2f6a-4dbe-89bb-c124750e69c3" data-name="Fill-51" d="M400.88,625.87l12.67,7.32a.66.66,0,0,0,.66-1.14l-12.67-7.32a.66.66,0,1,0-.66,1.14" style="fill:#0a0b09"/><path id="74a37120-1e7a-43d8-9dea-11447a8f83a8" data-name="Fill-52" d="M414.2,607.71,436.27,595a.66.66,0,0,0-.65-1.14l-22.06,12.74a.66.66,0,1,0,.66,1.14" style="fill:#0a0b09"/><path id="43d11c86-face-48f7-bf8c-2b91e1a2506e" data-name="Fill-53" d="M392.14,594.85l22-12.68a.66.66,0,0,0-.66-1.14l-22,12.68a.66.66,0,1,0,.66,1.14" style="fill:#0a0b09"/><path id="5cf34251-a33d-4ca8-9e4a-57443d032938" data-name="Fill-54" d="M414.2,633.18l22.06-12.74a.66.66,0,0,0-.65-1.14L413.55,632a.66.66,0,1,0,.66,1.14" style="fill:#0a0b09"/><path id="ddb3e9f5-bfe1-46f4-8aee-2c93c5b2d231" data-name="Fill-55" d="M378.48,666.49V692a.66.66,0,1,0,1.31,0V666.49a.66.66,0,1,0-1.31,0" style="fill:#0a0b09"/><path id="5b422f79-27e4-4acd-b954-cf0a8241d3d6" data-name="Fill-56" d="M400.55,653.76v25.48a.66.66,0,0,0,1.31,0V653.76a.66.66,0,1,0-1.31,0" style="fill:#0a0b09"/><path id="9ca5aa12-3d20-4e1e-9a35-56f35abbbb50" data-name="Fill-57" d="M356.42,653.76v25.48a.66.66,0,0,0,1.31,0V653.76a.66.66,0,1,0-1.31,0" style="fill:#0a0b09"/><path id="44b47a12-7efc-46fa-9c0c-dfce1603a4b6" data-name="Fill-58" d="M356.75,654.32l22.06,12.74a.66.66,0,1,0,.66-1.14L357.4,653.19a.65.65,0,0,0-.65,1.13" style="fill:#0a0b09"/><path id="d7e1e1b6-d3a1-4c45-a5ca-aab4a0d63971" data-name="Fill-59" d="M388.65,647.27l12.23,7.06a.66.66,0,0,0,.66-1.14l-12.23-7.06a.66.66,0,0,0-.66,1.14" style="fill:#0a0b09"/><path id="7f49d6b3-e2f6-4269-946d-c92b6e737feb" data-name="Fill-60" d="M356.75,679.8l22.06,12.74a.66.66,0,1,0,.66-1.14L357.4,678.67a.66.66,0,0,0-.65,1.14" style="fill:#0a0b09"/><path id="e4047614-5b66-49e8-b8a3-0e7433ccd8bb" data-name="Fill-61" d="M379.47,667.06l22.06-12.74a.66.66,0,1,0-.66-1.13l-22.06,12.74a.66.66,0,0,0,.66,1.14" style="fill:#0a0b09"/><path id="d6eb2108-2247-4504-abcf-3af8098c4e90" data-name="Fill-62" d="M357.4,654.32l12.22-7.06a.66.66,0,0,0-.66-1.14l-12.22,7.06a.66.66,0,0,0,.65,1.14" style="fill:#0a0b09"/><path id="db137bb1-82d7-4dd8-b9eb-a3abd86b8b55" data-name="Fill-63" d="M379.47,692.54l22.06-12.74a.66.66,0,0,0-.66-1.14L378.81,691.4a.66.66,0,0,0,.66,1.14" style="fill:#0a0b09"/><path id="a2246c11-12cb-4892-9e0d-442a9d86ef00" data-name="Fill-64" d="M378.48,626.91v25.48a.66.66,0,1,0,1.31,0V626.91a.66.66,0,1,0-1.31,0" style="fill:#0a0b09"/><path id="85240f96-2843-4e3f-831d-d107774f4b88" data-name="Fill-65" d="M400.55,614.17v25.48a.66.66,0,0,0,1.31,0V614.17a.66.66,0,0,0-1.31,0" style="fill:#0a0b09"/><path id="6c4ed9cc-be3d-4a69-bf53-9eee1e06e920" data-name="Fill-66" d="M356.42,614.17v25.48a.66.66,0,0,0,1.31,0V614.17a.66.66,0,1,0-1.31,0" style="fill:#0a0b09"/><path id="94c8d443-9f29-42b6-8a78-8f5885e87585" data-name="Fill-67" d="M356.75,614.74l22.06,12.74a.66.66,0,1,0,.66-1.14L357.4,613.6a.66.66,0,0,0-.65,1.14" style="fill:#0a0b09"/><path id="41a1448a-3746-4157-950e-6cdb07ee71dc" data-name="Fill-68" d="M378.81,602l22.06,12.74a.66.66,0,0,0,.66-1.14l-22.06-12.74a.66.66,0,1,0-.66,1.14" style="fill:#0a0b09"/><path id="b62cb6f3-2a76-4d46-af61-cfbef9876b26" data-name="Fill-69" d="M356.75,640.21,378.81,653a.66.66,0,1,0,.66-1.14L357.4,639.08a.66.66,0,0,0-.65,1.14" style="fill:#0a0b09"/><path id="7502302d-5e5b-4e49-954f-63dfcc12821f" data-name="Fill-70" d="M379.47,627.47l22.06-12.74a.66.66,0,0,0-.66-1.14l-22.06,12.74a.66.66,0,0,0,.66,1.14" style="fill:#0a0b09"/><path id="22445958-e21d-408f-850b-e1ed829d7b90" data-name="Fill-71" d="M357.4,614.74,379.47,602a.66.66,0,1,0-.66-1.14L356.75,613.6a.66.66,0,0,0,.65,1.14" style="fill:#0a0b09"/><path id="c7cfead0-1db5-40b5-b565-af3a4ce7c4a1" data-name="Fill-72" d="M379.47,653l22.06-12.74a.66.66,0,0,0-.66-1.14l-22.06,12.74a.66.66,0,0,0,.66,1.14" style="fill:#0a0b09"/><path id="ab393fec-2ee5-4a98-9a54-327ff4f98870" data-name="Fill-73" d="M167.5,545.76v25.48a.66.66,0,1,0,1.31,0V545.76a.66.66,0,1,0-1.31,0" style="fill:#0a0b09"/><path id="a69e8c83-b6ee-4ef4-b908-c3d6ad316f9b" data-name="Fill-74" d="M189.57,544.1v3.27a.66.66,0,1,0,1.31,0V544.1a.66.66,0,0,0-1.31,0" style="fill:#0a0b09"/><path id="07a7cc1b-323a-4570-8672-3ecb856a0837" data-name="Fill-75" d="M145.44,533V558.5a.66.66,0,1,0,1.31,0V533a.66.66,0,1,0-1.31,0" style="fill:#0a0b09"/><path id="efef8a04-e045-46cc-b5db-afc47b08a1e9" data-name="Fill-76" d="M145.76,533.59l22.07,12.74a.66.66,0,0,0,.66-1.14l-22.07-12.74a.66.66,0,0,0-.66,1.14" style="fill:#0a0b09"/><path id="f56873e8-8a5a-495c-a65a-c75c9b2919f9" data-name="Fill-77" d="M177.68,526.53l2.83,1.63a.66.66,0,0,0,.66-1.14l-2.83-1.63a.66.66,0,0,0-.66,1.14" style="fill:#0a0b09"/><path id="b56df45b-483c-458f-a46a-fe6efb1a7679" data-name="Fill-78" d="M145.76,559.07l22.07,12.74a.66.66,0,1,0,.66-1.14l-22.07-12.74a.66.66,0,0,0-.66,1.14" style="fill:#0a0b09"/><path id="23174231-ecf6-48aa-af95-6135cd70dd21" data-name="Fill-79" d="M168.49,546.33,181.16,539a.66.66,0,0,0-.66-1.14l-12.67,7.32a.66.66,0,0,0,.66,1.14" style="fill:#0a0b09"/><path id="fd3d3ffc-1137-4f40-8900-df25c385338d" data-name="Fill-80" d="M146.42,533.59l12.2-7a.66.66,0,0,0-.66-1.14l-12.2,7a.66.66,0,0,0,.66,1.14" style="fill:#0a0b09"/><path id="51cf6660-9036-4b1e-a887-dcee6fd1a1e2" data-name="Fill-81" d="M168.49,571.81l12.67-7.32a.66.66,0,0,0-.66-1.14l-12.67,7.32a.66.66,0,1,0,.66,1.14" style="fill:#0a0b09"/><path id="a1d37e04-4063-4885-a814-b16d3ecda38b" data-name="Fill-82" d="M167.5,506.16v25.48a.66.66,0,0,0,1.31,0V506.16a.66.66,0,0,0-1.31,0" style="fill:#0a0b09"/><path id="2f033e5b-0a40-4162-a81e-0a2e196d924a" data-name="Fill-83" d="M189.57,493.42v14.35a.66.66,0,1,0,1.31,0V493.42a.66.66,0,1,0-1.31,0" style="fill:#0a0b09"/><path id="76885212-b118-421d-b626-a020c2f32145" data-name="Fill-84" d="M145.44,493.42V518.9a.66.66,0,0,0,1.31,0V493.42a.66.66,0,1,0-1.31,0" style="fill:#0a0b09"/><path id="62c62050-c253-44d4-b714-808afa4cdb45" data-name="Fill-85" d="M145.76,494l22.07,12.74a.66.66,0,1,0,.66-1.14l-22.07-12.74a.66.66,0,0,0-.66,1.14" style="fill:#0a0b09"/><path id="2d0a0ead-2d9f-4091-adc7-4867f6757519" data-name="Fill-86" d="M167.94,481.19l22,12.68a.66.66,0,0,0,.66-1.14l-22-12.68a.66.66,0,0,0-.66,1.14" style="fill:#0a0b09"/><path id="24624e2a-3472-4c66-bf53-82fe2a02358b" data-name="Fill-87" d="M145.76,519.47l22.07,12.74a.66.66,0,1,0,.66-1.14l-22.07-12.74a.66.66,0,0,0-.66,1.14" style="fill:#0a0b09"/><path id="e08e10a3-311f-4de9-ba2c-4a0117f0c72f" data-name="Fill-88" d="M168.49,506.73,190.56,494a.66.66,0,0,0-.66-1.14L167.83,505.6a.66.66,0,1,0,.66,1.14" style="fill:#0a0b09"/><path id="274f677c-70c4-49b6-be3b-44b8b4a2df43" data-name="Fill-89" d="M146.42,494l22.17-12.8a.66.66,0,0,0-.66-1.14l-22.17,12.8a.66.66,0,0,0,.66,1.14" style="fill:#0a0b09"/><path id="936c97e6-17d4-4253-b187-23c5047eb35c" data-name="Fill-90" d="M168.49,532.21l12.68-7.32a.66.66,0,1,0-.66-1.14l-12.68,7.32a.66.66,0,1,0,.66,1.14" style="fill:#0a0b09"/><path id="3b40861e-7fa5-4427-9597-c352a94708e2" data-name="Fill-91" d="M202.25,565.54V591a.66.66,0,1,0,1.31,0V565.54a.66.66,0,1,0-1.31,0" style="fill:#0a0b09"/><path id="c44a4a72-7f26-4de7-90c6-16059b40bdd8" data-name="Fill-92" d="M224.32,552.79v25.48a.66.66,0,1,0,1.31,0V552.79a.66.66,0,0,0-1.31,0" style="fill:#0a0b09"/><path id="12d0280a-4eac-4d2a-99e4-22df02201f62" data-name="Fill-93" d="M180.18,552.79v25.48a.66.66,0,1,0,1.31,0V552.79a.66.66,0,0,0-1.31,0" style="fill:#0a0b09"/><path id="6274d814-7954-47d5-87f2-715d630e1d70" data-name="Fill-94" d="M180.51,553.36l22.07,12.74a.66.66,0,1,0,.66-1.14l-22.07-12.74a.66.66,0,1,0-.66,1.14" style="fill:#0a0b09"/><path id="27031efc-0842-40b6-90be-642408d6b359" data-name="Fill-95" d="M212.42,546.3l12.23,7.06a.66.66,0,0,0,.66-1.14l-12.23-7.06a.66.66,0,1,0-.66,1.14" style="fill:#0a0b09"/><path id="178047c7-27d6-4abd-b417-704efcdff1d0" data-name="Fill-96" d="M180.51,578.84l22.07,12.74a.66.66,0,0,0,.66-1.14l-22.07-12.74a.66.66,0,1,0-.66,1.14" style="fill:#0a0b09"/><path id="626f261b-e4fb-4959-897b-ae13bd587545" data-name="Fill-97" d="M203.23,566.1l22.07-12.74a.66.66,0,0,0-.66-1.14L202.58,565a.66.66,0,1,0,.66,1.14" style="fill:#0a0b09"/><path id="9f23b51b-a99f-42e3-92e0-5ff338c6f5f2" data-name="Fill-98" d="M181.16,553.36l12.22-7.06a.66.66,0,0,0-.66-1.14l-12.22,7.06a.66.66,0,0,0,.66,1.14" style="fill:#0a0b09"/><path id="d64f4eed-f68a-4747-98b6-b9127c7c685d" data-name="Fill-99" d="M203.23,591.59l22.07-12.74a.66.66,0,0,0-.66-1.14l-22.07,12.74a.66.66,0,0,0,.66,1.14" style="fill:#0a0b09"/><path id="3673f141-0dc2-4d50-8e56-e2404c07b18e" data-name="Fill-100" d="M202.25,525.94v25.48a.66.66,0,1,0,1.31,0V525.94a.66.66,0,1,0-1.31,0" style="fill:#0a0b09"/><path id="d7cb1d04-9624-4c96-a78f-5e2dc0ba1ea2" data-name="Fill-101" d="M224.32,513.19v25.48a.66.66,0,1,0,1.31,0V513.19a.66.66,0,0,0-1.31,0" style="fill:#0a0b09"/><path id="139d80a2-3e6c-4530-b1b7-7d68c3749345" data-name="Fill-102" d="M180.18,513.19v25.48a.66.66,0,1,0,1.31,0V513.19a.66.66,0,0,0-1.31,0" style="fill:#0a0b09"/><path id="c32d8e4c-b5cd-4a7e-8d50-eb5fd434c3fa" data-name="Fill-103" d="M180.51,513.76l22.07,12.74a.66.66,0,1,0,.66-1.14l-22.07-12.74a.66.66,0,0,0-.66,1.14" style="fill:#0a0b09"/><path id="bf3eb248-d412-44e5-bc08-34bec4aa89a6" data-name="Fill-104" d="M202.58,501l22.07,12.74a.66.66,0,0,0,.66-1.14l-22.07-12.74a.66.66,0,1,0-.66,1.14" style="fill:#0a0b09"/><path id="5f207561-9cde-47be-9840-a045e44b2092" data-name="Fill-105" d="M180.51,539.25,202.58,552a.66.66,0,1,0,.66-1.14l-22.07-12.74a.66.66,0,1,0-.66,1.14" style="fill:#0a0b09"/><path id="904d6350-4b2b-4d08-9850-bc1a87671bce" data-name="Fill-106" d="M203.23,526.5l22.07-12.74a.66.66,0,0,0-.66-1.14l-22.07,12.74a.66.66,0,0,0,.66,1.14" style="fill:#0a0b09"/><path id="e9a03a01-1a70-4c4e-a1f4-256c06301046" data-name="Fill-107" d="M181.16,513.76,203.23,501a.66.66,0,1,0-.66-1.14l-22.07,12.74a.66.66,0,0,0,.66,1.14" style="fill:#0a0b09"/><path id="e0cddc90-f51a-4143-8224-061470d05578" data-name="Fill-108" d="M203.23,552l22.07-12.74a.66.66,0,0,0-.66-1.14l-22.07,12.74a.66.66,0,1,0,.66,1.14" style="fill:#0a0b09"/><path id="faac5bd1-3ed2-44bd-991f-0ff2813c4ee9" data-name="Fill-109" d="M412.66,545.5v25.39a.66.66,0,1,0,1.31,0V545.5a.66.66,0,1,0-1.31,0" style="fill:#0a0b09"/><path id="29b87c70-0626-4185-827e-82d7c78efed4" data-name="Fill-110" d="M434.64,532.8v25.39a.66.66,0,0,0,1.31,0V532.8a.66.66,0,0,0-1.31,0" style="fill:#0a0b09"/><path id="e84b666f-9874-4343-97c8-6ee48b91c4f8" data-name="Fill-111" d="M390.67,543.84v3.26a.66.66,0,0,0,1.31,0v-3.26a.66.66,0,1,0-1.31,0" style="fill:#0a0b09"/><path id="e33f027c-6ffc-4901-8704-505b79b15975" data-name="Fill-112" d="M400.36,538.77,413,546.06a.66.66,0,0,0,.66-1.14L401,537.64a.66.66,0,0,0-.66,1.14" style="fill:#0a0b09"/><path id="f8c49ed9-9587-49bd-b9f6-cc88894afdbe" data-name="Fill-113" d="M422.79,526.34l12.18,7a.66.66,0,0,0,.66-1.14l-12.18-7a.66.66,0,0,0-.66,1.14" style="fill:#0a0b09"/><path id="6c468965-1119-4c04-8f35-5ca4a328f70d" data-name="Fill-114" d="M400.36,564.16,413,571.45a.66.66,0,0,0,.66-1.14L401,563a.66.66,0,0,0-.66,1.14" style="fill:#0a0b09"/><path id="36064b6e-cfa6-4542-8488-38091924e96d" data-name="Fill-115" d="M413.64,546.06l22-12.69a.66.66,0,0,0-.66-1.14l-22,12.69a.66.66,0,0,0,.65,1.14" style="fill:#0a0b09"/><path id="e2f8a4ab-ce4e-49e8-b7f8-194bfdcf3203" data-name="Fill-116" d="M401,528l2.82-1.63a.66.66,0,0,0-.66-1.14l-2.82,1.63A.66.66,0,0,0,401,528" style="fill:#0a0b09"/><path id="c5ab53ba-7bc7-4d7b-86cc-5cf4a62f6c93" data-name="Fill-117" d="M413.64,571.45l22-12.69a.66.66,0,0,0-.66-1.14l-22,12.69a.66.66,0,0,0,.65,1.14" style="fill:#0a0b09"/><path id="1642cfe7-a90e-44a9-8d74-19f817379220" data-name="Fill-118" d="M412.66,506v25.39a.66.66,0,1,0,1.31,0V506a.66.66,0,1,0-1.31,0" style="fill:#0a0b09"/><path id="682dae1c-2b26-4315-9b6d-1bfead84a19b" data-name="Fill-119" d="M434.64,493.35v25.39a.66.66,0,0,0,1.31,0V493.35a.66.66,0,0,0-1.31,0" style="fill:#0a0b09"/><path id="c71f5b90-e836-4569-8638-b405209400af" data-name="Fill-120" d="M390.67,493.35v14.3a.66.66,0,0,0,1.31,0v-14.3a.66.66,0,0,0-1.31,0" style="fill:#0a0b09"/><path id="fbb1ed89-1f06-4736-8235-6637edf7851a" data-name="Fill-121" d="M391,493.92l22,12.69a.66.66,0,0,0,.66-1.14l-22-12.69a.66.66,0,1,0-.66,1.14" style="fill:#0a0b09"/><path id="b4414d00-a00e-4640-ad9a-c75e800a73ab" data-name="Fill-122" d="M412.88,481.17,435,493.92a.66.66,0,0,0,.66-1.14L413.54,480a.66.66,0,1,0-.65,1.14" style="fill:#0a0b09"/><path id="edb8bff2-e583-4f2e-b3ea-cd44df3e75d8" data-name="Fill-123" d="M400.36,524.71,413,532a.66.66,0,0,0,.66-1.14L401,523.58a.66.66,0,0,0-.66,1.14" style="fill:#0a0b09"/><path id="94405084-d2c7-4368-a947-9d6a5f5e60b2" data-name="Fill-124" d="M413.64,506.62l22-12.69a.66.66,0,0,0-.66-1.14l-22,12.69a.66.66,0,0,0,.66,1.14" style="fill:#0a0b09"/><path id="1e4d53bb-cc96-42b7-b44f-c114d1479358" data-name="Fill-125" d="M391.66,493.8l21.88-12.63a.66.66,0,0,0-.65-1.14L391,492.66a.66.66,0,0,0,.65,1.14" style="fill:#0a0b09"/><path id="29862c52-a0e4-4ff9-b813-48da8dd0ab30" data-name="Fill-126" d="M413.64,532l22-12.69a.66.66,0,0,0-.66-1.14l-22,12.69a.66.66,0,0,0,.65,1.14" style="fill:#0a0b09"/><path id="47b7c872-c3bb-4ecc-ae63-0ab2fa62c485" data-name="Fill-127" d="M378,565.2v25.39a.66.66,0,0,0,1.31,0V565.2a.66.66,0,0,0-1.31,0" style="fill:#0a0b09"/><path id="a26460f9-79ae-421c-a4a8-9268ba888142" data-name="Fill-128" d="M400,552.5v25.39a.66.66,0,0,0,1.31,0V552.5a.66.66,0,0,0-1.31,0" style="fill:#0a0b09"/><path id="8c830f10-e8b7-471b-9e80-090dfe8bc1cc" data-name="Fill-129" d="M356.06,552.5v25.39a.66.66,0,0,0,1.31,0V552.5a.66.66,0,1,0-1.31,0" style="fill:#0a0b09"/><path id="7fe4c330-94a4-41e7-a17a-9e64f4cebdd2" data-name="Fill-130" d="M356.39,553.07l22,12.69a.66.66,0,1,0,.66-1.14l-22-12.69a.66.66,0,0,0-.66,1.14" style="fill:#0a0b09"/><path id="0dd3265d-f72f-494b-8414-677d722f3517" data-name="Fill-131" d="M388.18,546l12.18,7a.66.66,0,0,0,.66-1.14l-12.18-7a.66.66,0,0,0-.66,1.14" style="fill:#0a0b09"/><path id="3724ef7f-a6cd-4c62-b23b-538b36d754c1" data-name="Fill-132" d="M356.39,578.46l22,12.69A.66.66,0,1,0,379,590l-22-12.69a.66.66,0,0,0-.66,1.14" style="fill:#0a0b09"/><path id="6e3a40f4-c14c-43d4-a21c-a0dacf8f532b" data-name="Fill-133" d="M379,565.76l22-12.69a.66.66,0,0,0-.66-1.14l-22,12.69a.66.66,0,1,0,.66,1.14" style="fill:#0a0b09"/><path id="e1d9000e-fd3a-46ee-bd8c-d8667a755a7c" data-name="Fill-134" d="M357,553.07l12.18-7a.66.66,0,0,0-.66-1.14l-12.18,7a.66.66,0,0,0,.66,1.14" style="fill:#0a0b09"/><path id="9c7fda1b-0cc0-412f-bdc0-722316e5f392" data-name="Fill-135" d="M379,591.15l22-12.69a.66.66,0,0,0-.66-1.14l-22,12.69a.66.66,0,1,0,.66,1.14" style="fill:#0a0b09"/><path id="3473c358-e936-4960-abfb-052359c15eb0" data-name="Fill-136" d="M378,525.75v25.39a.66.66,0,0,0,1.31,0V525.75a.66.66,0,0,0-1.31,0" style="fill:#0a0b09"/><path id="7c136f42-ed60-450f-923b-626ba2ccd39e" data-name="Fill-137" d="M400,513.05v25.39a.66.66,0,0,0,1.31,0V513.05a.66.66,0,0,0-1.31,0" style="fill:#0a0b09"/><path id="99e67671-27b3-4091-8724-df6fad6474b4" data-name="Fill-138" d="M356.06,513.05v25.39a.66.66,0,0,0,1.31,0V513.05a.66.66,0,0,0-1.31,0" style="fill:#0a0b09"/><path id="f007bf9f-f170-4909-a968-e03ef799c5fa" data-name="Fill-139" d="M356.39,513.62l22,12.69a.66.66,0,0,0,.66-1.14l-22-12.69a.66.66,0,0,0-.66,1.14" style="fill:#0a0b09"/><path id="c203b4de-62f2-40fb-9df7-d4eaa0bc6030" data-name="Fill-140" d="M378.37,500.93l22,12.69a.66.66,0,0,0,.66-1.14l-22-12.69a.66.66,0,1,0-.66,1.14" style="fill:#0a0b09"/><path id="4ae142f4-87f6-49e4-9c05-f37f83a73e87" data-name="Fill-141" d="M356.39,539l22,12.69a.66.66,0,0,0,.66-1.14l-22-12.69a.66.66,0,0,0-.66,1.14" style="fill:#0a0b09"/><path id="e98b27de-1b3a-47c4-9e39-d164b7cb26d4" data-name="Fill-142" d="M379,526.31l22-12.69a.66.66,0,0,0-.66-1.14l-22,12.69a.66.66,0,1,0,.66,1.14" style="fill:#0a0b09"/><path id="d5309ac3-2739-43a7-af18-3ade7c3efe23" data-name="Fill-143" d="M357,513.62l22-12.69a.66.66,0,1,0-.66-1.14l-22,12.69a.66.66,0,0,0,.66,1.14" style="fill:#0a0b09"/><path id="27de5e1f-2acb-4480-a813-34c2eb5e634f" data-name="Fill-144" d="M379,551.7,401,539a.66.66,0,0,0-.66-1.14l-22,12.69a.66.66,0,1,0,.66,1.14" style="fill:#0a0b09"/><path id="a2f5be5d-81b6-419d-94f1-5d631624bfc1" data-name="Fill-145" d="M324.75,697.42V722.9a.66.66,0,1,0,1.31,0V697.42a.66.66,0,1,0-1.31,0" style="fill:#0a0b09"/><path id="13a61261-9d94-4417-b673-7e9eb2aca3e6" data-name="Fill-146" d="M346.82,684.68v25.48a.66.66,0,0,0,1.31,0V684.68a.66.66,0,1,0-1.31,0" style="fill:#0a0b09"/><path id="969a7cbc-ae4d-49e4-9656-3245e4197c85" data-name="Fill-147" d="M302.69,695.76V699a.66.66,0,0,0,1.31,0v-3.27a.66.66,0,0,0-1.31,0" style="fill:#0a0b09"/><path id="847f5750-5d9a-4a98-aa50-0a354a74685e" data-name="Fill-148" d="M312.4,690.67,325.08,698a.66.66,0,0,0,.66-1.14l-12.68-7.32a.66.66,0,0,0-.66,1.14" style="fill:#0a0b09"/><path id="c30c36dc-1730-4b4b-8412-46386bd5dc1b" data-name="Fill-149" d="M334.92,678.19l12.23,7.06a.66.66,0,0,0,.65-1.14l-12.23-7.06a.66.66,0,0,0-.66,1.14" style="fill:#0a0b09"/><path id="6861305b-a6ee-4147-96e8-d9c53e8fb239" data-name="Fill-150" d="M312.4,716.15l12.68,7.32a.66.66,0,0,0,.66-1.14L313.06,715a.66.66,0,1,0-.66,1.14" style="fill:#0a0b09"/><path id="fa44dbf5-c8e8-4c0d-8682-c9269040fb47" data-name="Fill-151" d="M325.73,698l22.06-12.74a.66.66,0,0,0-.65-1.14l-22.06,12.74a.66.66,0,1,0,.66,1.14" style="fill:#0a0b09"/><path id="f3d6e77a-b333-4b5b-849c-81dfbbc29587" data-name="Fill-152" d="M313.06,679.83l2.83-1.63a.66.66,0,0,0-.66-1.14l-2.83,1.63a.66.66,0,0,0,.66,1.14" style="fill:#0a0b09"/><path id="6fc1454c-f745-4ec8-b261-c9c902bb9c20" data-name="Fill-153" d="M325.73,723.47l22.06-12.74a.66.66,0,0,0-.66-1.14l-22.06,12.74a.66.66,0,0,0,.66,1.14" style="fill:#0a0b09"/><path id="08bb6c20-3680-4820-89b1-2c3e0ff9ec13" data-name="Fill-154" d="M255.28,697.42V722.9a.66.66,0,1,0,1.31,0V697.42a.66.66,0,1,0-1.31,0" style="fill:#0a0b09"/><path id="de09542c-b54a-43aa-b333-6a84eaa84ee6" data-name="Fill-155" d="M277.34,695.76V699a.66.66,0,0,0,1.31,0v-3.27a.66.66,0,0,0-1.31,0" style="fill:#0a0b09"/><path id="165d1683-2913-4702-8b53-b0e29b5f1389" data-name="Fill-156" d="M233.22,684.68v25.48a.66.66,0,0,0,1.31,0V684.68a.66.66,0,1,0-1.31,0" style="fill:#0a0b09"/><path id="c721c16e-31b4-4259-bb24-d38a43174be6" data-name="Fill-157" d="M233.54,685.25,255.61,698a.66.66,0,0,0,.65-1.14L234.2,684.11a.66.66,0,1,0-.66,1.14" style="fill:#0a0b09"/><path id="e3b2c9f4-26e5-4f7f-86b6-b8f15f6a23b2" data-name="Fill-158" d="M265.45,678.19l2.83,1.63a.66.66,0,0,0,.66-1.14l-2.83-1.63a.66.66,0,1,0-.66,1.14" style="fill:#0a0b09"/><path id="3f507f6d-27cb-4887-9064-65139f384ea1" data-name="Fill-159" d="M233.54,710.73l22.06,12.74a.66.66,0,0,0,.66-1.14L234.2,709.59a.66.66,0,0,0-.66,1.14" style="fill:#0a0b09"/><path id="87c96a11-54f8-491f-bd57-1423031ae22b" data-name="Fill-160" d="M256.26,698l12.67-7.31a.66.66,0,0,0-.65-1.14l-12.67,7.31a.66.66,0,0,0,.65,1.14" style="fill:#0a0b09"/><path id="3aa0650e-58c8-4d20-addf-58dde532b2ad" data-name="Fill-161" d="M234.2,685.25l12.2-7a.66.66,0,0,0-.66-1.14l-12.2,7a.66.66,0,1,0,.66,1.14" style="fill:#0a0b09"/><path id="d26b6d6e-a22d-47b9-a385-0f1bbb3e9169" data-name="Fill-162" d="M256.26,723.47l12.67-7.31a.66.66,0,0,0-.65-1.14l-12.67,7.31a.66.66,0,0,0,.65,1.14" style="fill:#0a0b09"/><path id="fa7f550a-28e3-418a-8fba-01534722721b" data-name="Fill-163" d="M255.28,657.83v25.48a.66.66,0,1,0,1.31,0V657.83a.66.66,0,1,0-1.31,0" style="fill:#0a0b09"/><path id="2155474e-5069-4413-9a91-a2ebd0bbb264" data-name="Fill-164" d="M277.34,645.09v14.34a.66.66,0,0,0,1.31,0V645.09a.66.66,0,0,0-1.31,0" style="fill:#0a0b09"/><path id="6848de42-119f-45f3-b6e9-20c2c12bc295" data-name="Fill-165" d="M233.22,645.09v25.48a.66.66,0,0,0,1.31,0V645.09a.66.66,0,0,0-1.31,0" style="fill:#0a0b09"/><path id="70fa7fa2-102c-4322-99d1-b36884281aa1" data-name="Fill-166" d="M233.54,645.66l22.06,12.74a.66.66,0,0,0,.65-1.14L234.2,644.53a.66.66,0,1,0-.66,1.14" style="fill:#0a0b09"/><path id="3bafb9ba-5af7-4dc7-b98c-101b59538bda" data-name="Fill-167" d="M255.71,632.86l22,12.68a.66.66,0,1,0,.65-1.14l-22-12.68a.66.66,0,0,0-.65,1.14" style="fill:#0a0b09"/><path id="654dd37a-7234-4b85-a0aa-506b11f26c49" data-name="Fill-168" d="M233.54,671.14l22.06,12.74a.66.66,0,0,0,.65-1.14L234.2,670a.66.66,0,0,0-.66,1.14" style="fill:#0a0b09"/><path id="5f5f7429-28cc-4561-9a12-92a146497943" data-name="Fill-169" d="M256.26,658.4l22.06-12.74a.66.66,0,1,0-.65-1.14l-22.06,12.74a.66.66,0,0,0,.65,1.14" style="fill:#0a0b09"/><path id="7ef13dc2-269f-4f01-9d60-68bd3bf222e6" data-name="Fill-170" d="M234.2,645.66l22.17-12.8a.66.66,0,0,0-.66-1.14l-22.17,12.8a.66.66,0,1,0,.66,1.14" style="fill:#0a0b09"/><path id="b3d4f394-29d8-4fad-836b-7ce90f93ea07" data-name="Fill-171" d="M256.26,683.88l12.67-7.32a.66.66,0,0,0-.65-1.14l-12.67,7.32a.66.66,0,0,0,.65,1.14" style="fill:#0a0b09"/><path id="a5dd8f0f-b41d-40b6-90f3-f7227a2e690a" data-name="Fill-172" d="M324.75,657.83v25.48a.66.66,0,1,0,1.31,0V657.83a.66.66,0,1,0-1.31,0" style="fill:#0a0b09"/><path id="6d513e4c-c83b-445a-93c3-96dbd6dadf4d" data-name="Fill-173" d="M346.82,645.09v25.48a.66.66,0,0,0,1.31,0V645.09a.66.66,0,0,0-1.31,0" style="fill:#0a0b09"/><path id="a7db006a-3e9a-4d8a-a9a7-623266e6caff" data-name="Fill-174" d="M302.69,645.09v14.34a.66.66,0,0,0,1.31,0V645.09a.66.66,0,0,0-1.31,0" style="fill:#0a0b09"/><path id="97717a05-2a9e-4c61-ac66-d5999f13f828" data-name="Fill-175" d="M303,645.66l22.06,12.74a.66.66,0,0,0,.66-1.14l-22.06-12.74a.66.66,0,1,0-.66,1.14" style="fill:#0a0b09"/><path id="f4bec184-d928-4c31-8422-c693084c4278" data-name="Fill-176" d="M325,632.86l22.17,12.8a.66.66,0,0,0,.65-1.14l-22.17-12.8a.66.66,0,1,0-.66,1.14" style="fill:#0a0b09"/><path id="e3f67b6a-dc2d-4d7e-a163-62d79c897ee7" data-name="Fill-177" d="M312.41,676.56l12.67,7.31a.66.66,0,0,0,.66-1.14l-12.67-7.31a.66.66,0,1,0-.66,1.14" style="fill:#0a0b09"/><path id="35905c34-de86-4cd7-a8e8-55b58d77c70d" data-name="Fill-178" d="M325.73,658.4l22.06-12.74a.66.66,0,0,0-.65-1.14l-22.06,12.74a.66.66,0,0,0,.66,1.14" style="fill:#0a0b09"/><path id="00197764-94c5-4c91-b0a7-7c7e6b268bc6" data-name="Fill-179" d="M303.67,645.54l22-12.68a.66.66,0,1,0-.66-1.14L303,644.4a.66.66,0,1,0,.66,1.14" style="fill:#0a0b09"/><path id="2892626d-0320-4b8a-9a08-31de04cf77d6" data-name="Fill-180" d="M325.73,683.88l22.06-12.74a.66.66,0,0,0-.65-1.14l-22.06,12.74a.66.66,0,1,0,.66,1.14" style="fill:#0a0b09"/><path id="7cddaae8-2a30-4ee8-a581-896a039b1af8" data-name="Fill-181" d="M290,717.19v25.48a.66.66,0,0,0,1.31,0V717.19a.66.66,0,1,0-1.31,0" style="fill:#0a0b09"/><path id="4ef98824-a7ce-494c-b784-10c94a719038" data-name="Fill-182" d="M312.08,704.45v25.48a.66.66,0,0,0,1.31,0V704.45a.66.66,0,1,0-1.31,0" style="fill:#0a0b09"/><path id="14fc8470-a327-4ea5-96f9-0911e0de35b9" data-name="Fill-183" d="M268,704.45v25.48a.66.66,0,0,0,1.31,0V704.45a.66.66,0,1,0-1.31,0" style="fill:#0a0b09"/><path id="87528cd6-50f3-497a-9325-43c82afd089f" data-name="Fill-184" d="M268.28,705l22.06,12.74a.66.66,0,0,0,.66-1.14l-22.06-12.74a.66.66,0,0,0-.65,1.14" style="fill:#0a0b09"/><path id="92f96a95-86f6-418c-864e-787044c8e9f5" data-name="Fill-185" d="M300.18,698,312.41,705a.66.66,0,1,0,.66-1.14l-12.22-7.06a.66.66,0,0,0-.66,1.14" style="fill:#0a0b09"/><path id="58985a9f-8f6b-4267-8d70-f732c8cf27a8" data-name="Fill-186" d="M268.28,730.5l22.06,12.74a.66.66,0,0,0,.66-1.14l-22.06-12.74a.66.66,0,0,0-.65,1.14" style="fill:#0a0b09"/><path id="cee302fb-30d6-4367-b19f-ad292cc7c05d" data-name="Fill-187" d="M291,717.76,313.06,705a.66.66,0,1,0-.66-1.14l-22.06,12.74a.66.66,0,0,0,.66,1.14" style="fill:#0a0b09"/><path id="c4b58e22-cb94-43c8-beea-e795377c10f9" data-name="Fill-188" d="M268.94,705,281.16,698a.66.66,0,0,0-.66-1.14l-12.22,7.06a.66.66,0,0,0,.66,1.14" style="fill:#0a0b09"/><path id="a67555a8-b21a-46ca-b8f9-3c8ef9d248ef" data-name="Fill-189" d="M291,743.23l22.06-12.74a.66.66,0,0,0-.66-1.14L290.34,742.1a.66.66,0,0,0,.66,1.14" style="fill:#0a0b09"/><path id="da049753-3f3f-407f-9691-77847efaef42" data-name="Fill-190" d="M290,677.6v25.48a.66.66,0,1,0,1.31,0V677.6a.66.66,0,1,0-1.31,0" style="fill:#0a0b09"/><path id="3829823f-303b-42fe-9eb7-13316e382c61" data-name="Fill-191" d="M312.08,664.86v25.48a.66.66,0,0,0,1.31,0V664.86a.66.66,0,1,0-1.31,0" style="fill:#0a0b09"/><path id="557d9417-02c0-47d8-aafe-48a2119a3c29" data-name="Fill-192" d="M268,664.86v25.48a.66.66,0,0,0,1.31,0V664.86a.66.66,0,1,0-1.31,0" style="fill:#0a0b09"/><path id="119d7e06-0dc0-4f80-8a4e-ecb09eae2d50" data-name="Fill-193" d="M268.28,665.43l22.06,12.74A.66.66,0,0,0,291,677l-22.06-12.74a.66.66,0,0,0-.65,1.14" style="fill:#0a0b09"/><path id="0e3af852-5372-4b1d-9ccc-86a477a6e3c3" data-name="Fill-194" d="M290.34,652.69l22.06,12.74a.66.66,0,1,0,.66-1.14L291,651.55a.66.66,0,1,0-.66,1.14" style="fill:#0a0b09"/><path id="05003a65-0ca7-49e8-9854-faf3b3090070" data-name="Fill-195" d="M268.28,690.91l22.06,12.74a.66.66,0,0,0,.66-1.14l-22.06-12.74a.66.66,0,0,0-.65,1.14" style="fill:#0a0b09"/><path id="fd632b83-17ff-4d7b-a30e-7ee0a95b7b1e" data-name="Fill-196" d="M291,678.17l22.06-12.74a.66.66,0,1,0-.66-1.14L290.34,677a.66.66,0,0,0,.66,1.14" style="fill:#0a0b09"/><path id="6f23ed4a-db6b-4bec-b0fc-574d61f88ae7" data-name="Fill-197" d="M268.94,665.43,291,652.69a.66.66,0,1,0-.66-1.14l-22.06,12.74a.66.66,0,0,0,.66,1.14" style="fill:#0a0b09"/><path id="bd186ee0-77ee-4397-82ea-a965dababaef" data-name="Fill-198" d="M291,703.64l22.06-12.74a.66.66,0,0,0-.66-1.14l-22.06,12.74a.66.66,0,0,0,.66,1.14" style="fill:#0a0b09"/><path id="d605dd8c-4cc7-4253-aeae-fd8dbdb3ddad" data-name="Fill-199" d="M324.75,596v25.48a.66.66,0,1,0,1.31,0V596a.66.66,0,1,0-1.31,0" style="fill:#0a0b09"/><path id="7017d7ed-f455-4e42-bb46-75094ee27ca1" data-name="Fill-200" d="M346.82,583.29v25.48a.66.66,0,1,0,1.31,0V583.29a.66.66,0,0,0-1.31,0" style="fill:#0a0b09"/><path id="d8dfedf4-db2a-4138-b84b-d42dabc0c376" data-name="Fill-201" d="M302.69,594.37v3.27a.66.66,0,1,0,1.31,0v-3.27a.66.66,0,1,0-1.31,0" style="fill:#0a0b09"/><path id="e6a63320-97a0-465f-908c-004bad90f183" data-name="Fill-202" d="M312.4,589.28l12.68,7.32a.66.66,0,0,0,.66-1.14l-12.68-7.32a.66.66,0,1,0-.66,1.14" style="fill:#0a0b09"/><path id="82620bb0-8ced-4e91-8728-b25bcc32bea5" data-name="Fill-203" d="M334.92,576.8l12.23,7.06a.66.66,0,0,0,.65-1.14l-12.23-7.06a.66.66,0,1,0-.66,1.14" style="fill:#0a0b09"/><path id="5842ef3a-36f1-450d-80ba-274dc799764a" data-name="Fill-204" d="M312.4,614.76l12.68,7.32a.66.66,0,1,0,.66-1.14l-12.68-7.32a.66.66,0,0,0-.66,1.14" style="fill:#0a0b09"/><path id="f6023966-3d15-42e6-9f76-552b99dab8be" data-name="Fill-205" d="M325.73,596.6l22.06-12.74a.66.66,0,0,0-.65-1.14l-22.06,12.74a.66.66,0,1,0,.66,1.14" style="fill:#0a0b09"/><path id="556d5e0c-747e-4708-bb9d-12934896d57d" data-name="Fill-206" d="M313.06,578.44l2.83-1.63a.66.66,0,0,0-.66-1.14l-2.83,1.63a.66.66,0,1,0,.66,1.14" style="fill:#0a0b09"/><path id="0a38e826-f7b2-4390-b210-38014c620072" data-name="Fill-207" d="M325.73,622.08l22.06-12.74a.66.66,0,0,0-.65-1.14l-22.06,12.74a.66.66,0,1,0,.66,1.14" style="fill:#0a0b09"/><path id="4b02648e-0df0-420e-9242-123e9968d072" data-name="Fill-208" d="M255.28,596v25.48a.66.66,0,1,0,1.31,0V596a.66.66,0,1,0-1.31,0" style="fill:#0a0b09"/><path id="39b2f6ab-2297-49fe-94cd-8e01d77d4e7d" data-name="Fill-209" d="M277.34,594.37v3.27a.66.66,0,1,0,1.31,0v-3.27a.66.66,0,1,0-1.31,0" style="fill:#0a0b09"/><path id="eded5151-e770-4341-9860-8e9194373754" data-name="Fill-210" d="M233.22,583.29v25.48a.66.66,0,1,0,1.31,0V583.29a.66.66,0,0,0-1.31,0" style="fill:#0a0b09"/><path id="9e680ea8-8978-4973-a2f5-5f5c1d5c694a" data-name="Fill-211" d="M233.54,583.86l22.06,12.74a.66.66,0,0,0,.65-1.14L234.2,582.73a.66.66,0,1,0-.66,1.14" style="fill:#0a0b09"/><path id="521b6b35-304e-4095-baa0-0b22a697ade4" data-name="Fill-212" d="M265.45,576.81l2.83,1.63a.66.66,0,0,0,.66-1.14l-2.83-1.63a.66.66,0,1,0-.66,1.14" style="fill:#0a0b09"/><path id="2d8b633c-417d-449b-8fd7-1a619c286a30" data-name="Fill-213" d="M233.54,609.34l22.06,12.74a.66.66,0,0,0,.65-1.14L234.2,608.2a.66.66,0,0,0-.66,1.14" style="fill:#0a0b09"/><path id="a0690455-fddb-406c-a6d2-2c766d27ff1e" data-name="Fill-214" d="M256.26,596.6l12.67-7.31a.66.66,0,0,0-.65-1.14l-12.67,7.31a.66.66,0,0,0,.65,1.14" style="fill:#0a0b09"/><path id="4ecc389e-2c06-4607-8b12-b6e281ca413c" data-name="Fill-215" d="M234.2,583.86l12.2-7a.66.66,0,1,0-.66-1.14l-12.2,7a.66.66,0,0,0,.66,1.14" style="fill:#0a0b09"/><path id="7168166d-66ce-4819-a79e-0ae22a557afa" data-name="Fill-216" d="M256.26,622.08l12.67-7.31a.66.66,0,0,0-.65-1.14l-12.67,7.31a.66.66,0,0,0,.65,1.14" style="fill:#0a0b09"/><path id="f9ad59d9-d4fc-4cb0-98d7-2fdd0569f755" data-name="Fill-217" d="M255.28,556.44v25.48a.66.66,0,1,0,1.31,0V556.44a.66.66,0,0,0-1.31,0" style="fill:#0a0b09"/><path id="69419511-5da5-4709-b9b2-afaa71086503" data-name="Fill-218" d="M277.34,543.7v14.35a.66.66,0,1,0,1.31,0V543.7a.66.66,0,0,0-1.31,0" style="fill:#0a0b09"/><path id="bc44c9c5-54c2-4bef-a190-4e6253c6dd3e" data-name="Fill-219" d="M233.22,543.7v25.48a.66.66,0,0,0,1.31,0V543.7a.66.66,0,0,0-1.31,0" style="fill:#0a0b09"/><path id="29c8cc70-7659-4bdc-9d65-bd034b47dffb" data-name="Fill-220" d="M233.54,544.27,255.61,557a.66.66,0,0,0,.65-1.14L234.2,543.14a.66.66,0,0,0-.66,1.14" style="fill:#0a0b09"/><path id="66759d53-a957-4a80-b4dc-4aa551ad1095" data-name="Fill-221" d="M255.71,531.47l22,12.68a.66.66,0,1,0,.65-1.14l-22-12.68a.66.66,0,0,0-.65,1.14" style="fill:#0a0b09"/><path id="f3a793c4-a182-4f43-89e3-c242c6534cb2" data-name="Fill-222" d="M233.54,569.75l22.06,12.74a.66.66,0,0,0,.66-1.14L234.2,568.61a.66.66,0,0,0-.66,1.14" style="fill:#0a0b09"/><path id="a8fed9ce-5dd8-401f-ba84-6a0af3f301fc" data-name="Fill-223" d="M256.26,557l22.06-12.74a.66.66,0,1,0-.65-1.14l-22.06,12.74a.66.66,0,0,0,.65,1.14" style="fill:#0a0b09"/><path id="b681200d-6d3e-481a-8a50-5fa96743fdaf" data-name="Fill-224" d="M234.2,544.27l22.17-12.8a.66.66,0,0,0-.66-1.14l-22.17,12.8a.66.66,0,1,0,.66,1.14" style="fill:#0a0b09"/><path id="c14c0a95-7511-4873-bf2c-1a1ff16d1e7a" data-name="Fill-225" d="M256.26,582.49l12.67-7.32a.66.66,0,0,0-.66-1.14l-12.67,7.32a.66.66,0,0,0,.66,1.14" style="fill:#0a0b09"/><path id="61e2ab34-6e34-4ff1-bec7-639d416feb73" data-name="Fill-226" d="M324.75,556.44v25.48a.66.66,0,0,0,1.31,0V556.44a.66.66,0,0,0-1.31,0" style="fill:#0a0b09"/><path id="3c3b6030-e7e7-4fa4-934c-30010a1200fe" data-name="Fill-227" d="M346.82,543.7v25.48a.66.66,0,0,0,1.31,0V543.7a.66.66,0,0,0-1.31,0" style="fill:#0a0b09"/><path id="56ffcc87-c802-4a09-b9f6-962a8e9e5550" data-name="Fill-228" d="M302.69,543.7v14.35a.66.66,0,1,0,1.31,0V543.7a.66.66,0,0,0-1.31,0" style="fill:#0a0b09"/><path id="a9256d59-7405-4f4d-a25d-d54d59c95a61" data-name="Fill-229" d="M303,544.27,325.08,557a.66.66,0,0,0,.66-1.14l-22.06-12.74a.66.66,0,1,0-.66,1.14" style="fill:#0a0b09"/><path id="66636c0e-2ced-4eba-a98d-5dbbb794781c" data-name="Fill-230" d="M325,531.47l22.17,12.8a.66.66,0,0,0,.65-1.14l-22.17-12.8a.66.66,0,1,0-.66,1.14" style="fill:#0a0b09"/><path id="94c516b3-0327-4d36-9033-794409b7c1e0" data-name="Fill-231" d="M312.41,575.17l12.67,7.32a.66.66,0,1,0,.66-1.14L313.06,574a.66.66,0,1,0-.66,1.14" style="fill:#0a0b09"/><path id="d054ebe9-4378-4d94-ad81-11049d16aa6f" data-name="Fill-232" d="M325.73,557l22.06-12.74a.66.66,0,0,0-.65-1.14l-22.06,12.74a.66.66,0,1,0,.66,1.14" style="fill:#0a0b09"/><path id="3d45511f-c290-431b-a2f4-f314a85e015e" data-name="Fill-233" d="M303.67,544.15l22-12.68a.66.66,0,1,0-.66-1.14L303,543a.66.66,0,1,0,.66,1.14" style="fill:#0a0b09"/><path id="066eb16f-6b55-4f2a-bfcc-7d5a795007c2" data-name="Fill-234" d="M325.73,582.49l22.06-12.74a.66.66,0,0,0-.66-1.14l-22.06,12.74a.66.66,0,1,0,.66,1.14" style="fill:#0a0b09"/><path id="ebb72467-1d68-482a-b12d-05f098b92c7c" data-name="Fill-235" d="M290,615.8v25.48a.66.66,0,1,0,1.31,0V615.8a.66.66,0,0,0-1.31,0" style="fill:#0a0b09"/><path id="7e4bdef9-56e1-49c5-9064-00c9a599cfa7" data-name="Fill-236" d="M312.08,603.06v25.48a.66.66,0,1,0,1.31,0V603.06a.66.66,0,1,0-1.31,0" style="fill:#0a0b09"/><path id="c539426a-a710-43b6-a2f9-9ba842f3ef74" data-name="Fill-237" d="M268,603.06v25.48a.66.66,0,1,0,1.31,0V603.06a.66.66,0,1,0-1.31,0" style="fill:#0a0b09"/><path id="bde83a44-d4d5-4308-bf52-e1a3f1098e34" data-name="Fill-238" d="M268.28,603.63l22.06,12.74a.66.66,0,0,0,.66-1.14l-22.06-12.74a.66.66,0,0,0-.65,1.14" style="fill:#0a0b09"/><path id="75f4fe8f-b8ef-4231-aefc-7d77a3caca94" data-name="Fill-239" d="M300.18,596.57l12.23,7.06a.66.66,0,1,0,.66-1.14l-12.22-7.06a.66.66,0,0,0-.66,1.14" style="fill:#0a0b09"/><path id="ee28b5aa-3f31-4fc9-b30a-ce5e69e987d1" data-name="Fill-240" d="M268.28,629.11l22.06,12.74a.66.66,0,1,0,.66-1.14L268.93,628a.66.66,0,0,0-.65,1.14" style="fill:#0a0b09"/><path id="1d1e5ca4-3a58-427c-8fa4-2bc203e27bb3" data-name="Fill-241" d="M291,616.37l22.06-12.74a.66.66,0,1,0-.66-1.14l-22.06,12.74a.66.66,0,0,0,.66,1.14" style="fill:#0a0b09"/><path id="8c4e0f1d-53fa-49d0-9dfe-b3c9d4cc848b" data-name="Fill-242" d="M268.93,603.63l12.22-7.06a.66.66,0,0,0-.66-1.14l-12.22,7.06a.66.66,0,0,0,.65,1.14" style="fill:#0a0b09"/><path id="13247043-e7e4-4c3a-a2a3-db8763e3290a" data-name="Fill-243" d="M291,641.84l22.06-12.74a.66.66,0,1,0-.66-1.14l-22.06,12.74a.66.66,0,1,0,.66,1.14" style="fill:#0a0b09"/><path id="051a88fe-358b-4b27-a7a2-1b3a2825a564" data-name="Fill-244" d="M290,576.21v25.48a.66.66,0,1,0,1.31,0V576.21a.66.66,0,1,0-1.31,0" style="fill:#0a0b09"/><path id="8700c6da-2cef-454b-a771-c6e241eb233a" data-name="Fill-245" d="M312.08,563.47v25.48a.66.66,0,1,0,1.31,0V563.47a.66.66,0,0,0-1.31,0" style="fill:#0a0b09"/><path id="8f218bac-b693-444c-97f6-182a6b1e6484" data-name="Fill-246" d="M268,563.47v25.48a.66.66,0,0,0,1.31,0V563.47a.66.66,0,0,0-1.31,0" style="fill:#0a0b09"/><path id="51697670-3a53-49cc-8eb9-224963967163" data-name="Fill-247" d="M268.28,564l22.06,12.74a.66.66,0,0,0,.66-1.14l-22.06-12.74a.66.66,0,0,0-.65,1.14" style="fill:#0a0b09"/><path id="6820390e-1295-4eea-ae61-12985eedf6ef" data-name="Fill-248" d="M290.34,551.3,312.41,564a.66.66,0,1,0,.66-1.14L291,550.17a.66.66,0,0,0-.65,1.14" style="fill:#0a0b09"/><path id="71226a42-078a-4c34-aea0-ed5dfa3e405e" data-name="Fill-249" d="M268.28,589.52l22.06,12.74a.66.66,0,0,0,.66-1.14l-22.06-12.74a.66.66,0,0,0-.65,1.14" style="fill:#0a0b09"/><path id="737ac7dc-7748-4d1e-b04c-e1718c7ecfcf" data-name="Fill-250" d="M291,576.78,313.06,564a.66.66,0,1,0-.66-1.14l-22.06,12.74a.66.66,0,0,0,.66,1.14" style="fill:#0a0b09"/><path id="1ce627e4-cfcb-42a0-9fbc-c1725c686583" data-name="Fill-251" d="M268.93,564,291,551.3a.66.66,0,1,0-.65-1.14l-22.06,12.74a.66.66,0,0,0,.65,1.14" style="fill:#0a0b09"/><path id="2fcf99e9-3619-4622-8f7c-4363f7487c65" data-name="Fill-252" d="M291,602.26l22.06-12.74a.66.66,0,1,0-.66-1.14l-22.06,12.74a.66.66,0,0,0,.66,1.14" style="fill:#0a0b09"/></g><g id="767ff272-449c-46c5-88ae-feae948e3bfa" data-name="Static Top"><path id="7e17a371-5dd1-48d8-b6d1-cf7108a8c0ce" data-name="Fill-53" d="M290.15,167.7v167a.66.66,0,0,0,1.31,0v-167a.66.66,0,1,0-1.31,0" style="fill:#4a4a4a"/><path id="6865a2b2-3630-4c60-97c1-1a53e5274c54" data-name="Fill-54" d="M434.81,84.18v167a.66.66,0,1,0,1.31,0v-167a.66.66,0,1,0-1.31,0" style="fill:#4a4a4a"/><path id="e73fc121-0156-4593-99f0-5f4713dae95e" data-name="Fill-55" d="M145.49,84.18v167a.66.66,0,1,0,1.31,0v-167a.66.66,0,1,0-1.31,0" style="fill:#4a4a4a"/><path id="dbdb2d73-75bb-4541-94c2-4892c18ca752" data-name="Fill-56" d="M145.81,84.74l144.66,83.52a.66.66,0,0,0,.66-1.14L146.47,83.61a.66.66,0,0,0-.66,1.14" style="fill:#4a4a4a"/><path id="1f566da1-32e5-4ffa-a709-957593f503be" data-name="Fill-57" d="M290.48,1.22,435.14,84.74a.66.66,0,0,0,.66-1.14L291.13.09a.66.66,0,1,0-.66,1.14" style="fill:#4a4a4a"/><path id="19c87b7d-18ad-49ea-8ef5-c88f3ccee277" data-name="Fill-58" d="M145.81,251.79l144.66,83.52a.66.66,0,0,0,.66-1.14L146.47,250.65a.66.66,0,0,0-.66,1.14" style="fill:#4a4a4a"/><path id="1c4c8f9a-ee49-40be-a975-87cf89965514" data-name="Fill-59" d="M291.13,168.27,435.8,84.74a.66.66,0,0,0-.66-1.14L290.48,167.13a.66.66,0,1,0,.66,1.14" style="fill:#4a4a4a"/><path id="c79620a7-e15d-403c-9ddb-84ea0659f25e" data-name="Fill-60" d="M146.47,84.74,291.13,1.22a.66.66,0,0,0-.66-1.14L145.81,83.61a.66.66,0,0,0,.66,1.14" style="fill:#4a4a4a"/><path id="5fe825c5-07c7-4a44-a582-c55586abb2d5" data-name="Fill-61" d="M291.13,335.31,435.8,251.79a.66.66,0,0,0-.66-1.14L290.48,334.17a.66.66,0,1,0,.66,1.14" style="fill:#4a4a4a"/></g><polygon id="2eb14617-682a-4df5-a402-663174e8d19d" data-name="Path-4071" points="131.72 276.07 290.93 184.35 449.95 276.07 449.16 458.33 290.93 551.32 131.99 459.54 131.72 276.07" style="fill:#fff;opacity:0.8500000238418579;isolation:isolate"/><polygon id="60a8a8c1-1db9-4d7d-94f6-4d6b8e5378ec" data-name="Path-4071-Copy" points="131.84 275.96 291.05 184.24 450.07 275.96 449.27 458.22 291.05 551.22 132.11 459.44 131.84 275.96" style="fill:#fff;opacity:0.8500000238418579;isolation:isolate"/><polyline id="42662544-affa-4d9e-8c30-3e409b35e843" data-name="Fill-294" points="131.42 276.1 131.42 459.76 290.81 551.77 450.19 459.76 450.19 275.72 290.81 183.7 131.42 275.72 131.42 276.1 132.73 276.48 290.81 185.21 448.87 276.48 448.87 459 290.81 550.26 132.73 459 132.73 276.48" style="fill:#ff671b"/><path id="73c1ad9d-a0c8-4de4-b9d7-f41d16f6ccef" data-name="Fill-295" d="M379.47,485.89h0m0,0h0m0,0,.08,0h0l.06,0-.15.06m-.37,0h0m0,0h0m0,0h0m0,0h0m.57,0h0m-.33-1.32-.65-.38V420.74l.31.18.09,0h0a.67.67,0,0,0,.25,0h0a.66.66,0,0,0,.33-.09l.33-.19v63.37l-.66.38" style="fill:#ff671b;opacity:0.6000000238418579;isolation:isolate"/><path id="c9575c1a-21dd-4731-bd09-87ea23e8e467" data-name="Fill-296" d="M435.83,453.38h0l0,0,0,0m0,0h0m0,0h0m.16-.16a.66.66,0,0,0-.53-1,.65.65,0,0,0-.33.09l-.33.19V389.06l1-.57a.65.65,0,0,0,.29-.34.62.62,0,0,0,0-.22h0a.66.66,0,0,0,0-.23.71.71,0,0,0-.08-.15.65.65,0,0,1,.13.39v64.89a.65.65,0,0,1-.13.39m-.2-65.84h0m0,0h0" style="fill:#ff671b;opacity:0.6000000238418579;isolation:isolate"/><polyline id="402d0aae-6b48-421d-82f9-e0d683df0b49" data-name="Fill-297" points="323.77 424.08 322.46 423.32 322.46 417.27 323.77 416.51 323.77 424.08" style="fill:#ff671b;opacity:0.6000000238418579;isolation:isolate"/><path id="2a5bd4c8-1425-4404-9022-5e5b35236b8d" data-name="Fill-298" d="M379.31,421a.67.67,0,0,1-.25,0,.66.66,0,0,0,.25,0h0m-.25,0h0m-.09,0-31.45-18.16,0,0h0a.65.65,0,0,0,.14-.41v-1l31.62,18.25-.33.19a.66.66,0,0,0,0,1.13m-32.59-19.1a.6.6,0,0,1,0-.2v.2" style="fill:#ff671b;opacity:0.6000000238418579;isolation:isolate"/><path id="67b56329-f7d0-4e3d-ac36-270d72fa4608" data-name="Fill-299" d="M436.12,388.15a.64.64,0,0,0,0-.22.62.62,0,0,1,0,.22m0-.22h0m-2,0-29.82-17.21,1.31-.76,30.14,17.4h0a.66.66,0,0,0-.32-.08.65.65,0,0,0-.33.09l-1,.57m1.92-.24,0-.09a.68.68,0,0,0-.12-.15l.08.09h0a.71.71,0,0,1,.08.15m-.17-.24h0m-32-18a.67.67,0,0,1,.2-.11l-.2.11" style="fill:#ff671b;opacity:0.6000000238418579;isolation:isolate"/><path id="fcb06444-6b6c-41f8-8f53-6368b5107470" data-name="Fill-300" d="M379.31,485.91l-.19,0h0a.64.64,0,0,0,.2,0h0m.26-.06h0m0,0,.06,0h0l-.06,0m-.62,0-31.27-18.06v-1.51l31,17.88.65.38-.33.19a.66.66,0,0,0-.24.9.65.65,0,0,0,.22.23m-32.58-19.09a.6.6,0,0,1,0-.2v.2" style="fill:#ff671b;opacity:0.6000000238418579;isolation:isolate"/><path id="3f8b4cdd-aa14-439f-a969-791dc597ecb2" data-name="Fill-301" d="M379.31,421h0a.66.66,0,0,1-.25,0h0l-.09,0a.66.66,0,0,1,0-1.13l.33-.19,55.87-32.25a.65.65,0,0,1,.33-.09.66.66,0,0,1,.32.08h0l.11.08h0a.68.68,0,0,1,.12.15l0,.09a.66.66,0,0,1,0,.23h0a.64.64,0,0,1,0,.22.65.65,0,0,1-.29.34l-1,.57L380,420.74l-.33.19a.66.66,0,0,1-.33.09" style="fill:#ff671b;opacity:0.6000000238418579;isolation:isolate"/><path id="f99b4f74-05f8-4ccf-ba44-eba4e6650d19" data-name="Fill-302" d="M347.69,374.49V373l5.24-3,1.31.76-6.55,3.78m6.91-5.09-.06,0,.06,0" style="fill:#ff671b;opacity:0.6000000238418579;isolation:isolate"/><path id="5ff63470-f980-48c5-b53a-12a8605afa73" data-name="Fill-303" d="M379.31,485.91h0a.64.64,0,0,1-.2,0h0l-.11-.05a.65.65,0,0,1-.22-.23.66.66,0,0,1,.24-.9l.33-.19.66-.38,54.88-31.69.33-.19a.66.66,0,0,1,.9.24.66.66,0,0,1,0,.71h0a.66.66,0,0,1-.16.15h0l0,0h0l-56.18,32.43h0l-.06,0h0l-.08,0h0l-.16,0" style="fill:#ff671b;opacity:0.6000000238418579;isolation:isolate"/><path id="4de801e9-ec93-4136-9955-19f38d57a177" data-name="Fill-304" d="M202.5,485.9h0m0,0,.07,0,.11,0a.67.67,0,0,1-.18.07m.19-.07h0m-.33-1.33-.66-.38V420.74l.33.19a.66.66,0,0,0,.33.09h0a.66.66,0,0,0,.25-.05h0l.08,0,.31-.18v63.37l-.66.38" style="fill:#ff671b;opacity:0.6000000238418579;isolation:isolate"/><path id="99774a35-35de-4033-89d3-765c7517049c" data-name="Fill-305" d="M258.88,425l0,0,0,0m-1-1v-7.56l1.31.76v6.05l-1.31.76m1-8.5,0,0,0,0" style="fill:#ff671b;opacity:0.6000000238418579;isolation:isolate"/><path id="6954913b-cc9e-40f0-a672-7f4e46e90120" data-name="Fill-306" d="M145.52,452.79V387.94a.69.69,0,0,0,0,.2.66.66,0,0,0,.29.34l1,.57v63.37l-.33-.19a.64.64,0,0,0-.33-.09.66.66,0,0,0-.66.63" style="fill:#ff671b;opacity:0.6000000238418579;isolation:isolate"/><path id="f21efb2f-e211-4082-b483-5a6d6204abd9" data-name="Fill-307" d="M202.37,421a.66.66,0,0,1-.33-.09l-.33-.19-54.88-31.69-1-.57a.66.66,0,0,1-.29-.34l0,.1a.66.66,0,0,0,.9.24l1-.57,54.88,31.69-.33.19a.66.66,0,0,0,.33,1.22h0m.25-.05h0m0,0,.07,0h0l-.08,0m-57.11-33h0m0,0h0m0,0a.66.66,0,0,1,0-.23.67.67,0,0,0,0,.23m.2-.47h0m0,0h0m0,0,.12-.09h0l-.11.08" style="fill:#ff671b;opacity:0.6000000238418579;isolation:isolate"/><polyline id="df629375-875d-42ab-ab14-1c53537a5b9d" data-name="Fill-308" points="233.99 374.49 227.44 370.71 228.75 369.95 233.99 372.98 233.99 374.49" style="fill:#ff671b;opacity:0.6000000238418579;isolation:isolate"/><path id="f1177000-7a37-4347-85df-f9f071f76251" data-name="Fill-309" d="M202.37,485.91a.66.66,0,0,1-.25-.05.65.65,0,0,0,.25.05h0m.21,0,.12-.05h0l-.11,0m-.47,0h0m-.08,0-56.18-32.44a.66.66,0,0,1,.33-1.22.64.64,0,0,1,.33.09l.33.19,54.88,31.69.66.38-.33.19a.66.66,0,0,0,0,1.13" style="fill:#ff671b;opacity:0.6000000238418579;isolation:isolate"/><path id="00156720-6f63-40da-85a4-27d74d8b991b" data-name="Fill-310" d="M202.37,421h0a.66.66,0,0,1-.33-1.22l.33-.19L234,401.35v1a.67.67,0,0,0,0,.2h0a.65.65,0,0,0,.13.22l-31.13,18-.31.18h0l-.07,0h0a.66.66,0,0,1-.25.05" style="fill:#ff671b;opacity:0.6000000238418579;isolation:isolate"/><path id="cb253da4-6693-4768-94be-bfa491824d0c" data-name="Fill-311" d="M146.18,388.58a.66.66,0,0,1-.57-.33l0-.1a.69.69,0,0,1,0-.2h0a.67.67,0,0,1,0-.23.66.66,0,0,1,.16-.24h0l.11-.08h0L176,370l1.31.76-30.8,17.78a.66.66,0,0,1-.33.09" style="fill:#ff671b;opacity:0.6000000238418579;isolation:isolate"/><path id="5b49b602-515d-41a6-aaa2-4e836e8b6ecf" data-name="Fill-312" d="M202.37,485.91h0a.65.65,0,0,1-.25-.05h0l-.08,0a.66.66,0,0,1,0-1.13l.33-.19.66-.38,31-17.88v1.51l-31.27,18.06h0l-.12.05-.07,0h-.14" style="fill:#ff671b;opacity:0.6000000238418579;isolation:isolate"/><path id="38310c42-19e4-4063-af96-57ceabb91b00" data-name="Fill-313" d="M202.43,385.08h0m0,0h0m0,0,.17,0,.1-.05h0a.64.64,0,0,1-.27.09m-.27,0h0m0,0h0m0,0h0m0,0h0m0,0,0,0,0,0m0,0h0m0,0h0m0,0h0m0,0h0m.31-1.33-.66-.38V319.91l.33.19a.65.65,0,0,0,.33.09h0a.63.63,0,0,0,.25-.05h0l.08,0,.31-.18v63.37l-.66.38" style="fill:#ff671b;opacity:0.6000000238418579;isolation:isolate"/><path id="ef59f849-e0f9-47a7-aa53-187f68f21933" data-name="Fill-314" d="M258.86,324.22l.07,0-.07,0m-.95-1v-7.43l.18.1.09.06,1,.6v5.91l-1.31.76" style="fill:#ff671b;opacity:0.6000000238418579;isolation:isolate"/><path id="daf38f68-2d54-44ef-a02b-2ce3a8c5a464" data-name="Fill-318" d="M259.14,315l-1.22-.71V288.23l1-.57a.65.65,0,0,0,.26-.86h0a.64.64,0,0,1,.07.3v27.6a.65.65,0,0,1-.09.32" style="fill:#ff671b;opacity:0.6000000238418579;isolation:isolate"/><path id="ba4a62eb-553e-4223-ba46-abff40fa5f34" data-name="Fill-319" d="M259.13,315l-.3-.17a.66.66,0,0,0-.84.16.65.65,0,0,1-.08-.32v-.38l1.22.71h0" style="fill:#ff671b;opacity:0.6000000238418579;isolation:isolate"/><path id="25f7ffb7-e68f-4ef3-95dd-5c962f854484" data-name="Fill-320" d="M145.52,352V287.12a.66.66,0,0,0,.09.3.67.67,0,0,0,.2.22h0l1,.57V351.6l-.33-.19a.66.66,0,0,0-1,.55" style="fill:#ff671b;opacity:0.6000000238418579;isolation:isolate"/><path id="4f825bc8-e35e-41e9-ba7e-8934a8bdeee7" data-name="Fill-321" d="M202.37,320.19a.65.65,0,0,1-.33-.09l-55.21-31.88-1-.57h0a.66.66,0,0,0,.68,0l1-.57,54.88,31.69L202,319a.66.66,0,0,0,.33,1.22h0m.25-.05h0m0,0,.07,0h0l-.08,0m-56.81-32.49h0m0,0h0m-.28-.65h0m0,0h0m0,0,0-.08,0,.08m.18-.35h0m0,0,.13-.1h0l-.12.09" style="fill:#ff671b;opacity:0.6000000238418579;isolation:isolate"/><path id="00bcd608-a781-4af3-81d1-9eeea3e85340" data-name="Fill-322" d="M257.31,287.06l-55-31.74.33-.19a.66.66,0,0,0-.33-1.22h0a.66.66,0,0,1,.33.09L234,272.08v1.14a.66.66,0,1,0,1.31,0v-.38l23.56,13.6a.65.65,0,0,1,.29.36h0l0,0a.66.66,0,0,0-.9-.24l-.92.53M202,254l.09,0-.08,0h0m.09,0h0" style="fill:#ff671b;opacity:0.6000000238418579;isolation:isolate"/><path id="f1765a89-c040-4d49-aef0-dfef2da959ab" data-name="Fill-323" d="M202.37,385.08a.64.64,0,0,1-.19,0h0l0,0h0l-24.74-14.28L176,370l-30.14-17.4a.66.66,0,1,1,.66-1.14l.33.19,54.88,31.69.66.38-.33.19a.66.66,0,0,0,.33,1.22h0m.24,0,.08,0h0l-.1.05" style="fill:#ff671b;opacity:0.6000000238418579;isolation:isolate"/><path id="ffc795e9-2f04-40ec-810e-fe5c63899caf" data-name="Fill-324" d="M235.33,301.27l-1.31-.76,24.22-14a.66.66,0,0,1,.9.24l0,0a.65.65,0,0,1-.26.86l-1,.57-22.58,13" style="fill:#ff671b;opacity:0.6000000238418579;isolation:isolate"/><path id="8c810b27-06f4-476c-90b7-b950942f5b60" data-name="Fill-325" d="M234.32,301.85h0a.66.66,0,1,0-.66-1.14h0l.34-.19,1.31.76-1,.57h0" style="fill:#ff671b;opacity:0.6000000238418579;isolation:isolate"/><path id="9fc6a956-4e2f-40ec-97e6-953e8f296b07" data-name="Fill-326" d="M202.37,320.19h0A.66.66,0,0,1,202,319l.33-.19,30.33-17.51L234,302l-31,17.89-.31.18h0l-.07,0h0a.63.63,0,0,1-.25.05" style="fill:#ff671b;opacity:0.6000000238418579;isolation:isolate"/><path id="eb2c0421-1f48-44a8-b80f-108176c99573" data-name="Fill-327" d="M234,302l-1.31-.76,1-.55h0a.66.66,0,0,1,.66,1.14h0l-.3.17" style="fill:#ff671b;opacity:0.6000000238418579;isolation:isolate"/><path id="8af64576-1647-47c8-9821-3fe8dd149e36" data-name="Fill-328" d="M179.08,268.79l-1.31-.76L202,254h0l.08,0h0a.64.64,0,0,1,.23,0h0a.66.66,0,0,1,.33,1.22l-.33.19-23.26,13.47" style="fill:#ff671b;opacity:0.6000000238418579;isolation:isolate"/><path id="15a8912d-05b2-4bab-9cd6-268089bf6598" data-name="Fill-329" d="M178.1,269.36a.66.66,0,1,0-.66-1.13l.33-.19,1.31.76-1,.57" style="fill:#ff671b;opacity:0.6000000238418579;isolation:isolate"/><path id="d55bd3fe-9797-4cb6-a8b0-58571d329dd0" data-name="Fill-330" d="M146.18,287.75a.66.66,0,0,1-.35-.1h0a.67.67,0,0,1-.2-.22.66.66,0,0,1-.09-.3.78.78,0,0,1,0-.12h0l0-.08a.66.66,0,0,1,.17-.28h0l.12-.09h0l30.6-17.73,1.31.76-30.28,17.54-1,.57a.66.66,0,0,1-.33.09" style="fill:#ff671b;opacity:0.6000000238418579;isolation:isolate"/><path id="801e75c0-f50a-4e63-a4c3-01e7f40956bd" data-name="Fill-331" d="M177.77,269.55l-1.31-.76,1-.57a.66.66,0,1,1,.66,1.13l-.33.19" style="fill:#ff671b;opacity:0.6000000238418579;isolation:isolate"/><path id="056bf1bc-9adf-46a6-9b1f-9b9cf126c142" data-name="Fill-332" d="M202.37,385.08h0a.66.66,0,0,1-.33-1.22l.33-.19.66-.38,31-17.88v1.51l-5.24,3-1.31.76L202.72,385h0l-.08,0-.17,0h-.07" style="fill:#ff671b;opacity:0.6000000238418579;isolation:isolate"/><path id="9973666c-9367-4d0d-9d5d-700cdc173c10" data-name="Fill-333" d="M379.4,385.07h0m0,0h0m0,0a.65.65,0,0,0,.22-.08h0a.64.64,0,0,1-.23.09m-.23,0h0m0,0L379,385l.06,0h0l.1,0M379,385h0m.3-1.34-.65-.38V319.91l.31.18.09,0h0a.67.67,0,0,0,.25,0h0a.65.65,0,0,0,.33-.09l.33-.19v63.37l-.66.38" style="fill:#ff671b;opacity:0.6000000238418579;isolation:isolate"/><path id="7d3aab04-cede-4c02-a176-8a3fec2789eb" data-name="Fill-334" d="M435.83,352.55h0m0,0h0m0,0h0m.2-.18h0m0,0a.66.66,0,0,0-.54-1,.66.66,0,0,0-.33.09l-.33.19V288.23l1-.57a.65.65,0,0,0,.28-.33.63.63,0,0,0,0-.23h0a.63.63,0,0,0,0-.23.66.66,0,0,0-.07-.14.65.65,0,0,1,.12.37V352a.65.65,0,0,1-.12.38m0-65.63h0" style="fill:#ff671b;opacity:0.6000000238418579;isolation:isolate"/><path id="17efa8dd-86b0-4c40-92e2-c20cc19ef7c8" data-name="Fill-335" d="M322.82,324.21l-.06,0,.06,0m1-1-1.31-.76v-5.92l1.31-.76v7.43" style="fill:#ff671b;opacity:0.6000000238418579;isolation:isolate"/><path id="a09400ae-43e8-4a1d-be1c-b1416c89ecbf" data-name="Fill-336" d="M322.46,316.58h0l1.1-.63a.66.66,0,0,0,.21-.19v.08l-1.31.76" style="fill:#ff671b;opacity:0.6000000238418579;isolation:isolate"/><path id="e65e66d5-09fc-4b33-a2cd-c8da6bf00764" data-name="Fill-337" d="M322.46,315.06v-28h0a.67.67,0,0,0,0,.18.65.65,0,0,0,.23.32h0l0,0,1,.57v26.08l-.79.45-.08,0-.45.26" style="fill:#ff671b;opacity:0.6000000238418579;isolation:isolate"/><path id="ae633fa5-1b39-44c9-a51e-def3b2c24973" data-name="Fill-338" d="M323.77,315a.65.65,0,0,0-.79-.23l.79-.45V315" style="fill:#ff671b;opacity:0.6000000238418579;isolation:isolate"/><path id="3e151f75-48f4-4bd2-80b5-7b111a6ae319" data-name="Fill-340" d="M379.31,320.19a.67.67,0,0,1-.25,0,.66.66,0,0,0,.25,0h0m-.25,0h0m-.09,0L347.67,302l1.31-.76,30.33,17.51L379,319a.66.66,0,0,0-.24.9.65.65,0,0,0,.23.23" style="fill:#ff671b;opacity:0.6000000238418579;isolation:isolate"/><path id="e8639fd7-20c5-4c2d-a215-fd9094a8284c" data-name="Fill-341" d="M347.67,302l-.32-.18a.66.66,0,0,0,.66-1.14l1,.56-1.31.76" style="fill:#ff671b;opacity:0.6000000238418579;isolation:isolate"/><path id="376fda94-49c1-4e89-92f5-d279df0de120" data-name="Fill-342" d="M346.36,301.27l-23.57-13.61,0,0a.66.66,0,0,0,.69,0l1-.57,23.24,13.42-1.31.76" style="fill:#ff671b;opacity:0.6000000238418579;isolation:isolate"/><path id="30c901d8-5667-45d5-9032-f58cb4e9f8d4" data-name="Fill-343" d="M347.66,301.92a.65.65,0,0,1-.31-.08h0l-1-.57,1.31-.76.32.19h0a.66.66,0,0,1-.35,1.21" style="fill:#ff671b;opacity:0.6000000238418579;isolation:isolate"/><path id="7f7016e0-bc50-4117-aa30-0aaa71507224" data-name="Fill-345" d="M436.12,287.33a.65.65,0,0,0,0-.23.63.63,0,0,1,0,.23m0-.23h0m-2,0-30.33-17.51.26-.15.13-.08.91-.53,30.66,17.7a.66.66,0,0,1,.21.19h0a.66.66,0,0,1,.07.14l0-.09a.66.66,0,0,0-.9-.24l-1,.57" style="fill:#ff671b;opacity:0.6000000238418579;isolation:isolate"/><path id="c8a8964e-b2c4-453c-8cdb-4f22a0c88664" data-name="Fill-346" d="M403.86,269.58l-.32-.19h0a.65.65,0,0,0,.59,0l-.26.15m.4-.23a.67.67,0,0,0,.17-.2.66.66,0,0,0-.24-.9h0l1,.57-.91.53" style="fill:#ff671b;opacity:0.6000000238418579;isolation:isolate"/><path id="fc5ef13b-cab0-4ff2-9ded-d9ff49ad68f4" data-name="Fill-348" d="M404.13,269.43l.13-.08-.13.08m-1.58-.6L379.31,255.4l.33-.19a.65.65,0,0,0,.24-.9.65.65,0,0,0-.22-.23l24.21,14-1.31.76" style="fill:#ff671b;opacity:0.6000000238418579;isolation:isolate"/><path id="c2242db5-0ccb-4889-b26e-cb6ba3d07f71" data-name="Fill-349" d="M403.87,269.48a.65.65,0,0,1-.33-.09h0l-1-.56,1.31-.76.31.18h0a.66.66,0,0,1,.24.9.67.67,0,0,1-.17.2l-.13.08a.65.65,0,0,1-.26.05" style="fill:#ff671b;opacity:0.6000000238418579;isolation:isolate"/><path id="81084d0e-03ca-4812-b30c-2cc2651da18a" data-name="Fill-351" d="M379.31,385.08h-.14l-.1,0a.64.64,0,0,0,.23,0m-.24,0h0M379,385l-24.72-14.27-1.31-.76-5.24-3v-1.51l6.85,4,.06,0,24.06,13.89.65.38-.33.19a.66.66,0,0,0-.24.9.64.64,0,0,0,.22.23" style="fill:#ff671b;opacity:0.6000000238418579;isolation:isolate"/><path id="1c7f33bf-d966-4fa0-946a-f8b387101422" data-name="Fill-352" d="M379.31,320.19h0a.66.66,0,0,1-.25,0h0l-.09,0a.65.65,0,0,1-.23-.23.66.66,0,0,1,.24-.9l.33-.19,55.87-32.25a.66.66,0,0,1,.9.24l0,.09a.63.63,0,0,1,0,.23h0a.66.66,0,0,1-.33.56l-1,.57L380,319.91l-.33.19a.65.65,0,0,1-.33.09" style="fill:#ff671b;opacity:0.6000000238418579;isolation:isolate"/><path id="3e211f53-6311-4ab1-8bab-128b4620e10f" data-name="Fill-353" d="M323.12,287.75a.66.66,0,0,1-.36-.11h0a.66.66,0,0,1-.17-.2.74.74,0,0,1-.06-.12.67.67,0,0,1,0-.18h0a.66.66,0,0,1,0-.26l0-.07h0l.05-.08h0a.68.68,0,0,1,.18-.15h0l23.58-13.61v.38a.66.66,0,0,0,.66.66.67.67,0,0,0,.31-.08l-23.9,13.8a.66.66,0,0,1-.33.09m24.26-13.91a.65.65,0,0,0,.31-.56v-1.14L379,254.09h0l.09,0h0a.68.68,0,0,1,.24,0h0a.67.67,0,0,1,.24,0l.1,0a.65.65,0,0,1,.22.23.65.65,0,0,1-.24.9l-.33.19-31.93,18.43" style="fill:#ff671b;opacity:0.6000000238418579;isolation:isolate"/><path id="14d09982-4be8-434d-984e-d479f541d79c" data-name="Fill-354" d="M379.31,385.08h0a.64.64,0,0,1-.23,0h0l-.06,0h0l0,0a.64.64,0,0,1-.22-.23.66.66,0,0,1,.24-.9l.33-.19.66-.38,24-13.84.2-.11,30.71-17.73.33-.19a.66.66,0,0,1,.33-.09.66.66,0,0,1,.54,1h0a.64.64,0,0,1-.19.18h0L405.69,370l-1.31.76L379.65,385h0a.65.65,0,0,1-.22.08h-.1" style="fill:#ff671b;opacity:0.6000000238418579;isolation:isolate"/><path id="7ba935da-6d8f-4927-b931-63b4325872fe" data-name="Fill-355" d="M290.84,534.84l-.66-.38V471.09l.32.18.06,0h0a.65.65,0,0,0,.26.06h0a.65.65,0,0,0,.26-.06h0l.06,0,.32-.18v63.37l-.66.38" style="fill:#ff671b;opacity:0.6000000238418579;isolation:isolate"/><path id="06f6241b-cc8b-4b02-bc63-203d616ef1c6" data-name="Fill-356" d="M347.35,503.73h0l.09-.07-.1.07m.17-.14h0m0,0h0m0,0a.66.66,0,0,0-.5-1.08.65.65,0,0,0-.33.09l-.33.19V439.41l1-.57,0,0h0a.65.65,0,0,0,.27-.36.68.68,0,0,0,0-.17h0a.65.65,0,0,0,0-.26.64.64,0,0,0-.1-.16h0l0,0a.65.65,0,0,1,.19.46v64.89a.66.66,0,0,1-.16.43m0-65.78h0m-.11-.09h0m0,0h0m0,0,0,0h0l0,0" style="fill:#ff671b;opacity:0.6000000238418579;isolation:isolate"/><path id="50bcfbdd-aa30-4044-b853-154172e88f9a" data-name="Fill-357" d="M234,503.37h0m0,0h0m0,0h0m0-.21V438.29h0a.69.69,0,0,0,0,.17.65.65,0,0,0,.3.38l1,.57v63.37l-.33-.19a.64.64,0,0,0-.33-.09.66.66,0,0,0-.57.33.65.65,0,0,0-.09.31m0-65.07h0m0,0,0-.09,0,.06v0m0-.09h0" style="fill:#ff671b;opacity:0.6000000238418579;isolation:isolate"/><path id="65f768e9-48a6-4501-b0d6-296325201fa7" data-name="Fill-358" d="M290.84,471.37a.65.65,0,0,1-.26-.06.66.66,0,0,0,.27.06h0m.27-.06h0m-.53,0h0m.54,0h0m-.55,0h0m.56,0,0,0h0l-.06,0m-.62,0-.32-.18L235.3,439.41l-1-.57a.65.65,0,0,1-.3-.38.73.73,0,0,0,.06.14.66.66,0,0,0,.9.24l1-.57L290.84,470l-.33.19a.66.66,0,0,0,0,1.13m-56.52-33h0m0,0h0m0,0a.65.65,0,0,1,0-.21h0v0a.65.65,0,0,0,0,.25m.15-.43a.65.65,0,0,1,.19-.16h0a.65.65,0,0,0-.18.15" style="fill:#ff671b;opacity:0.6000000238418579;isolation:isolate"/><path id="d327aca8-3a48-42f2-a9db-d83808da9395" data-name="Fill-359" d="M347.4,438.82h0m.27-.36a.67.67,0,0,0,0-.17.68.68,0,0,1,0,.17m0-.17h0m0,0h0m-2,0-29.82-17.21,1.31-.76,5.24,3,1.31.76,23.58,13.61h0a.67.67,0,0,0-.31-.08.65.65,0,0,0-.33.09l-1,.57m1.92-.25,0-.08-.06-.08a.64.64,0,0,1,.1.16m-.1-.17h0m-32.07-18.07a.66.66,0,0,1,.2-.12l-.2.12" style="fill:#ff671b;opacity:0.6000000238418579;isolation:isolate"/><path id="adfbab02-7388-4baa-9126-f8a4dc8fe831" data-name="Fill-360" d="M290.84,536.26a.66.66,0,0,1-.33-.09l-56.19-32.44a.65.65,0,0,1-.29-.35h0a.68.68,0,0,1,0-.21.65.65,0,0,1,.09-.31.66.66,0,0,1,.57-.33.64.64,0,0,1,.33.09l.33.19,54.88,31.69.66.38-.33.19a.66.66,0,0,0,.33,1.22h0" style="fill:#ff671b;opacity:0.6000000238418579;isolation:isolate"/><path id="80081bc4-91a3-4ff5-9bad-a133a27ed720" data-name="Fill-361" d="M290.84,471.37h0a.66.66,0,0,1-.27-.06h0l-.06,0a.66.66,0,0,1,0-1.13l.33-.19,55.87-32.25a.65.65,0,0,1,.33-.09.67.67,0,0,1,.31.08l0,0h0l.11.09h0l0,0h0l.06.08,0,.08a.65.65,0,0,1,0,.26h0a.67.67,0,0,1,0,.17.65.65,0,0,1-.27.36h0l0,0-1,.57L291.5,471.09l-.32.18h0l0,0h0a.65.65,0,0,1-.26.06" style="fill:#ff671b;opacity:0.6000000238418579;isolation:isolate"/><path id="f1dee953-755d-4f09-92cd-f96e68450abd" data-name="Fill-362" d="M234.65,438.93a.66.66,0,0,1-.57-.33.73.73,0,0,1-.06-.14.69.69,0,0,1,0-.17h0a.65.65,0,0,1,0-.25l0-.06h0l.07-.11a.65.65,0,0,1,.18-.15h0l23.58-13.61,1.31-.76,5.24-3,1.31.76-6.87,4,0,0L236,438.27l-1,.57a.66.66,0,0,1-.33.09m31.49-19.18-.07,0,.07,0" style="fill:#ff671b;opacity:0.6000000238418579;isolation:isolate"/><path id="9b88b9fa-37ad-4c38-a40d-41fe0281cfd4" data-name="Fill-363" d="M290.84,536.26h0a.66.66,0,0,1-.33-1.22l.33-.19.66-.38,54.88-31.69.33-.19a.66.66,0,0,1,.9.24.66.66,0,0,1-.07.75h0l-.07.07-.09.07h0l-56.18,32.44a.66.66,0,0,1-.33.09" style="fill:#ff671b;opacity:0.6000000238418579;isolation:isolate"/><path id="266a1b4b-90de-4290-b644-a63a3511c6db" data-name="Fill-364" d="M314.71,319.54l-23.22-13.4v-1.51L316,318.77l-.31.18-.08.05-.91.53" style="fill:#ff671b;opacity:0.6000000238418579;isolation:isolate"/><path id="78a4f00f-e840-4d57-be97-aceff538d588" data-name="Fill-365" d="M291.5,306.13l-.66-.38.32-.18.05,0h0a.65.65,0,0,0,.12-.12h0a.65.65,0,0,0,.15-.41v1.14" style="fill:#ff671b;opacity:0.6000000238418579;isolation:isolate"/><path id="af0d6242-c160-445e-b2e9-3513491d65bb" data-name="Fill-366" d="M315.72,320.12h0l-1-.57.91-.53a.67.67,0,0,0,.08,1.1h0" style="fill:#ff671b;opacity:0.6000000238418579;isolation:isolate"/><path id="618b8626-4343-4ff1-bcea-346a0cd49cbf" data-name="Fill-367" d="M267,319.53l-1-.55,0,0-.31-.18,24.53-14.16v1.51L267,319.53" style="fill:#ff671b;opacity:0.6000000238418579;isolation:isolate"/><path id="e95c9702-9b8a-4b57-ab16-69728f8a394c" data-name="Fill-368" d="M290.19,306.13V305a.66.66,0,0,0,1,.57l-.32.18-.66.38" style="fill:#ff671b;opacity:0.6000000238418579;isolation:isolate"/><path id="303af5e2-62f9-4b20-8ee4-1f36b7dfec5a" data-name="Fill-369" d="M266.73,319.68a.65.65,0,0,0-.32-.45l-.33-.19L266,319l1,.55-.24.14M266,319l-.08,0-.23-.14h0l.31.18" style="fill:#ff671b;opacity:0.6000000238418579;isolation:isolate"/><path id="d7c41b0f-e56b-4370-9582-22bdb1721957" data-name="Fill-371" d="M291,435.41h0m0,0h0m0,0,.09,0h0l.06,0-.16.07m-.18-1.39-.66-.38V370.26l.33.19a.66.66,0,0,0,.33.09h0a.66.66,0,0,0,.33-.09l.33-.19v63.37l-.66.38" style="fill:#ff671b;opacity:0.6000000238418579;isolation:isolate"/><path id="56c93c2a-d980-4900-8447-c371c2ea5d49" data-name="Fill-372" d="M347.36,402.9h0l.06,0-.07,0m.07,0h0m.12-.11h0m0,0a.66.66,0,0,0-.51-1.06.66.66,0,0,0-.33.09l-.33.19V338.57l1-.57h.08a.67.67,0,0,0,.22-.31.69.69,0,0,0,0-.18h0a.65.65,0,0,0,0-.26.64.64,0,0,0-.1-.16h0l0,0a.65.65,0,0,1,.19.46v64.89a.65.65,0,0,1-.14.41m0-65.76h0m-.12-.09h0m0,0,0,0h0l0,0" style="fill:#ff671b;opacity:0.6000000238418579;isolation:isolate"/><path id="56d0378e-f4b5-40a2-8c5c-50e0f7e1eb02" data-name="Fill-373" d="M234,402.55h0m0,0h0m0,0h0m0,0h0m0,0h0m0,0h0m0-.2V337.46h0a.66.66,0,0,0,.26.5h.07l1,.57v63.37l-.33-.19a.66.66,0,0,0-1,.55m0-65.07h0m0,0,0-.09,0,.06v0m0-.09h0" style="fill:#ff671b;opacity:0.6000000238418579;isolation:isolate"/><path id="c230926f-16e6-433b-a3be-ab7d2285a603" data-name="Fill-374" d="M290.84,370.54a.66.66,0,0,1-.33-.09l-.33-.19L235.3,338.57l-1-.57h0a.66.66,0,0,0,.35.1A.65.65,0,0,0,235,338l1-.57,54.88,31.69-.33.19a.66.66,0,0,0,.33,1.22h0M234.3,338h0m0,0h0m0,0h0m0,0h0m0,0h0m0,0a.64.64,0,0,1-.23-.32.7.7,0,0,0,.06.13.66.66,0,0,0,.17.2m-.26-.5h0m0,0h0m0,0a.65.65,0,0,1,0-.21h0v0a.65.65,0,0,0,0,.25m.15-.43a.65.65,0,0,1,.19-.16h0a.68.68,0,0,0-.18.15" style="fill:#ff671b;opacity:0.6000000238418579;isolation:isolate"/><path id="12a19648-aedd-4c26-854f-6ab8b44eada1" data-name="Fill-375" d="M347.39,338h0m0,0h0m0,0h0m0,0h0m0,0h0m0,0h0m0,0h0m.22-.31a.69.69,0,0,0,0-.18.69.69,0,0,1,0,.18m0-.18h0m0,0h0m-2,0-22.91-13.22-.06,0L316,320.29l1.31-.76,5.12,3,1.31.76,23.58,13.61h0a.65.65,0,0,0-.64,0l-1,.57" style="fill:#ff671b;opacity:0.6000000238418579;isolation:isolate"/><path id="f699bb07-effc-4717-bace-7762b864c2ff" data-name="Fill-376" d="M316,320.29l-.31-.18h0a.65.65,0,0,1-.33-.57.65.65,0,0,0,.09.32.65.65,0,0,0,.89.24l1-.56h0l-1.31.76" style="fill:#ff671b;opacity:0.6000000238418579;isolation:isolate"/><path id="db4bbcba-a412-4fe3-a028-907452a376b8" data-name="Fill-378" d="M290.84,435.43a.65.65,0,0,1-.26-.06.66.66,0,0,0,.27.06h0m.27-.06h0m-.53,0h0m.54,0h0m-.55,0h0m.56,0,0,0h0l-.06,0m-.62,0-24.73-14.28-1.31-.76-5.24-3-1.31-.76-23.59-13.62a.62.62,0,0,1-.16-.13.65.65,0,0,1-.13-.22h0a.67.67,0,0,1,0-.2.65.65,0,0,1,.09-.31.66.66,0,0,1,.9-.24l.33.19,23.58,13.61,0,0,7.16,4.13.07,0,24,13.88.66.38-.33.19a.66.66,0,0,0,0,1.13" style="fill:#ff671b;opacity:0.6000000238418579;isolation:isolate"/><path id="2fb97bf6-7074-4fb4-8f73-b0f202d3e6ea" data-name="Fill-379" d="M290.84,370.54h0a.66.66,0,0,1-.33-1.22l.33-.19,55.87-32.25a.65.65,0,0,1,.64,0l0,0h0l.11.09h0l0,0h0l.06.08,0,.08a.65.65,0,0,1,0,.26h0a.69.69,0,0,1,0,.18.67.67,0,0,1-.22.31h-.08l-1,.57L291.5,370.26l-.33.19a.66.66,0,0,1-.33.09" style="fill:#ff671b;opacity:0.6000000238418579;isolation:isolate"/><path id="252c8eea-9da2-4146-8d12-1b0850b0923a" data-name="Fill-380" d="M234.65,338.09a.66.66,0,0,1-.35-.1h0a.66.66,0,0,1-.17-.2.7.7,0,0,1-.06-.13.64.64,0,0,1,0-.18h0a.65.65,0,0,1,0-.25l0-.06h0l.07-.11a.68.68,0,0,1,.18-.15h0l23.58-13.61,1.31-.76,5.11-3,1.31.76-6.72,3.88-.07,0L236,337.44l-1,.57a.65.65,0,0,1-.33.09M266,319l0,0,0,0" style="fill:#ff671b;opacity:0.6000000238418579;isolation:isolate"/><path id="30550943-ef66-48b9-9992-a4299a7c033d" data-name="Fill-382" d="M290.84,435.43h0a.66.66,0,0,1-.27-.06h0l-.06,0a.66.66,0,0,1,0-1.13l.33-.19.66-.38,24-13.84.2-.12,30.71-17.73.33-.19a.66.66,0,0,1,.33-.09.66.66,0,0,1,.51,1.06h0l0,0-.09.08h0l-.06,0h0l-23.58,13.61-1.31.76-5.24,3-1.31.76-24.73,14.28h0l0,0h0l-.09,0h0l-.16,0" style="fill:#ff671b;opacity:0.6000000238418579;isolation:isolate"/><path id="d58bb2d0-0a6a-432e-bf0f-844ff23f8d6e" data-name="Fill-383" d="M265.86,320.41l-.1,0-.1-.06-1.31-.76-5.11-3-1-.6-.09-.06,7.77,4.48" style="fill:#ff671b;opacity:0.6000000238418579;isolation:isolate"/><path id="5f7f7706-7c6c-4791-93a1-e75b4a79cb8f" data-name="Fill-384" d="M265.65,320.3s-.39-.16-.54-.25l-7-4.13a.64.64,0,0,1-.18-.23.65.65,0,0,1,0-.56l0,0L258,315a.66.66,0,0,1,.84-.16l.3.17.09.05,6.42,3.71.23.14.2.11.33.19a.65.65,0,0,1,.32.45" style="fill:#ff671b;opacity:0.6000000238418579;isolation:isolate"/><path id="884cc8b1-148a-4fc5-80db-d11e22945328" data-name="Fill-385" d="M315.63,319l.08-.05.31-.18,6.44-3.72.45-.26.08,0L315.63,319" style="fill:#ff671b;opacity:0.6000000238418579;isolation:isolate"/><path id="4776b248-85de-4e1b-ba01-908dd7a00eb1" data-name="Fill-386" d="M316,320.18a.65.65,0,0,1-.57-.33.66.66,0,0,1,.16-.84l7.36-4.25a.65.65,0,0,1,.79.23l0,0a.65.65,0,0,1,0,.7.66.66,0,0,1-.21.19l-1.1.63-5.13,3-1,.56a.65.65,0,0,1-.33.09" style="fill:#ff671b;opacity:0.6000000238418579;isolation:isolate"/><path id="23ad518b-1580-4d89-872a-542543dda4c6" data-name="Fill-387" d="M290.84,305.65a.66.66,0,0,1-.66-.66V268.84l.32.18.06,0h0a.65.65,0,0,0,.26.06h0a.65.65,0,0,0,.26-.06h0l.06,0,.32-.18V305a.65.65,0,0,1-.15.41h0l-.12.12h0l-.05,0a.66.66,0,0,1-.32.08" style="fill:#ff671b;opacity:0.6000000238418579;isolation:isolate"/><path id="67ca4e59-92dd-4ac1-af0b-dc7ff363bccf" data-name="Fill-388" d="M347,273.94a.66.66,0,0,1-.66-.66V237.15l1-.57,0,0h0a.66.66,0,0,0,.27-.36.7.7,0,0,0,0-.17h0a.64.64,0,0,0,0-.26h0a.64.64,0,0,0-.09-.15h0l-.07-.07a.66.66,0,0,1,.21.48v37.27a.65.65,0,0,1-.31.56l0,0a.67.67,0,0,1-.31.08m.44-38.41h0m0,0h0m0,0h0m0,0h0m0,0h0m0,0h0m0,0-.08-.05h0l.09.06" style="fill:#ff671b;opacity:0.6000000238418579;isolation:isolate"/><path id="eebb3ea8-3a30-49b5-a928-4ae1f396f71a" data-name="Fill-389" d="M234.65,273.87a.66.66,0,0,1-.66-.66V236h0a.68.68,0,0,0,0,.17.65.65,0,0,0,.3.38l1,.57v36.06a.66.66,0,0,1-.66.66M234,235.81h0m0,0a.55.55,0,0,1,0-.11l0,.07h0v0m0-.11h0m0,0h0" style="fill:#ff671b;opacity:0.6000000238418579;isolation:isolate"/><path id="a62876a0-5535-4e76-bc19-12931184bd74" data-name="Fill-391" d="M290.19,268.84,235.3,237.15l-1-.57a.65.65,0,0,1-.3-.38.65.65,0,0,0,.63.46.65.65,0,0,0,.33-.09l1-.57,54.23,31.31v1.51" style="fill:#ff671b;opacity:0.6000000238418579;isolation:isolate"/><path id="35353bad-bcd0-459c-9740-0cffc818b44d" data-name="Fill-392" d="M290.51,269l-.32-.18v-.36a.66.66,0,0,0,.32.54m-.32-.59v-1.11l.66.38-.33.19a.65.65,0,0,0-.33.55" style="fill:#ff671b;opacity:0.6000000238418579;isolation:isolate"/><path id="3a5663e6-6156-4f40-b113-cc38ecd11485" data-name="Fill-394" d="M347.4,236.56h0m.27-.36a.68.68,0,0,0,0-.17.7.7,0,0,1,0,.17m0-.17h0m0,0h0m-2,0L291.5,204.71v-1.51l55.85,32.24h0a.65.65,0,0,0-.64,0l-1,.57" style="fill:#ff671b;opacity:0.6000000238418579;isolation:isolate"/><path id="f7d983b0-bc41-4f56-b576-a591bbbf30ee" data-name="Fill-395" d="M291.5,204.71l-.66-.38.33-.19a.65.65,0,0,0,.24-.9.64.64,0,0,0-.22-.23l.31.18v1.51" style="fill:#ff671b;opacity:0.6000000238418579;isolation:isolate"/><path id="94d5485c-4024-47de-91f1-916e9e940c36" data-name="Fill-398" d="M291.5,268.84v-1.51l55.21-31.88a.65.65,0,0,1,.64,0l.08.05h0l.07.07h0l0,.07,0,.07h0a.64.64,0,0,1,0,.26h0a.68.68,0,0,1,0,.17.66.66,0,0,1-.27.36h0l0,0-1,.57L291.5,268.84m-1.31-.36v0" style="fill:#ff671b;opacity:0.6000000238418579;isolation:isolate"/><path id="adf1b74e-f28b-4143-a060-42f2acf669cb" data-name="Fill-399" d="M290.84,269.11h0a.66.66,0,0,1-.27-.06h0l-.06,0a.66.66,0,0,1-.32-.54v0a.65.65,0,0,1,.33-.55l.33-.19.66-.38v1.51l-.32.18h0l0,0h0a.65.65,0,0,1-.26.06" style="fill:#ff671b;opacity:0.6000000238418579;isolation:isolate"/><path id="a29a925b-7c15-4937-8917-e5555a8e124c" data-name="Fill-400" d="M234.65,236.67a.65.65,0,0,1-.63-.46.68.68,0,0,1,0-.17h0a.67.67,0,0,1,0-.25h0l0-.07h0l.06-.08h0a.64.64,0,0,1,.18-.15h0l55.85-32.25v1.51L235,236.58a.65.65,0,0,1-.33.09" style="fill:#ff671b;opacity:0.6000000238418579;isolation:isolate"/><path id="077c97dd-17cf-4b1b-a3cc-1e5c6f56b331" data-name="Fill-401" d="M290.19,204.71v-1.51l.31-.18h0l.1,0a.66.66,0,0,1,.22,0h0a.64.64,0,0,1,.22,0h0l.12.06a.64.64,0,0,1,.22.23.65.65,0,0,1-.24.9l-.33.19-.66.38" style="fill:#ff671b;opacity:0.6000000238418579;isolation:isolate"/></g></g></g></g></g></g></g></g></svg>