<svg xmlns="http://www.w3.org/2000/svg" width="582" height="743.32" viewBox="0 0 582 743.32"><title>jb-static</title><g id="6a8e0ac4-3460-444d-a629-014f5038479b" data-name="Слой 2"><g id="30441c1a-57ce-47ab-b40e-44ba69bd0b19" data-name="Слой 1"><g id="291d6e66-2c2d-4135-ba4e-1654f80c998c" data-name="JAVA-ENGINEERING"><g id="a13e5a01-d99e-47ae-b135-753ce15a8e64" data-name="Java-Engineering"><g id="acd86ba1-41b2-4244-b85f-0f4aea84b88d" data-name="Schemes"><g id="ddb23c2e-557b-4e88-bb28-18029abd38ab" data-name="Reenginiring-&amp;-Microservices"><g id="304eb7b0-8ca6-4dde-b498-defdbbbf32fd" data-name="Scheme"><g id="fdc4e765-34a2-4246-98bc-ed39ec3a7c99" data-name="Static"><g id="13e45a1b-ba07-4721-9c65-de3a886c55f0" data-name="Static Bottom" style="opacity:0.6000000238418579"><path id="ffec97c9-8c9c-46a9-8724-1b773b245d4c" data-name="Fill-1" d="M167.08,646.73V672.2a.66.66,0,1,0,1.31,0V646.73a.66.66,0,1,0-1.31,0" style="fill:#0a0b09"/><path id="a990aec5-a337-48e2-ab28-0b7cd4667bff" data-name="Fill-2" d="M189.14,645.07v3.27a.66.66,0,1,0,1.31,0v-3.27a.66.66,0,1,0-1.31,0" style="fill:#0a0b09"/><path id="4509d92d-a4ff-478a-8c00-4c50446f3365" data-name="Fill-3" d="M145,634v25.48a.66.66,0,0,0,1.31,0V634a.66.66,0,1,0-1.31,0" style="fill:#0a0b09"/><path id="e6c03b4a-c259-44e7-908c-9786c6857f4b" data-name="Fill-4" d="M145.34,634.56l22.06,12.74a.66.66,0,0,0,.65-1.14L146,633.42a.66.66,0,1,0-.65,1.14" style="fill:#0a0b09"/><path id="54bc415b-67dc-40f2-b34c-0f90becd0969" data-name="Fill-5" d="M177.25,627.5l2.83,1.63a.66.66,0,0,0,.65-1.14l-2.83-1.63a.66.66,0,0,0-.65,1.14" style="fill:#0a0b09"/><path id="6c965460-b218-42b5-af1f-8dbc9dc2aafe" data-name="Fill-6" d="M145.34,660l22.06,12.74a.66.66,0,0,0,.65-1.14L146,658.9a.66.66,0,0,0-.65,1.14" style="fill:#0a0b09"/><path id="c8063377-aab7-4573-8100-6344d14f4b5f" data-name="Fill-7" d="M168.06,647.3,180.73,640a.66.66,0,1,0-.66-1.14l-12.67,7.32a.66.66,0,0,0,.66,1.14" style="fill:#0a0b09"/><path id="3caea66e-820a-4fab-a2ad-377bb1180864" data-name="Fill-8" d="M146,634.56l12.2-7a.66.66,0,0,0-.66-1.14l-12.2,7a.66.66,0,1,0,.66,1.14" style="fill:#0a0b09"/><path id="6d3d5f0c-7a9e-4d16-91a4-0c9ecea58696" data-name="Fill-9" d="M168.06,672.77l12.67-7.31a.66.66,0,1,0-.66-1.14l-12.67,7.31a.66.66,0,0,0,.66,1.14" style="fill:#0a0b09"/><path id="a52bc92b-5924-4bf7-96da-387d8685fa61" data-name="Fill-10" d="M167.08,607.14v25.48a.66.66,0,1,0,1.31,0V607.14a.66.66,0,1,0-1.31,0" style="fill:#0a0b09"/><path id="ee701398-1663-46b9-a378-024212213099" data-name="Fill-11" d="M189.14,594.4v14.35a.66.66,0,1,0,1.31,0V594.4a.66.66,0,1,0-1.31,0" style="fill:#0a0b09"/><path id="f62890cc-b3ba-426c-aa97-1490e5dc0eee" data-name="Fill-12" d="M145,594.4v25.48a.66.66,0,0,0,1.31,0V594.4a.66.66,0,1,0-1.31,0" style="fill:#0a0b09"/><path id="2e2d88e5-9ab7-4e32-8f35-eaf7de68d607" data-name="Fill-13" d="M145.34,595l22.06,12.74a.66.66,0,0,0,.65-1.14L146,593.83a.66.66,0,1,0-.65,1.14" style="fill:#0a0b09"/><path id="30c27127-f359-4b54-98a4-c26d1df0a14b" data-name="Fill-14" d="M167.51,582.17l22,12.68a.66.66,0,1,0,.66-1.14l-22-12.68a.66.66,0,0,0-.66,1.14" style="fill:#0a0b09"/><path id="162d7dd5-919e-4045-986c-9a19c0c514bc" data-name="Fill-15" d="M145.34,620.44l22.06,12.74a.66.66,0,0,0,.65-1.14L146,619.31a.66.66,0,1,0-.65,1.14" style="fill:#0a0b09"/><path id="1918be74-168f-44d2-b9dc-d7279c1a4a1b" data-name="Fill-16" d="M168.06,607.71,190.13,595a.66.66,0,0,0-.66-1.14l-22.06,12.74a.66.66,0,0,0,.65,1.14" style="fill:#0a0b09"/><path id="d06ff9b7-e4ae-4733-b16c-dfef98fff525" data-name="Fill-17" d="M146,595l22.17-12.8a.66.66,0,0,0-.66-1.14l-22.17,12.8A.66.66,0,1,0,146,595" style="fill:#0a0b09"/><path id="890fbf44-0563-4b1c-a2a6-832636cbeb95" data-name="Fill-18" d="M168.06,633.18l12.67-7.32a.66.66,0,0,0-.66-1.14L167.41,632a.66.66,0,0,0,.66,1.14" style="fill:#0a0b09"/><path id="4671f718-a0bb-4bf5-8f9b-653ab31621e5" data-name="Fill-19" d="M201.81,666.49V692a.66.66,0,1,0,1.31,0V666.49a.66.66,0,1,0-1.31,0" style="fill:#0a0b09"/><path id="f6339a90-f8cc-45da-b76c-7875ddffa02f" data-name="Fill-20" d="M223.88,653.76v25.48a.66.66,0,0,0,1.31,0V653.76a.66.66,0,1,0-1.31,0" style="fill:#0a0b09"/><path id="34ec78bd-1def-4ead-9a34-9e036c8523ca" data-name="Fill-21" d="M179.75,653.76v25.48a.66.66,0,0,0,1.31,0V653.76a.66.66,0,1,0-1.31,0" style="fill:#0a0b09"/><path id="53186119-4c82-4987-bb4f-34e5ce40baab" data-name="Fill-22" d="M180.08,654.32l22.06,12.74a.66.66,0,0,0,.66-1.14l-22.06-12.74a.65.65,0,1,0-.65,1.13" style="fill:#0a0b09"/><path id="6c40521c-918f-4065-b9bf-0019132cc75a" data-name="Fill-23" d="M212,647.27l12.23,7.06a.66.66,0,0,0,.66-1.14l-12.23-7.06a.66.66,0,0,0-.66,1.14" style="fill:#0a0b09"/><path id="325691a1-ad13-4065-8f08-9280778792d6" data-name="Fill-24" d="M180.08,679.8l22.06,12.74a.66.66,0,0,0,.66-1.14l-22.06-12.74a.66.66,0,0,0-.65,1.14" style="fill:#0a0b09"/><path id="17fc5fc1-3883-438c-ab42-616ddbe00f33" data-name="Fill-25" d="M202.8,667.06l22.06-12.74a.66.66,0,1,0-.66-1.13l-22.06,12.74a.66.66,0,0,0,.66,1.14" style="fill:#0a0b09"/><path id="1c95e952-3fa9-4d3e-88e9-75d74d884a2a" data-name="Fill-26" d="M180.73,654.32,193,647.27a.66.66,0,0,0-.66-1.14l-12.22,7.06a.66.66,0,0,0,.65,1.14" style="fill:#0a0b09"/><path id="9d90fbfb-cbfc-4589-ad94-50e667f17f1d" data-name="Fill-27" d="M202.8,692.54l22.06-12.74a.66.66,0,0,0-.66-1.14L202.14,691.4a.66.66,0,0,0,.66,1.14" style="fill:#0a0b09"/><path id="59ba98c5-5bb2-4a31-aad2-e207b7f593de" data-name="Fill-28" d="M201.81,626.91v25.48a.66.66,0,1,0,1.31,0V626.91a.66.66,0,1,0-1.31,0" style="fill:#0a0b09"/><path id="5aaefac6-8fee-4eb4-97ab-0214831df896" data-name="Fill-29" d="M223.88,614.17v25.48a.66.66,0,0,0,1.31,0V614.17a.66.66,0,1,0-1.31,0" style="fill:#0a0b09"/><path id="70009231-3271-477b-9e87-ee0a91634370" data-name="Fill-30" d="M179.75,614.17v25.48a.66.66,0,0,0,1.31,0V614.17a.66.66,0,1,0-1.31,0" style="fill:#0a0b09"/><path id="11aca947-add3-4207-a59f-11a9c0680c9e" data-name="Fill-31" d="M180.08,614.74l22.06,12.74a.66.66,0,0,0,.66-1.14L180.73,613.6a.66.66,0,0,0-.65,1.14" style="fill:#0a0b09"/><path id="d48f2e25-2f70-4408-baef-6711536612b2" data-name="Fill-32" d="M202.14,602l22.06,12.74a.66.66,0,0,0,.66-1.14L202.8,600.86a.66.66,0,0,0-.66,1.14" style="fill:#0a0b09"/><path id="e1d69ffb-96c2-48b0-a928-9962e3bc5b4b" data-name="Fill-33" d="M180.08,640.21,202.14,653a.66.66,0,0,0,.66-1.14l-22.06-12.74a.66.66,0,0,0-.65,1.14" style="fill:#0a0b09"/><path id="27f8deed-a3b0-4265-ab85-3a431cdc077f" data-name="Fill-34" d="M202.8,627.47l22.06-12.74a.66.66,0,1,0-.66-1.14l-22.06,12.74a.66.66,0,0,0,.66,1.14" style="fill:#0a0b09"/><path id="5c122141-57ad-4903-b85c-5688710a7fdd" data-name="Fill-35" d="M180.73,614.74,202.8,602a.66.66,0,1,0-.66-1.14L180.08,613.6a.66.66,0,0,0,.65,1.14" style="fill:#0a0b09"/><path id="e9a2d338-b4e8-483c-91dd-0bfa710653f2" data-name="Fill-36" d="M202.8,653l22.06-12.74a.66.66,0,0,0-.66-1.14l-22.06,12.74a.66.66,0,0,0,.66,1.14" style="fill:#0a0b09"/><path id="cf1e53c0-c2d2-492e-aa42-235a1cc82ccb" data-name="Fill-37" d="M413.22,646.73V672.2a.66.66,0,1,0,1.31,0V646.73a.66.66,0,1,0-1.31,0" style="fill:#0a0b09"/><path id="79697a75-9e18-461b-8cdd-f28acc253474" data-name="Fill-38" d="M435.28,634v25.48a.66.66,0,1,0,1.31,0V634a.66.66,0,1,0-1.31,0" style="fill:#0a0b09"/><path id="c61f103a-f73d-4298-920f-ee8c8b17ec50" data-name="Fill-39" d="M391.16,645.07v3.27a.66.66,0,1,0,1.31,0v-3.27a.66.66,0,1,0-1.31,0" style="fill:#0a0b09"/><path id="bcdfee37-9f77-4520-9c4d-3dbe1c4064f8" data-name="Fill-40" d="M400.87,640l12.67,7.32a.66.66,0,0,0,.66-1.14l-12.67-7.32a.66.66,0,1,0-.66,1.14" style="fill:#0a0b09"/><path id="ad249740-0090-48dc-9156-2e0efcad62e5" data-name="Fill-41" d="M423.39,627.5l12.22,7.06a.66.66,0,0,0,.66-1.14L424,626.36a.66.66,0,1,0-.66,1.14" style="fill:#0a0b09"/><path id="24c277de-c95b-4dec-af20-5175597196f3" data-name="Fill-42" d="M400.87,665.45l12.67,7.32a.66.66,0,0,0,.66-1.14l-12.67-7.32a.66.66,0,1,0-.66,1.14" style="fill:#0a0b09"/><path id="0a431ffa-2b0f-4523-b972-c1640747e1d8" data-name="Fill-43" d="M414.2,647.3l22.06-12.74a.66.66,0,0,0-.65-1.14l-22.06,12.74a.66.66,0,1,0,.66,1.14" style="fill:#0a0b09"/><path id="a36373b0-c7f2-4bc8-af5a-e39c7cfdb4a1" data-name="Fill-44" d="M401.53,629.13l2.83-1.63a.66.66,0,0,0-.66-1.14L400.88,628a.66.66,0,0,0,.66,1.14" style="fill:#0a0b09"/><path id="2f9ee54c-9ae2-46e6-955f-45bb4b6c32dc" data-name="Fill-45" d="M414.2,672.77,436.27,660a.66.66,0,0,0-.65-1.14l-22.06,12.74a.66.66,0,1,0,.66,1.14" style="fill:#0a0b09"/><path id="c79be967-7a50-4db7-ba94-9f449a9d7df1" data-name="Fill-46" d="M413.22,607.14v25.48a.66.66,0,1,0,1.31,0V607.14a.66.66,0,1,0-1.31,0" style="fill:#0a0b09"/><path id="f362a4f5-76aa-4b53-8301-04af51253d2d" data-name="Fill-47" d="M435.28,594.4v25.48a.66.66,0,1,0,1.31,0V594.4a.66.66,0,1,0-1.31,0" style="fill:#0a0b09"/><path id="39b19cf3-1d0d-4611-8d6f-e148739c3615" data-name="Fill-48" d="M391.16,594.4v14.35a.66.66,0,1,0,1.31,0V594.4a.66.66,0,1,0-1.31,0" style="fill:#0a0b09"/><path id="f7f26f16-b86f-4fce-a354-d04d39321afe" data-name="Fill-49" d="M391.48,595l22.06,12.74a.66.66,0,0,0,.66-1.14l-22.06-12.74a.66.66,0,1,0-.66,1.14" style="fill:#0a0b09"/><path id="791e0913-e121-474d-9c42-8ca23b81c4f4" data-name="Fill-50" d="M413.44,582.17,435.61,595a.66.66,0,0,0,.66-1.14L414.1,581a.66.66,0,1,0-.66,1.14" style="fill:#0a0b09"/><path id="71d806d9-71c7-4053-9aa6-4eb03c99cfbf" data-name="Fill-51" d="M400.88,625.87l12.67,7.32a.66.66,0,0,0,.66-1.14l-12.67-7.32a.66.66,0,1,0-.66,1.14" style="fill:#0a0b09"/><path id="965e90ab-7dbe-465b-aaf0-a33666cd9963" data-name="Fill-52" d="M414.2,607.71,436.27,595a.66.66,0,0,0-.65-1.14l-22.06,12.74a.66.66,0,1,0,.66,1.14" style="fill:#0a0b09"/><path id="bb215eab-def4-4c77-aa82-4e879f812ad5" data-name="Fill-53" d="M392.14,594.85l22-12.68a.66.66,0,0,0-.66-1.14l-22,12.68a.66.66,0,1,0,.66,1.14" style="fill:#0a0b09"/><path id="0fa63f12-69bb-4e50-8244-47b030407250" data-name="Fill-54" d="M414.2,633.18l22.06-12.74a.66.66,0,0,0-.65-1.14L413.55,632a.66.66,0,1,0,.66,1.14" style="fill:#0a0b09"/><path id="a31d641c-7ade-4b2b-8743-f1bcc2951281" data-name="Fill-55" d="M378.48,666.49V692a.66.66,0,1,0,1.31,0V666.49a.66.66,0,1,0-1.31,0" style="fill:#0a0b09"/><path id="42ece869-c28a-4d4a-bbf8-0b6bf1d0f54f" data-name="Fill-56" d="M400.55,653.76v25.48a.66.66,0,0,0,1.31,0V653.76a.66.66,0,1,0-1.31,0" style="fill:#0a0b09"/><path id="3f671d15-bba1-4659-b29a-ed1fdda81c16" data-name="Fill-57" d="M356.42,653.76v25.48a.66.66,0,0,0,1.31,0V653.76a.66.66,0,1,0-1.31,0" style="fill:#0a0b09"/><path id="975fb967-b73c-4dfd-871c-58cce64c39bf" data-name="Fill-58" d="M356.75,654.32l22.06,12.74a.66.66,0,1,0,.66-1.14L357.4,653.19a.65.65,0,0,0-.65,1.13" style="fill:#0a0b09"/><path id="2ddb0a7a-3764-4026-914c-9331cd13fa12" data-name="Fill-59" d="M388.65,647.27l12.23,7.06a.66.66,0,0,0,.66-1.14l-12.23-7.06a.66.66,0,0,0-.66,1.14" style="fill:#0a0b09"/><path id="7ccf30c1-9e32-44f4-89f1-2d41fce8dd5c" data-name="Fill-60" d="M356.75,679.8l22.06,12.74a.66.66,0,1,0,.66-1.14L357.4,678.67a.66.66,0,0,0-.65,1.14" style="fill:#0a0b09"/><path id="824df629-4027-47b5-9c9c-8a9271b492b6" data-name="Fill-61" d="M379.47,667.06l22.06-12.74a.66.66,0,1,0-.66-1.13l-22.06,12.74a.66.66,0,0,0,.66,1.14" style="fill:#0a0b09"/><path id="71881ca6-5267-43b9-9d24-4d8c0096b533" data-name="Fill-62" d="M357.4,654.32l12.22-7.06a.66.66,0,0,0-.66-1.14l-12.22,7.06a.66.66,0,0,0,.65,1.14" style="fill:#0a0b09"/><path id="7200190b-37a5-4ebc-9ecf-a19ff0c6a241" data-name="Fill-63" d="M379.47,692.54l22.06-12.74a.66.66,0,0,0-.66-1.14L378.81,691.4a.66.66,0,0,0,.66,1.14" style="fill:#0a0b09"/><path id="bd7a4521-cb11-4dd0-99d8-10c5a8e2f427" data-name="Fill-64" d="M378.48,626.91v25.48a.66.66,0,1,0,1.31,0V626.91a.66.66,0,1,0-1.31,0" style="fill:#0a0b09"/><path id="815636f4-3b3a-42f4-b054-b488f822fe07" data-name="Fill-65" d="M400.55,614.17v25.48a.66.66,0,0,0,1.31,0V614.17a.66.66,0,0,0-1.31,0" style="fill:#0a0b09"/><path id="53a714ee-b948-4181-b4a5-e8d51877e20b" data-name="Fill-66" d="M356.42,614.17v25.48a.66.66,0,0,0,1.31,0V614.17a.66.66,0,1,0-1.31,0" style="fill:#0a0b09"/><path id="aa86f7ee-e043-41c5-813d-8a88db697846" data-name="Fill-67" d="M356.75,614.74l22.06,12.74a.66.66,0,1,0,.66-1.14L357.4,613.6a.66.66,0,0,0-.65,1.14" style="fill:#0a0b09"/><path id="f0c3d43c-b98a-41cc-a2a4-8ba25224cc59" data-name="Fill-68" d="M378.81,602l22.06,12.74a.66.66,0,0,0,.66-1.14l-22.06-12.74a.66.66,0,1,0-.66,1.14" style="fill:#0a0b09"/><path id="4cf504a9-b666-492e-8798-8851fee31af1" data-name="Fill-69" d="M356.75,640.21,378.81,653a.66.66,0,1,0,.66-1.14L357.4,639.08a.66.66,0,0,0-.65,1.14" style="fill:#0a0b09"/><path id="bf07ba54-fb50-404d-8303-cdeb56c342c8" data-name="Fill-70" d="M379.47,627.47l22.06-12.74a.66.66,0,0,0-.66-1.14l-22.06,12.74a.66.66,0,0,0,.66,1.14" style="fill:#0a0b09"/><path id="6efd268f-10af-4e9e-92d1-ea8d52625b55" data-name="Fill-71" d="M357.4,614.74,379.47,602a.66.66,0,1,0-.66-1.14L356.75,613.6a.66.66,0,0,0,.65,1.14" style="fill:#0a0b09"/><path id="0db7d705-a178-4ffc-96a7-d1a3a37a09c6" data-name="Fill-72" d="M379.47,653l22.06-12.74a.66.66,0,0,0-.66-1.14l-22.06,12.74a.66.66,0,0,0,.66,1.14" style="fill:#0a0b09"/><path id="ef1ea8b3-7616-4098-b81b-3f78bb7155b4" data-name="Fill-73" d="M167.5,545.76v25.48a.66.66,0,1,0,1.31,0V545.76a.66.66,0,1,0-1.31,0" style="fill:#0a0b09"/><path id="a3bcf646-4cf3-41ad-be56-570d02fc4100" data-name="Fill-74" d="M189.57,544.1v3.27a.66.66,0,1,0,1.31,0V544.1a.66.66,0,0,0-1.31,0" style="fill:#0a0b09"/><path id="c5721bcd-b1c5-457f-8043-e9db8a96bf65" data-name="Fill-75" d="M145.44,533V558.5a.66.66,0,1,0,1.31,0V533a.66.66,0,1,0-1.31,0" style="fill:#0a0b09"/><path id="d0c7afd2-578f-44ca-967c-ddfb33018751" data-name="Fill-76" d="M145.76,533.59l22.07,12.74a.66.66,0,0,0,.66-1.14l-22.07-12.74a.66.66,0,0,0-.66,1.14" style="fill:#0a0b09"/><path id="f8d15dff-c688-40a2-a310-7e2635f6f7c9" data-name="Fill-77" d="M177.68,526.53l2.83,1.63a.66.66,0,0,0,.66-1.14l-2.83-1.63a.66.66,0,0,0-.66,1.14" style="fill:#0a0b09"/><path id="b2164c08-0baf-469c-8a60-66848f3a3873" data-name="Fill-78" d="M145.76,559.07l22.07,12.74a.66.66,0,1,0,.66-1.14l-22.07-12.74a.66.66,0,0,0-.66,1.14" style="fill:#0a0b09"/><path id="c9a99dee-824b-4438-bcc9-b88c37b5b649" data-name="Fill-79" d="M168.49,546.33,181.16,539a.66.66,0,1,0-.66-1.14l-12.67,7.32a.66.66,0,0,0,.66,1.14" style="fill:#0a0b09"/><path id="e304d09e-4f82-4b3e-ae79-aec2f12573e2" data-name="Fill-80" d="M146.42,533.59l12.2-7a.66.66,0,0,0-.66-1.14l-12.2,7a.66.66,0,0,0,.66,1.14" style="fill:#0a0b09"/><path id="167e16f4-cabe-441e-865e-7ce7e1f6b0b9" data-name="Fill-81" d="M168.49,571.81l12.67-7.32a.66.66,0,0,0-.66-1.14l-12.67,7.32a.66.66,0,1,0,.66,1.14" style="fill:#0a0b09"/><path id="cfc49d46-ffea-479a-9c5f-25531f086cd6" data-name="Fill-82" d="M167.5,506.16v25.48a.66.66,0,0,0,1.31,0V506.16a.66.66,0,0,0-1.31,0" style="fill:#0a0b09"/><path id="f4c900e0-0351-480e-9b3e-8b6085a64ee3" data-name="Fill-83" d="M189.57,493.42v14.35a.66.66,0,1,0,1.31,0V493.42a.66.66,0,1,0-1.31,0" style="fill:#0a0b09"/><path id="425b80f5-4852-4162-9bb3-74058978788e" data-name="Fill-84" d="M145.44,493.42V518.9a.66.66,0,0,0,1.31,0V493.42a.66.66,0,1,0-1.31,0" style="fill:#0a0b09"/><path id="f6643e83-1991-4c15-b6d2-a9ebe719569d" data-name="Fill-85" d="M145.76,494l22.07,12.74a.66.66,0,1,0,.66-1.14l-22.07-12.74a.66.66,0,0,0-.66,1.14" style="fill:#0a0b09"/><path id="95ff3c13-1748-4209-ae91-6dd1fb5e1cb6" data-name="Fill-86" d="M167.94,481.19l22,12.68a.66.66,0,0,0,.66-1.14l-22-12.68a.66.66,0,0,0-.66,1.14" style="fill:#0a0b09"/><path id="af00bd50-6e55-4e59-bb5f-f3bd925a626a" data-name="Fill-87" d="M145.76,519.47l22.07,12.74a.66.66,0,1,0,.66-1.14l-22.07-12.74a.66.66,0,0,0-.66,1.14" style="fill:#0a0b09"/><path id="7637ebec-a4c4-4cb9-8d29-65a884fc1b74" data-name="Fill-88" d="M168.49,506.73,190.56,494a.66.66,0,0,0-.66-1.14L167.83,505.6a.66.66,0,1,0,.66,1.14" style="fill:#0a0b09"/><path id="e24de8bb-75eb-4e35-8a71-e747fdb0dab3" data-name="Fill-89" d="M146.42,494l22.17-12.8a.66.66,0,0,0-.66-1.14l-22.17,12.8a.66.66,0,0,0,.66,1.14" style="fill:#0a0b09"/><path id="f4c47dd8-44f4-4585-bd99-48209e898ebb" data-name="Fill-90" d="M168.49,532.21l12.68-7.32a.66.66,0,1,0-.66-1.14l-12.68,7.32a.66.66,0,1,0,.66,1.14" style="fill:#0a0b09"/><path id="ac590804-5f89-40bb-b1e7-a1fac079d689" data-name="Fill-91" d="M202.25,565.54V591a.66.66,0,1,0,1.31,0V565.54a.66.66,0,1,0-1.31,0" style="fill:#0a0b09"/><path id="e0f07260-b250-4de0-8ee7-c81a1dacc999" data-name="Fill-92" d="M224.32,552.79v25.48a.66.66,0,1,0,1.31,0V552.79a.66.66,0,0,0-1.31,0" style="fill:#0a0b09"/><path id="21a0cbcf-6766-4728-9a5f-70e0465b6599" data-name="Fill-93" d="M180.18,552.79v25.48a.66.66,0,1,0,1.31,0V552.79a.66.66,0,0,0-1.31,0" style="fill:#0a0b09"/><path id="6443890d-5bd8-409b-b654-92cc2d6defec" data-name="Fill-94" d="M180.51,553.36l22.07,12.74a.66.66,0,1,0,.66-1.14l-22.07-12.74a.66.66,0,1,0-.66,1.14" style="fill:#0a0b09"/><path id="0d1f11b1-178b-41f5-affb-f2933e3191c9" data-name="Fill-95" d="M212.42,546.3l12.23,7.06a.66.66,0,0,0,.66-1.14l-12.23-7.06a.66.66,0,1,0-.66,1.14" style="fill:#0a0b09"/><path id="77fa1386-8d0d-4838-9c33-dbad1e8fd8af" data-name="Fill-96" d="M180.51,578.84l22.07,12.74a.66.66,0,0,0,.66-1.14l-22.07-12.74a.66.66,0,0,0-.66,1.14" style="fill:#0a0b09"/><path id="396dd29d-a9a7-4776-b5b5-cc45c91aec52" data-name="Fill-97" d="M203.23,566.1l22.07-12.74a.66.66,0,0,0-.66-1.14L202.58,565a.66.66,0,1,0,.66,1.14" style="fill:#0a0b09"/><path id="0654f535-a457-4785-906e-23b579a94f70" data-name="Fill-98" d="M181.16,553.36l12.22-7.06a.66.66,0,0,0-.66-1.14l-12.22,7.06a.66.66,0,1,0,.66,1.14" style="fill:#0a0b09"/><path id="d72ee309-04df-4a45-bd2b-d69ceb069fb8" data-name="Fill-99" d="M203.23,591.59l22.07-12.74a.66.66,0,0,0-.66-1.14l-22.07,12.74a.66.66,0,0,0,.66,1.14" style="fill:#0a0b09"/><path id="6702acce-e7e3-4771-a507-2ac7b01b8f3d" data-name="Fill-100" d="M202.25,525.94v25.48a.66.66,0,1,0,1.31,0V525.94a.66.66,0,1,0-1.31,0" style="fill:#0a0b09"/><path id="ec7d592b-2a89-42e1-a546-4385b614031e" data-name="Fill-101" d="M224.32,513.19v25.48a.66.66,0,1,0,1.31,0V513.19a.66.66,0,0,0-1.31,0" style="fill:#0a0b09"/><path id="455e1ce5-5807-4db0-9db5-cf530736b39d" data-name="Fill-102" d="M180.18,513.19v25.48a.66.66,0,1,0,1.31,0V513.19a.66.66,0,0,0-1.31,0" style="fill:#0a0b09"/><path id="ffb10fc4-e309-43c4-a2cf-06d9864a2f25" data-name="Fill-103" d="M180.51,513.76l22.07,12.74a.66.66,0,0,0,.66-1.14l-22.07-12.74a.66.66,0,0,0-.66,1.14" style="fill:#0a0b09"/><path id="8bb52411-a8cd-455c-b39b-feef5dcae96c" data-name="Fill-104" d="M202.58,501l22.07,12.74a.66.66,0,0,0,.66-1.14l-22.07-12.74a.66.66,0,1,0-.66,1.14" style="fill:#0a0b09"/><path id="90e428dd-b965-4385-a1eb-a9c3917a293f" data-name="Fill-105" d="M180.51,539.25,202.58,552a.66.66,0,1,0,.66-1.14l-22.07-12.74a.66.66,0,1,0-.66,1.14" style="fill:#0a0b09"/><path id="505f4033-a41a-4dec-b521-14972e819f5b" data-name="Fill-106" d="M203.23,526.5l22.07-12.74a.66.66,0,0,0-.66-1.14l-22.07,12.74a.66.66,0,1,0,.66,1.14" style="fill:#0a0b09"/><path id="488cee0e-5c99-4ef0-a9a0-db10ab87f547" data-name="Fill-107" d="M181.16,513.76,203.23,501a.66.66,0,1,0-.66-1.14l-22.07,12.74a.66.66,0,0,0,.66,1.14" style="fill:#0a0b09"/><path id="27ab0d86-481f-4514-92f7-beb8e2ae56f9" data-name="Fill-108" d="M203.23,552l22.07-12.74a.66.66,0,0,0-.66-1.14l-22.07,12.74a.66.66,0,1,0,.66,1.14" style="fill:#0a0b09"/><path id="b70e78cf-4152-4680-9c6a-c49864ab41e8" data-name="Fill-109" d="M412.66,545.5v25.39a.66.66,0,1,0,1.31,0V545.5a.66.66,0,1,0-1.31,0" style="fill:#0a0b09"/><path id="284d15a8-20ab-4f44-9f5f-2c38e013c21a" data-name="Fill-110" d="M434.64,532.8v25.39a.66.66,0,0,0,1.31,0V532.8a.66.66,0,0,0-1.31,0" style="fill:#0a0b09"/><path id="4969171e-eaef-4270-ae50-6b3acc88729a" data-name="Fill-111" d="M390.67,543.84v3.26a.66.66,0,0,0,1.31,0v-3.26a.66.66,0,1,0-1.31,0" style="fill:#0a0b09"/><path id="7e6f900a-e912-46cc-a418-52ee0fe570be" data-name="Fill-112" d="M400.36,538.77,413,546.06a.66.66,0,0,0,.66-1.14L401,537.64a.66.66,0,0,0-.66,1.14" style="fill:#0a0b09"/><path id="6ed5343d-17dd-45d5-804c-b1fa89a3c168" data-name="Fill-113" d="M422.79,526.34l12.18,7a.66.66,0,0,0,.66-1.14l-12.18-7a.66.66,0,0,0-.66,1.14" style="fill:#0a0b09"/><path id="206b9676-2be8-4f48-99f0-a0714bf6bd81" data-name="Fill-114" d="M400.36,564.16,413,571.45a.66.66,0,0,0,.66-1.14L401,563a.66.66,0,0,0-.66,1.14" style="fill:#0a0b09"/><path id="69ca8aee-28fe-4691-9595-e8206ed04bec" data-name="Fill-115" d="M413.64,546.06l22-12.69a.66.66,0,0,0-.66-1.14l-22,12.69a.66.66,0,0,0,.65,1.14" style="fill:#0a0b09"/><path id="79f9d747-e41f-4e13-b6e8-e964da60c618" data-name="Fill-116" d="M401,528l2.82-1.63a.66.66,0,0,0-.66-1.14l-2.82,1.63A.66.66,0,0,0,401,528" style="fill:#0a0b09"/><path id="58a75bcd-f725-4c48-a1c4-cc5aeae789d2" data-name="Fill-117" d="M413.64,571.45l22-12.69a.66.66,0,0,0-.66-1.14l-22,12.69a.66.66,0,0,0,.65,1.14" style="fill:#0a0b09"/><path id="e66b9d4c-5850-480d-940e-a4cbfca5a4bb" data-name="Fill-118" d="M412.66,506v25.39a.66.66,0,1,0,1.31,0V506a.66.66,0,1,0-1.31,0" style="fill:#0a0b09"/><path id="cd7d1c06-1105-4bfb-90c2-b799e4f5fe3f" data-name="Fill-119" d="M434.64,493.35v25.39a.66.66,0,0,0,1.31,0V493.35a.66.66,0,0,0-1.31,0" style="fill:#0a0b09"/><path id="aa60eea0-db0d-41d1-8f0c-9f4a71c7e481" data-name="Fill-120" d="M390.67,493.35v14.3a.66.66,0,0,0,1.31,0v-14.3a.66.66,0,0,0-1.31,0" style="fill:#0a0b09"/><path id="0c64f9b1-c696-467a-acce-85b7ad6ebdf4" data-name="Fill-121" d="M391,493.92l22,12.69a.66.66,0,0,0,.66-1.14l-22-12.69a.66.66,0,1,0-.66,1.14" style="fill:#0a0b09"/><path id="f80591a0-f721-4774-9e48-26dfcc06ba98" data-name="Fill-122" d="M412.88,481.17,435,493.92a.66.66,0,0,0,.66-1.14L413.54,480a.66.66,0,1,0-.65,1.14" style="fill:#0a0b09"/><path id="2c2399f7-8018-4f57-8a11-4af3bb7c6c8f" data-name="Fill-123" d="M400.36,524.71,413,532a.66.66,0,0,0,.66-1.14L401,523.58a.66.66,0,0,0-.66,1.14" style="fill:#0a0b09"/><path id="3950ddaa-b28f-4309-bf01-62c73847e534" data-name="Fill-124" d="M413.64,506.62l22-12.69a.66.66,0,0,0-.66-1.14l-22,12.69a.66.66,0,0,0,.66,1.14" style="fill:#0a0b09"/><path id="873753b1-5196-4f0b-b1c0-4050e9ad53cd" data-name="Fill-125" d="M391.66,493.8l21.88-12.63a.66.66,0,0,0-.65-1.14L391,492.66a.66.66,0,0,0,.65,1.14" style="fill:#0a0b09"/><path id="5bb2aac6-4d9b-4e16-b247-7edd05cd5860" data-name="Fill-126" d="M413.64,532l22-12.69a.66.66,0,0,0-.66-1.14l-22,12.69a.66.66,0,0,0,.65,1.14" style="fill:#0a0b09"/><path id="650c1977-638a-40d3-bbd6-2180070aa9ab" data-name="Fill-127" d="M378,565.2v25.39a.66.66,0,0,0,1.31,0V565.2a.66.66,0,0,0-1.31,0" style="fill:#0a0b09"/><path id="9de251ea-9b58-4d99-a60c-d229c6413be2" data-name="Fill-128" d="M400,552.5v25.39a.66.66,0,0,0,1.31,0V552.5a.66.66,0,0,0-1.31,0" style="fill:#0a0b09"/><path id="ebab2485-16c6-4f37-8c19-8c44a7a3e986" data-name="Fill-129" d="M356.06,552.5v25.39a.66.66,0,0,0,1.31,0V552.5a.66.66,0,1,0-1.31,0" style="fill:#0a0b09"/><path id="bf9cff46-0b9e-4578-886f-93b16d2b82af" data-name="Fill-130" d="M356.39,553.07l22,12.69a.66.66,0,0,0,.66-1.14l-22-12.69a.66.66,0,0,0-.66,1.14" style="fill:#0a0b09"/><path id="e33b0538-9e77-44e6-ba33-ced0467da7d4" data-name="Fill-131" d="M388.18,546l12.18,7a.66.66,0,0,0,.66-1.14l-12.18-7a.66.66,0,0,0-.66,1.14" style="fill:#0a0b09"/><path id="89aa3722-d47a-4802-a253-61b12d2e0413" data-name="Fill-132" d="M356.39,578.46l22,12.69A.66.66,0,0,0,379,590l-22-12.69a.66.66,0,0,0-.66,1.14" style="fill:#0a0b09"/><path id="42f2dcaa-6885-402f-8704-a135712ef8eb" data-name="Fill-133" d="M379,565.76l22-12.69a.66.66,0,0,0-.66-1.14l-22,12.69a.66.66,0,1,0,.66,1.14" style="fill:#0a0b09"/><path id="0c323bf3-d4f9-49fb-ab43-bc2447929623" data-name="Fill-134" d="M357,553.07l12.18-7a.66.66,0,0,0-.66-1.14l-12.18,7a.66.66,0,0,0,.66,1.14" style="fill:#0a0b09"/><path id="ea0ad5ab-f6dd-4074-bf58-8a8dbc848532" data-name="Fill-135" d="M379,591.15l22-12.69a.66.66,0,0,0-.66-1.14l-22,12.69a.66.66,0,1,0,.66,1.14" style="fill:#0a0b09"/><path id="1b94d0a5-40f3-4c6f-86ba-52b85e4f3028" data-name="Fill-136" d="M378,525.75v25.39a.66.66,0,0,0,1.31,0V525.75a.66.66,0,0,0-1.31,0" style="fill:#0a0b09"/><path id="dd055eef-06b4-43af-bab4-58b5409cd352" data-name="Fill-137" d="M400,513.05v25.39a.66.66,0,0,0,1.31,0V513.05a.66.66,0,0,0-1.31,0" style="fill:#0a0b09"/><path id="65aee334-6ab5-453b-81a2-db7a5877358e" data-name="Fill-138" d="M356.06,513.05v25.39a.66.66,0,0,0,1.31,0V513.05a.66.66,0,0,0-1.31,0" style="fill:#0a0b09"/><path id="dfae06c3-ad62-493b-b260-7f294c9b8ad4" data-name="Fill-139" d="M356.39,513.62l22,12.69a.66.66,0,0,0,.66-1.14l-22-12.69a.66.66,0,0,0-.66,1.14" style="fill:#0a0b09"/><path id="b85af863-3907-432f-9346-4d8b650ebabf" data-name="Fill-140" d="M378.37,500.93l22,12.69a.66.66,0,0,0,.66-1.14l-22-12.69a.66.66,0,1,0-.66,1.14" style="fill:#0a0b09"/><path id="aaf327ba-af91-4838-a2d8-aae6d6512054" data-name="Fill-141" d="M356.39,539l22,12.69a.66.66,0,0,0,.66-1.14l-22-12.69a.66.66,0,0,0-.66,1.14" style="fill:#0a0b09"/><path id="f4688181-3c1c-42cd-8138-d257e10e7932" data-name="Fill-142" d="M379,526.31l22-12.69a.66.66,0,0,0-.66-1.14l-22,12.69a.66.66,0,1,0,.66,1.14" style="fill:#0a0b09"/><path id="b844c66a-49f9-4da8-a827-8c7df060bede" data-name="Fill-143" d="M357,513.62l22-12.69a.66.66,0,1,0-.66-1.14l-22,12.69a.66.66,0,0,0,.66,1.14" style="fill:#0a0b09"/><path id="bee777c9-791c-4988-81dc-fc74038b3d8a" data-name="Fill-144" d="M379,551.7,401,539a.66.66,0,0,0-.66-1.14l-22,12.69a.66.66,0,1,0,.66,1.14" style="fill:#0a0b09"/><path id="629ea71f-3a49-474e-b533-c503606806df" data-name="Fill-145" d="M324.75,697.42V722.9a.66.66,0,1,0,1.31,0V697.42a.66.66,0,1,0-1.31,0" style="fill:#0a0b09"/><path id="bd9d18ab-d981-4a42-8e64-bc81082283bc" data-name="Fill-146" d="M346.82,684.68v25.48a.66.66,0,0,0,1.31,0V684.68a.66.66,0,1,0-1.31,0" style="fill:#0a0b09"/><path id="e9e2d393-6eb4-4150-95fe-0e0e6493f23b" data-name="Fill-147" d="M302.69,695.76V699a.66.66,0,0,0,1.31,0v-3.27a.66.66,0,0,0-1.31,0" style="fill:#0a0b09"/><path id="14cb0dbc-c9c1-438c-8d9e-da4d943dde53" data-name="Fill-148" d="M312.4,690.67,325.08,698a.66.66,0,1,0,.66-1.14l-12.68-7.32a.66.66,0,0,0-.66,1.14" style="fill:#0a0b09"/><path id="b2b0604e-6f8f-459b-9f09-c051b05eb5be" data-name="Fill-149" d="M334.92,678.19l12.23,7.06a.66.66,0,0,0,.65-1.14l-12.23-7.06a.66.66,0,0,0-.66,1.14" style="fill:#0a0b09"/><path id="88875976-b2f1-4854-9b3a-ec3522a1b66b" data-name="Fill-150" d="M312.4,716.15l12.68,7.32a.66.66,0,1,0,.66-1.14L313.06,715a.66.66,0,1,0-.66,1.14" style="fill:#0a0b09"/><path id="340947ff-638a-4d20-95c8-32ce24dea656" data-name="Fill-151" d="M325.73,698l22.06-12.74a.66.66,0,0,0-.65-1.14l-22.06,12.74a.66.66,0,1,0,.66,1.14" style="fill:#0a0b09"/><path id="71bca1c4-8a19-4048-ac35-438a3eec75d2" data-name="Fill-152" d="M313.06,679.83l2.83-1.63a.66.66,0,0,0-.66-1.14l-2.83,1.63a.66.66,0,0,0,.66,1.14" style="fill:#0a0b09"/><path id="7183ab3b-19c8-4382-b544-e51e5efeee44" data-name="Fill-153" d="M325.73,723.47l22.06-12.74a.66.66,0,0,0-.66-1.14l-22.06,12.74a.66.66,0,0,0,.66,1.14" style="fill:#0a0b09"/><path id="4e91b58b-88d8-4702-b5ab-036ffff2767b" data-name="Fill-154" d="M255.28,697.42V722.9a.66.66,0,1,0,1.31,0V697.42a.66.66,0,1,0-1.31,0" style="fill:#0a0b09"/><path id="4598ccd1-fd17-4d6e-85c2-7d84c1b1eea1" data-name="Fill-155" d="M277.34,695.76V699a.66.66,0,0,0,1.31,0v-3.27a.66.66,0,0,0-1.31,0" style="fill:#0a0b09"/><path id="f9652a20-a3cc-45e3-bbb2-079c3324fa17" data-name="Fill-156" d="M233.22,684.68v25.48a.66.66,0,0,0,1.31,0V684.68a.66.66,0,1,0-1.31,0" style="fill:#0a0b09"/><path id="143cabe4-2594-42d0-bfa5-4a4db9dd12f6" data-name="Fill-157" d="M233.54,685.25,255.61,698a.66.66,0,0,0,.65-1.14L234.2,684.11a.66.66,0,1,0-.66,1.14" style="fill:#0a0b09"/><path id="aebb5bef-d7a4-4a3c-8fc6-abcb076c67de" data-name="Fill-158" d="M265.45,678.19l2.83,1.63a.66.66,0,0,0,.66-1.14l-2.83-1.63a.66.66,0,1,0-.66,1.14" style="fill:#0a0b09"/><path id="e0f4eb1a-c270-46eb-a5f9-152f64f15a98" data-name="Fill-159" d="M233.54,710.73l22.06,12.74a.66.66,0,0,0,.66-1.14L234.2,709.59a.66.66,0,0,0-.66,1.14" style="fill:#0a0b09"/><path id="faafdb96-b5a0-4d48-a7b8-fdee071386e2" data-name="Fill-160" d="M256.26,698l12.67-7.31a.66.66,0,0,0-.65-1.14l-12.67,7.31a.66.66,0,0,0,.65,1.14" style="fill:#0a0b09"/><path id="5e966065-05b3-4c28-8c5e-9012da71a433" data-name="Fill-161" d="M234.2,685.25l12.2-7a.66.66,0,0,0-.66-1.14l-12.2,7a.66.66,0,1,0,.66,1.14" style="fill:#0a0b09"/><path id="be41b4c9-8569-4227-813d-9c23d19a4c2a" data-name="Fill-162" d="M256.26,723.47l12.67-7.31a.66.66,0,0,0-.65-1.14l-12.67,7.31a.66.66,0,0,0,.65,1.14" style="fill:#0a0b09"/><path id="9363dfb6-7295-4e10-9ae9-b58ea021a7da" data-name="Fill-163" d="M255.28,657.83v25.48a.66.66,0,1,0,1.31,0V657.83a.66.66,0,1,0-1.31,0" style="fill:#0a0b09"/><path id="080b23d4-f1ca-46cc-80ea-c5a85bc253d3" data-name="Fill-164" d="M277.34,645.09v14.34a.66.66,0,0,0,1.31,0V645.09a.66.66,0,0,0-1.31,0" style="fill:#0a0b09"/><path id="59068337-459f-4f08-9327-779b7edc30e8" data-name="Fill-165" d="M233.22,645.09v25.48a.66.66,0,0,0,1.31,0V645.09a.66.66,0,0,0-1.31,0" style="fill:#0a0b09"/><path id="aeaf0422-bd07-488c-8c97-c0b56ce4746b" data-name="Fill-166" d="M233.54,645.66l22.06,12.74a.66.66,0,0,0,.65-1.14L234.2,644.53a.66.66,0,1,0-.66,1.14" style="fill:#0a0b09"/><path id="6a2d2b73-c514-4ab8-b93f-9ba077892ba2" data-name="Fill-167" d="M255.71,632.86l22,12.68a.66.66,0,1,0,.65-1.14l-22-12.68a.66.66,0,0,0-.65,1.14" style="fill:#0a0b09"/><path id="1396d907-95ec-4dbc-8d92-ab2f810cd1a5" data-name="Fill-168" d="M233.54,671.14l22.06,12.74a.66.66,0,0,0,.65-1.14L234.2,670a.66.66,0,0,0-.66,1.14" style="fill:#0a0b09"/><path id="46697fe1-433c-4966-9cc5-9aca781ce12d" data-name="Fill-169" d="M256.26,658.4l22.06-12.74a.66.66,0,1,0-.65-1.14l-22.06,12.74a.66.66,0,0,0,.65,1.14" style="fill:#0a0b09"/><path id="ae291dde-5f12-4788-a702-a9f65fd16387" data-name="Fill-170" d="M234.2,645.66l22.17-12.8a.66.66,0,0,0-.66-1.14l-22.17,12.8a.66.66,0,1,0,.66,1.14" style="fill:#0a0b09"/><path id="00468f9c-3c18-4585-ac86-0aea89ff9c09" data-name="Fill-171" d="M256.26,683.88l12.67-7.32a.66.66,0,0,0-.65-1.14l-12.67,7.32a.66.66,0,0,0,.65,1.14" style="fill:#0a0b09"/><path id="73d10847-0458-4948-9e54-93bd33fc7edc" data-name="Fill-172" d="M324.75,657.83v25.48a.66.66,0,1,0,1.31,0V657.83a.66.66,0,1,0-1.31,0" style="fill:#0a0b09"/><path id="ff117354-e7e3-4752-9889-382727be11d1" data-name="Fill-173" d="M346.82,645.09v25.48a.66.66,0,0,0,1.31,0V645.09a.66.66,0,0,0-1.31,0" style="fill:#0a0b09"/><path id="56bdc0c3-4b59-470f-961f-01fa8d991bf6" data-name="Fill-174" d="M302.69,645.09v14.34a.66.66,0,0,0,1.31,0V645.09a.66.66,0,0,0-1.31,0" style="fill:#0a0b09"/><path id="9c8d2878-ba1e-4a33-af2a-d0f3b5c50271" data-name="Fill-175" d="M303,645.66l22.06,12.74a.66.66,0,1,0,.66-1.14l-22.06-12.74a.66.66,0,1,0-.66,1.14" style="fill:#0a0b09"/><path id="6760d2d2-9993-459f-abde-fea593aeb621" data-name="Fill-176" d="M325,632.86l22.17,12.8a.66.66,0,0,0,.65-1.14l-22.17-12.8a.66.66,0,1,0-.66,1.14" style="fill:#0a0b09"/><path id="5fbea44a-e107-4d52-a605-160594c7e906" data-name="Fill-177" d="M312.41,676.56l12.67,7.31a.66.66,0,0,0,.66-1.14l-12.67-7.31a.66.66,0,1,0-.66,1.14" style="fill:#0a0b09"/><path id="2c2749f8-008f-4921-8d78-ecd2d620ecba" data-name="Fill-178" d="M325.73,658.4l22.06-12.74a.66.66,0,0,0-.65-1.14l-22.06,12.74a.66.66,0,0,0,.66,1.14" style="fill:#0a0b09"/><path id="6a903c23-3e6e-4bdd-9fa3-5d9656189695" data-name="Fill-179" d="M303.67,645.54l22-12.68a.66.66,0,1,0-.66-1.14L303,644.4a.66.66,0,1,0,.66,1.14" style="fill:#0a0b09"/><path id="fbb78d87-9a71-438d-a1e1-730c41f57678" data-name="Fill-180" d="M325.73,683.88l22.06-12.74a.66.66,0,0,0-.65-1.14l-22.06,12.74a.66.66,0,1,0,.66,1.14" style="fill:#0a0b09"/><path id="1c1a8ca7-4e75-481c-9be7-62f761623d23" data-name="Fill-181" d="M290,717.19v25.48a.66.66,0,0,0,1.31,0V717.19a.66.66,0,1,0-1.31,0" style="fill:#0a0b09"/><path id="4c108e34-29f6-4f09-a0f1-562daf1a0fdb" data-name="Fill-182" d="M312.08,704.45v25.48a.66.66,0,0,0,1.31,0V704.45a.66.66,0,1,0-1.31,0" style="fill:#0a0b09"/><path id="d682d287-33e7-4c8a-8305-fe7c5d0b4cce" data-name="Fill-183" d="M268,704.45v25.48a.66.66,0,0,0,1.31,0V704.45a.66.66,0,1,0-1.31,0" style="fill:#0a0b09"/><path id="00594028-c2ab-4920-8959-4ea5d3c96237" data-name="Fill-184" d="M268.28,705l22.06,12.74a.66.66,0,0,0,.66-1.14l-22.06-12.74a.66.66,0,0,0-.65,1.14" style="fill:#0a0b09"/><path id="c0b8e076-32a2-4fd1-a7fc-a128b8d9a22c" data-name="Fill-185" d="M300.18,698,312.41,705a.66.66,0,1,0,.66-1.14l-12.22-7.06a.66.66,0,0,0-.66,1.14" style="fill:#0a0b09"/><path id="3da65bc2-b6d8-4719-8658-7fd95d56f5b4" data-name="Fill-186" d="M268.28,730.5l22.06,12.74a.66.66,0,0,0,.66-1.14l-22.06-12.74a.66.66,0,0,0-.65,1.14" style="fill:#0a0b09"/><path id="2d404d7d-f623-4fbb-bb42-4268bca55acd" data-name="Fill-187" d="M291,717.76,313.06,705a.66.66,0,1,0-.66-1.14l-22.06,12.74a.66.66,0,0,0,.66,1.14" style="fill:#0a0b09"/><path id="05280f52-43c8-4739-8a8c-7a30bcc162b6" data-name="Fill-188" d="M268.94,705,281.16,698a.66.66,0,0,0-.66-1.14l-12.22,7.06a.66.66,0,0,0,.66,1.14" style="fill:#0a0b09"/><path id="79c6f1ad-8998-4429-a993-a370887435cc" data-name="Fill-189" d="M291,743.23l22.06-12.74a.66.66,0,0,0-.66-1.14L290.34,742.1a.66.66,0,0,0,.66,1.14" style="fill:#0a0b09"/><path id="1abed9f7-e4b6-4f05-a0f9-2c8fa07d9112" data-name="Fill-190" d="M290,677.6v25.48a.66.66,0,1,0,1.31,0V677.6a.66.66,0,1,0-1.31,0" style="fill:#0a0b09"/><path id="2e488e66-8d35-4518-a12f-89fb4bcfb887" data-name="Fill-191" d="M312.08,664.86v25.48a.66.66,0,0,0,1.31,0V664.86a.66.66,0,1,0-1.31,0" style="fill:#0a0b09"/><path id="5cdacfef-c6c4-48c8-93ef-d7a439096da7" data-name="Fill-192" d="M268,664.86v25.48a.66.66,0,0,0,1.31,0V664.86a.66.66,0,1,0-1.31,0" style="fill:#0a0b09"/><path id="ab70007f-9270-45fe-b37d-52d2864fc970" data-name="Fill-193" d="M268.28,665.43l22.06,12.74A.66.66,0,0,0,291,677l-22.06-12.74a.66.66,0,0,0-.65,1.14" style="fill:#0a0b09"/><path id="51fd1622-33ed-4bda-8f12-f8fecf261b10" data-name="Fill-194" d="M290.34,652.69l22.06,12.74a.66.66,0,1,0,.66-1.14L291,651.55a.66.66,0,1,0-.66,1.14" style="fill:#0a0b09"/><path id="ae790678-6c13-4d2d-84ee-f71095c48eb9" data-name="Fill-195" d="M268.28,690.91l22.06,12.74a.66.66,0,0,0,.66-1.14l-22.06-12.74a.66.66,0,0,0-.65,1.14" style="fill:#0a0b09"/><path id="e9ab8eee-0f67-4a84-a4b0-700990dd90bb" data-name="Fill-196" d="M291,678.17l22.06-12.74a.66.66,0,1,0-.66-1.14L290.34,677a.66.66,0,0,0,.66,1.14" style="fill:#0a0b09"/><path id="59b23b58-7585-4ec3-9963-8dcd10ffc678" data-name="Fill-197" d="M268.94,665.43,291,652.69a.66.66,0,0,0-.66-1.14l-22.06,12.74a.66.66,0,0,0,.66,1.14" style="fill:#0a0b09"/><path id="a1a80319-dbc3-4ef0-bc16-5f75d3809b5c" data-name="Fill-198" d="M291,703.64l22.06-12.74a.66.66,0,0,0-.66-1.14l-22.06,12.74a.66.66,0,0,0,.66,1.14" style="fill:#0a0b09"/><path id="dcd77872-fd54-4f01-ae87-72d664a15db3" data-name="Fill-199" d="M324.75,596v25.48a.66.66,0,1,0,1.31,0V596a.66.66,0,1,0-1.31,0" style="fill:#0a0b09"/><path id="d8769b42-ad78-4de2-aec7-3545227d994c" data-name="Fill-200" d="M346.82,583.29v25.48a.66.66,0,1,0,1.31,0V583.29a.66.66,0,0,0-1.31,0" style="fill:#0a0b09"/><path id="930b2fa8-924d-4bae-8545-fe24f6df4fee" data-name="Fill-201" d="M302.69,594.37v3.27a.66.66,0,1,0,1.31,0v-3.27a.66.66,0,1,0-1.31,0" style="fill:#0a0b09"/><path id="b02c57e0-9685-4027-8067-e0cbbe93ee02" data-name="Fill-202" d="M312.4,589.28l12.68,7.32a.66.66,0,0,0,.66-1.14l-12.68-7.32a.66.66,0,1,0-.66,1.14" style="fill:#0a0b09"/><path id="7256612e-1705-4692-b7f8-94bab2672511" data-name="Fill-203" d="M334.92,576.8l12.23,7.06a.66.66,0,0,0,.65-1.14l-12.23-7.06a.66.66,0,1,0-.66,1.14" style="fill:#0a0b09"/><path id="ee28ceb4-2a64-4c14-a4bc-504a22bfaf96" data-name="Fill-204" d="M312.4,614.76l12.68,7.32a.66.66,0,1,0,.66-1.14l-12.68-7.32a.66.66,0,0,0-.66,1.14" style="fill:#0a0b09"/><path id="1e3e7fdf-8003-4611-8718-a32a5a042c42" data-name="Fill-205" d="M325.73,596.6l22.06-12.74a.66.66,0,0,0-.65-1.14l-22.06,12.74a.66.66,0,1,0,.66,1.14" style="fill:#0a0b09"/><path id="eca56996-6f6c-4cdb-a821-9227273d48e7" data-name="Fill-206" d="M313.06,578.44l2.83-1.63a.66.66,0,0,0-.66-1.14l-2.83,1.63a.66.66,0,1,0,.66,1.14" style="fill:#0a0b09"/><path id="6a8cacf4-4488-4289-95ee-dce89ca9bc83" data-name="Fill-207" d="M325.73,622.08l22.06-12.74a.66.66,0,0,0-.65-1.14l-22.06,12.74a.66.66,0,1,0,.66,1.14" style="fill:#0a0b09"/><path id="484c37bb-c301-4f3c-8528-c800add4d7c7" data-name="Fill-208" d="M255.28,596v25.48a.66.66,0,1,0,1.31,0V596a.66.66,0,1,0-1.31,0" style="fill:#0a0b09"/><path id="cf6d8bf5-8a8d-4070-924c-2495d1fcb80e" data-name="Fill-209" d="M277.34,594.37v3.27a.66.66,0,1,0,1.31,0v-3.27a.66.66,0,1,0-1.31,0" style="fill:#0a0b09"/><path id="6dd5ae1f-8ba1-4dd9-8a17-4d353f3e7ad7" data-name="Fill-210" d="M233.22,583.29v25.48a.66.66,0,1,0,1.31,0V583.29a.66.66,0,0,0-1.31,0" style="fill:#0a0b09"/><path id="b9035ee5-9abd-4709-94a4-a8593d67e66f" data-name="Fill-211" d="M233.54,583.86l22.06,12.74a.66.66,0,0,0,.65-1.14L234.2,582.73a.66.66,0,0,0-.66,1.14" style="fill:#0a0b09"/><path id="6f12473b-4a8c-47de-b8c7-85c7e2683113" data-name="Fill-212" d="M265.45,576.81l2.83,1.63a.66.66,0,0,0,.66-1.14l-2.83-1.63a.66.66,0,1,0-.66,1.14" style="fill:#0a0b09"/><path id="e9d63f07-5bea-4eea-acf8-d1e29398ebc2" data-name="Fill-213" d="M233.54,609.34l22.06,12.74a.66.66,0,0,0,.65-1.14L234.2,608.2a.66.66,0,0,0-.66,1.14" style="fill:#0a0b09"/><path id="8241c6dc-a362-4183-b671-7afa0d856e54" data-name="Fill-214" d="M256.26,596.6l12.67-7.31a.66.66,0,0,0-.65-1.14l-12.67,7.31a.66.66,0,0,0,.65,1.14" style="fill:#0a0b09"/><path id="b209869d-51a1-45d5-84e8-44c2f9a35a73" data-name="Fill-215" d="M234.2,583.86l12.2-7a.66.66,0,0,0-.66-1.14l-12.2,7a.66.66,0,1,0,.66,1.14" style="fill:#0a0b09"/><path id="e6791a63-b3e2-441a-9064-087631673950" data-name="Fill-216" d="M256.26,622.08l12.67-7.31a.66.66,0,0,0-.65-1.14l-12.67,7.31a.66.66,0,0,0,.65,1.14" style="fill:#0a0b09"/><path id="ed75407a-0acd-4841-b01e-8da0368f5845" data-name="Fill-217" d="M255.28,556.44v25.48a.66.66,0,0,0,1.31,0V556.44a.66.66,0,0,0-1.31,0" style="fill:#0a0b09"/><path id="f2b2aae3-fc34-4d3d-a9bf-aa7f417c0478" data-name="Fill-218" d="M277.34,543.7v14.35a.66.66,0,1,0,1.31,0V543.7a.66.66,0,0,0-1.31,0" style="fill:#0a0b09"/><path id="0d53f056-1c50-481e-8454-630590c276f0" data-name="Fill-219" d="M233.22,543.7v25.48a.66.66,0,1,0,1.31,0V543.7a.66.66,0,0,0-1.31,0" style="fill:#0a0b09"/><path id="a0310ae3-820c-4556-b856-f04f350cd253" data-name="Fill-220" d="M233.54,544.27,255.61,557a.66.66,0,0,0,.65-1.14L234.2,543.14a.66.66,0,0,0-.66,1.14" style="fill:#0a0b09"/><path id="464b6495-d01c-4375-b254-3d1d9e99de0a" data-name="Fill-221" d="M255.71,531.47l22,12.68a.66.66,0,1,0,.65-1.14l-22-12.68a.66.66,0,0,0-.65,1.14" style="fill:#0a0b09"/><path id="bfda98c7-26b4-4f44-815f-f2a048021d4a" data-name="Fill-222" d="M233.54,569.75l22.06,12.74a.66.66,0,0,0,.66-1.14L234.2,568.61a.66.66,0,0,0-.66,1.14" style="fill:#0a0b09"/><path id="ad08d281-96d2-44be-87ce-4391dea80188" data-name="Fill-223" d="M256.26,557l22.06-12.74a.66.66,0,1,0-.65-1.14l-22.06,12.74a.66.66,0,0,0,.65,1.14" style="fill:#0a0b09"/><path id="8cfe3332-59c4-4769-9a32-799f0c57a1bd" data-name="Fill-224" d="M234.2,544.27l22.17-12.8a.66.66,0,0,0-.66-1.14l-22.17,12.8a.66.66,0,1,0,.66,1.14" style="fill:#0a0b09"/><path id="ff084cda-81f9-4b7d-a975-3074e948946c" data-name="Fill-225" d="M256.26,582.49l12.67-7.32a.66.66,0,0,0-.66-1.14l-12.67,7.32a.66.66,0,0,0,.66,1.14" style="fill:#0a0b09"/><path id="d199dc4e-9655-4fb9-9019-ef21ba6825e6" data-name="Fill-226" d="M324.75,556.44v25.48a.66.66,0,1,0,1.31,0V556.44a.66.66,0,1,0-1.31,0" style="fill:#0a0b09"/><path id="afeed3aa-fa8d-4307-aba8-c7dd0f0dfadc" data-name="Fill-227" d="M346.82,543.7v25.48a.66.66,0,0,0,1.31,0V543.7a.66.66,0,0,0-1.31,0" style="fill:#0a0b09"/><path id="f498bcb5-5bb6-4d26-a6cb-664e2502a1d4" data-name="Fill-228" d="M302.69,543.7v14.35a.66.66,0,1,0,1.31,0V543.7a.66.66,0,0,0-1.31,0" style="fill:#0a0b09"/><path id="61e45f83-23a0-4ac1-ba22-5d9e185d57b9" data-name="Fill-229" d="M303,544.27,325.08,557a.66.66,0,0,0,.66-1.14l-22.06-12.74a.66.66,0,1,0-.66,1.14" style="fill:#0a0b09"/><path id="e4721f5e-b150-4b11-813a-18139542e43c" data-name="Fill-230" d="M325,531.47l22.17,12.8a.66.66,0,0,0,.65-1.14l-22.17-12.8a.66.66,0,1,0-.66,1.14" style="fill:#0a0b09"/><path id="b4a3a147-03b8-4a35-8707-45173fa445c1" data-name="Fill-231" d="M312.41,575.17l12.67,7.32a.66.66,0,1,0,.66-1.14L313.06,574a.66.66,0,1,0-.66,1.14" style="fill:#0a0b09"/><path id="773e32ed-ee6b-4907-8df3-8d192fb1cde6" data-name="Fill-232" d="M325.73,557l22.06-12.74a.66.66,0,0,0-.65-1.14l-22.06,12.74a.66.66,0,1,0,.66,1.14" style="fill:#0a0b09"/><path id="d2e51036-473b-47c1-9221-23c53d3d1ae2" data-name="Fill-233" d="M303.67,544.15l22-12.68a.66.66,0,1,0-.66-1.14L303,543a.66.66,0,1,0,.66,1.14" style="fill:#0a0b09"/><path id="0920b85b-6b06-498d-a43e-6269723fb6ea" data-name="Fill-234" d="M325.73,582.49l22.06-12.74a.66.66,0,0,0-.66-1.14l-22.06,12.74a.66.66,0,1,0,.66,1.14" style="fill:#0a0b09"/><path id="2c5d48eb-38e6-434b-90f1-ffd9885c9c01" data-name="Fill-235" d="M290,615.8v25.48a.66.66,0,1,0,1.31,0V615.8a.66.66,0,0,0-1.31,0" style="fill:#0a0b09"/><path id="40aed7c9-7320-43a5-8576-e840e5f4c7ab" data-name="Fill-236" d="M312.08,603.06v25.48a.66.66,0,1,0,1.31,0V603.06a.66.66,0,1,0-1.31,0" style="fill:#0a0b09"/><path id="81822604-1faf-435d-bc84-04a53d69d3b0" data-name="Fill-237" d="M268,603.06v25.48a.66.66,0,1,0,1.31,0V603.06a.66.66,0,1,0-1.31,0" style="fill:#0a0b09"/><path id="c08c6ccc-1c48-4425-8242-2b908172aff1" data-name="Fill-238" d="M268.28,603.63l22.06,12.74a.66.66,0,0,0,.66-1.14l-22.06-12.74a.66.66,0,0,0-.65,1.14" style="fill:#0a0b09"/><path id="1bd752f9-11b4-447d-90e8-086076ad76b7" data-name="Fill-239" d="M300.18,596.57l12.23,7.06a.66.66,0,1,0,.66-1.14l-12.22-7.06a.66.66,0,0,0-.66,1.14" style="fill:#0a0b09"/><path id="1dd2b916-b443-4b4d-9f13-36de238f6426" data-name="Fill-240" d="M268.28,629.11l22.06,12.74a.66.66,0,0,0,.66-1.14L268.93,628a.66.66,0,0,0-.65,1.14" style="fill:#0a0b09"/><path id="dbec7b07-7419-4074-823c-336ce42b2e7e" data-name="Fill-241" d="M291,616.37l22.06-12.74a.66.66,0,1,0-.66-1.14l-22.06,12.74a.66.66,0,0,0,.66,1.14" style="fill:#0a0b09"/><path id="6f65f415-3b94-4687-94da-d9d41cf46410" data-name="Fill-242" d="M268.93,603.63l12.22-7.06a.66.66,0,0,0-.66-1.14l-12.22,7.06a.66.66,0,0,0,.65,1.14" style="fill:#0a0b09"/><path id="25ea9371-22a3-4922-8270-8653449781e5" data-name="Fill-243" d="M291,641.84l22.06-12.74a.66.66,0,1,0-.66-1.14l-22.06,12.74a.66.66,0,1,0,.66,1.14" style="fill:#0a0b09"/><path id="49264832-a2d2-45a9-bb2b-c730b4b7bddc" data-name="Fill-244" d="M290,576.21v25.48a.66.66,0,0,0,1.31,0V576.21a.66.66,0,0,0-1.31,0" style="fill:#0a0b09"/><path id="21e0e860-e62a-4aa1-ae69-575a54dc04f5" data-name="Fill-245" d="M312.08,563.47v25.48a.66.66,0,1,0,1.31,0V563.47a.66.66,0,0,0-1.31,0" style="fill:#0a0b09"/><path id="abe23164-36f5-46d5-b9b8-b2a3c484dc4d" data-name="Fill-246" d="M268,563.47v25.48a.66.66,0,0,0,1.31,0V563.47a.66.66,0,0,0-1.31,0" style="fill:#0a0b09"/><path id="f45d8285-9a2e-4a02-80f5-41168c36129e" data-name="Fill-247" d="M268.28,564l22.06,12.74a.66.66,0,0,0,.66-1.14l-22.06-12.74a.66.66,0,0,0-.65,1.14" style="fill:#0a0b09"/><path id="90f03433-1c0c-4c05-99a3-b553b88d7a0a" data-name="Fill-248" d="M290.34,551.3,312.41,564a.66.66,0,1,0,.66-1.14L291,550.17a.66.66,0,0,0-.65,1.14" style="fill:#0a0b09"/><path id="6e2aefe9-d3cd-4102-ade9-960ab54ca852" data-name="Fill-249" d="M268.28,589.52l22.06,12.74a.66.66,0,0,0,.66-1.14l-22.06-12.74a.66.66,0,0,0-.65,1.14" style="fill:#0a0b09"/><path id="b72bddc5-ff5d-49c8-982f-43334e3ea465" data-name="Fill-250" d="M291,576.78,313.06,564a.66.66,0,1,0-.66-1.14l-22.06,12.74a.66.66,0,0,0,.66,1.14" style="fill:#0a0b09"/><path id="7e8d8acc-91aa-4771-97c4-2ed3bd6b0afc" data-name="Fill-251" d="M268.93,564,291,551.3a.66.66,0,1,0-.65-1.14l-22.06,12.74a.66.66,0,0,0,.65,1.14" style="fill:#0a0b09"/><path id="b4a8a19c-b1ff-4da0-a5a2-65d5cb545f03" data-name="Fill-252" d="M291,602.26l22.06-12.74a.66.66,0,1,0-.66-1.14l-22.06,12.74a.66.66,0,0,0,.66,1.14" style="fill:#0a0b09"/></g><g id="bb7dfb70-c997-45ee-aac6-cd4a1a9bc040" data-name="Static Mid" style="opacity:0.800000011920929"><path id="1ef09206-9e8c-401e-9aea-1519d937aa8b" data-name="Fill-253" d="M378.49,420.37v64.89a.66.66,0,0,0,1.31,0V420.37a.66.66,0,1,0-1.31,0" style="fill:#4a4a4a"/><path id="1473b22a-7aaf-4be7-991b-9b0af9c002a6" data-name="Fill-254" d="M434.68,387.92v64.89a.66.66,0,1,0,1.31,0V387.92a.66.66,0,1,0-1.31,0" style="fill:#4a4a4a"/><path id="061e03ce-aa8e-4a1d-8e6b-d00f75afee57" data-name="Fill-255" d="M322.29,416.14v8.32a.66.66,0,0,0,1.31,0v-8.32a.66.66,0,0,0-1.31,0" style="fill:#4a4a4a"/><path id="7e45ff01-b650-4bf0-933d-fcdb41d001a9" data-name="Fill-256" d="M346.53,402.3l32.28,18.64a.66.66,0,0,0,.65-1.14l-32.28-18.64a.66.66,0,1,0-.66,1.14" style="fill:#4a4a4a"/><path id="99cbcd18-27e0-4dc0-9878-36d27d58cd09" data-name="Fill-257" d="M403.87,370.51l31.14,18a.66.66,0,0,0,.66-1.14l-31.14-18a.66.66,0,1,0-.66,1.14" style="fill:#4a4a4a"/><path id="dbd1fdaa-e6fb-4819-84da-b4586a8ea094" data-name="Fill-258" d="M346.53,467.18l32.28,18.64a.66.66,0,0,0,.65-1.14L347.19,466a.66.66,0,1,0-.66,1.14" style="fill:#4a4a4a"/><path id="9199f8a3-6dc4-4348-9017-a76c76e9671f" data-name="Fill-259" d="M379.47,420.93l56.19-32.44a.66.66,0,0,0-.66-1.14L378.81,419.8a.66.66,0,1,0,.66,1.14" style="fill:#4a4a4a"/><path id="2382c2fe-b56a-452a-87f8-6c4e1197f801" data-name="Fill-260" d="M347.2,374.68l7.2-4.16a.66.66,0,0,0-.66-1.14l-7.2,4.16a.66.66,0,0,0,.66,1.14" style="fill:#4a4a4a"/><path id="2c583d2a-81ad-4f3c-955e-5d58f2e88927" data-name="Fill-261" d="M379.47,485.82l56.19-32.44a.66.66,0,0,0-.66-1.14l-56.19,32.44a.66.66,0,1,0,.66,1.14" style="fill:#4a4a4a"/><path id="f649650d-a808-48e1-a622-92acf4e62f6b" data-name="Fill-262" d="M201.55,420.37v64.89a.66.66,0,1,0,1.31,0V420.37a.66.66,0,1,0-1.31,0" style="fill:#4a4a4a"/><path id="92b86edb-5d0b-4154-af84-e139420b3591" data-name="Fill-263" d="M257.74,416.14v8.32a.66.66,0,0,0,1.31,0v-8.32a.66.66,0,1,0-1.31,0" style="fill:#4a4a4a"/><path id="5f3c0ea5-df5b-46ae-93b1-da734c104078" data-name="Fill-264" d="M145.35,387.92v64.89a.66.66,0,1,0,1.31,0V387.92a.66.66,0,1,0-1.31,0" style="fill:#4a4a4a"/><path id="1ec8152c-5dcb-4a96-9a42-eb3b59c37a89" data-name="Fill-265" d="M145.68,388.49l56.19,32.44a.66.66,0,0,0,.66-1.14l-56.19-32.44a.66.66,0,0,0-.66,1.14" style="fill:#4a4a4a"/><path id="185ffe23-d4ff-4928-a591-2fbad8216178" data-name="Fill-266" d="M226.94,370.52l7.2,4.16a.66.66,0,1,0,.66-1.14l-7.2-4.16a.66.66,0,0,0-.66,1.14" style="fill:#4a4a4a"/><path id="c79f612e-bb47-48e7-979c-82d7480fc988" data-name="Fill-267" d="M145.68,453.38l56.19,32.44a.66.66,0,0,0,.66-1.14l-56.19-32.44a.66.66,0,0,0-.66,1.14" style="fill:#4a4a4a"/><path id="a8f98f47-3ca2-43a3-8f5b-b0f840f99df9" data-name="Fill-268" d="M202.53,420.93,234.8,402.3a.66.66,0,0,0-.66-1.14L201.87,419.8a.66.66,0,1,0,.66,1.14" style="fill:#4a4a4a"/><path id="0319231c-c151-4b75-92a8-9b33f30935a0" data-name="Fill-269" d="M146.34,388.49l31.07-17.94a.66.66,0,0,0-.66-1.14l-31.07,17.94a.66.66,0,0,0,.66,1.14" style="fill:#4a4a4a"/><path id="2ff698dc-9277-4933-8d30-9444b306ea06" data-name="Fill-270" d="M202.53,485.82l32.27-18.63a.66.66,0,0,0-.66-1.14l-32.27,18.63a.66.66,0,0,0,.66,1.14" style="fill:#4a4a4a"/><path id="42f55160-404f-4f79-8a46-a57c6a064062" data-name="Fill-271" d="M201.55,319.53v64.89a.66.66,0,1,0,1.31,0V319.53a.66.66,0,1,0-1.31,0" style="fill:#4a4a4a"/><path id="3b899f24-210d-4c33-b2be-680a21ffa37f" data-name="Fill-272" d="M257.74,315.44v8.19a.66.66,0,1,0,1.31,0v-8.19a.66.66,0,1,0-1.31,0" style="fill:#4a4a4a"/><path id="4283ec2e-d444-4dea-8d2c-fc553e9a9fa2" data-name="Fill-273" d="M145.35,287.09V352a.66.66,0,1,0,1.31,0V287.09a.66.66,0,0,0-1.31,0" style="fill:#4a4a4a"/><path id="f8f4cc04-7a39-44d7-8fed-b8f6cc99c252" data-name="Fill-274" d="M145.68,287.66l56.19,32.44a.66.66,0,0,0,.66-1.14l-56.19-32.44a.66.66,0,0,0-.66,1.14" style="fill:#4a4a4a"/><path id="be5ab505-d247-4e36-92f0-ba73cc319e9b" data-name="Fill-275" d="M145.68,352.55,201.87,385a.66.66,0,0,0,.66-1.14l-56.19-32.44a.66.66,0,0,0-.66,1.14" style="fill:#4a4a4a"/><path id="e55689fc-4cc5-45ef-9221-1641c3fcfacd" data-name="Fill-276" d="M202.53,320.1l31.64-18.27a.66.66,0,0,0-.66-1.14L201.87,319a.66.66,0,1,0,.66,1.14" style="fill:#4a4a4a"/><path id="74742d69-66c4-40b8-874e-e53db21a8043" data-name="Fill-277" d="M146.34,287.66,178,269.39a.66.66,0,0,0-.66-1.14l-31.64,18.27a.66.66,0,0,0,.66,1.14" style="fill:#4a4a4a"/><path id="fa511dbb-df8c-41a6-b858-78b6318d2113" data-name="Fill-278" d="M202.53,385l32.27-18.63a.66.66,0,1,0-.65-1.14l-32.28,18.63a.66.66,0,1,0,.66,1.14" style="fill:#4a4a4a"/><path id="df0f6a43-d630-4a2b-9a8b-b9081ceef514" data-name="Fill-279" d="M378.49,319.53v64.89a.66.66,0,1,0,1.31,0V319.53a.66.66,0,0,0-1.31,0" style="fill:#4a4a4a"/><path id="8d2a7163-f2e2-418a-9fe7-4ad28d7721d0" data-name="Fill-280" d="M434.68,287.09V352a.66.66,0,1,0,1.31,0V287.09a.66.66,0,1,0-1.31,0" style="fill:#4a4a4a"/><path id="70ee40df-ad5f-4af1-bc95-2cb9a58a7a00" data-name="Fill-281" d="M322.29,315.44v8.19a.66.66,0,0,0,1.31,0v-8.19a.66.66,0,0,0-1.31,0" style="fill:#4a4a4a"/><path id="eac31ef4-0476-4066-855d-3a87c8c9d4fb" data-name="Fill-282" d="M347.16,301.83l31.65,18.27a.66.66,0,0,0,.65-1.14l-31.65-18.27a.66.66,0,0,0-.65,1.14" style="fill:#4a4a4a"/><path id="e645aaed-d73e-4bc2-9471-1f1c726c6182" data-name="Fill-283" d="M403.37,269.4,435,287.66a.66.66,0,0,0,.66-1.14L404,268.26a.66.66,0,0,0-.66,1.14" style="fill:#4a4a4a"/><path id="468671e3-e4dc-485a-932f-debe78bfacd5" data-name="Fill-284" d="M346.54,366.36,378.81,385a.66.66,0,0,0,.65-1.14L347.2,365.22a.66.66,0,0,0-.66,1.14" style="fill:#4a4a4a"/><path id="4e3d625a-bef7-4e33-af9f-09ae710cfc3e" data-name="Fill-285" d="M379.47,320.1l56.19-32.44a.66.66,0,0,0-.66-1.14L378.81,319a.66.66,0,1,0,.66,1.14" style="fill:#4a4a4a"/><path id="ca602f69-f9f8-4de5-b53f-b5b220b34aaf" data-name="Fill-286" d="M379.47,385l56.19-32.44a.66.66,0,0,0-.66-1.14l-56.19,32.44a.66.66,0,1,0,.66,1.14" style="fill:#4a4a4a"/><path id="aaf49ffd-06cb-4707-b357-827c3294901c" data-name="Fill-287" d="M290,470.71V535.6a.66.66,0,0,0,1.31,0V470.71a.66.66,0,1,0-1.31,0" style="fill:#4a4a4a"/><path id="7bce8edd-a611-401a-9b46-33c3d182506b" data-name="Fill-288" d="M346.21,438.27v64.89a.66.66,0,0,0,1.31,0V438.27a.66.66,0,0,0-1.31,0" style="fill:#4a4a4a"/><path id="83c055ce-b3af-48df-a7b0-0dae196ce81b" data-name="Fill-289" d="M233.82,438.27v64.89a.66.66,0,0,0,1.31,0V438.27a.66.66,0,0,0-1.31,0" style="fill:#4a4a4a"/><path id="3bb840f1-f987-4aee-b8c9-826152b1ceb6" data-name="Fill-290" d="M234.15,438.84l56.2,32.44a.66.66,0,0,0,.66-1.14L234.8,437.7a.66.66,0,0,0-.66,1.14" style="fill:#4a4a4a"/><path id="87c24760-5287-495f-b08c-bf6219fe6d87" data-name="Fill-291" d="M315.4,420.86l31.14,18a.66.66,0,0,0,.66-1.14l-31.14-18a.66.66,0,0,0-.65,1.14" style="fill:#4a4a4a"/><path id="0dbed4aa-1c5b-4c75-b18b-262ace3e013d" data-name="Fill-292" d="M234.15,503.73l56.2,32.44A.66.66,0,0,0,291,535l-56.2-32.44a.66.66,0,0,0-.66,1.14" style="fill:#4a4a4a"/><path id="bb537b5d-d148-481a-8a4e-ceacc4f1e36d" data-name="Fill-293" d="M291,471.28l56.19-32.44a.66.66,0,0,0-.66-1.14l-56.2,32.44a.66.66,0,1,0,.66,1.14" style="fill:#4a4a4a"/><path id="f09b1b79-300e-4ded-903f-f42208fdf071" data-name="Fill-294" d="M234.8,438.84l31.13-18a.66.66,0,0,0-.66-1.14l-31.13,18a.66.66,0,0,0,.65,1.14" style="fill:#4a4a4a"/><path id="6cce74fa-dda4-4cd5-aa2a-66b1e8ff8fad" data-name="Fill-295" d="M291,536.17l56.19-32.44a.66.66,0,0,0-.66-1.14L290.34,535a.66.66,0,1,0,.66,1.14" style="fill:#4a4a4a"/><path id="8cb5eb09-c5bf-4082-bc47-b9d5a0fc3732" data-name="Fill-296" d="M290,369.88v64.89a.66.66,0,0,0,1.31,0V369.88a.66.66,0,1,0-1.31,0" style="fill:#4a4a4a"/><path id="6831282f-2532-405e-ace9-c379638cc97d" data-name="Fill-297" d="M346.21,337.44v64.89a.66.66,0,1,0,1.31,0V337.44a.66.66,0,0,0-1.31,0" style="fill:#4a4a4a"/><path id="79d7c2d5-3def-4d23-b494-5ae6fe46f0da" data-name="Fill-298" d="M233.82,337.44v64.89a.66.66,0,1,0,1.31,0V337.44a.66.66,0,0,0-1.31,0" style="fill:#4a4a4a"/><path id="4b028005-0b1d-4f98-94cb-6151903208fa" data-name="Fill-299" d="M234.15,338l56.2,32.44a.66.66,0,0,0,.66-1.14l-56.2-32.44a.66.66,0,0,0-.66,1.14" style="fill:#4a4a4a"/><path id="606b6e40-c4df-4758-bb12-63ac978f2636" data-name="Fill-300" d="M315.52,320.1l31,17.91a.66.66,0,0,0,.66-1.14l-31-17.91a.66.66,0,0,0-.65,1.14" style="fill:#4a4a4a"/><path id="fab284ec-b928-4977-aa41-8840419f525e" data-name="Fill-301" d="M234.15,402.89l56.2,32.44a.66.66,0,0,0,.66-1.14l-56.2-32.44a.66.66,0,0,0-.66,1.14" style="fill:#4a4a4a"/><path id="eeea5afc-1690-4106-9fed-1968e7a2e773" data-name="Fill-302" d="M291,370.45,347.19,338a.66.66,0,0,0-.66-1.14l-56.2,32.44a.66.66,0,1,0,.66,1.14" style="fill:#4a4a4a"/><path id="aaa09aa9-d4e6-4abf-8ec8-3d93cbabc561" data-name="Fill-303" d="M234.8,338l31-17.9a.66.66,0,0,0-.66-1.14l-31,17.9a.66.66,0,0,0,.65,1.14" style="fill:#4a4a4a"/><path id="3013581d-03cf-4327-b8bd-92800c8b84d3" data-name="Fill-304" d="M291,435.34l56.19-32.44a.66.66,0,0,0-.66-1.14l-56.2,32.44a.66.66,0,1,0,.66,1.14" style="fill:#4a4a4a"/></g><g id="ec8dec12-2e41-4d6b-9940-e22986958215" data-name="Static Top"><path id="db0d1387-da29-4ee7-ad27-b2933db777d3" data-name="Fill-53" d="M290.15,167.7v167a.66.66,0,0,0,1.31,0v-167a.66.66,0,1,0-1.31,0" style="fill:#4a4a4a"/><path id="6a1c3bd8-c581-49e7-88a0-d57607f73fa8" data-name="Fill-54" d="M434.81,84.18v167a.66.66,0,1,0,1.31,0v-167a.66.66,0,1,0-1.31,0" style="fill:#4a4a4a"/><path id="77b9f2eb-2be1-41bc-b575-884000c5862a" data-name="Fill-55" d="M145.49,84.18v167a.66.66,0,1,0,1.31,0v-167a.66.66,0,1,0-1.31,0" style="fill:#4a4a4a"/><path id="6235396d-9caa-4edf-93f4-e767f7ed9ee7" data-name="Fill-56" d="M145.81,84.74l144.66,83.52a.66.66,0,0,0,.66-1.14L146.47,83.61a.66.66,0,0,0-.66,1.14" style="fill:#4a4a4a"/><path id="8dbf104e-3299-443b-8f0c-319b366ba2a7" data-name="Fill-57" d="M290.48,1.22,435.14,84.74a.66.66,0,0,0,.66-1.14L291.13.09a.66.66,0,1,0-.66,1.14" style="fill:#4a4a4a"/><path id="bdc0b4f4-3f88-4aa9-8158-9b5557de1183" data-name="Fill-58" d="M145.81,251.79l144.66,83.52a.66.66,0,0,0,.66-1.14L146.47,250.65a.66.66,0,0,0-.66,1.14" style="fill:#4a4a4a"/><path id="90fc9131-1919-4a41-9e27-613e1bb046f6" data-name="Fill-59" d="M291.13,168.27,435.8,84.74a.66.66,0,0,0-.66-1.14L290.48,167.13a.66.66,0,1,0,.66,1.14" style="fill:#4a4a4a"/><path id="e45b8548-70d2-4aa6-89dd-827c664940a2" data-name="Fill-60" d="M146.47,84.74,291.13,1.22a.66.66,0,0,0-.66-1.14L145.81,83.61a.66.66,0,0,0,.66,1.14" style="fill:#4a4a4a"/><path id="c000209c-692a-4208-b9ef-7ad49589aafc" data-name="Fill-61" d="M291.13,335.31,435.8,251.79a.66.66,0,0,0-.66-1.14L290.48,334.17a.66.66,0,1,0,.66,1.14" style="fill:#4a4a4a"/></g></g></g></g></g></g></g><g id="a1082161-83b1-403a-8b05-5931e5d8ebbd" data-name="JAVA-ENGINEERING" style="opacity:0.8500000238418579"><g id="5faa4338-7611-4474-8dd6-b6ff916642d8" data-name="Java-Engineering"><g id="22fb63ec-e86d-4efa-ae93-f2d6cb289f65" data-name="Schemes"><g id="cfcd0b32-dadb-4266-b1c0-db3d2cec2173" data-name="Reenginiring-&amp;-Microservices"><g id="258afcb7-8cd8-43a9-9590-44ed01a7dc3d" data-name="Links"><g id="89a36de8-6bcb-44fc-a606-f127a90606e2" data-name="03"><path id="6694fede-aa6e-4a9f-b3be-03b8aab0d3ea" data-name="Fill-2" d="M576.49,574.66a.6.6,0,1,0,0-1.2H450.56a.6.6,0,1,0,0,1.2Z" style="fill:#dadada"/><path id="2c0cad1a-b9f6-4615-801e-b9d74fe8d08c" data-name="Fill-215" d="M576.61,574.12h.6a1.8,1.8,0,1,1,1.8,1.8,1.8,1.8,0,0,1-1.8-1.8H576a3,3,0,1,0,3-3,3,3,0,0,0-3,3h.6" style="fill:#dadada"/></g><g id="7742def2-90f2-49ce-9aa3-4e7fadabbb50" data-name="02"><path id="ab81d9ab-4870-496d-b5ab-0ab616b66c36" data-name="Fill-2" d="M5.51,370.56a.6.6,0,1,0,0,1.2H131.44a.6.6,0,1,0,0-1.2Z" style="fill:#dadada"/><path id="cd54e299-c7fb-45c6-bccd-5f8463301c7b" data-name="Fill-215" d="M5.39,371.11h-.6a1.8,1.8,0,1,1-1.8-1.8,1.8,1.8,0,0,1,1.8,1.8H6a3,3,0,1,0-3,3,3,3,0,0,0,3-3h-.6" style="fill:#dadada"/></g><g id="016612d0-58c5-44a7-a9e5-5c72a097eceb" data-name="01"><path id="e9c1c885-b33f-4d44-8dda-f8037f62c5ac" data-name="Fill-2" d="M576.49,168.66a.6.6,0,1,0,0-1.2H450.56a.6.6,0,1,0,0,1.2Z" style="fill:#dadada"/><path id="87c438e4-be21-4268-b9cc-1a969ca1d48c" data-name="Fill-215" d="M576.61,168.12h.6a1.8,1.8,0,1,1,1.8,1.8,1.8,1.8,0,0,1-1.8-1.8H576a3,3,0,1,0,3-3,3,3,0,0,0-3,3h.6" style="fill:#dadada"/></g></g></g></g></g></g></g></g></svg>