<svg xmlns="http://www.w3.org/2000/svg" width="582" height="743.32" viewBox="0 0 582 743.32"><title>jb-stat</title><g id="a54610bf-10ef-4c4f-b054-66f53f17fa4b" data-name="Слой 2"><g id="e1dab556-9645-46b3-b57a-679d3f2566cd" data-name="Слой 1"><g id="e774eabb-4ed2-4fbd-8a76-639254150efe" data-name="JAVA-ENGINEERING"><g id="a2035a8a-de85-40dc-9fb9-11510576a7bb" data-name="Java-Engineering"><g id="6727fc1d-9be2-4795-b652-2f0e8eb51596" data-name="Schemes"><g id="b005fa9d-7b1f-49b1-984b-0662ba007d43" data-name="Reenginiring-&amp;-Microservices"><g id="93a6d19b-4633-4552-a43e-a39226b350b6" data-name="Scheme"><g id="cffb1803-86ed-46ad-9f06-d005f8732f21" data-name="Static"><g id="33c36cf6-58f3-487e-9a41-71aeb4fdea84" data-name="Static Bottom" style="opacity:0.6000000238418579"><path id="9b7e6d38-7cd7-4a1e-add6-7d3cca2cfc7f" data-name="Fill-1" d="M167.08,646.73V672.2a.66.66,0,1,0,1.31,0V646.73a.66.66,0,1,0-1.31,0" style="fill:#0a0b09"/><path id="8a3c7c74-ab63-42a1-bc39-f23a98351168" data-name="Fill-2" d="M189.14,645.07v3.27a.66.66,0,1,0,1.31,0v-3.27a.66.66,0,1,0-1.31,0" style="fill:#0a0b09"/><path id="42a61eea-db4e-489a-b1c1-5d1a9d2e3e9a" data-name="Fill-3" d="M145,634v25.48a.66.66,0,0,0,1.31,0V634a.66.66,0,1,0-1.31,0" style="fill:#0a0b09"/><path id="4157371e-7837-46a0-ba52-c2e6ec09ecce" data-name="Fill-4" d="M145.34,634.56l22.06,12.74a.66.66,0,0,0,.65-1.14L146,633.42a.66.66,0,1,0-.65,1.14" style="fill:#0a0b09"/><path id="15f7220b-790d-4ac9-a3e6-716b302b3cee" data-name="Fill-5" d="M177.25,627.5l2.83,1.63a.66.66,0,0,0,.65-1.14l-2.83-1.63a.66.66,0,0,0-.65,1.14" style="fill:#0a0b09"/><path id="568fe318-a3a1-4727-ba10-7403cb2bcafd" data-name="Fill-6" d="M145.34,660l22.06,12.74a.66.66,0,0,0,.65-1.14L146,658.9a.66.66,0,0,0-.65,1.14" style="fill:#0a0b09"/><path id="4df692e6-c16d-4629-b9fe-d5d7b1fa3c34" data-name="Fill-7" d="M168.06,647.3,180.73,640a.66.66,0,1,0-.66-1.14l-12.67,7.32a.66.66,0,0,0,.66,1.14" style="fill:#0a0b09"/><path id="b9a6f414-8e2e-4156-b07c-071f2dc801ca" data-name="Fill-8" d="M146,634.56l12.2-7a.66.66,0,0,0-.66-1.14l-12.2,7a.66.66,0,1,0,.66,1.14" style="fill:#0a0b09"/><path id="57dc7c99-1865-4298-8468-4e2e29e730e6" data-name="Fill-9" d="M168.06,672.77l12.67-7.31a.66.66,0,1,0-.66-1.14l-12.67,7.31a.66.66,0,0,0,.66,1.14" style="fill:#0a0b09"/><path id="a30105a5-6212-4201-85ae-70463964653f" data-name="Fill-10" d="M167.08,607.14v25.48a.66.66,0,1,0,1.31,0V607.14a.66.66,0,1,0-1.31,0" style="fill:#0a0b09"/><path id="92f2d311-75d8-4cc1-8857-02496291b001" data-name="Fill-11" d="M189.14,594.4v14.35a.66.66,0,1,0,1.31,0V594.4a.66.66,0,1,0-1.31,0" style="fill:#0a0b09"/><path id="ffa409ea-bdf0-47cb-ba91-d12330cdab4d" data-name="Fill-12" d="M145,594.4v25.48a.66.66,0,0,0,1.31,0V594.4a.66.66,0,1,0-1.31,0" style="fill:#0a0b09"/><path id="8be9a2d6-d51e-4b8b-920a-a4ea74791dd9" data-name="Fill-13" d="M145.34,595l22.06,12.74a.66.66,0,0,0,.65-1.14L146,593.83a.66.66,0,1,0-.65,1.14" style="fill:#0a0b09"/><path id="0ab833f6-c021-4ee5-a9ce-cc199cffb48f" data-name="Fill-14" d="M167.51,582.17l22,12.68a.66.66,0,1,0,.66-1.14l-22-12.68a.66.66,0,0,0-.66,1.14" style="fill:#0a0b09"/><path id="c55882d0-f00f-47c8-b114-32c70e3405e0" data-name="Fill-15" d="M145.34,620.44l22.06,12.74a.66.66,0,0,0,.65-1.14L146,619.31a.66.66,0,1,0-.65,1.14" style="fill:#0a0b09"/><path id="723a54bb-573c-45ef-988a-5136ca0a9663" data-name="Fill-16" d="M168.06,607.71,190.13,595a.66.66,0,0,0-.66-1.14l-22.06,12.74a.66.66,0,0,0,.65,1.14" style="fill:#0a0b09"/><path id="6d47fed9-c5e4-4bae-ba22-14f46861b6f8" data-name="Fill-17" d="M146,595l22.17-12.8a.66.66,0,0,0-.66-1.14l-22.17,12.8A.66.66,0,1,0,146,595" style="fill:#0a0b09"/><path id="f3fd0f09-2561-486d-b692-3046e75c355b" data-name="Fill-18" d="M168.06,633.18l12.67-7.32a.66.66,0,0,0-.66-1.14L167.41,632a.66.66,0,0,0,.66,1.14" style="fill:#0a0b09"/><path id="57218837-21cc-48fc-9261-9984e565960e" data-name="Fill-19" d="M201.81,666.49V692a.66.66,0,1,0,1.31,0V666.49a.66.66,0,1,0-1.31,0" style="fill:#0a0b09"/><path id="ff835bcf-7d7d-41d9-b93c-71449dc3a787" data-name="Fill-20" d="M223.88,653.76v25.48a.66.66,0,0,0,1.31,0V653.76a.66.66,0,1,0-1.31,0" style="fill:#0a0b09"/><path id="a2d07099-4170-4e3b-b125-bae706dd7ae7" data-name="Fill-21" d="M179.75,653.76v25.48a.66.66,0,0,0,1.31,0V653.76a.66.66,0,1,0-1.31,0" style="fill:#0a0b09"/><path id="f53bcdf7-9286-4e1d-9b4f-c829ade2e952" data-name="Fill-22" d="M180.08,654.32l22.06,12.74a.66.66,0,0,0,.66-1.14l-22.06-12.74a.65.65,0,1,0-.65,1.13" style="fill:#0a0b09"/><path id="df975842-01d8-4da0-ba3f-72e54973b1e7" data-name="Fill-23" d="M212,647.27l12.23,7.06a.66.66,0,0,0,.66-1.14l-12.23-7.06a.66.66,0,0,0-.66,1.14" style="fill:#0a0b09"/><path id="2e5d558d-60e1-4755-8c8a-6e70be3911c4" data-name="Fill-24" d="M180.08,679.8l22.06,12.74a.66.66,0,0,0,.66-1.14l-22.06-12.74a.66.66,0,0,0-.65,1.14" style="fill:#0a0b09"/><path id="865a8c24-d4f7-4c25-8209-50af00efb996" data-name="Fill-25" d="M202.8,667.06l22.06-12.74a.66.66,0,1,0-.66-1.13l-22.06,12.74a.66.66,0,0,0,.66,1.14" style="fill:#0a0b09"/><path id="3208410f-7d0a-4c8d-b030-a3504f4a4b56" data-name="Fill-26" d="M180.73,654.32,193,647.27a.66.66,0,0,0-.66-1.14l-12.22,7.06a.66.66,0,0,0,.65,1.14" style="fill:#0a0b09"/><path id="c132f72a-aed3-4a64-9e99-c8c06ecd12cd" data-name="Fill-27" d="M202.8,692.54l22.06-12.74a.66.66,0,0,0-.66-1.14L202.14,691.4a.66.66,0,0,0,.66,1.14" style="fill:#0a0b09"/><path id="52ab97aa-81dc-480b-9f73-6249dff2a687" data-name="Fill-28" d="M201.81,626.91v25.48a.66.66,0,1,0,1.31,0V626.91a.66.66,0,1,0-1.31,0" style="fill:#0a0b09"/><path id="fe711df4-c739-4df9-bc7a-dcb66ab4be55" data-name="Fill-29" d="M223.88,614.17v25.48a.66.66,0,0,0,1.31,0V614.17a.66.66,0,1,0-1.31,0" style="fill:#0a0b09"/><path id="903131db-6162-4794-830a-6e38dd3ca0e0" data-name="Fill-30" d="M179.75,614.17v25.48a.66.66,0,0,0,1.31,0V614.17a.66.66,0,1,0-1.31,0" style="fill:#0a0b09"/><path id="848b7153-76ab-46c7-bd79-00e1cac7ba51" data-name="Fill-31" d="M180.08,614.74l22.06,12.74a.66.66,0,0,0,.66-1.14L180.73,613.6a.66.66,0,0,0-.65,1.14" style="fill:#0a0b09"/><path id="0b6b1321-c3a9-4cbd-8019-d31371479b0d" data-name="Fill-32" d="M202.14,602l22.06,12.74a.66.66,0,0,0,.66-1.14L202.8,600.86a.66.66,0,0,0-.66,1.14" style="fill:#0a0b09"/><path id="a8a2051c-b758-41ef-ad0b-eb17c4dc1d14" data-name="Fill-33" d="M180.08,640.21,202.14,653a.66.66,0,0,0,.66-1.14l-22.06-12.74a.66.66,0,0,0-.65,1.14" style="fill:#0a0b09"/><path id="466ddddc-7ca9-4dce-bf6d-f0b4a2d7819c" data-name="Fill-34" d="M202.8,627.47l22.06-12.74a.66.66,0,1,0-.66-1.14l-22.06,12.74a.66.66,0,0,0,.66,1.14" style="fill:#0a0b09"/><path id="1627ef93-2f61-46a9-ad00-8c71a1cf5207" data-name="Fill-35" d="M180.73,614.74,202.8,602a.66.66,0,1,0-.66-1.14L180.08,613.6a.66.66,0,0,0,.65,1.14" style="fill:#0a0b09"/><path id="bfe0bea2-82fd-413b-a071-d53a12e7a91a" data-name="Fill-36" d="M202.8,653l22.06-12.74a.66.66,0,0,0-.66-1.14l-22.06,12.74a.66.66,0,0,0,.66,1.14" style="fill:#0a0b09"/><path id="6e76acf8-9ced-4a93-a2e4-cdbd826251cb" data-name="Fill-37" d="M413.22,646.73V672.2a.66.66,0,1,0,1.31,0V646.73a.66.66,0,1,0-1.31,0" style="fill:#0a0b09"/><path id="e44a44a4-d5e3-42c5-bd2b-e87e78e468dc" data-name="Fill-38" d="M435.28,634v25.48a.66.66,0,1,0,1.31,0V634a.66.66,0,1,0-1.31,0" style="fill:#0a0b09"/><path id="ebb2548b-3f2f-4bf2-ba66-bafbba8f6d77" data-name="Fill-39" d="M391.16,645.07v3.27a.66.66,0,1,0,1.31,0v-3.27a.66.66,0,1,0-1.31,0" style="fill:#0a0b09"/><path id="ba625f97-1e49-4b38-b90e-3e109ce570f8" data-name="Fill-40" d="M400.87,640l12.67,7.32a.66.66,0,0,0,.66-1.14l-12.67-7.32a.66.66,0,1,0-.66,1.14" style="fill:#0a0b09"/><path id="0222e331-f51c-4406-bf68-541a73e5c952" data-name="Fill-41" d="M423.39,627.5l12.22,7.06a.66.66,0,0,0,.66-1.14L424,626.36a.66.66,0,1,0-.66,1.14" style="fill:#0a0b09"/><path id="215e6c0a-0000-4f7d-b0cb-da55ea75177b" data-name="Fill-42" d="M400.87,665.45l12.67,7.32a.66.66,0,0,0,.66-1.14l-12.67-7.32a.66.66,0,1,0-.66,1.14" style="fill:#0a0b09"/><path id="e4e81677-ce6f-4150-a121-5959fbf361f1" data-name="Fill-43" d="M414.2,647.3l22.06-12.74a.66.66,0,0,0-.65-1.14l-22.06,12.74a.66.66,0,1,0,.66,1.14" style="fill:#0a0b09"/><path id="d4882833-134b-4b1f-bb6b-bc4d16ae6ef4" data-name="Fill-44" d="M401.53,629.13l2.83-1.63a.66.66,0,0,0-.66-1.14L400.88,628a.66.66,0,0,0,.66,1.14" style="fill:#0a0b09"/><path id="5a3c91c5-0d4c-4533-83ef-84149eeb72cf" data-name="Fill-45" d="M414.2,672.77,436.27,660a.66.66,0,0,0-.65-1.14l-22.06,12.74a.66.66,0,1,0,.66,1.14" style="fill:#0a0b09"/><path id="6125b032-54ab-487f-94ff-acbb91c06bed" data-name="Fill-46" d="M413.22,607.14v25.48a.66.66,0,1,0,1.31,0V607.14a.66.66,0,1,0-1.31,0" style="fill:#0a0b09"/><path id="e57807f5-fe8a-4f47-93b2-159028ee75e2" data-name="Fill-47" d="M435.28,594.4v25.48a.66.66,0,1,0,1.31,0V594.4a.66.66,0,1,0-1.31,0" style="fill:#0a0b09"/><path id="eae21383-06db-4514-af5a-7825e76c20d8" data-name="Fill-48" d="M391.16,594.4v14.35a.66.66,0,1,0,1.31,0V594.4a.66.66,0,1,0-1.31,0" style="fill:#0a0b09"/><path id="338cfa41-6401-4a75-9c4c-9aa36bb3d9cb" data-name="Fill-49" d="M391.48,595l22.06,12.74a.66.66,0,0,0,.66-1.14l-22.06-12.74a.66.66,0,1,0-.66,1.14" style="fill:#0a0b09"/><path id="cbba02b9-40b0-480c-b36f-d82f3c8c28df" data-name="Fill-50" d="M413.44,582.17,435.61,595a.66.66,0,0,0,.66-1.14L414.1,581a.66.66,0,1,0-.66,1.14" style="fill:#0a0b09"/><path id="2fcd0b13-502e-488c-ba1f-de8fd8bb5464" data-name="Fill-51" d="M400.88,625.87l12.67,7.32a.66.66,0,0,0,.66-1.14l-12.67-7.32a.66.66,0,1,0-.66,1.14" style="fill:#0a0b09"/><path id="52e3087e-c811-493d-a84b-e11266365de0" data-name="Fill-52" d="M414.2,607.71,436.27,595a.66.66,0,0,0-.65-1.14l-22.06,12.74a.66.66,0,1,0,.66,1.14" style="fill:#0a0b09"/><path id="08583784-aabd-4156-9ff7-fe46a28be620" data-name="Fill-53" d="M392.14,594.85l22-12.68a.66.66,0,0,0-.66-1.14l-22,12.68a.66.66,0,1,0,.66,1.14" style="fill:#0a0b09"/><path id="37599296-8421-4fcb-9cfe-65bdc317fb7e" data-name="Fill-54" d="M414.2,633.18l22.06-12.74a.66.66,0,0,0-.65-1.14L413.55,632a.66.66,0,1,0,.66,1.14" style="fill:#0a0b09"/><path id="88035a5b-fb65-4661-8aee-6b9765cbf750" data-name="Fill-55" d="M378.48,666.49V692a.66.66,0,1,0,1.31,0V666.49a.66.66,0,1,0-1.31,0" style="fill:#0a0b09"/><path id="4911f1cb-ba18-417a-a300-3a7925f4da25" data-name="Fill-56" d="M400.55,653.76v25.48a.66.66,0,0,0,1.31,0V653.76a.66.66,0,1,0-1.31,0" style="fill:#0a0b09"/><path id="30bdabfd-c2cb-4b81-a9eb-b865aa6ca984" data-name="Fill-57" d="M356.42,653.76v25.48a.66.66,0,0,0,1.31,0V653.76a.66.66,0,1,0-1.31,0" style="fill:#0a0b09"/><path id="56db8e33-bf79-40ff-8e8b-85e764498635" data-name="Fill-58" d="M356.75,654.32l22.06,12.74a.66.66,0,1,0,.66-1.14L357.4,653.19a.65.65,0,0,0-.65,1.13" style="fill:#0a0b09"/><path id="848cfa91-88b9-4835-b9c3-e9bb3dfeb610" data-name="Fill-59" d="M388.65,647.27l12.23,7.06a.66.66,0,0,0,.66-1.14l-12.23-7.06a.66.66,0,0,0-.66,1.14" style="fill:#0a0b09"/><path id="3adc6924-ac07-4be2-bc16-352bae2c51ab" data-name="Fill-60" d="M356.75,679.8l22.06,12.74a.66.66,0,1,0,.66-1.14L357.4,678.67a.66.66,0,0,0-.65,1.14" style="fill:#0a0b09"/><path id="2e083ef0-1600-4f66-b7d5-949e2009aa1b" data-name="Fill-61" d="M379.47,667.06l22.06-12.74a.66.66,0,1,0-.66-1.13l-22.06,12.74a.66.66,0,0,0,.66,1.14" style="fill:#0a0b09"/><path id="e7501b04-44fc-42e7-8f17-5cfea462de3c" data-name="Fill-62" d="M357.4,654.32l12.22-7.06a.66.66,0,0,0-.66-1.14l-12.22,7.06a.66.66,0,0,0,.65,1.14" style="fill:#0a0b09"/><path id="2caa3921-7452-4c84-931d-8434459829db" data-name="Fill-63" d="M379.47,692.54l22.06-12.74a.66.66,0,0,0-.66-1.14L378.81,691.4a.66.66,0,0,0,.66,1.14" style="fill:#0a0b09"/><path id="181f3fac-1a15-49e4-a038-694b1d708a0a" data-name="Fill-64" d="M378.48,626.91v25.48a.66.66,0,1,0,1.31,0V626.91a.66.66,0,1,0-1.31,0" style="fill:#0a0b09"/><path id="db70fdde-233b-4ca8-90ad-cc18b8e31e32" data-name="Fill-65" d="M400.55,614.17v25.48a.66.66,0,0,0,1.31,0V614.17a.66.66,0,0,0-1.31,0" style="fill:#0a0b09"/><path id="674c4797-9073-4de2-8b0a-5e32ae0e7c82" data-name="Fill-66" d="M356.42,614.17v25.48a.66.66,0,0,0,1.31,0V614.17a.66.66,0,1,0-1.31,0" style="fill:#0a0b09"/><path id="8615b066-2ddd-4489-96ea-b58a06fda03f" data-name="Fill-67" d="M356.75,614.74l22.06,12.74a.66.66,0,1,0,.66-1.14L357.4,613.6a.66.66,0,0,0-.65,1.14" style="fill:#0a0b09"/><path id="b7febbd3-38b7-49ad-9e5c-6241a36d6f5e" data-name="Fill-68" d="M378.81,602l22.06,12.74a.66.66,0,0,0,.66-1.14l-22.06-12.74a.66.66,0,1,0-.66,1.14" style="fill:#0a0b09"/><path id="1649d44a-d401-418c-ad3d-4c3cdd3928b3" data-name="Fill-69" d="M356.75,640.21,378.81,653a.66.66,0,1,0,.66-1.14L357.4,639.08a.66.66,0,0,0-.65,1.14" style="fill:#0a0b09"/><path id="49e6b8e2-c766-4c91-8e34-e5bc64019f4f" data-name="Fill-70" d="M379.47,627.47l22.06-12.74a.66.66,0,0,0-.66-1.14l-22.06,12.74a.66.66,0,0,0,.66,1.14" style="fill:#0a0b09"/><path id="41e50223-7342-4124-bdcd-6abdd659db30" data-name="Fill-71" d="M357.4,614.74,379.47,602a.66.66,0,1,0-.66-1.14L356.75,613.6a.66.66,0,0,0,.65,1.14" style="fill:#0a0b09"/><path id="4cbd6a2e-11e8-44c0-a6b2-effd0bed577c" data-name="Fill-72" d="M379.47,653l22.06-12.74a.66.66,0,0,0-.66-1.14l-22.06,12.74a.66.66,0,0,0,.66,1.14" style="fill:#0a0b09"/><path id="a33f400d-a8ac-48fa-94ab-7a214cf1790f" data-name="Fill-73" d="M167.5,545.76v25.48a.66.66,0,1,0,1.31,0V545.76a.66.66,0,1,0-1.31,0" style="fill:#0a0b09"/><path id="1fd81319-e763-41f6-a702-24c0958f5f56" data-name="Fill-74" d="M189.57,544.1v3.27a.66.66,0,1,0,1.31,0V544.1a.66.66,0,0,0-1.31,0" style="fill:#0a0b09"/><path id="ce613c8b-abd3-4687-bbb3-9a1026d5fc92" data-name="Fill-75" d="M145.44,533V558.5a.66.66,0,1,0,1.31,0V533a.66.66,0,1,0-1.31,0" style="fill:#0a0b09"/><path id="75cada7b-bde9-434e-ab53-bb3a90efe82b" data-name="Fill-76" d="M145.76,533.59l22.07,12.74a.66.66,0,0,0,.66-1.14l-22.07-12.74a.66.66,0,0,0-.66,1.14" style="fill:#0a0b09"/><path id="3f13e7f2-9401-4e47-845c-a07ae623335a" data-name="Fill-77" d="M177.68,526.53l2.83,1.63a.66.66,0,0,0,.66-1.14l-2.83-1.63a.66.66,0,0,0-.66,1.14" style="fill:#0a0b09"/><path id="a01cf4f1-2847-4ecc-a763-c592ef3c4ba6" data-name="Fill-78" d="M145.76,559.07l22.07,12.74a.66.66,0,1,0,.66-1.14l-22.07-12.74a.66.66,0,0,0-.66,1.14" style="fill:#0a0b09"/><path id="6e54302c-bc38-42aa-8342-d90274e1c564" data-name="Fill-79" d="M168.49,546.33,181.16,539a.66.66,0,1,0-.66-1.14l-12.67,7.32a.66.66,0,0,0,.66,1.14" style="fill:#0a0b09"/><path id="c9055084-bc9c-41d9-81a4-04d1b67a585a" data-name="Fill-80" d="M146.42,533.59l12.2-7a.66.66,0,0,0-.66-1.14l-12.2,7a.66.66,0,0,0,.66,1.14" style="fill:#0a0b09"/><path id="0818c271-e9bd-43e4-9600-9a5f8bc2ed38" data-name="Fill-81" d="M168.49,571.81l12.67-7.32a.66.66,0,0,0-.66-1.14l-12.67,7.32a.66.66,0,1,0,.66,1.14" style="fill:#0a0b09"/><path id="561710bd-0e45-4047-a131-1dfe6b346274" data-name="Fill-82" d="M167.5,506.16v25.48a.66.66,0,0,0,1.31,0V506.16a.66.66,0,0,0-1.31,0" style="fill:#0a0b09"/><path id="c3f10952-5472-4cc8-b562-384dfd542c38" data-name="Fill-83" d="M189.57,493.42v14.35a.66.66,0,1,0,1.31,0V493.42a.66.66,0,1,0-1.31,0" style="fill:#0a0b09"/><path id="7085f4c5-f550-431f-9bf0-bbc4cb0c88c2" data-name="Fill-84" d="M145.44,493.42V518.9a.66.66,0,0,0,1.31,0V493.42a.66.66,0,1,0-1.31,0" style="fill:#0a0b09"/><path id="35383bd5-2272-47a3-9356-73667977084d" data-name="Fill-85" d="M145.76,494l22.07,12.74a.66.66,0,1,0,.66-1.14l-22.07-12.74a.66.66,0,0,0-.66,1.14" style="fill:#0a0b09"/><path id="daf67191-0d2b-43a5-8194-03e3d0a5501f" data-name="Fill-86" d="M167.94,481.19l22,12.68a.66.66,0,0,0,.66-1.14l-22-12.68a.66.66,0,0,0-.66,1.14" style="fill:#0a0b09"/><path id="fb9ef481-2114-406c-9cb5-568627b294cc" data-name="Fill-87" d="M145.76,519.47l22.07,12.74a.66.66,0,1,0,.66-1.14l-22.07-12.74a.66.66,0,0,0-.66,1.14" style="fill:#0a0b09"/><path id="7e047fd5-e804-4552-a7ec-ef6064d45254" data-name="Fill-88" d="M168.49,506.73,190.56,494a.66.66,0,0,0-.66-1.14L167.83,505.6a.66.66,0,1,0,.66,1.14" style="fill:#0a0b09"/><path id="07604daa-ebec-4efa-82cf-29ab10f18568" data-name="Fill-89" d="M146.42,494l22.17-12.8a.66.66,0,0,0-.66-1.14l-22.17,12.8a.66.66,0,0,0,.66,1.14" style="fill:#0a0b09"/><path id="0e377c7f-e5b1-4903-8ed9-5c10d53cf4cd" data-name="Fill-90" d="M168.49,532.21l12.68-7.32a.66.66,0,1,0-.66-1.14l-12.68,7.32a.66.66,0,1,0,.66,1.14" style="fill:#0a0b09"/><path id="a8955945-88a5-4141-a5c7-444a5b080210" data-name="Fill-91" d="M202.25,565.54V591a.66.66,0,1,0,1.31,0V565.54a.66.66,0,1,0-1.31,0" style="fill:#0a0b09"/><path id="b1dc79b0-fd35-4dbc-8e3f-ca9e7b718830" data-name="Fill-92" d="M224.32,552.79v25.48a.66.66,0,1,0,1.31,0V552.79a.66.66,0,0,0-1.31,0" style="fill:#0a0b09"/><path id="ad488955-4966-4cf3-94ec-aed4913fc6cd" data-name="Fill-93" d="M180.18,552.79v25.48a.66.66,0,1,0,1.31,0V552.79a.66.66,0,0,0-1.31,0" style="fill:#0a0b09"/><path id="f650b398-cd5f-4933-b560-0a08027b0a75" data-name="Fill-94" d="M180.51,553.36l22.07,12.74a.66.66,0,1,0,.66-1.14l-22.07-12.74a.66.66,0,1,0-.66,1.14" style="fill:#0a0b09"/><path id="d28f5241-725c-44f2-845d-f42d4f00848a" data-name="Fill-95" d="M212.42,546.3l12.23,7.06a.66.66,0,0,0,.66-1.14l-12.23-7.06a.66.66,0,1,0-.66,1.14" style="fill:#0a0b09"/><path id="70dff46d-e3ee-49c8-814b-56f3824da251" data-name="Fill-96" d="M180.51,578.84l22.07,12.74a.66.66,0,0,0,.66-1.14l-22.07-12.74a.66.66,0,0,0-.66,1.14" style="fill:#0a0b09"/><path id="832f86a9-bea4-4121-9b99-a4f7ca6e7ae0" data-name="Fill-97" d="M203.23,566.1l22.07-12.74a.66.66,0,0,0-.66-1.14L202.58,565a.66.66,0,1,0,.66,1.14" style="fill:#0a0b09"/><path id="a9f0abc8-17ac-4158-8cc1-9363db59749d" data-name="Fill-98" d="M181.16,553.36l12.22-7.06a.66.66,0,0,0-.66-1.14l-12.22,7.06a.66.66,0,1,0,.66,1.14" style="fill:#0a0b09"/><path id="4a4d77fb-6eda-4925-bf4e-c7e36723540f" data-name="Fill-99" d="M203.23,591.59l22.07-12.74a.66.66,0,0,0-.66-1.14l-22.07,12.74a.66.66,0,0,0,.66,1.14" style="fill:#0a0b09"/><path id="03c3ee33-e214-4b6c-93fa-0170e1c8c565" data-name="Fill-100" d="M202.25,525.94v25.48a.66.66,0,1,0,1.31,0V525.94a.66.66,0,1,0-1.31,0" style="fill:#0a0b09"/><path id="f87cf3fe-48ba-4d6b-ad25-021fbe51920d" data-name="Fill-101" d="M224.32,513.19v25.48a.66.66,0,1,0,1.31,0V513.19a.66.66,0,0,0-1.31,0" style="fill:#0a0b09"/><path id="927ea444-33ab-43d7-ae21-6bcea7c6952d" data-name="Fill-102" d="M180.18,513.19v25.48a.66.66,0,1,0,1.31,0V513.19a.66.66,0,0,0-1.31,0" style="fill:#0a0b09"/><path id="791ddb2a-6a83-4f6e-88c4-dcac5008b28d" data-name="Fill-103" d="M180.51,513.76l22.07,12.74a.66.66,0,0,0,.66-1.14l-22.07-12.74a.66.66,0,0,0-.66,1.14" style="fill:#0a0b09"/><path id="88cac32d-1e9f-4339-ba8c-baa84699ec1b" data-name="Fill-104" d="M202.58,501l22.07,12.74a.66.66,0,0,0,.66-1.14l-22.07-12.74a.66.66,0,1,0-.66,1.14" style="fill:#0a0b09"/><path id="acdb3ce4-23e1-412a-a86e-deb37f5609b7" data-name="Fill-105" d="M180.51,539.25,202.58,552a.66.66,0,1,0,.66-1.14l-22.07-12.74a.66.66,0,1,0-.66,1.14" style="fill:#0a0b09"/><path id="be3ec44b-d31c-44d7-8978-7316b21f097e" data-name="Fill-106" d="M203.23,526.5l22.07-12.74a.66.66,0,0,0-.66-1.14l-22.07,12.74a.66.66,0,1,0,.66,1.14" style="fill:#0a0b09"/><path id="b0544b9c-024f-43a5-8cdd-b51ae579c1c7" data-name="Fill-107" d="M181.16,513.76,203.23,501a.66.66,0,1,0-.66-1.14l-22.07,12.74a.66.66,0,0,0,.66,1.14" style="fill:#0a0b09"/><path id="b1d7a6a2-8809-40c5-be5c-82a0f60e1230" data-name="Fill-108" d="M203.23,552l22.07-12.74a.66.66,0,0,0-.66-1.14l-22.07,12.74a.66.66,0,1,0,.66,1.14" style="fill:#0a0b09"/><path id="77958cff-a860-4aa5-b114-85e76ce6551c" data-name="Fill-109" d="M412.66,545.5v25.39a.66.66,0,1,0,1.31,0V545.5a.66.66,0,1,0-1.31,0" style="fill:#0a0b09"/><path id="f3703308-3d86-4dbc-b4d9-2076d71c0ff4" data-name="Fill-110" d="M434.64,532.8v25.39a.66.66,0,0,0,1.31,0V532.8a.66.66,0,0,0-1.31,0" style="fill:#0a0b09"/><path id="d791f243-4adc-4041-bc03-fdaa54d15aba" data-name="Fill-111" d="M390.67,543.84v3.26a.66.66,0,0,0,1.31,0v-3.26a.66.66,0,1,0-1.31,0" style="fill:#0a0b09"/><path id="b073727b-bba4-49dd-9472-b898124a349a" data-name="Fill-112" d="M400.36,538.77,413,546.06a.66.66,0,0,0,.66-1.14L401,537.64a.66.66,0,0,0-.66,1.14" style="fill:#0a0b09"/><path id="ab5ca727-6c1b-4d55-b20c-d521099a9f56" data-name="Fill-113" d="M422.79,526.34l12.18,7a.66.66,0,0,0,.66-1.14l-12.18-7a.66.66,0,0,0-.66,1.14" style="fill:#0a0b09"/><path id="8db8797d-ff28-41b6-ad51-3485507fe8ff" data-name="Fill-114" d="M400.36,564.16,413,571.45a.66.66,0,0,0,.66-1.14L401,563a.66.66,0,0,0-.66,1.14" style="fill:#0a0b09"/><path id="c14c258e-c212-43c8-b1e7-dbe49e2d90be" data-name="Fill-115" d="M413.64,546.06l22-12.69a.66.66,0,0,0-.66-1.14l-22,12.69a.66.66,0,0,0,.65,1.14" style="fill:#0a0b09"/><path id="30fca5e5-5212-4103-9e96-f89d3c17efa9" data-name="Fill-116" d="M401,528l2.82-1.63a.66.66,0,0,0-.66-1.14l-2.82,1.63A.66.66,0,0,0,401,528" style="fill:#0a0b09"/><path id="102a9079-76ef-4fd8-aada-d28cd057f435" data-name="Fill-117" d="M413.64,571.45l22-12.69a.66.66,0,0,0-.66-1.14l-22,12.69a.66.66,0,0,0,.65,1.14" style="fill:#0a0b09"/><path id="287725a1-7dda-408a-bebf-9644d04e4066" data-name="Fill-118" d="M412.66,506v25.39a.66.66,0,1,0,1.31,0V506a.66.66,0,1,0-1.31,0" style="fill:#0a0b09"/><path id="7f2b8b18-c39d-4abd-82a8-e72c6cfd710b" data-name="Fill-119" d="M434.64,493.35v25.39a.66.66,0,0,0,1.31,0V493.35a.66.66,0,0,0-1.31,0" style="fill:#0a0b09"/><path id="6b49d573-9e3b-4167-863e-80dd979a300b" data-name="Fill-120" d="M390.67,493.35v14.3a.66.66,0,0,0,1.31,0v-14.3a.66.66,0,0,0-1.31,0" style="fill:#0a0b09"/><path id="e4c111c0-1a5d-4657-b05b-a9db807765c7" data-name="Fill-121" d="M391,493.92l22,12.69a.66.66,0,0,0,.66-1.14l-22-12.69a.66.66,0,1,0-.66,1.14" style="fill:#0a0b09"/><path id="a03b921a-c829-44a4-a30f-6be66b47355e" data-name="Fill-122" d="M412.88,481.17,435,493.92a.66.66,0,0,0,.66-1.14L413.54,480a.66.66,0,1,0-.65,1.14" style="fill:#0a0b09"/><path id="ef6be2c0-04b2-4d83-8ffb-496b1924d6c4" data-name="Fill-123" d="M400.36,524.71,413,532a.66.66,0,0,0,.66-1.14L401,523.58a.66.66,0,0,0-.66,1.14" style="fill:#0a0b09"/><path id="9dc64b43-9808-4266-9aef-846cac498383" data-name="Fill-124" d="M413.64,506.62l22-12.69a.66.66,0,0,0-.66-1.14l-22,12.69a.66.66,0,0,0,.66,1.14" style="fill:#0a0b09"/><path id="622309f4-93e5-4ddd-98c6-878241457267" data-name="Fill-125" d="M391.66,493.8l21.88-12.63a.66.66,0,0,0-.65-1.14L391,492.66a.66.66,0,0,0,.65,1.14" style="fill:#0a0b09"/><path id="c8ee883f-59e5-4c7f-9678-eaa585e71b7f" data-name="Fill-126" d="M413.64,532l22-12.69a.66.66,0,0,0-.66-1.14l-22,12.69a.66.66,0,0,0,.65,1.14" style="fill:#0a0b09"/><path id="a634ba11-4e49-4075-9801-88dd90db5334" data-name="Fill-127" d="M378,565.2v25.39a.66.66,0,0,0,1.31,0V565.2a.66.66,0,0,0-1.31,0" style="fill:#0a0b09"/><path id="27beb27f-183b-4741-a5de-1cf373f33e2a" data-name="Fill-128" d="M400,552.5v25.39a.66.66,0,0,0,1.31,0V552.5a.66.66,0,0,0-1.31,0" style="fill:#0a0b09"/><path id="9124d79a-3022-4a5e-88e5-c1764c844732" data-name="Fill-129" d="M356.06,552.5v25.39a.66.66,0,0,0,1.31,0V552.5a.66.66,0,1,0-1.31,0" style="fill:#0a0b09"/><path id="73b34df8-e285-4fd9-876f-41b9567732a0" data-name="Fill-130" d="M356.39,553.07l22,12.69a.66.66,0,0,0,.66-1.14l-22-12.69a.66.66,0,0,0-.66,1.14" style="fill:#0a0b09"/><path id="c4c08f89-5fcd-4360-bac4-2abc0d57f0c9" data-name="Fill-131" d="M388.18,546l12.18,7a.66.66,0,0,0,.66-1.14l-12.18-7a.66.66,0,0,0-.66,1.14" style="fill:#0a0b09"/><path id="069bbd58-c8f8-4ac8-98ec-52ea309c42d5" data-name="Fill-132" d="M356.39,578.46l22,12.69A.66.66,0,0,0,379,590l-22-12.69a.66.66,0,0,0-.66,1.14" style="fill:#0a0b09"/><path id="2b9663fa-5a7c-4d7e-a82d-06c5c1d6ef5a" data-name="Fill-133" d="M379,565.76l22-12.69a.66.66,0,0,0-.66-1.14l-22,12.69a.66.66,0,1,0,.66,1.14" style="fill:#0a0b09"/><path id="7c5173f9-635d-434a-a70e-cd43947447c1" data-name="Fill-134" d="M357,553.07l12.18-7a.66.66,0,0,0-.66-1.14l-12.18,7a.66.66,0,0,0,.66,1.14" style="fill:#0a0b09"/><path id="e118e616-0b3c-46c9-848a-635a9f9ed649" data-name="Fill-135" d="M379,591.15l22-12.69a.66.66,0,0,0-.66-1.14l-22,12.69a.66.66,0,1,0,.66,1.14" style="fill:#0a0b09"/><path id="04c9d26f-d39c-4270-a357-de321542fb84" data-name="Fill-136" d="M378,525.75v25.39a.66.66,0,0,0,1.31,0V525.75a.66.66,0,0,0-1.31,0" style="fill:#0a0b09"/><path id="b89741ff-4314-41d1-9a48-eb4875455b62" data-name="Fill-137" d="M400,513.05v25.39a.66.66,0,0,0,1.31,0V513.05a.66.66,0,0,0-1.31,0" style="fill:#0a0b09"/><path id="a5c9308c-1bc9-4c9f-bf5f-50e62f38b7ef" data-name="Fill-138" d="M356.06,513.05v25.39a.66.66,0,0,0,1.31,0V513.05a.66.66,0,0,0-1.31,0" style="fill:#0a0b09"/><path id="0f556527-3ecb-4581-8224-13330d78e062" data-name="Fill-139" d="M356.39,513.62l22,12.69a.66.66,0,0,0,.66-1.14l-22-12.69a.66.66,0,0,0-.66,1.14" style="fill:#0a0b09"/><path id="259d1b4d-a49a-4158-8c7c-f0568a27fc4a" data-name="Fill-140" d="M378.37,500.93l22,12.69a.66.66,0,0,0,.66-1.14l-22-12.69a.66.66,0,1,0-.66,1.14" style="fill:#0a0b09"/><path id="8b13a6c2-2adb-4b07-b457-6e1a77d6e331" data-name="Fill-141" d="M356.39,539l22,12.69a.66.66,0,0,0,.66-1.14l-22-12.69a.66.66,0,0,0-.66,1.14" style="fill:#0a0b09"/><path id="e739cb11-9e6f-4fa5-9076-75863ef6bc47" data-name="Fill-142" d="M379,526.31l22-12.69a.66.66,0,0,0-.66-1.14l-22,12.69a.66.66,0,1,0,.66,1.14" style="fill:#0a0b09"/><path id="c9bca08e-b818-4837-a966-e19109738ff2" data-name="Fill-143" d="M357,513.62l22-12.69a.66.66,0,1,0-.66-1.14l-22,12.69a.66.66,0,0,0,.66,1.14" style="fill:#0a0b09"/><path id="59ef2144-fd88-4454-8a89-7c15f4a040fc" data-name="Fill-144" d="M379,551.7,401,539a.66.66,0,0,0-.66-1.14l-22,12.69a.66.66,0,1,0,.66,1.14" style="fill:#0a0b09"/><path id="e8fe993a-2842-4c9b-8876-05121a81e90d" data-name="Fill-145" d="M324.75,697.42V722.9a.66.66,0,1,0,1.31,0V697.42a.66.66,0,1,0-1.31,0" style="fill:#0a0b09"/><path id="9215ac03-d07e-4aa1-b890-1a61b0cf17b4" data-name="Fill-146" d="M346.82,684.68v25.48a.66.66,0,0,0,1.31,0V684.68a.66.66,0,1,0-1.31,0" style="fill:#0a0b09"/><path id="3ac88761-75e0-4a74-a27a-8a622dd24caf" data-name="Fill-147" d="M302.69,695.76V699a.66.66,0,0,0,1.31,0v-3.27a.66.66,0,0,0-1.31,0" style="fill:#0a0b09"/><path id="1bbf1f65-0390-472c-9747-0a46affa6e1b" data-name="Fill-148" d="M312.4,690.67,325.08,698a.66.66,0,1,0,.66-1.14l-12.68-7.32a.66.66,0,0,0-.66,1.14" style="fill:#0a0b09"/><path id="b4c56285-b358-4e72-adc7-e70af5cc1a4a" data-name="Fill-149" d="M334.92,678.19l12.23,7.06a.66.66,0,0,0,.65-1.14l-12.23-7.06a.66.66,0,0,0-.66,1.14" style="fill:#0a0b09"/><path id="fb4f7b91-e60d-429e-860d-47059feb4932" data-name="Fill-150" d="M312.4,716.15l12.68,7.32a.66.66,0,1,0,.66-1.14L313.06,715a.66.66,0,1,0-.66,1.14" style="fill:#0a0b09"/><path id="33c2bde8-2f68-4455-a11e-e576b16b4a31" data-name="Fill-151" d="M325.73,698l22.06-12.74a.66.66,0,0,0-.65-1.14l-22.06,12.74a.66.66,0,1,0,.66,1.14" style="fill:#0a0b09"/><path id="f8f31710-6a82-44e2-9150-1c81ed3ad999" data-name="Fill-152" d="M313.06,679.83l2.83-1.63a.66.66,0,0,0-.66-1.14l-2.83,1.63a.66.66,0,0,0,.66,1.14" style="fill:#0a0b09"/><path id="0ab09470-d1a4-4897-8efc-451a5743b090" data-name="Fill-153" d="M325.73,723.47l22.06-12.74a.66.66,0,0,0-.66-1.14l-22.06,12.74a.66.66,0,0,0,.66,1.14" style="fill:#0a0b09"/><path id="4ba3b8d8-97c3-4b98-b4d5-2278e31925e7" data-name="Fill-154" d="M255.28,697.42V722.9a.66.66,0,1,0,1.31,0V697.42a.66.66,0,1,0-1.31,0" style="fill:#0a0b09"/><path id="58bf73f4-b7c6-42d5-a4eb-bd94bdb87ea8" data-name="Fill-155" d="M277.34,695.76V699a.66.66,0,0,0,1.31,0v-3.27a.66.66,0,0,0-1.31,0" style="fill:#0a0b09"/><path id="8d7d6d39-6165-466b-8503-5dd92f826dea" data-name="Fill-156" d="M233.22,684.68v25.48a.66.66,0,0,0,1.31,0V684.68a.66.66,0,1,0-1.31,0" style="fill:#0a0b09"/><path id="93b39409-4afc-4f62-9332-a58aee65e909" data-name="Fill-157" d="M233.54,685.25,255.61,698a.66.66,0,0,0,.65-1.14L234.2,684.11a.66.66,0,1,0-.66,1.14" style="fill:#0a0b09"/><path id="2448d20e-6c82-4eba-ad98-c749936ce419" data-name="Fill-158" d="M265.45,678.19l2.83,1.63a.66.66,0,0,0,.66-1.14l-2.83-1.63a.66.66,0,1,0-.66,1.14" style="fill:#0a0b09"/><path id="58aeea0f-b942-49b4-a38e-af9373c135eb" data-name="Fill-159" d="M233.54,710.73l22.06,12.74a.66.66,0,0,0,.66-1.14L234.2,709.59a.66.66,0,0,0-.66,1.14" style="fill:#0a0b09"/><path id="e27f31dc-ac9d-43bc-8c16-91e23bf271d5" data-name="Fill-160" d="M256.26,698l12.67-7.31a.66.66,0,0,0-.65-1.14l-12.67,7.31a.66.66,0,0,0,.65,1.14" style="fill:#0a0b09"/><path id="1357ae5b-376e-487a-9dd7-d69dfb8e40d3" data-name="Fill-161" d="M234.2,685.25l12.2-7a.66.66,0,0,0-.66-1.14l-12.2,7a.66.66,0,1,0,.66,1.14" style="fill:#0a0b09"/><path id="ca61f95b-ee4e-44f7-9cc7-5760e3aef5f6" data-name="Fill-162" d="M256.26,723.47l12.67-7.31a.66.66,0,0,0-.65-1.14l-12.67,7.31a.66.66,0,0,0,.65,1.14" style="fill:#0a0b09"/><path id="672779f4-f7f1-455f-a2fa-410da9afe333" data-name="Fill-163" d="M255.28,657.83v25.48a.66.66,0,1,0,1.31,0V657.83a.66.66,0,1,0-1.31,0" style="fill:#0a0b09"/><path id="4c59c050-9465-4946-9523-5d8b4322d469" data-name="Fill-164" d="M277.34,645.09v14.34a.66.66,0,0,0,1.31,0V645.09a.66.66,0,0,0-1.31,0" style="fill:#0a0b09"/><path id="7a31b7d0-1e52-4b34-a802-c7db50154e19" data-name="Fill-165" d="M233.22,645.09v25.48a.66.66,0,0,0,1.31,0V645.09a.66.66,0,0,0-1.31,0" style="fill:#0a0b09"/><path id="86c9a9d1-0322-4804-be11-7e9bdfeadf11" data-name="Fill-166" d="M233.54,645.66l22.06,12.74a.66.66,0,0,0,.65-1.14L234.2,644.53a.66.66,0,1,0-.66,1.14" style="fill:#0a0b09"/><path id="02085584-5d1d-456c-87c2-3a72d1d9de38" data-name="Fill-167" d="M255.71,632.86l22,12.68a.66.66,0,1,0,.65-1.14l-22-12.68a.66.66,0,0,0-.65,1.14" style="fill:#0a0b09"/><path id="9638c46e-ae4d-4f1e-a10a-88ffa2135bf1" data-name="Fill-168" d="M233.54,671.14l22.06,12.74a.66.66,0,0,0,.65-1.14L234.2,670a.66.66,0,0,0-.66,1.14" style="fill:#0a0b09"/><path id="713f0b8c-c4c4-433c-9a73-9df86185e097" data-name="Fill-169" d="M256.26,658.4l22.06-12.74a.66.66,0,1,0-.65-1.14l-22.06,12.74a.66.66,0,0,0,.65,1.14" style="fill:#0a0b09"/><path id="b6798b91-0ef8-454e-aead-63fca8f92f0e" data-name="Fill-170" d="M234.2,645.66l22.17-12.8a.66.66,0,0,0-.66-1.14l-22.17,12.8a.66.66,0,1,0,.66,1.14" style="fill:#0a0b09"/><path id="99906d01-3e33-424d-8ebc-8fd144bb01ca" data-name="Fill-171" d="M256.26,683.88l12.67-7.32a.66.66,0,0,0-.65-1.14l-12.67,7.32a.66.66,0,0,0,.65,1.14" style="fill:#0a0b09"/><path id="08d39ac0-d1e7-4f75-ad8d-65df057f7d8f" data-name="Fill-172" d="M324.75,657.83v25.48a.66.66,0,1,0,1.31,0V657.83a.66.66,0,1,0-1.31,0" style="fill:#0a0b09"/><path id="7290bff0-949c-4985-8bbe-b145e28d9831" data-name="Fill-173" d="M346.82,645.09v25.48a.66.66,0,0,0,1.31,0V645.09a.66.66,0,0,0-1.31,0" style="fill:#0a0b09"/><path id="02ace561-f380-4be0-a47b-fec416d49dbb" data-name="Fill-174" d="M302.69,645.09v14.34a.66.66,0,0,0,1.31,0V645.09a.66.66,0,0,0-1.31,0" style="fill:#0a0b09"/><path id="dc7b9512-232a-4da1-a0b3-b8657a755364" data-name="Fill-175" d="M303,645.66l22.06,12.74a.66.66,0,1,0,.66-1.14l-22.06-12.74a.66.66,0,1,0-.66,1.14" style="fill:#0a0b09"/><path id="25103418-53e3-4374-9883-f0cd9505da8b" data-name="Fill-176" d="M325,632.86l22.17,12.8a.66.66,0,0,0,.65-1.14l-22.17-12.8a.66.66,0,1,0-.66,1.14" style="fill:#0a0b09"/><path id="5c841f72-0e5b-4845-9231-deb51a5c63ca" data-name="Fill-177" d="M312.41,676.56l12.67,7.31a.66.66,0,0,0,.66-1.14l-12.67-7.31a.66.66,0,1,0-.66,1.14" style="fill:#0a0b09"/><path id="23062b33-bc6f-4212-8d79-7caf22637370" data-name="Fill-178" d="M325.73,658.4l22.06-12.74a.66.66,0,0,0-.65-1.14l-22.06,12.74a.66.66,0,0,0,.66,1.14" style="fill:#0a0b09"/><path id="d80c498e-b24b-45bc-9c86-08f33f81169a" data-name="Fill-179" d="M303.67,645.54l22-12.68a.66.66,0,1,0-.66-1.14L303,644.4a.66.66,0,1,0,.66,1.14" style="fill:#0a0b09"/><path id="49711020-4558-48b9-ba4f-66c3d167885c" data-name="Fill-180" d="M325.73,683.88l22.06-12.74a.66.66,0,0,0-.65-1.14l-22.06,12.74a.66.66,0,1,0,.66,1.14" style="fill:#0a0b09"/><path id="4b065553-7702-4183-acbc-d0269b51b91c" data-name="Fill-181" d="M290,717.19v25.48a.66.66,0,0,0,1.31,0V717.19a.66.66,0,1,0-1.31,0" style="fill:#0a0b09"/><path id="eede87f8-cd59-4764-9452-df191835887a" data-name="Fill-182" d="M312.08,704.45v25.48a.66.66,0,0,0,1.31,0V704.45a.66.66,0,1,0-1.31,0" style="fill:#0a0b09"/><path id="6f35d492-98e0-4a56-8f05-984d51fb60b0" data-name="Fill-183" d="M268,704.45v25.48a.66.66,0,0,0,1.31,0V704.45a.66.66,0,1,0-1.31,0" style="fill:#0a0b09"/><path id="dde017be-9bbc-4c6d-be68-faed4be31429" data-name="Fill-184" d="M268.28,705l22.06,12.74a.66.66,0,0,0,.66-1.14l-22.06-12.74a.66.66,0,0,0-.65,1.14" style="fill:#0a0b09"/><path id="1808a76a-04cc-4e0a-afc8-2d3a3051bf6f" data-name="Fill-185" d="M300.18,698,312.41,705a.66.66,0,1,0,.66-1.14l-12.22-7.06a.66.66,0,0,0-.66,1.14" style="fill:#0a0b09"/><path id="e0af3de9-6de4-49b2-ab61-f84616afc32c" data-name="Fill-186" d="M268.28,730.5l22.06,12.74a.66.66,0,0,0,.66-1.14l-22.06-12.74a.66.66,0,0,0-.65,1.14" style="fill:#0a0b09"/><path id="65d5dc5f-c189-427d-8f09-50a366d8e9f9" data-name="Fill-187" d="M291,717.76,313.06,705a.66.66,0,1,0-.66-1.14l-22.06,12.74a.66.66,0,0,0,.66,1.14" style="fill:#0a0b09"/><path id="ebeb8eb3-579b-4d03-a9f5-785bc0426a4b" data-name="Fill-188" d="M268.94,705,281.16,698a.66.66,0,0,0-.66-1.14l-12.22,7.06a.66.66,0,0,0,.66,1.14" style="fill:#0a0b09"/><path id="8a763f4f-7a46-4c04-b9d2-2940ad4a7ff6" data-name="Fill-189" d="M291,743.23l22.06-12.74a.66.66,0,0,0-.66-1.14L290.34,742.1a.66.66,0,0,0,.66,1.14" style="fill:#0a0b09"/><path id="ef341897-9f6b-40d5-8008-d6aa24e6efff" data-name="Fill-190" d="M290,677.6v25.48a.66.66,0,1,0,1.31,0V677.6a.66.66,0,1,0-1.31,0" style="fill:#0a0b09"/><path id="5461fa49-b2a3-4a1f-9a40-45f743a4e3ff" data-name="Fill-191" d="M312.08,664.86v25.48a.66.66,0,0,0,1.31,0V664.86a.66.66,0,1,0-1.31,0" style="fill:#0a0b09"/><path id="a8ea5431-9409-4fd9-af4e-4b84d320286d" data-name="Fill-192" d="M268,664.86v25.48a.66.66,0,0,0,1.31,0V664.86a.66.66,0,1,0-1.31,0" style="fill:#0a0b09"/><path id="ec12e5ce-fd63-4745-a4a0-0e57b8c90a39" data-name="Fill-193" d="M268.28,665.43l22.06,12.74A.66.66,0,0,0,291,677l-22.06-12.74a.66.66,0,0,0-.65,1.14" style="fill:#0a0b09"/><path id="e2673639-ccb2-48ae-af7a-4912de2539d4" data-name="Fill-194" d="M290.34,652.69l22.06,12.74a.66.66,0,1,0,.66-1.14L291,651.55a.66.66,0,1,0-.66,1.14" style="fill:#0a0b09"/><path id="b166fcd8-dc19-4547-987a-6667806e278a" data-name="Fill-195" d="M268.28,690.91l22.06,12.74a.66.66,0,0,0,.66-1.14l-22.06-12.74a.66.66,0,0,0-.65,1.14" style="fill:#0a0b09"/><path id="f8f63531-28eb-4a00-b6c0-d85fec697f0a" data-name="Fill-196" d="M291,678.17l22.06-12.74a.66.66,0,1,0-.66-1.14L290.34,677a.66.66,0,0,0,.66,1.14" style="fill:#0a0b09"/><path id="dae3c4f7-fa97-4995-afa6-fcc9d7aba1e1" data-name="Fill-197" d="M268.94,665.43,291,652.69a.66.66,0,0,0-.66-1.14l-22.06,12.74a.66.66,0,0,0,.66,1.14" style="fill:#0a0b09"/><path id="66d6900f-5e54-4e45-92eb-a0fc41f0be66" data-name="Fill-198" d="M291,703.64l22.06-12.74a.66.66,0,0,0-.66-1.14l-22.06,12.74a.66.66,0,0,0,.66,1.14" style="fill:#0a0b09"/><path id="fc465ce7-a1a1-4193-a6cb-7d67cb92d7e2" data-name="Fill-199" d="M324.75,596v25.48a.66.66,0,1,0,1.31,0V596a.66.66,0,1,0-1.31,0" style="fill:#0a0b09"/><path id="12c542eb-9191-406f-84bd-90f960ea0911" data-name="Fill-200" d="M346.82,583.29v25.48a.66.66,0,1,0,1.31,0V583.29a.66.66,0,0,0-1.31,0" style="fill:#0a0b09"/><path id="decd9e5c-9aa5-443b-b443-71398735e4c9" data-name="Fill-201" d="M302.69,594.37v3.27a.66.66,0,1,0,1.31,0v-3.27a.66.66,0,1,0-1.31,0" style="fill:#0a0b09"/><path id="861b63c1-8730-4665-aaf5-e7b1f99bbf1d" data-name="Fill-202" d="M312.4,589.28l12.68,7.32a.66.66,0,0,0,.66-1.14l-12.68-7.32a.66.66,0,1,0-.66,1.14" style="fill:#0a0b09"/><path id="8bd367a1-f822-44b4-ba02-da9462d78d7c" data-name="Fill-203" d="M334.92,576.8l12.23,7.06a.66.66,0,0,0,.65-1.14l-12.23-7.06a.66.66,0,1,0-.66,1.14" style="fill:#0a0b09"/><path id="9874052f-daf2-45a6-a746-0ff651ae183b" data-name="Fill-204" d="M312.4,614.76l12.68,7.32a.66.66,0,1,0,.66-1.14l-12.68-7.32a.66.66,0,0,0-.66,1.14" style="fill:#0a0b09"/><path id="382645c0-e48a-4b2c-92cd-5ac00493f253" data-name="Fill-205" d="M325.73,596.6l22.06-12.74a.66.66,0,0,0-.65-1.14l-22.06,12.74a.66.66,0,1,0,.66,1.14" style="fill:#0a0b09"/><path id="7acc571a-33de-4873-9eca-9ba36c454158" data-name="Fill-206" d="M313.06,578.44l2.83-1.63a.66.66,0,0,0-.66-1.14l-2.83,1.63a.66.66,0,1,0,.66,1.14" style="fill:#0a0b09"/><path id="e3b13aec-4f7d-4545-a37b-72cda3443375" data-name="Fill-207" d="M325.73,622.08l22.06-12.74a.66.66,0,0,0-.65-1.14l-22.06,12.74a.66.66,0,1,0,.66,1.14" style="fill:#0a0b09"/><path id="54bb1233-89f2-42ea-9071-ed61503eaca0" data-name="Fill-208" d="M255.28,596v25.48a.66.66,0,1,0,1.31,0V596a.66.66,0,1,0-1.31,0" style="fill:#0a0b09"/><path id="c51af1cd-400e-4c01-a3b0-904b360b8ef7" data-name="Fill-209" d="M277.34,594.37v3.27a.66.66,0,1,0,1.31,0v-3.27a.66.66,0,1,0-1.31,0" style="fill:#0a0b09"/><path id="853452ee-2444-44e3-9ece-292aa037a66b" data-name="Fill-210" d="M233.22,583.29v25.48a.66.66,0,1,0,1.31,0V583.29a.66.66,0,0,0-1.31,0" style="fill:#0a0b09"/><path id="79415b72-edae-4660-9f75-7f8bd0774519" data-name="Fill-211" d="M233.54,583.86l22.06,12.74a.66.66,0,0,0,.65-1.14L234.2,582.73a.66.66,0,0,0-.66,1.14" style="fill:#0a0b09"/><path id="9ab5fbc4-fd41-4060-bf76-d7793b4cd368" data-name="Fill-212" d="M265.45,576.81l2.83,1.63a.66.66,0,0,0,.66-1.14l-2.83-1.63a.66.66,0,1,0-.66,1.14" style="fill:#0a0b09"/><path id="72bf58c9-180e-43e8-99d3-924ec5d5c0ab" data-name="Fill-213" d="M233.54,609.34l22.06,12.74a.66.66,0,0,0,.65-1.14L234.2,608.2a.66.66,0,0,0-.66,1.14" style="fill:#0a0b09"/><path id="40e2602a-bbb7-4dea-8471-2cd3a56cd64e" data-name="Fill-214" d="M256.26,596.6l12.67-7.31a.66.66,0,0,0-.65-1.14l-12.67,7.31a.66.66,0,0,0,.65,1.14" style="fill:#0a0b09"/><path id="5e9c7eaf-2047-4308-9fae-1a13f6c795bf" data-name="Fill-215" d="M234.2,583.86l12.2-7a.66.66,0,0,0-.66-1.14l-12.2,7a.66.66,0,1,0,.66,1.14" style="fill:#0a0b09"/><path id="92be18d8-d913-4a75-9754-892628d5499e" data-name="Fill-216" d="M256.26,622.08l12.67-7.31a.66.66,0,0,0-.65-1.14l-12.67,7.31a.66.66,0,0,0,.65,1.14" style="fill:#0a0b09"/><path id="cb2c75d0-32f6-4e75-9b5b-0140ab22b44d" data-name="Fill-217" d="M255.28,556.44v25.48a.66.66,0,0,0,1.31,0V556.44a.66.66,0,0,0-1.31,0" style="fill:#0a0b09"/><path id="2736a354-184f-439a-9368-aa69a21079e6" data-name="Fill-218" d="M277.34,543.7v14.35a.66.66,0,1,0,1.31,0V543.7a.66.66,0,0,0-1.31,0" style="fill:#0a0b09"/><path id="2a8194a1-8262-4fc4-a331-09ec48390f81" data-name="Fill-219" d="M233.22,543.7v25.48a.66.66,0,1,0,1.31,0V543.7a.66.66,0,0,0-1.31,0" style="fill:#0a0b09"/><path id="b47c99ed-c9e2-479c-8c53-e7cdbd509def" data-name="Fill-220" d="M233.54,544.27,255.61,557a.66.66,0,0,0,.65-1.14L234.2,543.14a.66.66,0,0,0-.66,1.14" style="fill:#0a0b09"/><path id="4eb1e568-4b5e-4e13-93cd-682fd6b2cb75" data-name="Fill-221" d="M255.71,531.47l22,12.68a.66.66,0,1,0,.65-1.14l-22-12.68a.66.66,0,0,0-.65,1.14" style="fill:#0a0b09"/><path id="7778dabf-fcc3-43f9-a453-0be9afeffe00" data-name="Fill-222" d="M233.54,569.75l22.06,12.74a.66.66,0,0,0,.66-1.14L234.2,568.61a.66.66,0,0,0-.66,1.14" style="fill:#0a0b09"/><path id="8787396a-dc0d-41e5-9eff-c8cf8c96672b" data-name="Fill-223" d="M256.26,557l22.06-12.74a.66.66,0,1,0-.65-1.14l-22.06,12.74a.66.66,0,0,0,.65,1.14" style="fill:#0a0b09"/><path id="c733b050-5667-4f27-9da0-dc3cb2c5085d" data-name="Fill-224" d="M234.2,544.27l22.17-12.8a.66.66,0,0,0-.66-1.14l-22.17,12.8a.66.66,0,1,0,.66,1.14" style="fill:#0a0b09"/><path id="2f6b435c-c75d-49de-bef8-08d79f7a73e7" data-name="Fill-225" d="M256.26,582.49l12.67-7.32a.66.66,0,0,0-.66-1.14l-12.67,7.32a.66.66,0,0,0,.66,1.14" style="fill:#0a0b09"/><path id="ddb2b8de-8060-4846-ab8b-63982b2164db" data-name="Fill-226" d="M324.75,556.44v25.48a.66.66,0,1,0,1.31,0V556.44a.66.66,0,1,0-1.31,0" style="fill:#0a0b09"/><path id="001cd3a0-e6e1-4e80-b3da-d19eeec2d8fa" data-name="Fill-227" d="M346.82,543.7v25.48a.66.66,0,0,0,1.31,0V543.7a.66.66,0,0,0-1.31,0" style="fill:#0a0b09"/><path id="8ca04f49-1b10-4b2d-b94d-5127f3b71d05" data-name="Fill-228" d="M302.69,543.7v14.35a.66.66,0,1,0,1.31,0V543.7a.66.66,0,0,0-1.31,0" style="fill:#0a0b09"/><path id="cf2f9066-e3cd-4b04-b3b6-1a1907f0ed53" data-name="Fill-229" d="M303,544.27,325.08,557a.66.66,0,0,0,.66-1.14l-22.06-12.74a.66.66,0,1,0-.66,1.14" style="fill:#0a0b09"/><path id="8a36be4d-4a49-498a-b810-768496692741" data-name="Fill-230" d="M325,531.47l22.17,12.8a.66.66,0,0,0,.65-1.14l-22.17-12.8a.66.66,0,1,0-.66,1.14" style="fill:#0a0b09"/><path id="32cfa3d9-78f9-45fa-b129-061b9f0e3884" data-name="Fill-231" d="M312.41,575.17l12.67,7.32a.66.66,0,1,0,.66-1.14L313.06,574a.66.66,0,1,0-.66,1.14" style="fill:#0a0b09"/><path id="43734e61-d2eb-4738-b8ff-7193dd26f6b2" data-name="Fill-232" d="M325.73,557l22.06-12.74a.66.66,0,0,0-.65-1.14l-22.06,12.74a.66.66,0,1,0,.66,1.14" style="fill:#0a0b09"/><path id="218989cb-5f85-47ad-8199-e74304ed9fe5" data-name="Fill-233" d="M303.67,544.15l22-12.68a.66.66,0,1,0-.66-1.14L303,543a.66.66,0,1,0,.66,1.14" style="fill:#0a0b09"/><path id="2a22f432-810e-4e63-b3ba-826494ea0eff" data-name="Fill-234" d="M325.73,582.49l22.06-12.74a.66.66,0,0,0-.66-1.14l-22.06,12.74a.66.66,0,1,0,.66,1.14" style="fill:#0a0b09"/><path id="e73aefea-c408-46ff-83cc-b4258c0c908b" data-name="Fill-235" d="M290,615.8v25.48a.66.66,0,1,0,1.31,0V615.8a.66.66,0,0,0-1.31,0" style="fill:#0a0b09"/><path id="a2095db9-0d01-464e-ab89-808f40520118" data-name="Fill-236" d="M312.08,603.06v25.48a.66.66,0,1,0,1.31,0V603.06a.66.66,0,1,0-1.31,0" style="fill:#0a0b09"/><path id="fa92a5f1-1a58-4722-8f9a-3a5e024a51a8" data-name="Fill-237" d="M268,603.06v25.48a.66.66,0,1,0,1.31,0V603.06a.66.66,0,1,0-1.31,0" style="fill:#0a0b09"/><path id="551a5a52-fdaf-4d52-b193-559e6e58a314" data-name="Fill-238" d="M268.28,603.63l22.06,12.74a.66.66,0,0,0,.66-1.14l-22.06-12.74a.66.66,0,0,0-.65,1.14" style="fill:#0a0b09"/><path id="2b690d7d-beff-4487-84f8-d3e9520ffe35" data-name="Fill-239" d="M300.18,596.57l12.23,7.06a.66.66,0,1,0,.66-1.14l-12.22-7.06a.66.66,0,0,0-.66,1.14" style="fill:#0a0b09"/><path id="89a60c8a-228e-4835-af22-15ee0e179d27" data-name="Fill-240" d="M268.28,629.11l22.06,12.74a.66.66,0,0,0,.66-1.14L268.93,628a.66.66,0,0,0-.65,1.14" style="fill:#0a0b09"/><path id="f4d8db18-c241-4cdc-b314-4db09f0edb97" data-name="Fill-241" d="M291,616.37l22.06-12.74a.66.66,0,1,0-.66-1.14l-22.06,12.74a.66.66,0,0,0,.66,1.14" style="fill:#0a0b09"/><path id="b16699bf-4d9b-49f2-94cb-a1091b258656" data-name="Fill-242" d="M268.93,603.63l12.22-7.06a.66.66,0,0,0-.66-1.14l-12.22,7.06a.66.66,0,0,0,.65,1.14" style="fill:#0a0b09"/><path id="6b03e53b-495e-4012-8e7c-fc167013c909" data-name="Fill-243" d="M291,641.84l22.06-12.74a.66.66,0,1,0-.66-1.14l-22.06,12.74a.66.66,0,1,0,.66,1.14" style="fill:#0a0b09"/><path id="27166f16-95a8-4d85-a2cf-8e6e58e9b378" data-name="Fill-244" d="M290,576.21v25.48a.66.66,0,0,0,1.31,0V576.21a.66.66,0,0,0-1.31,0" style="fill:#0a0b09"/><path id="b2a5ecad-3d16-432a-8add-c79070d35108" data-name="Fill-245" d="M312.08,563.47v25.48a.66.66,0,1,0,1.31,0V563.47a.66.66,0,0,0-1.31,0" style="fill:#0a0b09"/><path id="170eb7c9-a290-4c15-b71b-99545d997acc" data-name="Fill-246" d="M268,563.47v25.48a.66.66,0,0,0,1.31,0V563.47a.66.66,0,0,0-1.31,0" style="fill:#0a0b09"/><path id="a8c8fcbe-9968-4e82-bda3-2ba2ec13d224" data-name="Fill-247" d="M268.28,564l22.06,12.74a.66.66,0,0,0,.66-1.14l-22.06-12.74a.66.66,0,0,0-.65,1.14" style="fill:#0a0b09"/><path id="fcfab874-d24d-4b3c-8edf-b67b24baa3dc" data-name="Fill-248" d="M290.34,551.3,312.41,564a.66.66,0,1,0,.66-1.14L291,550.17a.66.66,0,0,0-.65,1.14" style="fill:#0a0b09"/><path id="b6f07682-808d-46e1-9fbc-bed0217cf33d" data-name="Fill-249" d="M268.28,589.52l22.06,12.74a.66.66,0,0,0,.66-1.14l-22.06-12.74a.66.66,0,0,0-.65,1.14" style="fill:#0a0b09"/><path id="12f2a104-42a8-439c-95e3-cae41fc55267" data-name="Fill-250" d="M291,576.78,313.06,564a.66.66,0,1,0-.66-1.14l-22.06,12.74a.66.66,0,0,0,.66,1.14" style="fill:#0a0b09"/><path id="878a78e2-789b-45b0-b778-4bed644c9079" data-name="Fill-251" d="M268.93,564,291,551.3a.66.66,0,1,0-.65-1.14l-22.06,12.74a.66.66,0,0,0,.65,1.14" style="fill:#0a0b09"/><path id="e9eed3ff-802f-4270-b5d7-267461eebee7" data-name="Fill-252" d="M291,602.26l22.06-12.74a.66.66,0,1,0-.66-1.14l-22.06,12.74a.66.66,0,0,0,.66,1.14" style="fill:#0a0b09"/></g><g id="8c028837-3673-4b27-8703-90be1fb0a2f8" data-name="Static Mid" style="opacity:0.800000011920929"><path id="7c7c34cc-7329-4007-b31a-9dd4cfd55e4b" data-name="Fill-253" d="M378.49,420.37v64.89a.66.66,0,0,0,1.31,0V420.37a.66.66,0,1,0-1.31,0" style="fill:#4a4a4a"/><path id="756022f2-b1bd-43f6-8288-b1df822c21be" data-name="Fill-254" d="M434.68,387.92v64.89a.66.66,0,1,0,1.31,0V387.92a.66.66,0,1,0-1.31,0" style="fill:#4a4a4a"/><path id="0c37ed4a-23d2-41da-83fa-a966be783041" data-name="Fill-255" d="M322.29,416.14v8.32a.66.66,0,0,0,1.31,0v-8.32a.66.66,0,0,0-1.31,0" style="fill:#4a4a4a"/><path id="797b0d84-1bdf-4a3e-8281-76a9b692d027" data-name="Fill-256" d="M346.53,402.3l32.28,18.64a.66.66,0,0,0,.65-1.14l-32.28-18.64a.66.66,0,1,0-.66,1.14" style="fill:#4a4a4a"/><path id="c1de34ba-8450-4a35-9ba5-71544d946c7d" data-name="Fill-257" d="M403.87,370.51l31.14,18a.66.66,0,0,0,.66-1.14l-31.14-18a.66.66,0,1,0-.66,1.14" style="fill:#4a4a4a"/><path id="d22f06c2-090f-4f51-bcf7-0fa53a188554" data-name="Fill-258" d="M346.53,467.18l32.28,18.64a.66.66,0,0,0,.65-1.14L347.19,466a.66.66,0,1,0-.66,1.14" style="fill:#4a4a4a"/><path id="a5e4f90d-bcd4-4006-8f47-1284734357ed" data-name="Fill-259" d="M379.47,420.93l56.19-32.44a.66.66,0,0,0-.66-1.14L378.81,419.8a.66.66,0,1,0,.66,1.14" style="fill:#4a4a4a"/><path id="8cf39d62-ba59-4790-a178-b1855446d46f" data-name="Fill-260" d="M347.2,374.68l7.2-4.16a.66.66,0,0,0-.66-1.14l-7.2,4.16a.66.66,0,0,0,.66,1.14" style="fill:#4a4a4a"/><path id="30d9c906-8c40-4ca8-994b-2f1000be8568" data-name="Fill-261" d="M379.47,485.82l56.19-32.44a.66.66,0,0,0-.66-1.14l-56.19,32.44a.66.66,0,1,0,.66,1.14" style="fill:#4a4a4a"/><path id="a7a43378-c8ee-437d-b05c-e406cb151387" data-name="Fill-262" d="M201.55,420.37v64.89a.66.66,0,1,0,1.31,0V420.37a.66.66,0,1,0-1.31,0" style="fill:#4a4a4a"/><path id="a69a8605-9f93-4c13-bc89-c6711d37e8b3" data-name="Fill-263" d="M257.74,416.14v8.32a.66.66,0,0,0,1.31,0v-8.32a.66.66,0,1,0-1.31,0" style="fill:#4a4a4a"/><path id="b1e3e95f-2964-42de-9d9a-9edfdc4b4d20" data-name="Fill-264" d="M145.35,387.92v64.89a.66.66,0,1,0,1.31,0V387.92a.66.66,0,1,0-1.31,0" style="fill:#4a4a4a"/><path id="787cfd32-1083-4d81-8fef-712a2c84bafb" data-name="Fill-265" d="M145.68,388.49l56.19,32.44a.66.66,0,0,0,.66-1.14l-56.19-32.44a.66.66,0,0,0-.66,1.14" style="fill:#4a4a4a"/><path id="a5a768d1-9f8d-4c7b-ae15-147edf22dfb9" data-name="Fill-266" d="M226.94,370.52l7.2,4.16a.66.66,0,1,0,.66-1.14l-7.2-4.16a.66.66,0,0,0-.66,1.14" style="fill:#4a4a4a"/><path id="4cf6bdf8-e51a-48a9-8bd1-ecb9da4bac12" data-name="Fill-267" d="M145.68,453.38l56.19,32.44a.66.66,0,0,0,.66-1.14l-56.19-32.44a.66.66,0,0,0-.66,1.14" style="fill:#4a4a4a"/><path id="b8e979c3-058e-4b76-8064-31aba3878778" data-name="Fill-268" d="M202.53,420.93,234.8,402.3a.66.66,0,0,0-.66-1.14L201.87,419.8a.66.66,0,1,0,.66,1.14" style="fill:#4a4a4a"/><path id="b6d4cc45-c9c2-49b4-aab1-e8ad236a6d3a" data-name="Fill-269" d="M146.34,388.49l31.07-17.94a.66.66,0,0,0-.66-1.14l-31.07,17.94a.66.66,0,0,0,.66,1.14" style="fill:#4a4a4a"/><path id="c6ee7151-f658-4617-aae8-82103b84d8ee" data-name="Fill-270" d="M202.53,485.82l32.27-18.63a.66.66,0,0,0-.66-1.14l-32.27,18.63a.66.66,0,0,0,.66,1.14" style="fill:#4a4a4a"/><path id="8d528067-e5c8-4f34-bb6e-8298ead3cb26" data-name="Fill-271" d="M201.55,319.53v64.89a.66.66,0,1,0,1.31,0V319.53a.66.66,0,1,0-1.31,0" style="fill:#4a4a4a"/><path id="4b81bc9e-be46-4136-b9f8-68d68a49dd48" data-name="Fill-272" d="M257.74,315.44v8.19a.66.66,0,1,0,1.31,0v-8.19a.66.66,0,1,0-1.31,0" style="fill:#4a4a4a"/><path id="2d6ae9c0-1787-40ef-8617-e4dca6aa802f" data-name="Fill-273" d="M145.35,287.09V352a.66.66,0,1,0,1.31,0V287.09a.66.66,0,0,0-1.31,0" style="fill:#4a4a4a"/><path id="e91a1fa6-35a6-4350-a5ed-5abc3d14cec7" data-name="Fill-274" d="M145.68,287.66l56.19,32.44a.66.66,0,0,0,.66-1.14l-56.19-32.44a.66.66,0,0,0-.66,1.14" style="fill:#4a4a4a"/><path id="188cf241-d690-4b71-9569-b197fc6c31c0" data-name="Fill-275" d="M145.68,352.55,201.87,385a.66.66,0,0,0,.66-1.14l-56.19-32.44a.66.66,0,0,0-.66,1.14" style="fill:#4a4a4a"/><path id="f874451c-9174-4ed4-ae75-9c93a16e9c7e" data-name="Fill-276" d="M202.53,320.1l31.64-18.27a.66.66,0,0,0-.66-1.14L201.87,319a.66.66,0,1,0,.66,1.14" style="fill:#4a4a4a"/><path id="accee6ea-4163-4088-a400-836e943b7461" data-name="Fill-277" d="M146.34,287.66,178,269.39a.66.66,0,0,0-.66-1.14l-31.64,18.27a.66.66,0,0,0,.66,1.14" style="fill:#4a4a4a"/><path id="2d4dbcbc-d960-403a-9367-a2ee305aee92" data-name="Fill-278" d="M202.53,385l32.27-18.63a.66.66,0,1,0-.65-1.14l-32.28,18.63a.66.66,0,1,0,.66,1.14" style="fill:#4a4a4a"/><path id="7ca95afb-2a87-47ba-9f85-f6a53bd36b62" data-name="Fill-279" d="M378.49,319.53v64.89a.66.66,0,1,0,1.31,0V319.53a.66.66,0,0,0-1.31,0" style="fill:#4a4a4a"/><path id="07dd22a2-74b9-4712-afa2-29d3d096afc0" data-name="Fill-280" d="M434.68,287.09V352a.66.66,0,1,0,1.31,0V287.09a.66.66,0,1,0-1.31,0" style="fill:#4a4a4a"/><path id="90f891d9-70ea-46a5-a43c-cf14ae2af0aa" data-name="Fill-281" d="M322.29,315.44v8.19a.66.66,0,0,0,1.31,0v-8.19a.66.66,0,0,0-1.31,0" style="fill:#4a4a4a"/><path id="c805e5d0-8a20-416b-b6cd-3152a13e2b2a" data-name="Fill-282" d="M347.16,301.83l31.65,18.27a.66.66,0,0,0,.65-1.14l-31.65-18.27a.66.66,0,0,0-.65,1.14" style="fill:#4a4a4a"/><path id="f327c3e2-4b79-4b91-8b29-8902589c28ff" data-name="Fill-283" d="M403.37,269.4,435,287.66a.66.66,0,0,0,.66-1.14L404,268.26a.66.66,0,0,0-.66,1.14" style="fill:#4a4a4a"/><path id="4ae3c95e-0d49-457e-b6ec-a0236bc875db" data-name="Fill-284" d="M346.54,366.36,378.81,385a.66.66,0,0,0,.65-1.14L347.2,365.22a.66.66,0,0,0-.66,1.14" style="fill:#4a4a4a"/><path id="408fb60b-2f50-45c8-ae39-a33f2fb137f3" data-name="Fill-285" d="M379.47,320.1l56.19-32.44a.66.66,0,0,0-.66-1.14L378.81,319a.66.66,0,1,0,.66,1.14" style="fill:#4a4a4a"/><path id="6b09a7aa-47c9-4029-813e-6256031742f2" data-name="Fill-286" d="M379.47,385l56.19-32.44a.66.66,0,0,0-.66-1.14l-56.19,32.44a.66.66,0,1,0,.66,1.14" style="fill:#4a4a4a"/><path id="e6d32c6b-9046-4ef5-9d37-89d8b0ead029" data-name="Fill-287" d="M290,470.71V535.6a.66.66,0,0,0,1.31,0V470.71a.66.66,0,1,0-1.31,0" style="fill:#4a4a4a"/><path id="8b27aaf5-f2ac-43e2-b8d0-10381ca60a83" data-name="Fill-288" d="M346.21,438.27v64.89a.66.66,0,0,0,1.31,0V438.27a.66.66,0,0,0-1.31,0" style="fill:#4a4a4a"/><path id="a355cd3c-8dc7-4f5a-b182-885ebbe5832e" data-name="Fill-289" d="M233.82,438.27v64.89a.66.66,0,0,0,1.31,0V438.27a.66.66,0,0,0-1.31,0" style="fill:#4a4a4a"/><path id="b4594908-4228-4806-b6f0-29831f840b15" data-name="Fill-290" d="M234.15,438.84l56.2,32.44a.66.66,0,0,0,.66-1.14L234.8,437.7a.66.66,0,0,0-.66,1.14" style="fill:#4a4a4a"/><path id="7b95adb4-135a-4460-9511-12d2e9d285e4" data-name="Fill-291" d="M315.4,420.86l31.14,18a.66.66,0,0,0,.66-1.14l-31.14-18a.66.66,0,0,0-.65,1.14" style="fill:#4a4a4a"/><path id="bd6bd38e-4175-4e07-aa4f-c438f966cbd9" data-name="Fill-292" d="M234.15,503.73l56.2,32.44A.66.66,0,0,0,291,535l-56.2-32.44a.66.66,0,0,0-.66,1.14" style="fill:#4a4a4a"/><path id="c5f52667-3f59-46b0-adbd-118dc681c2f0" data-name="Fill-293" d="M291,471.28l56.19-32.44a.66.66,0,0,0-.66-1.14l-56.2,32.44a.66.66,0,1,0,.66,1.14" style="fill:#4a4a4a"/><path id="be210e91-29b4-47a5-93ca-0e3a8cfb101c" data-name="Fill-294" d="M234.8,438.84l31.13-18a.66.66,0,0,0-.66-1.14l-31.13,18a.66.66,0,0,0,.65,1.14" style="fill:#4a4a4a"/><path id="2cdc9d0c-18ed-4c1a-be52-f27f13ff515e" data-name="Fill-295" d="M291,536.17l56.19-32.44a.66.66,0,0,0-.66-1.14L290.34,535a.66.66,0,1,0,.66,1.14" style="fill:#4a4a4a"/><path id="ef5c55a0-9de7-46b3-b17f-a9d4c1ed3e1a" data-name="Fill-296" d="M290,369.88v64.89a.66.66,0,0,0,1.31,0V369.88a.66.66,0,1,0-1.31,0" style="fill:#4a4a4a"/><path id="b60bf946-a7dd-4cd0-9138-3a8e4227b0dd" data-name="Fill-297" d="M346.21,337.44v64.89a.66.66,0,1,0,1.31,0V337.44a.66.66,0,0,0-1.31,0" style="fill:#4a4a4a"/><path id="9af9097b-88c0-446a-830e-fe2819df84b4" data-name="Fill-298" d="M233.82,337.44v64.89a.66.66,0,1,0,1.31,0V337.44a.66.66,0,0,0-1.31,0" style="fill:#4a4a4a"/><path id="4d98f151-f8a4-4ce2-b743-d2bddb86ac7f" data-name="Fill-299" d="M234.15,338l56.2,32.44a.66.66,0,0,0,.66-1.14l-56.2-32.44a.66.66,0,0,0-.66,1.14" style="fill:#4a4a4a"/><path id="f9c9cac4-7182-4da6-9ffc-10c1155dae9f" data-name="Fill-300" d="M315.52,320.1l31,17.91a.66.66,0,0,0,.66-1.14l-31-17.91a.66.66,0,0,0-.65,1.14" style="fill:#4a4a4a"/><path id="0554036c-591d-434b-8dfb-a168cb8fd86a" data-name="Fill-301" d="M234.15,402.89l56.2,32.44a.66.66,0,0,0,.66-1.14l-56.2-32.44a.66.66,0,0,0-.66,1.14" style="fill:#4a4a4a"/><path id="2931bf11-4b42-462d-a9ad-0be25edb52dd" data-name="Fill-302" d="M291,370.45,347.19,338a.66.66,0,0,0-.66-1.14l-56.2,32.44a.66.66,0,1,0,.66,1.14" style="fill:#4a4a4a"/><path id="8654a596-e5a1-41da-8656-a3179c77a194" data-name="Fill-303" d="M234.8,338l31-17.9a.66.66,0,0,0-.66-1.14l-31,17.9a.66.66,0,0,0,.65,1.14" style="fill:#4a4a4a"/><path id="6de76e11-d97f-4de0-8901-2b1bda439ea9" data-name="Fill-304" d="M291,435.34l56.19-32.44a.66.66,0,0,0-.66-1.14l-56.2,32.44a.66.66,0,1,0,.66,1.14" style="fill:#4a4a4a"/></g><g id="7a708f13-67d5-4b0c-9456-60cdeb58a6f0" data-name="Static Top"><path id="adbff6e7-edd5-4d0a-8d9a-04898e88f85e" data-name="Fill-53" d="M290.15,167.7v167a.66.66,0,0,0,1.31,0v-167a.66.66,0,1,0-1.31,0" style="fill:#4a4a4a"/><path id="7f831297-7c73-42ea-80e5-17df894e2691" data-name="Fill-54" d="M434.81,84.18v167a.66.66,0,1,0,1.31,0v-167a.66.66,0,1,0-1.31,0" style="fill:#4a4a4a"/><path id="2269ea7d-3ce4-4e12-9521-4a0a675b92aa" data-name="Fill-55" d="M145.49,84.18v167a.66.66,0,1,0,1.31,0v-167a.66.66,0,1,0-1.31,0" style="fill:#4a4a4a"/><path id="3e3f194c-e0e5-476b-9af0-b413a7b2a23d" data-name="Fill-56" d="M145.81,84.74l144.66,83.52a.66.66,0,0,0,.66-1.14L146.47,83.61a.66.66,0,0,0-.66,1.14" style="fill:#4a4a4a"/><path id="ae85b2b4-38fc-466a-b593-8d88341e7b68" data-name="Fill-57" d="M290.48,1.22,435.14,84.74a.66.66,0,0,0,.66-1.14L291.13.09a.66.66,0,1,0-.66,1.14" style="fill:#4a4a4a"/><path id="7d7dbdec-568f-4653-8a9c-16cf0962c19f" data-name="Fill-58" d="M145.81,251.79l144.66,83.52a.66.66,0,0,0,.66-1.14L146.47,250.65a.66.66,0,0,0-.66,1.14" style="fill:#4a4a4a"/><path id="2939fec8-20d3-4ae5-af4b-57938aed5924" data-name="Fill-59" d="M291.13,168.27,435.8,84.74a.66.66,0,0,0-.66-1.14L290.48,167.13a.66.66,0,1,0,.66,1.14" style="fill:#4a4a4a"/><path id="e9dabfbb-3d5d-42c8-9e8d-940f6e0b7fe0" data-name="Fill-60" d="M146.47,84.74,291.13,1.22a.66.66,0,0,0-.66-1.14L145.81,83.61a.66.66,0,0,0,.66,1.14" style="fill:#4a4a4a"/><path id="196747e6-514b-42e6-aa94-3af23c9d3f81" data-name="Fill-61" d="M291.13,335.31,435.8,251.79a.66.66,0,0,0-.66-1.14L290.48,334.17a.66.66,0,1,0,.66,1.14" style="fill:#4a4a4a"/></g></g></g></g></g></g></g><g id="a4d8b49b-3538-4456-9953-5528dfaa05f3" data-name="JAVA-ENGINEERING" style="opacity:0.8500000238418579"><g id="b0d22492-ef6d-4de9-87c1-8b7cba18e525" data-name="Java-Engineering"><g id="4fde5cb2-6dd9-4b97-8688-5bc2d0d4adca" data-name="Schemes"><g id="78828fb6-8396-44d3-9b46-cd56ceacdba3" data-name="Reenginiring-&amp;-Microservices"><g id="ed673d0f-5395-4806-b225-d94ab47be6b7" data-name="Links"><g id="efeb5669-3dd0-4166-8398-69d72f3c68c6" data-name="03"><path id="4ab1715d-9473-455c-abd5-1b47de45591f" data-name="Fill-2" d="M576.49,574.66a.6.6,0,1,0,0-1.2H450.56a.6.6,0,1,0,0,1.2Z" style="fill:#dadada"/><path id="763932ef-a4d6-4ea3-8c1f-d8c171d53e5e" data-name="Fill-215" d="M576.61,574.12h.6a1.8,1.8,0,1,1,1.8,1.8,1.8,1.8,0,0,1-1.8-1.8H576a3,3,0,1,0,3-3,3,3,0,0,0-3,3h.6" style="fill:#dadada"/></g><g id="f8ae31ff-a7e3-4efe-9cd4-c120f2295079" data-name="02"><path id="553a53f9-7eaf-4070-a0a0-aa52c096c4d8" data-name="Fill-2" d="M5.51,370.56a.6.6,0,1,0,0,1.2H131.44a.6.6,0,1,0,0-1.2Z" style="fill:#dadada"/><path id="f2232b12-056b-4284-9859-376589116972" data-name="Fill-215" d="M5.39,371.11h-.6a1.8,1.8,0,1,1-1.8-1.8,1.8,1.8,0,0,1,1.8,1.8H6a3,3,0,1,0-3,3,3,3,0,0,0,3-3h-.6" style="fill:#dadada"/></g><g id="898c86a0-8b38-4048-a237-ae5208bbd392" data-name="01"><path id="aef68037-ce3d-4340-af93-1bdf4da80be1" data-name="Fill-2" d="M576.49,168.66a.6.6,0,1,0,0-1.2H450.56a.6.6,0,1,0,0,1.2Z" style="fill:#dadada"/><path id="41135375-4d59-40f2-a41e-0ce90772b8ee" data-name="Fill-215" d="M576.61,168.12h.6a1.8,1.8,0,1,1,1.8,1.8,1.8,1.8,0,0,1-1.8-1.8H576a3,3,0,1,0,3-3,3,3,0,0,0-3,3h.6" style="fill:#dadada"/></g></g></g></g></g></g></g></g></svg>