<svg xmlns="http://www.w3.org/2000/svg" width="582" height="759.41" viewBox="0 0 582 759.41"><title>jb-top</title><g id="bdbcbdf8-aa10-4413-9e79-24240394df1b" data-name="Слой 2"><g id="c1b9b82c-414c-4959-a14e-4e94a445a7af" data-name="Слой 1"><g id="5edf136a-04ab-4179-bd8b-44a1fa727a81" data-name="JAVA-ENGINEERING" style="opacity:0.8500000238418579"><g id="62fcad8e-ad5f-45e7-b696-b30c240d50a8" data-name="Java-Engineering"><g id="c3470f0f-9405-4c76-91e5-e0ac95f4ec4c" data-name="Schemes"><g id="16abed74-042b-4a22-b8eb-f54fc6f3c989" data-name="Reenginiring-&amp;-Microservices"><g id="8738098b-c692-444b-af19-59c8465b9c71" data-name="Links"><g id="d06ddaa5-afa4-4512-8b2d-123359c4a6a9" data-name="03"><path id="e191fa77-d465-43f8-aacd-2c8285ebfb51" data-name="Fill-2" d="M576.49,588.76a.6.6,0,1,0,0-1.2H450.56a.6.6,0,1,0,0,1.2Z" style="fill:#dadada"/><path id="c7c6970d-d9a8-4aef-a740-8001e008eb80" data-name="Fill-215" d="M576.61,588.21h.6A1.8,1.8,0,1,1,579,590a1.8,1.8,0,0,1-1.8-1.8H576a3,3,0,1,0,3-3,3,3,0,0,0-3,3h.6" style="fill:#dadada"/></g><g id="ce7e71b4-eab4-4bfc-81d7-e1d0847a729c" data-name="02"><path id="865de959-4b80-4e3c-9271-24ce25469648" data-name="Fill-2" d="M5.51,384.65a.6.6,0,1,0,0,1.2H131.44a.6.6,0,1,0,0-1.2Z" style="fill:#dadada"/><path id="a0e4cc2f-fd87-4a72-854f-a20d66441396" data-name="Fill-215" d="M5.39,385.2h-.6A1.8,1.8,0,1,1,3,383.4a1.8,1.8,0,0,1,1.8,1.8H6a3,3,0,1,0-3,3,3,3,0,0,0,3-3h-.6" style="fill:#dadada"/></g><g id="61a9e16d-c1bb-4bfe-a319-6fc006977c6b" data-name="01"><path id="2f20ab4e-882d-40d9-8fce-a938b8f4156c" data-name="Fill-2" d="M576.49,182.76a.6.6,0,1,0,0-1.2H450.56a.6.6,0,1,0,0,1.2Z" style="fill:#ff671b"/><path id="b749205e-255c-4ab0-ac0f-87e3d569e63c" data-name="Fill-215" d="M576.61,182.21h.6A1.8,1.8,0,1,1,579,184a1.8,1.8,0,0,1-1.8-1.8H576a3,3,0,1,0,3-3,3,3,0,0,0-3,3h.6" style="fill:#ff671b"/></g></g></g></g></g></g><g id="0f1f312c-5820-4795-9da0-be127b59348b" data-name="JAVA-ENGINEERING"><g id="48ca6faf-f35d-422c-859f-bfbc1726a801" data-name="Java-Engineering"><g id="5c6774c8-86bd-414f-9ed8-dcc587d84a79" data-name="Schemes"><g id="5d2c0aab-bbf0-4053-9509-45ddd276b571" data-name="Reenginiring-&amp;-Microservices"><g id="1a663c8c-acb9-4f93-a69c-27a33653aae8" data-name="Scheme"><g id="c3b237ce-e7b5-4042-a815-a592474c52a0" data-name="Hover Top"><g id="338b07e4-db59-4793-9545-14fb0b35819d" data-name="Static Bottom" style="opacity:0.6000000238418579"><path id="5f3b6567-04f3-4457-96ef-3f9db31ffd7c" data-name="Fill-1" d="M167.08,662.82v25.48a.66.66,0,1,0,1.31,0V662.82a.66.66,0,1,0-1.31,0" style="fill:#0a0b09"/><path id="37ceacbe-14ba-4332-9c38-a83c2d8bd831" data-name="Fill-2" d="M189.14,661.16v3.27a.66.66,0,1,0,1.31,0v-3.27a.66.66,0,1,0-1.31,0" style="fill:#0a0b09"/><path id="c55f7a2d-79e5-4322-a7c1-6f46e46129f1" data-name="Fill-3" d="M145,650.08v25.48a.66.66,0,0,0,1.31,0V650.08a.66.66,0,1,0-1.31,0" style="fill:#0a0b09"/><path id="279ae89b-f4dc-450b-b488-947a9917e150" data-name="Fill-4" d="M145.34,650.65l22.06,12.74a.66.66,0,0,0,.65-1.14L146,649.51a.66.66,0,1,0-.65,1.14" style="fill:#0a0b09"/><path id="f9c3aae3-5fcd-4b1a-a7b0-4c477614156c" data-name="Fill-5" d="M177.25,643.59l2.83,1.63a.66.66,0,0,0,.65-1.14l-2.83-1.63a.66.66,0,0,0-.65,1.14" style="fill:#0a0b09"/><path id="c6b6cab6-24b0-4984-bc15-474bfc0e9ca3" data-name="Fill-6" d="M145.34,676.12l22.06,12.74a.66.66,0,0,0,.65-1.14L146,675a.66.66,0,0,0-.65,1.14" style="fill:#0a0b09"/><path id="1b172950-2da6-4bec-aa16-0ccf40705776" data-name="Fill-7" d="M168.06,663.39l12.67-7.32a.66.66,0,1,0-.66-1.14l-12.67,7.32a.66.66,0,0,0,.66,1.14" style="fill:#0a0b09"/><path id="b2cdddad-d1e5-415d-bc48-efb4c9c00b38" data-name="Fill-8" d="M146,650.65l12.2-7a.66.66,0,0,0-.66-1.14l-12.2,7a.66.66,0,1,0,.66,1.14" style="fill:#0a0b09"/><path id="09a16f93-3837-45ab-8aef-4bba2e2178e0" data-name="Fill-9" d="M168.06,688.86l12.67-7.31a.66.66,0,1,0-.66-1.14l-12.67,7.31a.66.66,0,0,0,.66,1.14" style="fill:#0a0b09"/><path id="c7c19573-5a8f-44bc-8218-afd392b7992c" data-name="Fill-10" d="M167.08,623.23v25.48a.66.66,0,1,0,1.31,0V623.23a.66.66,0,1,0-1.31,0" style="fill:#0a0b09"/><path id="f6cf9eea-5cf4-45e4-b9d0-0631d6c1de18" data-name="Fill-11" d="M189.14,610.49v14.35a.66.66,0,1,0,1.31,0V610.49a.66.66,0,0,0-1.31,0" style="fill:#0a0b09"/><path id="18245c1e-7e49-4e3c-b88e-67afe5616479" data-name="Fill-12" d="M145,610.49V636a.66.66,0,0,0,1.31,0V610.49a.66.66,0,1,0-1.31,0" style="fill:#0a0b09"/><path id="42ed4ee9-02c4-4d01-8b54-753824fa5853" data-name="Fill-13" d="M145.34,611.06l22.06,12.74a.66.66,0,0,0,.65-1.14L146,609.92a.66.66,0,1,0-.65,1.14" style="fill:#0a0b09"/><path id="89797828-9550-44e7-afe9-159ef26549e6" data-name="Fill-14" d="M167.51,598.26l22,12.68a.66.66,0,0,0,.66-1.14l-22-12.68a.66.66,0,0,0-.66,1.14" style="fill:#0a0b09"/><path id="9ece58fa-8e21-41fd-8dad-24c7f66a309c" data-name="Fill-15" d="M145.34,636.54l22.06,12.74a.66.66,0,0,0,.65-1.14L146,635.4a.66.66,0,1,0-.65,1.14" style="fill:#0a0b09"/><path id="2177628c-fd3b-4319-9ac0-11d341fde9e3" data-name="Fill-16" d="M168.06,623.8l22.06-12.74a.66.66,0,0,0-.66-1.14l-22.06,12.74a.66.66,0,0,0,.65,1.14" style="fill:#0a0b09"/><path id="0b4386c7-8b98-43dc-bce5-a9133230d17b" data-name="Fill-17" d="M146,611.06l22.17-12.8a.66.66,0,0,0-.66-1.14l-22.17,12.8a.66.66,0,1,0,.66,1.14" style="fill:#0a0b09"/><path id="6be36923-b8d5-4b1d-88db-4a9f31cd671b" data-name="Fill-18" d="M168.06,649.27,180.74,642a.66.66,0,0,0-.66-1.14l-12.67,7.32a.66.66,0,0,0,.66,1.14" style="fill:#0a0b09"/><path id="02a77769-d50f-4d43-869d-9b23dea374f0" data-name="Fill-19" d="M201.81,682.59v25.48a.66.66,0,1,0,1.31,0V682.59a.66.66,0,1,0-1.31,0" style="fill:#0a0b09"/><path id="33abed24-bdc1-4334-bff0-a47b742cba98" data-name="Fill-20" d="M223.88,669.85v25.48a.66.66,0,0,0,1.31,0V669.85a.66.66,0,1,0-1.31,0" style="fill:#0a0b09"/><path id="f06455de-8c85-4411-9076-92ac31c2cf42" data-name="Fill-21" d="M179.75,669.85v25.48a.66.66,0,0,0,1.31,0V669.85a.66.66,0,1,0-1.31,0" style="fill:#0a0b09"/><path id="cf9e6c5d-8e69-46e1-8d7f-aac680f03730" data-name="Fill-22" d="M180.08,670.41l22.06,12.74a.66.66,0,0,0,.66-1.14l-22.06-12.74a.65.65,0,1,0-.65,1.13" style="fill:#0a0b09"/><path id="27b33dd4-a609-4cec-b57c-89d31c5b626f" data-name="Fill-23" d="M212,663.36l12.23,7.06a.66.66,0,0,0,.66-1.14l-12.23-7.06a.66.66,0,0,0-.66,1.14" style="fill:#0a0b09"/><path id="44f8cbf9-a5e6-4c06-9928-93e1022c8070" data-name="Fill-24" d="M180.08,695.89l22.06,12.74a.66.66,0,0,0,.66-1.14l-22.06-12.74a.66.66,0,0,0-.65,1.14" style="fill:#0a0b09"/><path id="202384d6-b847-40d0-b359-d1a1078ad7c4" data-name="Fill-25" d="M202.8,683.15l22.06-12.74a.66.66,0,1,0-.66-1.13L202.14,682a.66.66,0,0,0,.66,1.14" style="fill:#0a0b09"/><path id="5f5daaf3-c80a-4c9d-bbb2-56be9d0b074f" data-name="Fill-26" d="M180.73,670.42,193,663.36a.66.66,0,0,0-.66-1.14l-12.22,7.06a.66.66,0,0,0,.65,1.14" style="fill:#0a0b09"/><path id="624f60b4-1a7c-45c4-8b41-673b811d248e" data-name="Fill-27" d="M202.8,708.63l22.06-12.74a.66.66,0,0,0-.66-1.14L202.14,707.5a.66.66,0,0,0,.66,1.14" style="fill:#0a0b09"/><path id="37e29a34-e2bd-4439-876f-ca53dce8fa38" data-name="Fill-28" d="M201.81,643v25.48a.66.66,0,1,0,1.31,0V643a.66.66,0,1,0-1.31,0" style="fill:#0a0b09"/><path id="9818bcc6-07aa-40e7-9c1d-aaf773e94a03" data-name="Fill-29" d="M223.88,630.26v25.48a.66.66,0,0,0,1.31,0V630.26a.66.66,0,1,0-1.31,0" style="fill:#0a0b09"/><path id="90e888ee-304e-434d-a4c2-27ae6e9826f7" data-name="Fill-30" d="M179.75,630.26v25.48a.66.66,0,0,0,1.31,0V630.26a.66.66,0,1,0-1.31,0" style="fill:#0a0b09"/><path id="5c76a415-f54b-45b8-935e-6535722fcaa1" data-name="Fill-31" d="M180.08,630.83l22.06,12.74a.66.66,0,0,0,.66-1.14l-22.06-12.74a.66.66,0,0,0-.65,1.14" style="fill:#0a0b09"/><path id="4c3f701a-16de-45e3-b25b-a40e58e859c3" data-name="Fill-32" d="M202.14,618.09l22.06,12.74a.66.66,0,0,0,.66-1.14L202.8,617a.66.66,0,0,0-.66,1.14" style="fill:#0a0b09"/><path id="f5032724-bae0-4e08-8fce-4b1ffaeae2d5" data-name="Fill-33" d="M180.08,656.3,202.14,669a.66.66,0,0,0,.66-1.14l-22.06-12.74a.66.66,0,0,0-.65,1.14" style="fill:#0a0b09"/><path id="08704fd6-cf9b-4114-9fa2-9fcab35c1ef6" data-name="Fill-34" d="M202.8,643.56l22.06-12.74a.66.66,0,1,0-.66-1.14l-22.06,12.74a.66.66,0,0,0,.66,1.14" style="fill:#0a0b09"/><path id="339f9e62-dfbe-452a-bb1b-a4d01bb86e09" data-name="Fill-35" d="M180.73,630.83l22.06-12.74a.66.66,0,1,0-.66-1.14l-22.06,12.74a.66.66,0,0,0,.65,1.14" style="fill:#0a0b09"/><path id="5d11f79b-ba24-440e-8aea-e26f5b7d73de" data-name="Fill-36" d="M202.8,669l22.06-12.74a.66.66,0,0,0-.66-1.14l-22.06,12.74a.66.66,0,0,0,.66,1.14" style="fill:#0a0b09"/><path id="0fa0453f-3dc1-477f-ab37-77f22dea3c12" data-name="Fill-37" d="M413.22,662.82v25.48a.66.66,0,1,0,1.31,0V662.82a.66.66,0,1,0-1.31,0" style="fill:#0a0b09"/><path id="3352ead0-00ed-4b9b-8a2d-1980c7ae17b0" data-name="Fill-38" d="M435.28,650.08v25.48a.66.66,0,1,0,1.31,0V650.08a.66.66,0,1,0-1.31,0" style="fill:#0a0b09"/><path id="9fb50736-7c02-408d-8d01-bb4f0addc0fd" data-name="Fill-39" d="M391.16,661.16v3.27a.66.66,0,1,0,1.31,0v-3.27a.66.66,0,1,0-1.31,0" style="fill:#0a0b09"/><path id="81b7398c-3c30-4c46-97b3-53c06057b870" data-name="Fill-40" d="M400.87,656.07l12.67,7.32a.66.66,0,0,0,.66-1.14l-12.67-7.32a.66.66,0,1,0-.66,1.14" style="fill:#0a0b09"/><path id="aeecf6ff-2e6e-4c98-832a-a6b4ccf9b0cd" data-name="Fill-41" d="M423.39,643.59l12.22,7.06a.66.66,0,0,0,.66-1.14L424,642.45a.66.66,0,1,0-.66,1.14" style="fill:#0a0b09"/><path id="50dd16c2-6c9c-4c43-8c30-06bdb7b6c983" data-name="Fill-42" d="M400.87,681.55l12.67,7.32a.66.66,0,0,0,.66-1.14l-12.67-7.32a.66.66,0,1,0-.66,1.14" style="fill:#0a0b09"/><path id="2515bc31-0fa2-459f-9643-51f9f7fc0002" data-name="Fill-43" d="M414.2,663.39l22.06-12.74a.66.66,0,0,0-.65-1.14l-22.06,12.74a.66.66,0,1,0,.66,1.14" style="fill:#0a0b09"/><path id="a32e00c7-0c5e-468d-98ff-f2d65d2d1ce5" data-name="Fill-44" d="M401.53,645.23l2.83-1.63a.66.66,0,0,0-.66-1.14l-2.83,1.63a.66.66,0,0,0,.66,1.14" style="fill:#0a0b09"/><path id="79e40894-432e-4237-a9e5-1a56c81dd03a" data-name="Fill-45" d="M414.2,688.86l22.06-12.74a.66.66,0,0,0-.65-1.14l-22.06,12.74a.66.66,0,1,0,.66,1.14" style="fill:#0a0b09"/><path id="bc29fb7d-c2fd-4bea-8c6d-26e0d048f7e9" data-name="Fill-46" d="M413.22,623.23v25.48a.66.66,0,1,0,1.31,0V623.23a.66.66,0,1,0-1.31,0" style="fill:#0a0b09"/><path id="42a303ac-da3b-45e1-9d61-03235d34c49b" data-name="Fill-47" d="M435.28,610.49V636a.66.66,0,0,0,1.31,0V610.49a.66.66,0,1,0-1.31,0" style="fill:#0a0b09"/><path id="26151d23-f021-455f-8503-ffecf42160c4" data-name="Fill-48" d="M391.16,610.49v14.35a.66.66,0,1,0,1.31,0V610.49a.66.66,0,1,0-1.31,0" style="fill:#0a0b09"/><path id="abb092d7-566c-4dcd-8d83-dee08f84e23a" data-name="Fill-49" d="M391.48,611.06l22.06,12.74a.66.66,0,0,0,.66-1.14l-22.06-12.74a.66.66,0,0,0-.66,1.14" style="fill:#0a0b09"/><path id="d7633743-182f-4b5b-8298-a06915422456" data-name="Fill-50" d="M413.44,598.26l22.17,12.8a.66.66,0,0,0,.66-1.14l-22.17-12.8a.66.66,0,1,0-.66,1.14" style="fill:#0a0b09"/><path id="42a0bc40-83fa-4665-addc-33a533ec67be" data-name="Fill-51" d="M400.88,642l12.67,7.32a.66.66,0,0,0,.66-1.14l-12.67-7.32a.66.66,0,1,0-.66,1.14" style="fill:#0a0b09"/><path id="95db8962-38fc-42f1-818d-637f9ce8e962" data-name="Fill-52" d="M414.2,623.8l22.06-12.74a.66.66,0,0,0-.65-1.14l-22.06,12.74a.66.66,0,1,0,.66,1.14" style="fill:#0a0b09"/><path id="a7b46239-56e5-4edd-9826-ddb17ea470b6" data-name="Fill-53" d="M392.14,610.94l22-12.68a.66.66,0,0,0-.66-1.14l-22,12.68a.66.66,0,1,0,.66,1.14" style="fill:#0a0b09"/><path id="aec57edb-abb4-4249-91d5-f5d4fd475e7d" data-name="Fill-54" d="M414.2,649.27l22.06-12.74a.66.66,0,0,0-.65-1.14l-22.06,12.74a.66.66,0,1,0,.66,1.14" style="fill:#0a0b09"/><path id="8c26260f-6b83-41ef-a19c-bc5706224ef1" data-name="Fill-55" d="M378.48,682.59v25.48a.66.66,0,1,0,1.31,0V682.59a.66.66,0,1,0-1.31,0" style="fill:#0a0b09"/><path id="bf4414aa-73c2-4e47-be20-8298cd3c2591" data-name="Fill-56" d="M400.55,669.85v25.48a.66.66,0,0,0,1.31,0V669.85a.66.66,0,0,0-1.31,0" style="fill:#0a0b09"/><path id="95e03773-180c-40b0-a2d0-f5858c0e022b" data-name="Fill-57" d="M356.42,669.85v25.48a.66.66,0,0,0,1.31,0V669.85a.66.66,0,1,0-1.31,0" style="fill:#0a0b09"/><path id="d8fcc5cd-23c5-45d4-9f58-d765dc355d83" data-name="Fill-58" d="M356.75,670.41l22.06,12.74a.66.66,0,0,0,.66-1.14L357.4,669.28a.65.65,0,0,0-.65,1.13" style="fill:#0a0b09"/><path id="f58ebadd-f5fc-4957-aad0-27dee47dd356" data-name="Fill-59" d="M388.65,663.36l12.23,7.06a.66.66,0,0,0,.66-1.14l-12.23-7.06a.66.66,0,0,0-.66,1.14" style="fill:#0a0b09"/><path id="efa86ef9-79c8-4c29-97b6-c030f7eb7b2e" data-name="Fill-60" d="M356.75,695.89l22.06,12.74a.66.66,0,1,0,.66-1.14L357.4,694.76a.66.66,0,0,0-.65,1.14" style="fill:#0a0b09"/><path id="094e6173-7336-400b-a9da-c41fc4c532ad" data-name="Fill-61" d="M379.47,683.15l22.06-12.74a.66.66,0,1,0-.66-1.13L378.81,682a.66.66,0,1,0,.66,1.14" style="fill:#0a0b09"/><path id="8c2e0d8e-b462-472b-b89f-9238afde1d10" data-name="Fill-62" d="M357.4,670.42l12.22-7.06a.66.66,0,1,0-.66-1.14l-12.22,7.06a.66.66,0,0,0,.65,1.14" style="fill:#0a0b09"/><path id="fc5c31a1-20c0-48d8-84c7-23ce10a1fc79" data-name="Fill-63" d="M379.47,708.63l22.06-12.74a.66.66,0,0,0-.66-1.14L378.81,707.5a.66.66,0,0,0,.66,1.14" style="fill:#0a0b09"/><path id="de976f85-1c6d-4cd4-83ec-fb34728cbe6a" data-name="Fill-64" d="M378.48,643v25.48a.66.66,0,1,0,1.31,0V643a.66.66,0,1,0-1.31,0" style="fill:#0a0b09"/><path id="d41a0130-5341-465e-99c7-78932afd4197" data-name="Fill-65" d="M400.55,630.26v25.48a.66.66,0,0,0,1.31,0V630.26a.66.66,0,1,0-1.31,0" style="fill:#0a0b09"/><path id="1f17277f-d149-443a-9396-24c32c17b9c3" data-name="Fill-66" d="M356.42,630.26v25.48a.66.66,0,0,0,1.31,0V630.26a.66.66,0,1,0-1.31,0" style="fill:#0a0b09"/><path id="40e60d7a-fd52-48a9-ac25-478c511b36a7" data-name="Fill-67" d="M356.75,630.83l22.06,12.74a.66.66,0,0,0,.66-1.14L357.4,629.69a.66.66,0,0,0-.65,1.14" style="fill:#0a0b09"/><path id="f8be89b4-86cf-4557-8463-7593c88d90f0" data-name="Fill-68" d="M378.81,618.09l22.06,12.74a.66.66,0,0,0,.66-1.14L379.47,617a.66.66,0,1,0-.66,1.14" style="fill:#0a0b09"/><path id="90a154ec-143e-4d10-9883-f8f0f60a0a08" data-name="Fill-69" d="M356.75,656.3,378.81,669a.66.66,0,0,0,.66-1.14L357.4,655.17a.66.66,0,0,0-.65,1.14" style="fill:#0a0b09"/><path id="ff313de1-9e07-4b11-8633-cb623bde2bc1" data-name="Fill-70" d="M379.47,643.56l22.06-12.74a.66.66,0,0,0-.66-1.14l-22.06,12.74a.66.66,0,1,0,.66,1.14" style="fill:#0a0b09"/><path id="e965220a-8450-4c43-8fe8-03411e39f7cc" data-name="Fill-71" d="M357.4,630.83l22.06-12.74a.66.66,0,1,0-.66-1.14l-22.06,12.74a.66.66,0,0,0,.65,1.14" style="fill:#0a0b09"/><path id="6787fcd4-6b5c-46f4-8bc2-1a354fcdf6f9" data-name="Fill-72" d="M379.47,669l22.06-12.74a.66.66,0,0,0-.66-1.14l-22.06,12.74a.66.66,0,1,0,.66,1.14" style="fill:#0a0b09"/><path id="a9c24641-e7c6-422a-b6f9-d3d749277c80" data-name="Fill-73" d="M167.5,561.85v25.48a.66.66,0,1,0,1.31,0V561.85a.66.66,0,1,0-1.31,0" style="fill:#0a0b09"/><path id="b7459e7b-e95a-45d7-ac91-1acc00e59264" data-name="Fill-74" d="M189.57,560.19v3.27a.66.66,0,1,0,1.31,0v-3.27a.66.66,0,0,0-1.31,0" style="fill:#0a0b09"/><path id="668fab2a-41d7-405b-9864-e5a640aa187b" data-name="Fill-75" d="M145.44,549.11v25.48a.66.66,0,1,0,1.31,0V549.11a.66.66,0,1,0-1.31,0" style="fill:#0a0b09"/><path id="93cb775c-8832-4289-801a-3ce08ce303f8" data-name="Fill-76" d="M145.76,549.68l22.07,12.74a.66.66,0,0,0,.66-1.14l-22.07-12.74a.66.66,0,0,0-.66,1.14" style="fill:#0a0b09"/><path id="6af249de-ce15-45b3-aaa3-f418c200b5f9" data-name="Fill-77" d="M177.68,542.62l2.83,1.63a.66.66,0,0,0,.66-1.14l-2.83-1.63a.66.66,0,0,0-.66,1.14" style="fill:#0a0b09"/><path id="f0d33d34-6b66-4551-a65a-2eb3a916cdf5" data-name="Fill-78" d="M145.76,575.16l22.07,12.74a.66.66,0,1,0,.66-1.14L146.42,574a.66.66,0,0,0-.66,1.14" style="fill:#0a0b09"/><path id="02c89890-e90a-432c-91ac-79faa8c8c583" data-name="Fill-79" d="M168.49,562.42l12.67-7.32a.66.66,0,0,0-.66-1.14l-12.67,7.32a.66.66,0,0,0,.66,1.14" style="fill:#0a0b09"/><path id="4ad8fd8a-7347-4b57-bfe1-ae7f6140244d" data-name="Fill-80" d="M146.42,549.68l12.2-7a.66.66,0,0,0-.66-1.14l-12.2,7a.66.66,0,0,0,.66,1.14" style="fill:#0a0b09"/><path id="1c65ca96-a767-46e4-a6ad-42580bd7d3d5" data-name="Fill-81" d="M168.49,587.9l12.67-7.32a.66.66,0,0,0-.66-1.14l-12.67,7.32a.66.66,0,1,0,.66,1.14" style="fill:#0a0b09"/><path id="ebf77c34-3d32-4510-9981-de1c898ff8e9" data-name="Fill-82" d="M167.5,522.25v25.48a.66.66,0,0,0,1.31,0V522.25a.66.66,0,0,0-1.31,0" style="fill:#0a0b09"/><path id="1cd630bd-61f8-4ac1-bde5-5dac8a4e5a72" data-name="Fill-83" d="M189.57,509.51v14.35a.66.66,0,0,0,1.31,0V509.51a.66.66,0,1,0-1.31,0" style="fill:#0a0b09"/><path id="215eed6e-0313-4e29-bba0-b7b76a0feabc" data-name="Fill-84" d="M145.44,509.51V535a.66.66,0,0,0,1.31,0V509.51a.66.66,0,1,0-1.31,0" style="fill:#0a0b09"/><path id="87d6f6f8-0d62-446b-807a-81ca13799817" data-name="Fill-85" d="M145.76,510.08l22.07,12.74a.66.66,0,0,0,.66-1.14l-22.07-12.74a.66.66,0,0,0-.66,1.14" style="fill:#0a0b09"/><path id="d1249cd2-bf02-477c-8c77-2f96a813a205" data-name="Fill-86" d="M167.94,497.28l22,12.68a.66.66,0,0,0,.66-1.14l-22-12.68a.66.66,0,0,0-.66,1.14" style="fill:#0a0b09"/><path id="074affea-ae8f-48dd-a24e-d73bd9a9625c" data-name="Fill-87" d="M145.76,535.56l22.07,12.74a.66.66,0,1,0,.66-1.14l-22.07-12.74a.66.66,0,0,0-.66,1.14" style="fill:#0a0b09"/><path id="12f71993-71f7-4499-8843-fe29a9ebfcdf" data-name="Fill-88" d="M168.49,522.82l22.07-12.74a.66.66,0,0,0-.66-1.14l-22.07,12.74a.66.66,0,1,0,.66,1.14" style="fill:#0a0b09"/><path id="d4104d5c-4e9e-4d45-a049-c1d4e9ec1fdc" data-name="Fill-89" d="M146.42,510.08l22.17-12.8a.66.66,0,0,0-.66-1.14l-22.17,12.8a.66.66,0,0,0,.66,1.14" style="fill:#0a0b09"/><path id="c3d76929-c5f8-4671-ad3a-e1512e336eb6" data-name="Fill-90" d="M168.49,548.31,181.16,541a.66.66,0,1,0-.66-1.14l-12.68,7.32a.66.66,0,1,0,.66,1.14" style="fill:#0a0b09"/><path id="e38da550-4222-45af-a0a8-d1e2ea3cb342" data-name="Fill-91" d="M202.25,581.63v25.48a.66.66,0,1,0,1.31,0V581.63a.66.66,0,1,0-1.31,0" style="fill:#0a0b09"/><path id="3a2adefe-fd6b-4fdf-bcc1-45d9028fa125" data-name="Fill-92" d="M224.32,568.89v25.48a.66.66,0,1,0,1.31,0V568.89a.66.66,0,0,0-1.31,0" style="fill:#0a0b09"/><path id="2a108b1a-37d9-41f1-b616-065c024d3b70" data-name="Fill-93" d="M180.18,568.89v25.48a.66.66,0,1,0,1.31,0V568.89a.66.66,0,0,0-1.31,0" style="fill:#0a0b09"/><path id="29667747-bd22-410f-947b-f7ce619dc497" data-name="Fill-94" d="M180.51,569.45l22.07,12.74a.66.66,0,1,0,.66-1.14l-22.07-12.74a.66.66,0,1,0-.66,1.14" style="fill:#0a0b09"/><path id="18c5685d-0305-48ac-aaeb-32baa901b050" data-name="Fill-95" d="M212.42,562.39l12.23,7.06a.66.66,0,0,0,.66-1.14l-12.23-7.06a.66.66,0,1,0-.66,1.14" style="fill:#0a0b09"/><path id="b7399e70-af73-4dd0-bb70-3d8974f1dfe9" data-name="Fill-96" d="M180.51,594.94l22.07,12.74a.66.66,0,0,0,.66-1.14L181.16,593.8a.66.66,0,1,0-.66,1.14" style="fill:#0a0b09"/><path id="19cfcc3b-0514-48fb-a57a-0e3c02fd9f63" data-name="Fill-97" d="M203.23,582.19l22.07-12.74a.66.66,0,1,0-.66-1.14l-22.07,12.74a.66.66,0,1,0,.66,1.14" style="fill:#0a0b09"/><path id="bc742f47-069c-4195-9bda-d6c05b3c3bef" data-name="Fill-98" d="M181.16,569.45l12.22-7.06a.66.66,0,0,0-.66-1.14l-12.22,7.06a.66.66,0,1,0,.66,1.14" style="fill:#0a0b09"/><path id="96d9b7b3-baeb-48ee-a624-b86c039fa631" data-name="Fill-99" d="M203.23,607.68l22.07-12.74a.66.66,0,1,0-.66-1.14l-22.07,12.74a.66.66,0,0,0,.66,1.14" style="fill:#0a0b09"/><path id="5b360b94-9d7e-4b0c-8620-af4be14e544d" data-name="Fill-100" d="M202.25,542v25.48a.66.66,0,1,0,1.31,0V542a.66.66,0,1,0-1.31,0" style="fill:#0a0b09"/><path id="28bf065f-83f0-40a2-bf5e-64efd60ff621" data-name="Fill-101" d="M224.32,529.29v25.48a.66.66,0,1,0,1.31,0V529.29a.66.66,0,0,0-1.31,0" style="fill:#0a0b09"/><path id="9b73ce5a-cdd5-4355-b9cb-10dcc019f290" data-name="Fill-102" d="M180.18,529.29v25.48a.66.66,0,1,0,1.31,0V529.29a.66.66,0,0,0-1.31,0" style="fill:#0a0b09"/><path id="44269283-4019-401a-998b-54bee6609a10" data-name="Fill-103" d="M180.51,529.85l22.07,12.74a.66.66,0,1,0,.66-1.14l-22.07-12.74a.66.66,0,0,0-.66,1.14" style="fill:#0a0b09"/><path id="35bff515-cf79-42cb-b5af-27e6dd89ea20" data-name="Fill-104" d="M202.58,517.11l22.07,12.74a.66.66,0,0,0,.66-1.14L203.23,516a.66.66,0,1,0-.66,1.14" style="fill:#0a0b09"/><path id="a4309057-fbe1-45d8-b765-2941cdc4e27f" data-name="Fill-105" d="M180.51,555.34l22.07,12.74a.66.66,0,1,0,.66-1.14L181.16,554.2a.66.66,0,1,0-.66,1.14" style="fill:#0a0b09"/><path id="24313dce-8ecd-45e6-8a6f-bc07a730361d" data-name="Fill-106" d="M203.23,542.6l22.07-12.74a.66.66,0,0,0-.66-1.14l-22.07,12.74a.66.66,0,0,0,.66,1.14" style="fill:#0a0b09"/><path id="036e077f-16de-4291-8bb3-a515fa817cb3" data-name="Fill-107" d="M181.16,529.85l22.07-12.74a.66.66,0,1,0-.66-1.14l-22.07,12.74a.66.66,0,0,0,.66,1.14" style="fill:#0a0b09"/><path id="c976fcd7-d581-49f7-afb8-59e2f7efb75d" data-name="Fill-108" d="M203.23,568.08l22.07-12.74a.66.66,0,0,0-.66-1.14l-22.07,12.74a.66.66,0,1,0,.66,1.14" style="fill:#0a0b09"/><path id="201a4536-8b4f-4833-b2f5-73fca92523e9" data-name="Fill-109" d="M412.66,561.59V587a.66.66,0,1,0,1.31,0V561.59a.66.66,0,1,0-1.31,0" style="fill:#0a0b09"/><path id="b6eedbef-2fdb-4f20-8303-f605bcf78456" data-name="Fill-110" d="M434.64,548.89v25.39a.66.66,0,0,0,1.31,0V548.89a.66.66,0,0,0-1.31,0" style="fill:#0a0b09"/><path id="a6154ab1-8e43-4e08-8b82-3cdf9ffd1f7b" data-name="Fill-111" d="M390.67,559.93v3.26a.66.66,0,0,0,1.31,0v-3.26a.66.66,0,1,0-1.31,0" style="fill:#0a0b09"/><path id="4b458cb1-77ed-4dfa-93e4-12e363bcf788" data-name="Fill-112" d="M400.36,554.86,413,562.16a.66.66,0,0,0,.66-1.14L401,553.73a.66.66,0,0,0-.66,1.14" style="fill:#0a0b09"/><path id="752a7b36-4ec0-4119-916a-de07c2952ab9" data-name="Fill-113" d="M422.79,542.43l12.18,7a.66.66,0,0,0,.66-1.14l-12.18-7a.66.66,0,0,0-.66,1.14" style="fill:#0a0b09"/><path id="e95616c5-268c-4ad7-b765-6f1f2d48e0b8" data-name="Fill-114" d="M400.36,580.25,413,587.54a.66.66,0,0,0,.66-1.14L401,579.11a.66.66,0,0,0-.66,1.14" style="fill:#0a0b09"/><path id="5776df04-f8a3-477e-87a9-b37f11a30881" data-name="Fill-115" d="M413.64,562.16l22-12.69a.66.66,0,0,0-.66-1.14L413,561a.66.66,0,0,0,.65,1.14" style="fill:#0a0b09"/><path id="af49ae79-8bee-44d7-953d-70fa76175f18" data-name="Fill-116" d="M401,544.06l2.82-1.63a.66.66,0,0,0-.66-1.14l-2.82,1.63a.66.66,0,0,0,.65,1.14" style="fill:#0a0b09"/><path id="aee6f2df-b683-484d-ade1-995d6c327b7c" data-name="Fill-117" d="M413.64,587.54l22-12.69a.66.66,0,0,0-.66-1.14l-22,12.69a.66.66,0,0,0,.65,1.14" style="fill:#0a0b09"/><path id="3508886e-0729-46f2-82fe-f935e6f4fe5d" data-name="Fill-118" d="M412.66,522.14v25.39a.66.66,0,1,0,1.31,0V522.14a.66.66,0,1,0-1.31,0" style="fill:#0a0b09"/><path id="5a941703-69ec-4a6a-a07b-5c1fd1d8db42" data-name="Fill-119" d="M434.64,509.45v25.39a.66.66,0,0,0,1.31,0V509.45a.66.66,0,0,0-1.31,0" style="fill:#0a0b09"/><path id="6b627eac-d86f-4509-ae55-f746a8359475" data-name="Fill-120" d="M390.67,509.45v14.3a.66.66,0,0,0,1.31,0v-14.3a.66.66,0,0,0-1.31,0" style="fill:#0a0b09"/><path id="414de069-3e37-4f0f-b956-e0bd20ea82db" data-name="Fill-121" d="M391,510l22,12.69a.66.66,0,0,0,.66-1.14l-22-12.69A.66.66,0,1,0,391,510" style="fill:#0a0b09"/><path id="be14fbb2-96b1-4843-8867-eb7b962b946b" data-name="Fill-122" d="M412.88,497.26,435,510a.66.66,0,0,0,.66-1.14l-22.09-12.75a.66.66,0,1,0-.65,1.14" style="fill:#0a0b09"/><path id="3751a670-0505-453b-81ea-e18328b824c0" data-name="Fill-123" d="M400.36,540.8,413,548.09a.66.66,0,0,0,.66-1.14L401,539.67a.66.66,0,0,0-.66,1.14" style="fill:#0a0b09"/><path id="dc2c99e0-2a01-46b8-8850-ac45d5b53e67" data-name="Fill-124" d="M413.64,522.71l22-12.69a.66.66,0,0,0-.66-1.14l-22,12.69a.66.66,0,0,0,.66,1.14" style="fill:#0a0b09"/><path id="eef47f3b-8263-4aa3-b78d-c58e8b322214" data-name="Fill-125" d="M391.66,509.89l21.88-12.63a.66.66,0,0,0-.65-1.14L391,508.76a.66.66,0,0,0,.65,1.14" style="fill:#0a0b09"/><path id="f97fdca4-7c89-4fc5-bfc8-736314776c39" data-name="Fill-126" d="M413.64,548.09l22-12.69a.66.66,0,0,0-.66-1.14L413,547a.66.66,0,0,0,.65,1.14" style="fill:#0a0b09"/><path id="0e35dab9-bdaa-44e2-9b48-d57e3a835935" data-name="Fill-127" d="M378,581.29v25.39a.66.66,0,1,0,1.31,0V581.29a.66.66,0,0,0-1.31,0" style="fill:#0a0b09"/><path id="f640d01e-5d8d-4178-940d-93f05269f331" data-name="Fill-128" d="M400,568.59V594a.66.66,0,0,0,1.31,0V568.59a.66.66,0,0,0-1.31,0" style="fill:#0a0b09"/><path id="814e4ea4-fd98-41cc-ab03-866e86c66cb5" data-name="Fill-129" d="M356.06,568.59V594a.66.66,0,0,0,1.31,0V568.59a.66.66,0,0,0-1.31,0" style="fill:#0a0b09"/><path id="94647a13-48d8-42d6-8f21-55dd3135923b" data-name="Fill-130" d="M356.39,569.16l22,12.69a.66.66,0,1,0,.66-1.14L357,568a.66.66,0,0,0-.66,1.14" style="fill:#0a0b09"/><path id="0fa940ff-931f-4dd3-9a45-aa3b512a0917" data-name="Fill-131" d="M388.18,562.13l12.18,7A.66.66,0,0,0,401,568l-12.18-7a.66.66,0,0,0-.66,1.14" style="fill:#0a0b09"/><path id="690e0af3-63fe-4720-8151-3eb5b2d9acdb" data-name="Fill-132" d="M356.39,594.55l22,12.69a.66.66,0,0,0,.66-1.14l-22-12.69a.66.66,0,0,0-.66,1.14" style="fill:#0a0b09"/><path id="f48b1047-4e59-46d5-be8f-8509c0dc7d31" data-name="Fill-133" d="M379,581.85l22-12.69a.66.66,0,0,0-.66-1.14l-22,12.69a.66.66,0,1,0,.66,1.14" style="fill:#0a0b09"/><path id="399a50fb-7b58-41be-8509-1e6c8e26701d" data-name="Fill-134" d="M357,569.16l12.18-7a.66.66,0,0,0-.66-1.14l-12.18,7a.66.66,0,0,0,.66,1.14" style="fill:#0a0b09"/><path id="a0ef9d05-319d-4fc7-be46-77a0cb9506f6" data-name="Fill-135" d="M379,607.24l22-12.69a.66.66,0,0,0-.66-1.14l-22,12.69a.66.66,0,0,0,.66,1.14" style="fill:#0a0b09"/><path id="568559a9-0ff7-453b-992a-3b4af18ec31a" data-name="Fill-136" d="M378,541.84v25.39a.66.66,0,0,0,1.31,0V541.84a.66.66,0,0,0-1.31,0" style="fill:#0a0b09"/><path id="bd927b4a-a322-4c27-958d-d91d7af2c276" data-name="Fill-137" d="M400,529.14v25.39a.66.66,0,0,0,1.31,0V529.14a.66.66,0,0,0-1.31,0" style="fill:#0a0b09"/><path id="e3f32b05-7951-4767-ac26-374fa580c156" data-name="Fill-138" d="M356.06,529.14v25.39a.66.66,0,0,0,1.31,0V529.14a.66.66,0,0,0-1.31,0" style="fill:#0a0b09"/><path id="209c8dad-0dd6-46f5-9c36-95c73b27d5f4" data-name="Fill-139" d="M356.39,529.71l22,12.69a.66.66,0,0,0,.66-1.14l-22-12.69a.66.66,0,0,0-.66,1.14" style="fill:#0a0b09"/><path id="12a96c74-516b-4ad1-bbf4-cb7da44d5aab" data-name="Fill-140" d="M378.37,517l22,12.69a.66.66,0,0,0,.66-1.14l-22-12.69a.66.66,0,1,0-.66,1.14" style="fill:#0a0b09"/><path id="7f02b150-a729-4b9a-9774-025658110074" data-name="Fill-141" d="M356.39,555.1l22,12.69a.66.66,0,0,0,.66-1.14L357,554a.66.66,0,0,0-.66,1.14" style="fill:#0a0b09"/><path id="d114a8a9-b6cc-47ac-b49c-35ce59dcdb03" data-name="Fill-142" d="M379,542.41l22-12.69a.66.66,0,0,0-.66-1.14l-22,12.69a.66.66,0,1,0,.66,1.14" style="fill:#0a0b09"/><path id="d4f223a9-9464-433c-923b-f3767a2dc9cf" data-name="Fill-143" d="M357,529.71,379,517a.66.66,0,1,0-.66-1.14l-22,12.69a.66.66,0,0,0,.66,1.14" style="fill:#0a0b09"/><path id="47b0b606-6087-4285-a777-9adeedad21fb" data-name="Fill-144" d="M379,567.79l22-12.69a.66.66,0,0,0-.66-1.14l-22,12.69a.66.66,0,1,0,.66,1.14" style="fill:#0a0b09"/><path id="53b0406b-59b0-4861-ab2e-d2f6798a35d8" data-name="Fill-145" d="M324.75,713.51V739a.66.66,0,1,0,1.31,0V713.51a.66.66,0,1,0-1.31,0" style="fill:#0a0b09"/><path id="10c05229-6aba-468b-9389-8c19b88dfc16" data-name="Fill-146" d="M346.82,700.77v25.48a.66.66,0,0,0,1.31,0V700.77a.66.66,0,1,0-1.31,0" style="fill:#0a0b09"/><path id="e01457d7-e732-46a1-b281-f5ae8da14e66" data-name="Fill-147" d="M302.69,711.85v3.27a.66.66,0,0,0,1.31,0v-3.27a.66.66,0,0,0-1.31,0" style="fill:#0a0b09"/><path id="15ad431d-b1eb-4c2f-a841-be6b4f472400" data-name="Fill-148" d="M312.4,706.76l12.68,7.32a.66.66,0,0,0,.66-1.14l-12.68-7.32a.66.66,0,0,0-.66,1.14" style="fill:#0a0b09"/><path id="e2f10ae8-5202-47ba-b040-d53c1401efb3" data-name="Fill-149" d="M334.92,694.28l12.23,7.06a.66.66,0,0,0,.65-1.14l-12.23-7.06a.66.66,0,1,0-.66,1.14" style="fill:#0a0b09"/><path id="b20d2082-ce17-4e3b-91ce-061239d94c88" data-name="Fill-150" d="M312.4,732.24l12.68,7.32a.66.66,0,0,0,.66-1.14l-12.68-7.32a.66.66,0,1,0-.66,1.14" style="fill:#0a0b09"/><path id="da7e9a03-5884-450d-ba39-f248fc60b9ba" data-name="Fill-151" d="M325.73,714.08l22.06-12.74a.66.66,0,0,0-.65-1.14l-22.06,12.74a.66.66,0,0,0,.66,1.14" style="fill:#0a0b09"/><path id="554c502a-88d8-4184-8e9a-60f25e5f331b" data-name="Fill-152" d="M313.06,695.92l2.83-1.63a.66.66,0,0,0-.66-1.14l-2.83,1.63a.66.66,0,0,0,.66,1.14" style="fill:#0a0b09"/><path id="4361c95d-0455-4273-88eb-6a95ff40ef08" data-name="Fill-153" d="M325.73,739.56l22.06-12.74a.66.66,0,0,0-.66-1.14l-22.06,12.74a.66.66,0,0,0,.66,1.14" style="fill:#0a0b09"/><path id="0994ccae-029f-47c4-8913-b433abb0a9d0" data-name="Fill-154" d="M255.28,713.51V739a.66.66,0,1,0,1.31,0V713.51a.66.66,0,1,0-1.31,0" style="fill:#0a0b09"/><path id="96bad4f2-1707-4384-b037-04a81a686150" data-name="Fill-155" d="M277.34,711.85v3.27a.66.66,0,0,0,1.31,0v-3.27a.66.66,0,0,0-1.31,0" style="fill:#0a0b09"/><path id="ba21c330-db03-41f2-9aee-de97721e7b97" data-name="Fill-156" d="M233.22,700.77v25.48a.66.66,0,0,0,1.31,0V700.77a.66.66,0,1,0-1.31,0" style="fill:#0a0b09"/><path id="2e0948a0-03c4-4df9-a555-65e170ad2945" data-name="Fill-157" d="M233.54,701.34l22.06,12.74a.66.66,0,0,0,.65-1.14L234.2,700.21a.66.66,0,1,0-.66,1.14" style="fill:#0a0b09"/><path id="8d978d81-fc9e-46b1-ba97-2bbb7b41af05" data-name="Fill-158" d="M265.45,694.29l2.83,1.63a.66.66,0,0,0,.66-1.14l-2.83-1.63a.66.66,0,1,0-.66,1.14" style="fill:#0a0b09"/><path id="6fce39d5-58ac-4ce4-a2b2-56aaadb25a39" data-name="Fill-159" d="M233.54,726.82l22.06,12.74a.66.66,0,0,0,.66-1.14L234.2,725.68a.66.66,0,0,0-.66,1.14" style="fill:#0a0b09"/><path id="7952931d-2f0a-421b-ad52-79820c260409" data-name="Fill-160" d="M256.26,714.08l12.67-7.31a.66.66,0,0,0-.65-1.14l-12.67,7.31a.66.66,0,0,0,.65,1.14" style="fill:#0a0b09"/><path id="8da30db6-9ee2-483e-a423-75de916f6a25" data-name="Fill-161" d="M234.2,701.34l12.2-7a.66.66,0,0,0-.66-1.14l-12.2,7a.66.66,0,1,0,.66,1.14" style="fill:#0a0b09"/><path id="87fb2305-82c9-475e-aae3-be9a36453571" data-name="Fill-162" d="M256.26,739.56l12.67-7.31a.66.66,0,0,0-.65-1.14l-12.67,7.31a.66.66,0,0,0,.65,1.14" style="fill:#0a0b09"/><path id="da9ce4a0-262f-4828-a191-36ab7319d1df" data-name="Fill-163" d="M255.28,673.92V699.4a.66.66,0,1,0,1.31,0V673.92a.66.66,0,1,0-1.31,0" style="fill:#0a0b09"/><path id="9cfc581f-3687-4111-9f1b-fe732859bbdd" data-name="Fill-164" d="M277.34,661.19v14.34a.66.66,0,0,0,1.31,0V661.19a.66.66,0,0,0-1.31,0" style="fill:#0a0b09"/><path id="9033125f-45ff-4f39-93fe-35c2985bad39" data-name="Fill-165" d="M233.22,661.19v25.48a.66.66,0,0,0,1.31,0V661.19a.66.66,0,0,0-1.31,0" style="fill:#0a0b09"/><path id="57051d2c-bdb2-48c6-a7cc-2b4db48733e8" data-name="Fill-166" d="M233.54,661.75l22.06,12.74a.66.66,0,0,0,.65-1.14L234.2,660.62a.66.66,0,1,0-.66,1.14" style="fill:#0a0b09"/><path id="938f64b6-dc6b-4cdd-8446-05dde30ba72f" data-name="Fill-167" d="M255.71,649l22,12.68a.66.66,0,1,0,.65-1.14l-22-12.68a.66.66,0,0,0-.65,1.14" style="fill:#0a0b09"/><path id="e1949b56-3f11-4419-9e71-8112da6290d5" data-name="Fill-168" d="M233.54,687.23,255.61,700a.66.66,0,0,0,.65-1.14L234.2,686.09a.66.66,0,0,0-.66,1.14" style="fill:#0a0b09"/><path id="eb785e83-a310-4f28-978f-21ad1068df66" data-name="Fill-169" d="M256.26,674.49l22.06-12.74a.66.66,0,1,0-.65-1.14l-22.06,12.74a.66.66,0,0,0,.65,1.14" style="fill:#0a0b09"/><path id="a1a45a1a-19c1-488b-a5a7-3d8fad9f5437" data-name="Fill-170" d="M234.2,661.75,256.37,649a.66.66,0,0,0-.66-1.14l-22.17,12.8a.66.66,0,1,0,.66,1.14" style="fill:#0a0b09"/><path id="ccc944af-87fb-4836-afd7-b0610d03d816" data-name="Fill-171" d="M256.26,700l12.67-7.32a.66.66,0,0,0-.65-1.14l-12.67,7.32a.66.66,0,0,0,.65,1.14" style="fill:#0a0b09"/><path id="984927ea-58f0-4dcd-a79a-baf4a9ec2f1e" data-name="Fill-172" d="M324.75,673.92V699.4a.66.66,0,1,0,1.31,0V673.92a.66.66,0,1,0-1.31,0" style="fill:#0a0b09"/><path id="f472853e-e4b0-49a0-877e-246b229786b7" data-name="Fill-173" d="M346.82,661.19v25.48a.66.66,0,0,0,1.31,0V661.19a.66.66,0,0,0-1.31,0" style="fill:#0a0b09"/><path id="7dc385e7-1b5a-4a63-9d0b-7b2d6d2e302a" data-name="Fill-174" d="M302.69,661.19v14.34a.66.66,0,0,0,1.31,0V661.19a.66.66,0,0,0-1.31,0" style="fill:#0a0b09"/><path id="769e8a6c-15c0-47e2-a2e5-dfe79831fa5e" data-name="Fill-175" d="M303,661.75l22.06,12.74a.66.66,0,0,0,.66-1.14l-22.06-12.74a.66.66,0,1,0-.66,1.14" style="fill:#0a0b09"/><path id="65994b36-ace6-4c0e-be5a-cf71534454db" data-name="Fill-176" d="M325,649l22.17,12.8a.66.66,0,0,0,.65-1.14l-22.17-12.8A.66.66,0,1,0,325,649" style="fill:#0a0b09"/><path id="ae16f14c-4d99-488f-b0b4-8ac0863fb88f" data-name="Fill-177" d="M312.41,692.65,325.08,700a.66.66,0,0,0,.66-1.14l-12.67-7.31a.66.66,0,1,0-.66,1.14" style="fill:#0a0b09"/><path id="e54e10a5-2b57-41a2-9ebf-fbe2aacc7653" data-name="Fill-178" d="M325.73,674.49l22.06-12.74a.66.66,0,0,0-.65-1.14l-22.06,12.74a.66.66,0,1,0,.66,1.14" style="fill:#0a0b09"/><path id="aa354c57-95b1-4484-8da4-aac220f13464" data-name="Fill-179" d="M303.67,661.63l22-12.68a.66.66,0,1,0-.66-1.14L303,660.5a.66.66,0,1,0,.66,1.14" style="fill:#0a0b09"/><path id="00dc846f-00bc-411f-b06c-596e64f68d01" data-name="Fill-180" d="M325.73,700l22.06-12.74a.66.66,0,0,0-.65-1.14l-22.06,12.74a.66.66,0,0,0,.66,1.14" style="fill:#0a0b09"/><path id="a6ac4ca0-2bd7-4cff-b771-932620343674" data-name="Fill-181" d="M290,733.28v25.48a.66.66,0,0,0,1.31,0V733.28a.66.66,0,1,0-1.31,0" style="fill:#0a0b09"/><path id="9ec59e67-4932-4491-a2fc-27b1fc0445fe" data-name="Fill-182" d="M312.08,720.54V746a.66.66,0,0,0,1.31,0V720.54a.66.66,0,1,0-1.31,0" style="fill:#0a0b09"/><path id="c7893f73-6473-40dd-9051-fb95c0090393" data-name="Fill-183" d="M268,720.54V746a.66.66,0,0,0,1.31,0V720.54a.66.66,0,1,0-1.31,0" style="fill:#0a0b09"/><path id="1c01c15f-9153-4a6d-9979-8c98a9185846" data-name="Fill-184" d="M268.28,721.11l22.06,12.74a.66.66,0,0,0,.66-1.14L268.93,720a.66.66,0,0,0-.65,1.14" style="fill:#0a0b09"/><path id="18cb26ac-3f75-47db-9661-ff9be8363425" data-name="Fill-185" d="M300.18,714.05l12.23,7.06a.66.66,0,1,0,.66-1.14l-12.22-7.06a.66.66,0,0,0-.66,1.14" style="fill:#0a0b09"/><path id="04ccbbee-6851-4c79-97e9-a0d21907f297" data-name="Fill-186" d="M268.28,746.59l22.06,12.74a.66.66,0,0,0,.66-1.14l-22.06-12.74a.66.66,0,0,0-.65,1.14" style="fill:#0a0b09"/><path id="dfcf308d-d70c-4359-b82a-b01638a95ec2" data-name="Fill-187" d="M291,733.85l22.06-12.74a.66.66,0,1,0-.66-1.14l-22.06,12.74a.66.66,0,0,0,.66,1.14" style="fill:#0a0b09"/><path id="f00bea39-b153-4475-835b-6d2b0155708d" data-name="Fill-188" d="M268.94,721.11l12.22-7.06a.66.66,0,0,0-.66-1.14L268.28,720a.66.66,0,0,0,.66,1.14" style="fill:#0a0b09"/><path id="2a1ef22d-10a8-4aac-8da5-d67bc337496f" data-name="Fill-189" d="M291,759.32l22.06-12.74a.66.66,0,0,0-.66-1.14l-22.06,12.74a.66.66,0,0,0,.66,1.14" style="fill:#0a0b09"/><path id="4fb4a63a-2adc-44a5-8813-837a4cea7ccf" data-name="Fill-190" d="M290,693.69v25.48a.66.66,0,1,0,1.31,0V693.69a.66.66,0,1,0-1.31,0" style="fill:#0a0b09"/><path id="f19983bf-8b48-4920-ad5b-da02f1f85f7c" data-name="Fill-191" d="M312.08,681v25.48a.66.66,0,0,0,1.31,0V681a.66.66,0,1,0-1.31,0" style="fill:#0a0b09"/><path id="a20eeba0-5c76-4a86-b23f-deff50beb43b" data-name="Fill-192" d="M268,681v25.48a.66.66,0,0,0,1.31,0V681a.66.66,0,1,0-1.31,0" style="fill:#0a0b09"/><path id="0d78cb0b-139a-4ed5-bce7-97c55836567d" data-name="Fill-193" d="M268.28,681.52l22.06,12.74a.66.66,0,0,0,.66-1.14l-22.06-12.74a.66.66,0,0,0-.65,1.14" style="fill:#0a0b09"/><path id="6482e23e-814e-4dc6-b378-d15c1372b4c7" data-name="Fill-194" d="M290.34,668.78l22.06,12.74a.66.66,0,1,0,.66-1.14L291,667.65a.66.66,0,1,0-.66,1.14" style="fill:#0a0b09"/><path id="e39e3d19-a818-4500-ab14-443f389f261e" data-name="Fill-195" d="M268.28,707l22.06,12.74a.66.66,0,0,0,.66-1.14l-22.06-12.74a.66.66,0,0,0-.65,1.14" style="fill:#0a0b09"/><path id="222f254f-25c5-4a6e-870a-7bd58e4f45d1" data-name="Fill-196" d="M291,694.26l22.06-12.74a.66.66,0,1,0-.66-1.14l-22.06,12.74a.66.66,0,0,0,.66,1.14" style="fill:#0a0b09"/><path id="f36c3679-beb7-4c0c-9931-67c87a0dc91c" data-name="Fill-197" d="M268.94,681.52,291,668.78a.66.66,0,1,0-.66-1.14l-22.06,12.74a.66.66,0,0,0,.66,1.14" style="fill:#0a0b09"/><path id="fae0ae52-c22c-4a5e-8ea2-8d24848d8a94" data-name="Fill-198" d="M291,719.74,313.06,707a.66.66,0,0,0-.66-1.14L290.34,718.6a.66.66,0,0,0,.66,1.14" style="fill:#0a0b09"/><path id="73da645f-1f6c-43a8-96eb-66bbd8658bca" data-name="Fill-199" d="M324.75,612.12V637.6a.66.66,0,1,0,1.31,0V612.12a.66.66,0,0,0-1.31,0" style="fill:#0a0b09"/><path id="7fd8a121-44aa-4143-b467-d0ce64d22605" data-name="Fill-200" d="M346.82,599.39v25.48a.66.66,0,1,0,1.31,0V599.39a.66.66,0,0,0-1.31,0" style="fill:#0a0b09"/><path id="24ee0959-1cf1-4aa8-8002-0cad43655fe9" data-name="Fill-201" d="M302.69,610.46v3.27a.66.66,0,1,0,1.31,0v-3.27a.66.66,0,1,0-1.31,0" style="fill:#0a0b09"/><path id="bca5831f-7577-444f-b09d-7ed54cc33951" data-name="Fill-202" d="M312.4,605.37l12.68,7.32a.66.66,0,0,0,.66-1.14l-12.68-7.32a.66.66,0,1,0-.66,1.14" style="fill:#0a0b09"/><path id="f195aec5-fcdd-4ff7-918e-44876e059de3" data-name="Fill-203" d="M334.92,592.89,347.14,600a.66.66,0,0,0,.65-1.14l-12.23-7.06a.66.66,0,0,0-.66,1.14" style="fill:#0a0b09"/><path id="7228dba0-b4d3-4999-af62-f89c39f59292" data-name="Fill-204" d="M312.4,630.85l12.68,7.32a.66.66,0,1,0,.66-1.14l-12.68-7.32a.66.66,0,0,0-.66,1.14" style="fill:#0a0b09"/><path id="70612caa-44ba-4ff4-8a8f-f735cbbd8563" data-name="Fill-205" d="M325.73,612.69,347.8,600a.66.66,0,0,0-.65-1.14l-22.06,12.74a.66.66,0,0,0,.66,1.14" style="fill:#0a0b09"/><path id="ad8a873e-3bfd-47d3-97cb-8f97011074c8" data-name="Fill-206" d="M313.06,594.53l2.83-1.63a.66.66,0,0,0-.66-1.14l-2.83,1.63a.66.66,0,1,0,.66,1.14" style="fill:#0a0b09"/><path id="c2d26237-c16d-4357-8549-de42f83c3e13" data-name="Fill-207" d="M325.73,638.17l22.06-12.74a.66.66,0,0,0-.65-1.14L325.08,637a.66.66,0,1,0,.66,1.14" style="fill:#0a0b09"/><path id="7ed86542-4a75-4842-8603-180efad32c59" data-name="Fill-208" d="M255.28,612.12V637.6a.66.66,0,1,0,1.31,0V612.12a.66.66,0,0,0-1.31,0" style="fill:#0a0b09"/><path id="06445207-fd9c-4b90-b993-b934d3958bd5" data-name="Fill-209" d="M277.34,610.46v3.27a.66.66,0,1,0,1.31,0v-3.27a.66.66,0,1,0-1.31,0" style="fill:#0a0b09"/><path id="10e43991-8511-4c43-afaa-eb367a2d18f5" data-name="Fill-210" d="M233.22,599.39v25.48a.66.66,0,1,0,1.31,0V599.39a.66.66,0,0,0-1.31,0" style="fill:#0a0b09"/><path id="76388097-19d3-42ec-887d-b29b6388d79e" data-name="Fill-211" d="M233.54,600l22.06,12.74a.66.66,0,0,0,.65-1.14L234.2,598.82a.66.66,0,1,0-.66,1.14" style="fill:#0a0b09"/><path id="572073f0-278b-49da-a5bb-481618b2acd2" data-name="Fill-212" d="M265.45,592.9l2.83,1.63a.66.66,0,0,0,.66-1.14l-2.83-1.63a.66.66,0,1,0-.66,1.14" style="fill:#0a0b09"/><path id="4a127cdd-a248-47cd-9e6e-3d7265d59344" data-name="Fill-213" d="M233.54,625.43l22.06,12.74a.66.66,0,0,0,.65-1.14L234.2,624.29a.66.66,0,0,0-.66,1.14" style="fill:#0a0b09"/><path id="83852c4e-0631-4a5c-8cdb-00ae4fd6f317" data-name="Fill-214" d="M256.26,612.69l12.67-7.31a.66.66,0,0,0-.65-1.14l-12.67,7.31a.66.66,0,0,0,.65,1.14" style="fill:#0a0b09"/><path id="617721c4-fcf7-42b7-9dc9-8887835633fe" data-name="Fill-215" d="M234.2,600l12.2-7a.66.66,0,1,0-.66-1.14l-12.2,7a.66.66,0,1,0,.66,1.14" style="fill:#0a0b09"/><path id="22f4b98d-2081-438b-9ec2-d7f009243bdf" data-name="Fill-216" d="M256.26,638.17l12.67-7.31a.66.66,0,0,0-.65-1.14L255.61,637a.66.66,0,0,0,.65,1.14" style="fill:#0a0b09"/><path id="1bc0db30-d32e-41de-9b5c-8706da6fb167" data-name="Fill-217" d="M255.28,572.53V598a.66.66,0,1,0,1.31,0V572.53a.66.66,0,1,0-1.31,0" style="fill:#0a0b09"/><path id="7841d2e9-ab2b-41e5-9f0e-ce90f1056419" data-name="Fill-218" d="M277.34,559.8v14.35a.66.66,0,1,0,1.31,0V559.8a.66.66,0,0,0-1.31,0" style="fill:#0a0b09"/><path id="e688bcb8-03e7-40bd-a2c4-0b566e2f55c1" data-name="Fill-219" d="M233.22,559.8v25.48a.66.66,0,0,0,1.31,0V559.8a.66.66,0,0,0-1.31,0" style="fill:#0a0b09"/><path id="e7a35645-64e1-42f1-b8a4-8b676147e65c" data-name="Fill-220" d="M233.54,560.36l22.06,12.74a.66.66,0,0,0,.65-1.14L234.2,559.23a.66.66,0,0,0-.66,1.14" style="fill:#0a0b09"/><path id="d165d540-c072-4b23-be3c-c13af5603883" data-name="Fill-221" d="M255.71,547.56l22,12.68a.66.66,0,1,0,.65-1.14l-22-12.68a.66.66,0,0,0-.65,1.14" style="fill:#0a0b09"/><path id="2252c24b-1a93-4d02-a4e4-702803bd0235" data-name="Fill-222" d="M233.54,585.84l22.06,12.74a.66.66,0,0,0,.66-1.14L234.2,584.7a.66.66,0,0,0-.66,1.14" style="fill:#0a0b09"/><path id="55a31689-42e7-45a7-9d29-29ad11d5c3db" data-name="Fill-223" d="M256.26,573.1l22.06-12.74a.66.66,0,1,0-.65-1.14L255.61,572a.66.66,0,0,0,.65,1.14" style="fill:#0a0b09"/><path id="6e4e9ed1-5f36-4e14-b431-4d6124592bd7" data-name="Fill-224" d="M234.2,560.36l22.17-12.8a.66.66,0,0,0-.66-1.14l-22.17,12.8a.66.66,0,1,0,.66,1.14" style="fill:#0a0b09"/><path id="0bf184de-79e4-4e2a-a453-0207247c5024" data-name="Fill-225" d="M256.26,598.58l12.67-7.32a.66.66,0,0,0-.66-1.14l-12.67,7.32a.66.66,0,0,0,.66,1.14" style="fill:#0a0b09"/><path id="38f35ed3-f041-4bef-9653-2ab11241c45c" data-name="Fill-226" d="M324.75,572.53V598a.66.66,0,0,0,1.31,0V572.53a.66.66,0,1,0-1.31,0" style="fill:#0a0b09"/><path id="c25310ec-1a2f-4af8-93b7-f9acf93680a5" data-name="Fill-227" d="M346.82,559.8v25.48a.66.66,0,0,0,1.31,0V559.8a.66.66,0,0,0-1.31,0" style="fill:#0a0b09"/><path id="679315c1-abf0-43a5-8e65-f59b05ad0b87" data-name="Fill-228" d="M302.69,559.8v14.35a.66.66,0,1,0,1.31,0V559.8a.66.66,0,0,0-1.31,0" style="fill:#0a0b09"/><path id="61763fc3-272b-4e2f-9d80-0d84dd963a78" data-name="Fill-229" d="M303,560.36l22.06,12.74a.66.66,0,0,0,.66-1.14l-22.06-12.74a.66.66,0,1,0-.66,1.14" style="fill:#0a0b09"/><path id="3569b043-9181-4db2-91f8-8f50bc095838" data-name="Fill-230" d="M325,547.56l22.17,12.8a.66.66,0,0,0,.65-1.14l-22.17-12.8a.66.66,0,1,0-.66,1.14" style="fill:#0a0b09"/><path id="3e39c052-fed2-415a-a0cd-f3de1120af08" data-name="Fill-231" d="M312.41,591.26l12.67,7.32a.66.66,0,1,0,.66-1.14l-12.67-7.32a.66.66,0,1,0-.66,1.14" style="fill:#0a0b09"/><path id="3b1a7a29-251c-4f2e-8898-b31025eb07d8" data-name="Fill-232" d="M325.73,573.1l22.06-12.74a.66.66,0,0,0-.65-1.14L325.08,572a.66.66,0,1,0,.66,1.14" style="fill:#0a0b09"/><path id="f43c4c7a-50e1-4c24-a095-f1198fa73d5d" data-name="Fill-233" d="M303.67,560.24l22-12.68a.66.66,0,1,0-.66-1.14l-22,12.68a.66.66,0,1,0,.66,1.14" style="fill:#0a0b09"/><path id="ec146243-9b5d-4ac6-9fbe-ee68588b9ac0" data-name="Fill-234" d="M325.73,598.58l22.06-12.74a.66.66,0,0,0-.66-1.14l-22.06,12.74a.66.66,0,1,0,.66,1.14" style="fill:#0a0b09"/><path id="75ae3578-3b74-4ad2-8121-6cd428c32c12" data-name="Fill-235" d="M290,631.89v25.48a.66.66,0,1,0,1.31,0V631.89a.66.66,0,0,0-1.31,0" style="fill:#0a0b09"/><path id="7002ec91-251f-466a-bc49-4e3762452b64" data-name="Fill-236" d="M312.08,619.15v25.48a.66.66,0,1,0,1.31,0V619.15a.66.66,0,1,0-1.31,0" style="fill:#0a0b09"/><path id="293f78bb-79c8-4145-a219-35025a5be56e" data-name="Fill-237" d="M268,619.15v25.48a.66.66,0,1,0,1.31,0V619.15a.66.66,0,0,0-1.31,0" style="fill:#0a0b09"/><path id="e9766d38-f913-465f-9f42-7e4fe6df0acf" data-name="Fill-238" d="M268.28,619.72l22.06,12.74a.66.66,0,0,0,.66-1.14l-22.06-12.74a.66.66,0,0,0-.65,1.14" style="fill:#0a0b09"/><path id="53610d89-4884-4a1f-94ee-a8ffa04ad0d6" data-name="Fill-239" d="M300.18,612.66l12.23,7.06a.66.66,0,1,0,.66-1.14l-12.22-7.06a.66.66,0,0,0-.66,1.14" style="fill:#0a0b09"/><path id="2cf43f15-e9c8-44aa-a414-234b0857f035" data-name="Fill-240" d="M268.28,645.2l22.06,12.74a.66.66,0,1,0,.66-1.14l-22.06-12.74a.66.66,0,0,0-.65,1.14" style="fill:#0a0b09"/><path id="c8a472b1-4e86-456c-b1ed-d31facf72dd0" data-name="Fill-241" d="M291,632.46l22.06-12.74a.66.66,0,1,0-.66-1.14l-22.06,12.74a.66.66,0,0,0,.66,1.14" style="fill:#0a0b09"/><path id="f563187d-88f3-4c86-8f16-8580d58e5cf4" data-name="Fill-242" d="M268.93,619.72l12.22-7.06a.66.66,0,0,0-.66-1.14l-12.22,7.06a.66.66,0,0,0,.65,1.14" style="fill:#0a0b09"/><path id="9aa6f814-1bf0-48cd-a97e-4391c81b42fe" data-name="Fill-243" d="M291,657.94l22.06-12.74a.66.66,0,1,0-.66-1.14L290.34,656.8a.66.66,0,1,0,.66,1.14" style="fill:#0a0b09"/><path id="ad34313b-9413-4eaf-a8d6-adc7725e25d4" data-name="Fill-244" d="M290,592.3v25.48a.66.66,0,1,0,1.31,0V592.3a.66.66,0,1,0-1.31,0" style="fill:#0a0b09"/><path id="6c3f325b-f53e-4f72-a616-a781577f65b2" data-name="Fill-245" d="M312.08,579.56V605a.66.66,0,1,0,1.31,0V579.56a.66.66,0,0,0-1.31,0" style="fill:#0a0b09"/><path id="524889b4-1b7d-45b7-ac23-d55a03563807" data-name="Fill-246" d="M268,579.56V605a.66.66,0,0,0,1.31,0V579.56a.66.66,0,0,0-1.31,0" style="fill:#0a0b09"/><path id="03639b6c-58a4-4027-9e29-1a27404e0239" data-name="Fill-247" d="M268.28,580.13l22.06,12.74a.66.66,0,0,0,.66-1.14L268.93,579a.66.66,0,0,0-.65,1.14" style="fill:#0a0b09"/><path id="42c08009-bff4-4a9f-885f-1b291c2e60f2" data-name="Fill-248" d="M290.34,567.39l22.06,12.74a.66.66,0,1,0,.66-1.14L291,566.26a.66.66,0,0,0-.65,1.14" style="fill:#0a0b09"/><path id="d329b628-3283-4671-8f48-74c7bbefb4e7" data-name="Fill-249" d="M268.28,605.61l22.06,12.74a.66.66,0,0,0,.66-1.14l-22.06-12.74a.66.66,0,0,0-.65,1.14" style="fill:#0a0b09"/><path id="f5ae3769-ec1c-4328-885f-e26d541e4957" data-name="Fill-250" d="M291,592.87l22.06-12.74a.66.66,0,1,0-.66-1.14l-22.06,12.74a.66.66,0,0,0,.66,1.14" style="fill:#0a0b09"/><path id="1675080d-580d-4738-8379-899ab56eeb05" data-name="Fill-251" d="M268.93,580.13,291,567.39a.66.66,0,1,0-.65-1.14L268.28,579a.66.66,0,0,0,.65,1.14" style="fill:#0a0b09"/><path id="0edbc5c7-7406-4018-9a9b-648806672f89" data-name="Fill-252" d="M291,618.35l22.06-12.74a.66.66,0,1,0-.66-1.14l-22.06,12.74a.66.66,0,0,0,.66,1.14" style="fill:#0a0b09"/></g><g id="ffda3a9a-b845-451c-acbc-516d1a34edbd" data-name="Static Mid" style="opacity:0.800000011920929"><path id="ad5a7fbd-81c4-48e4-a5ea-528741e4dd40" data-name="Fill-253" d="M378.49,436.46v64.89a.66.66,0,0,0,1.31,0V436.46a.66.66,0,1,0-1.31,0" style="fill:#4a4a4a"/><path id="859a5995-891c-4b62-91b8-a113472a8dc1" data-name="Fill-254" d="M434.68,404V468.9a.66.66,0,1,0,1.31,0V404a.66.66,0,1,0-1.31,0" style="fill:#4a4a4a"/><path id="7449ab88-47dd-4ed2-b0ef-da62663ecc0f" data-name="Fill-255" d="M322.29,432.23v8.32a.66.66,0,0,0,1.31,0v-8.32a.66.66,0,0,0-1.31,0" style="fill:#4a4a4a"/><path id="0a9ef633-a7a6-4aac-a079-2992ee18c7e8" data-name="Fill-256" d="M346.53,418.39,378.81,437a.66.66,0,0,0,.65-1.14l-32.28-18.64a.66.66,0,1,0-.66,1.14" style="fill:#4a4a4a"/><path id="cd2deda1-c5a5-4898-b966-e0a24fd764b5" data-name="Fill-257" d="M403.87,386.6l31.14,18a.66.66,0,0,0,.66-1.14l-31.14-18a.66.66,0,1,0-.66,1.14" style="fill:#4a4a4a"/><path id="1eecf950-5962-4354-b5cb-d8910521a673" data-name="Fill-258" d="M346.53,483.28l32.28,18.64a.66.66,0,0,0,.65-1.14l-32.28-18.64a.66.66,0,1,0-.66,1.14" style="fill:#4a4a4a"/><path id="a844ce1b-9a92-44e5-bd22-56e5ba25f3ad" data-name="Fill-259" d="M379.47,437l56.19-32.44a.66.66,0,0,0-.66-1.14l-56.19,32.44a.66.66,0,1,0,.66,1.14" style="fill:#4a4a4a"/><path id="0924d213-8784-4a69-a561-a3e681bad8a4" data-name="Fill-260" d="M347.2,390.77l7.2-4.16a.66.66,0,0,0-.66-1.14l-7.2,4.16a.66.66,0,0,0,.66,1.14" style="fill:#4a4a4a"/><path id="390efe46-ee85-4039-98f3-39f711242205" data-name="Fill-261" d="M379.47,501.91l56.19-32.44a.66.66,0,0,0-.66-1.14l-56.19,32.44a.66.66,0,1,0,.66,1.14" style="fill:#4a4a4a"/><path id="5c942669-0973-4d54-9a03-aa7268570c94" data-name="Fill-262" d="M201.55,436.46v64.89a.66.66,0,1,0,1.31,0V436.46a.66.66,0,1,0-1.31,0" style="fill:#4a4a4a"/><path id="44e3c982-b8a7-4254-a34b-7a4f8d04f1ff" data-name="Fill-263" d="M257.74,432.23v8.32a.66.66,0,0,0,1.31,0v-8.32a.66.66,0,1,0-1.31,0" style="fill:#4a4a4a"/><path id="d7982513-e62f-49ae-be4c-292e846c5aca" data-name="Fill-264" d="M145.35,404V468.9a.66.66,0,1,0,1.31,0V404a.66.66,0,1,0-1.31,0" style="fill:#4a4a4a"/><path id="31567ac1-64d6-44ae-a761-bd762774e784" data-name="Fill-265" d="M145.68,404.58,201.87,437a.66.66,0,0,0,.66-1.14l-56.19-32.44a.66.66,0,0,0-.66,1.14" style="fill:#4a4a4a"/><path id="5d932e3b-36f0-4c70-a8e9-a2d7a99e66ba" data-name="Fill-266" d="M226.94,386.61l7.2,4.16a.66.66,0,1,0,.66-1.14l-7.2-4.16a.66.66,0,0,0-.66,1.14" style="fill:#4a4a4a"/><path id="bff65fce-e2e4-41c0-9e83-8804788fdecf" data-name="Fill-267" d="M145.68,469.47l56.19,32.44a.66.66,0,0,0,.66-1.14l-56.19-32.44a.66.66,0,0,0-.66,1.14" style="fill:#4a4a4a"/><path id="b0d253f1-012f-4339-9b5e-a3fec0f23dac" data-name="Fill-268" d="M202.53,437,234.8,418.4a.66.66,0,0,0-.66-1.14l-32.27,18.63a.66.66,0,1,0,.66,1.14" style="fill:#4a4a4a"/><path id="e913eb02-747c-414d-88cf-af46e9ac6c6c" data-name="Fill-269" d="M146.34,404.58l31.07-17.94a.66.66,0,0,0-.66-1.14l-31.07,17.94a.66.66,0,0,0,.66,1.14" style="fill:#4a4a4a"/><path id="6f520b04-85a6-4ba4-890c-e5aedc2108b2" data-name="Fill-270" d="M202.53,501.91l32.27-18.63a.66.66,0,0,0-.66-1.14l-32.27,18.63a.66.66,0,0,0,.66,1.14" style="fill:#4a4a4a"/><path id="d81a0d46-1947-4fca-9919-a4d75bc8653f" data-name="Fill-271" d="M201.55,335.63v64.89a.66.66,0,1,0,1.31,0V335.63a.66.66,0,1,0-1.31,0" style="fill:#4a4a4a"/><path id="59662202-d275-4e11-b91d-cc6ca2035fb8" data-name="Fill-272" d="M257.74,331.53v8.19a.66.66,0,1,0,1.31,0v-8.19a.66.66,0,1,0-1.31,0" style="fill:#4a4a4a"/><path id="dfc754af-e499-449a-a150-8c7e9d1da4b2" data-name="Fill-273" d="M145.35,303.18v64.89a.66.66,0,1,0,1.31,0V303.18a.66.66,0,0,0-1.31,0" style="fill:#4a4a4a"/><path id="92ccbf1f-2ff1-4fc5-8a87-b273dc3dc27f" data-name="Fill-274" d="M145.68,303.75l56.19,32.44a.66.66,0,0,0,.66-1.14l-56.19-32.44a.66.66,0,0,0-.66,1.14" style="fill:#4a4a4a"/><path id="026752bb-3e93-4be4-9eb9-72f7310b419a" data-name="Fill-275" d="M145.68,368.64l56.19,32.44a.66.66,0,0,0,.66-1.14L146.34,367.5a.66.66,0,0,0-.66,1.14" style="fill:#4a4a4a"/><path id="5d0f6e0e-ebe1-4b4c-a78f-177d3dfa0472" data-name="Fill-276" d="M202.53,336.19l31.64-18.27a.66.66,0,0,0-.66-1.14l-31.64,18.27a.66.66,0,1,0,.66,1.14" style="fill:#4a4a4a"/><path id="9660e053-bff9-4488-9f99-861952938c4f" data-name="Fill-277" d="M146.34,303.75,178,285.48a.66.66,0,0,0-.66-1.14l-31.64,18.27a.66.66,0,0,0,.66,1.14" style="fill:#4a4a4a"/><path id="5ec9b9aa-f474-422f-8060-3482d1e92712" data-name="Fill-278" d="M202.53,401.08l32.27-18.63a.66.66,0,1,0-.65-1.14l-32.28,18.63a.66.66,0,1,0,.66,1.14" style="fill:#4a4a4a"/><path id="f65feccc-6237-454a-b82b-77567ed8ddc3" data-name="Fill-279" d="M378.49,335.63v64.89a.66.66,0,1,0,1.31,0V335.63a.66.66,0,1,0-1.31,0" style="fill:#4a4a4a"/><path id="86ecd3f9-2283-4274-a4d8-53b4a2a41eac" data-name="Fill-280" d="M434.68,303.18v64.89a.66.66,0,1,0,1.31,0V303.18a.66.66,0,1,0-1.31,0" style="fill:#4a4a4a"/><path id="a3ad96ea-ea3c-4620-9808-1c68219d48fe" data-name="Fill-281" d="M322.29,331.53v8.19a.66.66,0,0,0,1.31,0v-8.19a.66.66,0,0,0-1.31,0" style="fill:#4a4a4a"/><path id="943c700a-fa08-4cd6-b909-afb2dc20ef75" data-name="Fill-282" d="M347.16,317.92l31.65,18.27a.66.66,0,0,0,.65-1.14l-31.65-18.27a.66.66,0,0,0-.65,1.14" style="fill:#4a4a4a"/><path id="80dcbea1-cd5f-4ac3-8013-7c5e46c36b10" data-name="Fill-283" d="M403.37,285.49,435,303.75a.66.66,0,0,0,.66-1.14L404,284.35a.66.66,0,0,0-.66,1.14" style="fill:#4a4a4a"/><path id="e3ec0b93-bb8a-468b-9ada-ee8d2b6692fd" data-name="Fill-284" d="M346.54,382.45l32.27,18.63a.66.66,0,0,0,.65-1.14L347.2,381.31a.66.66,0,0,0-.66,1.14" style="fill:#4a4a4a"/><path id="5ce3ae1a-bb15-4ae7-bf01-f97972c437d5" data-name="Fill-285" d="M379.47,336.19l56.19-32.44a.66.66,0,0,0-.66-1.14l-56.19,32.44a.66.66,0,1,0,.66,1.14" style="fill:#4a4a4a"/><path id="0d39dbd9-ea70-43a5-b301-2733a2bd732b" data-name="Fill-286" d="M379.47,401.08l56.19-32.44a.66.66,0,0,0-.66-1.14l-56.19,32.44a.66.66,0,1,0,.66,1.14" style="fill:#4a4a4a"/><path id="49e537d2-088f-44bf-8dcb-f5feff6ca6c5" data-name="Fill-287" d="M290,486.81v64.89a.66.66,0,0,0,1.31,0V486.81a.66.66,0,0,0-1.31,0" style="fill:#4a4a4a"/><path id="d1e67a05-6420-4583-abf1-172cdeb658af" data-name="Fill-288" d="M346.21,454.36v64.89a.66.66,0,0,0,1.31,0V454.36a.66.66,0,0,0-1.31,0" style="fill:#4a4a4a"/><path id="461c1248-0a24-408f-9613-f236595d9e24" data-name="Fill-289" d="M233.82,454.36v64.89a.66.66,0,0,0,1.31,0V454.36a.66.66,0,0,0-1.31,0" style="fill:#4a4a4a"/><path id="83c085d1-1e24-4949-a628-3fee5b20bca6" data-name="Fill-290" d="M234.15,454.93l56.2,32.44a.66.66,0,0,0,.66-1.14l-56.2-32.44a.66.66,0,0,0-.66,1.14" style="fill:#4a4a4a"/><path id="e9d4fc65-653d-4bb2-b7d0-e5df8e01848d" data-name="Fill-291" d="M315.4,437l31.14,18a.66.66,0,0,0,.66-1.14l-31.14-18a.66.66,0,0,0-.65,1.14" style="fill:#4a4a4a"/><path id="00431ae1-c739-4d90-b9d7-b6c17ebf458f" data-name="Fill-292" d="M234.15,519.82l56.2,32.44a.66.66,0,0,0,.66-1.14l-56.2-32.44a.66.66,0,0,0-.66,1.14" style="fill:#4a4a4a"/><path id="58273fa4-38c3-47b0-845d-f91591c7d26f" data-name="Fill-293" d="M291,487.37l56.19-32.44a.66.66,0,0,0-.66-1.14l-56.2,32.44a.66.66,0,1,0,.66,1.14" style="fill:#4a4a4a"/><path id="7e58a34c-7479-4ef2-9403-ddb0f6dd814f" data-name="Fill-294" d="M234.8,454.93l31.13-18a.66.66,0,0,0-.66-1.14l-31.13,18a.66.66,0,0,0,.65,1.14" style="fill:#4a4a4a"/><path id="906697ce-5b5b-4775-bee5-c510a6c408c5" data-name="Fill-295" d="M291,552.26l56.19-32.44a.66.66,0,0,0-.66-1.14l-56.2,32.44a.66.66,0,1,0,.66,1.14" style="fill:#4a4a4a"/><path id="eaacecb0-ac63-4eef-89ae-50bbba8b1f94" data-name="Fill-296" d="M290,386v64.89a.66.66,0,0,0,1.31,0V386a.66.66,0,1,0-1.31,0" style="fill:#4a4a4a"/><path id="f2a9dbbc-6067-405a-92a3-23da4060543a" data-name="Fill-297" d="M346.21,353.53v64.89a.66.66,0,1,0,1.31,0V353.53a.66.66,0,0,0-1.31,0" style="fill:#4a4a4a"/><path id="eccb4021-1bcf-490b-9057-23ed815b36a1" data-name="Fill-298" d="M233.82,353.53v64.89a.66.66,0,1,0,1.31,0V353.53a.66.66,0,0,0-1.31,0" style="fill:#4a4a4a"/><path id="b79e8709-033e-41e6-a28a-50592715c587" data-name="Fill-299" d="M234.15,354.1l56.2,32.44a.66.66,0,0,0,.66-1.14L234.8,353a.66.66,0,0,0-.66,1.14" style="fill:#4a4a4a"/><path id="de74f152-1154-499f-9cb7-67bf76fcef58" data-name="Fill-300" d="M315.52,336.19l31,17.91a.66.66,0,0,0,.66-1.14l-31-17.91a.66.66,0,0,0-.65,1.14" style="fill:#4a4a4a"/><path id="9feeaeb4-c2f9-45de-ac59-51ea55d4ef9e" data-name="Fill-301" d="M234.15,419l56.2,32.44a.66.66,0,0,0,.66-1.14l-56.2-32.44a.66.66,0,0,0-.66,1.14" style="fill:#4a4a4a"/><path id="5fac6143-c017-4911-86b6-f5227cfad8b4" data-name="Fill-302" d="M291,386.54l56.19-32.44a.66.66,0,0,0-.66-1.14l-56.2,32.44a.66.66,0,1,0,.66,1.14" style="fill:#4a4a4a"/><path id="5da89c78-3264-41b6-8fd4-c80a43988bc1" data-name="Fill-303" d="M234.8,354.1l31-17.9a.66.66,0,0,0-.66-1.14l-31,17.9a.66.66,0,0,0,.65,1.14" style="fill:#4a4a4a"/><path id="a2007fda-9bab-427f-afb2-8c525750d94a" data-name="Fill-304" d="M291,451.43,347.19,419a.66.66,0,0,0-.66-1.14l-56.2,32.44a.66.66,0,1,0,.66,1.14" style="fill:#4a4a4a"/></g><g id="c023017e-1c3d-4b49-b7a2-f06944527a4d" data-name="Static Top"><polygon id="586a60f9-1119-4631-93ad-9393bd58d571" data-name="Path-4071" points="131.72 92.37 290.93 0.65 449.95 92.37 449.16 274.63 290.93 367.62 131.99 275.84 131.72 92.37" style="fill:#fff;opacity:0.8500000238418579;isolation:isolate"/><polyline id="b659c162-ab24-45c6-bedb-460440f52758" data-name="Fill-294" points="131.42 92.4 131.42 276.06 290.81 368.08 450.19 276.06 450.19 92.02 290.81 0 131.42 92.02 131.42 92.4 132.74 92.78 290.81 1.52 448.87 92.78 448.87 275.3 290.81 366.56 132.73 275.3 132.73 92.78" style="fill:#ff671b"/><path id="7fc46f75-6b11-4bbc-8d95-7da5a6580548" data-name="Fill-53" d="M290.15,183.79v167a.66.66,0,0,0,1.31,0v-167a.66.66,0,1,0-1.31,0" style="fill:#ff671b;opacity:0.6000000238418579;isolation:isolate"/><path id="9efab7b9-0aba-42a3-a7e1-2418377d43be" data-name="Fill-54" d="M434.81,100.27v167a.66.66,0,1,0,1.31,0v-167a.66.66,0,1,0-1.31,0" style="fill:#ff671b;opacity:0.6000000238418579;isolation:isolate"/><path id="a6bb2107-4d8f-42ff-bdc3-0af55c89b128" data-name="Fill-55" d="M145.49,100.27v167a.66.66,0,0,0,1.31,0v-167a.66.66,0,1,0-1.31,0" style="fill:#ff671b;opacity:0.6000000238418579;isolation:isolate"/><path id="002886fb-af68-4bbc-9b56-32f29b033d88" data-name="Fill-56" d="M145.81,100.84l144.66,83.52a.66.66,0,0,0,.66-1.14L146.47,99.7a.66.66,0,0,0-.66,1.14" style="fill:#ff671b;opacity:0.6000000238418579;isolation:isolate"/><path id="12fd559f-7f31-448d-bf6f-b72e8ed8d006" data-name="Fill-57" d="M290.48,17.31l144.66,83.52a.66.66,0,1,0,.66-1.14L291.13,16.18a.66.66,0,1,0-.66,1.14" style="fill:#ff671b;opacity:0.6000000238418579;isolation:isolate"/><path id="5513564d-8a6c-427c-bc1c-ad1d3d112a7b" data-name="Fill-58" d="M145.81,267.88,290.48,351.4a.66.66,0,0,0,.66-1.14L146.47,266.74a.66.66,0,0,0-.66,1.14" style="fill:#ff671b;opacity:0.6000000238418579;isolation:isolate"/><path id="b4a6b600-9649-48e8-a1f7-5387cd41dd5a" data-name="Fill-59" d="M291.13,184.36,435.8,100.84a.66.66,0,1,0-.66-1.14L290.48,183.22a.66.66,0,1,0,.66,1.14" style="fill:#ff671b;opacity:0.6000000238418579;isolation:isolate"/><path id="aee00171-97e4-41c2-9852-ab74f9dde357" data-name="Fill-60" d="M146.47,100.84,291.13,17.31a.66.66,0,0,0-.66-1.14L145.81,99.7a.66.66,0,0,0,.66,1.14" style="fill:#ff671b;opacity:0.6000000238418579;isolation:isolate"/><path id="cfb64476-b986-490c-88ac-1e6de576549f" data-name="Fill-61" d="M291.13,351.4,435.8,267.88a.66.66,0,1,0-.66-1.14L290.48,350.27a.66.66,0,1,0,.66,1.14" style="fill:#ff671b;opacity:0.6000000238418579;isolation:isolate"/></g></g></g></g></g></g></g></g></g></svg>