<svg xmlns="http://www.w3.org/2000/svg" xmlns:xlink="http://www.w3.org/1999/xlink" width="441.69" height="345.4" viewBox="0 0 441.69 345.4"><defs><clipPath id="124fe5cf-ca7f-4a86-bc28-b25cc26a48d2"><rect x="308.51" y="169.61" width="133" height="6" style="fill:none"/></clipPath><clipPath id="325a77a2-f338-4a8f-9f28-11574071c1e7"><path d="M436,173.16a.6.6,0,1,0,0-1.2H310.07a.6.6,0,1,0,0,1.2Z" style="fill:none;clip-rule:evenodd"/></clipPath><clipPath id="c504fa4b-078b-465f-b124-a0ec158c9973"><rect x="308.51" y="168.61" width="133" height="8" style="fill:none"/></clipPath><clipPath id="dec28b61-99c8-478b-82ea-40126812a455"><path d="M149.66,172.7v167a.66.66,0,0,0,1.31,0v-167a.66.66,0,1,0-1.31,0" style="fill:none;clip-rule:evenodd"/></clipPath><clipPath id="91d5baf8-c1d4-4684-823c-56102ba2faa0"><path d="M294.33,89.18v167a.66.66,0,1,0,1.31,0v-167a.66.66,0,0,0-1.31,0" style="fill:none;clip-rule:evenodd"/></clipPath><clipPath id="12209cf7-f29c-4e3b-a0ab-149c074366ec"><path d="M5,89.18v167a.66.66,0,1,0,1.31,0v-167a.66.66,0,0,0-1.31,0" style="fill:none;clip-rule:evenodd"/></clipPath><clipPath id="5dd5ff29-766a-43ba-a469-70045f35a3f5"><path d="M5.33,89.74,150,173.27a.66.66,0,0,0,.66-1.13L6,88.61a.66.66,0,0,0-.66,1.14" style="fill:none;clip-rule:evenodd"/></clipPath><clipPath id="a074313d-c77e-4e64-adba-a7a6f54b3eee"><path d="M150,6.22,294.65,89.74a.66.66,0,1,0,.66-1.14L150.65,5.09A.66.66,0,1,0,150,6.22" style="fill:none;clip-rule:evenodd"/></clipPath><clipPath id="b2ebfc63-1be2-4ffa-a679-e402104a6bf3"><path d="M150.65,173.27,295.31,89.74a.66.66,0,1,0-.66-1.14L150,172.13a.66.66,0,1,0,.66,1.13" style="fill:none;clip-rule:evenodd"/></clipPath><clipPath id="3a6c18aa-4dcb-4538-a423-63bd00c5332f"><path d="M6,89.74,150.65,6.22A.66.66,0,0,0,150,5.09L5.33,88.61A.66.66,0,0,0,6,89.74" style="fill:none;clip-rule:evenodd"/></clipPath></defs><title>micro-1</title><g id="75835540-9495-43e8-9ee1-1f9f9ca01131" data-name="Слой 2"><g id="899e1182-4aa1-4a7a-8e33-feadad0aac23" data-name="Слой 1"><g style="opacity:0.8500000238418579;isolation:isolate"><g style="clip-path:url(#124fe5cf-ca7f-4a86-bc28-b25cc26a48d2)"><g style="clip-path:url(#325a77a2-f338-4a8f-9f28-11574071c1e7)"><g style="clip-path:url(#c504fa4b-078b-465f-b124-a0ec158c9973)"><rect x="304.39" y="166.97" width="137.3" height="11.2" style="fill:#d9d9d9"/></g></g></g></g><g style="clip-path:url(#dec28b61-99c8-478b-82ea-40126812a455)"><rect x="144.66" y="167.04" width="11.31" height="178.35" style="fill:#4b4b4b"/></g><g style="clip-path:url(#91d5baf8-c1d4-4684-823c-56102ba2faa0)"><rect x="289.33" y="83.52" width="11.31" height="178.35" style="fill:#4b4b4b"/></g><g style="clip-path:url(#12209cf7-f29c-4e3b-a0ab-149c074366ec)"><rect y="83.52" width="11.31" height="178.35" style="fill:#4b4b4b"/></g><g style="clip-path:url(#5dd5ff29-766a-43ba-a469-70045f35a3f5)"><rect y="83.52" width="155.97" height="94.83" style="fill:#4b4b4b"/></g><g style="clip-path:url(#a074313d-c77e-4e64-adba-a7a6f54b3eee)"><rect x="144.66" width="155.98" height="94.83" style="fill:#4b4b4b"/></g><g style="clip-path:url(#b2ebfc63-1be2-4ffa-a679-e402104a6bf3)"><rect x="144.66" y="83.52" width="155.98" height="94.83" style="fill:#4b4b4b"/></g><g style="clip-path:url(#3a6c18aa-4dcb-4538-a423-63bd00c5332f)"><rect width="155.97" height="94.83" style="fill:#4b4b4b"/></g></g></g></svg>