<svg xmlns="http://www.w3.org/2000/svg" xmlns:xlink="http://www.w3.org/1999/xlink" width="455.36" height="394.73" viewBox="0 0 455.36 394.73"><defs><clipPath id="646fe9b9-34a7-4e06-98c3-c96ef58bfcf0"><rect x="0.17" y="205.57" width="133" height="6" style="fill:none"/></clipPath><clipPath id="a2903949-eab0-4eaf-9449-dfb8493da5d7"><path d="M5.69,208a.6.6,0,1,0,0,1.2H131.62a.6.6,0,1,0,0-1.2Z" style="fill:none;clip-rule:evenodd"/></clipPath><clipPath id="82fd4990-3712-417a-a0ca-d947a518eed1"><rect x="0.17" y="205.57" width="134" height="6" style="fill:none"/></clipPath><clipPath id="ee9d3b86-5ca3-4eaa-90d0-6abe2d7c91e8"><path d="M290.32,5.66v167a.66.66,0,0,0,1.31,0V5.66a.66.66,0,1,0-1.31,0" style="fill:none;clip-rule:evenodd"/></clipPath><clipPath id="1c069744-5494-47a0-a7b5-80ce9a6b4c3a"><path d="M146,89.75l144.66,83.52a.66.66,0,0,0,.66-1.14L146.64,88.61a.66.66,0,0,0-.66,1.14" style="fill:none;clip-rule:evenodd"/></clipPath><clipPath id="337922aa-39e3-4d3e-a592-59113ba8f2f2"><path d="M291.31,173.27,436,89.75a.66.66,0,1,0-.66-1.14L290.65,172.13a.66.66,0,1,0,.66,1.14" style="fill:none;clip-rule:evenodd"/></clipPath><clipPath id="0f3266e6-228c-4d49-8c58-41ca3a8e6cff"><polygon points="131.9 114.03 291.1 22.3 450.12 114.03 449.33 296.28 291.1 389.28 132.16 297.5 131.9 114.03" style="fill:none;clip-rule:evenodd"/></clipPath><clipPath id="9c5dffe5-b81b-42f2-a4fc-da83c837c394"><polygon points="132.01 113.92 291.22 22.2 450.24 113.92 449.45 296.18 291.22 389.17 132.28 297.39 132.01 113.92" style="fill:none;clip-rule:evenodd"/></clipPath><clipPath id="3b8544bd-12d1-451b-93f2-3e374b4f050a"><polyline points="131.6 114.05 131.6 297.71 290.98 389.73 450.36 297.71 450.36 113.67 290.98 21.65 131.6 113.67 131.6 114.05 132.91 114.43 290.98 23.17 449.05 114.43 449.05 296.95 290.98 388.22 132.91 296.95 132.91 114.43" style="fill:none;clip-rule:evenodd"/></clipPath><clipPath id="5fa59e05-fc0b-402a-9139-f7083528d2f5"><path d="M379.48,322.45l-.66-.38V258.7l.31.18.09,0h0a.67.67,0,0,0,.24,0h0a.66.66,0,0,0,.33-.09l.33-.19v63.37l-.66.38" style="fill:none;clip-rule:evenodd"/></clipPath><clipPath id="f8c652e0-7de9-44be-bdc5-e0231796d5ad"><path d="M436,225.31h0m0,0h0m.2,65.84a.66.66,0,0,0-.86-1l-.33.19V227l1-.57a.66.66,0,0,0,.29-.34.61.61,0,0,0,0-.22h0a.66.66,0,0,0,0-.23.7.7,0,0,0-.08-.15.65.65,0,0,1,.13.39v64.89a.65.65,0,0,1-.13.39" style="fill:none;clip-rule:evenodd"/></clipPath><clipPath id="0413da87-6ead-4703-afc7-b3b671323091"><polyline points="323.94 262.04 322.63 261.28 322.63 255.23 323.94 254.47 323.94 262.04" style="fill:none;clip-rule:evenodd"/></clipPath><clipPath id="2f732c3d-3381-40f0-bf84-706822b807fa"><path d="M346.55,239.79a.59.59,0,0,1,0-.21v.21m32.59,19.09-31.45-18.16,0,0h0a.65.65,0,0,0,.14-.41v-1l31.62,18.25-.33.19a.66.66,0,0,0,0,1.13m.09,0h0m.25,0a.67.67,0,0,1-.24,0,.66.66,0,0,0,.25,0h0" style="fill:none;clip-rule:evenodd"/></clipPath><clipPath id="7f41ba66-a627-4a05-8e4e-5c47c35caf69"><path d="M404.12,207.4a.66.66,0,0,1,.2-.11l-.2.11m32,18h0m.17.24,0-.09a.69.69,0,0,0-.12-.15l.08.09h0a.7.7,0,0,1,.08.15m-1.92.24-29.81-17.21,1.31-.76L436,225.31h0a.67.67,0,0,0-.32-.08.65.65,0,0,0-.33.09l-1,.57m2,0h0m0,.22a.65.65,0,0,0,0-.22.61.61,0,0,1,0,.22" style="fill:none;clip-rule:evenodd"/></clipPath><clipPath id="765d5cea-d329-40a1-916c-dc645e012eda"><path d="M379.48,259h0a.66.66,0,0,1-.25,0h0l-.09,0a.66.66,0,0,1,0-1.13l.33-.19,55.87-32.25a.65.65,0,0,1,.33-.09.67.67,0,0,1,.32.08h0l.11.08h0a.69.69,0,0,1,.12.15l0,.09a.66.66,0,0,1,0,.23h0a.65.65,0,0,1,0,.22.66.66,0,0,1-.29.34l-1,.57L380.14,258.7l-.33.19a.66.66,0,0,1-.33.09" style="fill:none;clip-rule:evenodd"/></clipPath><clipPath id="2c8fd515-6bfa-4163-9e1a-a83481b28c79"><path d="M354.77,207.36l-.05,0,.05,0m-6.91,5.09v-1.51l5.24-3,1.31.76-6.55,3.78" style="fill:none;clip-rule:evenodd"/></clipPath><clipPath id="a90cdafe-7682-41a7-95ae-c859c3828a8a"><path d="M202.55,322.45l-.66-.38V258.7l.33.19a.66.66,0,0,0,.33.09h0a.65.65,0,0,0,.25-.05h0l.08,0,.31-.18v63.37l-.66.38" style="fill:none;clip-rule:evenodd"/></clipPath><clipPath id="a5c746ba-703c-46cd-9b11-a9a1fde14939"><path d="M259.08,253.54l0,0,0,0m-1,8.5v-7.57l1.31.76v6.05l-1.31.76" style="fill:none;clip-rule:evenodd"/></clipPath><clipPath id="3e7beba3-eb0d-40c8-b591-5f771c8fbb27"><path d="M145.7,290.75V225.9a.69.69,0,0,0,0,.2.66.66,0,0,0,.29.34l1,.57v63.37l-.33-.19a.65.65,0,0,0-.33-.09.66.66,0,0,0-.66.64" style="fill:none;clip-rule:evenodd"/></clipPath><clipPath id="2391672b-0d36-4bba-8bf7-00a400be7dd1"><path d="M145.91,225.39l.12-.09h0l-.11.08m0,0h0m0,0h0m-.2.47a.66.66,0,0,1,0-.23.67.67,0,0,0,0,.23m0,0h0m0,0h0m57.11,33,.07,0h0l-.08,0m0,0h0m-.25.05a.66.66,0,0,1-.33-.09l-.33-.19L147,227l-1-.57a.66.66,0,0,1-.29-.34l0,.1a.66.66,0,0,0,.9.24l1-.57,54.88,31.69-.33.19a.66.66,0,0,0,.33,1.22h0" style="fill:none;clip-rule:evenodd"/></clipPath><clipPath id="5aa96a60-e96f-4dae-a330-f644fa76f15a"><polyline points="234.16 212.45 227.61 208.66 228.92 207.91 234.16 210.93 234.16 212.45" style="fill:none;clip-rule:evenodd"/></clipPath><clipPath id="1dd3c460-1a6b-405f-9dc2-f0045419abea"><path d="M202.55,259h0a.66.66,0,0,1-.33-1.22l.33-.19,31.62-18.25v1a.67.67,0,0,0,0,.2h0a.66.66,0,0,0,.13.22l-31.13,18-.31.18h0l-.07,0h0a.65.65,0,0,1-.25.05" style="fill:none;clip-rule:evenodd"/></clipPath><clipPath id="62efb119-885b-4f8a-b1c3-27c2bdd3acdb"><path d="M146.35,226.54a.66.66,0,0,1-.57-.33l0-.1a.69.69,0,0,1,0-.2v0h0a.67.67,0,0,1,0-.23.66.66,0,0,1,.16-.24h0l.11-.08h0l30.14-17.4,1.31.76-30.8,17.78a.66.66,0,0,1-.33.09" style="fill:none;clip-rule:evenodd"/></clipPath><clipPath id="b3f2de74-4dc3-4830-9380-e625a1eb6072"><path d="M202.55,221.62l-.66-.38V157.87l.33.19a.65.65,0,0,0,.33.09h0a.62.62,0,0,0,.25-.05h0l.08,0,.31-.18v63.37l-.66.38m-.31,1.33h0m0,0h0m0,0h0m0,0h0m0,0,0,0,0,0m0,0h0m0,0h0m0,0h0m0,0h0m.27,0,.17,0,.1-.05h0a.63.63,0,0,1-.27.09m0,0h0m0,0h0" style="fill:none;clip-rule:evenodd"/></clipPath><clipPath id="21abbc1d-58c0-4124-8680-376d989d9624"><path d="M258.09,161.21v-7.43l.18.1.09.06,1,.6v5.9l-1.31.76m.95,1,.07,0-.07,0" style="fill:none;clip-rule:evenodd"/></clipPath><clipPath id="1d3f7c5d-d893-4510-8903-ec5b269530a7"><path d="M259.31,153l-1.22-.71V126.18l1-.57a.65.65,0,0,0,.26-.86h0a.64.64,0,0,1,.07.3v27.6a.65.65,0,0,1-.09.32" style="fill:none;clip-rule:evenodd"/></clipPath><clipPath id="50a1a09c-7fec-435d-9ac2-dc7a33bcf42b"><path d="M259.31,153l-.3-.17a.64.64,0,0,0-.33-.09.65.65,0,0,0-.51.25.65.65,0,0,1-.08-.32v-.38l1.22.71h0" style="fill:none;clip-rule:evenodd"/></clipPath><clipPath id="c8ea8333-6b27-4037-8227-43621141f32c"><path d="M145.7,189.92V125.07a.66.66,0,0,0,.09.3.67.67,0,0,0,.2.22h0l1,.57v63.37l-.33-.19a.66.66,0,0,0-1,.55" style="fill:none;clip-rule:evenodd"/></clipPath><clipPath id="99ce464f-6379-404c-9c64-4dc1cd2947e2"><path d="M202.8,158.09l.07,0h0l-.08,0m0,0h0m-.25.05a.65.65,0,0,1-.33-.09L147,126.18l-1-.57h0a.66.66,0,0,0,.68,0l1-.57,54.88,31.69-.33.19a.66.66,0,0,0,.33,1.22h0" style="fill:none;clip-rule:evenodd"/></clipPath><clipPath id="b24d9c36-f46c-4af1-95db-8c711fa8a775"><path d="M202.79,223l.08,0h0l-.1.05m-.24,0a.63.63,0,0,1-.19,0h0l0,0h0l-24.74-14.28-1.31-.76L146,190.5a.66.66,0,0,1,.33-1.22.66.66,0,0,1,.33.09l.33.19,54.88,31.69.66.38-.33.19a.66.66,0,0,0,.33,1.22h0" style="fill:none;clip-rule:evenodd"/></clipPath><clipPath id="c4979c19-29ee-4086-a267-c1975696a3d1"><path d="M235.5,139.22l-1.31-.76,24.22-14a.64.64,0,0,1,.33-.09.65.65,0,0,1,.57.33l0,0a.65.65,0,0,1-.26.86l-1,.57-22.58,13" style="fill:none;clip-rule:evenodd"/></clipPath><clipPath id="64d47042-5666-4682-806a-3c1ef14a5cab"><path d="M234.49,139.81h0a.66.66,0,0,0-.33-1.22.66.66,0,0,0-.33.09h0l.34-.19,1.31.76-1,.57h0" style="fill:none;clip-rule:evenodd"/></clipPath><clipPath id="ddc2a3c7-c9b7-4a9c-a8d4-2d19a1fa2853"><path d="M202.55,158.15h0a.66.66,0,0,1-.33-1.22l.33-.19,30.33-17.51,1.31.76-31,17.89-.31.18h0l-.07,0h0a.62.62,0,0,1-.25.05" style="fill:none;clip-rule:evenodd"/></clipPath><clipPath id="30394608-70c6-415f-9c03-d43b7d8235f8"><path d="M234.19,140l-1.31-.76,1-.55h0a.66.66,0,0,1,.33-.09.66.66,0,0,1,.33,1.22h0l-.3.18" style="fill:none;clip-rule:evenodd"/></clipPath><clipPath id="f23cbb4d-6a81-4c83-afc6-8cc18e3bfede"><path d="M202.55,223h0a.66.66,0,0,1-.33-1.22l.33-.19.66-.38,31-17.88v1.51l-5.24,3-1.31.76-24.72,14.27h0l-.08,0-.17,0h-.07" style="fill:none;clip-rule:evenodd"/></clipPath><clipPath id="52a81d4e-0a48-43c7-b8b8-337b71828c23"><path d="M379.48,221.62l-.66-.38V157.87l.31.18.09,0h0a.65.65,0,0,0,.24,0h0a.65.65,0,0,0,.33-.09l.33-.19v63.37l-.66.38m-.3,1.34h0m.16.06-.16-.06.06,0h0l.1,0m0,0h0m.23,0a.66.66,0,0,0,.22-.08h0a.65.65,0,0,1-.23.08m0,0h0m0,0h0" style="fill:none;clip-rule:evenodd"/></clipPath><clipPath id="b20c7ff8-ac56-4788-b802-eb177368cf92"><path d="M436.22,190.31a.66.66,0,0,0-.54-1,.66.66,0,0,0-.33.09l-.33.19V126.18l1-.57a.65.65,0,0,0,.28-.33.63.63,0,0,0,0-.23h0a.63.63,0,0,0,0-.23.66.66,0,0,0-.07-.14.65.65,0,0,1,.11.37v64.89a.65.65,0,0,1-.12.38m0,0h0m-.2.18h0m0,0h0m0,0h0" style="fill:none;clip-rule:evenodd"/></clipPath><clipPath id="414bfd1d-ed68-4367-9ad3-9cc64f427a12"><path d="M323.94,161.21l-1.31-.76v-5.92l1.31-.76v7.43m-1,1-.06,0,.06,0" style="fill:none;clip-rule:evenodd"/></clipPath><clipPath id="8249d4ed-ba97-4858-8fea-04175485f1ea"><path d="M322.63,154.53h0l1.1-.63a.67.67,0,0,0,.21-.19v.08l-1.31.76" style="fill:none;clip-rule:evenodd"/></clipPath><clipPath id="ca89795c-2104-4d41-86cb-bd4c18356148"><path d="M322.63,153V125.06h0a.67.67,0,0,0,0,.18.65.65,0,0,0,.23.32h0l0,0,1,.57v26.08l-.79.45-.08,0-.45.26" style="fill:none;clip-rule:evenodd"/></clipPath><clipPath id="5928907d-d70e-476d-870f-3370f22dc39b"><path d="M323.94,152.95a.65.65,0,0,0-.79-.23l.79-.45v.69" style="fill:none;clip-rule:evenodd"/></clipPath><clipPath id="e9d9351e-ce16-414f-9da3-3f6a32061a84"><path d="M379.14,158.05,347.84,140l1.31-.76,30.33,17.51-.33.19a.66.66,0,0,0-.24.9.65.65,0,0,0,.23.23m.09,0h0m.25,0a.65.65,0,0,1-.24,0,.64.64,0,0,0,.25,0h0" style="fill:none;clip-rule:evenodd"/></clipPath><clipPath id="f99dac99-a66e-4f65-992c-c1ebcfb8cb87"><path d="M347.84,140l-.32-.18a.66.66,0,0,0,.66-1.14l1,.56-1.31.76" style="fill:none;clip-rule:evenodd"/></clipPath><clipPath id="c0360e8a-69a1-4899-b49d-90b72399fcc2"><path d="M346.53,139.22,323,125.62l0,0a.66.66,0,0,0,.69,0l1-.57,23.24,13.42-1.31.76" style="fill:none;clip-rule:evenodd"/></clipPath><clipPath id="d34640b7-5f9a-4527-9d8d-d00008e8d1f2"><path d="M347.83,139.88a.65.65,0,0,1-.31-.08h0l-1-.57,1.31-.76.32.19h0a.66.66,0,0,1-.35,1.21" style="fill:none;clip-rule:evenodd"/></clipPath><clipPath id="65678c8d-77b0-46cd-a9e3-0ed24b6c68ee"><path d="M379.14,222.94l-24.72-14.27-1.31-.76-5.24-3v-1.52l6.85,4,.05,0,24.06,13.89.66.38-.33.19a.66.66,0,0,0-.24.9.64.64,0,0,0,.22.23m.1.05h0m.24,0h-.14l-.1,0a.64.64,0,0,0,.23,0" style="fill:none;clip-rule:evenodd"/></clipPath><clipPath id="4e52bbd6-f49f-4068-bf02-99e03b1fe58e"><path d="M379.48,158.15h0a.64.64,0,0,1-.25,0h0l-.09,0a.65.65,0,0,1-.23-.23.66.66,0,0,1,.24-.9l.33-.19,55.87-32.25a.64.64,0,0,1,.33-.09.65.65,0,0,1,.57.33l0,.09a.63.63,0,0,1,0,.23h0a.64.64,0,0,1,0,.23.65.65,0,0,1-.28.33l-1,.57-54.88,31.69-.33.19a.65.65,0,0,1-.33.09" style="fill:none;clip-rule:evenodd"/></clipPath><clipPath id="3ca2e872-1161-46b9-a4dd-e615c9e30391"><path d="M379.48,223h0a.64.64,0,0,1-.23,0h0l-.06,0h0l0,0a.64.64,0,0,1-.22-.23.66.66,0,0,1,.24-.9l.33-.19.66-.38,24-13.84.2-.11L435,189.56l.33-.19a.66.66,0,0,1,.33-.09.66.66,0,0,1,.54,1h0a.64.64,0,0,1-.19.18h0l-30.14,17.4-1.31.76-24.73,14.28h0a.66.66,0,0,1-.22.08h-.1" style="fill:none;clip-rule:evenodd"/></clipPath><clipPath id="9d6a8163-1527-4217-81cb-6d775674d57f"><path d="M315.65,257.75a.67.67,0,0,1,.2-.12l-.2.12m30.25,18.48L316.08,259l1.31-.76,5.24,3,1.31.76,23.58,13.61h0a.67.67,0,0,0-.31-.08.64.64,0,0,0-.33.09l-1,.57" style="fill:none;clip-rule:evenodd"/></clipPath><clipPath id="777523b7-05e6-48d3-8789-849e6f331861"><path d="M266.31,257.71l-.07,0,.07,0m-31.49,19.17a.66.66,0,0,1-.57-.33.71.71,0,0,1-.06-.14.69.69,0,0,1,0-.17h0a.65.65,0,0,1,0-.25l0-.06h0l.07-.11a.64.64,0,0,1,.18-.15h0L258.09,262l1.31-.76,5.24-3,1.31.76-6.87,4h0l-22.92,13.23-1,.57a.66.66,0,0,1-.33.09" style="fill:none;clip-rule:evenodd"/></clipPath><clipPath id="3826f174-188b-4a7a-89c5-2db7e29b4d55"><path d="M314.89,157.49l-23.22-13.4v-1.51l24.52,14.16-.31.18-.08.05-.91.53" style="fill:none;clip-rule:evenodd"/></clipPath><clipPath id="5c295f7d-7ada-48d0-b8a5-ac462cbedb95"><path d="M291.67,144.09l-.66-.38.32-.18.05,0h0a.65.65,0,0,0,.12-.12h0a.65.65,0,0,0,.15-.41v1.14" style="fill:none;clip-rule:evenodd"/></clipPath><clipPath id="c37d0814-cbc2-4893-8eee-c7e2123b0ed1"><path d="M315.89,158.07h0l-1-.57.91-.53a.67.67,0,0,0,.08,1.1h0" style="fill:none;clip-rule:evenodd"/></clipPath><clipPath id="3dfbbb9b-d4c6-4378-8c37-b11cf03b10c6"><path d="M267.14,157.49l-1-.55,0,0-.31-.18,24.53-14.16v1.51l-23.22,13.4" style="fill:none;clip-rule:evenodd"/></clipPath><clipPath id="0a6dfca0-b3ff-4553-96e4-4b7471a05d44"><path d="M290.36,144.09V143a.66.66,0,0,0,.66.66.66.66,0,0,0,.32-.08l-.32.18-.66.38" style="fill:none;clip-rule:evenodd"/></clipPath><clipPath id="29cb38c1-95ec-440a-8cbd-29161ac84723"><path d="M266.14,156.91l-.08,0-.23-.14h0l.31.18m.76.72a.65.65,0,0,0-.32-.45l-.33-.19-.07-.05,1,.55-.24.14" style="fill:none;clip-rule:evenodd"/></clipPath><clipPath id="88ba00ce-6892-481c-a140-256ff4f51647"><path d="M291,272l-.66-.38V208.22l.33.19a.66.66,0,0,0,.33.09h0a.66.66,0,0,0,.33-.09l.33-.19v63.38L291,272" style="fill:none;clip-rule:evenodd"/></clipPath><clipPath id="9feb2a62-804e-436d-a0ad-3660461bdaa1"><path d="M347.55,174.84l0,0h0l0,0m0,0h0m.12.09h0m0,65.76a.66.66,0,0,0-.84-1l-.33.19V176.53l1-.57h.08a.67.67,0,0,0,.22-.31.69.69,0,0,0,0-.19h0a.64.64,0,0,0,0-.26.64.64,0,0,0-.1-.16h0l0,0a.65.65,0,0,1,.19.46v64.89a.65.65,0,0,1-.14.41m0,0h0m-.12.11h0m-.07,0h0l.06,0-.07,0" style="fill:none;clip-rule:evenodd"/></clipPath><clipPath id="42bab3bd-0b84-4f49-b476-9c8d4f093bf1"><path d="M234.24,175.09h0m0,.09,0-.09,0,.06v0m0,0h0m0,65.07V175.41h0a.62.62,0,0,0,0,.18.64.64,0,0,0,.23.32h.07l1,.57V239.9l-.33-.19a.66.66,0,0,0-.9.24.65.65,0,0,0-.09.31m0,.2h0m0,0h0m0,0h0m0,0h0m0,0h0m0,0h0" style="fill:none;clip-rule:evenodd"/></clipPath><clipPath id="6c765e2a-1e0b-40e4-accb-fdbab3e59729"><path d="M234.31,175a.65.65,0,0,1,.19-.16h0a.68.68,0,0,0-.18.15m-.15.43a.64.64,0,0,1,0-.21h0v0a.65.65,0,0,0,0,.25m0,0h0m0,0h0m.26.5a.64.64,0,0,1-.23-.32.69.69,0,0,0,.06.13.65.65,0,0,0,.17.2m0,0h0m0,0h0m0,0h0m0,0h0m0,0h0M291,208.5a.66.66,0,0,1-.33-.09l-.33-.19-54.88-31.69-1-.57h0a.67.67,0,0,0,.35.1.65.65,0,0,0,.33-.09l1-.57L291,207.08l-.33.19a.66.66,0,0,0,.33,1.22h0" style="fill:none;clip-rule:evenodd"/></clipPath><clipPath id="8dfc16f6-84d6-49b7-a531-d11f1f20f01a"><path d="M345.9,175.4,323,162.17l-.06,0-6.73-3.89,1.31-.76,5.12,3,1.31.76,23.58,13.61h0a.65.65,0,0,0-.64,0l-1,.57m2,0h0m0,0h0m0,.19a.68.68,0,0,0,0-.19.69.69,0,0,1,0,.19m-.22.31h0m0,0h0m0,0h0m0,0h0m0,0h0m0,0h0m0,0h0" style="fill:none;clip-rule:evenodd"/></clipPath><clipPath id="6a789c84-a0ed-4505-975b-29e8e4191606"><path d="M316.2,158.25l-.31-.18h0a.65.65,0,0,1-.33-.57.65.65,0,0,0,.09.32.65.65,0,0,0,.89.24l1-.56h0l-1.31.76" style="fill:none;clip-rule:evenodd"/></clipPath><clipPath id="ef991d94-4c81-47b8-ab47-cfc329600c01"><path d="M290.68,273.29,265.95,259l-1.31-.76-5.24-3-1.31-.76-23.59-13.62a.63.63,0,0,1-.16-.13.66.66,0,0,1-.13-.22h0a.67.67,0,0,1,0-.2.65.65,0,0,1,.09-.31.66.66,0,0,1,.9-.24l.33.19,23.58,13.61,0,0,7.16,4.13.07,0,24,13.88.66.38-.33.19a.66.66,0,0,0,0,1.13" style="fill:none;clip-rule:evenodd"/></clipPath><clipPath id="777346a7-5a41-4326-b9c2-9ca80b9c5d42"><path d="M291,208.5h0a.66.66,0,0,1-.33-1.22l.33-.19,55.87-32.26a.65.65,0,0,1,.64,0l0,0h0l.11.09h0l0,0h0l.06.08,0,.08a.64.64,0,0,1,0,.26h0a.68.68,0,0,1,0,.19.67.67,0,0,1-.22.31h-.08l-1,.57-54.88,31.69-.33.19a.66.66,0,0,1-.33.09" style="fill:none;clip-rule:evenodd"/></clipPath><clipPath id="70733bd0-0d92-490c-8fb7-f06469d33880"><path d="M266.18,156.94l0,0,0,0m-31.36,19.11a.67.67,0,0,1-.35-.1h0a.65.65,0,0,1-.17-.2.69.69,0,0,1-.06-.13.62.62,0,0,1,0-.18h0a.65.65,0,0,1,0-.25l0-.06h0l.07-.11a.68.68,0,0,1,.18-.15h0l23.58-13.61,1.31-.76,5.11-3,1.31.76-6.72,3.88-.07,0-22.9,13.22-1,.57a.65.65,0,0,1-.33.09" style="fill:none;clip-rule:evenodd"/></clipPath><clipPath id="04d2b6b9-c601-4301-9c6b-b62b03be40b9"><path d="M291,273.38h0a.67.67,0,0,1-.27-.06h0l-.06,0a.66.66,0,0,1,0-1.13L291,272l.66-.38,24-13.84.2-.12,30.71-17.73.33-.19a.66.66,0,0,1,.84,1h0l0,0-.09.08h0l-.06,0h0l-23.58,13.61-1.31.76-5.24,3-1.31.76-24.73,14.28h0l0,0h0l-.09,0h0l-.16,0" style="fill:none;clip-rule:evenodd"/></clipPath><clipPath id="eed23b07-fd5e-4092-917c-695672285a6d"><path d="M266,158.36l-.1,0-.1-.06-1.31-.76-5.11-3-1-.6-.09-.06,7.77,4.48" style="fill:none;clip-rule:evenodd"/></clipPath><clipPath id="08e97b50-301b-4412-b9b3-9fa42ea05b97"><path d="M265.82,158.25s-.39-.16-.54-.25l-7-4.13a.65.65,0,0,1-.18-.23.65.65,0,0,1,0-.56l0,0,.06-.08a.65.65,0,0,1,.51-.25.64.64,0,0,1,.33.09l.3.17.09.05,6.42,3.71.23.14.2.11.33.19a.65.65,0,0,1,.32.45" style="fill:none;clip-rule:evenodd"/></clipPath><clipPath id="9d5ad272-536e-42b0-954d-448804ade8c7"><path d="M315.8,157l.08-.05.31-.18,6.44-3.72.45-.26.08,0L315.8,157" style="fill:none;clip-rule:evenodd"/></clipPath><clipPath id="cdab9d6f-5101-45ae-8e05-e8c90802a842"><path d="M316.2,158.14a.65.65,0,0,1-.57-.33.66.66,0,0,1,.16-.84l7.36-4.25a.65.65,0,0,1,.79.23l0,0a.66.66,0,0,1,0,.7.67.67,0,0,1-.21.19l-1.1.63-5.13,3-1,.56a.65.65,0,0,1-.33.09" style="fill:none;clip-rule:evenodd"/></clipPath><clipPath id="731bc953-f174-4c6a-a7a4-c9d8f841eb16"><path d="M291,143.61a.66.66,0,0,1-.66-.66V106.79l.32.19.06,0h0a.65.65,0,0,0,.26.06h0a.65.65,0,0,0,.26-.06h0l.06,0,.32-.19V143a.65.65,0,0,1-.15.41h0a.66.66,0,0,1-.12.12h0l-.05,0a.66.66,0,0,1-.32.08" style="fill:none;clip-rule:evenodd"/></clipPath></defs><title>micro-2</title><g id="02b283cb-44fb-43ae-8bf4-6bd006546d9a" data-name="Слой 2"><g id="705ce010-23dc-4999-86ca-48f007ad03d3" data-name="Слой 1"><g style="opacity:0.8500000238418579;isolation:isolate"><g style="clip-path:url(#646fe9b9-34a7-4e06-98c3-c96ef58bfcf0)"><g style="clip-path:url(#a2903949-eab0-4eaf-9449-dfb8493da5d7)"><g style="clip-path:url(#82fd4990-3712-417a-a0ca-d947a518eed1)"><rect y="203.02" width="137.3" height="11.2" style="fill:#e06727;opacity:0.6000000238418579"/></g></g></g></g><g style="clip-path:url(#ee9d3b86-5ca3-4eaa-90d0-6abe2d7c91e8)"><rect x="285.32" width="11.31" height="178.35" style="fill:#4b4b4b"/></g><g style="clip-path:url(#1c069744-5494-47a0-a7b5-80ce9a6b4c3a)"><rect x="140.66" y="83.52" width="155.97" height="94.83" style="fill:#4b4b4b"/></g><g style="clip-path:url(#337922aa-39e3-4d3e-a592-59113ba8f2f2)"><rect x="285.32" y="83.52" width="155.98" height="94.83" style="fill:#4b4b4b"/></g><g style="clip-path:url(#0f3266e6-228c-4d49-8c58-41ca3a8e6cff)"><rect x="126.9" y="17.3" width="328.23" height="376.97" style="fill:#fff;opacity:0.8500000238418579"/></g><g style="clip-path:url(#9c5dffe5-b81b-42f2-a4fc-da83c837c394)"><rect x="127.01" y="17.2" width="328.22" height="376.97" style="fill:#fff;opacity:0.8500000238418579"/></g><g style="clip-path:url(#3b8544bd-12d1-451b-93f2-3e374b4f050a)"><rect x="126.6" y="16.65" width="328.76" height="378.08" style="fill:#e06727"/></g><g style="clip-path:url(#5fa59e05-fc0b-402a-9139-f7083528d2f5)"><rect x="373.83" y="253.7" width="11.31" height="75.15" style="fill:#e06727;opacity:0.6000000238418579"/></g><g style="clip-path:url(#f8c652e0-7de9-44be-bdc5-e0231796d5ad)"><rect x="430.02" y="220.31" width="11.31" height="76.03" style="fill:#e06727;opacity:0.6000000238418579"/></g><g style="clip-path:url(#0413da87-6ead-4703-afc7-b3b671323091)"><rect x="317.63" y="249.47" width="11.31" height="17.57" style="fill:#e06727;opacity:0.6000000238418579"/></g><g style="clip-path:url(#2f732c3d-3381-40f0-bf84-706822b807fa)"><rect x="341.55" y="234.31" width="42.94" height="29.67" style="fill:#e06727;opacity:0.6000000238418579"/></g><g style="clip-path:url(#7f41ba66-a627-4a05-8e4e-5c47c35caf69)"><rect x="399.12" y="202.29" width="42.21" height="28.82" style="fill:#e06727;opacity:0.6000000238418579"/></g><g style="clip-path:url(#765d5cea-d329-40a1-916c-dc645e012eda)"><rect x="373.83" y="220.22" width="67.51" height="43.76" style="fill:#e06727;opacity:0.6000000238418579"/></g><g style="clip-path:url(#2c8fd515-6bfa-4163-9e1a-a83481b28c79)"><rect x="342.87" y="202.32" width="16.91" height="15.12" style="fill:#e06727;opacity:0.6000000238418579"/></g><g style="clip-path:url(#a90cdafe-7682-41a7-95ae-c859c3828a8a)"><rect x="196.89" y="253.7" width="11.31" height="75.15" style="fill:#e06727;opacity:0.6000000238418579"/></g><g style="clip-path:url(#a5c746ba-703c-46cd-9b11-a9a1fde14939)"><rect x="253.09" y="248.52" width="11.31" height="19.48" style="fill:#e06727;opacity:0.6000000238418579"/></g><g style="clip-path:url(#3e7beba3-eb0d-40c8-b591-5f771c8fbb27)"><rect x="140.7" y="220.9" width="11.31" height="74.85" style="fill:#e06727;opacity:0.6000000238418579"/></g><g style="clip-path:url(#2391672b-0d36-4bba-8bf7-00a400be7dd1)"><rect x="140.7" y="220.31" width="67.19" height="43.67" style="fill:#e06727;opacity:0.6000000238418579"/></g><g style="clip-path:url(#5aa96a60-e96f-4dae-a330-f644fa76f15a)"><rect x="222.61" y="202.91" width="16.55" height="14.54" style="fill:#e06727;opacity:0.6000000238418579"/></g><g style="clip-path:url(#1dd3c460-1a6b-405f-9dc2-f0045419abea)"><rect x="196.89" y="234.31" width="42.45" height="29.67" style="fill:#e06727;opacity:0.6000000238418579"/></g><g style="clip-path:url(#62efb119-885b-4f8a-b1c3-27c2bdd3acdb)"><rect x="140.7" y="202.91" width="41.78" height="28.63" style="fill:#e06727;opacity:0.6000000238418579"/></g><g style="clip-path:url(#b3f2de74-4dc3-4830-9380-e625a1eb6072)"><rect x="196.89" y="152.87" width="11.31" height="75.16" style="fill:#e06727;opacity:0.6000000238418579"/></g><g style="clip-path:url(#21abbc1d-58c0-4124-8680-376d989d9624)"><rect x="253.09" y="148.78" width="11.31" height="18.4" style="fill:#e06727;opacity:0.6000000238418579"/></g><g style="clip-path:url(#1d3f7c5d-d893-4510-8903-ec5b269530a7)"><rect x="253.09" y="119.75" width="11.31" height="38.22" style="fill:#e06727;opacity:0.6000000238418579"/></g><g style="clip-path:url(#50a1a09c-7fec-435d-9ac2-dc7a33bcf42b)"><rect x="253.09" y="147.26" width="11.22" height="10.72" style="fill:#e06727;opacity:0.6000000238418579"/></g><g style="clip-path:url(#c8ea8333-6b27-4037-8227-43621141f32c)"><rect x="140.7" y="120.07" width="11.31" height="74.84" style="fill:#e06727;opacity:0.6000000238418579"/></g><g style="clip-path:url(#99ce464f-6379-404c-9c64-4dc1cd2947e2)"><rect x="140.7" y="119.47" width="67.18" height="43.67" style="fill:#e06727;opacity:0.6000000238418579"/></g><g style="clip-path:url(#b24d9c36-f46c-4af1-95db-8c711fa8a775)"><rect x="140.7" y="184.28" width="67.19" height="43.75" style="fill:#e06727;opacity:0.6000000238418579"/></g><g style="clip-path:url(#c4979c19-29ee-4086-a267-c1975696a3d1)"><rect x="229.19" y="119.39" width="35.21" height="24.83" style="fill:#e06727;opacity:0.6000000238418579"/></g><g style="clip-path:url(#64d47042-5666-4682-806a-3c1ef14a5cab)"><rect x="228.83" y="133.47" width="11.67" height="11.34" style="fill:#e06727;opacity:0.6000000238418579"/></g><g style="clip-path:url(#ddc2a3c7-c9b7-4a9c-a8d4-2d19a1fa2853)"><rect x="196.89" y="134.22" width="42.3" height="28.92" style="fill:#e06727;opacity:0.6000000238418579"/></g><g style="clip-path:url(#30394608-70c6-415f-9c03-d43b7d8235f8)"><rect x="227.88" y="133.57" width="11.96" height="11.41" style="fill:#e06727;opacity:0.6000000238418579"/></g><g style="clip-path:url(#f23cbb4d-6a81-4c83-afc6-8cc18e3bfede)"><rect x="196.89" y="198.37" width="42.27" height="29.67" style="fill:#e06727;opacity:0.6000000238418579"/></g><g style="clip-path:url(#52a81d4e-0a48-43c7-b8b8-337b71828c23)"><rect x="373.83" y="152.87" width="11.31" height="75.16" style="fill:#e06727;opacity:0.6000000238418579"/></g><g style="clip-path:url(#b20c7ff8-ac56-4788-b802-eb177368cf92)"><rect x="430.02" y="119.67" width="11.31" height="75.83" style="fill:#e06727;opacity:0.6000000238418579"/></g><g style="clip-path:url(#414bfd1d-ed68-4367-9ad3-9cc64f427a12)"><rect x="317.63" y="148.78" width="11.31" height="18.4" style="fill:#e06727;opacity:0.6000000238418579"/></g><g style="clip-path:url(#8249d4ed-ba97-4858-8fea-04175485f1ea)"><rect x="317.63" y="148.7" width="11.31" height="10.84" style="fill:#e06727;opacity:0.6000000238418579"/></g><g style="clip-path:url(#ca89795c-2104-4d41-86cb-bd4c18356148)"><rect x="317.63" y="120.06" width="11.31" height="37.95" style="fill:#e06727;opacity:0.6000000238418579"/></g><g style="clip-path:url(#5928907d-d70e-476d-870f-3370f22dc39b)"><rect x="318.16" y="147.26" width="10.79" height="10.69" style="fill:#e06727;opacity:0.6000000238418579"/></g><g style="clip-path:url(#e9d9351e-ce16-414f-9da3-3f6a32061a84)"><rect x="342.84" y="134.22" width="41.64" height="28.92" style="fill:#e06727;opacity:0.6000000238418579"/></g><g style="clip-path:url(#f99dac99-a66e-4f65-992c-c1ebcfb8cb87)"><rect x="342.53" y="133.66" width="11.63" height="11.32" style="fill:#e06727;opacity:0.6000000238418579"/></g><g style="clip-path:url(#c0360e8a-69a1-4899-b49d-90b72399fcc2)"><rect x="317.93" y="120.05" width="34.91" height="24.17" style="fill:#e06727;opacity:0.6000000238418579"/></g><g style="clip-path:url(#d34640b7-5f9a-4527-9d8d-d00008e8d1f2)"><rect x="341.53" y="133.47" width="11.96" height="11.41" style="fill:#e06727;opacity:0.6000000238418579"/></g><g style="clip-path:url(#65678c8d-77b0-46cd-a9e3-0ed24b6c68ee)"><rect x="342.87" y="198.37" width="41.62" height="29.67" style="fill:#e06727;opacity:0.6000000238418579"/></g><g style="clip-path:url(#4e52bbd6-f49f-4068-bf02-99e03b1fe58e)"><rect x="373.83" y="119.39" width="67.51" height="43.75" style="fill:#e06727;opacity:0.6000000238418579"/></g><g style="clip-path:url(#3ca2e872-1161-46b9-a4dd-e615c9e30391)"><rect x="373.83" y="184.28" width="67.51" height="43.75" style="fill:#e06727;opacity:0.6000000238418579"/></g><g style="clip-path:url(#9d6a8163-1527-4217-81cb-6d775674d57f)"><rect x="310.65" y="252.63" width="42.22" height="29.14" style="fill:#e06727;opacity:0.6000000238418579"/></g><g style="clip-path:url(#777523b7-05e6-48d3-8789-849e6f331861)"><rect x="229.16" y="252.67" width="42.15" height="29.21" style="fill:#e06727;opacity:0.6000000238418579"/></g><g style="clip-path:url(#3826f174-188b-4a7a-89c5-2db7e29b4d55)"><rect x="286.67" y="137.57" width="34.52" height="24.92" style="fill:#e06727;opacity:0.6000000238418579"/></g><g style="clip-path:url(#5c295f7d-7ada-48d0-b8a5-ac462cbedb95)"><rect x="286.02" y="137.95" width="10.66" height="11.14" style="fill:#e06727;opacity:0.6000000238418579"/></g><g style="clip-path:url(#c37d0814-cbc2-4893-8eee-c7e2123b0ed1)"><rect x="309.89" y="151.97" width="11.01" height="11.11" style="fill:#e06727;opacity:0.6000000238418579"/></g><g style="clip-path:url(#3dfbbb9b-d4c6-4378-8c37-b11cf03b10c6)"><rect x="260.83" y="137.57" width="34.53" height="24.92" style="fill:#e06727;opacity:0.6000000238418579"/></g><g style="clip-path:url(#0a6dfca0-b3ff-4553-96e4-4b7471a05d44)"><rect x="285.36" y="137.57" width="10.97" height="11.51" style="fill:#e06727;opacity:0.6000000238418579"/></g><g style="clip-path:url(#29cb38c1-95ec-440a-8cbd-29161ac84723)"><rect x="260.82" y="151.73" width="11.32" height="10.9" style="fill:#e06727;opacity:0.6000000238418579"/></g><g style="clip-path:url(#88ba00ce-6892-481c-a140-256ff4f51647)"><rect x="285.36" y="203.22" width="11.31" height="75.15" style="fill:#e06727;opacity:0.6000000238418579"/></g><g style="clip-path:url(#9feb2a62-804e-436d-a0ad-3660461bdaa1)"><rect x="341.55" y="169.82" width="11.31" height="76.04" style="fill:#e06727;opacity:0.6000000238418579"/></g><g style="clip-path:url(#42bab3bd-0b84-4f49-b476-9c8d4f093bf1)"><rect x="229.16" y="170.09" width="11.31" height="75.41" style="fill:#e06727;opacity:0.6000000238418579"/></g><g style="clip-path:url(#6c765e2a-1e0b-40e4-accb-fdbab3e59729)"><rect x="229.16" y="169.82" width="66.85" height="43.68" style="fill:#e06727;opacity:0.6000000238418579"/></g><g style="clip-path:url(#8dfc16f6-84d6-49b7-a531-d11f1f20f01a)"><rect x="311.2" y="152.49" width="41.67" height="28.46" style="fill:#e06727;opacity:0.6000000238418579"/></g><g style="clip-path:url(#6a789c84-a0ed-4505-975b-29e8e4191606)"><rect x="310.55" y="152.49" width="11.96" height="10.76" style="fill:#e06727;opacity:0.6000000238418579"/></g><g style="clip-path:url(#ef991d94-4c81-47b8-ab47-cfc329600c01)"><rect x="229.16" y="234.63" width="67.19" height="43.76" style="fill:#e06727;opacity:0.6000000238418579"/></g><g style="clip-path:url(#777346a7-5a41-4326-b9c2-9ca80b9c5d42)"><rect x="285.36" y="169.74" width="67.51" height="43.76" style="fill:#e06727;opacity:0.6000000238418579"/></g><g style="clip-path:url(#70733bd0-0d92-490c-8fb7-f06469d33880)"><rect x="229.16" y="151.91" width="42.02" height="29.14" style="fill:#e06727;opacity:0.6000000238418579"/></g><g style="clip-path:url(#04d2b6b9-c601-4301-9c6b-b62b03be40b9)"><rect x="285.36" y="234.63" width="67.51" height="43.76" style="fill:#e06727;opacity:0.6000000238418579"/></g><g style="clip-path:url(#eed23b07-fd5e-4092-917c-695672285a6d)"><rect x="253.26" y="148.88" width="17.77" height="14.48" style="fill:#e06727;opacity:0.6000000238418579"/></g><g style="clip-path:url(#08e97b50-301b-4412-b9b3-9fa42ea05b97)"><rect x="253.02" y="147.72" width="18.88" height="15.54" style="fill:#e06727;opacity:0.6000000238418579"/></g><g style="clip-path:url(#9d5ad272-536e-42b0-954d-448804ade8c7)"><rect x="310.8" y="147.72" width="17.36" height="14.25" style="fill:#e06727;opacity:0.6000000238418579"/></g><g style="clip-path:url(#cdab9d6f-5101-45ae-8e05-e8c90802a842)"><rect x="310.55" y="147.67" width="18.51" height="15.47" style="fill:#e06727;opacity:0.6000000238418579"/></g><g style="clip-path:url(#731bc953-f174-4c6a-a7a4-c9d8f841eb16)"><rect x="285.36" y="101.79" width="11.31" height="46.81" style="fill:#e06727;opacity:0.6000000238418579"/></g></g></g></svg>