<svg xmlns="http://www.w3.org/2000/svg" xmlns:xlink="http://www.w3.org/1999/xlink" width="300.64" height="261.88" viewBox="0 0 300.64 261.88"><defs><clipPath id="94f1f3d6-f2e8-48e3-8942-c12287993b48"><path d="M294.33,89.18v167a.66.66,0,0,0,1.31,0v-167a.66.66,0,0,0-1.31,0" style="fill:none;clip-rule:evenodd"/></clipPath><clipPath id="40fdc59d-050c-464a-a1e9-2ece7d0f1e22"><path d="M5,89.18v167a.66.66,0,1,0,1.31,0v-167a.66.66,0,1,0-1.31,0" style="fill:none;clip-rule:evenodd"/></clipPath><clipPath id="063a089d-bf44-48d9-a40f-7c5eef683cdd"><path d="M5.33,89.75,150,173.27a.66.66,0,0,0,.66-1.14L6,88.61a.66.66,0,0,0-.66,1.14" style="fill:none;clip-rule:evenodd"/></clipPath><clipPath id="cd593c18-58f9-4d4e-be9f-b47f1ba11a06"><path d="M150,6.22,294.65,89.75a.66.66,0,0,0,.66-1.14L150.65,5.09A.66.66,0,0,0,150,6.22" style="fill:none;clip-rule:evenodd"/></clipPath><clipPath id="44d0d3fe-5bb4-4d35-be19-fb30f61bf606"><path d="M150.65,173.27,295.31,89.75a.66.66,0,1,0-.66-1.14L150,172.13a.66.66,0,1,0,.66,1.14" style="fill:none;clip-rule:evenodd"/></clipPath><clipPath id="76b5f085-397d-4386-b45c-10e9d25568e1"><path d="M6,89.75,150.65,6.22A.66.66,0,0,0,150,5.09L5.33,88.61A.66.66,0,0,0,6,89.75" style="fill:none;clip-rule:evenodd"/></clipPath></defs><title>micro--1</title><g id="f22a4b72-29f1-4e05-ba13-00f0f9c82dd2" data-name="Слой 2"><g id="539a02f3-baae-4bdd-8b2f-38e23f23e52c" data-name="Слой 1"><g style="clip-path:url(#94f1f3d6-f2e8-48e3-8942-c12287993b48)"><rect x="289.33" y="83.52" width="11.31" height="178.36" style="fill:#4a4a4a"/></g><g style="clip-path:url(#40fdc59d-050c-464a-a1e9-2ece7d0f1e22)"><rect y="83.52" width="11.31" height="178.36" style="fill:#4a4a4a"/></g><g style="clip-path:url(#063a089d-bf44-48d9-a40f-7c5eef683cdd)"><rect y="83.52" width="155.97" height="94.83" style="fill:#4a4a4a"/></g><g style="clip-path:url(#cd593c18-58f9-4d4e-be9f-b47f1ba11a06)"><rect x="144.66" width="155.97" height="94.83" style="fill:#4a4a4a"/></g><g style="clip-path:url(#44d0d3fe-5bb4-4d35-be19-fb30f61bf606)"><rect x="144.66" y="83.52" width="155.97" height="94.83" style="fill:#4a4a4a"/></g><g style="clip-path:url(#76b5f085-397d-4386-b45c-10e9d25568e1)"><rect width="155.97" height="94.83" style="fill:#4a4a4a"/></g></g></g></svg>