<?xml version="1.0" encoding="UTF-8" standalone="no"?>
<svg width="200px" height="41px" viewBox="0 0 200 41" version="1.1" xmlns="http://www.w3.org/2000/svg" xmlns:xlink="http://www.w3.org/1999/xlink">
    <!-- Generator: Sketch 46 (44423) - http://www.bohemiancoding.com/sketch -->
    <title>OneInc</title>
    <desc>Created with Sketch.</desc>
    <defs></defs>
    <g id="CLIENTS-BANNERS" stroke="none" stroke-width="1" fill="none" fill-rule="evenodd">
        <g id="One-Inc" transform="translate(-60.000000, -58.000000)" fill="#FFFFFF">
            <g id="Logo" transform="translate(60.000000, 58.000000)">
                <g id="OneInc">
                    <path d="M20.736607,0.0510084826 C21.5147408,0.171649387 22.2985297,0.26401508 23.0698775,0.418209237 C25.6955137,0.94262017 28.0966447,1.99709708 30.2902356,3.53036758 C30.4551744,3.64554194 30.5671442,3.75223374 30.4941942,3.98145146 C29.8923091,5.87080113 28.9137983,7.5337606 27.5060697,9.00294062 C24.9034307,7.03762488 21.9795853,6.03423186 18.7160603,6.15411876 C15.4630914,6.27381715 12.6212441,7.46156456 10.145278,9.63592837 C9.94867107,9.44912347 9.75941565,9.27834119 9.5795853,9.09775683 C8.39862394,7.91057493 7.49457116,6.54035815 6.84801131,4.99502356 C6.73773798,4.73149859 6.77845429,4.58277097 6.99786993,4.40482564 C9.85630537,2.08606975 13.0989067,0.66269557 16.7528181,0.186163996 C17.0691235,0.145070688 17.3844863,0.0962488219 17.7002262,0.0510084826 L20.736607,0.0510084826 Z" id="Fill-1"></path>
                    <path d="M-1.88501413e-05,18.1955702 C0.144750236,17.2843544 0.248614515,16.364279 0.441639962,15.4634307 C1.00827521,12.8202639 2.12759661,10.4217719 3.72514609,8.24250707 C3.88047125,8.03044298 4.01355325,7.96786051 4.2731197,8.06211122 C5.88292177,8.64533459 7.32458058,9.5001885 8.59753063,10.6475966 C8.83918944,10.8653157 8.82731385,11.0032988 8.6333459,11.2492931 C6.44427898,14.0262959 5.46652215,17.1918002 5.72778511,20.7122526 C5.94135721,23.5906692 7.0195853,26.1380773 8.87236569,28.3546654 C8.94361923,28.4396795 9.01374175,28.5256362 9.08122526,28.6136664 C9.09498586,28.631197 9.09498586,28.6594722 9.11704053,28.7399623 C8.76096136,29.0549482 8.39451461,29.3995287 8.0069557,29.7184731 C6.98829406,30.5565504 5.84936852,31.1884072 4.62524034,31.6762488 C4.37415646,31.7763431 4.22901037,31.7284637 4.06520264,31.5169651 C1.90101791,28.7220547 0.570386428,25.5821866 0.128539114,22.0705938 C0.0900848256,21.765787 0.0431479736,21.4621112 -1.88501413e-05,21.1578699 L-1.88501413e-05,18.1955702 Z" id="Fill-3"></path>
                    <path d="M148.859491,40.3393214 C148.787861,40.2414892 148.71623,40.1438454 148.63819,40.0369651 C148.798794,39.823016 148.981828,39.6333836 149.099642,39.4094439 C149.287201,39.0535533 149.453836,38.6825825 149.584844,38.3025636 C149.666277,38.0665598 149.605768,37.8708954 149.29738,37.7753252 C148.839698,37.6335721 148.597474,37.1902168 148.639133,36.6989821 C148.684185,36.1638266 149.052328,35.7404524 149.563544,35.6358341 C150.01934,35.5427144 150.485881,35.7626956 150.69983,36.2028464 C151.012177,36.8456362 150.930556,37.5027521 150.688709,38.1395099 C150.385598,38.9374364 149.885504,39.6024694 149.223864,40.1440339 C149.148841,40.2056739 149.079472,40.2740999 149.007653,40.3393214 L148.859491,40.3393214 Z" id="Fill-6"></path>
                    <path d="M199.96049,37.1547785 C199.705259,37.6049199 199.371989,37.9429029 198.807804,37.9291423 C198.25229,37.9157587 197.780283,37.488426 197.69508,36.9310273 C197.617418,36.423016 197.939943,35.8810745 198.429859,35.6965316 C198.959736,35.4970971 199.501866,35.682017 199.807427,36.1666541 C199.859076,36.2486522 199.909406,36.3315928 199.96049,36.4141565 L199.96049,37.1547785 Z" id="Fill-9"></path>
                    <path d="M54.7071819,18.1790009 C54.7071819,22.6696701 55.580886,25.8536475 57.39295,28.5471442 C60.8851272,33.7384731 65.7462017,36.2992648 72.0263148,35.6344204 C77.4217908,35.0632611 81.3462017,32.1416777 83.8574175,27.3699529 C85.7086899,23.852705 86.1569463,20.0819227 85.5020924,16.18541 C84.916984,12.7037889 83.4165127,9.65967955 80.859114,7.2004901 C77.6167012,4.08286522 73.7066164,2.69568332 69.2261263,2.93187559 C65.647804,3.1205655 62.5331951,4.46344958 59.9326296,6.91076343 C56.3742884,10.259491 54.780509,14.4674081 54.7071819,18.1790009 M70.7363996,0.408784166 C75.2272573,0.48663525 79.2061451,1.8804147 82.5746654,4.86872762 C85.5424317,7.50133836 87.4055796,10.8063336 88.2297078,14.6708011 C89.3471442,19.9090669 88.6577945,24.9037889 85.8280113,29.4879548 C82.8035061,34.3874835 78.3725919,37.2600566 72.6647691,38.0425259 C66.9757964,38.8225448 61.9441282,37.2934213 57.723016,33.3744769 C54.2044486,30.1079359 52.2308388,26.0280113 51.8361169,21.2425259 C51.4040716,16.0055796 52.7250895,11.248181 56.0909708,7.15788878 C59.0632611,3.54563619 62.9360226,1.45760603 67.5382846,0.724147031 C68.5942696,0.55600377 69.6698586,0.510763431 70.7363996,0.408784166" id="Fill-12"></path>
                    <path d="M119.084185,31.2055608 L119.084185,30.7269557 L119.084185,1.47530631 C119.084185,0.936757776 119.08475,0.936569274 119.623299,0.936380773 C120.129425,0.93600377 120.636494,0.956361923 121.141112,0.929406221 C121.479472,0.911121583 121.589557,1.04194156 121.547898,1.35541942 C121.539793,1.41592837 121.546767,1.47851084 121.546767,1.5401508 C121.546767,13.5371348 121.547333,25.5341188 121.542243,37.5309142 C121.542243,37.7245052 121.473063,37.9182846 121.436305,38.1118756 C121.2823,37.9863336 121.099076,37.8839774 120.978624,37.7318567 C114.737154,29.8607917 108.492667,21.9921772 102.26967,14.106409 C100.557889,11.9369463 98.9122714,9.71545712 97.2357399,7.51828464 C97.1997361,7.47115928 97.1580773,7.42836946 97.0332893,7.3929312 L97.0332893,7.84194156 C97.0332893,17.5801131 97.0334779,27.3182846 97.0325353,37.0566447 C97.0323468,37.7559849 97.0905938,37.6705938 96.4216023,37.6756833 C95.9032234,37.6798303 95.384656,37.6683318 94.8664656,37.6794533 C94.6395099,37.6841659 94.5495947,37.5965127 94.5697644,37.3754006 C94.5776814,37.2898209 94.5705184,37.2027333 94.5705184,37.1163996 C94.5705184,25.0455231 94.5701414,12.9746466 94.5748539,0.903581527 C94.5748539,0.733930254 94.6393214,0.564090481 94.6738172,0.394439208 C94.8210368,0.508671065 94.9989821,0.598586239 95.1109519,0.740527804 C102.220094,9.75032988 109.326598,18.7622055 116.423864,27.7814326 C117.232347,28.8091423 117.984656,29.8809614 118.762978,30.9322337 C118.840452,31.0366635 118.918492,31.1409048 118.996343,31.2451461 C119.025561,31.231951 119.054967,31.2187559 119.084185,31.2055608" id="Fill-14"></path>
                    <path d="M129.526579,19.3093685 L129.526579,1.46148916 C129.526579,0.937078228 129.527144,0.936324222 130.042696,0.936324222 C134.868709,0.936135721 139.694722,0.936135721 144.520924,0.936512724 C145.022337,0.936512724 145.022903,0.937455231 145.023468,1.44301602 C145.024222,1.94895382 145.006692,2.45583412 145.029689,2.96082941 C145.044769,3.29409991 144.941659,3.40965127 144.595005,3.40606975 C143.002922,3.38967012 141.410462,3.39890669 139.818379,3.39909519 C137.436098,3.39909519 135.053817,3.40606975 132.671913,3.39155514 C132.309048,3.38929312 132.189161,3.47242224 132.190292,3.86016965 C132.204807,8.29108388 132.204053,12.7223751 132.191235,17.1532893 C132.190104,17.5284072 132.293779,17.6345335 132.667578,17.6332139 C136.345617,17.6207729 140.023845,17.6256739 143.702074,17.6258624 C144.244015,17.6260509 144.244392,17.6269934 144.244958,18.1785485 C144.245335,18.635099 144.245712,19.0918379 144.244769,19.5485768 C144.243827,20.0609237 144.243261,20.0620547 143.742601,20.0622432 C140.076626,20.0626202 136.410839,20.0622432 132.744863,20.0624317 C132.200094,20.0624317 132.199529,20.0629972 132.199529,20.5983412 C132.199529,25.2886334 132.19934,29.979114 132.199717,34.6694062 C132.199717,35.1504618 132.200848,35.1514043 132.682658,35.1515928 C136.829877,35.1517813 140.977097,35.1515928 145.124505,35.1519698 C145.602922,35.1519698 145.603676,35.1531008 145.604053,35.6390575 C145.604618,36.2068238 145.593497,36.774967 145.608577,37.3423563 C145.615363,37.6019227 145.523186,37.6842978 145.267389,37.6807163 C144.391046,37.6690292 143.514703,37.6765693 142.63836,37.6765693 C138.429312,37.6765693 134.220452,37.6765693 130.011404,37.6763808 C129.527898,37.6763808 129.526767,37.6752498 129.526767,37.1943827 C129.52639,31.2326484 129.526579,25.2709142 129.526579,19.3093685" id="Fill-16"></path>
                    <path d="M38.4593214,18.9870311 C38.4244486,23.3970217 37.2813761,27.0590386 34.9961734,30.3651649 C34.8197361,30.6205844 34.6645994,30.6858058 34.3609237,30.5838266 C32.80918,30.0622432 31.411819,29.2752498 30.1513101,28.233968 C29.9341565,28.0545146 29.876098,27.9334967 30.0659189,27.6709142 C33.9190763,22.3383977 33.5660132,15.4477286 29.1882564,10.5604524 C28.9622432,10.308049 28.9616777,10.1672385 29.1935344,9.9334967 C30.4525353,8.66393968 31.8915551,7.66921772 33.5499906,6.99174364 C33.7769463,6.89900094 33.9055042,6.94518379 34.0523468,7.12539114 C36.3933459,9.9994722 37.8353817,13.2628087 38.2930631,16.9466918 C38.3931574,17.7531008 38.4263336,18.567804 38.4593214,18.9870311" id="Fill-18"></path>
                    <path d="M10.2899717,29.8242978 C12.9766824,32.047295 15.9474647,33.1960226 19.3512347,33.1568143 C22.7406786,33.117606 25.6754571,31.908935 28.25623,29.6799057 C28.5007163,29.9498398 28.7380396,30.1962111 28.9580207,30.4569086 C29.8072196,31.4638831 30.4820547,32.5760415 30.995721,33.7909331 C31.1193779,34.0834873 31.0726296,34.245787 30.8315363,34.44164 C28.260377,36.5294816 25.3565127,37.9147785 22.0943073,38.4800943 C16.8960038,39.381131 12.0969463,38.3455042 7.7137229,35.3930066 C7.37743638,35.1662394 7.31447691,34.9658624 7.44774741,34.584147 C8.02116871,32.9430537 8.86452403,31.4674647 10.0264467,30.1737795 C10.1167389,30.0733082 10.190066,29.9577568 10.2899717,29.8242978" id="Fill-20"></path>
                    <path d="M177.875457,34.3802639 L177.875457,33.8969463 L177.875457,19.8273893 C177.875646,19.3039208 177.876588,19.2978888 178.397418,19.3042978 C179.254533,19.3148539 179.14049,19.1791329 179.141056,20.0477474 C179.144637,25.8236192 179.143318,31.5996795 179.141621,37.3755514 C179.141621,37.5403016 179.122959,37.7052403 179.11278,37.8699906 C179.070179,37.8899717 179.027578,37.9099529 178.984788,37.929934 C174.961979,32.8407729 170.939171,27.7516117 166.87131,22.6055231 L166.87131,23.0718756 C166.87131,27.7617908 166.87131,32.4515174 166.871122,37.1414326 C166.871122,37.6760226 166.870368,37.6820547 166.322959,37.6750801 C165.545957,37.6654665 165.62098,37.8042036 165.620603,36.9619793 C165.61853,31.1614138 165.619472,25.3608483 165.619472,19.5600943 L165.619472,19.055853 C165.666032,19.0345523 165.712592,19.0134402 165.758963,18.9921395 C169.782149,24.1016588 173.805335,29.2111781 177.875457,34.3802639" id="Fill-22"></path>
                    <path d="M195.457813,20.7300283 C194.754326,20.6031668 194.142451,20.4638643 193.522846,20.3867672 C191.774496,20.1686711 190.046126,20.2559472 188.378454,20.8734779 C186.207672,21.6774364 184.710217,23.1731951 184.005221,25.3824317 C183.261395,27.7119321 183.284204,30.0442601 184.387691,32.2644298 C185.75508,35.0156079 188.081942,36.3903487 191.095325,36.623525 C192.47836,36.7304053 193.857436,36.6190009 195.279868,36.0731008 C195.279868,36.5279548 195.29099,36.9238077 195.267427,37.3175872 C195.264034,37.3750801 195.100415,37.4512347 195.001451,37.4704618 C194.288351,37.6088219 193.577512,37.7790386 192.857248,37.8565127 C190.644995,38.094213 188.520019,37.7863902 186.567144,36.6631103 C183.886466,35.1209802 182.472328,32.7464279 182.114741,29.7141942 C181.892498,27.829557 182.085335,25.9858247 182.883261,24.2485957 C184.121715,21.5522714 186.296645,20.0003393 189.126239,19.3170217 C191.129632,18.833327 193.14,18.9370028 195.144336,19.3598115 C195.389387,19.4116494 195.472893,19.5198492 195.461395,19.7590575 C195.446692,20.0640528 195.457813,20.3701791 195.457813,20.7300283" id="Fill-24"></path>
                    <path d="M28.2091046,26.3946466 C24.9902545,22.454967 24.8992083,16.2155702 27.5518002,12.3450707 C30.9851649,15.783902 31.529934,22.1920075 28.2091046,26.3946466" id="Fill-26"></path>
                    <path d="M12.2375683,28.5059001 C16.0995853,25.5837512 22.2315363,25.4455796 26.3082564,28.3960038 C23.0302168,31.4787559 16.589689,32.1451084 12.2375683,28.5059001" id="Fill-28"></path>
                    <path d="M10.6844486,26.9462394 C7.46277097,23.5038266 6.91668238,17.1865787 10.3660697,12.9364373 C11.7575872,14.9147597 12.5230914,17.0928935 12.6518379,19.4851649 C12.7964185,22.1726296 12.1328935,24.6542507 10.6844486,26.9462394" id="Fill-30"></path>
                    <path d="M25.7623563,10.6805467 C21.5649953,13.8762111 15.5476532,13.6456739 12.0164562,11.2145712 C15.5710273,7.90448633 21.799491,7.59421301 25.7623563,10.6805467" id="Fill-32"></path>
                    <path d="M160.321169,37.6765504 L160.321169,19.3055796 C160.708728,19.3055796 161.065372,19.292196 161.419755,19.3157587 C161.499114,19.3210368 161.596004,19.4431857 161.637097,19.5332893 C161.674797,19.615476 161.648784,19.7270688 161.648784,19.8258435 C161.648973,25.6009614 161.649161,31.3762677 161.648784,37.1513855 C161.648784,37.6759849 161.647653,37.6759849 161.126635,37.6765504 C160.869331,37.6767389 160.612026,37.6765504 160.321169,37.6765504" id="Fill-34"></path>
                </g>
            </g>
        </g>
    </g>
</svg>