<?xml version="1.0" encoding="UTF-8" standalone="no"?>
<svg width="200px" height="50px" viewBox="0 0 200 50" version="1.1" xmlns="http://www.w3.org/2000/svg" xmlns:xlink="http://www.w3.org/1999/xlink">
    <!-- Generator: Sketch 46 (44423) - http://www.bohemiancoding.com/sketch -->
    <title>OpenPay</title>
    <desc>Created with Sketch.</desc>
    <defs></defs>
    <g id="CLIENTS-BANNERS" stroke="none" stroke-width="1" fill="none" fill-rule="evenodd">
        <g id="OpenPay" transform="translate(-60.000000, -58.000000)" fill="#FFFFFF">
            <g id="Logo" transform="translate(60.000000, 58.000000)">
                <g id="OpenPay">
                    <path d="M49.438633,21.6496109 C50.6152892,20.4567613 52.115184,19.8769506 54.0239117,19.8769506 C55.8148686,19.8769506 57.2575605,20.4769506 58.433796,21.7105994 C59.5862671,22.9221661 60.1707045,24.5225868 60.1707045,26.4672766 C60.1707045,28.2931441 59.5713354,29.8327865 58.3852156,31.0472976 C57.2251735,32.266225 55.7911041,32.858654 53.9997266,32.858654 C52.0926814,32.858654 50.6018297,32.2729548 49.44347,31.068959 C48.2750158,29.8435121 47.6825868,28.2582334 47.6825868,26.3568665 C47.6825868,24.41449 48.2733333,22.8306835 49.438633,21.6496109 M54.9244374,14.5690641 C52.3826919,14.5690641 50.0571399,15.3905152 47.9988854,17.0134385 L47.9988854,15.1652787 L41.6756467,15.1652787 L41.6756467,49.2113354 C41.6756467,49.2113354 46.0487277,45.0925131 47.9988854,45.0925131 L47.9988854,35.5991377 C50.088265,37.2742166 52.4466246,38.1225868 55.0218086,38.1225868 C58.3387382,38.1225868 61.1273817,37.002082 63.3099264,34.7932492 C65.5034069,32.5734805 66.6157098,29.764858 66.6157098,26.4449842 C66.6157098,23.0515037 65.4949947,20.1982965 63.288265,17.9680126 C61.1057203,15.7127024 58.2916299,14.5690641 54.9244374,14.5690641" id="Fill-1"></path>
                    <path d="M115.62103,17.060694 C114.013039,15.4072766 111.753102,14.5690011 108.904101,14.5690011 C106.7102,14.5690011 104.691272,15.2749947 102.8898,16.6695268 L102.8898,15.1652156 L96.5791798,15.1652156 L96.5791798,37.5040168 L102.8898,37.5040168 L102.8898,26.7101157 C102.8898,24.1258885 103.239958,22.3084332 103.929968,21.3090641 C104.610726,20.3305152 105.755415,19.8548055 107.428391,19.8548055 C108.941535,19.8548055 109.983807,20.2152681 110.53123,20.9328286 C111.114406,21.665531 111.410305,23.0594322 111.410305,25.0756257 L111.410305,37.5040168 L117.720925,37.5040168 L117.720925,23.904858 C117.720925,20.7755205 117.01388,18.4720505 115.62103,17.060694" id="Fill-3"></path>
                    <path d="M128.502713,21.6496109 C129.684837,20.4567613 131.191672,19.8769506 133.109443,19.8769506 C134.908601,19.8769506 136.357813,20.4769506 137.539516,21.7105994 C138.697455,22.9219558 139.284206,24.5223764 139.284206,26.4672766 C139.284206,28.2931441 138.681893,29.8329968 137.490726,31.0472976 C136.325426,32.266225 134.884206,32.858654 133.085047,32.858654 C131.168749,32.858654 129.671588,32.2729548 128.50776,31.068959 C127.333628,29.8430915 126.738465,28.2578128 126.738465,26.3568665 C126.738465,24.4147003 127.331945,22.8308938 128.502713,21.6496109 M134.013754,14.5690641 C131.460231,14.5690641 129.124164,15.3905152 127.056656,17.0134385 L127.056656,15.1652787 L120.703764,15.1652787 L120.703764,49.2113354 C120.703764,49.2113354 124.002397,45.3211146 127.056656,45.3211146 L127.056656,35.5993481 C129.155289,37.2742166 131.524374,38.1225868 134.111756,38.1225868 C137.444248,38.1225868 140.2453,37.002082 142.438149,34.7932492 C144.641725,32.5734805 145.759285,29.764858 145.759285,26.4449842 C145.759285,23.0515037 144.633312,20.1982965 142.416488,17.9680126 C140.223428,15.7127024 137.396299,14.5690641 134.013754,14.5690641" id="Fill-5"></path>
                    <path d="M165.1196,30.9594953 C163.955142,32.1984017 162.462608,32.8005047 160.557245,32.8005047 C158.783743,32.8005047 157.355773,32.1773712 156.194048,30.8982965 C155.068286,29.6404627 154.497518,27.9777918 154.497518,25.9563407 C154.497518,24.0732702 155.083849,22.4732702 156.236951,21.2038696 C157.417603,19.9353102 158.846414,19.3184858 160.605195,19.3184858 C162.477119,19.3184858 163.953039,19.9275289 165.114763,21.1771609 C166.271651,22.4505573 166.857981,24.0970347 166.857981,26.0709569 C166.857981,28.0452997 166.271651,29.6917771 165.1196,30.9594953 L165.1196,30.9594953 Z M166.520652,16.4816824 C164.454196,14.7052366 162.127802,13.8059727 159.593417,13.8059727 C156.326751,13.8059727 153.566919,14.9771609 151.390263,17.2865195 C149.219285,19.5916719 148.118128,22.5083912 148.118128,25.9563407 C148.118128,29.4638065 149.218023,32.4337329 151.391525,34.7874658 C153.583323,37.0961935 156.391525,38.2669611 159.738107,38.2669611 C162.134111,38.2669611 164.411504,37.4253207 166.520652,35.7628601 L166.520652,37.6246898 L172.803302,37.6246898 L172.803302,14.4253207 L166.520652,14.4253207 L166.520652,16.4816824 Z" id="Fill-7"></path>
                    <path d="M193.68286,15.1652787 L187.120715,29.1272135 L181.737539,15.1652787 L174.741535,15.1652787 L183.541325,36.6836803 L178.096951,48.6954574 C178.096951,48.6954574 183.033018,45.5171188 185.33102,46.029632 L199.847319,15.1652787 L193.68286,15.1652787 Z" id="Fill-9"></path>
                    <path d="M75.759306,23.4409884 C75.9401682,22.8224816 76.2032597,22.2702208 76.5487907,21.7844164 C76.8941115,21.2984017 77.3092534,20.8824185 77.7948475,20.5362566 C78.2796004,20.1905152 78.8184017,19.9253207 79.4106204,19.7410936 C80.0028391,19.5570768 80.6356467,19.4649632 81.3103049,19.4649632 C84.2707676,19.4649632 86.1370137,20.7903049 86.9100946,23.4409884 L75.759306,23.4409884 Z M93.0631966,26.3345741 C93.0631966,22.6914616 91.9929548,19.7926183 89.8823344,17.7192219 C87.7515247,15.6290011 84.8263933,14.5688538 81.1868559,14.5688538 C77.5799159,14.5688538 74.6383807,15.6584437 72.4396425,17.8104942 C70.2646688,19.9854679 69.1622503,22.8609674 69.1622503,26.3568665 C69.1622503,29.8853628 70.3004206,32.7629653 72.5458465,34.9108097 C74.7898002,37.0418297 77.79653,38.1225868 81.4825447,38.1225868 C87.2055731,38.1225868 90.7397476,34.0822082 90.887592,33.9101788 L91.2791798,33.453817 L85.5004206,31.5263722 L85.3332282,31.6136488 C84.670347,31.960021 82.722082,32.858654 81.6802313,32.858654 C80.0024185,32.858654 78.6707676,32.3898843 77.6114616,31.4275289 C76.655836,30.5469821 76.070347,29.367592 75.867613,27.9173291 L93.0305994,27.9173291 L93.0631966,26.3345741 Z" id="Fill-11"></path>
                    <path d="M31.7069821,19.7810936 C31.7069821,26.4197897 26.3252787,31.8017035 19.6863722,31.8017035 C13.0476761,31.8017035 7.66597266,26.4197897 7.66597266,19.7810936 C7.66597266,13.1423975 13.0476761,7.76069401 19.6863722,7.76069401 L31.7069821,7.76069401 L31.7069821,19.7810936 Z M19.6863722,0.0946582545 C8.81402734,0.0946582545 -6.30914828e-05,8.90853838 -6.30914828e-05,19.7810936 C-6.30914828e-05,30.6536488 8.81402734,39.4675289 19.6863722,39.4675289 C30.5589274,39.4675289 39.3730179,30.6536488 39.3730179,19.7810936 C39.3730179,8.90853838 30.5589274,0.0946582545 19.6863722,0.0946582545 L19.6863722,0.0946582545 Z" id="Fill-13"></path>
                </g>
            </g>
        </g>
    </g>
</svg>