<?xml version="1.0" encoding="UTF-8" standalone="no"?>
<svg width="200px" height="38px" viewBox="0 0 200 38" version="1.1" xmlns="http://www.w3.org/2000/svg" xmlns:xlink="http://www.w3.org/1999/xlink">
    <!-- Generator: Sketch 46 (44423) - http://www.bohemiancoding.com/sketch -->
    <title>Ortess</title>
    <desc>Created with Sketch.</desc>
    <defs></defs>
    <g id="CLIENTS-BANNERS" stroke="none" stroke-width="1" fill="none" fill-rule="evenodd">
        <g id="Ortess" transform="translate(-60.000000, -58.000000)" fill="#FFFFFF">
            <g id="Logo" transform="translate(60.000000, 58.000000)">
                <g id="Ortess">
                    <path d="M27.6081115,23.6368314 C27.2063371,25.0768821 26.5964512,26.3159189 25.7759189,27.3541952 C24.9556401,28.3932319 23.9439797,29.2046388 22.7416984,29.7874018 C21.5391635,30.3704183 20.1533587,30.66218 18.5873257,30.66218 C16.982763,30.66218 15.5893536,30.3704183 14.4053232,29.7874018 C13.2195184,29.2046388 12.217237,28.3932319 11.3982256,27.3541952 C10.5776933,26.3159189 9.96653992,25.0768821 9.56628644,23.6368314 C9.16451204,22.1975412 8.96603295,20.6213688 8.96603295,18.9078074 C8.96603295,17.1950063 9.16451204,15.6190875 9.56628644,14.1787833 C9.96653992,12.7397465 10.5776933,11.5004563 11.3982256,10.4614195 C12.217237,9.42238276 13.2195184,8.61198986 14.4053232,8.02821293 C15.5893536,7.44595691 16.982763,7.15343473 18.5873257,7.15343473 C20.1533587,7.15343473 21.5391635,7.44595691 22.7416984,8.02821293 C23.9439797,8.61198986 24.9556401,9.42238276 25.7759189,10.4614195 C26.5964512,11.5004563 27.2063371,12.7397465 27.6081115,14.1787833 C28.008365,15.6190875 28.2086185,17.1950063 28.2086185,18.9078074 C28.2086185,20.6213688 28.008365,22.1975412 27.6081115,23.6368314 M32.2818758,5.6233967 C30.696071,3.91059569 28.7553866,2.55292776 26.4590621,1.54988593 C24.1642586,0.548365019 21.5391635,0.0469708492 18.5873257,0.0469708492 C15.6352345,0.0469708492 13.0010139,0.548365019 10.6879594,1.54988593 C8.37313054,2.55292776 6.42332066,3.91059569 4.83726236,5.6233967 C3.25145754,7.33695817 2.04892269,9.33239544 1.22991128,11.6097085 C0.409378961,13.8880355 0,16.3202281 0,18.9078074 C0,21.496147 0.409378961,23.9293536 1.22991128,26.2066667 C2.04892269,28.4847402 3.25145754,30.4804309 4.83726236,32.1924715 C6.42332066,33.906033 8.37313054,35.2634474 10.6879594,36.2657288 C13.0010139,37.2672497 15.6352345,37.7694043 18.5873257,37.7694043 C21.5391635,37.7694043 24.1642586,37.2672497 26.4590621,36.2657288 C28.7553866,35.2634474 30.696071,33.906033 32.2818758,32.1924715 C33.8679341,30.4804309 35.0780735,28.4847402 35.9168568,26.2066667 C36.7556401,23.9293536 37.174398,21.496147 37.174398,18.9078074 C37.174398,16.3202281 36.7556401,13.8880355 35.9168568,11.6097085 C35.0780735,9.33239544 33.8679341,7.33695817 32.2818758,5.6233967" id="Fill-1"></path>
                    <path d="M57.3875792,16.3929531 C56.1989861,17.3409886 54.5429658,17.8144994 52.4220532,17.8144994 L50.4935361,17.8144994 L50.4935361,7.59117871 L52.7586819,7.59117871 C54.7840304,7.59117871 56.3594423,7.98332066 57.4846641,8.76709759 C58.6096324,9.55087452 59.1716096,10.7625349 59.1716096,12.4018251 C59.1716096,14.1156401 58.5774398,15.4456781 57.3875792,16.3929531 M64.982256,18.6342712 C66.1868188,16.812218 66.790621,14.6801521 66.790621,12.238327 C66.790621,10.2697592 66.4362484,8.56684411 65.7287706,7.12679341 C65.0212928,5.68750317 64.0415716,4.49434728 62.7885932,3.54529785 C61.5351077,2.59802281 60.0555133,1.88750317 58.3523447,1.4139924 C56.6479087,0.940228137 54.8002535,0.702712294 52.8073511,0.702712294 L42.5863118,0.702712294 L42.5863118,37.1131052 L50.4935361,37.1131052 L50.4935361,24.4839544 L51.939417,24.4839544 L60.7629911,37.1131052 L70.5029151,37.1131052 L59.9437262,22.7896578 C62.0970849,21.8423828 63.7761724,20.4570849 64.982256,18.6342712" id="Fill-4"></path>
                    <polygon id="Fill-6" points="70.7826869 7.80983523 80.5689987 7.80983523 80.5689987 37.1130038 89.5350317 37.1130038 99.3198226 37.1130038 99.3198226 7.80983523 99.3198226 4.03974651 99.3198226 0.7026109 70.7826869 0.7026109"></polygon>
                    <path d="M165.915843,22.233384 C162.343473,20.8663371 159.738403,19.3048669 158.097338,17.5494804 C156.457795,15.7953612 155.637516,13.5497338 155.637516,10.8146261 C155.637516,7.23084918 156.79417,4.49574144 159.108745,2.6113308 C160.112548,1.79434728 161.292269,1.16519645 162.628137,0.702585551 L146.513815,0.702585551 C148.047402,1.13046895 149.384791,1.65188847 150.497592,2.27875792 L148.96654,9.09675539 C147.690748,8.4686185 146.297085,7.96038023 144.784537,7.57229404 C143.27199,7.18420786 141.713308,6.98978454 140.110773,6.98978454 C138.76147,6.98978454 137.678327,7.22147022 136.857795,7.68306717 C136.037262,8.14542459 135.627883,8.93021546 135.627883,10.0387072 C135.627883,10.5568314 135.701141,10.999924 135.846134,11.3695057 C135.991381,11.738834 136.255767,12.0896578 136.63929,12.4219772 C137.021293,12.755057 137.558935,13.0871229 138.251204,13.4202028 C138.943473,13.7525222 139.818758,14.1406084 140.876299,14.5837009 C142.407098,15.2125982 143.846641,15.8779975 145.195691,16.5798986 C146.543219,17.2815463 147.71052,18.094981 148.69455,19.0181749 C149.67858,19.9421293 150.451711,20.9956147 151.016984,22.1776172 C151.58251,23.3611407 151.864892,24.7469455 151.864892,26.3347782 C151.864892,27.9613942 151.545754,29.485602 150.908492,30.9079087 C150.269962,32.3307224 149.350063,33.5684918 148.147529,34.6219772 C146.947022,35.6731812 145.489987,36.503853 143.780482,37.1129785 L159.990875,37.1129785 C158.33384,36.6850951 156.757414,36.1444106 155.308999,35.4252725 L157.113308,28.4965019 C158.389354,29.1253992 159.828644,29.6701394 161.432953,30.1317364 C163.035741,30.5940938 164.766793,30.825019 166.626362,30.825019 C168.157161,30.825019 169.414702,30.5390875 170.398733,29.9659569 C171.382763,29.3928264 171.874778,28.4602535 171.874778,27.1667174 C171.874778,26.24327 171.445374,25.4022053 170.589607,24.6445374 C169.732573,23.8871229 168.174144,23.0838276 165.915843,22.233384" id="Fill-8"></path>
                    <path d="M175.489379,0.702585551 C177.022966,1.13046895 178.360355,1.65188847 179.473156,2.27875792 L177.942104,9.09675539 C176.666312,8.4686185 175.272902,7.96038023 173.760101,7.57229404 C172.247554,7.18420786 170.689125,6.98978454 169.086337,6.98978454 C167.737034,6.98978454 166.653891,7.22147022 165.833359,7.68306717 C165.012826,8.14542459 164.603447,8.93021546 164.603447,10.0387072 C164.603447,10.5568314 164.676705,10.999924 164.821952,11.3695057 C164.966946,11.738834 165.231331,12.0896578 165.614854,12.4219772 C165.996857,12.755057 166.534499,13.0871229 167.226768,13.4202028 C167.919037,13.7525222 168.794322,14.1406084 169.851863,14.5837009 C171.382662,15.2125982 172.822205,15.8779975 174.171255,16.5798986 C175.518783,17.2815463 176.686084,18.094981 177.670114,19.0181749 C178.654144,19.9421293 179.427275,20.9956147 179.992548,22.1776172 C180.558074,23.3611407 180.840456,24.7469455 180.840456,26.3347782 C180.840456,27.9613942 180.521318,29.485602 179.884056,30.9079087 C179.245526,32.3307224 178.325627,33.5684918 177.123093,34.6219772 C175.922586,35.6729278 174.465551,36.503853 172.756046,37.1129785 L199.973283,37.1129785 L199.973283,0.702585551 L175.489379,0.702585551 Z" id="Fill-10"></path>
                    <path d="M136.940279,22.233384 C133.367909,20.8663371 130.762839,19.3048669 129.121774,17.5494804 C127.482231,15.7953612 126.661952,13.5497338 126.661952,10.8146261 C126.661952,7.23084918 127.818606,4.49574144 130.133181,2.6113308 C131.136984,1.79434728 132.316705,1.16519645 133.652573,0.702585551 L121.633561,0.702585551 L121.633561,7.80980989 L107.911128,7.80980989 L107.911128,15.1355387 L120.976527,15.1355387 L120.976527,22.2425095 L107.911128,22.2425095 L107.911128,30.0060076 L121.79706,30.0060076 L121.79706,37.1129785 L131.015311,37.1129785 C129.358276,36.6850951 127.78185,36.1444106 126.333435,35.4252725 L128.137744,28.4965019 C129.41379,29.1253992 130.85308,29.6701394 132.457389,30.1317364 C134.060177,30.5940938 135.791229,30.825019 137.650798,30.825019 C139.181597,30.825019 140.439138,30.5390875 141.423169,29.9659569 C142.407199,29.3928264 142.899214,28.4602535 142.899214,27.1667174 C142.899214,26.24327 142.46981,25.4022053 141.614043,24.6445374 C140.757009,23.8871229 139.19858,23.0838276 136.940279,22.233384" id="Fill-12"></path>
                </g>
            </g>
        </g>
    </g>
</svg>