<?xml version="1.0" encoding="UTF-8" standalone="no"?>
<svg width="200px" height="49px" viewBox="0 0 200 49" version="1.1" xmlns="http://www.w3.org/2000/svg" xmlns:xlink="http://www.w3.org/1999/xlink">
    <!-- Generator: Sketch 46 (44423) - http://www.bohemiancoding.com/sketch -->
    <title>PayOn</title>
    <desc>Created with Sketch.</desc>
    <defs></defs>
    <g id="CLIENTS-BANNERS" stroke="none" stroke-width="1" fill="none" fill-rule="evenodd">
        <g id="PayOn" transform="translate(-60.000000, -58.000000)" fill="#FFFFFF">
            <g id="Logo" transform="translate(60.000000, 58.000000)">
                <g id="PayOn">
                    <path d="M34.5133017,13.7806214 C27.4548499,12.3609063 20.5335229,12.3539313 13.5050869,13.7885475 C12.0561137,20.8655643 12.04,27.8528583 13.5101422,34.9102185 C20.5562717,36.3514925 27.4794945,36.3533948 34.5354186,34.9010243 C35.9196209,27.8297142 35.9553239,20.8436884 34.5133017,13.7806214 M0.00018957346,24.3704663 C-0.0124486572,11.0074529 10.6586414,0.212481709 23.9047709,0.187435372 C37.2576935,0.161754951 48.0283096,10.933265 48.040316,24.323227 C48.0516904,37.7150912 37.2794945,48.5306702 23.9524803,48.5075261 C10.6861295,48.484065 0.0125118483,37.728407 0.00018957346,24.3704663" id="Fill-1"></path>
                    <path d="M194.719242,31.8337674 L194.719242,10.4039313 L199.944834,10.4039313 L199.944834,38.1042289 L191.934408,38.1042289 C188.439621,30.5960345 184.919558,23.0333089 181.399494,15.4705834 C181.282591,15.5029217 181.166003,15.5349429 181.0491,15.5669642 L181.0491,38.0823529 L175.659526,38.0823529 L175.659526,10.3887133 L184.099336,10.3887133 C187.466477,17.479363 190.891122,24.6908058 194.316082,31.9022486 C194.450363,31.8794215 194.584961,31.8565945 194.719242,31.8337674" id="Fill-4"></path>
                    <path d="M163.743065,17.906514 C162.354123,14.9221954 159.810047,13.5046995 156.572449,13.9945298 C153.786667,14.4158789 152.018894,16.1320286 151.216682,18.74731 C150.093144,22.4104161 150.074186,26.1305897 151.215103,29.8063774 C151.475766,30.6465394 151.937062,31.446754 152.421106,32.189901 C153.197725,33.3822968 154.330742,34.1089577 155.722528,34.4535826 C159.396777,35.3628597 162.413839,33.9754829 163.732006,30.4176349 C164.451754,28.4748 165.409415,21.1891693 163.743065,17.906514 M144.309573,24.1636596 C144.43722,23.1085431 144.518736,21.6263706 144.807204,20.1860477 C146.128215,13.5861794 150.450174,9.93290167 157.165182,9.76264999 C158.52,9.72809238 159.90515,9.86378646 161.236272,10.1247122 C166.165498,11.0904229 168.97624,14.3233026 170.268499,19.009504 C171.365814,22.98775 171.127899,26.9441201 169.775924,30.8380329 C168.322212,35.0261609 165.423633,37.5758146 161.118736,38.5301117 C158.394882,39.1343942 155.680506,39.0694005 153.011311,38.2717223 C148.059336,36.7920861 145.087773,32.9840918 144.505782,27.4279265 C144.406888,26.4850429 144.38951,25.5339162 144.309573,24.1636596" id="Fill-7"></path>
                    <path d="M97.3062875,16.0584431 C97.1776935,16.0603453 97.0494155,16.0622476 96.9211374,16.0641498 C95.5988626,19.8965564 94.2765877,23.728963 92.9075513,27.6976978 L101.044992,27.6976978 C99.766951,23.7185006 98.5366193,19.8883133 97.3062875,16.0584431 M93.7574724,10.3662667 L100.778009,10.3662667 C103.956524,19.563345 107.137567,28.7686665 110.36316,38.102073 L104.540411,38.102073 C103.875324,36.1547995 103.215292,34.2233782 102.538199,32.2424983 L91.3988626,32.2424983 C90.7214534,34.1380938 90.0193997,36.1015364 89.2996524,38.1153887 L83.7896998,38.1153887 C87.1233491,28.8349283 90.4181359,19.6625793 93.7574724,10.3662667" id="Fill-9"></path>
                    <path d="M72.1038863,23.1497903 C74.0068878,22.9877817 75.7468562,23.0023656 77.4116272,22.6536192 C79.1579147,22.2880695 80.0053081,20.9232026 80.0903002,19.0149254 C80.177188,17.0714564 79.5793997,15.8413326 78.1143128,15.2478295 C76.1585466,14.4555409 74.1383254,14.816335 72.1038863,14.7814603 L72.1038863,23.1497903 Z M66.4135229,10.2724856 C70.7108373,10.3942298 74.8637599,10.3650619 78.9907741,10.6770315 C82.1316904,10.9144961 84.6681833,12.4708565 85.6410111,15.6685445 C86.6865087,19.1043313 86.2293207,22.3752561 83.7032543,25.1125988 C82.1228436,26.825261 79.9775039,27.1965174 77.7879305,27.2779973 C76.0078357,27.3445761 74.2236335,27.2916301 72.2593365,27.2916301 L72.2593365,38.0678958 L66.4135229,38.0678958 L66.4135229,10.2724856 Z" id="Fill-11"></path>
                    <path d="M122.078262,38.1139303 L116.39485,38.1139303 L116.21981,28.9254122 C116.21981,28.9254122 107.25267,11.1301483 106.959147,10.564862 L113.728183,10.564862 C115.582844,14.6667545 117.444771,18.7844991 119.483318,23.2922056 C121.531659,18.8520291 123.434028,14.7279436 125.369889,10.5312555 L131.265624,10.5312555 C130.961043,11.1498049 122.058673,29.0915423 122.058673,29.0915423 L122.078262,38.1139303 Z" id="Fill-13"></path>
                    <path d="M131.551848,27.6448785 C131.094976,25.7166276 131.129731,23.857809 131.5291,21.8671008 C133.406825,21.4375085 135.257694,21.4993318 137.270964,21.8033753 C137.742054,23.7049946 137.675387,25.6050288 137.32278,27.6439274 C135.406509,28.091274 133.518673,28.0852502 131.551848,27.6448785" id="Fill-15"></path>
                </g>
            </g>
        </g>
    </g>
</svg>