<svg xmlns="http://www.w3.org/2000/svg" xmlns:xlink="http://www.w3.org/1999/xlink" width="210" height="210" viewBox="0 0 210 210"><defs><clipPath id="8ced0cd3-2a45-4a1a-ab1d-97eb473e7bd9"><rect x="5" y="5" width="200" height="200" style="fill:none"/></clipPath><clipPath id="6fef7a3e-1196-43b7-a171-d2ee70bc9b7e"><path d="M193.89,62.78H16.11a2.22,2.22,0,0,1,0-4.44H193.89a2.22,2.22,0,0,1,0,4.44Z" style="fill:none;clip-rule:evenodd"/></clipPath><clipPath id="0fb4a65d-208e-437d-a0bf-9f57ce62dd65"><path d="M127.22,129.44H16.11a2.22,2.22,0,1,1,0-4.44H127.22a2.22,2.22,0,1,1,0,4.44Z" style="fill:none;clip-rule:evenodd"/></clipPath><clipPath id="bc3431d6-c9eb-4f5b-a78d-ce001f5d99b7"><path d="M127.22,196.11H16.11a2.22,2.22,0,0,1,0-4.44H127.22a2.22,2.22,0,0,1,0,4.44Z" style="fill:none;clip-rule:evenodd"/></clipPath><clipPath id="a1ab88fc-4ac3-4cf2-b58a-30d87806479b"><path d="M149.67,152h-.22a2.22,2.22,0,0,1,0-4.44h0c6.56-1,8.89-5.67,8.89-9.22s-2.33-8.22-8.89-9.22h0a2.22,2.22,0,0,1,0-4.44H150c8.89,1.33,12.78,7.78,12.78,13.67s-4,12.33-12.78,13.67Z" style="fill:none;clip-rule:evenodd"/></clipPath><clipPath id="22150b38-6c08-489f-9463-01bd5261d89e"><path d="M154.78,173.89h-5.33a2.22,2.22,0,0,1,0-4.44h4.44v-4.33a3.71,3.71,0,0,1,2.56-3.44,23.2,23.2,0,0,0,4.56-1.89,3.54,3.54,0,0,1,4.22.56l3.11,3.11,6.33-6.33-3-3a3.54,3.54,0,0,1-.56-4.22,23.2,23.2,0,0,0,1.89-4.56,3.6,3.6,0,0,1,3.44-2.56h4.33v-8.89h-4.33a3.71,3.71,0,0,1-3.44-2.56,23.2,23.2,0,0,0-1.89-4.56,3.54,3.54,0,0,1,.56-4.22l3.11-3.11-6.33-6.33-3,3a3.54,3.54,0,0,1-4.22.56,23.2,23.2,0,0,0-4.56-1.89,3.6,3.6,0,0,1-2.56-3.44v-4.11h-4.44a2.22,2.22,0,1,1,0-4.44H155a3.51,3.51,0,0,1,3.56,3.56v4.56a28.28,28.28,0,0,1,4.22,1.78l3.22-3.22a3.52,3.52,0,0,1,2.56-1h0a3.52,3.52,0,0,1,2.56,1l7.56,7.56a3.62,3.62,0,0,1,0,5l-3.22,3.22a28.27,28.27,0,0,1,1.78,4.22h4.56a3.51,3.51,0,0,1,3.56,3.56v10.67a3.51,3.51,0,0,1-3.56,3.56h-4.56a28.27,28.27,0,0,1-1.78,4.22l3.22,3.22a3.77,3.77,0,0,1,0,5.11l-7.56,7.56a3.52,3.52,0,0,1-2.56,1h0a3.52,3.52,0,0,1-2.56-1l-3.22-3.22a28.26,28.26,0,0,1-4.22,1.78v4.56a3.85,3.85,0,0,1-3.78,3.44Zm3-7.89Zm5.44-2.33Z" style="fill:none;clip-rule:evenodd"/></clipPath><clipPath id="cebbfd15-426a-43f5-baee-4658a8dd02a1"><path d="M49.33,51.67H27.22A2.23,2.23,0,0,1,25,49.44V27.33a2.23,2.23,0,0,1,2.22-2.22H43.78a2.22,2.22,0,0,1,0,4.44H29.44V47.22H47.11V43.11a2.22,2.22,0,1,1,4.44,0v6.33a2.23,2.23,0,0,1-2.22,2.22Z" style="fill:none;clip-rule:evenodd"/></clipPath><clipPath id="6b254b0e-db70-495d-8ad6-fd0aa0748f34"><path d="M42,43.56h0a2.19,2.19,0,0,1-1.56-.67l-6.22-6.33a2.2,2.2,0,0,1,3.11-3.11L42,38.11,59.11,21a2.2,2.2,0,1,1,3.11,3.11L43.56,42.89a2.19,2.19,0,0,1-1.56.67Z" style="fill:none;clip-rule:evenodd"/></clipPath><clipPath id="e66a74a9-a7a0-4a35-8888-771d154cfe9f"><path d="M105,51.67H71.67a2.22,2.22,0,1,1,0-4.44H105a2.22,2.22,0,1,1,0,4.44Z" style="fill:none;clip-rule:evenodd"/></clipPath><clipPath id="106dbdf4-e189-4df8-918c-753d8e4bea43"><path d="M82.78,40.56H71.67a2.22,2.22,0,0,1,0-4.44H82.78a2.22,2.22,0,1,1,0,4.44Z" style="fill:none;clip-rule:evenodd"/></clipPath><clipPath id="34ae5072-025b-4a4b-8664-da7858d4f597"><path d="M126.11,96.11H71.67a2.22,2.22,0,1,1,0-4.44h54.44a2.22,2.22,0,1,1,0,4.44Z" style="fill:none;clip-rule:evenodd"/></clipPath><clipPath id="3c0a56f9-7e1c-46b4-a75d-efcb6026a64c"><path d="M182.78,40.56H93.89a2.22,2.22,0,1,1,0-4.44h88.89a2.22,2.22,0,0,1,0,4.44Z" style="fill:none;clip-rule:evenodd"/></clipPath><clipPath id="e45234bc-6c8c-42da-b459-fce0a70142bc"><path d="M182.78,29.44H71.67a2.22,2.22,0,1,1,0-4.44H182.78a2.22,2.22,0,1,1,0,4.44Z" style="fill:none;clip-rule:evenodd"/></clipPath><clipPath id="1132d6c6-9de5-427d-a688-2b63c28383c5"><path d="M49.33,118.33H27.22A2.23,2.23,0,0,1,25,116.11V94a2.23,2.23,0,0,1,2.22-2.22H43.78a2.22,2.22,0,0,1,0,4.44H29.44v17.67H47.11v-4.11a2.22,2.22,0,0,1,4.44,0v6.33a2.23,2.23,0,0,1-2.22,2.22Z" style="fill:none;clip-rule:evenodd"/></clipPath><clipPath id="a5f8cfe2-369a-4df9-873a-02585cdd7e43"><path d="M42,110.22a2.19,2.19,0,0,1-1.56-.67l-6.22-6.22a2.2,2.2,0,0,1,3.11-3.11L42,104.89,59.11,87.78a2.2,2.2,0,1,1,3.11,3.11L43.56,109.56a2.19,2.19,0,0,1-1.56.67Z" style="fill:none;clip-rule:evenodd"/></clipPath><clipPath id="c8e28bf1-60cc-4f4f-8452-168e48d2ed27"><path d="M49.33,185H27.22A2.23,2.23,0,0,1,25,182.78V160.67a2.23,2.23,0,0,1,2.22-2.22H43.78a2.22,2.22,0,1,1,0,4.44H29.44v17.67H47.11v-4.11a2.22,2.22,0,1,1,4.44,0v6.33A2.23,2.23,0,0,1,49.33,185Z" style="fill:none;clip-rule:evenodd"/></clipPath><clipPath id="7873a493-243e-4fd1-82b7-444bf633a010"><path d="M42,176.89a2.19,2.19,0,0,1-1.56-.67L34.22,170a2.2,2.2,0,0,1,3.11-3.11L42,171.56l17.11-17.11a2.2,2.2,0,1,1,3.11,3.11L43.56,176.22a2.19,2.19,0,0,1-1.56.67Z" style="fill:none;clip-rule:evenodd"/></clipPath><clipPath id="339ec130-4750-4b5b-913e-129ad06169f1"><path d="M82.44,107.22H71.67a2.22,2.22,0,1,1,0-4.44H82.44a2.22,2.22,0,1,1,0,4.44Z" style="fill:none;clip-rule:evenodd"/></clipPath><clipPath id="a77fb5a3-9f25-4e48-9414-20bdb738f525"><path d="M127.22,107.22h-33a2.22,2.22,0,1,1,0-4.44h33a2.22,2.22,0,1,1,0,4.44Z" style="fill:none;clip-rule:evenodd"/></clipPath><clipPath id="b9240cbc-e23a-4a12-a8ed-3bacac13da67"><path d="M105,118.33H71.67a2.22,2.22,0,1,1,0-4.44H105a2.22,2.22,0,1,1,0,4.44Z" style="fill:none;clip-rule:evenodd"/></clipPath><clipPath id="e97df02b-0026-44d8-80dc-a7dc3e11e68a"><path d="M105,185H71.67a2.22,2.22,0,1,1,0-4.44H105a2.22,2.22,0,1,1,0,4.44Z" style="fill:none;clip-rule:evenodd"/></clipPath><clipPath id="d570fb1f-6e1e-4c8a-8fbd-aba588c6e3bb"><path d="M82.44,173.89H71.67a2.22,2.22,0,1,1,0-4.44H82.44a2.22,2.22,0,1,1,0,4.44Z" style="fill:none;clip-rule:evenodd"/></clipPath><clipPath id="4f5c757d-be0d-4815-b6c0-d42a21d27003"><path d="M127.22,173.89h-33a2.22,2.22,0,1,1,0-4.44h33a2.22,2.22,0,1,1,0,4.44Z" style="fill:none;clip-rule:evenodd"/></clipPath><clipPath id="4e4f5c3c-eb10-4cfe-a49d-a1e22666bced"><path d="M127.22,162.78H71.67a2.22,2.22,0,1,1,0-4.44h55.56a2.22,2.22,0,1,1,0,4.44Z" style="fill:none;clip-rule:evenodd"/></clipPath><clipPath id="bef9c7ec-ce80-4824-86ef-c5365b3e5877"><path d="M150.22,185a2.22,2.22,0,1,1,0-4.44,39.69,39.69,0,0,0,5.22-.44,2.25,2.25,0,0,1,.67,4.44,50.6,50.6,0,0,1-5.89.44Zm16.22-3.33a2.19,2.19,0,0,1-2-1.33,2.26,2.26,0,0,1,1.22-2.89,38,38,0,0,0,4.78-2.33,2.19,2.19,0,1,1,2.22,3.78,45.37,45.37,0,0,1-5.22,2.56,4.12,4.12,0,0,1-1,.22Zm13.89-9.11a2.19,2.19,0,0,1-1.56-.67,2.15,2.15,0,0,1,.11-3.11c1.22-1.22,2.44-2.56,3.56-3.89a2.21,2.21,0,0,1,3.44,2.78A48.93,48.93,0,0,1,182,172a3.31,3.31,0,0,1-1.67.56ZM189.89,159a2.09,2.09,0,0,1-.89-.22,2.33,2.33,0,0,1-1.11-3,37.05,37.05,0,0,0,1.89-4.89,2.21,2.21,0,0,1,4.22,1.33,46,46,0,0,1-2.11,5.44,2.14,2.14,0,0,1-2,1.33Zm3.89-16.11h-.11a2.31,2.31,0,0,1-2.11-2.33c0-.78.11-1.56.11-2.22a27.08,27.08,0,0,0-.11-3,2.23,2.23,0,0,1,4.44-.22c.11,1.11.11,2.22.11,3.33a17.21,17.21,0,0,1-.11,2.44,2.12,2.12,0,0,1-2.22,2Zm-2.11-16.33a2.23,2.23,0,0,1-2.11-1.56,37.58,37.58,0,0,0-2-4.89,2.24,2.24,0,1,1,4-2,46.58,46.58,0,0,1,2.22,5.44,2.21,2.21,0,0,1-1.44,2.78,1.58,1.58,0,0,1-.67.22Zm-8.11-14.44a2,2,0,0,1-1.67-.78,29.45,29.45,0,0,0-3.67-3.78,2.2,2.2,0,0,1,3-3.22,47.46,47.46,0,0,1,4,4.22,2.25,2.25,0,0,1-.22,3.11,3.15,3.15,0,0,1-1.44.44Zm-12.78-10.56a3.94,3.94,0,0,1-1.11-.22,37.32,37.32,0,0,0-4.78-2.22A2.22,2.22,0,1,1,166.56,95a56.83,56.83,0,0,1,5.33,2.44,2.19,2.19,0,0,1,.89,3,2.48,2.48,0,0,1-2,1.11ZM155,96.44h-.22a42.53,42.53,0,0,0-5.22-.33,2.22,2.22,0,1,1,0-4.44,50.35,50.35,0,0,1,5.78.33,2.09,2.09,0,0,1,1.89,2.44,2.26,2.26,0,0,1-2.22,2Z" style="fill:none;clip-rule:evenodd"/></clipPath></defs><title>proc-1</title><g id="ed458eb7-7ec2-468d-a9d7-bb7d355d62f8" data-name="Слой 2"><g id="aa69237a-fc69-4d8e-863a-35763e89c90f" data-name="Слой 1"><g style="clip-path:url(#8ced0cd3-2a45-4a1a-ab1d-97eb473e7bd9)"><rect width="210" height="210" style="fill:#fff"/></g><g style="clip-path:url(#6fef7a3e-1196-43b7-a171-d2ee70bc9b7e)"><rect x="8.89" y="53.33" width="192.22" height="14.44" style="fill:#ff671b"/></g><g style="clip-path:url(#0fb4a65d-208e-437d-a0bf-9f57ce62dd65)"><rect x="8.89" y="120" width="125.56" height="14.44" style="fill:#ff671b"/></g><g style="clip-path:url(#bc3431d6-c9eb-4f5b-a78d-ce001f5d99b7)"><rect x="8.89" y="186.67" width="125.56" height="14.44" style="fill:#ff671b"/></g><g style="clip-path:url(#a1ab88fc-4ac3-4cf2-b58a-30d87806479b)"><rect x="142.22" y="119.67" width="25.56" height="37.33" style="fill:#ff671b"/></g><g style="clip-path:url(#22150b38-6c08-489f-9463-01bd5261d89e)"><rect x="142.22" y="97.78" width="48.11" height="81.11" style="fill:#ff671b"/></g><g style="clip-path:url(#cebbfd15-426a-43f5-baee-4658a8dd02a1)"><rect x="20" y="20.11" width="36.56" height="36.56" style="fill:#ff671b"/></g><g style="clip-path:url(#6b254b0e-db70-495d-8ad6-fd0aa0748f34)"><rect x="28.56" y="15.33" width="39.33" height="33.22" style="fill:#ff671b"/></g><g style="clip-path:url(#e66a74a9-a7a0-4a35-8888-771d154cfe9f)"><rect x="64.44" y="42.22" width="47.78" height="14.44" style="fill:#ff671b"/></g><g style="clip-path:url(#106dbdf4-e189-4df8-918c-753d8e4bea43)"><rect x="64.44" y="31.11" width="25.56" height="14.44" style="fill:#ff671b"/></g><g style="clip-path:url(#34ae5072-025b-4a4b-8664-da7858d4f597)"><rect x="64.44" y="86.67" width="68.89" height="14.44" style="fill:#ff671b"/></g><g style="clip-path:url(#3c0a56f9-7e1c-46b4-a75d-efcb6026a64c)"><rect x="86.67" y="31.11" width="103.33" height="14.44" style="fill:#ff671b"/></g><g style="clip-path:url(#e45234bc-6c8c-42da-b459-fce0a70142bc)"><rect x="64.44" y="20" width="125.56" height="14.44" style="fill:#ff671b"/></g><g style="clip-path:url(#1132d6c6-9de5-427d-a688-2b63c28383c5)"><rect x="20" y="86.78" width="36.56" height="36.56" style="fill:#ff671b"/></g><g style="clip-path:url(#a5f8cfe2-369a-4df9-873a-02585cdd7e43)"><rect x="28.56" y="82.11" width="39.33" height="33.11" style="fill:#ff671b"/></g><g style="clip-path:url(#c8e28bf1-60cc-4f4f-8452-168e48d2ed27)"><rect x="20" y="153.44" width="36.56" height="36.56" style="fill:#ff671b"/></g><g style="clip-path:url(#7873a493-243e-4fd1-82b7-444bf633a010)"><rect x="28.56" y="148.78" width="39.33" height="33.11" style="fill:#ff671b"/></g><g style="clip-path:url(#339ec130-4750-4b5b-913e-129ad06169f1)"><rect x="64.44" y="97.78" width="25.22" height="14.44" style="fill:#ff671b"/></g><g style="clip-path:url(#a77fb5a3-9f25-4e48-9414-20bdb738f525)"><rect x="87" y="97.78" width="47.44" height="14.44" style="fill:#ff671b"/></g><g style="clip-path:url(#b9240cbc-e23a-4a12-a8ed-3bacac13da67)"><rect x="64.44" y="108.89" width="47.78" height="14.44" style="fill:#ff671b"/></g><g style="clip-path:url(#e97df02b-0026-44d8-80dc-a7dc3e11e68a)"><rect x="64.44" y="175.56" width="47.78" height="14.44" style="fill:#ff671b"/></g><g style="clip-path:url(#d570fb1f-6e1e-4c8a-8fbd-aba588c6e3bb)"><rect x="64.44" y="164.44" width="25.22" height="14.44" style="fill:#ff671b"/></g><g style="clip-path:url(#4f5c757d-be0d-4815-b6c0-d42a21d27003)"><rect x="87" y="164.44" width="47.44" height="14.44" style="fill:#ff671b"/></g><g style="clip-path:url(#4e4f5c3c-eb10-4cfe-a49d-a1e22666bced)"><rect x="64.44" y="153.33" width="70" height="14.44" style="fill:#ff671b"/></g><g style="clip-path:url(#bef9c7ec-ce80-4824-86ef-c5365b3e5877)"><rect x="142.33" y="86.67" width="58.78" height="103.33" style="fill:#ff671b"/></g></g></g></svg>