<svg xmlns="http://www.w3.org/2000/svg" xmlns:xlink="http://www.w3.org/1999/xlink" width="210" height="210" viewBox="0 0 210 210"><defs><clipPath id="77cc2d08-0191-47a6-8dd7-28a5782c9985"><rect x="5" y="5" width="200" height="200" style="fill:none"/></clipPath><clipPath id="bc3ec536-81ab-4ce4-9eed-7ee65e7ee998"><path d="M27.22,107.22h0A2.23,2.23,0,0,0,29.44,105a31.11,31.11,0,0,1,31-31.11h.22a31,31,0,0,1,8.44,1.22A46.67,46.67,0,0,0,58.33,105a2.23,2.23,0,0,0,2.22,2.22h0A2.23,2.23,0,0,0,62.78,105,42.48,42.48,0,0,1,74.56,75.67l.11-.11A41.72,41.72,0,0,1,92,64.78a13.31,13.31,0,0,0,26,0,43.18,43.18,0,0,1,17.33,10.78l.11.11A42.48,42.48,0,0,1,147.22,105a2.22,2.22,0,0,0,4.44,0,46.67,46.67,0,0,0-10.78-29.89A31.28,31.28,0,0,1,147.33,74a18.17,18.17,0,0,0,2.44.22c.78,0,1.56-.11,2.22-.11a31.09,31.09,0,0,1,28.56,31,2.23,2.23,0,0,0,2.22,2.22h0a2.23,2.23,0,0,0,2.22-2.22,35.55,35.55,0,0,0-25-33.89,17.34,17.34,0,0,0,4-3.56A19,19,0,0,0,161.89,41,2.21,2.21,0,1,0,159,44.33a14.74,14.74,0,0,1,5,9.89,14.46,14.46,0,0,1-12.33,15.44c-.78,0-1.56-.11-2.33-.11h0a12.08,12.08,0,0,0-2,.11,14.79,14.79,0,0,1-7.11-3.22c-.22-.11-.33-.33-.44-.44a2.2,2.2,0,1,0-3,3.22,3,3,0,0,0,.67.56c.56.44,1.11.89,1.78,1.33-.56.22-1.11.33-1.78.56A46.14,46.14,0,0,0,117,60.11a1.41,1.41,0,0,0-.67-.11,24.3,24.3,0,0,0,10.22-9.89A2.21,2.21,0,1,0,122.67,48a20,20,0,0,1-36.78-4.22,20.48,20.48,0,0,1,1.22-14.33h15.78A13.35,13.35,0,0,0,116,40.56h11.33a2.22,2.22,0,0,0,0-4.44H116.11a8.92,8.92,0,0,1-8.89-8.89A2.23,2.23,0,0,0,105,25H85.22c-.11,0-.11,0-.22.11s-.11,0-.22.11-.11.11-.22.11-.11.11-.22.11-.11.11-.22.11l-.11.11-.11.11c0,.11-.11.11-.11.22v.11a24.05,24.05,0,0,0-2.11,18.56A24.36,24.36,0,0,0,93.33,59.33l.67.33h0a2.09,2.09,0,0,0-.89.22A47.23,47.23,0,0,0,72.67,71.44a10.92,10.92,0,0,0-1.78-.56,18.92,18.92,0,0,0,6.89-24.11A18.84,18.84,0,0,0,67,37.11,19.83,19.83,0,0,0,60.78,36h-.22a17.39,17.39,0,0,0-8.11,1.89,18.84,18.84,0,0,0-9.67,10.78A2.25,2.25,0,1,0,47,50.22,14.28,14.28,0,0,1,54.44,42a13.78,13.78,0,0,1,4-1.22v9.44a8.16,8.16,0,0,1-8.11,8.11h-12a2.22,2.22,0,1,0,0,4.44H50.22A12.61,12.61,0,0,0,62.78,50.22V40.78a9.61,9.61,0,0,1,2.56.67,14.28,14.28,0,0,1,8.22,7.44,14.06,14.06,0,0,1,.56,11,14.4,14.4,0,0,1-18.44,8.78,13.13,13.13,0,0,1-4.78-2.89A2.21,2.21,0,0,0,48,69.11a19.67,19.67,0,0,0,2.44,1.78,34.87,34.87,0,0,0-15,9A35.49,35.49,0,0,0,25,105a2.23,2.23,0,0,0,2.22,2.22Zm77.89-44.78a22.82,22.82,0,0,0,9-1.78l-.33.67a1.54,1.54,0,0,0,0,1,8.9,8.9,0,0,1-17.78,0,1.54,1.54,0,0,0,0-1,2.23,2.23,0,0,0-.44-.89,25,25,0,0,0,9.56,2Z" style="fill:none;clip-rule:evenodd"/></clipPath><clipPath id="210bf1a9-aec4-4b0c-9b0f-76830a83b79f"><path d="M95.11,20.89A19.68,19.68,0,0,1,110.33,19a20.2,20.2,0,0,1,12.11,9.44.84.84,0,0,1,.22.44,2.34,2.34,0,0,0,2,1.22,3.24,3.24,0,0,0,1-.22,2.19,2.19,0,0,0,.89-3,2.43,2.43,0,0,0-.33-.56,24.52,24.52,0,0,0-33.33-9.22,2.19,2.19,0,1,0,2.22,3.78Z" style="fill:none;clip-rule:evenodd"/></clipPath><clipPath id="c142602b-4599-4588-9e3e-8b737aae5aab"><path d="M132.78,58.33A2.23,2.23,0,0,0,135,60.56a18.87,18.87,0,0,0,18.89-18.89,2.22,2.22,0,0,0-4.44,0A14.42,14.42,0,0,1,135,56.11a2.23,2.23,0,0,0-2.22,2.22Z" style="fill:none;clip-rule:evenodd"/></clipPath><clipPath id="3af01a83-a9a3-4acb-8328-cd4899f26f31"><path d="M132.89,51.56a1.41,1.41,0,0,0,.67.11,2.23,2.23,0,0,0,2.11-1.56,14.22,14.22,0,0,1,8.11-8.67,2.22,2.22,0,1,0-1.67-4.11,19,19,0,0,0-10.56,11.33,2.27,2.27,0,0,0,1.33,2.89Z" style="fill:none;clip-rule:evenodd"/></clipPath><clipPath id="90243216-304b-43e0-bb5d-7c81f0c0a051"><path d="M173.56,116.11a2.23,2.23,0,0,0-2.22-2.22h-133a2.22,2.22,0,1,0,0,4.44h133a2.23,2.23,0,0,0,2.22-2.22Z" style="fill:none;clip-rule:evenodd"/></clipPath><clipPath id="b07fea03-0223-4944-a091-ee60e091afb3"><path d="M87.56,125a2.16,2.16,0,0,0-2.33,2.11v.78a37.82,37.82,0,0,0,.78,3.78,2.23,2.23,0,0,0,2.11,1.56,1.41,1.41,0,0,0,.67-.11,2.08,2.08,0,0,0,1.44-2.78,14.55,14.55,0,0,1-.67-3,2.14,2.14,0,0,0-2-2.33Z" style="fill:none;clip-rule:evenodd"/></clipPath><clipPath id="b0eeaf2b-1726-4cab-87e1-2339168ccdfb"><path d="M95.44,138.56a2.21,2.21,0,1,0-2.89,3.33,20.1,20.1,0,0,0,5.33,3.22,1.89,1.89,0,0,0,.78.11,2.28,2.28,0,0,0,2.11-1.44,2.26,2.26,0,0,0-1.22-2.89,11.62,11.62,0,0,1-4.11-2.33Z" style="fill:none;clip-rule:evenodd"/></clipPath><clipPath id="a6e34871-ac56-4c69-95e4-26c614d64112"><path d="M122.44,125a2.14,2.14,0,0,0-2,2.33,26,26,0,0,1-1.11,4.44,2.22,2.22,0,0,0,1.33,2.89,1.89,1.89,0,0,0,.78.11,2.28,2.28,0,0,0,2.11-1.44,29.07,29.07,0,0,0,1.44-5.56v-.89a2.51,2.51,0,0,0-2.56-1.89Z" style="fill:none;clip-rule:evenodd"/></clipPath><clipPath id="4f066c39-1128-48d5-9376-2da83e9cd65c"><path d="M113.33,139.44a15.38,15.38,0,0,1-4.33,2,2.27,2.27,0,0,0,.56,4.44.83.83,0,0,0,.56-.11,18.86,18.86,0,0,0,5.67-2.67,2.28,2.28,0,0,0,.56-3.11,2.1,2.1,0,0,0-3-.56Z" style="fill:none;clip-rule:evenodd"/></clipPath><clipPath id="d443d1b9-1fb5-4b1e-9f03-885c94adf0c4"><path d="M138.33,144.89a33.79,33.79,0,0,0,2.67-6.56h6.56a4,4,0,0,0,4-4v-7.11a2.22,2.22,0,1,0-4.44,0v6.67h-6.56a3.93,3.93,0,0,0-3.78,2.89,43.09,43.09,0,0,1-2.56,6.22,4.05,4.05,0,0,0,.67,4.78l4.56,4.56L130,161.78l-4.56-4.56a4,4,0,0,0-4.78-.67,27.22,27.22,0,0,1-6.22,2.56,4.07,4.07,0,0,0-2.89,3.89v6.44H98.33V163a4.07,4.07,0,0,0-2.89-3.89,43.08,43.08,0,0,1-6.22-2.56,4.05,4.05,0,0,0-4.78.67l-4.56,4.56-9.44-9.44L75,147.78a4,4,0,0,0,.67-4.78,27.22,27.22,0,0,1-2.56-6.22,4.07,4.07,0,0,0-3.89-2.89H62.78v-6.67a2.22,2.22,0,1,0-4.44,0v7.11a4,4,0,0,0,4,4h6.56a36.89,36.89,0,0,0,2.67,6.56l-4.67,4.67a4,4,0,0,0,0,5.67L77,165.33a4,4,0,0,0,5.67,0l4.67-4.67a33.8,33.8,0,0,0,6.56,2.67V170a4,4,0,0,0,4,4h14.22a4,4,0,0,0,4-4v-6.56a36.91,36.91,0,0,0,6.56-2.67l4.67,4.67a4,4,0,0,0,5.67,0l10.11-10.11a4,4,0,0,0,0-5.67l-4.78-4.78Z" style="fill:none;clip-rule:evenodd"/></clipPath><clipPath id="34559d0f-3fef-4b04-aac5-81e61b3c20a0"><path d="M187.33,156.11l-.11-.11a11,11,0,0,0-1.89-1.22,2.25,2.25,0,0,0-3,.78,2.28,2.28,0,0,0,.78,3,9.28,9.28,0,0,1,1.33.89,2.19,2.19,0,0,0,1.56.67,2.34,2.34,0,0,0,1.44-.56,2.25,2.25,0,0,0,.22-3.11l-.33-.33Z" style="fill:none;clip-rule:evenodd"/></clipPath><clipPath id="20c33994-6ee3-4ee8-ae6c-05d7eb03a56b"><path d="M169.22,168.78a2.25,2.25,0,1,0-4.33,1.22,15.83,15.83,0,0,0,2.78,5.44l.11.11.33.33a2.34,2.34,0,0,0,1.44.56,2,2,0,0,0,1.67-.78,2.37,2.37,0,0,0-.11-3.11,10.09,10.09,0,0,1-1.89-3.78Z" style="fill:none;clip-rule:evenodd"/></clipPath><clipPath id="63645c96-b4fb-4ad0-8d8c-ca14a2c663c0"><path d="M172.67,153.67a14.41,14.41,0,0,0-5.33,3.89,2.16,2.16,0,0,0,.33,3.11,2.34,2.34,0,0,0,1.44.56,2,2,0,0,0,1.67-.78,12,12,0,0,1,3.56-2.67,2.26,2.26,0,0,0,1.22-2.89,2.21,2.21,0,0,0-2.89-1.22Z" style="fill:none;clip-rule:evenodd"/></clipPath><clipPath id="44475eac-4dfc-49ed-b1ec-0886f42a074a"><path d="M200.11,143.78l-3.33-3.33a3.27,3.27,0,0,0-2.44-1h0a3.45,3.45,0,0,0-2.44,1l-2.67,2.67a32,32,0,0,0-3.44-1.44v-3.78a3.34,3.34,0,0,0-3.33-3.33h-9.33a3.34,3.34,0,0,0-3.33,3.33v3.78a18.81,18.81,0,0,0-3.44,1.44l-2.67-2.67a3.35,3.35,0,0,0-4.78,0l-6.67,6.67a3.35,3.35,0,0,0,0,4.78l2.78,2.78a20.85,20.85,0,0,0-1.33,3.33h-3.78a3.37,3.37,0,0,0-3.33,3.44v9.33a3.34,3.34,0,0,0,3.33,3.33h3.78a18.8,18.8,0,0,0,1.44,3.44l-2.67,2.67a3.27,3.27,0,0,0-1,2.44,3.59,3.59,0,0,0,.89,2.33l.11.11,3.33,3.33a2.15,2.15,0,0,0,3.11,0,2.15,2.15,0,0,0,0-3.11l-2.78-2.56,2.44-2.44a3.39,3.39,0,0,0,.56-4,30.55,30.55,0,0,1-1.67-4,3.44,3.44,0,0,0-3.22-2.44h-3.56v-7.22h3.56a3.33,3.33,0,0,0,3.22-2.44,21.59,21.59,0,0,1,1.67-4c0-.11.11-.11.11-.22a3.44,3.44,0,0,0-.89-3.89l-2.44-2.44,5.22-5.22,2.44,2.44a3.39,3.39,0,0,0,4,.56,25.3,25.3,0,0,1,4-1.67,3.44,3.44,0,0,0,2.44-3.22V139h7.22v3.56a3.33,3.33,0,0,0,2.44,3.22,21.58,21.58,0,0,1,4,1.67,3.2,3.2,0,0,0,4-.56l2.44-2.44,2.56,2.56a2.15,2.15,0,0,0,3.11,0,2.31,2.31,0,0,0,.33-3.22Z" style="fill:none;clip-rule:evenodd"/></clipPath><clipPath id="29600bf6-fd92-4478-93b1-1d922b299be8"><path d="M42.33,170.56a2.25,2.25,0,0,0-3,.78,9.28,9.28,0,0,1-.89,1.33,2.11,2.11,0,0,0-.11,3,2.15,2.15,0,0,0,1.67.78,2.34,2.34,0,0,0,1.44-.56l.33-.33.11-.11a11,11,0,0,0,1.22-1.89,2.11,2.11,0,0,0-.78-3Z" style="fill:none;clip-rule:evenodd"/></clipPath><clipPath id="be8763c7-9513-4e1b-ba74-72fd12e86ee7"><path d="M27.89,153.22A15.83,15.83,0,0,0,22.44,156l-.11.11-.33.33a2.25,2.25,0,0,0,.22,3.11,2.34,2.34,0,0,0,1.44.56,2.19,2.19,0,0,0,1.56-.67,14.37,14.37,0,0,1,3.89-2,2.22,2.22,0,0,0,1.56-2.78,2.25,2.25,0,0,0-2.78-1.44Z" style="fill:none;clip-rule:evenodd"/></clipPath><clipPath id="98a557a2-ec22-4a2c-9bf8-1959790258da"><path d="M40.33,155.67a2.21,2.21,0,0,0-2.78,3.44,12,12,0,0,1,2.67,3.56A2.18,2.18,0,0,0,42.33,164a2.45,2.45,0,0,0,.89-.11A2.26,2.26,0,0,0,44.44,161a16,16,0,0,0-4.11-5.33Z" style="fill:none;clip-rule:evenodd"/></clipPath><clipPath id="19da4811-1022-4f12-9683-67adba3ab930"><path d="M60,158H56.11a18.8,18.8,0,0,0-1.44-3.44l2.67-2.67a3.27,3.27,0,0,0,1-2.44,3.45,3.45,0,0,0-1-2.44h0l-6.67-6.67a3.46,3.46,0,0,0-4.78-.11h-.11l-2.67,2.67a32,32,0,0,0-3.44-1.44v-3.67a3.37,3.37,0,0,0-3.44-3.33H26.89a3.34,3.34,0,0,0-3.33,3.33v3.78A18.82,18.82,0,0,0,20.11,143l-2.67-2.67a3.27,3.27,0,0,0-2.44-1,3.2,3.2,0,0,0-2.33,1h0l-3.33,3.33a2.2,2.2,0,0,0,3.11,3.11L15,144.22l2.44,2.44a3.37,3.37,0,0,0,4,.56,25.28,25.28,0,0,1,4-1.67,3.44,3.44,0,0,0,2.44-3.22v-3.56h7.22v3.44a3.44,3.44,0,0,0,2.44,3.22,21.57,21.57,0,0,1,4,1.67,3.2,3.2,0,0,0,4-.56L48,144.11l5.22,5.22-2.44,2.44a3.39,3.39,0,0,0-.56,4,25.3,25.3,0,0,1,1.67,4,3.44,3.44,0,0,0,3.22,2.44h3.56v7.22H55.11a3.44,3.44,0,0,0-3.22,2.44,25.31,25.31,0,0,1-1.67,4,3.2,3.2,0,0,0,.56,4l2.44,2.44-2.56,2.56a2.15,2.15,0,0,0,0,3.11,2.15,2.15,0,0,0,3.11,0l3.33-3.33a3.27,3.27,0,0,0,1-2.44,3.37,3.37,0,0,0-.89-2.33l-.11-.11-2.67-2.67a32,32,0,0,0,1.44-3.44h3.78A3.34,3.34,0,0,0,63,170.33V161c.33-1.56-1.22-3-3-3Z" style="fill:none;clip-rule:evenodd"/></clipPath><clipPath id="2e0fdd85-c819-4ffd-b828-f9db58a1d413"><path d="M102.78,106.33a2.22,2.22,0,0,0,4.44,0v-5.56a2.22,2.22,0,1,0-4.44,0v5.56Z" style="fill:none;clip-rule:evenodd"/></clipPath><clipPath id="90127379-361d-401b-8b66-7e4dcd7a3a84"><path d="M105,91.89a2.23,2.23,0,0,0,2.22-2.22V84.11a2.22,2.22,0,1,0-4.44,0v5.56A2.23,2.23,0,0,0,105,91.89Z" style="fill:none;clip-rule:evenodd"/></clipPath></defs><title>proc-2</title><g id="9d0f85d0-66ed-496b-9b4e-d1984f27e652" data-name="Слой 2"><g id="d13fbdae-7e95-46d3-8cf0-ac0a9b286e2e" data-name="Слой 1"><g style="clip-path:url(#77cc2d08-0191-47a6-8dd7-28a5782c9985)"><rect width="210" height="210" style="fill:#fff"/></g><g style="clip-path:url(#bc3ec536-81ab-4ce4-9eed-7ee65e7ee998)"><rect x="20" y="20" width="170" height="92.33" style="fill:#ff671b"/></g><g style="clip-path:url(#210bf1a9-aec4-4b0c-9b0f-76830a83b79f)"><rect x="86.74" y="8.94" width="45.08" height="26.17" style="fill:#ff671b"/></g><g style="clip-path:url(#c142602b-4599-4588-9e3e-8b737aae5aab)"><rect x="127.78" y="34.44" width="31.11" height="31.11" style="fill:#ff671b"/></g><g style="clip-path:url(#3af01a83-a9a3-4acb-8328-cd4899f26f31)"><rect x="126.42" y="32.18" width="23.74" height="24.49" style="fill:#ff671b"/></g><g style="clip-path:url(#90243216-304b-43e0-bb5d-7c81f0c0a051)"><rect x="31.11" y="108.89" width="147.44" height="14.44" style="fill:#ff671b"/></g><g style="clip-path:url(#b07fea03-0223-4944-a091-ee60e091afb3)"><rect x="80.22" y="119.99" width="15.14" height="18.23" style="fill:#ff671b"/></g><g style="clip-path:url(#b0eeaf2b-1726-4cab-87e1-2339168ccdfb)"><rect x="86.81" y="133.04" width="19.12" height="17.19" style="fill:#ff671b"/></g><g style="clip-path:url(#a6e34871-ac56-4c69-95e4-26c614d64112)"><rect x="114.18" y="119.99" width="15.82" height="19.79" style="fill:#ff671b"/></g><g style="clip-path:url(#4f066c39-1128-48d5-9376-2da83e9cd65c)"><rect x="102.36" y="134.06" width="19.36" height="16.83" style="fill:#ff671b"/></g><g style="clip-path:url(#d443d1b9-1fb5-4b1e-9f03-885c94adf0c4)"><rect x="53.33" y="120" width="103.22" height="59" style="fill:#ff671b"/></g><g style="clip-path:url(#34559d0f-3fef-4b04-aac5-81e61b3c20a0)"><rect x="177.07" y="149.51" width="16.12" height="15.6" style="fill:#ff671b"/></g><g style="clip-path:url(#20c33994-6ee3-4ee8-ae6c-05d7eb03a56b)"><rect x="159.8" y="162.14" width="16.95" height="19.31" style="fill:#ff671b"/></g><g style="clip-path:url(#63645c96-b4fb-4ad0-8d8c-ca14a2c663c0)"><rect x="161.82" y="148.51" width="18.89" height="17.71" style="fill:#ff671b"/></g><g style="clip-path:url(#44475eac-4dfc-49ed-b1ec-0886f42a074a)"><rect x="141.56" y="129.56" width="64.08" height="64.56" style="fill:#ff671b"/></g><g style="clip-path:url(#29600bf6-fd92-4478-93b1-1d922b299be8)"><rect x="32.76" y="165.29" width="15.69" height="16.16" style="fill:#ff671b"/></g><g style="clip-path:url(#be8763c7-9513-4e1b-ba74-72fd12e86ee7)"><rect x="16.48" y="148.14" width="19.27" height="16.98" style="fill:#ff671b"/></g><g style="clip-path:url(#98a557a2-ec22-4a2c-9bf8-1959790258da)"><rect x="31.71" y="150.16" width="17.89" height="18.84" style="fill:#ff671b"/></g><g style="clip-path:url(#19da4811-1022-4f12-9683-67adba3ab930)"><rect x="3.67" y="129.44" width="64.38" height="64.22" style="fill:#ff671b"/></g><g style="clip-path:url(#2e0fdd85-c819-4ffd-b828-f9db58a1d413)"><rect x="97.78" y="93.56" width="14.44" height="20" style="fill:#ff671b"/></g><g style="clip-path:url(#90127379-361d-401b-8b66-7e4dcd7a3a84)"><rect x="97.78" y="76.89" width="14.44" height="20" style="fill:#ff671b"/></g></g></g></svg>