<?xml version="1.0" encoding="UTF-8" standalone="no"?>
<svg width="200px" height="39px" viewBox="0 0 200 39" version="1.1" xmlns="http://www.w3.org/2000/svg" xmlns:xlink="http://www.w3.org/1999/xlink">
    <!-- Generator: Sketch 46 (44423) - http://www.bohemiancoding.com/sketch -->
    <title>RealFunds</title>
    <desc>Created with Sketch.</desc>
    <defs></defs>
    <g id="CLIENTS-BANNERS" stroke="none" stroke-width="1" fill="none" fill-rule="evenodd">
        <g id="Real-Funds" transform="translate(-60.000000, -57.000000)" fill="#FFFFFF">
            <g id="Logo" transform="translate(60.000000, 57.000000)">
                <g id="RealFunds">
                    <path d="M182.005327,25.26639 C181.761438,26.0335255 181.393578,26.7033756 180.911543,27.2590505 C180.430859,27.8116853 179.823501,28.2501449 179.106359,28.5632821 C178.387866,28.8777704 177.536282,29.0372103 176.57694,29.0372103 L172.930091,29.0372103 L172.930091,16.4468661 L176.57694,16.4468661 C177.508245,16.4468661 178.346655,16.6032658 179.068526,16.9116738 C179.784654,17.2170417 180.391336,17.6487454 180.871007,18.194962 C181.354056,18.7448944 181.730361,19.410691 181.987762,20.1720839 C182.246851,20.9452996 182.37893,21.8029645 182.37893,22.720757 C182.37893,23.6304425 182.253607,24.487094 182.005327,25.26639 M183.487915,19.7255171 C183.182547,18.7807008 182.719766,17.9426282 182.111395,17.2346071 C181.499646,16.5225325 180.721363,15.9519945 179.796477,15.5388696 C178.874293,15.1267581 177.791318,14.9183378 176.57694,14.9183378 L171.364068,14.9183378 L171.364068,30.565063 L176.57694,30.565063 C177.692006,30.565063 178.715867,30.3755593 179.620485,30.001281 C180.531184,29.6243003 181.316898,29.0848396 181.954995,28.3974241 C182.591742,27.7123731 183.088978,26.8776785 183.432517,25.916648 C183.77234,24.9640623 183.944278,23.8888567 183.944278,22.720757 C183.944278,21.6654814 183.790918,20.6574972 183.487915,19.7255171" id="Fill-1"></path>
                    <polygon id="Fill-3" points="82.2132364 14.9187432 75.8940807 29.6645656 75.5083173 30.5651306 75.8940807 30.5651306 77.2128375 30.5651306 82.8060689 17.3724956 88.3601159 30.5651306 90.0865928 30.5651306 83.3816738 14.9187432"></polygon>
                    <polygon id="Fill-5" points="61.6699847 29.0370752 61.4446745 29.0370752 61.4446745 30.5649279 61.6699847 30.5649279 71.8531923 30.5649279 72.0166857 30.5649279 72.0166857 29.0370752 71.8531923 29.0370752"></polygon>
                    <polygon id="Fill-7" points="117.947053 30.5650968 119.513077 30.5650968 119.513077 23.3409848 127.008101 23.3392959 127.008101 21.8323865 117.947053 21.8340755"></polygon>
                    <polygon id="Fill-9" points="70.7329246 23.339431 70.7329246 21.8112405 63.0102253 21.8112405 63.0102253 16.4463594 71.8304249 16.4463594 71.8304249 14.9188445 61.6698496 14.9188445 61.4445394 14.9188445 61.4445394 23.3417956 61.6698496 23.3417956"></polygon>
                    <polygon id="Fill-11" points="96.1161557 14.9182702 94.5511453 14.9182702 94.5511453 30.5649955 105.143087 30.5649955 105.143087 29.0371427 96.1161557 29.0371427"></polygon>
                    <polygon id="Fill-13" points="117.947087 16.4468999 128.311691 16.4468999 128.311691 14.9190472 117.947087 14.9190472"></polygon>
                    <path d="M199.562797,24.5931282 C199.281751,24.0908251 198.879435,23.6658773 198.366998,23.3290944 C197.881247,23.0102147 197.286726,22.744369 196.597283,22.5366243 C195.935203,22.339689 195.192051,22.1545766 194.389447,21.9870297 C193.614542,21.8228607 192.940976,21.6607184 192.387328,21.5039809 C191.86577,21.3577151 191.434742,21.1759807 191.106742,20.9628312 C190.803063,20.7679228 190.589238,20.5405859 190.450404,20.2659574 C190.309881,19.9899779 190.238268,19.631576 190.238268,19.2018991 C190.238268,18.3276822 190.53384,17.651414 191.142211,17.135599 C191.76308,16.6093124 192.818356,16.3424533 194.280001,16.3424533 C195.092063,16.3424533 195.807178,16.4562906 196.405415,16.679574 C196.984398,16.8961014 197.518792,17.279838 197.994071,17.8206499 L198.349433,18.2243165 L199.271617,16.9538646 L199.019283,16.6937614 C198.385577,16.0421524 197.676205,15.5597792 196.910421,15.2604917 C196.153081,14.9645821 195.260286,14.8142628 194.259057,14.8142628 C193.437537,14.8142628 192.681211,14.9112103 192.007983,15.1017274 C191.324621,15.2962981 190.729761,15.5827494 190.24097,15.9536497 C189.740018,16.3333328 189.345472,16.8123279 189.068817,17.3774612 C188.792837,17.9422566 188.652314,18.5904877 188.652314,19.3059403 C188.652314,19.9852487 188.776623,20.5645694 189.023214,21.0276881 C189.269806,21.4931715 189.638342,21.8894065 190.118688,22.2059217 C190.572348,22.505547 191.137819,22.7555163 191.799225,22.9480602 C192.429552,23.1304702 193.158179,23.308151 193.965174,23.4763736 C194.756293,23.638178 195.452154,23.8131565 196.033501,23.9955665 C196.586474,24.1708828 197.049255,24.3776142 197.407657,24.611707 C197.742751,24.8312746 197.983262,25.0856352 198.142364,25.3893141 C198.302141,25.692993 198.382875,26.077743 198.382875,26.5320791 C198.382875,27.4238613 198.058928,28.0643231 197.39178,28.4909599 C196.67295,28.9493495 195.654156,29.1824289 194.362423,29.1824289 C193.304783,29.1824289 192.349495,29.0108284 191.523245,28.6737077 C190.697671,28.3362492 189.953168,27.8295547 189.308652,27.1688251 L188.966802,26.8178547 L188.00611,28.0281789 L188.286143,28.2997672 C189.110028,29.099331 190.028834,29.7009463 191.016888,30.0880608 C191.999538,30.4734864 193.117981,30.6694083 194.341142,30.6694083 C195.159284,30.6694083 195.915948,30.5846214 196.588163,30.4170744 C197.277267,30.2461495 197.879896,29.9830062 198.378146,29.6337248 C198.888556,29.2749851 199.289182,28.824027 199.567864,28.2940246 C199.847897,27.7613198 199.99011,27.1404502 199.99011,26.4486434 C199.99011,25.7250837 199.846208,25.1015117 199.562797,24.5931282" id="Fill-15"></path>
                    <polygon id="Fill-16" points="163.496116 27.7512197 153.327771 14.9183378 152.150551 14.9183378 152.150551 30.565063 153.715562 30.565063 153.715562 17.9598558 163.719062 30.565063 165.06214 30.565063 165.06214 14.939619 163.496116 14.939619"></polygon>
                    <path d="M144.214534,24.6006949 C144.214534,27.6786949 142.063784,29.0562282 139.93229,29.0562282 C137.821063,29.0562282 135.691257,27.6786949 135.691257,24.6006949 L135.691257,14.9187769 L134.164755,14.9187769 L134.164755,24.6006949 C134.164755,28.6988397 137.154591,30.5651644 139.935668,30.5651644 C142.730932,30.5432076 145.740359,28.6677625 145.740359,24.6006949 L145.740359,14.9187769 L144.214534,14.9187769 L144.214534,24.6006949 Z" id="Fill-17"></path>
                    <path d="M51.4407692,23.3318306 L46.4055773,23.3318306 L46.4055773,16.4465283 L51.2955168,16.4465283 C51.713033,16.4465283 52.0927161,16.5363821 52.4555093,16.7221701 C52.8270852,16.9123494 53.1581256,17.1670479 53.4388344,17.4798472 C53.7215699,17.7946734 53.9492446,18.165236 54.1151026,18.5807254 C54.280285,18.9931747 54.3640585,19.4258918 54.3640585,19.868405 C54.3640585,20.3041622 54.2910945,20.7409328 54.1482066,21.1675696 C54.0073456,21.5874504 53.8053434,21.9634177 53.5479426,22.2849998 C53.2966221,22.598137 52.9858495,22.8555378 52.6244075,23.0501084 C52.2751261,23.236572 51.877202,23.3318306 51.4407692,23.3318306 L51.4407692,23.3318306 Z M57.5673809,29.7246258 L52.7406094,24.6127542 C53.0382079,24.5208736 53.3216191,24.3945378 53.5867892,24.2364491 C54.0705135,23.9476332 54.495799,23.5784219 54.8504852,23.1365843 C55.2065225,22.6957601 55.4814887,22.18839 55.66829,21.6293371 C55.855767,21.0750134 55.95035,20.4821809 55.95035,19.868405 C55.95035,19.2623984 55.8361748,18.6570674 55.6112025,18.0696396 C55.3879191,17.483563 55.0683638,16.9525472 54.6630082,16.4914552 C54.2559637,16.0290121 53.7637944,15.6486534 53.198999,15.360851 C52.6227185,15.0676438 51.9890126,14.9186756 51.3161223,14.9186756 L44.8398914,14.9186756 L44.8398914,30.565063 L46.4055773,30.565063 L46.4055773,24.8590077 L50.9202251,24.8590077 L56.1702554,30.565063 L58.3605266,30.565063 L57.5673809,29.7246258 Z" id="Fill-19"></path>
                    <path d="M1.38766725,11.0121598 L1.38766725,38.775301 L9.79203952,38.775301 L9.79203952,7.6774346 L22.2827338,16.1304495 L21.3578475,16.9060299 L21.3578475,38.775301 L28.7596403,38.775301 L28.6826227,22.5671583 L24.2105373,19.9303203 L29.2994388,16.7509814 L29.2994388,8.60806344 L16.4229811,0 L8.32701691,4.18766089 L8.32701691,2.79188653 L4.24069491,4.88554807 L4.24069491,6.20396708 L0,8.45301493 C1.52244798,10.1203775 1.38766725,11.0121598 1.38766725,11.0121598" id="Fill-18"></path>
                </g>
            </g>
        </g>
    </g>
</svg>