<?xml version="1.0" encoding="UTF-8" standalone="no"?>
<svg width="200px" height="73px" viewBox="0 0 200 73" version="1.1" xmlns="http://www.w3.org/2000/svg" xmlns:xlink="http://www.w3.org/1999/xlink">
    <!-- Generator: Sketch 46 (44423) - http://www.bohemiancoding.com/sketch -->
    <title>SALSA</title>
    <desc>Created with Sketch.</desc>
    <defs></defs>
    <g id="CLIENTS-BANNERS" stroke="none" stroke-width="1" fill="none" fill-rule="evenodd">
        <g id="Salsa-Labs" transform="translate(-60.000000, -63.000000)" fill="#FFFFFF">
            <g id="Logo" transform="translate(60.000000, 63.000000)">
                <g id="SALSA">
                    <path d="M35.8620404,14.6211295 C35.8620404,14.6211295 32.4335556,11.1437611 30.3089091,5.01512941 C30.2618384,4.87899603 30.067697,4.89032362 30.0428485,5.03232307 C29.8006263,6.41873938 29.3939596,10.7385974 31.7408283,18.0910135 C31.7408283,18.0910135 33.8115354,17.1876381 35.8620404,14.6211295" id="Fill-1"></path>
                    <path d="M40.5325657,0.291948448 C39.8545859,11.1207216 35.8620606,14.5821099 35.8620606,14.5821099 C37.935596,17.1775444 40.0293333,18.0910338 40.0293333,18.0910338 C43.9745859,11.0256507 41.0465051,1.71133614 40.8016566,0.309344393 C40.7766061,0.165928991 40.5416566,0.14671254 40.5325657,0.291948448" id="Fill-3"></path>
                    <path d="M35.8620404,5.64739107 C36.867899,5.64739107 37.6832525,4.83079308 37.6832525,3.82364881 C37.6832525,2.81650454 36.867899,2.00010882 35.8620404,2.00010882 C34.8561818,2.00010882 34.0406263,2.81650454 34.0406263,3.82364881 C34.0406263,4.83079308 34.8561818,5.64739107 35.8620404,5.64739107" id="Fill-5"></path>
                    <path d="M36.0675152,57.7842704 C36.0675152,57.7842704 39.495798,61.2614365 41.6204444,67.3902704 C41.6677172,67.5264038 41.8618586,67.5148739 41.8867071,67.3730767 C42.1289293,65.9866604 42.5353939,61.6668024 40.1887273,54.314184 C40.1887273,54.314184 38.1180202,55.2177617 36.0675152,57.7842704" id="Fill-7"></path>
                    <path d="M36.0675152,57.8231685 C33.9937778,55.227734 31.9000404,54.3142447 31.9000404,54.3142447 C27.9547879,61.3796277 30.8828687,70.6939423 31.1279192,72.095934 C31.1529697,72.2395517 31.3879192,72.2587682 31.3970101,72.11333 C32.0749899,61.2847592 36.0675152,57.8231685 36.0675152,57.8231685" id="Fill-9"></path>
                    <path d="M36.0675152,66.7579885 C35.0616566,66.7579885 34.246303,67.5743842 34.246303,68.5815285 C34.246303,69.5886728 35.0616566,70.4050685 36.0675152,70.4050685 C37.0733737,70.4050685 37.8887273,69.5886728 37.8887273,68.5815285 C37.8887273,67.5743842 37.0733737,66.7579885 36.0675152,66.7579885" id="Fill-12"></path>
                    <path d="M54.0532323,31.973321 C54.0532323,31.973321 54.9554545,34.0466749 57.5186869,36.0998009 C57.5186869,36.0998009 60.9916162,32.667136 67.1126263,30.5397738 C67.2483838,30.4924407 67.2370707,30.2980511 67.0954545,30.2731709 C65.7108081,30.0306391 61.3962626,29.6236549 54.0532323,31.973321" id="Fill-14"></path>
                    <path d="M71.8296162,40.7762757 C61.0146667,40.0974294 57.557697,36.0998009 57.557697,36.0998009 C54.9655758,38.1761889 54.0532525,40.2726025 54.0532525,40.2726025 C61.1096162,44.2228978 70.4120404,41.2910743 71.8122424,41.0457106 C71.9554747,41.0206281 71.9746667,40.7853783 71.8296162,40.7762757" id="Fill-16"></path>
                    <path d="M66.4811111,36.0997806 C66.4811111,37.1069249 67.2964646,37.9233206 68.3023232,37.9233206 C69.3081818,37.9233206 70.1235354,37.1069249 70.1235354,36.0997806 C70.1235354,35.0926364 69.3081818,34.2762407 68.3023232,34.2762407 C67.2964646,34.2762407 66.4811111,35.0926364 66.4811111,36.0997806" id="Fill-18"></path>
                    <path d="M17.8763232,40.4319776 C17.8763232,40.4319776 16.974101,38.3586238 14.4108687,36.3054978 C14.4108687,36.3054978 10.9379394,39.7383649 4.81692929,41.8657271 C4.68117172,41.912858 4.69248485,42.1072475 4.83410101,42.1321278 C6.21874747,42.3746596 10.5330909,42.7818461 17.8763232,40.4319776" id="Fill-20"></path>
                    <path d="M14.3718384,36.305518 C16.9639596,34.2293323 17.8762828,32.1327164 17.8762828,32.1327164 C10.8199192,28.1826234 1.51749495,31.1142446 0.117292929,31.3596083 C-0.0261414141,31.3846908 -0.0453333333,31.6199406 0.0999191919,31.6290432 C10.9146667,32.3078895 14.3718384,36.305518 14.3718384,36.305518" id="Fill-22"></path>
                    <path d="M5.44842424,36.305518 C5.44842424,35.2983738 4.63307071,34.481978 3.62721212,34.481978 C2.62135354,34.481978 1.806,35.2983738 1.806,36.305518 C1.806,37.3126623 2.62135354,38.1292603 3.62721212,38.1292603 C4.63307071,38.1292603 5.44842424,37.3126623 5.44842424,36.305518" id="Fill-25"></path>
                    <path d="M51.1331111,20.869429 C51.1331111,20.869429 51.1646263,15.9831914 53.9904848,10.1452339 C54.0531111,10.0157757 53.9076566,9.88631748 53.7900808,9.96904936 C52.6397778,10.7779608 49.3013939,13.544725 45.7684646,20.4052001 C45.7684646,20.4052001 47.8706869,21.2323165 51.1331111,20.869429" id="Fill-27"></path>
                    <path d="M51.1606263,20.8418787 C50.7941616,24.1452876 51.6293131,26.2736612 51.6293131,26.2736612 C59.4085051,24.0710515 63.9161818,15.4115122 64.7329495,14.246793 C64.8165859,14.127651 64.6640606,13.9476232 64.5549697,14.04411 C56.428303,21.2209485 51.1606263,20.8418787 51.1606263,20.8418787" id="Fill-29"></path>
                    <path d="M60.0460606,14.5240358 C60.7573737,13.8118135 60.7573737,12.6572082 60.0460606,11.9449859 C59.3347475,11.2329659 58.1816162,11.2329659 57.470303,11.9449859 C56.7589899,12.6572082 56.7589899,13.8118135 57.470303,14.5240358 C58.1816162,15.2362581 59.3347475,15.2362581 60.0460606,14.5240358" id="Fill-31"></path>
                    <path d="M20.7964444,51.5358494 C20.7964444,51.5358494 20.7649293,56.422087 17.9390707,62.2600446 C17.8764444,62.3895028 18.021899,62.518961 18.1394747,62.4362291 C19.2897778,61.6273177 22.6281616,58.8605534 26.1610909,52.0000784 C26.1610909,52.0000784 24.0588687,51.1729619 20.7964444,51.5358494" id="Fill-33"></path>
                    <path d="M20.7689293,51.56342 C21.1353939,48.260011 20.3000404,46.1316375 20.3000404,46.1316375 C12.5208485,48.3344495 8.01337374,56.9937865 7.19660606,58.1585057 C7.1129697,58.2776477 7.26549495,58.4576755 7.37458586,58.3611886 C15.5012525,51.1843502 20.7689293,51.56342 20.7689293,51.56342" id="Fill-35"></path>
                    <path d="M11.8834949,57.8812629 C11.1721818,58.5934852 11.1721818,59.7480904 11.8834949,60.4603128 C12.5948081,61.1725351 13.7479394,61.1725351 14.4592525,60.4603128 C15.1703636,59.7480904 15.1703636,58.5934852 14.4592525,57.8812629 C13.7479394,57.1690405 12.5948081,57.1690405 11.8834949,57.8812629" id="Fill-37"></path>
                    <path d="M51.7420202,46.0189279 C51.7420202,46.0189279 50.9159596,48.1236349 51.2783838,51.3904314 C51.2783838,51.3904314 56.1581818,51.4217846 61.9888889,54.2512552 C62.1181818,54.3141638 62.2474747,54.1685233 62.1648485,54.0507973 C61.3569697,52.8988216 58.5937374,49.556373 51.7420202,46.0189279" id="Fill-39"></path>
                    <path d="M51.3059394,51.4179211 C48.0067475,51.050988 45.8810909,51.8874093 45.8810909,51.8874093 C48.0808889,59.6765446 56.7293737,64.1897807 57.8926061,65.0075924 C58.011596,65.0913357 58.1913939,64.9386155 58.0950303,64.8293851 C50.9273535,56.692331 51.3059394,51.4179211 51.3059394,51.4179211" id="Fill-41"></path>
                    <path d="M57.6157172,57.735764 C56.904404,58.4479863 56.904404,59.6025916 57.6157172,60.3148139 C58.3270303,61.0268339 59.4801616,61.0268339 60.1914747,60.3148139 C60.9025859,59.6025916 60.9025859,58.4479863 60.1914747,57.735764 C59.4801616,57.0235417 58.3270303,57.0235417 57.6157172,57.735764" id="Fill-43"></path>
                    <path d="M20.1875152,26.3864719 C20.1875152,26.3864719 21.0135758,24.2815626 20.6511515,21.0149684 C20.6511515,21.0149684 15.7711515,20.9834129 9.94064646,18.1539423 C9.81135354,18.091236 9.68206061,18.2366742 9.76468687,18.3546025 C10.5725657,19.5063759 13.335596,22.8490268 20.1875152,26.3864719" id="Fill-45"></path>
                    <path d="M20.6236162,20.9873776 C23.9228081,21.3543106 26.0484646,20.5180916 26.0484646,20.5180916 C23.8486667,12.7287541 15.2001818,8.21551794 14.0369495,7.39770627 C13.9179596,7.313963 13.7381616,7.46668321 13.8345253,7.57591356 C21.002202,15.7129677 20.6236162,20.9873776 20.6236162,20.9873776" id="Fill-47"></path>
                    <path d="M14.3138384,14.6695347 C15.0251515,13.9573123 15.0251515,12.8027071 14.3138384,12.0904848 C13.6025253,11.3784647 12.4493939,11.3784647 11.7380808,12.0904848 C11.0267677,12.8027071 11.0267677,13.9573123 11.7380808,14.6695347 C12.4493939,15.381757 13.6025253,15.381757 14.3138384,14.6695347" id="Fill-49"></path>
                    <path d="M96.7407475,43.4379968 C96.7407475,42.1330987 96.2492323,41.1192793 95.266404,40.3963362 C94.2849899,39.6742022 92.5716566,39.0517915 90.1296364,38.5301154 C87.6876162,38.007428 85.7490303,37.3813763 84.315899,36.6501398 C82.8809495,35.9189033 81.8205455,35.0489038 81.1342828,34.0395344 C80.4480202,33.0301651 80.1041818,31.8290358 80.1041818,30.4365512 C80.1041818,28.1214746 81.0825657,26.163824 83.0377172,24.5619812 C84.9928687,22.9607452 87.4928687,22.1601272 90.5342828,22.1601272 C93.7326667,22.1601272 96.3268081,22.9866368 98.3171111,24.6402629 C100.307212,26.2940913 101.303778,28.40871 101.303778,30.9843211 L96.4532727,30.9843211 C96.4532727,29.6618248 95.8932727,28.5213791 94.7718586,27.5648044 C93.6504444,26.6072183 92.2369091,26.1280208 90.5342828,26.1280208 C88.7785253,26.1280208 87.4045859,26.5111361 86.4138788,27.277569 C85.4233737,28.0431929 84.9274141,29.0440665 84.9274141,30.2795831 C84.9274141,31.4457182 85.3884242,32.3248203 86.3106465,32.9166869 C87.2310505,33.5087559 88.895697,34.0745286 91.3027677,34.6138029 C93.7112525,35.1532794 95.6619596,35.7977385 97.1575152,36.5457641 C98.6518586,37.2943966 99.7609495,38.1949401 100.482364,39.247597 C101.203374,40.301063 101.56398,41.5847219 101.56398,43.0989782 C101.56398,45.6226038 100.555293,47.6459949 98.5391313,49.1687468 C96.5231717,50.6921056 93.906,51.4530771 90.6910505,51.4530771 C88.4300404,51.4530771 86.4322626,51.0531726 84.6930707,50.2525546 C82.9554949,49.4519366 81.5952929,48.3337415 80.6122626,46.897767 C79.6308485,45.4619947 79.1395354,43.9080919 79.1395354,42.2374744 L83.9627677,42.2374744 C84.0494343,43.8561063 84.6977172,45.1397652 85.905798,46.0882487 C87.1138788,47.0371368 88.7084242,47.5110752 90.6910505,47.5110752 C92.5152929,47.5110752 93.9805455,47.1417148 95.0837778,46.4011735 C96.1884242,45.6616435 96.7407475,44.6743226 96.7407475,43.4379968" id="Fill-51"></path>
                    <path d="M117.261879,47.2497921 C118.774202,47.2497921 120.207737,46.8581811 121.563293,46.0751613 C122.919051,45.2921415 123.901879,44.2736697 124.510566,43.0205548 L124.510566,37.2244689 L124.510566,35.7365088 C124.510566,35.7365088 120.283697,37.1099793 118.071172,37.3630296 C113.932384,37.8359566 111.863495,39.5219472 111.863495,42.4203948 C111.863495,43.934651 112.368545,45.1183844 113.375818,45.9707857 C114.384707,46.823996 115.679455,47.2497921 117.261879,47.2497921 L117.261879,47.2497921 Z M125.266727,50.9312594 C124.988343,50.3745892 124.761677,49.3826158 124.588141,47.955137 C122.345515,50.2876095 119.668949,51.4531378 116.557434,51.4531378 C113.77602,51.4531378 111.493596,50.6662747 109.71198,49.0909303 C107.930162,47.515586 107.040061,45.5182888 107.040061,43.0990389 C107.040061,40.1579106 108.15703,37.8733781 110.390566,36.2456436 C112.065717,35.0252979 114.25198,34.2621014 116.949152,33.9568633 C119.068949,33.716961 121.17299,33.3532644 123.197838,32.6804864 L124.510566,32.2441718 L124.510566,31.585351 C124.510566,29.8971353 124.005313,28.5527929 122.998242,27.5511101 C121.989354,26.5508433 120.502687,26.0504065 118.538444,26.0504065 C116.817636,26.0504065 115.375212,26.4853051 114.211172,27.3553046 C113.045717,28.225911 112.462889,29.2785679 112.462889,30.5150959 L107.613798,30.5150959 C107.613798,29.105013 108.112788,27.7428701 109.112586,26.4288695 C110.112182,25.1148688 111.467737,24.0751577 113.181071,23.308927 C114.892788,22.5433032 116.77501,22.1601879 118.826121,22.1601879 C122.07602,22.1601879 124.623091,22.9737517 126.465717,24.6006771 C128.308343,26.2286138 129.263899,28.4696565 129.333798,31.3240073 L129.333798,44.3262621 C129.333798,46.9200783 129.664101,48.9819023 130.324505,50.513959 L130.324505,50.9312594 L125.266727,50.9312594 Z" id="Fill-53"></path>
                    <polygon id="Fill-55" points="142.137778 50.9312797 137.312929 50.9312797 137.312929 10.8291777 142.137778 10.8291777"></polygon>
                    <path d="M166.283152,43.4379968 C166.283152,42.1330987 165.791636,41.1192793 164.808808,40.3963362 C163.827394,39.6742022 162.114061,39.0517915 159.67204,38.5301154 C157.23002,38.007428 155.291434,37.3813763 153.858303,36.6501398 C152.423354,35.9189033 151.362949,35.0489038 150.676687,34.0395344 C149.990424,33.0301651 149.646586,31.8290358 149.646586,30.4365512 C149.646586,28.1214746 150.62497,26.163824 152.580121,24.5619812 C154.535273,22.9607452 157.035273,22.1601272 160.076687,22.1601272 C163.275071,22.1601272 165.869414,22.9866368 167.859515,24.6402629 C169.849616,26.2940913 170.846384,28.40871 170.846384,30.9843211 L165.995677,30.9843211 C165.995677,29.6618248 165.435677,28.5213791 164.314263,27.5648044 C163.193051,26.6072183 161.779515,26.1280208 160.076687,26.1280208 C158.320929,26.1280208 156.94699,26.5111361 155.956485,27.277569 C154.965778,28.0431929 154.469818,29.0440665 154.469818,30.2795831 C154.469818,31.4457182 154.93103,32.3248203 155.853051,32.9166869 C156.773455,33.5087559 158.438101,34.0745286 160.845172,34.6138029 C163.253859,35.1532794 165.204364,35.7977385 166.700121,36.5457641 C168.194263,37.2943966 169.303556,38.1949401 170.024768,39.247597 C170.74598,40.301063 171.106384,41.5847219 171.106384,43.0989782 C171.106384,45.6226038 170.097697,47.6459949 168.081737,49.1687468 C166.065576,50.6921056 163.448606,51.4530771 160.233455,51.4530771 C157.972444,51.4530771 155.974667,51.0531726 154.235475,50.2525546 C152.497899,49.4519366 151.137697,48.3337415 150.154869,46.897767 C149.173455,45.4619947 148.681939,43.9080919 148.681939,42.2374744 L153.505172,42.2374744 C153.59204,43.8561063 154.240121,45.1397652 155.448202,46.0882487 C156.656283,47.0371368 158.25103,47.5110752 160.233455,47.5110752 C162.057899,47.5110752 163.523152,47.1417148 164.626182,46.4011735 C165.730828,45.6616435 166.283152,44.6743226 166.283152,43.4379968" id="Fill-57"></path>
                    <path d="M186.802788,47.2497921 C188.315111,47.2497921 189.748646,46.8581811 191.104202,46.0751613 C192.45996,45.2921415 193.442788,44.2736697 194.051475,43.0205548 L194.051475,35.6644977 L193.821576,36.1091057 C191.762788,36.9586751 189.824606,37.1099793 187.612081,37.3630296 C183.473293,37.8359566 181.404404,39.5219472 181.404404,42.4203948 C181.404404,43.934651 181.909455,45.1183844 182.916727,45.9707857 C183.925616,46.823996 185.220364,47.2497921 186.802788,47.2497921 L186.802788,47.2497921 Z M194.807636,50.9312594 C194.529253,50.3745892 194.302586,49.3826158 194.129051,47.955137 C191.886424,50.2876095 189.209859,51.4531378 186.098343,51.4531378 C183.316929,51.4531378 181.034707,50.6662747 179.252889,49.0909303 C177.471071,47.515586 176.58097,45.5182888 176.58097,43.0990389 C176.58097,40.1579106 177.697939,37.8733781 179.931475,36.2456436 C181.606626,35.0252979 183.792889,34.2621014 186.490061,33.9568633 C188.609859,33.716961 190.713899,33.3532644 192.738747,32.6804864 L194.051475,32.2441718 L194.051475,31.585351 C194.051475,29.8971353 193.546222,28.5527929 192.539152,27.5511101 C191.530263,26.5508433 190.043596,26.0504065 188.079354,26.0504065 C186.358545,26.0504065 184.916121,26.4853051 183.752081,27.3553046 C182.586626,28.225911 182.003798,29.2785679 182.003798,30.5150959 L177.154707,30.5150959 C177.154707,29.105013 177.653697,27.7428701 178.653495,26.4288695 C179.653091,25.1148688 181.008646,24.0751577 182.72198,23.308927 C184.433697,22.5433032 186.315919,22.1601879 188.36703,22.1601879 C191.616929,22.1601879 194.164,22.9737517 196.006626,24.6006771 C197.849253,26.2286138 198.804808,28.4696565 198.874707,31.3240073 L198.874707,44.3262621 C198.874707,46.9200783 199.20501,48.9819023 199.865414,50.513959 L199.865414,50.9312594 L194.807636,50.9312594 Z" id="Fill-58"></path>
                </g>
            </g>
        </g>
    </g>
</svg>