<svg width="318px" height="771px" viewBox="0 0 318 771" version="1.1" xmlns="http://www.w3.org/2000/svg" xmlns:xlink="http://www.w3.org/1999/xlink">
    <!-- Generator: Sketch 46.2 (44496) - http://www.bohemiancoding.com/sketch -->
    <defs></defs>
    <g id="WORKFLOWS" stroke="none" stroke-width="1" fill="none" fill-rule="evenodd">
        <g id="Workflows" transform="translate(-613.000000, -797.000000)">
            <g id="Scheme-Our-Processes-&amp;-Workflows-" transform="translate(613.000000, 798.000000)">
                <g id="Sheme">
                    <g id="Links" transform="translate(150.405405, 85.913529)" stroke="#FF671B">
                        <g id="06" transform="translate(0.000000, 490.781032)">
                            <g id="Group">
                                <path d="M17.0817568,4.40306834 L10.9581081,0.859135286" id="Shape"></path>
                                <path d="M8.48716216,9.34309623 L0,4.40306834" id="Shape"></path>
                                <path d="M6.23108108,0.859135286 L0,4.40306834" id="Shape"></path>
                                <path d="M17.0817568,4.40306834 L8.48716216,9.34309623" id="Shape"></path>
                            </g>
                            <g id="Group" transform="translate(0.000000, 88.061367)">
                                <path d="M17.0817568,5.58437936 L8.48716216,0.644351464" id="Shape"></path>
                                <path d="M8.48716216,10.5244073 L0,5.58437936" id="Shape"></path>
                                <path d="M8.48716216,0.644351464 L0,5.58437936" id="Shape"></path>
                                <path d="M17.0817568,5.58437936 L8.48716216,10.5244073" id="Shape"></path>
                            </g>
                            <path d="M0,93.6457462 L0,60.2468619" id="Shape"></path>
                            <path d="M8.48716216,98.5857741 L8.48716216,65.1868898" id="Shape"></path>
                            <path d="M17.0817568,93.6457462 L17.0817568,70.4490934" id="Shape"></path>
                            <g id="Dash" opacity="0.3" transform="translate(0.000000, 4.000000)">
                                <g id="Group" transform="translate(0.000000, 0.295676)">
                                    <path d="M0,55.9511855 L0,54.8772664" id="Shape"></path>
                                    <path d="M0,52.7294282 L0,2.25523013" id="Shape" stroke-dasharray="1.9985,1.9985"></path>
                                    <path d="M0,1.18131102 L0,0.107391911" id="Shape"></path>
                                </g>
                                <g id="Group" transform="translate(7.520270, 4.591353)">
                                    <path d="M0.966891892,56.595537 L0.966891892,55.5216179" id="Shape"></path>
                                    <path d="M0.966891892,53.3737796 L0.966891892,2.89958159" id="Shape" stroke-dasharray="1.9985,1.9985"></path>
                                    <path d="M0.966891892,1.82566248 L0.966891892,0.751743375" id="Shape"></path>
                                </g>
                                <g id="Group" transform="translate(16.114865, 0.295676)">
                                    <path d="M0.966891892,66.153417 L0.966891892,65.0794979" id="Shape"></path>
                                    <path d="M0.966891892,62.9316597 L0.966891892,2.25523013" id="Shape" stroke-dasharray="2.0527,2.0527"></path>
                                    <path d="M0.966891892,1.18131102 L0.966891892,0.107391911" id="Shape"></path>
                                </g>
                            </g>
                        </g>
                        <g id="05" transform="translate(0.000000, 394.128312)">
                            <g id="Group">
                                <path d="M17.0817568,4.40306834 L10.9581081,0.859135286" id="Shape"></path>
                                <path d="M8.48716216,9.34309623 L0,4.40306834" id="Shape"></path>
                                <path d="M6.23108108,0.751743375 L0,4.40306834" id="Shape"></path>
                                <path d="M17.0817568,4.40306834 L8.48716216,9.34309623" id="Shape"></path>
                            </g>
                            <g id="Group" transform="translate(0.000000, 88.061367)">
                                <path d="M17.0817568,5.58437936 L8.48716216,0.644351464" id="Shape"></path>
                                <path d="M8.48716216,10.5244073 L0,5.58437936" id="Shape"></path>
                                <path d="M8.48716216,0.644351464 L0,5.58437936" id="Shape"></path>
                                <path d="M17.0817568,5.58437936 L8.48716216,10.5244073" id="Shape"></path>
                            </g>
                            <path d="M0,93.6457462 L0,60.2468619" id="Shape"></path>
                            <path d="M8.48716216,98.5857741 L8.48716216,65.0794979" id="Shape"></path>
                            <path d="M17.0817568,93.6457462 L17.0817568,70.4490934" id="Shape"></path>
                            <g id="Dash" opacity="0.3" transform="translate(0.000000, 4.000000)">
                                <g id="Group" transform="translate(0.000000, 0.295676)">
                                    <path d="M0,55.9511855 L0,54.8772664" id="Shape"></path>
                                    <path d="M0,52.7294282 L0,2.25523013" id="Shape" stroke-dasharray="1.9985,1.9985"></path>
                                    <path d="M0,1.18131102 L0,0.107391911" id="Shape"></path>
                                </g>
                                <g id="Group" transform="translate(7.520270, 4.591353)">
                                    <path d="M0.966891892,56.488145 L0.966891892,55.4142259" id="Shape"></path>
                                    <path d="M0.966891892,53.2663877 L0.966891892,2.89958159" id="Shape" stroke-dasharray="1.9985,1.9985"></path>
                                    <path d="M0.966891892,1.82566248 L0.966891892,0.751743375" id="Shape"></path>
                                </g>
                                <g id="Group" transform="translate(16.114865, 0.295676)">
                                    <path d="M0.966891892,66.153417 L0.966891892,65.0794979" id="Shape"></path>
                                    <path d="M0.966891892,62.9316597 L0.966891892,2.25523013" id="Shape" stroke-dasharray="2.0527,2.0527"></path>
                                    <path d="M0.966891892,1.18131102 L0.966891892,0.107391911" id="Shape"></path>
                                </g>
                            </g>
                        </g>
                        <g id="04" transform="translate(0.000000, 297.475593)">
                            <g id="Group">
                                <path d="M17.0817568,4.40306834 L10.9581081,0.859135286" id="Shape"></path>
                                <path d="M8.48716216,9.34309623 L0,4.40306834" id="Shape"></path>
                                <path d="M6.23108108,0.751743375 L0,4.40306834" id="Shape"></path>
                                <path d="M17.0817568,4.40306834 L8.48716216,9.34309623" id="Shape"></path>
                            </g>
                            <g id="Group" transform="translate(0.000000, 88.061367)">
                                <path d="M17.0817568,5.58437936 L8.48716216,0.644351464" id="Shape"></path>
                                <path d="M8.48716216,10.5244073 L0,5.58437936" id="Shape"></path>
                                <path d="M8.48716216,0.644351464 L0,5.58437936" id="Shape"></path>
                                <path d="M17.0817568,5.58437936 L8.48716216,10.5244073" id="Shape"></path>
                            </g>
                            <path d="M0,93.6457462 L0,60.2468619" id="Shape"></path>
                            <path d="M8.48716216,98.5857741 L8.48716216,65.0794979" id="Shape"></path>
                            <path d="M17.0817568,93.6457462 L17.0817568,70.4490934" id="Shape"></path>
                            <g id="Dash" opacity="0.3" transform="translate(0.000000, 4.000000)">
                                <g id="Group" transform="translate(0.000000, 0.295676)">
                                    <path d="M0,55.9511855 L0,54.8772664" id="Shape"></path>
                                    <path d="M0,52.7294282 L0,2.25523013" id="Shape" stroke-dasharray="1.9985,1.9985"></path>
                                    <path d="M0,1.18131102 L0,0.107391911" id="Shape"></path>
                                </g>
                                <g id="Group" transform="translate(7.520270, 4.591353)">
                                    <path d="M0.966891892,56.488145 L0.966891892,55.4142259" id="Shape"></path>
                                    <path d="M0.966891892,53.2663877 L0.966891892,2.89958159" id="Shape" stroke-dasharray="1.9985,1.9985"></path>
                                    <path d="M0.966891892,1.82566248 L0.966891892,0.751743375" id="Shape"></path>
                                </g>
                                <g id="Group" transform="translate(16.114865, 0.295676)">
                                    <path d="M0.966891892,66.153417 L0.966891892,65.0794979" id="Shape"></path>
                                    <path d="M0.966891892,62.9316597 L0.966891892,2.25523013" id="Shape" stroke-dasharray="2.0527,2.0527"></path>
                                    <path d="M0.966891892,1.18131102 L0.966891892,0.107391911" id="Shape"></path>
                                </g>
                            </g>
                        </g>
                        <g id="03" transform="translate(0.000000, 201.896792)">
                            <g id="Group">
                                <path d="M17.0817568,3.75871688 L10.9581081,0.214783821" id="Shape"></path>
                                <path d="M8.48716216,8.69874477 L0,3.75871688" id="Shape"></path>
                                <path d="M6.23108108,0.107391911 L0,3.75871688" id="Shape"></path>
                                <path d="M17.0817568,3.75871688 L8.48716216,8.69874477" id="Shape"></path>
                            </g>
                            <g id="Group" transform="translate(0.000000, 88.061367)">
                                <path d="M17.0817568,4.94002789 L8.48716216,0" id="Shape"></path>
                                <path d="M8.48716216,9.88005579 L0,4.94002789" id="Shape"></path>
                                <path d="M8.48716216,0 L0,4.94002789" id="Shape"></path>
                                <path d="M17.0817568,4.94002789 L8.48716216,9.88005579" id="Shape"></path>
                            </g>
                            <path d="M0,93.0013947 L0,59.6025105" id="Shape"></path>
                            <path d="M8.48716216,97.9414226 L8.48716216,64.5425384" id="Shape"></path>
                            <path d="M17.0817568,93.0013947 L17.0817568,69.804742" id="Shape"></path>
                            <g id="Dash" opacity="0.3" transform="translate(0.000000, 3.000000)">
                                <g id="Group" transform="translate(0.000000, 0.221757)">
                                    <path d="M0,56.3807531 L0,55.306834" id="Shape"></path>
                                    <path d="M0,53.1589958 L0,2.68479777" id="Shape" stroke-dasharray="1.9985,1.9985"></path>
                                    <path d="M0,1.61087866 L0,0.536959554" id="Shape"></path>
                                </g>
                                <g id="Group" transform="translate(7.520270, 5.591353)">
                                    <path d="M0.966891892,55.9511855 L0.966891892,54.8772664" id="Shape"></path>
                                    <path d="M0.966891892,52.7294282 L0.966891892,2.25523013" id="Shape" stroke-dasharray="1.9985,1.9985"></path>
                                    <path d="M0.966891892,1.18131102 L0.966891892,0.107391911" id="Shape"></path>
                                </g>
                                <g id="Group" transform="translate(16.114865, 0.221757)">
                                    <path d="M0.966891892,66.5829847 L0.966891892,65.5090656" id="Shape"></path>
                                    <path d="M0.966891892,63.3612273 L0.966891892,2.68479777" id="Shape" stroke-dasharray="2.0527,2.0527"></path>
                                    <path d="M0.966891892,1.61087866 L0.966891892,0.536959554" id="Shape"></path>
                                </g>
                            </g>
                        </g>
                        <g id="02" transform="translate(0.000000, 105.244073)">
                            <g id="Group">
                                <path d="M17.0817568,3.54393305 L10.9581081,0.107391911" id="Shape"></path>
                                <path d="M8.48716216,8.48396095 L0,3.54393305" id="Shape"></path>
                                <path d="M6.12364865,0.107391911 L0,3.54393305" id="Shape"></path>
                                <path d="M17.0817568,3.54393305 L8.48716216,8.48396095" id="Shape"></path>
                            </g>
                            <g id="Group" transform="translate(0.000000, 92.357043)">
                                <path d="M8.48716216,5.79916318 L0,0.859135286" id="Shape"></path>
                                <path d="M17.0817568,0.859135286 L8.48716216,5.79916318" id="Shape"></path>
                            </g>
                            <path d="M0,93.2161785 L0,59.8172943" id="Shape"></path>
                            <path d="M8.48716216,98.1562064 L8.48716216,64.6499303" id="Shape"></path>
                            <path d="M17.0817568,93.2161785 L17.0817568,70.0195258" id="Shape"></path>
                            <g id="Dash" opacity="0.3" transform="translate(0.000000, 3.000000)">
                                <g id="Group" transform="translate(0.000000, 0.221757)">
                                    <path d="M0,56.595537 L0,55.5216179" id="Shape"></path>
                                    <path d="M0,53.2663877 L0,2.47001395" id="Shape" stroke-dasharray="2.013,2.013"></path>
                                    <path d="M0,1.39609484 L0,0.322175732" id="Shape"></path>
                                </g>
                                <g id="Group" transform="translate(7.520270, 4.517434)">
                                    <path d="M0.966891892,57.1324965 L0.966891892,56.0585774" id="Shape"></path>
                                    <path d="M0.966891892,53.9107392 L0.966891892,3.11436541" id="Shape" stroke-dasharray="2.013,2.013"></path>
                                    <path d="M0.966891892,2.0404463 L0.966891892,0.966527197" id="Shape"></path>
                                </g>
                                <g id="Group" transform="translate(16.114865, 0.221757)">
                                    <path d="M0.966891892,66.7977685 L0.966891892,65.7238494" id="Shape"></path>
                                    <path d="M0.966891892,63.5760112 L0.966891892,2.57740586" id="Shape" stroke-dasharray="2.0652,2.0652"></path>
                                    <path d="M0.966891892,1.39609484 L0.966891892,0.322175732" id="Shape"></path>
                                </g>
                            </g>
                        </g>
                        <g id="01">
                            <g id="Group">
                                <path d="M17.0817568,5.15481172 L8.48716216,0.214783821" id="Shape"></path>
                                <path d="M8.48716216,10.0948396 L0,5.15481172" id="Shape"></path>
                                <path d="M8.48716216,0.214783821 L0,5.15481172" id="Shape"></path>
                                <path d="M17.0817568,5.15481172 L8.48716216,10.0948396" id="Shape"></path>
                            </g>
                            <g id="Group" transform="translate(0.000000, 100.948396)">
                                <path d="M8.48716216,5.79916318 L0,0.859135286" id="Shape"></path>
                                <path d="M17.0817568,0.859135286 L8.48716216,5.79916318" id="Shape"></path>
                            </g>
                            <path d="M0,101.807531 L0,68.4086471" id="Shape"></path>
                            <path d="M8.48716216,106.747559 L8.48716216,73.2412831" id="Shape"></path>
                            <path d="M17.0817568,101.807531 L17.0817568,78.6108787" id="Shape"></path>
                            <g id="Dash" opacity="0.296000466" transform="translate(0.000000, 4.000000)">
                                <g id="Group" transform="translate(0.000000, 0.295676)">
                                    <path d="M0,64.1129707 L0,63.0390516" id="Shape"></path>
                                    <path d="M0,60.8912134 L0,3.0069735" id="Shape" stroke-dasharray="1.9611,1.9611"></path>
                                    <path d="M0,1.93305439 L0,0.859135286" id="Shape"></path>
                                </g>
                                <g id="Group" transform="translate(7.520270, 5.665272)">
                                    <path d="M0.966891892,63.5760112 L0.966891892,62.5020921" id="Shape"></path>
                                    <path d="M0.966891892,60.4616457 L0.966891892,2.47001395" id="Shape" stroke-dasharray="1.9612,1.9612"></path>
                                    <path d="M0.966891892,1.50348675 L0.966891892,0.429567643" id="Shape"></path>
                                </g>
                                <g id="Group" transform="translate(16.114865, 0.295676)">
                                    <path d="M0.966891892,74.3152022 L0.966891892,73.2412831" id="Shape"></path>
                                    <path d="M0.966891892,71.0934449 L0.966891892,3.0069735" id="Shape" stroke-dasharray="2.0133,2.0133"></path>
                                    <path d="M0.966891892,1.93305439 L0.966891892,0.859135286" id="Shape"></path>
                                </g>
                            </g>
                        </g>
                    </g>
                    <g id="steps-work-top-svg" stroke="#4A4A4A">
                        <g id="Step-7" transform="translate(0.000000, 579.916318)">
                            <g id="Box">
                                <path d="M0.752027027,60.8912134 L0.752027027,67.8716876" id="Shape"></path>
                                <path d="M316.603378,121.675035 L316.603378,128.655509" id="Shape"></path>
                                <path d="M316.603378,121.675035 L211.319595,182.351464" id="Shape"></path>
                                <path d="M316.603378,128.655509 L211.319595,189.439331" id="Shape"></path>
                                <path d="M78.4256757,16.0013947 L0.752027027,60.8912134" id="Shape"></path>
                                <g id="Group" transform="translate(78.425676, 0.000000)">
                                    <path d="M27.6101351,0.107391911 L25.7837838,1.18131102" id="Shape"></path>
                                    <path d="M22.3459459,3.11436541 L3.54527027,13.9609484" id="Shape" stroke-dasharray="3.6727,3.6727"></path>
                                    <path d="M1.82635135,14.9274756 L0,16.0013947" id="Shape"></path>
                                </g>
                                <path d="M211.319595,182.351464 L0.752027027,60.8912134" id="Shape"></path>
                                <path d="M211.319595,189.439331 L0.752027027,67.8716876" id="Shape"></path>
                                <g id="Group" transform="translate(105.283784, 0.000000)">
                                    <path d="M133.645946,76.7852162 L131.819595,75.7112971" id="Shape"></path>
                                    <path d="M128.166892,73.5634589 L4.40472973,2.25523013" id="Shape" stroke-dasharray="3.9677,3.9677"></path>
                                    <path d="M2.57837838,1.18131102 L0.752027027,0.107391911" id="Shape"></path>
                                </g>
                                <path d="M316.603378,121.675035 L238.92973,76.7852162" id="Shape"></path>
                                <path d="M211.319595,182.351464 L211.319595,189.439331" id="Shape"></path>
                            </g>
                        </g>
                        <g id="Step-6" opacity="0.9" transform="translate(0.000000, 483.263598)">
                            <g id="Box">
                                <path d="M0.752027027,60.8912134 L0.752027027,67.8716876" id="Shape"></path>
                                <path d="M316.603378,121.675035 L316.603378,128.655509" id="Shape"></path>
                                <path d="M316.603378,121.675035 L211.319595,182.351464" id="Shape"></path>
                                <path d="M316.603378,128.655509 L211.319595,189.439331" id="Shape"></path>
                                <path d="M78.4256757,16.0013947 L0.752027027,60.8912134" id="Shape"></path>
                                <g id="Group" transform="translate(78.425676, 0.000000)">
                                    <path d="M27.6101351,0.107391911 L25.7837838,1.18131102" id="Shape"></path>
                                    <path d="M22.3459459,3.11436541 L3.54527027,13.9609484" id="Shape" stroke-dasharray="3.6727,3.6727"></path>
                                    <path d="M1.82635135,14.9274756 L0,16.0013947" id="Shape"></path>
                                </g>
                                <path d="M211.319595,182.351464 L0.752027027,60.8912134" id="Shape"></path>
                                <path d="M211.319595,189.439331 L0.752027027,67.8716876" id="Shape"></path>
                                <g id="Group" transform="translate(105.283784, 0.000000)">
                                    <path d="M133.645946,76.7852162 L131.819595,75.7112971" id="Shape"></path>
                                    <path d="M128.166892,73.5634589 L4.40472973,2.25523013" id="Shape" stroke-dasharray="3.9677,3.9677"></path>
                                    <path d="M2.57837838,1.18131102 L0.752027027,0.107391911" id="Shape"></path>
                                </g>
                                <path d="M316.603378,121.675035 L238.92973,76.7852162" id="Shape"></path>
                                <path d="M211.319595,182.351464 L211.319595,189.439331" id="Shape"></path>
                            </g>
                        </g>
                        <g id="Step-5" opacity="0.8" transform="translate(0.000000, 386.610879)">
                            <g id="Box">
                                <path d="M0.752027027,60.8912134 L0.752027027,67.8716876" id="Shape"></path>
                                <path d="M316.603378,121.675035 L316.603378,128.655509" id="Shape"></path>
                                <path d="M316.603378,121.675035 L211.319595,182.351464" id="Shape"></path>
                                <path d="M316.603378,128.655509 L211.319595,189.439331" id="Shape"></path>
                                <path d="M78.4256757,16.0013947 L0.752027027,60.8912134" id="Shape"></path>
                                <g id="Group" transform="translate(78.425676, 0.000000)">
                                    <path d="M27.6101351,0.107391911 L25.7837838,1.18131102" id="Shape"></path>
                                    <path d="M22.3459459,3.11436541 L3.54527027,13.9609484" id="Shape" stroke-dasharray="3.6727,3.6727"></path>
                                    <path d="M1.82635135,14.9274756 L0,16.0013947" id="Shape"></path>
                                </g>
                                <path d="M211.319595,182.351464 L0.752027027,60.8912134" id="Shape"></path>
                                <path d="M211.319595,189.439331 L0.752027027,67.8716876" id="Shape"></path>
                                <g id="Group" transform="translate(105.283784, 0.000000)">
                                    <path d="M133.645946,76.7852162 L131.819595,75.7112971" id="Shape"></path>
                                    <path d="M128.166892,73.5634589 L4.40472973,2.25523013" id="Shape" stroke-dasharray="3.9677,3.9677"></path>
                                    <path d="M2.57837838,1.18131102 L0.752027027,0.107391911" id="Shape"></path>
                                </g>
                                <path d="M316.603378,121.675035 L238.92973,76.7852162" id="Shape"></path>
                                <path d="M211.319595,182.351464 L211.319595,189.439331" id="Shape"></path>
                            </g>
                        </g>
                        <g id="Step-4" opacity="0.7" transform="translate(0.000000, 289.958159)">
                            <g id="Box">
                                <path d="M0.752027027,60.8912134 L0.752027027,67.8716876" id="Shape"></path>
                                <path d="M316.603378,121.675035 L316.603378,128.655509" id="Shape"></path>
                                <path d="M316.603378,121.675035 L211.319595,182.351464" id="Shape"></path>
                                <path d="M316.603378,128.655509 L211.319595,189.439331" id="Shape"></path>
                                <path d="M78.4256757,16.0013947 L0.752027027,60.8912134" id="Shape"></path>
                                <g id="Group" transform="translate(78.425676, 0.000000)">
                                    <path d="M27.6101351,0.107391911 L25.7837838,1.18131102" id="Shape"></path>
                                    <path d="M22.3459459,3.11436541 L3.54527027,13.9609484" id="Shape" stroke-dasharray="3.6727,3.6727"></path>
                                    <path d="M1.82635135,14.9274756 L0,16.0013947" id="Shape"></path>
                                </g>
                                <path d="M211.319595,182.351464 L0.752027027,60.8912134" id="Shape"></path>
                                <path d="M211.319595,189.439331 L0.752027027,67.8716876" id="Shape"></path>
                                <g id="Group" transform="translate(105.283784, 0.000000)">
                                    <path d="M133.645946,76.7852162 L131.819595,75.7112971" id="Shape"></path>
                                    <path d="M128.166892,73.5634589 L4.40472973,2.25523013" id="Shape" stroke-dasharray="3.9677,3.9677"></path>
                                    <path d="M2.57837838,1.18131102 L0.752027027,0.107391911" id="Shape"></path>
                                </g>
                                <path d="M316.603378,121.675035 L238.92973,76.7852162" id="Shape"></path>
                                <path d="M211.319595,182.351464 L211.319595,189.439331" id="Shape"></path>
                            </g>
                        </g>
                        <g id="Step-3" opacity="0.6" transform="translate(0.000000, 193.305439)">
                            <g id="Box">
                                <path d="M0.752027027,60.8912134 L0.752027027,67.8716876" id="Shape"></path>
                                <path d="M316.603378,121.675035 L316.603378,128.655509" id="Shape"></path>
                                <path d="M316.603378,121.675035 L211.319595,182.351464" id="Shape"></path>
                                <path d="M316.603378,128.655509 L211.319595,189.439331" id="Shape"></path>
                                <path d="M78.4256757,16.0013947 L0.752027027,60.8912134" id="Shape"></path>
                                <g id="Group" transform="translate(78.425676, 0.000000)">
                                    <path d="M27.6101351,0.107391911 L25.7837838,1.18131102" id="Shape"></path>
                                    <path d="M22.3459459,3.11436541 L3.54527027,13.9609484" id="Shape" stroke-dasharray="3.6727,3.6727"></path>
                                    <path d="M1.82635135,14.9274756 L0,16.0013947" id="Shape"></path>
                                </g>
                                <path d="M211.319595,182.351464 L0.752027027,60.8912134" id="Shape"></path>
                                <path d="M211.319595,189.439331 L0.752027027,67.8716876" id="Shape"></path>
                                <g id="Group" transform="translate(105.283784, 0.000000)">
                                    <path d="M133.645946,76.7852162 L131.819595,75.7112971" id="Shape"></path>
                                    <path d="M128.166892,73.5634589 L4.40472973,2.25523013" id="Shape" stroke-dasharray="3.9677,3.9677"></path>
                                    <path d="M2.57837838,1.18131102 L0.752027027,0.107391911" id="Shape"></path>
                                </g>
                                <path d="M316.603378,121.675035 L238.92973,76.7852162" id="Shape"></path>
                                <path d="M211.319595,182.351464 L211.319595,189.439331" id="Shape"></path>
                            </g>
                        </g>
                        <g id="Step-2" transform="translate(0.000000, 96.652720)" opacity="0.5">
                            <g id="Box">
                                <path d="M0.752027027,60.8912134 L0.752027027,67.8716876" id="Shape"></path>
                                <path d="M316.603378,121.675035 L316.603378,128.655509" id="Shape"></path>
                                <path d="M316.603378,121.675035 L211.319595,182.351464" id="Shape"></path>
                                <path d="M316.603378,128.655509 L211.319595,189.439331" id="Shape"></path>
                                <path d="M78.4256757,16.0013947 L0.752027027,60.8912134" id="Shape"></path>
                                <path d="M106.035811,0.107391911 L104.209459,1.18131102" id="Shape"></path>
                                <path d="M100.771622,3.11436541 L81.9709459,13.9609484" id="Shape" stroke-dasharray="3.6727,3.6727"></path>
                                <path d="M80.252027,14.9274756 L78.4256757,16.0013947" id="Shape"></path>
                                <path d="M211.319595,182.351464 L0.752027027,60.8912134" id="Shape"></path>
                                <path d="M211.319595,189.439331 L0.752027027,67.8716876" id="Shape"></path>
                                <path d="M238.92973,76.7852162 L237.103378,75.7112971" id="Shape"></path>
                                <path d="M233.450676,73.5634589 L109.688514,2.25523013" id="Shape" stroke-dasharray="3.9677,3.9677"></path>
                                <path d="M107.862162,1.18131102 L106.035811,0.107391911" id="Shape"></path>
                                <path d="M316.603378,121.675035 L238.92973,76.7852162" id="Shape"></path>
                                <path d="M211.319595,182.351464 L211.319595,189.439331" id="Shape"></path>
                            </g>
                        </g>
                        <g id="Step-1" opacity="0.4" stroke-linecap="round">
                            <g id="Box">
                                <path d="M0.752027027,60.8912134 L0.752027027,67.8716876" id="Shape"></path>
                                <path d="M316.603378,121.675035 L316.603378,128.655509" id="Shape"></path>
                                <path d="M316.603378,121.675035 L211.319595,182.351464" id="Shape"></path>
                                <path d="M316.603378,128.655509 L211.319595,189.439331" id="Shape"></path>
                                <path d="M106.035811,0.107391911 L0.752027027,60.8912134" id="Shape"></path>
                                <path d="M211.319595,182.351464 L0.752027027,60.8912134" id="Shape"></path>
                                <path d="M211.319595,189.439331 L0.752027027,67.8716876" id="Shape"></path>
                                <path d="M316.603378,121.675035 L106.035811,0.107391911" id="Shape"></path>
                                <path d="M211.319595,182.351464 L211.319595,189.439331" id="Shape"></path>
                            </g>
                        </g>
                    </g>
                </g>
            </g>
        </g>
    </g>
</svg>