<?xml version="1.0" encoding="UTF-8" standalone="no"?>
<svg width="480px" height="875px" viewBox="0 0 480 875" version="1.1" xmlns="http://www.w3.org/2000/svg" xmlns:xlink="http://www.w3.org/1999/xlink">
    <!-- Generator: Sketch 46.2 (44496) - http://www.bohemiancoding.com/sketch -->
    <title>Active_4</title>
    <desc>Created with Sketch.</desc>
    <defs></defs>
    <g id="WORKFLOWS" stroke="none" stroke-width="1" fill="none" fill-rule="evenodd">
        <g id="Workflows" transform="translate(-465.000000, -3374.000000)">
            <g id="Talents-Pipeline" transform="translate(0.000000, 2616.000000)">
                <g transform="translate(465.000000, 758.000000)" id="Scheme-Talents-Pipeline">
                    <g>
                        <g id="Active_4" transform="translate(0.995851, 0.000000)">
                            <g id="_x30_5_4_" opacity="0.2" transform="translate(168.076535, 634.074631)" stroke="#4A4A4A">
                                <g id="Group" opacity="0.6" transform="translate(70.102273, 41.922290)">
                                    <g id="Shape">
                                        <path d="M71.0313397,0.524028621 L68.1596803,2.27079069"></path>
                                        <path d="M62.2474404,5.76431483 L6.58792449,39.0401323" stroke-dasharray="8.0181,8.0181"></path>
                                        <path d="M3.63180453,40.7868943 L0.675684563,42.5336564"></path>
                                    </g>
                                </g>
                                <g id="Group" opacity="0.6">
                                    <g id="Shape">
                                        <path d="M70.777958,0.436690517 L67.9062986,2.18345259"></path>
                                        <path d="M61.9940587,5.67697673 L6.33454278,38.9527941" stroke-dasharray="8.0181,8.0181"></path>
                                        <path d="M3.37842282,40.6995562 L0.422302852,42.4463183"></path>
                                    </g>
                                </g>
                                <g id="Group" transform="translate(0.000000, 155.461824)">
                                    <g id="Shape">
                                        <path d="M70.777958,0.611366724 L67.9062986,2.35812879"></path>
                                        <path d="M61.9940587,5.85165293 L6.33454278,39.1274704" stroke-dasharray="8.0181,8.0181"></path>
                                        <path d="M3.37842282,40.8742324 L0.422302852,42.6209945"></path>
                                    </g>
                                </g>
                                <g id="Group" opacity="0.6" transform="translate(0.000000, 41.922290)">
                                    <g id="Shape">
                                        <path d="M0.422302852,0.524028621 L3.37842282,2.27079069"></path>
                                        <path d="M9.20620218,5.76431483 L64.9501787,39.0401323" stroke-dasharray="8.0181,8.0181"></path>
                                        <path d="M67.9062986,40.7868943 L70.777958,42.5336564"></path>
                                    </g>
                                </g>
                                <path d="M141.133613,198.082819 L70.777958,240.092446" id="Shape"></path>
                                <path d="M0.422302852,198.082819 L70.777958,240.092446" id="Shape"></path>
                                <g id="Group" opacity="0.6" transform="translate(70.102273, 0.000000)">
                                    <g id="Shape">
                                        <path d="M0.675684563,0.436690517 L3.63180453,2.18345259"></path>
                                        <path d="M9.45958389,5.67697673 L65.2035604,38.9527941" stroke-dasharray="8.0181,8.0181"></path>
                                        <path d="M68.1596803,40.6995562 L71.0313397,42.4463183"></path>
                                    </g>
                                </g>
                                <g id="Group" transform="translate(70.102273, 155.461824)">
                                    <g id="Shape">
                                        <path d="M0.675684563,0.611366724 L3.63180453,2.35812879"></path>
                                        <path d="M9.45958389,5.85165293 L65.2035604,39.1274704" stroke-dasharray="8.0181,8.0181"></path>
                                        <path d="M68.1596803,40.8742324 L71.0313397,42.6209945"></path>
                                    </g>
                                </g>
                                <path d="M0.422302852,62.9707726 L0.422302852,198.082819" id="Shape"></path>
                                <g id="Group" opacity="0.6" transform="translate(0.000000, 41.922290)">
                                    <g id="Shape">
                                        <path d="M0.422302852,0.524028621 L0.422302852,4.01755276"></path>
                                        <path d="M0.422302852,8.55913414 L0.422302852,15.2841681" stroke-dasharray="5.1504,5.1504"></path>
                                        <path d="M0.422302852,17.5549588 L0.422302852,21.0484829"></path>
                                    </g>
                                </g>
                                <path d="M141.133613,63.4948012 L141.133613,198.082819" id="Shape"></path>
                                <g id="Group" opacity="0.6" transform="translate(141.049153, 41.922290)">
                                    <g id="Shape">
                                        <path d="M0.0844605704,0.524028621 L0.0844605704,4.01755276"></path>
                                        <path d="M0.0844605704,8.73381035 L0.0844605704,15.7208586" stroke-dasharray="5.3501,5.3501"></path>
                                        <path d="M0.0844605704,18.0789874 L0.0844605704,21.5725116"></path>
                                    </g>
                                </g>
                                <path d="M70.777958,104.9804 L70.777958,240.092446" id="Shape"></path>
                            </g>
                            <g id="_x30_4_4_" transform="translate(130.913884, 461.145186)" stroke="#FF671B">
                                <path d="M215.374455,64.8922109 L107.940609,128.998379" id="Shape"></path>
                                <path d="M89.3592835,11.790644 L0.591223993,64.8922109" id="Shape"></path>
                                <path d="M107.940609,0.698704828 L89.3592835,11.790644" id="Shape"></path>
                                <g id="Group" transform="translate(0.000000, 149.348157)">
                                    <path d="M107.940609,0.26201431 L105.06895,2.00877638" id="Shape"></path>
                                    <path d="M99.0722491,5.58963862 L6.50346392,60.8746581" id="Shape" stroke-dasharray="8.167299999999999,8.167299999999999"></path>
                                    <path d="M3.46288339,62.7087583 L0.591223993,64.4555204" id="Shape"></path>
                                </g>
                                <path d="M0.591223993,64.8922109 L107.940609,128.998379" id="Shape"></path>
                                <path d="M215.374455,213.803677 L107.940609,277.909845" id="Shape"></path>
                                <path d="M0.591223993,213.803677 L107.940609,277.909845" id="Shape"></path>
                                <path d="M126.521935,11.790644 L215.374455,64.8922109" id="Shape"></path>
                                <path d="M107.940609,0.698704828 L126.521935,11.790644" id="Shape"></path>
                                <g id="Group" transform="translate(107.264924, 149.348157)">
                                    <path d="M0.675684563,0.26201431 L3.63180453,2.00877638" id="Shape"></path>
                                    <path d="M9.62850503,5.58963862 L102.19729,60.8746581" id="Shape" stroke-dasharray="8.167299999999999,8.167299999999999"></path>
                                    <path d="M105.15341,62.7087583 L108.10953,64.4555204" id="Shape"></path>
                                </g>
                                <path d="M0.591223993,83.9319174 L0.591223993,213.803677" id="Shape"></path>
                                <path d="M0.591223993,64.8922109 L0.591223993,83.9319174" id="Shape"></path>
                                <path d="M215.374455,83.9319174 L215.374455,213.803677" id="Shape"></path>
                                <path d="M215.374455,64.8922109 L215.374455,83.9319174" id="Shape"></path>
                                <path d="M107.940609,128.998379 L107.940609,277.909845" id="Shape"></path>
                                <g id="Group" transform="translate(107.264924, 0.000000)">
                                    <path d="M0.675684563,0.698704828 L0.675684563,4.19222897" id="Shape"></path>
                                    <path d="M0.675684563,11.3539535 L0.675684563,121.923992" id="Shape" stroke-dasharray="8.167299999999999,8.167299999999999"></path>
                                    <path d="M0.675684563,125.504855 L0.675684563,128.998379" id="Shape"></path>
                                </g>
                            </g>
                            <g id="_x30_3_4_" opacity="0.6" transform="translate(97.974262, 290.835885)" stroke="#4A4A4A">
                                <g id="Group" transform="translate(140.204547, 84.717960)">
                                    <g id="Shape">
                                        <path d="M141.640377,0.174676207 L138.684257,1.92143828"></path>
                                        <path d="M132.856477,5.41496242 L6.58792449,80.8750838" stroke-dasharray="8.0303,8.0303"></path>
                                        <path d="M3.63180453,82.6218459 L0.675684563,84.368608"></path>
                                    </g>
                                </g>
                                <g id="Group">
                                    <g id="Shape">
                                        <path d="M140.880231,0.786042931 L138.008572,2.532805"></path>
                                        <path d="M132.096332,6.02632914 L5.82777936,81.3991124" stroke-dasharray="8.0303,8.0303"></path>
                                        <path d="M2.87165939,83.1458745 L0,84.8926366"></path>
                                    </g>
                                </g>
                                <g id="Group" transform="translate(0.000000, 84.717960)">
                                    <g id="Shape">
                                        <path d="M0,0.174676207 L2.87165939,1.92143828"></path>
                                        <path d="M8.78389933,5.41496242 L135.052452,80.8750838" stroke-dasharray="8.0303,8.0303"></path>
                                        <path d="M138.008572,82.6218459 L140.880231,84.368608"></path>
                                    </g>
                                </g>
                                <g id="Group" transform="translate(140.204547, 0.000000)">
                                    <g id="Shape">
                                        <path d="M0.675684563,0.786042931 L3.63180453,2.532805"></path>
                                        <path d="M9.45958389,6.02632914 L135.812597,81.3991124" stroke-dasharray="8.0303,8.0303"></path>
                                        <path d="M138.684257,83.1458745 L141.640377,84.8926366"></path>
                                    </g>
                                </g>
                                <g id="Group" opacity="0.2" transform="translate(140.204547, 254.153881)">
                                    <g id="Shape">
                                        <path d="M108.10953,0.0873381035 L105.15341,1.83410017"></path>
                                        <path d="M99.2411703,5.41496242 L6.58792449,60.6999819" stroke-dasharray="8.167299999999999,8.167299999999999"></path>
                                        <path d="M3.63180453,62.5340821 L0.675684563,64.2808442"></path>
                                    </g>
                                </g>
                                <path d="M281.844924,234.240794 L248.314077,254.241219" id="Shape"></path>
                                <g id="Group" transform="translate(0.000000, 149.348157)">
                                    <g id="Shape">
                                        <path d="M140.880231,0.786042931 L138.008572,2.532805"></path>
                                        <path d="M132.096332,6.02632914 L5.82777936,81.3991124" stroke-dasharray="8.0303,8.0303"></path>
                                        <path d="M2.87165939,83.1458745 L0,84.8926366"></path>
                                    </g>
                                </g>
                                <g id="Group" opacity="0.2" transform="translate(32.939622, 254.153881)">
                                    <g id="Shape">
                                        <path d="M0.591223993,0.0873381035 L3.46288339,1.83410017"></path>
                                        <path d="M9.45958389,5.41496242 L102.028369,60.6999819" stroke-dasharray="8.1675,8.1675"></path>
                                        <path d="M105.06895,62.5340821 L107.940609,64.2808442"></path>
                                    </g>
                                </g>
                                <path d="M0,234.240794 L33.5308465,254.241219" id="Shape"></path>
                                <g id="Group" transform="translate(140.204547, 149.348157)">
                                    <g id="Shape">
                                        <path d="M0.675684563,0.786042931 L3.63180453,2.532805"></path>
                                        <path d="M9.45958389,6.02632914 L135.812597,81.3991124" stroke-dasharray="8.0303,8.0303"></path>
                                        <path d="M138.684257,83.1458745 L141.640377,84.8926366"></path>
                                    </g>
                                </g>
                                <path d="M281.844924,109.085291 L281.844924,234.240794" id="Shape"></path>
                                <g id="Group" transform="translate(281.253700, 84.717960)">
                                    <g id="Shape">
                                        <path d="M0.591223993,0.174676207 L0.591223993,3.66820035"></path>
                                        <path d="M0.591223993,9.43251518 L0.591223993,17.9916493" stroke-dasharray="6.5525,6.5525"></path>
                                        <path d="M0.591223993,20.8738067 L0.591223993,24.3673309"></path>
                                    </g>
                                </g>
                                <path d="M0,109.085291 L0,234.240794" id="Shape"></path>
                                <g id="Group" transform="translate(0.000000, 84.717960)">
                                    <g id="Shape">
                                        <path d="M0,0.174676207 L0,3.66820035"></path>
                                        <path d="M0,9.43251518 L0,17.9916493" stroke-dasharray="6.5525,6.5525"></path>
                                        <path d="M0,20.8738067 L0,24.3673309"></path>
                                    </g>
                                </g>
                            </g>
                            <g id="_x30_2_4_" opacity="0.8" transform="translate(56.588582, 135.374060)" stroke="#4A4A4A">
                                <path d="M364.19398,109.434644 L182.265911,217.995906" id="Shape" stroke-dasharray="8"></path>
                                <path d="M182.265911,0.786042931 L0.422302852,109.434644" id="Shape" stroke-dasharray="8"></path>
                                <path d="M182.265911,131.443846 L0.422302852,240.092446" id="Shape" stroke-dasharray="8"></path>
                                <path d="M0.422302852,109.434644 L182.265911,217.995906" id="Shape" stroke-dasharray="8"></path>
                                <g id="Group" opacity="0.2" transform="translate(181.590226, 337.125079)">
                                    <g id="Shape">
                                        <path d="M19.2570101,0.436690517 L16.3853507,2.18345259"></path>
                                        <path d="M12.0778616,4.71625759 L5.74331879,8.55913414" stroke-dasharray="5.7998,5.7998"></path>
                                        <path d="M3.63180453,9.78186759 L0.675684563,11.5286297"></path>
                                    </g>
                                </g>
                                <path d="M364.19398,240.092446 L200.847236,337.56177" id="Shape"></path>
                                <g id="Group" opacity="0.2" transform="translate(163.008901, 337.125079)">
                                    <g id="Shape">
                                        <path d="M0.675684563,0.436690517 L3.63180453,2.18345259"></path>
                                        <path d="M7.85483305,4.71625759 L14.2738364,8.55913414" stroke-dasharray="5.8007,5.8007"></path>
                                        <path d="M16.3853507,9.78186759 L19.2570101,11.5286297"></path>
                                    </g>
                                </g>
                                <path d="M0.422302852,240.092446 L163.684586,337.56177" id="Shape"></path>
                                <path d="M182.265911,0.786042931 L364.19398,109.434644" id="Shape" stroke-dasharray="8"></path>
                                <path d="M182.265911,131.443846 L364.19398,240.092446" id="Shape" stroke-dasharray="8"></path>
                                <path d="M0.422302852,141.749742 L0.422302852,240.092446" id="Shape"></path>
                                <path d="M0.422302852,109.434644 L0.422302852,141.749742" id="Shape" stroke-dasharray="8"></path>
                                <path d="M364.19398,141.749742 L364.19398,240.092446" id="Shape"></path>
                                <path d="M364.19398,109.434644 L364.19398,141.749742" id="Shape" stroke-dasharray="8"></path>
                                <path d="M182.265911,250.311005 L182.265911,326.469831" id="Shape"></path>
                                <path d="M182.265911,0.786042931 L182.265911,131.443846" id="Shape" stroke-dasharray="8"></path>
                            </g>
                            <g id="_x30_1_4_" stroke="#4A4A4A">
                                <path d="M477.793447,143.409166 L238.854493,286.119627" id="Shape"></path>
                                <path d="M238.854493,0.786042931 L0,143.409166" id="Shape"></path>
                                <g id="Group" transform="translate(0.000000, 100.438819)">
                                    <path d="M238.854493,0 L235.982834,1.74676207" id="Shape"></path>
                                    <path d="M229.986133,5.32762431 L5.91223993,139.042261" id="Shape" stroke-dasharray="8.1699,8.1699"></path>
                                    <path d="M2.87165939,140.876361 L0,142.623123" id="Shape"></path>
                                </g>
                                <path d="M0,143.409166 L238.854493,286.119627" id="Shape"></path>
                                <path d="M477.793447,243.061942 L238.854493,385.685065" id="Shape"></path>
                                <path d="M0,243.061942 L238.854493,385.685065" id="Shape"></path>
                                <path d="M238.854493,0.786042931 L477.793447,143.409166" id="Shape"></path>
                                <g id="Group" transform="translate(238.178809, 100.438819)">
                                    <path d="M0.675684563,0 L3.63180453,1.74676207" id="Shape"></path>
                                    <path d="M9.62850503,5.32762431 L233.702398,139.042261" id="Shape" stroke-dasharray="8.1699,8.1699"></path>
                                    <path d="M236.658518,140.876361 L239.614638,142.623123" id="Shape"></path>
                                </g>
                                <path d="M0,143.409166 L0,243.061942" id="Shape"></path>
                                <path d="M477.793447,143.409166 L477.793447,243.061942" id="Shape"></path>
                                <path d="M238.854493,286.119627 L238.854493,383.938303" id="Shape"></path>
                                <g id="Group" transform="translate(238.178809, 0.000000)">
                                    <path d="M0.675684563,0.786042931 L0.675684563,4.27956707" id="Shape"></path>
                                    <path d="M0.675684563,11.4412916 L0.675684563,93.3644326" id="Shape" stroke-dasharray="8.156599999999999,8.156599999999999"></path>
                                    <path d="M0.675684563,96.9452949 L0.675684563,100.438819" id="Shape"></path>
                                </g>
                            </g>
                        </g>
                    </g>
                </g>
            </g>
        </g>
    </g>
</svg>