<?xml version="1.0" encoding="UTF-8" standalone="no"?>
<svg width="480px" height="875px" viewBox="0 0 480 875" version="1.1" xmlns="http://www.w3.org/2000/svg" xmlns:xlink="http://www.w3.org/1999/xlink">
    <!-- Generator: Sketch 46.2 (44496) - http://www.bohemiancoding.com/sketch -->
    <title>Static</title>
    <desc>Created with Sketch.</desc>
    <defs></defs>
    <g id="WORKFLOWS" stroke="none" stroke-width="1" fill="none" fill-rule="evenodd">
        <g id="Workflows" transform="translate(-465.000000, -3374.000000)" stroke="#4A4A4A">
            <g id="Talents-Pipeline" transform="translate(0.000000, 2616.000000)">
                <g transform="translate(465.000000, 758.000000)" id="Scheme-Talents-Pipeline">
                    <g>
                        <g id="Static" transform="translate(0.995851, 0.000000)">
                            <g id="_x30_5" opacity="0.2" transform="translate(168.076535, 634.074631)">
                                <g id="Group" transform="translate(70.102273, 41.922290)">
                                    <g id="Shape">
                                        <path d="M71.1158003,0.524028621 L68.1596803,2.27079069"></path>
                                        <path d="M62.331901,5.76431483 L6.58792449,39.0401323" stroke-dasharray="8.0181,8.0181"></path>
                                        <path d="M3.63180453,40.7868943 L0.760145134,42.5336564"></path>
                                    </g>
                                </g>
                                <g id="Group">
                                    <g id="Shape">
                                        <path d="M70.8624186,0.436690517 L67.9062986,2.18345259"></path>
                                        <path d="M62.0785193,5.67697673 L6.33454278,38.9527941" stroke-dasharray="8.0181,8.0181"></path>
                                        <path d="M3.37842282,40.6995562 L0.506763423,42.4463183"></path>
                                    </g>
                                </g>
                                <g id="Group" transform="translate(0.000000, 155.461824)">
                                    <g id="Shape">
                                        <path d="M70.8624186,0.611366724 L67.9062986,2.35812879"></path>
                                        <path d="M62.0785193,5.85165293 L6.33454278,39.1274704" stroke-dasharray="8.0181,8.0181"></path>
                                        <path d="M3.37842282,40.8742324 L0.506763423,42.6209945"></path>
                                    </g>
                                </g>
                                <g id="Group" transform="translate(0.000000, 41.922290)">
                                    <g id="Shape">
                                        <path d="M0.506763423,0.524028621 L3.37842282,2.27079069"></path>
                                        <path d="M9.29066275,5.76431483 L64.9501787,39.0401323" stroke-dasharray="8.0181,8.0181"></path>
                                        <path d="M67.9062986,40.7868943 L70.8624186,42.5336564"></path>
                                    </g>
                                </g>
                                <path d="M141.218074,198.082819 L70.8624186,240.092446" id="Shape"></path>
                                <path d="M0.506763423,198.082819 L70.8624186,240.092446" id="Shape"></path>
                                <g id="Group" transform="translate(70.102273, 0.000000)">
                                    <g id="Shape">
                                        <path d="M0.760145134,0.436690517 L3.63180453,2.18345259"></path>
                                        <path d="M9.54404446,5.67697673 L65.2880209,38.9527941" stroke-dasharray="8.0181,8.0181"></path>
                                        <path d="M68.1596803,40.6995562 L71.1158003,42.4463183"></path>
                                    </g>
                                </g>
                                <g id="Group" transform="translate(70.102273, 155.461824)">
                                    <g id="Shape">
                                        <path d="M0.760145134,0.611366724 L3.63180453,2.35812879"></path>
                                        <path d="M9.54404446,5.85165293 L65.2880209,39.1274704" stroke-dasharray="8.0181,8.0181"></path>
                                        <path d="M68.1596803,40.8742324 L71.1158003,42.6209945"></path>
                                    </g>
                                </g>
                                <path d="M0.506763423,62.9707726 L0.506763423,198.082819" id="Shape"></path>
                                <g id="Group" transform="translate(0.000000, 41.922290)">
                                    <g id="Shape">
                                        <path d="M0.506763423,0.524028621 L0.506763423,4.01755276"></path>
                                        <path d="M0.506763423,8.55913414 L0.506763423,15.2841681" stroke-dasharray="5.1504,5.1504"></path>
                                        <path d="M0.506763423,17.5549588 L0.506763423,21.0484829"></path>
                                    </g>
                                </g>
                                <path d="M141.218074,63.4948012 L141.218074,198.082819" id="Shape"></path>
                                <g id="Group" transform="translate(141.049153, 41.922290)">
                                    <g id="Shape">
                                        <path d="M0.168921141,0.524028621 L0.168921141,4.01755276"></path>
                                        <path d="M0.168921141,8.73381035 L0.168921141,15.7208586" stroke-dasharray="5.3501,5.3501"></path>
                                        <path d="M0.168921141,18.0789874 L0.168921141,21.5725116"></path>
                                    </g>
                                </g>
                                <path d="M70.8624186,104.9804 L70.8624186,240.092446" id="Shape"></path>
                            </g>
                            <g id="_x30_4" opacity="0.4" transform="translate(130.913884, 461.145186)">
                                <g id="Group" transform="translate(107.264924, 64.630197)">
                                    <g id="Shape">
                                        <path d="M108.193991,0.26201431 L105.237871,2.00877638"></path>
                                        <path d="M99.2411703,5.50230052 L6.67238506,60.78732" stroke-dasharray="8.167299999999999,8.167299999999999"></path>
                                        <path d="M3.63180453,62.6214202 L0.760145134,64.3681823"></path>
                                    </g>
                                </g>
                                <g id="Group">
                                    <g id="Shape">
                                        <path d="M108.02507,0.698704828 L105.06895,2.4454669"></path>
                                        <path d="M99.0722491,6.02632914 L6.50346392,61.3113486" stroke-dasharray="8.167299999999999,8.167299999999999"></path>
                                        <path d="M3.54734396,63.1454488 L0.591223993,64.8922109"></path>
                                    </g>
                                </g>
                                <g id="Group" transform="translate(0.000000, 149.348157)">
                                    <g id="Shape">
                                        <path d="M108.02507,0.26201431 L105.06895,2.00877638"></path>
                                        <path d="M99.0722491,5.58963862 L6.50346392,60.8746581" stroke-dasharray="8.167299999999999,8.167299999999999"></path>
                                        <path d="M3.54734396,62.7087583 L0.591223993,64.4555204"></path>
                                    </g>
                                </g>
                                <g id="Group" transform="translate(0.000000, 64.630197)">
                                    <g id="Shape">
                                        <path d="M0.591223993,0.26201431 L3.54734396,2.00877638"></path>
                                        <path d="M9.45958389,5.50230052 L102.11283,60.78732" stroke-dasharray="8.167299999999999,8.167299999999999"></path>
                                        <path d="M105.06895,62.6214202 L108.02507,64.3681823"></path>
                                    </g>
                                </g>
                                <path d="M215.458915,213.803677 L108.02507,277.909845" id="Shape"></path>
                                <path d="M0.591223993,213.803677 L108.02507,277.909845" id="Shape"></path>
                                <g id="Group" transform="translate(107.264924, 0.000000)">
                                    <g id="Shape">
                                        <path d="M0.760145134,0.698704828 L3.63180453,2.4454669"></path>
                                        <path d="M9.62850503,6.02632914 L102.281751,61.3113486" stroke-dasharray="8.167299999999999,8.167299999999999"></path>
                                        <path d="M105.237871,63.1454488 L108.193991,64.8922109"></path>
                                    </g>
                                </g>
                                <g id="Group" transform="translate(107.264924, 149.348157)">
                                    <g id="Shape">
                                        <path d="M0.760145134,0.26201431 L3.63180453,2.00877638"></path>
                                        <path d="M9.62850503,5.58963862 L102.281751,60.8746581" stroke-dasharray="8.167299999999999,8.167299999999999"></path>
                                        <path d="M105.237871,62.7087583 L108.193991,64.4555204"></path>
                                    </g>
                                </g>
                                <path d="M0.591223993,83.9319174 L0.591223993,213.803677" id="Shape"></path>
                                <g id="Group" transform="translate(0.000000, 64.630197)">
                                    <g id="Shape">
                                        <path d="M0.591223993,0.26201431 L0.591223993,3.75553845"></path>
                                        <path d="M0.591223993,7.77309121 L0.591223993,13.7994203" stroke-dasharray="4.6295,4.6295"></path>
                                        <path d="M0.591223993,15.8081967 L0.591223993,19.3017209"></path>
                                    </g>
                                </g>
                                <path d="M215.458915,83.9319174 L215.458915,213.803677" id="Shape"></path>
                                <g id="Group" transform="translate(215.374455, 64.630197)">
                                    <g id="Shape">
                                        <path d="M0.0844605704,0.26201431 L0.0844605704,3.75553845"></path>
                                        <path d="M0.0844605704,7.77309121 L0.0844605704,13.7994203" stroke-dasharray="4.6295,4.6295"></path>
                                        <path d="M0.0844605704,15.8081967 L0.0844605704,19.3017209"></path>
                                    </g>
                                </g>
                                <path d="M108.02507,148.125423 L108.02507,277.909845" id="Shape"></path>
                            </g>
                            <g id="_x30_3" opacity="0.6" transform="translate(97.974262, 290.835885)">
                                <g id="Group" transform="translate(140.204547, 84.717960)">
                                    <g id="Shape">
                                        <path d="M141.724837,0.174676207 L138.768717,1.92143828"></path>
                                        <path d="M132.856477,5.41496242 L6.58792449,80.8750838" stroke-dasharray="8.0303,8.0303"></path>
                                        <path d="M3.63180453,82.6218459 L0.760145134,84.368608"></path>
                                    </g>
                                </g>
                                <g id="Group">
                                    <g id="Shape">
                                        <path d="M140.964692,0.786042931 L138.008572,2.532805"></path>
                                        <path d="M132.180793,6.02632914 L5.82777936,81.3991124" stroke-dasharray="8.0303,8.0303"></path>
                                        <path d="M2.95611997,83.1458745 L0,84.8926366"></path>
                                    </g>
                                </g>
                                <g id="Group" transform="translate(0.000000, 84.717960)">
                                    <g id="Shape">
                                        <path d="M0,0.174676207 L2.95611997,1.92143828"></path>
                                        <path d="M8.78389933,5.41496242 L135.052452,80.8750838" stroke-dasharray="8.0303,8.0303"></path>
                                        <path d="M138.008572,82.6218459 L140.964692,84.368608"></path>
                                    </g>
                                </g>
                                <g id="Group" transform="translate(140.204547, 0.000000)">
                                    <g id="Shape">
                                        <path d="M0.760145134,0.786042931 L3.63180453,2.532805"></path>
                                        <path d="M9.54404446,6.02632914 L135.812597,81.3991124" stroke-dasharray="8.0303,8.0303"></path>
                                        <path d="M138.768717,83.1458745 L141.724837,84.8926366"></path>
                                    </g>
                                </g>
                                <path d="M281.929384,234.240794 L140.964692,318.434725" id="Shape"></path>
                                <g id="Group" transform="translate(0.000000, 149.348157)">
                                    <g id="Shape">
                                        <path d="M140.964692,0.786042931 L138.008572,2.532805"></path>
                                        <path d="M132.180793,6.02632914 L5.82777936,81.3991124" stroke-dasharray="8.0303,8.0303"></path>
                                        <path d="M2.95611997,83.1458745 L0,84.8926366"></path>
                                    </g>
                                </g>
                                <path d="M0,234.240794 L140.964692,318.434725" id="Shape"></path>
                                <g id="Group" transform="translate(140.204547, 149.348157)">
                                    <g id="Shape">
                                        <path d="M0.760145134,0.786042931 L3.63180453,2.532805"></path>
                                        <path d="M9.54404446,6.02632914 L135.812597,81.3991124" stroke-dasharray="8.0303,8.0303"></path>
                                        <path d="M138.768717,83.1458745 L141.724837,84.8926366"></path>
                                    </g>
                                </g>
                                <path d="M140.964692,192.143828 L140.964692,318.434725" id="Shape"></path>
                                <path d="M281.929384,109.085291 L281.929384,234.240794" id="Shape"></path>
                                <g id="Group" transform="translate(281.253700, 84.717960)">
                                    <g id="Shape">
                                        <path d="M0.675684563,0.174676207 L0.675684563,3.66820035"></path>
                                        <path d="M0.675684563,9.43251518 L0.675684563,17.9916493" stroke-dasharray="6.5525,6.5525"></path>
                                        <path d="M0.675684563,20.8738067 L0.675684563,24.3673309"></path>
                                    </g>
                                </g>
                                <path d="M0,109.085291 L0,234.240794" id="Shape"></path>
                                <g id="Group" transform="translate(0.000000, 84.717960)">
                                    <g id="Shape">
                                        <path d="M0,0.174676207 L0,3.66820035"></path>
                                        <path d="M0,9.43251518 L0,17.9916493" stroke-dasharray="6.5525,6.5525"></path>
                                        <path d="M0,20.8738067 L0,24.3673309"></path>
                                    </g>
                                </g>
                            </g>
                            <g id="_x30_2" opacity="0.8" transform="translate(56.588582, 135.374060)">
                                <path d="M364.27844,109.434644 L182.350372,217.995906" id="Shape" stroke-dasharray="8"></path>
                                <path d="M182.350372,0.786042931 L0.422302852,109.434644" id="Shape" stroke-dasharray="8"></path>
                                <path d="M182.350372,131.443846 L0.422302852,240.092446" id="Shape" stroke-dasharray="8"></path>
                                <path d="M0.422302852,109.434644 L182.350372,217.995906" id="Shape" stroke-dasharray="8"></path>
                                <path d="M364.27844,240.092446 L182.350372,348.653709" id="Shape"></path>
                                <path d="M0.422302852,240.092446 L182.350372,348.653709" id="Shape"></path>
                                <path d="M182.350372,0.786042931 L364.27844,109.434644" id="Shape" stroke-dasharray="8"></path>
                                <path d="M182.350372,131.443846 L364.27844,240.092446" id="Shape" stroke-dasharray="8"></path>
                                <path d="M0.422302852,141.749742 L0.422302852,240.092446" id="Shape"></path>
                                <path d="M0.422302852,109.434644 L0.422302852,141.749742" id="Shape" stroke-dasharray="8"></path>
                                <path d="M364.27844,141.749742 L364.27844,240.092446" id="Shape"></path>
                                <path d="M364.27844,109.434644 L364.27844,141.749742" id="Shape" stroke-dasharray="8"></path>
                                <path d="M182.350372,250.311005 L182.350372,348.653709" id="Shape"></path>
                                <path d="M182.350372,0.786042931 L182.350372,131.443846" id="Shape" stroke-dasharray="8"></path>
                            </g>
                            <g id="_x30_1">
                                <path d="M477.793447,143.409166 L238.938954,286.119627" id="Shape"></path>
                                <path d="M238.938954,0.786042931 L0,143.409166" id="Shape"></path>
                                <g id="Group" transform="translate(0.000000, 100.438819)">
                                    <path d="M238.938954,0 L235.982834,1.74676207" id="Shape"></path>
                                    <path d="M229.986133,5.32762431 L5.91223993,139.042261" id="Shape" stroke-dasharray="8.1699,8.1699"></path>
                                    <path d="M2.95611997,140.876361 L0,142.623123" id="Shape"></path>
                                </g>
                                <path d="M0,143.409166 L238.938954,286.119627" id="Shape"></path>
                                <path d="M477.793447,243.061942 L238.938954,385.685065" id="Shape"></path>
                                <path d="M0,243.061942 L238.938954,385.685065" id="Shape"></path>
                                <path d="M238.938954,0.786042931 L477.793447,143.409166" id="Shape"></path>
                                <g id="Group" transform="translate(238.178809, 100.438819)">
                                    <path d="M0.760145134,0 L3.63180453,1.74676207" id="Shape"></path>
                                    <path d="M9.62850503,5.32762431 L233.702398,139.042261" id="Shape" stroke-dasharray="8.1699,8.1699"></path>
                                    <path d="M236.742979,140.876361 L239.614638,142.623123" id="Shape"></path>
                                </g>
                                <path d="M0,143.409166 L0,243.061942" id="Shape"></path>
                                <path d="M477.793447,143.409166 L477.793447,243.061942" id="Shape"></path>
                                <path d="M238.938954,286.119627 L238.938954,383.938303" id="Shape"></path>
                                <g id="Group" transform="translate(238.178809, 0.000000)">
                                    <path d="M0.760145134,0.786042931 L0.760145134,4.27956707" id="Shape"></path>
                                    <path d="M0.760145134,11.4412916 L0.760145134,93.3644326" id="Shape" stroke-dasharray="8.156599999999999,8.156599999999999"></path>
                                    <path d="M0.760145134,96.9452949 L0.760145134,100.438819" id="Shape"></path>
                                </g>
                            </g>
                        </g>
                    </g>
                </g>
            </g>
        </g>
    </g>
</svg>