<?xml version="1.0" encoding="UTF-8" standalone="no"?>
<svg width="480px" height="875px" viewBox="0 0 480 875" version="1.1" xmlns="http://www.w3.org/2000/svg" xmlns:xlink="http://www.w3.org/1999/xlink">
    <!-- Generator: Sketch 46.2 (44496) - http://www.bohemiancoding.com/sketch -->
    <title>Active_3</title>
    <desc>Created with Sketch.</desc>
    <defs></defs>
    <g id="WORKFLOWS" stroke="none" stroke-width="1" fill="none" fill-rule="evenodd">
        <g id="Workflows" transform="translate(-464.000000, -3374.000000)">
            <g id="Talents-Pipeline" transform="translate(0.000000, 2616.000000)">
                <g transform="translate(465.000000, 758.000000)" id="Scheme-Talents-Pipeline">
                    <g>
                        <g id="Active_3">
                            <g id="_x30_5_3_" opacity="0.2" transform="translate(168.149032, 634.074631)" stroke="#4A4A4A">
                                <g id="Group" transform="translate(70.977481, 41.922290)">
                                    <g id="Shape">
                                        <path d="M70.5549957,0.524028621 L67.6820976,2.27079069"></path>
                                        <path d="M61.7673076,5.76431483 L6.08378406,39.0401323" stroke-dasharray="8.0181,8.0181"></path>
                                        <path d="M3.12638903,40.7868943 L0.168994002,42.5336564"></path>
                                    </g>
                                </g>
                                <g id="Group">
                                    <g id="Shape">
                                        <path d="M71.1464747,0.436690517 L68.2735766,2.18345259"></path>
                                        <path d="M62.3587866,5.67697673 L6.59076606,38.9527941" stroke-dasharray="8.0181,8.0181"></path>
                                        <path d="M3.71786804,40.6995562 L0.760473007,42.4463183"></path>
                                    </g>
                                </g>
                                <g id="Group" transform="translate(0.000000, 155.461824)">
                                    <g id="Shape">
                                        <path d="M71.1464747,0.611366724 L68.2735766,2.35812879"></path>
                                        <path d="M62.3587866,5.85165293 L6.59076606,39.1274704" stroke-dasharray="8.0181,8.0181"></path>
                                        <path d="M3.71786804,40.8742324 L0.760473007,42.6209945"></path>
                                    </g>
                                </g>
                                <g id="Group" transform="translate(0.000000, 41.922290)">
                                    <g id="Shape">
                                        <path d="M0.760473007,0.524028621 L3.71786804,2.27079069"></path>
                                        <path d="M9.54816109,5.76431483 L65.3161816,39.0401323" stroke-dasharray="8.0181,8.0181"></path>
                                        <path d="M68.2735766,40.7868943 L71.1464747,42.5336564"></path>
                                    </g>
                                </g>
                                <path d="M141.532476,198.082819 L71.1464747,240.092446" id="Shape"></path>
                                <path d="M0.760473007,198.082819 L71.1464747,240.092446" id="Shape"></path>
                                <g id="Group" transform="translate(70.977481, 0.000000)">
                                    <g id="Shape">
                                        <path d="M0.168994002,0.436690517 L3.12638903,2.18345259"></path>
                                        <path d="M8.95668208,5.67697673 L64.7247026,38.9527941" stroke-dasharray="8.0181,8.0181"></path>
                                        <path d="M67.6820976,40.6995562 L70.5549957,42.4463183"></path>
                                    </g>
                                </g>
                                <g id="Group" transform="translate(70.977481, 155.461824)">
                                    <g id="Shape">
                                        <path d="M0.168994002,0.611366724 L3.12638903,2.35812879"></path>
                                        <path d="M8.95668208,5.85165293 L64.7247026,39.1274704" stroke-dasharray="8.0181,8.0181"></path>
                                        <path d="M67.6820976,40.8742324 L70.5549957,42.6209945"></path>
                                    </g>
                                </g>
                                <path d="M0.760473007,62.9707726 L0.760473007,198.082819" id="Shape"></path>
                                <g id="Group" transform="translate(0.000000, 41.922290)">
                                    <g id="Shape">
                                        <path d="M0.760473007,0.524028621 L0.760473007,4.01755276"></path>
                                        <path d="M0.760473007,8.55913414 L0.760473007,15.2841681" stroke-dasharray="5.1504,5.1504"></path>
                                        <path d="M0.760473007,17.5549588 L0.760473007,21.0484829"></path>
                                    </g>
                                </g>
                                <path d="M141.532476,63.4948012 L141.532476,198.082819" id="Shape"></path>
                                <g id="Group" transform="translate(141.109991, 41.922290)">
                                    <g id="Shape">
                                        <path d="M0.422485004,0.524028621 L0.422485004,4.01755276"></path>
                                        <path d="M0.422485004,8.73381035 L0.422485004,15.7208586" stroke-dasharray="5.3501,5.3501"></path>
                                        <path d="M0.422485004,18.0789874 L0.422485004,21.5725116"></path>
                                    </g>
                                </g>
                                <path d="M71.1464747,104.9804 L71.1464747,240.092446" id="Shape"></path>
                            </g>
                            <g id="_x30_4_3_" opacity="0.4" transform="translate(131.815321, 461.145186)" stroke="#4A4A4A">
                                <g id="Group" opacity="0.35" transform="translate(107.311191, 64.630197)">
                                    <g id="Shape">
                                        <path d="M107.649179,0.26201431 L104.691784,2.00877638"></path>
                                        <path d="M98.7769939,5.50230052 L6.08378406,60.78732" stroke-dasharray="8.167299999999999,8.167299999999999"></path>
                                        <path d="M3.12638903,62.6214202 L0.168994002,64.3681823"></path>
                                    </g>
                                </g>
                                <g id="Group" opacity="0.35">
                                    <g id="Shape">
                                        <path d="M107.480185,0.698704828 L104.607287,2.4454669"></path>
                                        <path d="M98.6079999,6.02632914 L5.99928706,61.3113486" stroke-dasharray="8.167299999999999,8.167299999999999"></path>
                                        <path d="M2.95739503,63.1454488 L0.0844970008,64.8922109"></path>
                                    </g>
                                </g>
                                <g id="Group" transform="translate(0.000000, 149.348157)">
                                    <g id="Shape">
                                        <path d="M107.480185,0.26201431 L104.607287,2.00877638"></path>
                                        <path d="M98.6079999,5.58963862 L5.99928706,60.8746581" stroke-dasharray="8.167299999999999,8.167299999999999"></path>
                                        <path d="M2.95739503,62.7087583 L0.0844970008,64.4555204"></path>
                                    </g>
                                </g>
                                <g id="Group" opacity="0.35" transform="translate(0.000000, 64.630197)">
                                    <g id="Shape">
                                        <path d="M0.0844970008,0.26201431 L2.95739503,2.00877638"></path>
                                        <path d="M8.95668208,5.50230052 L101.565395,60.78732" stroke-dasharray="8.167299999999999,8.167299999999999"></path>
                                        <path d="M104.607287,62.6214202 L107.480185,64.3681823"></path>
                                    </g>
                                </g>
                                <path d="M214.96037,213.803677 L107.480185,277.909845" id="Shape"></path>
                                <path d="M0.0844970008,213.803677 L107.480185,277.909845" id="Shape"></path>
                                <g id="Group" opacity="0.35" transform="translate(107.311191, 0.000000)">
                                    <g id="Shape">
                                        <path d="M0.168994002,0.698704828 L3.12638903,2.4454669"></path>
                                        <path d="M9.12567609,6.02632914 L101.734389,61.3113486" stroke-dasharray="8.167299999999999,8.167299999999999"></path>
                                        <path d="M104.691784,63.1454488 L107.649179,64.8922109"></path>
                                    </g>
                                </g>
                                <g id="Group" transform="translate(107.311191, 149.348157)">
                                    <g id="Shape">
                                        <path d="M0.168994002,0.26201431 L3.12638903,2.00877638"></path>
                                        <path d="M9.12567609,5.58963862 L101.734389,60.8746581" stroke-dasharray="8.167299999999999,8.167299999999999"></path>
                                        <path d="M104.691784,62.7087583 L107.649179,64.4555204"></path>
                                    </g>
                                </g>
                                <path d="M0.0844970008,83.9319174 L0.0844970008,213.803677" id="Shape"></path>
                                <g id="Group" opacity="0.35" transform="translate(0.000000, 64.630197)">
                                    <g id="Shape">
                                        <path d="M0.0844970008,0.26201431 L0.0844970008,3.75553845"></path>
                                        <path d="M0.0844970008,7.77309121 L0.0844970008,13.7994203" stroke-dasharray="4.6295,4.6295"></path>
                                        <path d="M0.0844970008,15.8081967 L0.0844970008,19.3017209"></path>
                                    </g>
                                </g>
                                <path d="M214.96037,83.9319174 L214.96037,213.803677" id="Shape"></path>
                                <g id="Group" opacity="0.35" transform="translate(214.622382, 64.630197)">
                                    <g id="Shape">
                                        <path d="M0.337988003,0.26201431 L0.337988003,3.75553845"></path>
                                        <path d="M0.337988003,7.77309121 L0.337988003,13.7994203" stroke-dasharray="4.6295,4.6295"></path>
                                        <path d="M0.337988003,15.8081967 L0.337988003,19.3017209"></path>
                                    </g>
                                </g>
                                <path d="M107.480185,148.125423 L107.480185,277.909845" id="Shape"></path>
                            </g>
                            <g id="_x30_3_3_" transform="translate(98.016521, 290.835885)" stroke="#FF671B">
                                <path d="M282.30448,84.8926366 L141.278985,169.086568" id="Shape"></path>
                                <path d="M141.278985,0.786042931 L0.253491002,84.8926366" id="Shape"></path>
                                <path d="M0.253491002,84.8926366 L141.278985,169.086568" id="Shape"></path>
                                <path d="M193.075647,31.6163935 L282.30448,84.8926366" id="Shape"></path>
                                <path d="M141.278985,0.786042931 L193.075647,31.6163935" id="Shape"></path>
                                <path d="M282.30448,234.240794 L141.278985,318.434725" id="Shape"></path>
                                <g id="Group" transform="translate(0.000000, 149.348157)">
                                    <path d="M141.278985,0.786042931 L138.406087,2.532805" id="Shape"></path>
                                    <path d="M132.491297,6.02632914 L6.16828106,81.3991124" id="Shape" stroke-dasharray="8.0303,8.0303"></path>
                                    <path d="M3.21088603,83.1458745 L0.253491002,84.8926366" id="Shape"></path>
                                </g>
                                <path d="M0.253491002,234.240794 L141.278985,318.434725" id="Shape"></path>
                                <g id="Group" transform="translate(141.109991, 149.348157)">
                                    <path d="M0.168994002,0.786042931 L3.12638903,2.532805" id="Shape"></path>
                                    <path d="M8.95668208,6.02632914 L135.364195,81.3991124" id="Shape" stroke-dasharray="8.0303,8.0303"></path>
                                    <path d="M138.237093,83.1458745 L141.194488,84.8926366" id="Shape"></path>
                                </g>
                                <path d="M141.278985,169.086568 L141.278985,318.434725" id="Shape"></path>
                                <path d="M282.30448,109.085291 L282.30448,234.240794" id="Shape"></path>
                                <path d="M282.30448,84.8926366 L282.30448,109.085291" id="Shape"></path>
                                <path d="M0.253491002,109.085291 L0.253491002,234.240794" id="Shape"></path>
                                <path d="M0.253491002,84.8926366 L0.253491002,109.085291" id="Shape"></path>
                                <g id="Group" transform="translate(141.109991, 0.000000)">
                                    <path d="M0.168994002,0.786042931 L0.168994002,4.27956707" id="Shape"></path>
                                    <path d="M0.168994002,11.004601 L0.168994002,143.23449" id="Shape" stroke-dasharray="7.7615,7.7615"></path>
                                    <path d="M0.168994002,146.640676 L0.168994002,150.1342" id="Shape"></path>
                                </g>
                            </g>
                            <g id="_x30_2_3_" opacity="0.8" transform="translate(56.612991, 135.374060)" stroke="#4A4A4A">
                                <path d="M234.479177,187.078218 L182.682516,217.995906" id="Shape" opacity="0.2" stroke-dasharray="8"></path>
                                <path d="M364.689055,109.434644 L234.479177,187.078218" id="Shape" stroke-dasharray="8"></path>
                                <path d="M182.682516,0.786042931 L0.760473007,109.434644" id="Shape" stroke-dasharray="8"></path>
                                <path d="M182.682516,131.443846 L0.760473007,240.092446" id="Shape" stroke-dasharray="8"></path>
                                <path d="M130.970351,187.078218 L182.682516,217.995906" id="Shape" opacity="0.2" stroke-dasharray="8"></path>
                                <path d="M0.760473007,109.434644 L130.970351,187.078218" id="Shape" stroke-dasharray="8"></path>
                                <g id="Group" opacity="0.2" transform="translate(182.513522, 263.761072)">
                                    <g id="Shape">
                                        <path d="M141.194488,0.786042931 L138.237093,2.532805"></path>
                                        <path d="M132.4068,6.02632914 L6.08378406,81.3991124" stroke-dasharray="8.0303,8.0303"></path>
                                        <path d="M3.12638903,83.1458745 L0.168994002,84.8926366"></path>
                                    </g>
                                </g>
                                <path d="M364.689055,240.092446 L323.70801,264.547115" id="Shape"></path>
                                <g id="Group" opacity="0.2" transform="translate(41.403530, 263.761072)">
                                    <g id="Shape">
                                        <path d="M0.253491002,0.786042931 L3.21088603,2.532805"></path>
                                        <path d="M9.12567609,6.02632914 L135.448692,81.3991124" stroke-dasharray="8.0305,8.0305"></path>
                                        <path d="M138.406087,83.1458745 L141.278985,84.8926366"></path>
                                    </g>
                                </g>
                                <path d="M0.760473007,240.092446 L41.6570214,264.547115" id="Shape"></path>
                                <path d="M182.682516,0.786042931 L364.689055,109.434644" id="Shape" stroke-dasharray="8"></path>
                                <path d="M182.682516,131.443846 L364.689055,240.092446" id="Shape" stroke-dasharray="8"></path>
                                <path d="M0.760473007,141.749742 L0.760473007,240.092446" id="Shape"></path>
                                <path d="M0.760473007,109.434644 L0.760473007,141.749742" id="Shape" stroke-dasharray="8"></path>
                                <path d="M364.689055,141.749742 L364.689055,240.092446" id="Shape"></path>
                                <path d="M364.689055,109.434644 L364.689055,141.749742" id="Shape" stroke-dasharray="8"></path>
                                <path d="M182.682516,0.786042931 L182.682516,131.443846" id="Shape" stroke-dasharray="8"></path>
                            </g>
                            <g id="_x30_1_3_" stroke="#4A4A4A">
                                <path d="M478.337522,143.409166 L239.295506,286.119627" id="Shape"></path>
                                <path d="M239.295506,0.786042931 L0.337988003,143.409166" id="Shape"></path>
                                <g id="Group" transform="translate(0.000000, 100.438819)">
                                    <path d="M239.295506,0 L236.422608,1.74676207" id="Shape"></path>
                                    <path d="M230.423321,5.32762431 L6.25277806,139.042261" id="Shape" stroke-dasharray="8.1699,8.1699"></path>
                                    <path d="M3.21088603,140.876361 L0.337988003,142.623123" id="Shape"></path>
                                </g>
                                <path d="M0.337988003,143.409166 L239.295506,286.119627" id="Shape"></path>
                                <path d="M318.131208,338.609827 L239.295506,385.685065" id="Shape" opacity="0.2" stroke-dasharray="8"></path>
                                <path d="M478.337522,243.061942 L318.131208,338.609827" id="Shape"></path>
                                <path d="M160.459805,338.609827 L239.295506,385.685065" id="Shape" opacity="0.2" stroke-dasharray="8"></path>
                                <path d="M0.337988003,243.061942 L160.459805,338.609827" id="Shape"></path>
                                <path d="M239.295506,0.786042931 L478.337522,143.409166" id="Shape"></path>
                                <g id="Group" transform="translate(239.126512, 100.438819)">
                                    <path d="M0.168994002,0 L3.12638903,1.74676207" id="Shape"></path>
                                    <path d="M9.12567609,5.32762431 L233.296219,139.042261" id="Shape" stroke-dasharray="8.1699,8.1699"></path>
                                    <path d="M236.253614,140.876361 L239.211009,142.623123" id="Shape"></path>
                                </g>
                                <path d="M0.337988003,143.409166 L0.337988003,243.061942" id="Shape"></path>
                                <path d="M478.337522,143.409166 L478.337522,243.061942" id="Shape"></path>
                                <path d="M239.295506,286.119627 L239.295506,291.621927" id="Shape"></path>
                                <g id="Group" transform="translate(239.126512, 0.000000)">
                                    <path d="M0.168994002,0.786042931 L0.168994002,4.27956707" id="Shape"></path>
                                    <path d="M0.168994002,11.4412916 L0.168994002,93.3644326" id="Shape" stroke-dasharray="8.156599999999999,8.156599999999999"></path>
                                    <path d="M0.168994002,96.9452949 L0.168994002,100.438819" id="Shape"></path>
                                </g>
                            </g>
                        </g>
                    </g>
                </g>
            </g>
        </g>
    </g>
</svg>