<?xml version="1.0" encoding="UTF-8" standalone="no"?>
<svg width="480px" height="875px" viewBox="0 0 480 875" version="1.1" xmlns="http://www.w3.org/2000/svg" xmlns:xlink="http://www.w3.org/1999/xlink">
    <!-- Generator: Sketch 46.2 (44496) - http://www.bohemiancoding.com/sketch -->
    <title>Active_1</title>
    <desc>Created with Sketch.</desc>
    <defs></defs>
    <g id="WORKFLOWS" stroke="none" stroke-width="1" fill="none" fill-rule="evenodd">
        <g id="Workflows" transform="translate(-465.000000, -3374.000000)">
            <g id="Talents-Pipeline" transform="translate(0.000000, 2616.000000)">
                <g transform="translate(465.000000, 758.000000)" id="Scheme-Talents-Pipeline">
                    <g>
                        <g id="Active_1">
                            <g id="_x30_5_1_" opacity="0.2" transform="translate(168.994002, 634.074631)" stroke="#4A4A4A">
                                <g id="Group" transform="translate(70.132511, 41.922290)">
                                    <g id="Shape">
                                        <path d="M70.8084867,0.524028621 L67.8510916,2.27079069"></path>
                                        <path d="M62.0207986,5.76431483 L6.25277806,39.0401323" stroke-dasharray="8.0181,8.0181"></path>
                                        <path d="M3.37988003,40.7868943 L0.422485004,42.5336564"></path>
                                    </g>
                                </g>
                                <g id="Group">
                                    <g id="Shape">
                                        <path d="M70.5549957,0.436690517 L67.5976006,2.18345259"></path>
                                        <path d="M61.7673076,5.67697673 L5.99928706,38.9527941" stroke-dasharray="8.0181,8.0181"></path>
                                        <path d="M3.04189203,40.6995562 L0.168994002,42.4463183"></path>
                                    </g>
                                </g>
                                <g id="Group" transform="translate(0.000000, 155.461824)">
                                    <g id="Shape">
                                        <path d="M70.5549957,0.611366724 L67.5976006,2.35812879"></path>
                                        <path d="M61.7673076,5.85165293 L5.99928706,39.1274704" stroke-dasharray="8.0181,8.0181"></path>
                                        <path d="M3.04189203,40.8742324 L0.168994002,42.6209945"></path>
                                    </g>
                                </g>
                                <g id="Group" transform="translate(0.000000, 41.922290)">
                                    <g id="Shape">
                                        <path d="M0.168994002,0.524028621 L3.04189203,2.27079069"></path>
                                        <path d="M8.95668208,5.76431483 L64.7247026,39.0401323" stroke-dasharray="8.0181,8.0181"></path>
                                        <path d="M67.5976006,40.7868943 L70.5549957,42.5336564"></path>
                                    </g>
                                </g>
                                <path d="M140.940997,198.082819 L70.5549957,240.092446" id="Shape"></path>
                                <path d="M0.168994002,198.082819 L70.5549957,240.092446" id="Shape"></path>
                                <g id="Group" transform="translate(70.132511, 0.000000)">
                                    <g id="Shape">
                                        <path d="M0.422485004,0.436690517 L3.37988003,2.18345259"></path>
                                        <path d="M9.21017309,5.67697673 L64.9781936,38.9527941" stroke-dasharray="8.0181,8.0181"></path>
                                        <path d="M67.8510916,40.6995562 L70.8084867,42.4463183"></path>
                                    </g>
                                </g>
                                <g id="Group" transform="translate(70.132511, 155.461824)">
                                    <g id="Shape">
                                        <path d="M0.422485004,0.611366724 L3.37988003,2.35812879"></path>
                                        <path d="M9.21017309,5.85165293 L64.9781936,39.1274704" stroke-dasharray="8.0181,8.0181"></path>
                                        <path d="M67.8510916,40.8742324 L70.8084867,42.6209945"></path>
                                    </g>
                                </g>
                                <path d="M0.168994002,62.9707726 L0.168994002,198.082819" id="Shape"></path>
                                <g id="Group" transform="translate(0.000000, 41.922290)">
                                    <g id="Shape">
                                        <path d="M0.168994002,0.524028621 L0.168994002,4.01755276"></path>
                                        <path d="M0.168994002,8.55913414 L0.168994002,15.2841681" stroke-dasharray="5.1504,5.1504"></path>
                                        <path d="M0.168994002,17.5549588 L0.168994002,21.0484829"></path>
                                    </g>
                                </g>
                                <path d="M140.940997,63.4948012 L140.940997,198.082819" id="Shape"></path>
                                <g id="Group" transform="translate(140.265021, 41.922290)">
                                    <g id="Shape">
                                        <path d="M0.675976006,0.524028621 L0.675976006,4.01755276"></path>
                                        <path d="M0.675976006,8.73381035 L0.675976006,15.7208586" stroke-dasharray="5.3501,5.3501"></path>
                                        <path d="M0.675976006,18.0789874 L0.675976006,21.5725116"></path>
                                    </g>
                                </g>
                                <path d="M70.5549957,104.9804 L70.5549957,240.092446" id="Shape"></path>
                            </g>
                            <g id="_x30_4_1_" opacity="0.4" transform="translate(131.815321, 461.145186)" stroke="#4A4A4A">
                                <g id="Group" transform="translate(107.311191, 64.630197)">
                                    <g id="Shape">
                                        <path d="M107.90267,0.26201431 L104.945275,2.00877638"></path>
                                        <path d="M98.9459879,5.50230052 L6.33727506,60.78732" stroke-dasharray="8.167299999999999,8.167299999999999"></path>
                                        <path d="M3.37988003,62.6214202 L0.422485004,64.3681823"></path>
                                    </g>
                                </g>
                                <g id="Group">
                                    <g id="Shape">
                                        <path d="M107.733676,0.698704828 L104.776281,2.4454669"></path>
                                        <path d="M98.7769939,6.02632914 L6.16828106,61.3113486" stroke-dasharray="8.167299999999999,8.167299999999999"></path>
                                        <path d="M3.21088603,63.1454488 L0.253491002,64.8922109"></path>
                                    </g>
                                </g>
                                <g id="Group" transform="translate(0.000000, 149.348157)">
                                    <g id="Shape">
                                        <path d="M107.733676,0.26201431 L104.776281,2.00877638"></path>
                                        <path d="M98.7769939,5.58963862 L6.16828106,60.8746581" stroke-dasharray="8.167299999999999,8.167299999999999"></path>
                                        <path d="M3.21088603,62.7087583 L0.253491002,64.4555204"></path>
                                    </g>
                                </g>
                                <g id="Group" transform="translate(0.000000, 64.630197)">
                                    <g id="Shape">
                                        <path d="M0.253491002,0.26201431 L3.21088603,2.00877638"></path>
                                        <path d="M9.21017309,5.50230052 L101.818886,60.78732" stroke-dasharray="8.167299999999999,8.167299999999999"></path>
                                        <path d="M104.776281,62.6214202 L107.733676,64.3681823"></path>
                                    </g>
                                </g>
                                <path d="M215.213861,213.803677 L107.733676,277.909845" id="Shape"></path>
                                <path d="M0.253491002,213.803677 L107.733676,277.909845" id="Shape"></path>
                                <g id="Group" transform="translate(107.311191, 0.000000)">
                                    <g id="Shape">
                                        <path d="M0.422485004,0.698704828 L3.37988003,2.4454669"></path>
                                        <path d="M9.29467009,6.02632914 L101.98788,61.3113486" stroke-dasharray="8.167299999999999,8.167299999999999"></path>
                                        <path d="M104.945275,63.1454488 L107.90267,64.8922109"></path>
                                    </g>
                                </g>
                                <g id="Group" transform="translate(107.311191, 149.348157)">
                                    <g id="Shape">
                                        <path d="M0.422485004,0.26201431 L3.37988003,2.00877638"></path>
                                        <path d="M9.29467009,5.58963862 L101.98788,60.8746581" stroke-dasharray="8.167299999999999,8.167299999999999"></path>
                                        <path d="M104.945275,62.7087583 L107.90267,64.4555204"></path>
                                    </g>
                                </g>
                                <path d="M0.253491002,83.9319174 L0.253491002,213.803677" id="Shape"></path>
                                <g id="Group" transform="translate(0.000000, 64.630197)">
                                    <g id="Shape">
                                        <path d="M0.253491002,0.26201431 L0.253491002,3.75553845"></path>
                                        <path d="M0.253491002,7.77309121 L0.253491002,13.7994203" stroke-dasharray="4.6295,4.6295"></path>
                                        <path d="M0.253491002,15.8081967 L0.253491002,19.3017209"></path>
                                    </g>
                                </g>
                                <path d="M215.213861,83.9319174 L215.213861,213.803677" id="Shape"></path>
                                <g id="Group" transform="translate(214.622382, 64.630197)">
                                    <g id="Shape">
                                        <path d="M0.591479006,0.26201431 L0.591479006,3.75553845"></path>
                                        <path d="M0.591479006,7.77309121 L0.591479006,13.7994203" stroke-dasharray="4.6295,4.6295"></path>
                                        <path d="M0.591479006,15.8081967 L0.591479006,19.3017209"></path>
                                    </g>
                                </g>
                                <path d="M107.733676,148.125423 L107.733676,277.909845" id="Shape"></path>
                            </g>
                            <g id="_x30_3_1_" opacity="0.6" transform="translate(98.016521, 290.835885)" stroke="#4A4A4A">
                                <g id="Group" transform="translate(141.109991, 84.717960)">
                                    <g id="Shape">
                                        <path d="M141.447979,0.174676207 L138.490584,1.92143828"></path>
                                        <path d="M132.575794,5.41496242 L6.25277806,80.8750838" stroke-dasharray="8.0303,8.0303"></path>
                                        <path d="M3.37988003,82.6218459 L0.422485004,84.368608"></path>
                                    </g>
                                </g>
                                <g id="Group" transform="translate(0.000000, 47.162576)">
                                    <g id="Shape">
                                        <path d="M62.6967746,0.611366724 L59.7393796,2.35812879"></path>
                                        <path d="M53.4866015,6.11366724 L6.59076606,34.1491985" stroke-dasharray="8.5532,8.5532"></path>
                                        <path d="M3.46437703,35.9832986 L0.506982005,37.7300607"></path>
                                    </g>
                                </g>
                                <g id="Group" opacity="0.2" transform="translate(62.527781, 0.000000)">
                                    <g id="Shape">
                                        <path d="M79.0046957,0.786042931 L76.0473007,2.532805"></path>
                                        <path d="M70.4704987,5.85165293 L5.91479006,44.3677566" stroke-dasharray="7.6706,7.6706"></path>
                                        <path d="M3.12638903,46.0271805 L0.168994002,47.7739426"></path>
                                    </g>
                                </g>
                                <g id="Group" transform="translate(0.000000, 84.717960)">
                                    <g id="Shape">
                                        <path d="M0.506982005,0.174676207 L3.46437703,1.92143828"></path>
                                        <path d="M9.29467009,5.41496242 L135.617686,80.8750838" stroke-dasharray="8.0303,8.0303"></path>
                                        <path d="M138.575081,82.6218459 L141.532476,84.368608"></path>
                                    </g>
                                </g>
                                <g id="Group" transform="translate(219.692202, 47.162576)">
                                    <g id="Shape">
                                        <path d="M0.675976006,0.611366724 L3.54887403,2.35812879"></path>
                                        <path d="M9.80165209,6.11366724 L56.7819845,34.1491985" stroke-dasharray="8.553800000000001,8.553800000000001"></path>
                                        <path d="M59.9083736,35.9832986 L62.8657686,37.7300607"></path>
                                    </g>
                                </g>
                                <g id="Group" opacity="0.2" transform="translate(141.109991, 0.000000)">
                                    <g id="Shape">
                                        <path d="M0.422485004,0.786042931 L3.37988003,2.532805"></path>
                                        <path d="M8.95668208,5.85165293 L73.5123907,44.3677566" stroke-dasharray="7.6702,7.6702"></path>
                                        <path d="M76.3007917,46.0271805 L79.2581867,47.7739426"></path>
                                    </g>
                                </g>
                                <path d="M282.557971,234.240794 L141.532476,318.434725" id="Shape"></path>
                                <g id="Group" transform="translate(0.000000, 149.348157)">
                                    <g id="Shape">
                                        <path d="M141.532476,0.786042931 L138.575081,2.532805"></path>
                                        <path d="M132.744788,6.02632914 L6.33727506,81.3991124" stroke-dasharray="8.0303,8.0303"></path>
                                        <path d="M3.46437703,83.1458745 L0.506982005,84.8926366"></path>
                                    </g>
                                </g>
                                <path d="M0.506982005,234.240794 L141.532476,318.434725" id="Shape"></path>
                                <g id="Group" transform="translate(141.109991, 149.348157)">
                                    <g id="Shape">
                                        <path d="M0.422485004,0.786042931 L3.37988003,2.532805"></path>
                                        <path d="M9.21017309,6.02632914 L135.533189,81.3991124" stroke-dasharray="8.0303,8.0303"></path>
                                        <path d="M138.490584,83.1458745 L141.447979,84.8926366"></path>
                                    </g>
                                </g>
                                <path d="M141.532476,193.191885 L141.532476,318.434725" id="Shape"></path>
                                <path d="M282.557971,109.085291 L282.557971,234.240794" id="Shape"></path>
                                <g id="Group" transform="translate(282.219983, 84.717960)">
                                    <g id="Shape">
                                        <path d="M0.337988003,0.174676207 L0.337988003,3.66820035"></path>
                                        <path d="M0.337988003,9.43251518 L0.337988003,17.9916493" stroke-dasharray="6.5525,6.5525"></path>
                                        <path d="M0.337988003,20.8738067 L0.337988003,24.3673309"></path>
                                    </g>
                                </g>
                                <path d="M0.506982005,109.085291 L0.506982005,234.240794" id="Shape"></path>
                                <g id="Group" transform="translate(0.000000, 84.717960)">
                                    <g id="Shape">
                                        <path d="M0.506982005,0.174676207 L0.506982005,3.66820035"></path>
                                        <path d="M0.506982005,9.43251518 L0.506982005,17.9916493" stroke-dasharray="6.5525,6.5525"></path>
                                        <path d="M0.506982005,20.8738067 L0.506982005,24.3673309"></path>
                                    </g>
                                </g>
                            </g>
                            <g id="_x30_2_1_" opacity="0.8" transform="translate(57.457961, 135.374060)" stroke="#4A4A4A">
                                <path d="M364.097576,109.434644 L182.091037,217.995906" id="Shape" opacity="0.2" stroke-dasharray="8"></path>
                                <path d="M182.091037,0.786042931 L0.0844970008,109.434644" id="Shape" opacity="0.2" stroke-dasharray="8"></path>
                                <path d="M82.5535698,190.921094 L0.0844970008,240.092446" id="Shape" stroke-dasharray="8"></path>
                                <path d="M182.091037,131.443846 L82.5535698,190.921094" id="Shape" opacity="0.2" stroke-dasharray="8"></path>
                                <path d="M0.0844970008,109.434644 L182.091037,217.995906" id="Shape" opacity="0.2" stroke-dasharray="8"></path>
                                <path d="M364.097576,240.092446 L182.091037,348.653709" id="Shape"></path>
                                <path d="M0.0844970008,240.092446 L182.091037,348.653709" id="Shape"></path>
                                <path d="M182.091037,0.786042931 L364.097576,109.434644" id="Shape" opacity="0.2" stroke-dasharray="8"></path>
                                <path d="M281.628504,190.921094 L364.097576,240.092446" id="Shape" stroke-dasharray="8"></path>
                                <path d="M182.091037,131.443846 L281.628504,190.921094" id="Shape" opacity="0.2" stroke-dasharray="8"></path>
                                <path d="M0.0844970008,141.749742 L0.0844970008,240.092446" id="Shape"></path>
                                <path d="M0.0844970008,109.434644 L0.0844970008,141.749742" id="Shape" opacity="0.2" stroke-dasharray="8"></path>
                                <path d="M364.097576,141.749742 L364.097576,240.092446" id="Shape"></path>
                                <path d="M364.097576,109.434644 L364.097576,141.749742" id="Shape" opacity="0.2" stroke-dasharray="8"></path>
                                <path d="M182.091037,250.311005 L182.091037,348.653709" id="Shape"></path>
                                <path d="M182.091037,0.786042931 L182.091037,131.443846" id="Shape" opacity="0.2" stroke-dasharray="8"></path>
                            </g>
                            <g id="_x30_1_1_" stroke="#FF671B">
                                <path d="M478.591013,143.409166 L239.548997,286.119627" id="Shape"></path>
                                <path d="M239.548997,0.786042931 L0.506982005,143.409166" id="Shape"></path>
                                <g id="Group" transform="translate(0.000000, 100.438819)">
                                    <path d="M239.548997,0 L236.591602,1.74676207" id="Shape"></path>
                                    <path d="M230.592315,5.32762431 L6.42177206,139.042261" id="Shape" stroke-dasharray="8.1699,8.1699"></path>
                                    <path d="M3.46437703,140.876361 L0.506982005,142.623123" id="Shape"></path>
                                </g>
                                <path d="M0.506982005,143.409166 L239.548997,286.119627" id="Shape"></path>
                                <path d="M478.591013,243.061942 L239.548997,385.685065" id="Shape"></path>
                                <path d="M0.506982005,243.061942 L239.548997,385.685065" id="Shape"></path>
                                <path d="M239.548997,0.786042931 L478.591013,143.409166" id="Shape"></path>
                                <g id="Group" transform="translate(239.126512, 100.438819)">
                                    <path d="M0.422485004,0 L3.37988003,1.74676207" id="Shape"></path>
                                    <path d="M9.29467009,5.32762431 L233.54971,139.042261" id="Shape" stroke-dasharray="8.1699,8.1699"></path>
                                    <path d="M236.507105,140.876361 L239.4645,142.623123" id="Shape"></path>
                                </g>
                                <path d="M0.506982005,143.409166 L0.506982005,243.061942" id="Shape"></path>
                                <path d="M478.591013,143.409166 L478.591013,243.061942" id="Shape"></path>
                                <path d="M239.548997,286.119627 L239.548997,383.938303" id="Shape"></path>
                                <g id="Group" transform="translate(239.126512, 0.000000)">
                                    <path d="M0.422485004,0.786042931 L0.422485004,4.27956707" id="Shape"></path>
                                    <path d="M0.422485004,11.4412916 L0.422485004,93.3644326" id="Shape" stroke-dasharray="8.156599999999999,8.156599999999999"></path>
                                    <path d="M0.422485004,96.9452949 L0.422485004,100.438819" id="Shape"></path>
                                </g>
                            </g>
                        </g>
                    </g>
                </g>
            </g>
        </g>
    </g>
</svg>