<?xml version="1.0" encoding="UTF-8" standalone="no"?>
<svg width="480px" height="875px" viewBox="0 0 480 875" version="1.1" xmlns="http://www.w3.org/2000/svg" xmlns:xlink="http://www.w3.org/1999/xlink">
    <!-- Generator: Sketch 46.2 (44496) - http://www.bohemiancoding.com/sketch -->
    <title>Active_2</title>
    <desc>Created with Sketch.</desc>
    <defs></defs>
    <g id="WORKFLOWS" stroke="none" stroke-width="1" fill="none" fill-rule="evenodd">
        <g id="Workflows" transform="translate(-464.000000, -3374.000000)">
            <g id="Talents-Pipeline" transform="translate(0.000000, 2616.000000)">
                <g transform="translate(465.000000, 758.000000)" id="Scheme-Talents-Pipeline">
                    <g>
                        <g id="Active_2">
                            <g id="_x30_5_2_" opacity="0.2" transform="translate(168.994002, 634.074631)" stroke="#4A4A4A">
                                <g id="Group" transform="translate(70.132511, 41.922290)">
                                    <g id="Shape">
                                        <path d="M70.7239897,0.524028621 L67.7665946,2.27079069"></path>
                                        <path d="M61.9363016,5.76431483 L6.16828106,39.0401323" stroke-dasharray="8.0181,8.0181"></path>
                                        <path d="M3.21088603,40.7868943 L0.337988003,42.5336564"></path>
                                    </g>
                                </g>
                                <g id="Group">
                                    <g id="Shape">
                                        <path d="M70.4704987,0.436690517 L67.5131036,2.18345259"></path>
                                        <path d="M61.5983136,5.67697673 L5.91479006,38.9527941" stroke-dasharray="8.0181,8.0181"></path>
                                        <path d="M2.95739503,40.6995562 L0,42.4463183"></path>
                                    </g>
                                </g>
                                <g id="Group" transform="translate(0.000000, 155.461824)">
                                    <g id="Shape">
                                        <path d="M70.4704987,0.611366724 L67.5131036,2.35812879"></path>
                                        <path d="M61.5983136,5.85165293 L5.91479006,39.1274704" stroke-dasharray="8.0181,8.0181"></path>
                                        <path d="M2.95739503,40.8742324 L0,42.6209945"></path>
                                    </g>
                                </g>
                                <g id="Group" transform="translate(0.000000, 41.922290)">
                                    <g id="Shape">
                                        <path d="M0,0.524028621 L2.95739503,2.27079069"></path>
                                        <path d="M8.87218508,5.76431483 L64.5557086,39.0401323" stroke-dasharray="8.0181,8.0181"></path>
                                        <path d="M67.5131036,40.7868943 L70.4704987,42.5336564"></path>
                                    </g>
                                </g>
                                <path d="M140.8565,198.082819 L70.4704987,240.092446" id="Shape"></path>
                                <path d="M0,198.082819 L70.4704987,240.092446" id="Shape"></path>
                                <g id="Group" transform="translate(70.132511, 0.000000)">
                                    <g id="Shape">
                                        <path d="M0.337988003,0.436690517 L3.21088603,2.18345259"></path>
                                        <path d="M9.12567609,5.67697673 L64.8091996,38.9527941" stroke-dasharray="8.0181,8.0181"></path>
                                        <path d="M67.7665946,40.6995562 L70.7239897,42.4463183"></path>
                                    </g>
                                </g>
                                <g id="Group" transform="translate(70.132511, 155.461824)">
                                    <g id="Shape">
                                        <path d="M0.337988003,0.611366724 L3.21088603,2.35812879"></path>
                                        <path d="M9.12567609,5.85165293 L64.8091996,39.1274704" stroke-dasharray="8.0181,8.0181"></path>
                                        <path d="M67.7665946,40.8742324 L70.7239897,42.6209945"></path>
                                    </g>
                                </g>
                                <path d="M0,62.9707726 L0,198.082819" id="Shape"></path>
                                <g id="Group" transform="translate(0.000000, 41.922290)">
                                    <g id="Shape">
                                        <path d="M0,0.524028621 L0,4.01755276"></path>
                                        <path d="M0,8.55913414 L0,15.2841681" stroke-dasharray="5.1504,5.1504"></path>
                                        <path d="M0,17.5549588 L0,21.0484829"></path>
                                    </g>
                                </g>
                                <path d="M140.8565,63.4948012 L140.8565,198.082819" id="Shape"></path>
                                <g id="Group" transform="translate(140.265021, 41.922290)">
                                    <g id="Shape">
                                        <path d="M0.591479006,0.524028621 L0.591479006,4.01755276"></path>
                                        <path d="M0.591479006,8.73381035 L0.591479006,15.7208586" stroke-dasharray="5.3501,5.3501"></path>
                                        <path d="M0.591479006,18.0789874 L0.591479006,21.5725116"></path>
                                    </g>
                                </g>
                                <path d="M70.4704987,84.4559461 L70.4704987,240.092446" id="Shape"></path>
                                <g id="Group" transform="translate(70.132511, 0.000000)">
                                    <g id="Shape">
                                        <path d="M0.337988003,0.436690517 L0.337988003,3.93021466"></path>
                                        <path d="M0.337988003,11.004601 L0.337988003,149.086143" stroke-dasharray="8.1053,8.1053"></path>
                                        <path d="M0.337988003,152.579667 L0.337988003,156.073191"></path>
                                    </g>
                                </g>
                            </g>
                            <g id="_x30_4_2_" opacity="0.4" transform="translate(131.815321, 461.145186)" stroke="#4A4A4A">
                                <g id="Group" transform="translate(107.311191, 64.630197)">
                                    <g id="Shape">
                                        <path d="M107.733676,0.26201431 L104.860778,2.00877638"></path>
                                        <path d="M98.8614909,5.50230052 L6.25277806,60.78732" stroke-dasharray="8.167299999999999,8.167299999999999"></path>
                                        <path d="M3.21088603,62.6214202 L0.337988003,64.3681823"></path>
                                    </g>
                                </g>
                                <g id="Group" transform="translate(0.000000, 11.353953)">
                                    <g id="Shape">
                                        <path d="M89.0598388,0.436690517 L86.1024438,2.18345259"></path>
                                        <path d="M80.5256418,5.50230052 L5.83029305,50.1320714" stroke-dasharray="7.563,7.563"></path>
                                        <path d="M3.04189203,51.7914954 L0.168994002,53.5382574"></path>
                                    </g>
                                </g>
                                <g id="Group" opacity="0.2" transform="translate(88.721851, 0.000000)">
                                    <g id="Shape">
                                        <path d="M18.9273282,0.698704828 L15.9699332,2.4454669"></path>
                                        <path d="M11.7450831,4.9782719 L5.32331105,8.82114845" stroke-dasharray="5.7998,5.7998"></path>
                                        <path d="M3.21088603,10.0438819 L0.337988003,11.790644"></path>
                                    </g>
                                </g>
                                <g id="Group" transform="translate(0.000000, 149.348157)">
                                    <g id="Shape">
                                        <path d="M107.649179,0.26201431 L104.691784,2.00877638"></path>
                                        <path d="M98.6924969,5.58963862 L6.08378406,60.8746581" stroke-dasharray="8.167299999999999,8.167299999999999"></path>
                                        <path d="M3.04189203,62.7087583 L0.168994002,64.4555204"></path>
                                    </g>
                                </g>
                                <g id="Group" transform="translate(0.000000, 64.630197)">
                                    <g id="Shape">
                                        <path d="M0.168994002,0.26201431 L3.04189203,2.00877638"></path>
                                        <path d="M9.04117909,5.50230052 L101.734389,60.78732" stroke-dasharray="8.167299999999999,8.167299999999999"></path>
                                        <path d="M104.691784,62.6214202 L107.649179,64.3681823"></path>
                                    </g>
                                </g>
                                <path d="M215.044867,213.803677 L107.649179,277.909845" id="Shape"></path>
                                <path d="M0.168994002,213.803677 L107.649179,277.909845" id="Shape"></path>
                                <g id="Group" transform="translate(125.900531, 11.353953)">
                                    <g id="Shape">
                                        <path d="M0.337988003,0.436690517 L3.21088603,2.18345259"></path>
                                        <path d="M8.78768808,5.50230052 L83.4830368,50.1320714" stroke-dasharray="7.5629,7.5629"></path>
                                        <path d="M86.2714378,51.7914954 L89.1443358,53.5382574"></path>
                                    </g>
                                </g>
                                <g id="Group" opacity="0.2" transform="translate(107.311191, 0.000000)">
                                    <g id="Shape">
                                        <path d="M0.337988003,0.698704828 L3.21088603,2.4454669"></path>
                                        <path d="M7.43573607,4.9782719 L13.8575081,8.82114845" stroke-dasharray="5.8001,5.8001"></path>
                                        <path d="M15.9699332,10.0438819 L18.9273282,11.790644"></path>
                                    </g>
                                </g>
                                <g id="Group" transform="translate(107.311191, 149.348157)">
                                    <g id="Shape">
                                        <path d="M0.337988003,0.26201431 L3.21088603,2.00877638"></path>
                                        <path d="M9.21017309,5.58963862 L101.818886,60.8746581" stroke-dasharray="8.167299999999999,8.167299999999999"></path>
                                        <path d="M104.860778,62.7087583 L107.733676,64.4555204"></path>
                                    </g>
                                </g>
                                <path d="M0.168994002,83.9319174 L0.168994002,213.803677" id="Shape"></path>
                                <g id="Group" transform="translate(0.000000, 64.630197)">
                                    <g id="Shape">
                                        <path d="M0.168994002,0.26201431 L0.168994002,3.75553845"></path>
                                        <path d="M0.168994002,7.77309121 L0.168994002,13.7994203" stroke-dasharray="4.6295,4.6295"></path>
                                        <path d="M0.168994002,15.8081967 L0.168994002,19.3017209"></path>
                                    </g>
                                </g>
                                <path d="M215.044867,83.9319174 L215.044867,213.803677" id="Shape"></path>
                                <g id="Group" transform="translate(214.622382, 64.630197)">
                                    <g id="Shape">
                                        <path d="M0.422485004,0.26201431 L0.422485004,3.75553845"></path>
                                        <path d="M0.422485004,7.77309121 L0.422485004,13.7994203" stroke-dasharray="4.6295,4.6295"></path>
                                        <path d="M0.422485004,15.8081967 L0.422485004,19.3017209"></path>
                                    </g>
                                </g>
                                <path d="M107.649179,148.125423 L107.649179,277.909845" id="Shape"></path>
                            </g>
                            <g id="_x30_3_2_" opacity="0.6" transform="translate(98.016521, 290.835885)" stroke="#4A4A4A">
                                <g id="Group" opacity="0.2" transform="translate(141.109991, 84.717960)">
                                    <g id="Shape">
                                        <path d="M141.278985,0.174676207 L138.406087,1.92143828"></path>
                                        <path d="M132.491297,5.41496242 L6.16828106,80.8750838" stroke-dasharray="8.0303,8.0303"></path>
                                        <path d="M3.21088603,82.6218459 L0.337988003,84.368608"></path>
                                    </g>
                                </g>
                                <g id="Group" opacity="0.2">
                                    <g id="Shape">
                                        <path d="M141.447979,0.786042931 L138.490584,2.532805"></path>
                                        <path d="M132.575794,6.02632914 L6.25277806,81.3991124" stroke-dasharray="8.0303,8.0303"></path>
                                        <path d="M3.29538303,83.1458745 L0.422485004,84.8926366"></path>
                                    </g>
                                </g>
                                <g id="Group" opacity="0.2" transform="translate(0.000000, 84.717960)">
                                    <g id="Shape">
                                        <path d="M0.422485004,0.174676207 L3.29538303,1.92143828"></path>
                                        <path d="M9.21017309,5.41496242 L135.533189,80.8750838" stroke-dasharray="8.0303,8.0303"></path>
                                        <path d="M138.490584,82.6218459 L141.447979,84.368608"></path>
                                    </g>
                                </g>
                                <g id="Group" opacity="0.2" transform="translate(141.109991, 0.000000)">
                                    <g id="Shape">
                                        <path d="M0.337988003,0.786042931 L3.21088603,2.532805"></path>
                                        <path d="M9.12567609,6.02632914 L135.448692,81.3991124" stroke-dasharray="8.0303,8.0303"></path>
                                        <path d="M138.406087,83.1458745 L141.278985,84.8926366"></path>
                                    </g>
                                </g>
                                <path d="M282.388977,234.240794 L141.447979,318.434725" id="Shape"></path>
                                <g id="Group" transform="translate(0.000000, 171.182683)">
                                    <g id="Shape">
                                        <path d="M105.283263,0.524028621 L102.325868,2.27079069"></path>
                                        <path d="M96.4955749,5.67697673 L6.25277806,59.5645866" stroke-dasharray="7.9608,7.9608"></path>
                                        <path d="M3.29538303,61.3113486 L0.422485004,63.0581107"></path>
                                    </g>
                                </g>
                                <g id="Group" opacity="0.2" transform="translate(104.776281, 149.348157)">
                                    <g id="Shape">
                                        <path d="M36.6716983,0.786042931 L33.7143033,2.532805"></path>
                                        <path d="M27.6305193,6.11366724 L6.50626906,18.7776922" stroke-dasharray="8.2727,8.2727"></path>
                                        <path d="M3.46437703,20.6117924 L0.506982005,22.3585545"></path>
                                    </g>
                                </g>
                                <path d="M0.422485004,234.240794 L141.447979,318.434725" id="Shape"></path>
                                <g id="Group" transform="translate(177.443702, 171.182683)">
                                    <g id="Shape">
                                        <path d="M0.0844970008,0.524028621 L3.04189203,2.27079069"></path>
                                        <path d="M8.87218508,5.67697673 L99.1149819,59.5645866" stroke-dasharray="7.9611,7.9611"></path>
                                        <path d="M102.072377,61.3113486 L104.945275,63.0581107"></path>
                                    </g>
                                </g>
                                <g id="Group" opacity="0.2" transform="translate(141.109991, 149.348157)">
                                    <g id="Shape">
                                        <path d="M0.337988003,0.786042931 L3.21088603,2.532805"></path>
                                        <path d="M9.29467009,6.11366724 L30.5034173,18.7776922" stroke-dasharray="8.271699999999999,8.271699999999999"></path>
                                        <path d="M33.4608123,20.6117924 L36.4182073,22.3585545"></path>
                                    </g>
                                </g>
                                <path d="M141.447979,193.191885 L141.447979,318.434725" id="Shape"></path>
                                <g id="Group" opacity="0.2" transform="translate(141.109991, 0.000000)">
                                    <g id="Shape">
                                        <path d="M0.337988003,0.786042931 L0.337988003,4.27956707"></path>
                                        <path d="M0.337988003,12.0526583 L0.337988003,55.1103433" stroke-dasharray="8.962199999999999,8.962199999999999"></path>
                                        <path d="M0.337988003,59.0405579 L0.337988003,62.5340821"></path>
                                    </g>
                                </g>
                                <path d="M282.388977,109.085291 L282.388977,234.240794" id="Shape"></path>
                                <g id="Group" opacity="0.2" transform="translate(282.219983, 84.717960)">
                                    <g id="Shape">
                                        <path d="M0.168994002,0.174676207 L0.168994002,3.66820035"></path>
                                        <path d="M0.168994002,9.43251518 L0.168994002,17.9916493" stroke-dasharray="6.5525,6.5525"></path>
                                        <path d="M0.168994002,20.8738067 L0.168994002,24.3673309"></path>
                                    </g>
                                </g>
                                <path d="M0.422485004,109.085291 L0.422485004,234.240794" id="Shape"></path>
                                <g id="Group" opacity="0.2" transform="translate(0.000000, 84.717960)">
                                    <g id="Shape">
                                        <path d="M0.422485004,0.174676207 L0.422485004,3.66820035"></path>
                                        <path d="M0.422485004,9.43251518 L0.422485004,17.9916493" stroke-dasharray="6.5525,6.5525"></path>
                                        <path d="M0.422485004,20.8738067 L0.422485004,24.3673309"></path>
                                    </g>
                                </g>
                            </g>
                            <g id="_x30_2_2_" transform="translate(57.457961, 135.374060)" stroke="#FF671B">
                                <path d="M363.928582,109.434644 L182.00654,217.995906" id="Shape"></path>
                                <path d="M182.00654,0.786042931 L0,109.434644" id="Shape"></path>
                                <path d="M182.00654,131.443846 L0,240.092446" id="Shape" stroke-dasharray="8"></path>
                                <path d="M0,109.434644 L182.00654,217.995906" id="Shape"></path>
                                <path d="M363.928582,240.092446 L182.00654,348.653709" id="Shape"></path>
                                <path d="M0,240.092446 L182.00654,348.653709" id="Shape"></path>
                                <path d="M182.00654,0.786042931 L363.928582,109.434644" id="Shape"></path>
                                <path d="M182.00654,131.443846 L363.928582,240.092446" id="Shape" stroke-dasharray="8"></path>
                                <path d="M0,141.749742 L0,240.092446" id="Shape"></path>
                                <path d="M0,109.434644 L0,141.749742" id="Shape"></path>
                                <path d="M363.928582,141.749742 L363.928582,240.092446" id="Shape"></path>
                                <path d="M363.928582,109.434644 L363.928582,141.749742" id="Shape"></path>
                                <path d="M182.00654,250.311005 L182.00654,348.653709" id="Shape"></path>
                                <path d="M182.00654,217.995906 L182.00654,250.311005" id="Shape"></path>
                                <path d="M182.00654,0.786042931 L182.00654,131.443846" id="Shape" stroke-dasharray="8"></path>
                            </g>
                            <g id="_x30_1_2_" stroke="#4A4A4A">
                                <path d="M365.027043,211.096196 L239.4645,286.119627" id="Shape" opacity="0.2" stroke-dasharray="8"></path>
                                <path d="M478.422019,143.409166 L365.027043,211.096196" id="Shape"></path>
                                <path d="M239.4645,0.786042931 L0.422485004,143.409166" id="Shape"></path>
                                <g id="Group" transform="translate(0.000000, 100.438819)">
                                    <path d="M239.4645,0 L236.507105,1.74676207" id="Shape"></path>
                                    <path d="M230.507818,5.32762431 L6.33727506,139.042261" id="Shape" stroke-dasharray="8.1699,8.1699"></path>
                                    <path d="M3.37988003,140.876361 L0.422485004,142.623123" id="Shape"></path>
                                </g>
                                <path d="M113.81746,211.096196 L239.4645,286.119627" id="Shape" opacity="0.2" stroke-dasharray="8"></path>
                                <path d="M0.422485004,143.409166 L113.81746,211.096196" id="Shape"></path>
                                <path d="M421.386543,277.123802 L239.4645,385.685065" id="Shape" opacity="0.2" stroke-dasharray="8"></path>
                                <path d="M478.422019,243.061942 L421.386543,277.123802" id="Shape"></path>
                                <path d="M57.8804455,277.385817 L239.4645,385.685065" id="Shape" opacity="0.2" stroke-dasharray="8"></path>
                                <path d="M0.422485004,243.061942 L57.8804455,277.385817" id="Shape"></path>
                                <path d="M239.4645,0.786042931 L478.422019,143.409166" id="Shape"></path>
                                <g id="Group" transform="translate(239.126512, 100.438819)">
                                    <path d="M0.337988003,0 L3.21088603,1.74676207" id="Shape"></path>
                                    <path d="M9.21017309,5.32762431 L233.380716,139.042261" id="Shape" stroke-dasharray="8.1699,8.1699"></path>
                                    <path d="M236.422608,140.876361 L239.295506,142.623123" id="Shape"></path>
                                </g>
                                <path d="M0.422485004,143.409166 L0.422485004,243.061942" id="Shape"></path>
                                <path d="M478.422019,143.409166 L478.422019,243.061942" id="Shape"></path>
                                <path d="M239.4645,286.119627 L239.4645,383.938303" id="Shape" opacity="0.2" stroke-dasharray="8"></path>
                                <g id="Group" transform="translate(239.126512, 0.000000)">
                                    <path d="M0.337988003,0.786042931 L0.337988003,4.27956707" id="Shape"></path>
                                    <path d="M0.337988003,11.4412916 L0.337988003,93.3644326" id="Shape" stroke-dasharray="8.156599999999999,8.156599999999999"></path>
                                    <path d="M0.337988003,96.9452949 L0.337988003,100.438819" id="Shape"></path>
                                </g>
                            </g>
                        </g>
                    </g>
                </g>
            </g>
        </g>
    </g>
</svg>