<svg xmlns="http://www.w3.org/2000/svg" xmlns:xlink="http://www.w3.org/1999/xlink" width="440" height="62" viewBox="0 0 440 62"><defs><clipPath id="910ceb05-0637-4095-8623-e3cb80d5edb5" transform="translate(-19.5 -119.5)"><path d="M20.5,122.5a2,2,0,0,1,2-2h434a2,2,0,0,1,2,2v56a2,2,0,0,1-2,2H22.5a2,2,0,0,1-2-2v-56Z" style="fill:none;clip-rule:evenodd"/></clipPath><clipPath id="797740db-2992-4ca4-92e3-de3485e0dfa3" transform="translate(-19.5 -119.5)"><path d="M408.15,146.86l10.11,10a.5.5,0,0,0,.7,0l9.89-9.78a.5.5,0,0,0-.7-.71l-9.89,9.78h.7l-10.11-10a.5.5,0,0,0-.7.71Z" style="fill:none"/></clipPath></defs><title>Ресурс 222</title><g id="1d5754c3-d80d-4058-80c6-82e399cb0499" data-name="Слой 2"><g id="61a76f0f-d5ce-4ab8-b435-27dcfca8577a" data-name="Слой 1"><path d="M395.55,154.08l.61-1.28a5.11,5.11,0,0,0-1.45-.66,6.07,6.07,0,0,0-1.7-.24,4.2,4.2,0,0,0-2.43.67,2.26,2.26,0,0,0-1,2A2.21,2.21,0,0,0,390,156a2.76,2.76,0,0,0,1,.82,10.76,10.76,0,0,0,1.56.55,7.23,7.23,0,0,1,1.61.65,1.06,1.06,0,0,1,.53,1,1,1,0,0,1-.5.94,2.54,2.54,0,0,1-1.33.31,4.87,4.87,0,0,1-1.7-.32,4.45,4.45,0,0,1-1.47-.86l-.63,1.22a4.68,4.68,0,0,0,1.68,1,6.32,6.32,0,0,0,2.06.34,4.35,4.35,0,0,0,2.53-.7,2.34,2.34,0,0,0,1-2.05,2.31,2.31,0,0,0-.44-1.48,2.88,2.88,0,0,0-1.07-.85,12.21,12.21,0,0,0-1.62-.58,7.45,7.45,0,0,1-1.56-.6,1,1,0,0,1-.51-.87.93.93,0,0,1,.46-.86,2.32,2.32,0,0,1,1.22-.28,4.68,4.68,0,0,1,1.36.22,5.71,5.71,0,0,1,1.3.58Zm7.74,5.49a3,3,0,0,1-1.48.45,1.07,1.07,0,0,1-.86-.34,1.76,1.76,0,0,1-.29-1.13v-5h2.92V152.3h-2.92v-2.56H399v2.56h-1.35v1.28H399v5.27a2.71,2.71,0,0,0,.7,2,2.54,2.54,0,0,0,1.84.67,4.1,4.1,0,0,0,2.23-.7l-.45-1.3Z" transform="translate(-19.5 -119.5)" style="fill:#fff"/><g style="clip-path:url(#910ceb05-0637-4095-8623-e3cb80d5edb5)"><path d="M20.5,122.5a2,2,0,0,1,2-2h434a2,2,0,0,1,2,2v56a2,2,0,0,1-2,2H22.5a2,2,0,0,1-2-2v-56Z" transform="translate(-19.5 -119.5)" style="fill:none;stroke:#d7d7d7;stroke-miterlimit:10;stroke-width:2px"/></g><g style="clip-path:url(#797740db-2992-4ca4-92e3-de3485e0dfa3)"><rect x="383.5" y="21.5" width="31" height="21" style="fill:#6e6e6e"/></g></g></g></svg>