<svg xmlns="http://www.w3.org/2000/svg" xmlns:xlink="http://www.w3.org/1999/xlink" width="29.66" height="26.25" viewBox="0 0 29.66 26.25"><defs><clipPath id="399d31b1-7df4-4299-9bbf-4d809d84d95f"><path d="M22.65,9v.53c0,5.42-4.06,11.67-11.48,11.67A11.25,11.25,0,0,1,5,19.41a7.78,7.78,0,0,0,1,.06,8,8,0,0,0,5-1.76,4,4,0,0,1-3.77-2.85,3.88,3.88,0,0,0,.76.07,3.94,3.94,0,0,0,1-.14,4.09,4.09,0,0,1-3.24-4,.31.31,0,0,1,0-.05,3.93,3.93,0,0,0,1.83.51,4.15,4.15,0,0,1-1.22-5.5A11.39,11.39,0,0,0,14.68,10a4.2,4.2,0,0,1-.1-.94,4.07,4.07,0,0,1,4-4.1,4,4,0,0,1,2.94,1.29,7.89,7.89,0,0,0,2.57-1,4.11,4.11,0,0,1-1.78,2.27,7.88,7.88,0,0,0,2.32-.64,8.31,8.31,0,0,1-2,2.12" style="fill:none"/></clipPath></defs><title>Ресурс 1</title><g id="df6b5a63-a743-4ad0-b9c9-6a93bbcbe02c" data-name="Слой 2"><g id="04ed359f-82ec-4286-a6fe-f2d46d8c9fb5" data-name="Слой 1"><g style="clip-path:url(#399d31b1-7df4-4299-9bbf-4d809d84d95f)"><rect width="29.66" height="26.25" style="fill:#d7d7d7"/></g></g></g></svg>