<svg xmlns="http://www.w3.org/2000/svg" xmlns:xlink="http://www.w3.org/1999/xlink" width="440" height="62" viewBox="0 0 440 62"><defs><clipPath id="45c9f7bc-287b-4a60-96b4-35cd900c2f46"><path d="M400.2,30.51l-9.85-9.87a.5.5,0,0,0-.71.71L399.27,31l-9.62,9.43a.5.5,0,1,0,.7.71l9.85-9.66a.5.5,0,0,1-.4,0l9.85,9.88a.5.5,0,1,0,.71-.71L400.73,31l9.62-9.42a.5.5,0,0,0-.7-.71l-9.85,9.64a.5.5,0,0,1,.4,0Z" style="fill:none"/></clipPath></defs><title>Ресурс 6</title><g id="31497e7e-a4ca-4156-8280-7418dc5d17de" data-name="Слой 2"><g id="af6592da-1db6-4efb-b564-4024afe7e2dc" data-name="Слой 1"><path d="M1,3A2,2,0,0,1,3,1H437a2,2,0,0,1,2,2V59a2,2,0,0,1-2,2H3a2,2,0,0,1-2-2V3Z" style="fill:none;stroke:#d80000;stroke-miterlimit:10;stroke-width:2px"/><g style="clip-path:url(#45c9f7bc-287b-4a60-96b4-35cd900c2f46)"><rect x="384.5" y="15.5" width="31" height="31" style="fill:#d80000"/></g></g></g></svg>