<?xml version="1.0" encoding="UTF-8" standalone="no"?>
<svg width="14px" height="12px" viewBox="0 0 14 12" version="1.1" xmlns="http://www.w3.org/2000/svg" xmlns:xlink="http://www.w3.org/1999/xlink">
    <!-- Generator: Sketch 40.3 (33839) - http://www.bohemiancoding.com/sketch -->
    <title>tw</title>
    <desc>Created with Sketch.</desc>
    <defs></defs>
    <g id="Page-1" stroke="none" stroke-width="1" fill="none" fill-rule="evenodd">
        <g id="tw" fill="#9D9E9E">
            <path d="M12.2,3.4 L12.2,3.7 C12.2,7.2 9.6,11.3 4.7,11.3 C3.2,11.3 1.8,10.9 0.7,10.1 L1.3,10.1 C2.5,10.1 3.7,9.7 4.6,9 C3.5,9 2.5,8.2 2.2,7.1 L2.7,7.1 C2.9,7.1 3.2,7.1 3.4,7 C2.2,6.9 1.3,5.8 1.3,4.5 L1.3,4.5 C1.6,4.7 2,4.8 2.5,4.8 C1.8,4.3 1.3,3.5 1.3,2.6 C1.3,2.1 1.4,1.7 1.7,1.3 C2.9,2.9 4.9,3.9 7.1,4 C7,3.8 7,3.6 7,3.4 C7,2 8.2,0.8 9.6,0.8 C10.4,0.8 11,1.1 11.5,1.6 C12.1,1.5 12.7,1.3 13.2,1 C13,1.6 12.6,2.1 12,2.4 C12.5,2.3 13,2.2 13.5,2 C13.2,2.5 12.8,3 12.2,3.4 L12.2,3.4 L12.2,3.4 Z" id="Shape"></path>
        </g>
    </g>
</svg>