<svg xmlns="http://www.w3.org/2000/svg" xmlns:xlink="http://www.w3.org/1999/xlink" width="179.29" height="75.27" viewBox="0 0 179.29 75.27"><defs><clipPath id="eac4833c-d277-4100-8866-fd1b798b79ca" transform="translate(-48.33 -29.25)"><rect x="53" y="34" width="170" height="66" style="fill:none"/></clipPath><clipPath id="110365d6-3334-405d-9e3a-c650c363fbb0" transform="translate(-48.33 -29.25)"><path d="M112.65,37.08l10.07-2.83,9.34,3-9.34,3.17-10.07-3.35M123.4,56.33l10-3.57V38.17l-10,3.39V56.33m-1.83,0-10-3.57V38.17l10,3.39V56.33M89.42,37.08,99.5,34.25l9.34,3L99.5,40.43,89.42,37.08m10.76,19.25,10-3.57V38.17l-10,3.39V56.33m-1.82,0-10-3.57V38.17l10,3.39V56.33M77.58,57.46l10.07-2.83,9.34,3-9.34,3.17L77.58,57.46M88.33,76.71l10-3.57V58.55l-10,3.39V76.71m-1.82,0-10-3.57V58.55l10,3.39V76.71M54.35,57.46l10.07-2.83,9.34,3-9.34,3.17L54.35,57.46M65.11,76.71l10-3.57V58.55l-10,3.39V76.71m-1.83,0-10-3.57V58.55l10,3.39V76.71m2.92,1.13L76.27,75l9.34,3-9.34,3.17L66.2,77.84M77,97.09l10-3.57V78.93L77,82.32V97.09m-1.83,0-10-3.57V78.93l10,3.39V97.09" style="fill:none;clip-rule:evenodd"/></clipPath><clipPath id="1a800bae-622c-4606-9692-a8d18ab8f5d7" transform="translate(-48.33 -29.25)"><rect width="276" height="133" style="fill:none"/></clipPath><clipPath id="16e71536-c05b-4355-a10b-22c47a901876" transform="translate(-48.33 -29.25)"><polygon points="116.51 87.58 113.17 99.2 111.72 99.2 109.11 90.57 106.73 99.2 105.25 99.2 101.77 87.58 103.57 87.58 106.1 96.24 108.51 87.58 109.83 87.58 112.45 96.27 115.05 87.58 116.51 87.58 116.51 87.58" style="fill:none;clip-rule:evenodd"/></clipPath><clipPath id="db281e60-6180-4d79-bb66-957ebf1e9834" transform="translate(-48.33 -29.25)"><path d="M125.66,92.2a5,5,0,0,0-.32-1.74,3,3,0,0,0-1-1.29,2.77,2.77,0,0,0-1.71-.53,3,3,0,0,0-2.28,1,4,4,0,0,0-1,2.6Zm.1,3.53,1.68.35a4.74,4.74,0,0,1-1.79,2.47,5.16,5.16,0,0,1-3.13,1,4.87,4.87,0,0,1-3.84-1.67,6.41,6.41,0,0,1-1.47-4.39A6.48,6.48,0,0,1,118.73,89a4.93,4.93,0,0,1,3.83-1.71,4.63,4.63,0,0,1,3.66,1.57,7.08,7.08,0,0,1,1.42,4.71h-8.43q0,2.64,1.1,3.56a3.58,3.58,0,0,0,2.33.92A3.18,3.18,0,0,0,125.76,95.73Z" style="fill:none;clip-rule:evenodd"/></clipPath><clipPath id="cef75182-b904-4499-8e3d-3fab273e8775" transform="translate(-48.33 -29.25)"><path d="M131.82,94.64a3.54,3.54,0,0,0,1.1,2.6A3.17,3.17,0,0,0,135,98a2.6,2.6,0,0,0,2.22-1.2,5.59,5.59,0,0,0,.84-3.28,6.54,6.54,0,0,0-.81-3.53A2.55,2.55,0,0,0,135,88.76a2.84,2.84,0,0,0-2.05.91A3.88,3.88,0,0,0,131.82,92Zm-.94,4.55H130V83.52h1.81v6a3.78,3.78,0,0,1,3.42-2.26,4.22,4.22,0,0,1,3.34,1.58,6.86,6.86,0,0,1,1.35,4.58,7,7,0,0,1-1.32,4.35,4.13,4.13,0,0,1-3.45,1.76,4,4,0,0,1-3.63-2.25Z" style="fill:none;clip-rule:evenodd"/></clipPath><clipPath id="b5f4a526-5191-4bf0-8f15-96c357c6543a" transform="translate(-48.33 -29.25)"><path d="M144.54,96.19l1.72-.36Q146.84,98,149.9,98a3.44,3.44,0,0,0,1.91-.5,1.6,1.6,0,0,0,.78-1.42q0-1.36-2-1.73l-2.45-.46a4.47,4.47,0,0,1-2.29-1.08,2.79,2.79,0,0,1-.85-2.13,3.07,3.07,0,0,1,1.16-2.44,4.67,4.67,0,0,1,3.12-1q3.78,0,4.66,3l-1.66.36a2.83,2.83,0,0,0-2.93-1.81,3.32,3.32,0,0,0-1.81.45,1.43,1.43,0,0,0-.71,1.27q0,1.28,1.8,1.61l2.26.42q3.55.64,3.55,3.44a3.07,3.07,0,0,1-1.32,2.58,5.74,5.74,0,0,1-3.52,1Q145.52,99.52,144.54,96.19Z" style="fill:none;clip-rule:evenodd"/></clipPath><clipPath id="e1453b16-877d-4fd7-9152-70bd5079217b" transform="translate(-48.33 -29.25)"><path d="M164,92.2a5.06,5.06,0,0,0-.32-1.74,3,3,0,0,0-1-1.29,2.77,2.77,0,0,0-1.71-.53,3.05,3.05,0,0,0-2.28,1,4,4,0,0,0-1,2.6Zm.1,3.53,1.68.35A4.73,4.73,0,0,1,164,98.54a5.16,5.16,0,0,1-3.13,1A4.87,4.87,0,0,1,157,97.85a7.32,7.32,0,0,1,.06-8.87,4.92,4.92,0,0,1,3.83-1.71,4.63,4.63,0,0,1,3.66,1.57A7.07,7.07,0,0,1,166,93.54h-8.43q0,2.64,1.1,3.56A3.59,3.59,0,0,0,161,98,3.18,3.18,0,0,0,164.11,95.73Z" style="fill:none;clip-rule:evenodd"/></clipPath><clipPath id="a79ee8d3-0929-40df-af7e-5e3ad614c4c7" transform="translate(-48.33 -29.25)"><path d="M169.74,99.2h-1.81V87.58h1.59v2.71a5.74,5.74,0,0,1,1.68-2.46,3.07,3.07,0,0,1,1.73-.56c.18,0,.42,0,.71,0V89h-.37a3.17,3.17,0,0,0-2.48,1.11A4.48,4.48,0,0,0,169.74,93Z" style="fill:none;clip-rule:evenodd"/></clipPath><clipPath id="3cd5f640-3985-4547-9854-d6993ec0d6a3" transform="translate(-48.33 -29.25)"><polygon points="184.88 87.58 180.87 99.2 179 99.2 174.85 87.58 176.85 87.58 180.08 97.02 183.28 87.58 184.88 87.58" style="fill:none;clip-rule:evenodd"/></clipPath><clipPath id="b030317b-0b52-49a5-a6f1-e8a079aabe79" transform="translate(-48.33 -29.25)"><path d="M186.41,87.58h1.81V99.2h-1.81Zm-.08-4.07h1.94v2h-1.94Z" style="fill:none;clip-rule:evenodd"/></clipPath><clipPath id="502ffc15-a700-4e21-802a-f8f3b9b13393" transform="translate(-48.33 -29.25)"><path d="M197.67,95.13l1.63.29a5.2,5.2,0,0,1-1.53,3,4.61,4.61,0,0,1-6.61-.68,7.28,7.28,0,0,1-1.26-4.33,7.09,7.09,0,0,1,1.33-4.4,4.28,4.28,0,0,1,3.61-1.75,4.12,4.12,0,0,1,3,1.13,5.08,5.08,0,0,1,1.42,2.93l-1.63.31q-.46-2.87-2.78-2.88A2.56,2.56,0,0,0,192.6,90a6.07,6.07,0,0,0-.8,3.29,6.36,6.36,0,0,0,.8,3.46A2.53,2.53,0,0,0,194.84,98Q197.07,98,197.67,95.13Z" style="fill:none;clip-rule:evenodd"/></clipPath><clipPath id="17a7d204-db6e-443a-b39d-75d4cdf060ec" transform="translate(-48.33 -29.25)"><path d="M209.4,92.2a5.06,5.06,0,0,0-.32-1.74,3,3,0,0,0-1-1.29,2.77,2.77,0,0,0-1.71-.53,3,3,0,0,0-2.28,1A4,4,0,0,0,203,92.2Zm.1,3.53,1.68.35a4.73,4.73,0,0,1-1.79,2.47,5.16,5.16,0,0,1-3.13,1,4.87,4.87,0,0,1-3.85-1.67,7.32,7.32,0,0,1,.06-8.87,4.92,4.92,0,0,1,3.83-1.71A4.63,4.63,0,0,1,210,88.83a7.08,7.08,0,0,1,1.42,4.71H203q0,2.64,1.1,3.56a3.59,3.59,0,0,0,2.33.92A3.18,3.18,0,0,0,209.5,95.73Z" style="fill:none;clip-rule:evenodd"/></clipPath><clipPath id="cc54b513-80f1-47ad-aad4-ff3997791247" transform="translate(-48.33 -29.25)"><path d="M212.4,96.19l1.73-.36Q214.7,98,217.76,98a3.45,3.45,0,0,0,1.91-.5,1.6,1.6,0,0,0,.78-1.42q0-1.36-2-1.73L216,93.9a4.47,4.47,0,0,1-2.29-1.08,2.8,2.8,0,0,1-.85-2.13A3.07,3.07,0,0,1,214,88.24a4.67,4.67,0,0,1,3.13-1q3.78,0,4.66,3l-1.66.36a2.83,2.83,0,0,0-2.93-1.81,3.31,3.31,0,0,0-1.81.45,1.42,1.42,0,0,0-.71,1.27q0,1.28,1.8,1.61l2.26.42q3.55.64,3.55,3.44A3.07,3.07,0,0,1,221,98.53a5.74,5.74,0,0,1-3.52,1Q213.38,99.52,212.4,96.19Z" style="fill:none;clip-rule:evenodd"/></clipPath><clipPath id="27b19778-0258-4f3e-9456-2e1a2a1ff602" transform="translate(-48.33 -29.25)"><path d="M116.49,80.14a.79.79,0,0,1-.9.09,9.31,9.31,0,0,1-2.18-2.54c-2.09,2.13-3.57,2.77-6.27,2.77-3.2,0-5.69-2-5.69-5.93a6.46,6.46,0,0,1,4.06-6.22c2.06-.91,4.95-1.07,7.15-1.32V66.5a4.88,4.88,0,0,0-.46-2.76,2.54,2.54,0,0,0-2.14-1A2.9,2.9,0,0,0,107,65a.8.8,0,0,1-.66.7l-3.69-.4a.67.67,0,0,1-.57-.79c.85-4.47,4.89-5.83,8.51-5.83a8.63,8.63,0,0,1,5.73,1.89c1.85,1.73,1.67,4,1.67,6.55v5.93a5.2,5.2,0,0,0,1.44,3.53.72.72,0,0,1,0,1c-.78.65-2.16,1.85-2.92,2.53Zm-3.84-9.27a7.46,7.46,0,0,1-.71,4,3.09,3.09,0,0,1-2.63,1.73c-1.46,0-2.31-1.11-2.31-2.76,0-3.24,2.91-3.83,5.66-3.83Zm53.27,9.27a.79.79,0,0,1-.9.09,9.31,9.31,0,0,1-2.18-2.54c-2.09,2.13-3.57,2.77-6.27,2.77-3.2,0-5.69-2-5.69-5.93a6.46,6.46,0,0,1,4.06-6.22c2.06-.91,4.95-1.07,7.15-1.32V66.5a4.87,4.87,0,0,0-.46-2.76,2.54,2.54,0,0,0-2.14-1A2.9,2.9,0,0,0,156.43,65a.8.8,0,0,1-.66.7l-3.69-.4a.67.67,0,0,1-.57-.79c.85-4.47,4.89-5.83,8.51-5.83a8.63,8.63,0,0,1,5.73,1.89c1.85,1.73,1.67,4,1.67,6.55v5.93a5.19,5.19,0,0,0,1.44,3.53.72.72,0,0,1,0,1c-.78.65-2.16,1.85-2.92,2.53Zm-3.83-9.27a7.47,7.47,0,0,1-.71,4,3.09,3.09,0,0,1-2.63,1.73c-1.46,0-2.31-1.11-2.31-2.76,0-3.24,2.91-3.83,5.66-3.83Zm49.39,9.32h-3.79a.71.71,0,0,1-.68-.7V60a.72.72,0,0,1,.73-.64h3.53a.72.72,0,0,1,.68.55v3H212c1.07-2.67,2.56-3.94,5.18-3.94a5,5,0,0,1,4.44,2.3c1,1.56,1,4.19,1,6.08V79.57a.72.72,0,0,1-.73.62h-3.81a.72.72,0,0,1-.68-.62V69c0-2.14.25-5.26-2.38-5.26a2.49,2.49,0,0,0-2.2,1.56,8.69,8.69,0,0,0-.6,3.7V79.48A.73.73,0,0,1,211.47,80.19Zm-16.7-16.79c-2.78,0-3,3.82-3,6.2s0,7,2.92,7,3.06-3.61,3.06-6.11a18.2,18.2,0,0,0-.56-5.18A2.37,2.37,0,0,0,194.77,63.39Zm0-4.49c5.6,0,8.63,4.85,8.63,11,0,6-3.35,10.68-8.63,10.68-5.49,0-8.49-4.85-8.49-10.89S189.28,58.91,194.74,58.91ZM126.88,80.19h-3.8a.72.72,0,0,1-.68-.64V60a.72.72,0,0,1,.73-.7h3.54a.72.72,0,0,1,.69.66v2.55h.07a5,5,0,0,1,5-3.62c2.38,0,3.87,1.15,4.94,3.62A5.62,5.62,0,0,1,147,61c1.21,1.64,1,4,1,6.12V79.48a.72.72,0,0,1-.73.7h-3.8a.71.71,0,0,1-.68-.7V69.13a24.92,24.92,0,0,0-.11-3.66,2,2,0,0,0-2.24-1.69,2.52,2.52,0,0,0-2.27,1.6,11.8,11.8,0,0,0-.35,3.74V79.48a.72.72,0,0,1-.73.7h-3.8a.71.71,0,0,1-.68-.7V69.13c0-2.18.35-5.38-2.34-5.38s-2.63,3.12-2.63,5.38V79.48A.72.72,0,0,1,126.88,80.19Zm44.74-17.42V60a.69.69,0,0,1,.71-.71h12.5a.7.7,0,0,1,.72.7v2.39a3.9,3.9,0,0,1-.94,1.76l-6.48,9.25a13.87,13.87,0,0,1,7.13,1.53,1.27,1.27,0,0,1,.66,1.09v3c0,.41-.45.88-.92.64a14.4,14.4,0,0,0-13.21,0c-.43.23-.89-.24-.89-.65V76.15a3.36,3.36,0,0,1,.46-1.92l7.5-10.76h-6.53a.7.7,0,0,1-.72-.7Z" style="fill:none;clip-rule:evenodd"/></clipPath></defs><title>amazon</title><g id="07b80354-313d-4c33-ad54-ec41838385e6" data-name="Слой 2"><g id="21d4746d-fe17-469f-80cb-5ee890cb6b17" data-name="Слой 1"><g style="opacity:0.75;isolation:isolate"><g style="clip-path:url(#eac4833c-d277-4100-8866-fd1b798b79ca)"><g style="clip-path:url(#110365d6-3334-405d-9e3a-c650c363fbb0)"><g style="clip-path:url(#1a800bae-622c-4606-9692-a8d18ab8f5d7)"><rect width="90.02" height="72.84" style="fill:#4b4b4b"/></g></g><g style="clip-path:url(#16e71536-c05b-4355-a10b-22c47a901876)"><g style="clip-path:url(#1a800bae-622c-4606-9692-a8d18ab8f5d7)"><rect x="48.44" y="53.34" width="24.74" height="21.61" style="fill:#4b4b4b"/></g></g><g style="clip-path:url(#16e71536-c05b-4355-a10b-22c47a901876)"><g style="clip-path:url(#1a800bae-622c-4606-9692-a8d18ab8f5d7)"><rect x="48.44" y="53.34" width="24.74" height="21.61" style="fill:#4b4b4b"/></g></g><g style="clip-path:url(#db281e60-6180-4d79-bb66-957ebf1e9834)"><g style="clip-path:url(#1a800bae-622c-4606-9692-a8d18ab8f5d7)"><rect x="63.87" y="53.02" width="20.44" height="22.26" style="fill:#4b4b4b"/></g></g><g style="clip-path:url(#db281e60-6180-4d79-bb66-957ebf1e9834)"><g style="clip-path:url(#1a800bae-622c-4606-9692-a8d18ab8f5d7)"><rect x="63.87" y="53.02" width="20.44" height="22.26" style="fill:#4b4b4b"/></g></g><g style="clip-path:url(#cef75182-b904-4499-8e3d-3fab273e8775)"><g style="clip-path:url(#1a800bae-622c-4606-9692-a8d18ab8f5d7)"><rect x="76.68" y="49.27" width="19.92" height="26" style="fill:#4b4b4b"/></g></g><g style="clip-path:url(#cef75182-b904-4499-8e3d-3fab273e8775)"><g style="clip-path:url(#1a800bae-622c-4606-9692-a8d18ab8f5d7)"><rect x="76.68" y="49.27" width="19.92" height="26" style="fill:#4b4b4b"/></g></g><g style="clip-path:url(#b5f4a526-5191-4bf0-8f15-96c357c6543a)"><g style="clip-path:url(#1a800bae-622c-4606-9692-a8d18ab8f5d7)"><rect x="91.21" y="53.02" width="19.94" height="22.26" style="fill:#4b4b4b"/></g></g><g style="clip-path:url(#b5f4a526-5191-4bf0-8f15-96c357c6543a)"><g style="clip-path:url(#1a800bae-622c-4606-9692-a8d18ab8f5d7)"><rect x="91.21" y="53.02" width="19.94" height="22.26" style="fill:#4b4b4b"/></g></g><g style="clip-path:url(#e1453b16-877d-4fd7-9152-70bd5079217b)"><g style="clip-path:url(#1a800bae-622c-4606-9692-a8d18ab8f5d7)"><rect x="102.22" y="53.02" width="20.43" height="22.26" style="fill:#4b4b4b"/></g></g><g style="clip-path:url(#e1453b16-877d-4fd7-9152-70bd5079217b)"><g style="clip-path:url(#1a800bae-622c-4606-9692-a8d18ab8f5d7)"><rect x="102.22" y="53.02" width="20.43" height="22.26" style="fill:#4b4b4b"/></g></g><g style="clip-path:url(#a79ee8d3-0929-40df-af7e-5e3ad614c4c7)"><g style="clip-path:url(#1a800bae-622c-4606-9692-a8d18ab8f5d7)"><rect x="114.6" y="53.02" width="15.71" height="21.94" style="fill:#4b4b4b"/></g></g><g style="clip-path:url(#a79ee8d3-0929-40df-af7e-5e3ad614c4c7)"><g style="clip-path:url(#1a800bae-622c-4606-9692-a8d18ab8f5d7)"><rect x="114.6" y="53.02" width="15.71" height="21.94" style="fill:#4b4b4b"/></g></g><g style="clip-path:url(#3cd5f640-3985-4547-9854-d6993ec0d6a3)"><g style="clip-path:url(#1a800bae-622c-4606-9692-a8d18ab8f5d7)"><rect x="121.52" y="53.34" width="20.03" height="21.61" style="fill:#4b4b4b"/></g></g><g style="clip-path:url(#3cd5f640-3985-4547-9854-d6993ec0d6a3)"><g style="clip-path:url(#1a800bae-622c-4606-9692-a8d18ab8f5d7)"><rect x="121.52" y="53.34" width="20.03" height="21.61" style="fill:#4b4b4b"/></g></g><g style="clip-path:url(#b030317b-0b52-49a5-a6f1-e8a079aabe79)"><g style="clip-path:url(#1a800bae-622c-4606-9692-a8d18ab8f5d7)"><rect x="133" y="49.27" width="11.94" height="25.68" style="fill:#4b4b4b"/></g></g><g style="clip-path:url(#b030317b-0b52-49a5-a6f1-e8a079aabe79)"><g style="clip-path:url(#1a800bae-622c-4606-9692-a8d18ab8f5d7)"><rect x="133" y="49.27" width="11.94" height="25.68" style="fill:#4b4b4b"/></g></g><g style="clip-path:url(#502ffc15-a700-4e21-802a-f8f3b9b13393)"><g style="clip-path:url(#1a800bae-622c-4606-9692-a8d18ab8f5d7)"><rect x="136.57" y="53.02" width="19.4" height="22.26" style="fill:#4b4b4b"/></g></g><g style="clip-path:url(#502ffc15-a700-4e21-802a-f8f3b9b13393)"><g style="clip-path:url(#1a800bae-622c-4606-9692-a8d18ab8f5d7)"><rect x="136.57" y="53.02" width="19.4" height="22.26" style="fill:#4b4b4b"/></g></g><g style="clip-path:url(#17a7d204-db6e-443a-b39d-75d4cdf060ec)"><g style="clip-path:url(#1a800bae-622c-4606-9692-a8d18ab8f5d7)"><rect x="147.62" y="53.02" width="20.44" height="22.26" style="fill:#4b4b4b"/></g></g><g style="clip-path:url(#17a7d204-db6e-443a-b39d-75d4cdf060ec)"><g style="clip-path:url(#1a800bae-622c-4606-9692-a8d18ab8f5d7)"><rect x="147.62" y="53.02" width="20.44" height="22.26" style="fill:#4b4b4b"/></g></g><g style="clip-path:url(#cc54b513-80f1-47ad-aad4-ff3997791247)"><g style="clip-path:url(#1a800bae-622c-4606-9692-a8d18ab8f5d7)"><rect x="159.07" y="53.02" width="19.95" height="22.26" style="fill:#4b4b4b"/></g></g><g style="clip-path:url(#cc54b513-80f1-47ad-aad4-ff3997791247)"><g style="clip-path:url(#1a800bae-622c-4606-9692-a8d18ab8f5d7)"><rect x="159.07" y="53.02" width="19.95" height="22.26" style="fill:#4b4b4b"/></g></g><g style="clip-path:url(#27b19778-0258-4f3e-9456-2e1a2a1ff602)"><g style="clip-path:url(#1a800bae-622c-4606-9692-a8d18ab8f5d7)"><rect x="48.11" y="24.47" width="131.18" height="31.88" style="fill:#4b4b4b"/></g></g></g></g></g></g></svg>