<svg xmlns="http://www.w3.org/2000/svg" xmlns:xlink="http://www.w3.org/1999/xlink" width="190" height="82.98" viewBox="0 0 190 82.98"><defs><clipPath id="27dfa7b7-7b99-4492-8eb5-ff69d2034c55" transform="translate(-43 -24.81)"><rect x="48" y="29" width="180" height="74" style="fill:none"/></clipPath><clipPath id="8a134a7e-2677-4e37-83d0-53733c8c62aa" transform="translate(-43 -24.81)"><path d="M227.42,51.23a1.9,1.9,0,0,1,.58,1.39,2,2,0,0,1-2,2,1.89,1.89,0,0,1-1.4-.58,2,2,0,0,1,2.8-2.8m-.17,2.63a1.75,1.75,0,0,0,0-2.45,1.73,1.73,0,0,0-2.46,0,1.76,1.76,0,0,0,0,2.46,1.73,1.73,0,0,0,2.46,0M227,52.24a.62.62,0,0,1-.46.67l.57.77h-.46l-.51-.72h-.47v.72h-.37V51.54h.8a1.13,1.13,0,0,1,.7.17.64.64,0,0,1,.21.53m-.48.3a.37.37,0,0,0,.11-.3.34.34,0,0,0-.11-.29.73.73,0,0,0-.41-.08h-.45v.77h.44a.68.68,0,0,0,.42-.09" style="fill:none;clip-rule:evenodd"/></clipPath><clipPath id="b0a0909c-fe41-467a-9250-8a5b435b0887" transform="translate(-43 -24.81)"><rect width="276" height="133" style="fill:none"/></clipPath><clipPath id="740e39d8-7e3f-429d-88ff-a8ec4e4fbd60" transform="translate(-43 -24.81)"><polygon points="93.55 42.44 93.55 46.36 93.04 46.36 93.04 42.44 91.61 42.44 91.61 41.95 94.99 41.95 94.99 42.44 93.55 42.44" style="fill:none;clip-rule:evenodd"/></clipPath><clipPath id="d8895f85-2700-4179-a654-7e84186153bc" transform="translate(-43 -24.81)"><polygon points="100.58 46.36 100.58 44.42 97.92 44.42 97.92 46.36 97.42 46.36 97.42 41.95 97.92 41.95 97.92 43.94 100.58 43.94 100.58 41.95 101.09 41.95 101.09 46.36 100.58 46.36" style="fill:none;clip-rule:evenodd"/></clipPath><clipPath id="89a6a389-8f94-40ed-b952-41fd3c3cad00" transform="translate(-43 -24.81)"><polygon points="104.61 42.44 104.61 43.88 106.83 43.88 106.83 44.37 104.61 44.37 104.61 45.88 107.18 45.88 107.18 46.36 104.1 46.36 104.1 41.95 107.09 41.95 107.09 42.44 104.61 42.44" style="fill:none;clip-rule:evenodd"/></clipPath><clipPath id="b1e25dba-b8fe-4503-9dfb-df81699e866f" transform="translate(-43 -24.81)"><path d="M87.76,76.59,98.3,51.4h2l10.54,25.19H108.2l-3.26-7.88H93.62l-3.23,7.88ZM99.33,54.31,94.15,66.77h10.22Z" style="fill:none;clip-rule:evenodd"/></clipPath><clipPath id="a4f1eafd-b9ef-42d9-8168-36a9b8d9bd3a" transform="translate(-43 -24.81)"><path d="M113.58,76.59V51.4H124c4.33,0,7.45,4,7.45,7.91,0,4.12-2.91,8-7.24,8H116v9.3ZM116,65.1h8.05c3,0,4.9-2.73,4.9-5.79s-2.34-5.71-5.11-5.71H116Z" style="fill:none;clip-rule:evenodd"/></clipPath><clipPath id="f3d28bb3-a50e-4e8b-87c5-59ffab161ae0" transform="translate(-43 -24.81)"><path d="M130.09,76.59,140.63,51.4h2l10.54,25.19h-2.66l-3.26-7.88H135.94l-3.23,7.88Zm11.57-22.28-5.18,12.46H146.7Z" style="fill:none;clip-rule:evenodd"/></clipPath><clipPath id="4df5124b-1d55-4d31-b567-6babeb59cf73" transform="translate(-43 -24.81)"><path d="M165.11,51.26a9.9,9.9,0,0,1,9.3,5.5l-2,1.21A7.93,7.93,0,0,0,165,53.49c-6,0-9.33,5.39-9.33,10.47,0,5.57,4.08,10.61,9.44,10.61a8.61,8.61,0,0,0,7.77-4.68L174.9,71c-1.63,3.76-6.1,5.85-10,5.85-6.92,0-11.78-6.6-11.78-13,0-6.07,4.36-12.56,12-12.56" style="fill:none;clip-rule:evenodd"/></clipPath><clipPath id="4ea13c6f-5dc2-4cef-8b30-f0b74f48c15d" transform="translate(-43 -24.81)"><polygon points="198.24 51.4 198.24 76.59 195.75 76.59 195.75 64.81 180.81 64.81 180.81 76.59 178.37 76.59 178.37 51.4 180.81 51.4 180.81 62.61 195.75 62.61 195.75 51.4 198.24 51.4" style="fill:none;clip-rule:evenodd"/></clipPath><clipPath id="ceecef9a-e233-4ec4-a129-c0815ed114f9" transform="translate(-43 -24.81)"><polygon points="220.85 74.39 220.85 76.59 203.93 76.59 203.93 51.4 220.53 51.4 220.53 53.6 206.38 53.6 206.38 62.69 218.72 62.69 218.72 64.78 206.38 64.78 206.38 74.39 220.85 74.39" style="fill:none;clip-rule:evenodd"/></clipPath><clipPath id="578916b8-685b-4e1e-8385-05664314eedf" transform="translate(-43 -24.81)"><path d="M90.11,81.93a2.82,2.82,0,0,1,.78.36l-.26.57a2.61,2.61,0,0,0-.73-.34,2.69,2.69,0,0,0-.74-.11,1.58,1.58,0,0,0-.82.19.58.58,0,0,0-.31.52.69.69,0,0,0,.17.48,1.17,1.17,0,0,0,.43.29c.17.07.41.15.71.24a8.44,8.44,0,0,1,.88.33,1.52,1.52,0,0,1,.57.45,1.22,1.22,0,0,1,.24.78,1.28,1.28,0,0,1-.24.77,1.53,1.53,0,0,1-.68.51,2.6,2.6,0,0,1-1,.18,3,3,0,0,1-2-.81l.27-.55a2.62,2.62,0,0,0,.84.55,2.45,2.45,0,0,0,.93.2,1.62,1.62,0,0,0,.91-.22.69.69,0,0,0,.33-.6.71.71,0,0,0-.17-.49,1.19,1.19,0,0,0-.43-.3c-.17-.07-.41-.15-.71-.24a7.45,7.45,0,0,1-.87-.31,1.46,1.46,0,0,1-.57-.44,1.2,1.2,0,0,1-.23-.77,1.19,1.19,0,0,1,.23-.72,1.45,1.45,0,0,1,.65-.48,2.54,2.54,0,0,1,1-.17,3.15,3.15,0,0,1,.91.13" style="fill:none;clip-rule:evenodd"/></clipPath><clipPath id="9dd5acee-4932-458c-8934-7877d90a2b39" transform="translate(-43 -24.81)"><path d="M98,82.16a2.73,2.73,0,0,1,1,1,2.63,2.63,0,0,1,0,2.7,2.73,2.73,0,0,1-1,1,2.9,2.9,0,0,1-2.8,0,2.73,2.73,0,0,1-1-1,2.64,2.64,0,0,1,0-2.71,2.67,2.67,0,0,1,1-1,2.85,2.85,0,0,1,1.41-.36,2.8,2.8,0,0,1,1.4.36m-2.48.5a2.16,2.16,0,0,0-.79.76,2,2,0,0,0-.3,1.05,2,2,0,0,0,.3,1.06,2.19,2.19,0,0,0,3.74,0,2,2,0,0,0,.29-1.06,2,2,0,0,0-.29-1.06,2.15,2.15,0,0,0-.79-.76,2.13,2.13,0,0,0-1.08-.28,2.16,2.16,0,0,0-1.08.28" style="fill:none;clip-rule:evenodd"/></clipPath><clipPath id="25370a43-2e91-4cdd-af14-dce98af09bed" transform="translate(-43 -24.81)"><polygon points="103.22 82.4 103.22 84.27 105.7 84.27 105.7 84.86 103.22 84.86 103.22 87.14 102.61 87.14 102.61 81.82 105.99 81.82 105.99 82.4 103.22 82.4" style="fill:none;clip-rule:evenodd"/></clipPath><clipPath id="78cb3941-8364-4deb-9402-e27a1ba44134" transform="translate(-43 -24.81)"><polygon points="110.92 82.4 110.92 87.14 110.31 87.14 110.31 82.4 108.59 82.4 108.59 81.82 112.66 81.82 112.66 82.4 110.92 82.4" style="fill:none;clip-rule:evenodd"/></clipPath><clipPath id="ca56d4fa-d05f-494a-becd-9d85d5636681" transform="translate(-43 -24.81)"><polygon points="120.53 87.14 119.09 82.66 117.64 87.14 117.02 87.14 115.24 81.82 115.89 81.82 117.35 86.43 118.79 81.82 119.4 81.82 120.86 86.43 122.3 81.82 122.93 81.82 121.15 87.14 120.53 87.14" style="fill:none;clip-rule:evenodd"/></clipPath><clipPath id="557d4ec5-cb75-4e8a-816e-d0718730eeac" transform="translate(-43 -24.81)"><path d="M126,85.79l-.59,1.34h-.65l2.39-5.32h.63l2.38,5.32h-.66l-.59-1.34Zm1.44-3.28-1.18,2.7h2.38Z" style="fill:none;clip-rule:evenodd"/></clipPath><clipPath id="31ab577c-01c5-4dbf-8568-067b2ee09263" transform="translate(-43 -24.81)"><path d="M135.41,85.44h-1.77v1.68H133V81.82h2a2.32,2.32,0,0,1,1.55.47,1.63,1.63,0,0,1,.55,1.32,1.86,1.86,0,0,1-.31,1.09,1.69,1.69,0,0,1-.88.63l1.24,1.81h-.69Zm.76-.89a1.14,1.14,0,0,0,.39-.94,1.09,1.09,0,0,0-.39-.91,1.78,1.78,0,0,0-1.12-.31h-1.41v2.47h1.41A1.73,1.73,0,0,0,136.17,84.55Z" style="fill:none;clip-rule:evenodd"/></clipPath><clipPath id="e435903c-a415-4caa-9ba9-1f4281ac26a7" transform="translate(-43 -24.81)"><polygon points="141.15 82.4 141.15 84.15 143.83 84.15 143.83 84.74 141.15 84.74 141.15 86.56 144.25 86.56 144.25 87.14 140.54 87.14 140.54 81.82 144.15 81.82 144.15 82.4 141.15 82.4" style="fill:none;clip-rule:evenodd"/></clipPath><clipPath id="a2c54686-bd33-4762-9f57-4e5777a415e2" transform="translate(-43 -24.81)"><polygon points="152.73 82.4 152.73 84.27 155.21 84.27 155.21 84.86 152.73 84.86 152.73 87.14 152.12 87.14 152.12 81.82 155.5 81.82 155.5 82.4 152.73 82.4" style="fill:none;clip-rule:evenodd"/></clipPath><clipPath id="bcdb67d2-5c8a-4a05-95cd-902987288bfb" transform="translate(-43 -24.81)"><path d="M162.23,82.16a2.72,2.72,0,0,1,1,1,2.63,2.63,0,0,1,0,2.7,2.73,2.73,0,0,1-1,1,2.9,2.9,0,0,1-2.8,0,2.73,2.73,0,0,1-1-1,2.64,2.64,0,0,1,0-2.71,2.67,2.67,0,0,1,1-1,2.85,2.85,0,0,1,1.41-.36,2.8,2.8,0,0,1,1.4.36m-2.48.5a2.17,2.17,0,0,0-.79.76,2,2,0,0,0-.3,1.05,2,2,0,0,0,.3,1.06,2.19,2.19,0,0,0,1.88,1,2.16,2.16,0,0,0,1.86-1,2,2,0,0,0,.29-1.06,2,2,0,0,0-.29-1.06,2.15,2.15,0,0,0-.79-.76,2.13,2.13,0,0,0-1.08-.28,2.16,2.16,0,0,0-1.08.28" style="fill:none;clip-rule:evenodd"/></clipPath><clipPath id="6b8302a9-4178-4470-b6f5-ec2bc2aecf4c" transform="translate(-43 -24.81)"><path d="M170.6,86.58a2.58,2.58,0,0,1-3.28,0,2.19,2.19,0,0,1-.59-1.63V81.82h.61v3.13a1.63,1.63,0,1,0,3.25,0V81.82h.61v3.13a2.2,2.2,0,0,1-.59,1.63" style="fill:none;clip-rule:evenodd"/></clipPath><clipPath id="e509718a-1bf3-486c-8a93-ba39c9367067" transform="translate(-43 -24.81)"><polygon points="178.55 87.14 175.36 82.87 175.36 87.14 174.75 87.14 174.75 81.82 175.38 81.82 178.57 86.09 178.57 81.82 179.17 81.82 179.17 87.14 178.55 87.14" style="fill:none;clip-rule:evenodd"/></clipPath><clipPath id="68e0834a-20c5-4ebb-b47b-2cdb1fcecc73" transform="translate(-43 -24.81)"><path d="M186.35,82.17a2.62,2.62,0,0,1,1,1,2.64,2.64,0,0,1-1,3.66,2.86,2.86,0,0,1-1.4.35h-2.13V81.82H185A2.78,2.78,0,0,1,186.35,82.17Zm-2.93,4.39H185a2.15,2.15,0,0,0,1.07-.27,2,2,0,0,0,.76-.74,2.05,2.05,0,0,0,.28-1.06,2,2,0,0,0-.29-1.06,2.07,2.07,0,0,0-.77-.75,2.15,2.15,0,0,0-1.08-.28h-1.53Z" style="fill:none;clip-rule:evenodd"/></clipPath><clipPath id="ba5e777d-d95c-419a-9a22-cee8df2f7498" transform="translate(-43 -24.81)"><path d="M191.16,85.79l-.59,1.34h-.65l2.39-5.32h.63l2.38,5.32h-.66l-.59-1.34Zm1.44-3.28-1.18,2.7h2.39Z" style="fill:none;clip-rule:evenodd"/></clipPath><clipPath id="b6e86aee-656c-4f32-a3a1-44dd9d51e8da" transform="translate(-43 -24.81)"><polygon points="199.3 82.4 199.3 87.14 198.69 87.14 198.69 82.4 196.96 82.4 196.96 81.82 201.04 81.82 201.04 82.4 199.3 82.4" style="fill:none;clip-rule:evenodd"/></clipPath><clipPath id="01b2810d-fd0c-4cf8-a8c5-75f22bee4cce" transform="translate(-43 -24.81)"><rect x="203.97" y="81.82" width="0.61" height="5.32" style="fill:none"/></clipPath><clipPath id="45f4d9b9-d606-4c6d-9bbe-b28d0e54cf9f" transform="translate(-43 -24.81)"><path d="M212,82.16a2.72,2.72,0,0,1,1,1,2.63,2.63,0,0,1,0,2.7,2.73,2.73,0,0,1-1,1,2.9,2.9,0,0,1-2.8,0,2.72,2.72,0,0,1-1-1,2.64,2.64,0,0,1,0-2.71,2.67,2.67,0,0,1,1-1,2.85,2.85,0,0,1,1.41-.36,2.8,2.8,0,0,1,1.39.36m-2.48.5a2.16,2.16,0,0,0-.79.76,2,2,0,0,0-.3,1.05,2,2,0,0,0,.3,1.06,2.19,2.19,0,0,0,3.74,0,2,2,0,0,0,.29-1.06,2,2,0,0,0-.29-1.06,2.15,2.15,0,0,0-.79-.76,2.13,2.13,0,0,0-1.08-.28,2.16,2.16,0,0,0-1.08.28" style="fill:none;clip-rule:evenodd"/></clipPath><clipPath id="58c1ca4b-cce4-4e2b-afd5-66e6c27acb17" transform="translate(-43 -24.81)"><polygon points="220.4 87.14 217.21 82.87 217.21 87.14 216.6 87.14 216.6 81.82 217.23 81.82 220.42 86.09 220.42 81.82 221.02 81.82 221.02 87.14 220.4 87.14" style="fill:none;clip-rule:evenodd"/></clipPath><clipPath id="57b53d85-551c-4795-bbfb-dc3968a9b6b7" transform="translate(-43 -24.81)"><path d="M84.32,34.54a7.35,7.35,0,0,0-.5-1.8,3.82,3.82,0,0,0-.39-.72l-.11-.17c-.09-.12-.22-.3-.4-.51s-.23-.26-.36-.39l-.34-.31-.32-.25-.31-.2-.3-.15L81,29.94l-.27-.07-.27,0-.19,0h-.07l-.25,0-.24.05-.23.08-.23.1-.19.1,0,0A12.21,12.21,0,0,0,77,31.94c-.6.6-1.26,1.31-2,2.13-.4.46-.8.93-1.23,1.45l-.47.58-1.08,1.38-.13.18-.13.17-.13.18-.13.17-.13.17-.12.16v0l-.13.18-.13.18-.13.18-.13.18-.13.18-.13.18-.13.18-.13.18-.13.18-.13.18-.13.18-.13.18-.13.18-.13.18-.13.18-.13.18-.13.18,0,0-.1.15-.12.18-.12.18-.12.18-.12.18-.12.18-.12.18-.12.18-.12.18-.12.18-.12.18-.12.18-.12.18-.12.18-.12.18-.12.18-.12.18-.06.09-.06.09L66.9,45l-.12.18-.12.18-.12.18-.12.18-.12.18-.12.18-.12.18-.12.18-.12.18-.12.18-.12.18-.12.18-.12.18-.12.18h0l-.07.11,0,0-.11.18h0l-.11.19-.11.19-.11.19-.11.19-.11.19-.11.19-.11.19-.11.19c-.33.56-.67,1.11-1,1.68l-.14.25c-.37.64-.72,1.3-1.08,2-.21.37-.42.74-.62,1.12l-.44.85c-.34.66-.69,1.32-1,2l0,0-.2.4-.09.18-.13.27-.21.45L59,59l-.21.45-.21.46-.2.46-.2.46-.2.46,0,.06-.17.41-.19.46-.19.47-.19.46-.18.47-.18.47-.18.47-.17.46v0l-.16.48L56.2,66l-.16.48-.16.48-.1.29-.06.2-.14.48-.14.49-.15.49,0,.16-.09.33-.13.49-.13.49-.13.49-.12.5c0,.17-.07.33-.11.5l-.11.5c0,.17-.08.33-.11.5s-.07.3-.1.45l0,.1,0,.09c0,.13,0,.26-.07.39s-.05.32-.08.48l-.08.48c0,.16-.06.32-.08.48s-.06.32-.08.48,0,.32-.07.49,0,.33-.05.49,0,.33-.05.49,0,.33-.05.49,0,.33-.05.49,0,.25,0,.38v.18l-.06-.09a5.47,5.47,0,0,0-.74-.87,12.23,12.23,0,0,0-1.55-1.24c-.45-.31-.77-.49-.77-.49l.13.19.5.75.45.73c.14.24.27.47.4.71l.36.69c.11.22.22.44.31.67s.19.43.27.65.14.41.21.61.12.4.17.6.1.39.14.58.05.37.07.55,0,.2,0,.3a3,3,0,0,1-.43,0A5.36,5.36,0,0,1,51.5,83a12.61,12.61,0,0,1-1.59-.48c.23.21.45.39.66.56a6.19,6.19,0,0,0,2.29,1.23,3.59,3.59,0,0,0-.57.09,4.77,4.77,0,0,0-.66.21c-.19.07-.38.16-.57.25l-.51.28-.48.29-.46.31-.44.31-.4.3.57-.22.63-.22.67-.2.73-.18a7.62,7.62,0,0,1,.84-.13,4.75,4.75,0,0,1,1.16,0l.24,0,0,.06-.16.45-.16.45-.15.45-.16.45-.15.45-.15.45-.15.45-.15.45-.15.45L52,90l-.15.45-.15.45-.15.45-.15.45-.15.45-.15.45-.15.45-.15.45-.15.45,0,.06,0,.06,0,.06,0,.06,0,.06,0,.06,0,.06,0,.06,0,.06,0,.06,0,.06,0,.06,0,.06,0,.06,0,.06,0,.06,0,.06,0,.06,0,.06,0,.06,0,.06,0,.06,0,.06,0,.06,0,.06,0,.06,0,.06,0,.06,0,.06,0,.06,0,.06,0,.06,0,.06,0,.06,0,.06,0,.06,0,.06,0,.06,0,.06,0,.06,0,.06,0,.06,0,.06,0,.06,0,.06,0,.06,0,.06,0,.06,0,.06,0,.06,0,.06,0,.06,0,.06,0,.06,0,.06,0,.06,0,.06,0,.06,0,.06,0,.06,0,.06,0,.06q-.8,2.54-1.59,5.18a1.63,1.63,0,0,0,1.11-1.08c.13-.43.53-1.76,1.17-3.78l0-.06,0-.06,0-.06,0-.06,0-.06,0-.06,0-.06,0-.06,0-.06,0-.06,0-.06,0-.06,0-.06,0-.06,0-.06,0-.06,0-.06,0-.06,0-.06,0-.06,0-.06,0-.06,0-.06,0-.06,0-.06,0-.06,0-.06,0-.06,0-.06,0-.06,0-.06,0-.06,0-.06,0-.06,0-.06,0-.06,0-.06,0-.06,0-.06,0-.06,0-.06,0-.06,0-.06,0-.06,0-.06,0-.06,0-.06,0-.06,0-.06,0-.06,0-.06,0-.06,0-.06,0-.06,0-.06,0-.06,0-.06,0-.06,0-.06,0-.06,0-.06,0-.06.15-.45.15-.45.15-.45L52,92.6l.15-.45.15-.45.15-.45.15-.45.15-.45.15-.45.15-.45.15-.45.15-.45.15-.45.15-.45.15-.45.16-.44.16-.45.16-.45.16-.45.16-.44.16-.44.16-.44.16-.44,0-.09.13-.35.16-.44v0l.08-.23.07-.18.16-.44.16-.44.16-.44.16-.44.16-.44.16-.44.1-.27.07-.17.16-.44,0-.11v0l.06-.15.18-.47.18-.47.18-.47.18-.47.18-.47.16-.43,0,0,.18-.47.12-.32.06-.15.18-.47.18-.47.18-.47.18-.47.18-.47.18-.47.18-.47.11-.29.07-.18.19-.46.19-.46.19-.46.19-.47.19-.46.19-.46.19-.47.08-.18.12-.28.2-.46.2-.46.2-.46.2-.46.2-.46.2-.46.2-.46.05-.13.15-.33.2-.46.2-.46.2-.46.2-.46.2-.46.2-.46.2-.46.07-.16.14-.3.21-.46q.46-1,.94-2l.39-.84.56-1.17.06-.12q.46-.95.93-1.88l.16-.32.06-.12.09-.17.1-.19.1-.19.1-.19.1-.19.1-.19.1-.19.1-.19.1-.19.1-.19L69,51l.1-.19.1-.19.1-.19.1-.19.1-.19.1-.19.09-.17v0l.1-.19.11-.19L70,49l.1-.19.1-.19.1-.19.11-.19.1-.19.1-.19.1-.19.1-.19.11-.19.1-.19.11-.19.1-.19.1-.19.1-.19.1-.19,0-.06.08-.13.11-.19.11-.19.11-.19.11-.19.11-.19.11-.19.11-.19.11-.19.11-.19.11-.19L72.9,44,73,43.8l.11-.18.11-.19.11-.18.11-.19.11-.18.07-.12,0-.06.08-.13,0-.05.12-.18.12-.18.12-.18.12-.18.12-.18.12-.18.12-.18.12-.18.12-.18.12-.18.12-.18.12-.18.12-.18.12-.18.12-.18.12-.18.1-.15.46-.64c.62-.87,1.25-1.7,1.88-2.49s1.29-1.56,1.94-2.27l.17-.19-.17.19c-.36.41-1,1.19-1.9,2.41-.53.72-1.14,1.61-1.83,2.65l-.28.42-.12.19-.12.18-.12.18-.12.18-.12.18-.12.18-.12.18-.12.18-.11.18-.11.18-.11.19-.11.18-.11.19-.11.18-.11.19-.11.19-.11.18-.05.08-.06.1L74,43l-.06.1-.11.19-.11.19-.11.19-.11.19-.11.19-.11.19-.11.19-.11.19-.11.19-.11.19-.11.19-.11.19-.11.19-.11.19-.11.19-.11.19-.11.19-.1.18h0l-.1.19-.1.19-.1.19-.1.19-.1.19-.1.19-.1.19-.1.19-.1.19-.1.19-.1.19-.1.19-.1.19-.1.19-.1.19-.1.19-.1.19-.1.19,0,.08-.06.11-.1.19-.1.19-.1.19-.1.19-.1.19-.1.19-.1.19-.1.19-.1.19-.1.19-.1.19-.1.19-.1.19-.1.19-.1.19-.1.19-.1.19-.05.1,0,.08-.11.23-.12.25-.71,1.48-.13.28-.66,1.4-.28.62L66.2,58c-.26.57-.53,1.17-.8,1.77l-.21.46-.21.46,0,0-.18.41-.2.46-.2.46-.2.46L64,63l-.2.46-.2.46-.19.44v0l-.19.46-.19.46-.2.46-.19.46-.19.46-.19.46-.19.46-.18.42,0,0-.19.46-.19.47-.19.47-.19.47-.19.47-.18.47-.19.47-.17.44v0l-.18.47-.18.47-.18.47-.18.47-.18.47-.18.47-.18.47-.09.23-.07.18,0,.07-.18.47-.17.47-.18.47-.18.47-.18.47-.18.47-.17.47-.13.34,0,.09-.15.4-.06.16-.12.34-.18.5-.18.5-.18.5-.18.5-.18.5-.06.16,0,0-.11.3,0,.13-.13.37-.17.51-.17.51-.17.51-.17.51-.12.33a2.63,2.63,0,0,1,.75.55,5.92,5.92,0,0,1,.74.93c.17.26.34.53.5.82l.06.12s0-.06,0-.09a4.5,4.5,0,0,0-.09-.63,4.43,4.43,0,0,0-.22-.69,4.32,4.32,0,0,0-.41-.78,4.42,4.42,0,0,0-.68-.82h.19c.43,0,.86,0,1.28,0s.73,0,1.08-.09.64-.08,1-.14.59-.11.87-.18.52-.15.76-.23.45-.18.67-.27.43-.18.63-.29.35-.23.53-.34.36-.22.52-.35.28-.26.42-.39.29-.25.42-.39.22-.29.33-.43.22-.28.32-.44.08-.1.12-.16.1-.2.16-.3.17-.31.25-.47l0,0,0,0a4.1,4.1,0,0,1-.38.41,3.18,3.18,0,0,1-.48.37,3.08,3.08,0,0,1-.62.3,4,4,0,0,1-.85.19,7.19,7.19,0,0,1-1.19,0h-.1l0,0,.62-.3.6-.31.58-.32L64,81l.5-.35.47-.37.43-.39c.14-.13.26-.27.39-.41l.36-.42c.11-.14.23-.28.34-.43s.2-.3.3-.45l.17-.26.12-.2.27-.46.25-.47.21-.4c-.12.12-.24.22-.36.33s-.28.27-.42.39-.32.25-.47.37-.33.25-.5.36-.38.22-.56.33-.39.22-.59.31-.46.19-.69.26a7.74,7.74,0,0,1-.79.22,8,8,0,0,1-.92.16,8.6,8.6,0,0,1-1.14.06,10,10,0,0,1-1.56-.14h-.1l-.13,0c.18,0,.38-.07.57-.11s.51-.11.78-.19.47-.13.71-.22l.63-.26L62.9,78l.57-.29.55-.29.51-.31.51-.32.47-.33.47-.33.43-.35.43-.36.4-.36.38-.38.33-.33,0,0,.34-.39.34-.39.32-.41.31-.41.3-.42.28-.42.28-.42.26-.43.26-.43.12-.2.13-.24.23-.45.23-.45.23-.44.22-.45.2-.46.2-.46.2-.46c.06-.14.13-.27.19-.42l0,0,.18-.47.18-.47.18-.47.18-.47.16-.48.16-.48c.13-.38.26-.74.39-1.14a7.52,7.52,0,0,1-1.58.58c-.16,0-.31.1-.48.13h-.5l0,0c.2-.09.4-.18.59-.28a8.43,8.43,0,0,0,2-1.51,10.47,10.47,0,0,0,1.42-1.8c.25-.4.49-.81.71-1.24a9.27,9.27,0,0,1-1.57.84,8,8,0,0,1-1.37.45H73A10.47,10.47,0,0,0,74.28,59c.23-.14.46-.28.67-.43l.39-.31q.28-.25.54-.52l.29-.32,0,0a8.59,8.59,0,0,0,.68-.94l.19-.32.23-.46.06-.13.09-.2.09-.19.09-.19.09-.19.09-.2.08-.2.08-.2.08-.2.06-.14,0-.06.08-.2.08-.2.08-.2,0-.09,0-.12.05-.15,0-.06.06-.21.06-.21.06-.21h0l0-.2.05-.21c0-.08,0-.15,0-.22l0-.09-.08.05-.2.14h0l-.25.12-.24.12-.26.12-.28.11-.28.11-.3.1-.31.09-.31.09-.34.08-.34.08-.1,0h0l-.22,0h-.08l.05,0,.2-.1.25-.12.25-.12.23-.13.23-.13.23-.13.21-.14.21-.14.2-.15.19-.15.19-.15.18-.15.17-.16.16-.16.16-.16.15-.17.14-.17.14-.17.13-.17L79,49.7l0,0,.11-.16.12-.18.12-.18.12-.18.12-.18.11-.16v0l.11-.19.11-.18.11-.19.11-.19.11-.19.11-.18.11-.19.11-.19.11-.18.1-.19.1-.19.1-.19.1-.19.1-.19.1-.19.1-.19.1-.19.1-.19.08-.14,0,0,.09-.19.09-.19.09-.19.09-.19.09-.19.09-.19.09-.19.09-.19.09-.19.08-.2.08-.2c.18-.4.36-.81.5-1.19a17.16,17.16,0,0,0,.61-1.83c.13-.48.22-.93.3-1.36,0-.16,0-.31.07-.46s.06-.43.08-.63,0-.49.06-.72,0-.6,0-.87a10.42,10.42,0,0,0-.11-1.31" style="fill:none;clip-rule:evenodd"/></clipPath></defs><title>apache</title><g id="f6a75fbf-beda-4fa1-be05-8fad1c08a7f9" data-name="Слой 2"><g id="1ffb52f2-16b2-48c7-a96c-79a402a70bd2" data-name="Слой 1"><g style="opacity:0.7547000050544739;isolation:isolate"><g style="clip-path:url(#27dfa7b7-7b99-4492-8eb5-ff69d2034c55)"><g style="clip-path:url(#8a134a7e-2677-4e37-83d0-53733c8c62aa)"><g style="clip-path:url(#b0a0909c-fe41-467a-9250-8a5b435b0887)"><rect x="176.04" y="20.83" width="13.96" height="13.96" style="fill:#4b4b4b"/></g></g><g style="clip-path:url(#740e39d8-7e3f-429d-88ff-a8ec4e4fbd60)"><g style="clip-path:url(#b0a0909c-fe41-467a-9250-8a5b435b0887)"><rect x="43.61" y="12.14" width="13.38" height="14.41" style="fill:#4b4b4b"/></g></g><g style="clip-path:url(#d8895f85-2700-4179-a654-7e84186153bc)"><g style="clip-path:url(#b0a0909c-fe41-467a-9250-8a5b435b0887)"><rect x="49.42" y="12.14" width="13.67" height="14.41" style="fill:#4b4b4b"/></g></g><g style="clip-path:url(#89a6a389-8f94-40ed-b952-41fd3c3cad00)"><g style="clip-path:url(#b0a0909c-fe41-467a-9250-8a5b435b0887)"><rect x="56.1" y="12.14" width="13.08" height="14.41" style="fill:#4b4b4b"/></g></g><g style="clip-path:url(#b1e25dba-b8fe-4503-9dfb-df81699e866f)"><g style="clip-path:url(#b0a0909c-fe41-467a-9250-8a5b435b0887)"><rect x="39.76" y="21.59" width="33.1" height="35.19" style="fill:#4b4b4b"/></g></g><g style="clip-path:url(#a4f1eafd-b9ef-42d9-8168-36a9b8d9bd3a)"><g style="clip-path:url(#b0a0909c-fe41-467a-9250-8a5b435b0887)"><rect x="65.58" y="21.59" width="27.88" height="35.19" style="fill:#4b4b4b"/></g></g><g style="clip-path:url(#f3d28bb3-a50e-4e8b-87c5-59ffab161ae0)"><g style="clip-path:url(#b0a0909c-fe41-467a-9250-8a5b435b0887)"><rect x="82.09" y="21.59" width="33.1" height="35.19" style="fill:#4b4b4b"/></g></g><g style="clip-path:url(#4df5124b-1d55-4d31-b567-6babeb59cf73)"><g style="clip-path:url(#b0a0909c-fe41-467a-9250-8a5b435b0887)"><rect x="105.15" y="21.44" width="31.75" height="35.55" style="fill:#4b4b4b"/></g></g><g style="clip-path:url(#4ea13c6f-5dc2-4cef-8b30-f0b74f48c15d)"><g style="clip-path:url(#b0a0909c-fe41-467a-9250-8a5b435b0887)"><rect x="130.37" y="21.59" width="29.87" height="35.19" style="fill:#4b4b4b"/></g></g><g style="clip-path:url(#ceecef9a-e233-4ec4-a129-c0815ed114f9)"><g style="clip-path:url(#b0a0909c-fe41-467a-9250-8a5b435b0887)"><rect x="155.93" y="21.59" width="26.93" height="35.19" style="fill:#4b4b4b"/></g></g><g style="clip-path:url(#578916b8-685b-4e1e-8385-05664314eedf)"><g style="clip-path:url(#b0a0909c-fe41-467a-9250-8a5b435b0887)"><rect x="39.07" y="51.98" width="13.96" height="15.36" style="fill:#4b4b4b"/></g></g><g style="clip-path:url(#9dd5acee-4932-458c-8934-7877d90a2b39)"><g style="clip-path:url(#b0a0909c-fe41-467a-9250-8a5b435b0887)"><rect x="45.82" y="51.99" width="15.57" height="15.36" style="fill:#4b4b4b"/></g></g><g style="clip-path:url(#25370a43-2e91-4cdd-af14-dce98af09bed)"><g style="clip-path:url(#b0a0909c-fe41-467a-9250-8a5b435b0887)"><rect x="54.61" y="52" width="13.38" height="15.32" style="fill:#4b4b4b"/></g></g><g style="clip-path:url(#78cb3941-8364-4deb-9402-e27a1ba44134)"><g style="clip-path:url(#b0a0909c-fe41-467a-9250-8a5b435b0887)"><rect x="60.59" y="52" width="14.08" height="15.32" style="fill:#4b4b4b"/></g></g><g style="clip-path:url(#ca56d4fa-d05f-494a-becd-9d85d5636681)"><g style="clip-path:url(#b0a0909c-fe41-467a-9250-8a5b435b0887)"><rect x="67.24" y="52" width="17.7" height="15.32" style="fill:#4b4b4b"/></g></g><g style="clip-path:url(#557d4ec5-cb75-4e8a-816e-d0718730eeac)"><g style="clip-path:url(#b0a0909c-fe41-467a-9250-8a5b435b0887)"><rect x="76.73" y="52" width="15.39" height="15.32" style="fill:#4b4b4b"/></g></g><g style="clip-path:url(#31ab577c-01c5-4dbf-8568-067b2ee09263)"><g style="clip-path:url(#b0a0909c-fe41-467a-9250-8a5b435b0887)"><rect x="85.03" y="52" width="14.17" height="15.32" style="fill:#4b4b4b"/></g></g><g style="clip-path:url(#e435903c-a415-4caa-9ba9-1f4281ac26a7)"><g style="clip-path:url(#b0a0909c-fe41-467a-9250-8a5b435b0887)"><rect x="92.54" y="52" width="13.71" height="15.32" style="fill:#4b4b4b"/></g></g><g style="clip-path:url(#a2c54686-bd33-4762-9f57-4e5777a415e2)"><g style="clip-path:url(#b0a0909c-fe41-467a-9250-8a5b435b0887)"><rect x="104.12" y="52" width="13.38" height="15.32" style="fill:#4b4b4b"/></g></g><g style="clip-path:url(#bcdb67d2-5c8a-4a05-95cd-902987288bfb)"><g style="clip-path:url(#b0a0909c-fe41-467a-9250-8a5b435b0887)"><rect x="110.05" y="51.99" width="15.57" height="15.36" style="fill:#4b4b4b"/></g></g><g style="clip-path:url(#6b8302a9-4178-4470-b6f5-ec2bc2aecf4c)"><g style="clip-path:url(#b0a0909c-fe41-467a-9250-8a5b435b0887)"><rect x="118.72" y="52" width="14.47" height="15.35" style="fill:#4b4b4b"/></g></g><g style="clip-path:url(#e509718a-1bf3-486c-8a93-ba39c9367067)"><g style="clip-path:url(#b0a0909c-fe41-467a-9250-8a5b435b0887)"><rect x="126.75" y="52" width="14.42" height="15.32" style="fill:#4b4b4b"/></g></g><g style="clip-path:url(#68e0834a-20c5-4ebb-b47b-2cdb1fcecc73)"><g style="clip-path:url(#b0a0909c-fe41-467a-9250-8a5b435b0887)"><rect x="134.81" y="52" width="14.89" height="15.32" style="fill:#4b4b4b"/></g></g><g style="clip-path:url(#ba5e777d-d95c-419a-9a22-cee8df2f7498)"><g style="clip-path:url(#b0a0909c-fe41-467a-9250-8a5b435b0887)"><rect x="141.92" y="52" width="15.39" height="15.32" style="fill:#4b4b4b"/></g></g><g style="clip-path:url(#b6e86aee-656c-4f32-a3a1-44dd9d51e8da)"><g style="clip-path:url(#b0a0909c-fe41-467a-9250-8a5b435b0887)"><rect x="148.96" y="52" width="14.08" height="15.32" style="fill:#4b4b4b"/></g></g><g style="clip-path:url(#01b2810d-fd0c-4cf8-a8c5-75f22bee4cce)"><g style="clip-path:url(#b0a0909c-fe41-467a-9250-8a5b435b0887)"><rect x="155.97" y="52" width="10.61" height="15.32" style="fill:#4b4b4b"/></g></g><g style="clip-path:url(#45f4d9b9-d606-4c6d-9bbe-b28d0e54cf9f)"><g style="clip-path:url(#b0a0909c-fe41-467a-9250-8a5b435b0887)"><rect x="159.81" y="51.99" width="15.57" height="15.36" style="fill:#4b4b4b"/></g></g><g style="clip-path:url(#58c1ca4b-cce4-4e2b-afd5-66e6c27acb17)"><g style="clip-path:url(#b0a0909c-fe41-467a-9250-8a5b435b0887)"><rect x="168.6" y="52" width="14.42" height="15.32" style="fill:#4b4b4b"/></g></g><g style="clip-path:url(#57b53d85-551c-4795-bbfb-dc3968a9b6b7)"><g style="clip-path:url(#b0a0909c-fe41-467a-9250-8a5b435b0887)"><rect width="46.44" height="82.98" style="fill:#4b4b4b"/></g></g></g></g></g></g></svg>