<svg xmlns="http://www.w3.org/2000/svg" xmlns:xlink="http://www.w3.org/1999/xlink" width="139.97" height="95.67" viewBox="0 0 139.97 95.67"><defs><clipPath id="d824b651-13df-4d7e-a6f4-d5e5319bb734" transform="translate(-68 -19.05)"><rect x="73" y="24" width="130" height="86" style="fill:none"/></clipPath><clipPath id="db98ee7f-b751-44bf-8764-324c5f78d71a" transform="translate(-68 -19.05)"><path d="M112.26,98.65a4.21,4.21,0,0,1,1.47.25c1,.41,1.62-1,1.67-1.78a4.41,4.41,0,0,0-2.84-1c-3,0-5.12,2-5.12,4.42a3.93,3.93,0,0,0,1.93,3.25c1.72,1.27,2.18,1.68,2.18,2.18s-.61,1-1.57,1a7.87,7.87,0,0,1-3-.76c-.56-.3-1,1.42-.46,2.29a4,4,0,0,0,3,1.12c3.5,0,5.48-2.28,5.48-4.42,0-1.27-.56-2.18-1.93-3.2-1.93-1.37-2.33-1.78-2.33-2.34,0-.71.71-1.07,1.47-1.07" style="fill:none;clip-rule:evenodd"/></clipPath><clipPath id="f00022fc-c938-4945-b072-e5b28373f7cf" transform="translate(-68 -19.05)"><rect width="276" height="133" style="fill:none"/></clipPath><clipPath id="de5628b9-bd9d-41e2-a455-d9f90e352d54" transform="translate(-68 -19.05)"><path d="M122.26,98.65a4.21,4.21,0,0,1,1.47.25c1,.41,1.62-1,1.67-1.78a4.41,4.41,0,0,0-2.84-1c-3,0-5.12,2-5.12,4.42a3.93,3.93,0,0,0,1.93,3.25c1.72,1.27,2.18,1.68,2.18,2.18s-.61,1-1.57,1a7.87,7.87,0,0,1-3-.76c-.56-.3-1,1.42-.46,2.29a4.06,4.06,0,0,0,3,1.12c3.5,0,5.48-2.28,5.48-4.42,0-1.27-.56-2.18-1.93-3.2-1.93-1.37-2.33-1.78-2.33-2.34,0-.71.71-1.07,1.47-1.07" style="fill:none;clip-rule:evenodd"/></clipPath><clipPath id="d6556fef-ddfb-4d9e-b2bf-5ebe87f320e1" transform="translate(-68 -19.05)"><path d="M129.71,98.55a10,10,0,0,0-2.74,6.86c0,2.84,1.12,4.27,2.74,4.21a7,7,0,0,0,5.68-3.45,11,11,0,0,1-.1,1.17c-.05,1.17,0,2.34.25,2.34a10.81,10.81,0,0,0,3.25-.51,22.06,22.06,0,0,1,.15-3.45c.36-2.79,1-7.62,1.32-8.89a28,28,0,0,0-4.36-.66,8.16,8.16,0,0,0-6.19,2.39m6.65.91c-.71,4.77-3.3,7.26-4.72,7.26-.61,0-.91-.66-1-1.83a8.27,8.27,0,0,1,1.47-4.62,3.56,3.56,0,0,1,3.15-1.68,4,4,0,0,1,1.17.2c-.05.3-.05.36-.1.66" style="fill:none;clip-rule:evenodd"/></clipPath><clipPath id="7f363a3d-0b6a-479a-80db-f32d2e3149af" transform="translate(-68 -19.05)"><path d="M184.86,98.55a10,10,0,0,0-2.74,6.86c0,2.84,1.12,4.27,2.74,4.21a7,7,0,0,0,5.68-3.45,10.93,10.93,0,0,1-.1,1.17c-.05,1.17,0,2.34.25,2.34a10.81,10.81,0,0,0,3.25-.51,22.06,22.06,0,0,1,.15-3.45c.36-2.79,1-7.62,1.32-8.89a28,28,0,0,0-4.36-.66,8.16,8.16,0,0,0-6.19,2.39m6.65.91c-.71,4.77-3.3,7.26-4.72,7.26-.61,0-.91-.66-1-1.83a8.27,8.27,0,0,1,1.47-4.62,3.56,3.56,0,0,1,3.15-1.68,4,4,0,0,1,1.17.2c-.05.3-.05.36-.1.66" style="fill:none;clip-rule:evenodd"/></clipPath><clipPath id="d3a0506b-1a49-4ab7-bfa8-48faee6f0767" transform="translate(-68 -19.05)"><path d="M94.81,98.55a10,10,0,0,0-2.74,6.86c0,2.84,1.07,4.27,2.74,4.21a7,7,0,0,0,5.68-3.45,10.94,10.94,0,0,1-.1,1.17c-.05,1.17,0,2.34.25,2.34a10.81,10.81,0,0,0,3.25-.51,22.06,22.06,0,0,1,.15-3.45c.36-2.79,1-7.62,1.32-8.89a28,28,0,0,0-4.36-.66,8.16,8.16,0,0,0-6.19,2.39m6.65.91c-.71,4.77-3.3,7.26-4.72,7.26-.61,0-1-.66-1-1.83a8.27,8.27,0,0,1,1.47-4.62,3.56,3.56,0,0,1,3.15-1.68,4,4,0,0,1,1.17.2c-.05.3-.05.36-.1.66" style="fill:none;clip-rule:evenodd"/></clipPath><clipPath id="9bdd832e-c1fd-4389-8dd9-177cd3817660" transform="translate(-68 -19.05)"><path d="M182.37,96.67a2.17,2.17,0,0,0-1.22-.51c-1.22,0-3,.76-4.57,4.17v-.05h-.1c.41-2.59.2-4.16-.05-4.16a16.12,16.12,0,0,0-3.2.76,15.07,15.07,0,0,1-.05,2.59c-.3,2.84-1,7.67-1.47,10.06a12.07,12.07,0,0,0,3.35-.56c.3-.15.46-.35.56-.91,1.22-6.6,3.2-8.13,4.16-8.13a3.11,3.11,0,0,1,1.27.36,6.41,6.41,0,0,0,1.32-3.61" style="fill:none;clip-rule:evenodd"/></clipPath><clipPath id="56a2e4f8-2e1a-44ed-89cd-16ad1c0b41be" transform="translate(-68 -19.05)"><path d="M152.29,96.17c-2.43,0-4.16,1.63-5.48,3.76v-.1h-.05c.05-.2.05-.51.1-.71.25-2.13.2-3-.1-3s-2.84.56-3.35.71a29.24,29.24,0,0,1-.46,4.62c-.41,2.69-1,6.3-1.32,8.08a7,7,0,0,0,3.25-.51,1.47,1.47,0,0,0,.66-1.12c1.27-7,3.8-8.74,4.87-8.74.81,0,.86,1,.71,1.88-.25,1.47-.71,4-1,5.38-.3,1.68-.25,3.25-.05,3.25a12.86,12.86,0,0,0,3.45-.51,20.42,20.42,0,0,1,.3-3.55c.2-1.68.56-3.5.76-4.77.41-2.69-.25-4.62-2.33-4.62" style="fill:none;clip-rule:evenodd"/></clipPath><clipPath id="91dba1a3-c4e8-46f3-8632-3c2e856adef9" transform="translate(-68 -19.05)"><path d="M170.91,89.67a25.18,25.18,0,0,0-3.35.41c-.05,1.22-.66,5.33-.91,6.65a4.69,4.69,0,0,0-2.13-.51c-4.92,0-7.86,4.32-7.86,9,0,2.79,1.12,4.47,3,4.47,2.23,0,4.21-1.17,5.78-3.5,0,.1-.05.66-.1,1-.05,1.22.05,2.54.25,2.54a10.87,10.87,0,0,0,3.3-.51,29.34,29.34,0,0,1,.15-4c.25-1.83,1.47-10.16,2.18-14.52.1-.76,0-1.07-.3-1.07m-4.82,10.41c-.71,4.21-3.3,6.6-4.57,6.6-.66,0-1.12-.71-1.17-2,0-2.54,1.27-6,4.21-6a2.21,2.21,0,0,1,1.67.56c-.05.25-.1.66-.15.91" style="fill:none;clip-rule:evenodd"/></clipPath><clipPath id="819d8aab-c304-4fd9-86ba-1bc64fe17fee" transform="translate(-68 -19.05)"><path d="M180.45,64c1.73,1.25,3.14,2.17,3.14,2.17s-1.4-1.07-3.14-2.17" style="fill:none;clip-rule:evenodd"/></clipPath><clipPath id="09c0aa7c-3293-486e-830e-04def53a4231" transform="translate(-68 -19.05)"><path d="M203,34.11s-8.07,9.29-14,7.06c5.28-3.1,9.28-10.61,9.28-10.61s-10.25,10.61-17.35,9c6.39-5.08,9.54-13.81,9.54-13.81s-8.17,12.59-13.24,13.1a32.62,32.62,0,0,0,8.32-12.59s-6.7,9.85-11.87,10.51c7-6.3,7.25-10.26,7.25-10.26s-6.73,8.64-11.2,10.4q-.7-.46-1.45-.9a58.11,58.11,0,0,0,6.92-10.47S169,34,166,34.85q-.67-.31-1.37-.61c.05-1.3,2.78-4.7,2.78-4.7s-4.1,3.64-5.86,3.54l-.43-.14c2.49-1.53,6.69-8.88,6.69-8.88s-6,6.88-9,8.2L157.76,32l3.76-7.62s-3.18,6.44-7.67,6.79l-1.53-.25A22.76,22.76,0,0,0,155.64,25s-4.06,6.55-9.13,4.77c-1.17-.46,1.47-3.45,1.47-3.45s-3.4,3.3-5.73,2.9.15-4.67.15-4.67a50.87,50.87,0,0,1-4.14,5.64l-1,0a15,15,0,0,1,.66-4.06,19.11,19.11,0,0,1-3.52,4.26h-.13l-1.45.14c-.8-1,.35-4.54.43-4.79-.1.31-1.81,5.3-3.14,4.91s-1.62-3.55-1.62-3.55-.29,3.09-1.55,4.26a68.81,68.81,0,0,0-15.23,4.46C100.73,40,88.72,47.32,74.78,61.28,83.62,56.5,90,50.7,97.84,45.69a12.2,12.2,0,0,0-2.72,8.38c.46,5.31,5,9.79,12.15,12.81l-1.3-.36C93.6,63,83.75,69.2,73,63.82c2.49,2,5.33,3.91,13.6,3.86,2.74,0,11.67-.41,13.29,1s-5.53,8.23-5.53,8.23,12.12-10.26,13.29-6.75c.71,2.13-3.5,8-3.5,8s4.21-5.74,7.36-7c2.18-.86,4-.76,5.53,1.42,1,1.47-4.92,8.43-4.92,8.43s8-7.77,9.44-7.36,0,7.36,0,7.36,2.94-7.06,4.51-7.57c2.13-.71-4.92,16.4-4.92,16.4s8.62-15.84,10.25-16.2c2.79-.61,4.62,11.07,4.62,11.07s-1.37-10.21.1-10.87c9.18-4.16,3.91,17.62,3.91,17.62s6-14.78,2.33-18.08c9.69,6.45,8.52,18.08,8.52,18.08s2.54-5.48-4.62-19.1c3.91-.2,9.69,10.06,9.69,10.06s-6.34-11.27-2-11.48c8.57-.41,9.44,15,9.44,15s2.59-2.13-4.31-17.27c4.36-2.79,15,14,15,14s-9.74-16.3-8.17-17.42,7.36,5.18,7.36,5.18-4.36-6-3.2-6.65,12.78,12,12.78,12-10.25-12.29-8.47-13.81c1-.87,3.86.61,6.14,2-3.24-2.33-7.63-5.81-6.14-6.57,3.15-1.62,12.07,3.91,12.07,3.91s-5.38-4.42-4.51-5.54,11.46,7,11.46,7-9.38-7.41-9.84-9.24,7.36.61,7.36.61-8.67-4-8.83-5.18,5.73,1.32,5.73,1.32-8.07-6.6-10-1.22q-.72,1.36-1.56,2.63a10.46,10.46,0,0,0-.54-8.62c3.07,1.64,5.17,2.87,6.46,2.94,12.83.56,20.9-11.88,20.9-11.88M134.08,69.2c-14.71,0-26.63-10.72-26.63-23.92a21.38,21.38,0,0,1,.62-5.08c1.74-.75,3.59-1.45,5.55-2.08h0l.3,0a7.75,7.75,0,0,0-1.17,3.19,8.64,8.64,0,0,0-.28,2.24,21.56,21.56,0,0,0,11,18.83,17.94,17.94,0,0,0,1.78.92v0h0s0,0,0,0l-.44-.45a32.67,32.67,0,0,1-2.5-4.83c-.15,0-.3.05-.46.05-1.72,0-3.5-1.42-3.09-3.1a2.41,2.41,0,0,1,.08-.29A3.14,3.14,0,0,1,120.28,53V53l.36-.2a22,22,0,0,1,0-5.89c.11-.46.27-.92.39-1.37h0a3.25,3.25,0,0,0,.31-.7,18.28,18.28,0,0,1-3.08-9.3l.06,0a18,18,0,0,0,3.38,8.36,18.4,18.4,0,0,1,2.13-3.53l.41-.48a6.7,6.7,0,0,1-.3-1.37,2.33,2.33,0,0,1,2.13-1.38,2.36,2.36,0,0,1,.86.15,17,17,0,0,1,10-3.52,20.76,20.76,0,0,0-9,4.08,6.67,6.67,0,0,1,.46,1.42A1.52,1.52,0,0,1,128,40.4l4.83,3.5.19-.13-1.93-6.71,3.34,6,.36-.12-.09-6.63,2.13,6.3,2.59-6.25.1,6.73.16.06,3.75-5.32-1.9,6.45.13.11,5.52-3.67-4,5.59.05.1,5.07-1.82.25-.31h0l.2-.25a4.11,4.11,0,0,1-.6-1.74,2.15,2.15,0,0,1,2-1.46,1.9,1.9,0,0,1,.51.05,18.49,18.49,0,0,0,1.47-4.27l-.09-.06q.1-.4.19-.8a18.68,18.68,0,0,0-6.73-2.89c2.43.32,4.5-.66,13.31,3.48a21.84,21.84,0,0,1,1.94,9c0,13.25-12,23.92-26.68,23.92" style="fill:none;clip-rule:evenodd"/></clipPath><clipPath id="da1a481c-4924-450e-9636-f4139ec98178" transform="translate(-68 -19.05)"><path d="M124.75,55.31l5.53-3.53-7.66-.56,5-1.08A17.78,17.78,0,0,1,124.43,48l-1.82-.46,1.24,0q-.57-.51-1.09-1.07c0,.05-.05.15-.05.2-.06.27-.12.55-.17.83a.62.62,0,0,0,0,.14,14.91,14.91,0,0,0-.25,5.18,3.11,3.11,0,0,1,2.49,2.51" style="fill:none;clip-rule:evenodd"/></clipPath><clipPath id="6706f7bc-556a-4702-bd3c-f138e7e4e7ad" transform="translate(-68 -19.05)"><path d="M125.25,47.48l4.93-.17-5.88-4.37,6.93,2.53.2-.26-3.68-4.63a3,3,0,0,1-1.48.28,2.56,2.56,0,0,1-.86-.15,23.2,23.2,0,0,0-2.49,4.88,14.88,14.88,0,0,0,1.35,1.07q.47.43,1,.82" style="fill:none;clip-rule:evenodd"/></clipPath><clipPath id="c94864d2-1f83-46a0-8135-874b70869cd6" transform="translate(-68 -19.05)"><path d="M129.82,49.67c0-.09,0-.17,0-.26L127,48.68a15.84,15.84,0,0,0,2.21,1.13Z" style="fill:none;clip-rule:evenodd"/></clipPath><clipPath id="4bb85cc9-8cba-45a1-845c-4505e50c0a53" transform="translate(-68 -19.05)"><path d="M143.67,52.19l5,4.88-6.49-2.54,3.8,5.84-5.88-4.57,1.93,7-3.25-6.15-.51,7.21-2.18-7.16-2.54,6.86.61-7.52-4.51,6.4,1.87-7a21.27,21.27,0,0,0-4.66,7.25l.18.19,0,.06c.51.56,1.07,1.07,1.62,1.57a21.21,21.21,0,0,0,5.43.71,21.56,21.56,0,0,0,17.41-8.83q.56-.71,1.06-1.48a31,31,0,0,0-3.83-2.31Z" style="fill:none;clip-rule:evenodd"/></clipPath><clipPath id="df472cac-cf35-4321-bf34-4238103e7575" transform="translate(-68 -19.05)"><path d="M144.12,48.35a17.68,17.68,0,0,0,3.29-2.78l-3.54,2.68,0,.09Z" style="fill:none;clip-rule:evenodd"/></clipPath><clipPath id="d9d950c7-8fbb-479f-aedb-22ec9794bf8b" transform="translate(-68 -19.05)"><path d="M152.59,35.88a6.88,6.88,0,0,1-.12,1l0,0,0,.26a40.66,40.66,0,0,1-1.2,3.91c.12.11.23.21.32.31l0,0a2.08,2.08,0,0,1,.7,1.37,1.84,1.84,0,0,1-1.92,1.33.86.86,0,0,1-.36-.05,24.76,24.76,0,0,1-3.65,4.4l4.06.22-6.13,1.48.4.07,0,0a17,17,0,0,1,7.16,2.87q.52.37,1,.79v0l.14.12a21.68,21.68,0,0,0,2.64-8.45,20.26,20.26,0,0,0,.25-3.08,8.19,8.19,0,0,0-3.2-6.6" style="fill:none;clip-rule:evenodd"/></clipPath><clipPath id="a6fc03db-ffba-4506-8eb2-9d833d0688c4" transform="translate(-68 -19.05)"><path d="M125.86,59.35l4.62-5.84-5.7,2c0,.08,0,.16,0,.25a6,6,0,0,1-1.22,1.87l.21.45h0a16.75,16.75,0,0,0,2,3.3,17.16,17.16,0,0,1,1.61-3.3Z" style="fill:none;clip-rule:evenodd"/></clipPath><clipPath id="575b28be-6872-451d-a5eb-734eaf6c4fb4" transform="translate(-68 -19.05)"><path d="M88.22,96.17h0c-4.92,0-7.86,4.06-8,8.63,0,3.45,1.83,4.93,4.41,4.93A6.59,6.59,0,0,0,89.44,108a2.23,2.23,0,0,0,.71-1.68,1.53,1.53,0,0,0-.46-1.12A6.14,6.14,0,0,1,86,106.88c-1.37,0-1.93-1-1.93-2.69,0-2.69,1.32-5.43,4-5.43a4.74,4.74,0,0,1,1.72.31c.46,0,1.22-1.32,1.12-2.13a4.14,4.14,0,0,0-2.69-.76" style="fill:none;clip-rule:evenodd"/></clipPath></defs><title>cassandra</title><g id="c8550cf5-d3a5-4557-8956-fba41c257558" data-name="Слой 2"><g id="0d522f8f-0601-45b1-89e2-a0d23d1e9187" data-name="Слой 1"><g style="opacity:0.75;isolation:isolate"><g style="clip-path:url(#d824b651-13df-4d7e-a6f4-d5e5319bb734)"><g style="clip-path:url(#db98ee7f-b751-44bf-8764-324c5f78d71a)"><g style="clip-path:url(#f00022fc-c938-4945-b072-e5b28373f7cf)"><rect x="33.3" y="72.11" width="19.11" height="23.51" style="fill:#393838"/></g></g><g style="clip-path:url(#de5628b9-bd9d-41e2-a455-d9f90e352d54)"><g style="clip-path:url(#f00022fc-c938-4945-b072-e5b28373f7cf)"><rect x="43.29" y="72.11" width="19.11" height="23.51" style="fill:#393838"/></g></g><g style="clip-path:url(#d6556fef-ddfb-4d9e-b2bf-5ebe87f320e1)"><g style="clip-path:url(#f00022fc-c938-4945-b072-e5b28373f7cf)"><rect x="53.98" y="72.11" width="23.29" height="23.51" style="fill:#393838"/></g></g><g style="clip-path:url(#7f363a3d-0b6a-479a-80db-f32d2e3149af)"><g style="clip-path:url(#f00022fc-c938-4945-b072-e5b28373f7cf)"><rect x="109.12" y="72.11" width="23.29" height="23.51" style="fill:#393838"/></g></g><g style="clip-path:url(#d3a0506b-1a49-4ab7-bfa8-48faee6f0767)"><g style="clip-path:url(#f00022fc-c938-4945-b072-e5b28373f7cf)"><rect x="19.07" y="72.11" width="23.29" height="23.51" style="fill:#393838"/></g></g><g style="clip-path:url(#9bdd832e-c1fd-4389-8dd9-177cd3817660)"><g style="clip-path:url(#f00022fc-c938-4945-b072-e5b28373f7cf)"><rect x="98.72" y="72.06" width="20.66" height="23.41" style="fill:#393838"/></g></g><g style="clip-path:url(#56a2e4f8-2e1a-44ed-89cd-16ad1c0b41be)"><g style="clip-path:url(#f00022fc-c938-4945-b072-e5b28373f7cf)"><rect x="68.64" y="72.01" width="23.1" height="23.56" style="fill:#393838"/></g></g><g style="clip-path:url(#91dba1a3-c4e8-46f3-8632-3c2e856adef9)"><g style="clip-path:url(#f00022fc-c938-4945-b072-e5b28373f7cf)"><rect x="83.65" y="65.61" width="24.6" height="30.06" style="fill:#393838"/></g></g><g style="clip-path:url(#819d8aab-c304-4fd9-86ba-1bc64fe17fee)"><g style="clip-path:url(#f00022fc-c938-4945-b072-e5b28373f7cf)"><rect x="107.45" y="39.93" width="13.14" height="12.17" style="fill:#393838"/></g></g><g style="clip-path:url(#09c0aa7c-3293-486e-830e-04def53a4231)"><g style="clip-path:url(#f00022fc-c938-4945-b072-e5b28373f7cf)"><rect width="139.97" height="77.44" style="fill:#393838"/></g></g><g style="clip-path:url(#da1a481c-4924-450e-9636-f4139ec98178)"><g style="clip-path:url(#f00022fc-c938-4945-b072-e5b28373f7cf)"><rect x="49.14" y="22.4" width="18.13" height="18.86" style="fill:#393838"/></g></g><g style="clip-path:url(#6706f7bc-556a-4702-bd3c-f138e7e4e7ad)"><g style="clip-path:url(#f00022fc-c938-4945-b072-e5b28373f7cf)"><rect x="49.92" y="16.53" width="18.5" height="16.9" style="fill:#393838"/></g></g><g style="clip-path:url(#c94864d2-1f83-46a0-8135-874b70869cd6)"><g style="clip-path:url(#f00022fc-c938-4945-b072-e5b28373f7cf)"><rect x="53.97" y="24.63" width="12.85" height="11.13" style="fill:#393838"/></g></g><g style="clip-path:url(#4bb85cc9-8cba-45a1-845c-4505e50c0a53)"><g style="clip-path:url(#f00022fc-c938-4945-b072-e5b28373f7cf)"><rect x="53.82" y="28.13" width="35.67" height="23" style="fill:#393838"/></g></g><g style="clip-path:url(#df472cac-cf35-4321-bf34-4238103e7575)"><g style="clip-path:url(#f00022fc-c938-4945-b072-e5b28373f7cf)"><rect x="70.88" y="21.52" width="13.54" height="12.78" style="fill:#393838"/></g></g><g style="clip-path:url(#d9d950c7-8fbb-479f-aedb-22ec9794bf8b)"><g style="clip-path:url(#f00022fc-c938-4945-b072-e5b28373f7cf)"><rect x="71.23" y="11.83" width="21.56" height="28.13" style="fill:#393838"/></g></g><g style="clip-path:url(#a6fc03db-ffba-4506-8eb2-9d833d0688c4)"><g style="clip-path:url(#f00022fc-c938-4945-b072-e5b28373f7cf)"><rect x="50.58" y="29.46" width="16.9" height="17.92" style="fill:#393838"/></g></g><g style="clip-path:url(#575b28be-6872-451d-a5eb-734eaf6c4fb4)"><g style="clip-path:url(#f00022fc-c938-4945-b072-e5b28373f7cf)"><rect x="7.25" y="72.11" width="20.66" height="23.56" style="fill:#393838"/></g></g></g></g></g></g></svg>