<svg xmlns="http://www.w3.org/2000/svg" xmlns:xlink="http://www.w3.org/1999/xlink" width="209.48" height="55.78" viewBox="0 0 209.48 55.78"><defs><clipPath id="3419a94d-d6f5-4a40-a5d3-fe4a80cba888" transform="translate(-33.21 -38.04)"><rect x="38" y="43" width="201" height="46" style="fill:none"/></clipPath><clipPath id="b0986aab-3f0b-4967-8875-bb02deb92d98" transform="translate(-33.21 -38.04)"><path d="M231.93,73.39a7.65,7.65,0,0,0,3.92-1L237.2,75a10.26,10.26,0,0,1-5.65,1.45c-5.06,0-7.94-3.15-7.94-8s3.29-7.78,7.49-7.78c4.75,0,7,3.29,6.52,8.89h-9.46C228.33,71.9,229.51,73.39,231.93,73.39Zm1.6-6.57c0-1.66-.69-3-2.5-3s-2.63,1.07-2.91,3ZM216.09,76.5a9.56,9.56,0,0,1-5.37-1.42l1.42-2.94a6.88,6.88,0,0,0,3.71,1.25c1.56,0,2.43-.45,2.43-1.28s-1.7-1.24-3.85-2.28-3.29-2.14-3.29-4.43c0-2.83,2.25-4.63,5.68-4.63a9.74,9.74,0,0,1,4.85,1.17l-1.46,2.87a6.46,6.46,0,0,0-3.19-.93c-1.42,0-2,.48-2,1.28,0,1,1.39,1.21,3.12,1.9,2.36,1,4.06,2.08,4.06,4.56C222.09,74.84,219.8,76.5,216.09,76.5Zm-11.4-.35a7.56,7.56,0,0,1-.24-1.59,5.48,5.48,0,0,1-4.19,2c-2.57,0-4.54-1.52-4.54-4.22,0-3.91,4-5.32,8-5.32h.52v-.83c0-1.25-.52-2-2.39-2A6.47,6.47,0,0,0,198,65.54L196.2,63a8.94,8.94,0,0,1,6.14-2.18c4.16,0,6.14,1.59,6.14,5.6v5.25a21.32,21.32,0,0,0,.42,4.49Zm-.45-6.6h-.52c-2.32,0-4,.69-4,2.38,0,1.07.87,1.52,1.8,1.52a3.64,3.64,0,0,0,2.67-1.24ZM184.1,54v8.3a5.35,5.35,0,0,1,3.67-1.56c3.74,0,6.38,2.56,6.38,7.75s-3.47,8-8,8a14.84,14.84,0,0,1-6.27-1.21V54h4.26Zm0,18.84a5.52,5.52,0,0,0,2,.31c2.18,0,3.54-1.59,3.54-4.67,0-2.77-.93-4.43-3.08-4.43a3.46,3.46,0,0,0-2.46,1.11Zm-11.92,3.28V66.51c0-1.49-.52-2.21-1.94-2.21a4.38,4.38,0,0,0-3,1.8v10H163V54h4.23v8.92a6.15,6.15,0,0,1,4.68-2.14c3.33,0,4.51,2.11,4.51,4.88V76.12h-4.23ZM156,76.5c-4.85,0-7.83-3.15-7.83-7.85,0-5,3.36-7.88,8-7.88a8.48,8.48,0,0,1,4.61,1.18l-1.35,2.9a5.59,5.59,0,0,0-3.12-.87c-2.36,0-3.6,1.83-3.6,4.56s1.18,4.7,3.71,4.7a5.67,5.67,0,0,0,3.19-.9l1.28,2.83A8.15,8.15,0,0,1,156,76.5ZM136.37,61.15v9.61c0,1.49.52,2.21,1.94,2.21s2.67-1.45,3-1.8v-10h4.23V71.73a20.43,20.43,0,0,0,.42,4.39h-4.19a10.1,10.1,0,0,1-.31-2,6,6,0,0,1-4.85,2.35c-3.33,0-4.51-2.11-4.51-4.87V61.12h4.3ZM122.09,76.5c-5.27,0-7.56-3.94-7.56-7.81s2.29-7.92,7.56-7.92,7.66,3.91,7.66,7.78S127.39,76.5,122.09,76.5ZM122,63.92c-2.25,0-3,1.9-3,4.67s.9,4.74,3.15,4.74,3.05-1.87,3.05-4.63S124.31,63.92,122,63.92ZM107.08,76.5c-7,0-10.57-5-10.57-10.65s3.67-10.58,10.64-10.58a11,11,0,0,1,6.2,1.63l-2,3.28A7.41,7.41,0,0,0,107.08,59c-3.78,0-5.79,3-5.79,6.74s1.94,7,5.86,7a7.15,7.15,0,0,0,4.61-1.56l1.84,3.15A10.42,10.42,0,0,1,107.08,76.5Z" style="fill:none;clip-rule:evenodd"/></clipPath><clipPath id="c83af151-c7b4-4f6a-bda9-b437197aff80" transform="translate(-33.21 -38.04)"><rect width="276" height="133" style="fill:none"/></clipPath><clipPath id="9173afd0-4e18-4a22-b81f-945d7b6eda59" transform="translate(-33.21 -38.04)"><path d="M76.65,69.93a2.77,2.77,0,0,1-2.36,2.87,95,95,0,0,1-13.14.76A95,95,0,0,1,48,72.8a2.77,2.77,0,0,1-2.36-2.87V61A3,3,0,0,1,48,58.14a30.94,30.94,0,0,1,4.13-.28,1,1,0,0,1,1,1.07V65.2l8-.17,8,.17V58.94a1,1,0,0,1,1-1.07,30.91,30.91,0,0,1,4.12.28A2.94,2.94,0,0,1,76.72,61C76.65,64,76.65,67,76.65,69.93ZM61.15,43A22.89,22.89,0,1,0,84.1,65.92,22.92,22.92,0,0,0,61.15,43Z" style="fill:none;clip-rule:evenodd"/></clipPath></defs><title>couchbase</title><g id="54c2f78d-144b-4c09-b6b7-50880465a33b" data-name="Слой 2"><g id="3c0f8ed8-6b09-48f9-b7f4-21702e4afbc4" data-name="Слой 1"><g style="opacity:0.75;isolation:isolate"><g style="clip-path:url(#3419a94d-d6f5-4a40-a5d3-fe4a80cba888)"><g style="clip-path:url(#b0986aab-3f0b-4967-8875-bb02deb92d98)"><g style="clip-path:url(#c83af151-c7b4-4f6a-bda9-b437197aff80)"><rect x="58.3" y="10.96" width="151.18" height="32.54" style="fill:#4b4b4b"/></g></g><g style="clip-path:url(#9173afd0-4e18-4a22-b81f-945d7b6eda59)"><g style="clip-path:url(#c83af151-c7b4-4f6a-bda9-b437197aff80)"><rect width="55.89" height="55.78" style="fill:#4b4b4b"/></g></g></g></g></g></g></svg>