<svg xmlns="http://www.w3.org/2000/svg" xmlns:xlink="http://www.w3.org/1999/xlink" width="229.48" height="60.94" viewBox="0 0 229.48 60.94"><defs><clipPath id="f77d1eda-87d5-4abc-bcd0-f89e59106530" transform="translate(-23 -36)"><rect x="27" y="41" width="222" height="51" style="fill:none"/></clipPath><clipPath id="4f5dea03-1a3a-4c76-9633-1d3a539d09c9" transform="translate(-23 -36)"><path d="M87.47,54.18h0a15.85,15.85,0,0,0-1.37-4.65,1.81,1.81,0,0,0-.34-.44,3.51,3.51,0,0,0-1.27-.77,1.9,1.9,0,0,0-1.48,0,1.21,1.21,0,0,0-.31.23,6.94,6.94,0,0,0-.75,1,5.25,5.25,0,0,1-.84,1,4.45,4.45,0,0,1-1.25.67A8.46,8.46,0,0,0,79.22,50a12.09,12.09,0,0,0-1-1.34,5.47,5.47,0,0,0-.91-.87c-.32-.24-.64-.44-1-.68a21.56,21.56,0,0,1-2.76-2.16c-.4-.35-.81-.7-1.2-1a10.52,10.52,0,0,0-6.15-2.69,15.4,15.4,0,0,0-6.87,1.53,10,10,0,0,0-3,1.89,18.15,18.15,0,0,0-2.15,2.49,3.74,3.74,0,0,0-1.17.24,4.65,4.65,0,0,0-1.34.88q-.53.46-1,1t-.91.91a29.58,29.58,0,0,0-6,1.46,15.78,15.78,0,0,0-4.91,3A12.87,12.87,0,0,0,37.1,56.4a13.52,13.52,0,0,0-1.26,2,14.09,14.09,0,0,1-1,1,3.58,3.58,0,0,1-1.1.71h0l-.34.14s0,0,0-.11A3.11,3.11,0,0,0,34.1,58a3,3,0,0,1,.21.29c.08.12.15.24.25.36l.39.49.14-.62a4.31,4.31,0,0,0,.07-1.8,1.66,1.66,0,0,0-.58-1l.09-.22c.1-.25.2-.51.29-.75l.17-.48-.51.09a7.41,7.41,0,0,0-3.14,2,4.88,4.88,0,0,0-.92,1.28,2.44,2.44,0,0,0-.24,1.46A2.37,2.37,0,0,0,31,60.36c.07.29.14.54.21.77a5.18,5.18,0,0,0,.28.71A2.17,2.17,0,0,0,32.8,63a2.71,2.71,0,0,0,1.4,0A12.81,12.81,0,0,0,34,64.76a22.08,22.08,0,0,0,.09,2.72c0,.23,0,.48.09.75s.07.46.11.68l-.27.73-.42,1.13-.92.91-.86.85-.21.2c-.58.55-.69.67-.53,1.64a6,6,0,0,0,.61,1.79,6.42,6.42,0,0,0,1.15,1.55,8.13,8.13,0,0,0,2.66,1.76,3.52,3.52,0,0,0,1.79.25l-.09.27c-.09.25-.19.5-.31.75-.71,1.55,0,2.36,1.15,2.88A11.81,11.81,0,0,0,40,84.2l.42.11a16.93,16.93,0,0,0,3.19.64c1.28.08,2.43-.18,2.74-1.33a6.42,6.42,0,0,0,.22-1.14,5.73,5.73,0,0,0,0-1A7.3,7.3,0,0,1,47.29,80l.13-.2a2.45,2.45,0,0,0,.47-1.06,4.42,4.42,0,0,0-.05-1.15l0-.21a18.48,18.48,0,0,0,2.22.15c.37,0,.74,0,1.11,0l-.29.15-.14.07c-1,.51-1,1.46-.72,2.45a10.27,10.27,0,0,0,1.21,2.35,8.44,8.44,0,0,0,2.35,2.68,3.08,3.08,0,0,0,3.31-.1,2.69,2.69,0,0,0,1.2-1.26c.09-.16.19-.33.3-.49.28-.19,1-.77,1.68-1.34l.74-.6a1.82,1.82,0,0,0,.67.29,8.19,8.19,0,0,0,1.26.16c.37,0,1.58,0,2.36,0h.56a4,4,0,0,0,2-.31,2,2,0,0,0,.9-1.77,3.18,3.18,0,0,0,0-.94,2.89,2.89,0,0,0-.34-.8q0-.61,0-1.22t0-1.3a5.87,5.87,0,0,0-.17-1.33A8.81,8.81,0,0,0,67.44,73c-.12-.29-.24-.59-.35-.89h0a13.87,13.87,0,0,0-.57-1.37c0-.09,0-.19,0-.29l.45.43.66.64a8.45,8.45,0,0,0,1.51,1.25,3.47,3.47,0,0,0,2,.48,4.8,4.8,0,0,0,2.53-1,4.18,4.18,0,0,0,1.56-2.06l.21-.7.17-.55a14,14,0,0,0,3.74.14,9.21,9.21,0,0,0,3.36-1,8.47,8.47,0,0,0,3.37-3.31h0a13,13,0,0,0,1.57-5.19A22.65,22.65,0,0,0,87.47,54.18ZM79,52l-.13.1a1.43,1.43,0,0,0-.31-.45h.27ZM34,56.63l.06-.21c.31.18.39.5.42.94h0c-.18-.18-.33-.31-.57-.28A3.45,3.45,0,0,1,34,56.63Zm-1.68,4.86a8.74,8.74,0,0,1-.5-1.48c-1.48-1.53.73-3.55,1.94-4.27a6.56,6.56,0,0,0-.38.95c-.37,1.26.16,2.39-1,3.3.54,1.09.52,1.52,1.77,1a4.11,4.11,0,0,0,1.24-.79q-.26.67-.48,1.36l-.07.23C33.91,62.19,32.73,62.43,32.28,61.49Zm5.86,15.65a2.48,2.48,0,0,1-.37.92c-.92,1.23-3.26-.57-3.93-1.26a4.63,4.63,0,0,1-1.35-2.48c-.09-.61,0-.62.42-1.06l1.73-1.74.38-1a24.77,24.77,0,0,0,3.13,6.6ZM66.9,75.6,67,78.35a1.52,1.52,0,0,1,.29,1.21c-.11,1.19-.51,1.27-1.56,1.25-.48,0-2.38,0-2.86-.06a2.77,2.77,0,0,1-1.27-.27c1.07-.78,2.89-4,3.25-5.14s.79-2.21,1.09-3.3a13.7,13.7,0,0,0,.46,1.39A5.25,5.25,0,0,1,66.9,75.6Zm-.7-4.83h0ZM86.54,59.59c-.32,2.9-1.72,6.06-4.28,7.48-3.26,1.82-7.11.71-10.36-.38a7.93,7.93,0,0,1-1.78-1,4.54,4.54,0,0,1,0,2.27c-.35,1.18-.92,3.11.69,3.46a2.08,2.08,0,0,0,1.75-.33,3.23,3.23,0,0,1-1.53,0,1,1,0,0,1-.79-.68,2.61,2.61,0,0,0,.82.27,2.07,2.07,0,0,0,2.54-1.11A7.31,7.31,0,0,1,74,68.27l.76.21-.44,1.44a3.5,3.5,0,0,1-3.19,2.22,4.37,4.37,0,0,1-2.83-1.53l-1.69-1.49a13,13,0,0,1-4.13-2.07,7.31,7.31,0,0,0,3.07,2.4A26.33,26.33,0,0,1,64,75c-.28.89-2.47,4.47-3.07,4.82-.43.25-3.14,2.52-3.65,2.83-.38.5-.71,1.2-1.28,1.5-1.74.92-2.86-.84-3.79-2.32-.43-.68-1.61-2.62-.58-3.17a27.23,27.23,0,0,0,2.52-1.54c.15.27.4.52.56.79L54.63,77a6.86,6.86,0,0,1,0-1.48L54.73,74c-.15.52-.45,1-.6,1.56-.06.21-.11.38-.14.53a17.62,17.62,0,0,1-6.68.09c-.14-.82-.32-1.68-.46-2.3,0,.69,0,2.6,0,3.67a2.72,2.72,0,0,1-.46,1.81,17.47,17.47,0,0,0-1.13,1.92,4.84,4.84,0,0,1-.14,1.83c-.31,1.11-3.45.25-4.28,0-1-.28-3.13-.69-2.6-2a17.39,17.39,0,0,0,1-4.12,22.3,22.3,0,0,1-3.94-9.62,12.07,12.07,0,0,1,.44-5.64,14.43,14.43,0,0,1,4-6.29c2.64-2.31,5.1-3.23,9-3.82-.93,1-1.85,2.13-2.85,3.3a16.78,16.78,0,0,0-2.26,3.69c-.89,1.8-.87,2.48.31,4.06a10.56,10.56,0,0,1,2,3.3,6.86,6.86,0,0,0-.62,2.42c1.24,1.35,2.17,2.28,3.37,2.57a4.39,4.39,0,0,0,3.23-.31c2.35-1.2,4.53-2.75,7.18-2.81a13.5,13.5,0,0,0,.51-8.43,42.08,42.08,0,0,1-.69-5.9,14.07,14.07,0,0,0-.22,6c.45,2.5.79,5.27-.45,7.48-2.4.18-4.45,1.64-6.61,2.75a3.64,3.64,0,0,1-2.74.23A5.17,5.17,0,0,1,46.43,68a4.75,4.75,0,0,1,.75-2.63c.82-1.62,1.73-3.12,2.72-4.71a45.9,45.9,0,0,0-3.33,4.17,10.06,10.06,0,0,0-1.76-2.74,2.27,2.27,0,0,1-.3-3,13.34,13.34,0,0,1,2.26-3.67c1.88-2,3.59-4.27,5.64-6.26,1.11-1.08,1.57-1,3-1.27s2.64-.46,4-.77c-1.32.12-2.59.17-3.87.2h0a9,9,0,0,1,4-3.39c5-2.18,8.25-2.42,12.21.9,1,.86,1.92,1.7,3,2.44a3.76,3.76,0,0,0-1.13.27,4.76,4.76,0,0,1,1.67.1l.47.29a4.41,4.41,0,0,1,1.65,1.36,14.69,14.69,0,0,1,1.35,2.26l-.65-.22a1.41,1.41,0,0,0-1.33.08h0A6.17,6.17,0,0,1,75.3,52a1.74,1.74,0,0,0,.92,0l.09,0a1.41,1.41,0,0,0,0,1.36h0a.76.76,0,0,0,.15.23l-.59.24a9.29,9.29,0,0,1,2.7,0c.06.29.12.59.18.9l-.34,0h0a1.71,1.71,0,0,0-1.58-.14c-2,.46-1.54,1.58-2.46,3.27,1-1.17.89-2.39,2.45-2.76a2.53,2.53,0,0,1,.86-.16,2,2,0,0,0-1,1c-.43,1.21-.16,2.23-.63,3.36.58-1,.62-2,1.14-3.06a2.13,2.13,0,0,1,1.31-1h.35a8.89,8.89,0,0,1,.13,1.89,21.05,21.05,0,0,1-.49,3.08,9.42,9.42,0,0,0,1-3.13,8.82,8.82,0,0,0,0-3.45c-.29-1.55,1.31-1.3,2.24-2a26.77,26.77,0,0,0,1.78-2c.62-.6,1.6.28,1.85.87A21.71,21.71,0,0,1,86.54,59.59Z" style="fill:none;clip-rule:evenodd"/></clipPath><clipPath id="c46ccabb-bc9f-420b-9f4b-c8b206ff508e" transform="translate(-23 -36)"><rect width="276" height="133" style="fill:none"/></clipPath><clipPath id="c9ea9786-7601-4826-ae15-b9f10d04321c" transform="translate(-23 -36)"><path d="M31.29,54.25c-2.37,1.67-3,2.43-2.65,5.81a8,8,0,0,1,2.65-5.81" style="fill:none;clip-rule:evenodd"/></clipPath><clipPath id="d46e81c9-8cc0-4d74-be6a-f523162c5435" transform="translate(-23 -36)"><path d="M55.9,41.2c-1.42.34-1.69.6-2.12,2a5.5,5.5,0,0,1,2.12-2" style="fill:none;clip-rule:evenodd"/></clipPath><clipPath id="000536af-3908-4d67-b543-ca7cfbc77c2e" transform="translate(-23 -36)"><path d="M28,57.88h0a5.48,5.48,0,0,1,1.24-2.63A2.22,2.22,0,0,0,28,57.88" style="fill:none;clip-rule:evenodd"/></clipPath><clipPath id="823a901e-a8d5-4784-b8fd-cbc6ca7db240" transform="translate(-23 -36)"><path d="M58.14,41c-2.82.69-3.65,1.18-4.59,4.44A8,8,0,0,1,58.14,41" style="fill:none;clip-rule:evenodd"/></clipPath><clipPath id="8c0cb27d-a0f9-4ca5-8757-37de7cf24ce4" transform="translate(-23 -36)"><path d="M81.52,52.59a3.09,3.09,0,0,1-2,.16c.81.23,1.33.52,2.12.24a4.45,4.45,0,0,0,2.8-3.41,6.51,6.51,0,0,1-3,3" style="fill:none;clip-rule:evenodd"/></clipPath><clipPath id="13513547-a11c-4c40-ab4c-3163ce7eda7a" transform="translate(-23 -36)"><path d="M68.72,66h0c-.06.4-.15.9-.21,1.3.17-.45.38-1,.57-1.41s.33-.5.77-.74.89-.41,1.2-.58l-1.23.23c-.87.15-1,.35-1.1,1.21" style="fill:none;clip-rule:evenodd"/></clipPath><clipPath id="e2a27f8d-aa1a-42cc-8fd4-871caee0ed2c" transform="translate(-23 -36)"><path d="M53.92,50.51h0c-1,1-2,4.39-2.3,5.76.49-1.13,1.72-4.29,2.67-5.1a3.28,3.28,0,0,1,.64-.46c-.68,1.13-.63,1.41-.39,2.93a5.88,5.88,0,0,1,1.61-3.28A23.3,23.3,0,0,0,59,49.44q-1.66.19-3.33.35a2,2,0,0,0-1.74.73" style="fill:none;clip-rule:evenodd"/></clipPath><clipPath id="94853f48-dd7a-472d-b4a1-cac912a9ba81" transform="translate(-23 -36)"><path d="M70.77,54.88a1.84,1.84,0,0,0-1.2-1.53,5.36,5.36,0,0,0,1.1-.71c-.89.41-1.94.31-2.7.83s-1.61,1.9-2.3,2.51a5.63,5.63,0,0,0,1.42-.88,1.83,1.83,0,0,0,1,1.61,4.14,4.14,0,0,0-.6,1.09,10.53,10.53,0,0,1,5-3.21,5.34,5.34,0,0,0-1.69.28" style="fill:none;clip-rule:evenodd"/></clipPath><clipPath id="7a270edb-77ed-4592-a98b-218525abe562" transform="translate(-23 -36)"><path d="M64.22,52.89h0a4.71,4.71,0,0,1,2.9-3.6c-2.74.69-3.26,1.83-2.9,3.6" style="fill:none;clip-rule:evenodd"/></clipPath><clipPath id="d278f268-b33d-4af1-87ec-ffc6f33e5ad1" transform="translate(-23 -36)"><path d="M147.74,68.14,146.21,75a1.89,1.89,0,0,0,1.89,2.42h9.1l2.62-11.72h-9.11A3.21,3.21,0,0,0,147.74,68.14Zm7.07-.52h0l-1.8,8h-3.7c-.54,0-.85-.1-.71-.71L150,68.52c.13-.6.31-.9,1-.9Z" style="fill:none;clip-rule:evenodd"/></clipPath><clipPath id="40293616-d6ac-4c46-a5e9-720568a6c3a0" transform="translate(-23 -36)"><path d="M246.52,60.73c-1.39-1.75-3.23-1.88-5.25-1.88q-21.84,0-43.69,0a8.47,8.47,0,0,0-4,1.13,6,6,0,0,0-3.77-1.13h-20l1.64-7.35H158.56L157,58.67H145.6A8.14,8.14,0,0,0,141.21,60a6.42,6.42,0,0,0-3.77-1.14H99.94l1.72-7.45-12.9,0L81.32,84.57H94.21l3.88-17h4.36c.52,0,.42.29.33.68L99.11,84.57h85.43a8,8,0,0,0,3.89-1,6.44,6.44,0,0,0,4,1.13l19.79-.17-1.59,7.37h12.9l1.6-7.25,11.16,0a8.44,8.44,0,0,0,4.8-1.51,8.23,8.23,0,0,0,3.46-5.09q1.21-5.52,2.44-11C247.43,65,248,62.62,246.52,60.73ZM112,74.76l-1.76,7.91H104l1.75-7.91,1.43-6.44a1.9,1.9,0,0,0-1.9-2.43H96.22l-.54,2.4s0,0,0,0l-1.41,6.35h0l-1.79,8H86.24l1.79-8h0l2.09-9.41c0-.13.07-.27.11-.39l.11-.45h0L92.8,53.08H99l-1.69,7.59h13.22a3.58,3.58,0,0,1,3.58,4.59L112,74.76ZM137.51,80l-.58,2.62H116.15a3.58,3.58,0,0,1-3.58-4.58l.84-3.77h0l.16-.73A6.08,6.08,0,0,1,119.19,69h14.54l.21-1a1.88,1.88,0,0,0-1.81-2.33H115.29l1.16-5.21h20.89a3.57,3.57,0,0,1,3.49,4.58l-.39,1.77h0L140,69h0l-2.45,11Zm5.34,2.63a3.57,3.57,0,0,1-3.58-4.58l2.9-13a6.07,6.07,0,0,1,5.61-4.58H161l1.66-7.43h6.23l-1.65,7.43-4.93,22.15Zm41.58.17h-16.2a3.57,3.57,0,0,1-3.58-4.58l2.89-13a6.08,6.08,0,0,1,5.61-4.58h16.2a3.58,3.58,0,0,1,3.58,4.58l-2.89,13A6.08,6.08,0,0,1,184.42,82.84Zm26.71,0h-16.2a3.58,3.58,0,0,1-3.58-4.58l2.89-13a6.08,6.08,0,0,1,5.61-4.58h16.2a3.58,3.58,0,0,1,3.58,4.58l-2.89,13A6.08,6.08,0,0,1,211.13,82.84ZM245,65.26l-2.89,13a6.07,6.07,0,0,1-5.61,4.58H223.29l-1.66,7.43h-6.23l1.65-7.43.87-3.91L222,60.67h19.43A3.58,3.58,0,0,1,245,65.26Z" style="fill:none;clip-rule:evenodd"/></clipPath><clipPath id="91bb43b2-97fe-4ce4-be2a-a4953ec0600e" transform="translate(-23 -36)"><path d="M184.6,65.72h-8a3.21,3.21,0,0,0-3,2.42L172.09,75A1.89,1.89,0,0,0,174,77.45h8A3.22,3.22,0,0,0,185,75l1.53-6.88a1.89,1.89,0,0,0-1.89-2.42m-3.31,3.09-1.4,6.26c-.16.73-.62.72-1.24.72h-4.13c-.61,0-.61-.36-.51-.85l1.39-6.26c.17-.77.48-.91,1.23-.91h4.06c.78,0,.74.41.6,1" style="fill:none;clip-rule:evenodd"/></clipPath><clipPath id="839b2091-7809-424d-82c5-5534c469ad0d" transform="translate(-23 -36)"><path d="M121.52,74.21a2.14,2.14,0,0,0-2,1.62,1.26,1.26,0,0,0,1.23,1.62h11.07l.72-3.23h-11" style="fill:none;clip-rule:evenodd"/></clipPath><clipPath id="3cb8879c-2732-4c65-ab95-04950065fac8" transform="translate(-23 -36)"><path d="M211.3,65.72h-8a3.21,3.21,0,0,0-3,2.42L198.79,75a1.89,1.89,0,0,0,1.89,2.43h8a3.22,3.22,0,0,0,3-2.43l1.53-6.88a1.89,1.89,0,0,0-1.89-2.42M208,68.81l-1.4,6.26c-.16.73-.62.72-1.24.72h-4.13c-.61,0-.61-.36-.5-.85l1.39-6.26c.17-.77.48-.91,1.23-.91h4.06c.78,0,.74.41.6,1" style="fill:none;clip-rule:evenodd"/></clipPath><clipPath id="6cb7eb75-e588-4d45-9d45-a1a135875f4c" transform="translate(-23 -36)"><path d="M236.17,65.89h-9.11l-2.61,11.73h9.11a3.22,3.22,0,0,0,3-2.43l1.53-6.87a1.89,1.89,0,0,0-1.89-2.43m-2.75,2.67L232,74.95c-.13.6-.31.9-1,.9h-3.8l1.8-8h3.7c.54,0,.85.1.71.71" style="fill:none;clip-rule:evenodd"/></clipPath></defs><title>hadoop</title><g id="f6449fa3-82ec-42f4-a90e-cf59a10f3f51" data-name="Слой 2"><g id="9cbb7c35-d4ec-4001-a8ac-26635c3947a6" data-name="Слой 1"><g style="opacity:0.75;isolation:isolate"><g style="clip-path:url(#f77d1eda-87d5-4abc-bcd0-f89e59106530)"><g style="clip-path:url(#4f5dea03-1a3a-4c76-9633-1d3a539d09c9)"><g style="clip-path:url(#c46ccabb-bc9f-420b-9f4b-c8b206ff508e)"><rect x="2.28" y="0.17" width="67.51" height="54.5" style="fill:#4b4b4b"/></g></g><g style="clip-path:url(#c9ea9786-7601-4826-ae15-b9f10d04321c)"><g style="clip-path:url(#c46ccabb-bc9f-420b-9f4b-c8b206ff508e)"><rect x="0.56" y="13.25" width="12.73" height="15.81" style="fill:#4b4b4b"/></g></g><g style="clip-path:url(#d46e81c9-8cc0-4d74-be6a-f523162c5435)"><g style="clip-path:url(#c46ccabb-bc9f-420b-9f4b-c8b206ff508e)"><rect x="25.77" y="0.2" width="12.12" height="12" style="fill:#4b4b4b"/></g></g><g style="clip-path:url(#000536af-3908-4d67-b543-ca7cfbc77c2e)"><g style="clip-path:url(#c46ccabb-bc9f-420b-9f4b-c8b206ff508e)"><rect y="14.25" width="11.28" height="12.63" style="fill:#4b4b4b"/></g></g><g style="clip-path:url(#823a901e-a8d5-4784-b8fd-cbc6ca7db240)"><g style="clip-path:url(#c46ccabb-bc9f-420b-9f4b-c8b206ff508e)"><rect x="25.55" width="14.59" height="14.44" style="fill:#4b4b4b"/></g></g><g style="clip-path:url(#8c0cb27d-a0f9-4ca5-8757-37de7cf24ce4)"><g style="clip-path:url(#c46ccabb-bc9f-420b-9f4b-c8b206ff508e)"><rect x="51.55" y="8.57" width="14.92" height="13.53" style="fill:#4b4b4b"/></g></g><g style="clip-path:url(#13513547-a11c-4c40-ab4c-3163ce7eda7a)"><g style="clip-path:url(#c46ccabb-bc9f-420b-9f4b-c8b206ff508e)"><rect x="40.51" y="23.54" width="12.55" height="12.73" style="fill:#4b4b4b"/></g></g><g style="clip-path:url(#e2a27f8d-aa1a-42cc-8fd4-871caee0ed2c)"><g style="clip-path:url(#c46ccabb-bc9f-420b-9f4b-c8b206ff508e)"><rect x="23.63" y="8.44" width="17.37" height="16.83" style="fill:#4b4b4b"/></g></g><g style="clip-path:url(#94853f48-dd7a-472d-b4a1-cac912a9ba81)"><g style="clip-path:url(#c46ccabb-bc9f-420b-9f4b-c8b206ff508e)"><rect x="37.67" y="11.64" width="16.8" height="15.17" style="fill:#4b4b4b"/></g></g><g style="clip-path:url(#7a270edb-77ed-4592-a98b-218525abe562)"><g style="clip-path:url(#c46ccabb-bc9f-420b-9f4b-c8b206ff508e)"><rect x="36.12" y="8.29" width="13" height="13.6" style="fill:#4b4b4b"/></g></g><g style="clip-path:url(#d278f268-b33d-4af1-87ec-ffc6f33e5ad1)"><g style="clip-path:url(#c46ccabb-bc9f-420b-9f4b-c8b206ff508e)"><rect x="118.15" y="24.72" width="23.67" height="21.72" style="fill:#4b4b4b"/></g></g><g style="clip-path:url(#40293616-d6ac-4c46-a5e9-720568a6c3a0)"><g style="clip-path:url(#c46ccabb-bc9f-420b-9f4b-c8b206ff508e)"><rect x="53.32" y="10.4" width="176.16" height="50.54" style="fill:#4b4b4b"/></g></g><g style="clip-path:url(#91bb43b2-97fe-4ce4-be2a-a4953ec0600e)"><g style="clip-path:url(#c46ccabb-bc9f-420b-9f4b-c8b206ff508e)"><rect x="144.03" y="24.72" width="24.52" height="21.73" style="fill:#4b4b4b"/></g></g><g style="clip-path:url(#839b2091-7809-424d-82c5-5534c469ad0d)"><g style="clip-path:url(#c46ccabb-bc9f-420b-9f4b-c8b206ff508e)"><rect x="91.51" y="33.21" width="23.06" height="13.24" style="fill:#4b4b4b"/></g></g><g style="clip-path:url(#3cb8879c-2732-4c65-ab95-04950065fac8)"><g style="clip-path:url(#c46ccabb-bc9f-420b-9f4b-c8b206ff508e)"><rect x="170.73" y="24.72" width="24.52" height="21.73" style="fill:#4b4b4b"/></g></g><g style="clip-path:url(#6cb7eb75-e588-4d45-9d45-a1a135875f4c)"><g style="clip-path:url(#c46ccabb-bc9f-420b-9f4b-c8b206ff508e)"><rect x="196.44" y="24.89" width="23.67" height="21.73" style="fill:#4b4b4b"/></g></g></g></g></g></g></svg>