<svg xmlns="http://www.w3.org/2000/svg" xmlns:xlink="http://www.w3.org/1999/xlink" width="209.33" height="48.92" viewBox="0 0 209.33 48.92"><defs><clipPath id="4f9201a0-3291-4dd8-80d8-332d9f81b0f5" transform="translate(-33.38 -42.5)"><rect x="38" y="47" width="200" height="40" style="fill:none"/></clipPath><clipPath id="2ab4cb8f-0f81-4e47-9317-3ce92dd1ca45" transform="translate(-33.38 -42.5)"><path d="M71.09,47.5h-13V64.69H75.32v-13A4.23,4.23,0,0,0,71.09,47.5Z" style="fill:none;clip-rule:evenodd"/></clipPath><clipPath id="791c34bf-54e0-408d-a026-c96c8eb6faa1" transform="translate(-33.38 -42.5)"><rect width="276" height="133" style="fill:none"/></clipPath><clipPath id="09512907-fa18-4134-b081-e9ea2cfb693c" transform="translate(-33.38 -42.5)"><path d="M71.09,69.23H62.36a4.23,4.23,0,0,0-4.23,4.23v13H75.32v-13A4.23,4.23,0,0,0,71.09,69.23Z" style="fill:none;clip-rule:evenodd"/></clipPath><clipPath id="e67953ea-3da6-485f-92a2-ebada1cdf2b5" transform="translate(-33.38 -42.5)"><path d="M53.1,86.42H42.67a4.3,4.3,0,0,1-4.3-4.3V51.8a4.3,4.3,0,0,1,4.3-4.3H53.1Z" style="fill:none;clip-rule:evenodd"/></clipPath><clipPath id="f96175e9-e39d-4ac2-b34b-ecd7fe8d5ed4" transform="translate(-33.38 -42.5)"><path d="M198.34,72.3c-2.7,0-4,.9-4,2.73s1,2.74,3.1,2.74A9.13,9.13,0,0,0,203,76.09V72.61A34,34,0,0,0,198.34,72.3ZM207,81.15h-2.4l-1.07-1.75a11.32,11.32,0,0,1-6.07,1.75c-4.72,0-7.11-2-7.11-6.06s2.7-6.17,8-6.17a35,35,0,0,1,4.61.31v-1.4c0-2-1.56-2.94-4.78-2.94a21,21,0,0,0-5.9.89l-.43.13V62.5l.24-.07a21.66,21.66,0,0,1,6.09-.92c5.83,0,8.79,2.09,8.79,6.23V81.15Z" style="fill:none;clip-rule:evenodd"/></clipPath><clipPath id="750a4aa6-0880-4162-bfdd-f73911a4f839" transform="translate(-33.38 -42.5)"><path d="M104.85,81.15h-4V68.85A3.87,3.87,0,0,0,97.17,65H97a7.58,7.58,0,0,0-5.12,2.21v14h-4v-27H89.9a2,2,0,0,1,1.95,1.95v7.15a9.27,9.27,0,0,1,5.57-1.71c4.93,0,7.43,2.49,7.43,7.4V81.15Z" style="fill:none;clip-rule:evenodd"/></clipPath><clipPath id="940a0ff8-3f2f-457d-9627-1152c0884bee" transform="translate(-33.38 -42.5)"><path d="M115.61,72.3c-2.7,0-4,.9-4,2.73s1,2.74,3.1,2.74a9.12,9.12,0,0,0,5.54-1.68V72.61A34,34,0,0,0,115.61,72.3Zm8.63,8.85h-2.4l-1.07-1.75a11.32,11.32,0,0,1-6.07,1.75c-4.72,0-7.11-2-7.11-6.06s2.7-6.17,8-6.17a35,35,0,0,1,4.61.31v-1.4c0-2-1.56-2.94-4.78-2.94a21,21,0,0,0-5.9.89l-.43.13V62.5l.24-.07a21.66,21.66,0,0,1,6.09-.92c5.83,0,8.79,2.09,8.79,6.23V81.15Z" style="fill:none;clip-rule:evenodd"/></clipPath><clipPath id="6d32e6f1-f00e-45fd-a1ec-811fcbb73a5c" transform="translate(-33.38 -42.5)"><polygon points="142.6 81.15 127.12 81.15 127.12 78.16 127.2 78.07 138.21 64.89 127.48 64.89 127.48 61.51 142.97 61.51 142.97 64.67 142.89 64.77 132.02 77.95 142.6 77.95 142.6 81.15" style="fill:none;clip-rule:evenodd"/></clipPath><clipPath id="c80c90bb-8356-401e-9413-3a66277ae1dd" transform="translate(-33.38 -42.5)"><path d="M148.69,69.17h9.55c-.17-2.9-1.65-4.31-4.53-4.31C150.63,64.85,149,66.27,148.69,69.17Zm6.06,12c-6.71,0-10.11-3.38-10.11-10,0-6.37,3-9.6,9.06-9.6,5.59,0,8.43,2.81,8.43,8.34a19.91,19.91,0,0,1-.17,2.48l0,.29H148.66c.13,3.46,2.24,5.15,6.45,5.15a20.53,20.53,0,0,0,5.65-.71l.43-.12v3.41l-.24.07A22.78,22.78,0,0,1,154.75,81.15Z" style="fill:none;clip-rule:evenodd"/></clipPath><clipPath id="75eddd4b-4878-49c5-86ef-5ef587e56e05" transform="translate(-33.38 -42.5)"><path d="M169.47,81.15h-4v-27h2.07a2,2,0,0,1,1.95,1.95V81.15Z" style="fill:none;clip-rule:evenodd"/></clipPath><clipPath id="94281f53-6561-4020-a5b8-3d1f2ea43842" transform="translate(-33.38 -42.5)"><path d="M182.82,81.15c-6.93,0-10.45-3.42-10.45-10.18,0-6.27,3.52-9.46,10.45-9.46a22.87,22.87,0,0,1,5.13.55l.26.06v3.4l-.41-.1a23.17,23.17,0,0,0-5.16-.53c-4.21,0-6.26,2-6.26,6.08,0,4.58,2,6.8,6.26,6.8a23.18,23.18,0,0,0,5.16-.53l.41-.1v3.4l-.26.06A23,23,0,0,1,182.82,81.15Z" style="fill:none;clip-rule:evenodd"/></clipPath><clipPath id="bcf72b29-d287-4da3-92b1-da739544d129" transform="translate(-33.38 -42.5)"><path d="M217.87,81.15a26.27,26.27,0,0,1-6.84-.92l-.25-.07V76.56l.44.14a21.51,21.51,0,0,0,6.65,1.07c4.2,0,4.2-1.79,4.2-2.37,0-.94-.29-2.19-2.83-2.19h-2.71c-4.3,0-6.48-2-6.48-5.94s2.77-5.76,8.23-5.76a26.24,26.24,0,0,1,6.83.92l.25.07V66.1l-.44-.14a21.46,21.46,0,0,0-6.63-1.07c-4.4,0-4.4,1.79-4.4,2.37,0,1.5.84,2.19,2.65,2.19h2.71c4.54,0,6.84,2,6.84,5.94S223.32,81.15,217.87,81.15Z" style="fill:none;clip-rule:evenodd"/></clipPath><clipPath id="7b22e261-7afb-408a-947a-2d4a1c536990" transform="translate(-33.38 -42.5)"><path d="M237.71,81.15H234.2c-3.39,0-5.11-1.83-5.11-5.45V58.44h2.7l.72,3.07h5.2v3.38H233.1V75.45c0,1.58.62,2.32,2,2.32h2.65Z" style="fill:none;clip-rule:evenodd"/></clipPath></defs><title>hazelcast</title><g id="8beac9ef-51d7-4faf-aca9-519cca94b484" data-name="Слой 2"><g id="29563a6f-8bba-4394-bd29-1faee9dc3dc4" data-name="Слой 1"><g style="opacity:0.75;isolation:isolate"><g style="clip-path:url(#4f9201a0-3291-4dd8-80d8-332d9f81b0f5)"><g style="clip-path:url(#2ab4cb8f-0f81-4e47-9317-3ce92dd1ca45)"><g style="clip-path:url(#791c34bf-54e0-408d-a026-c96c8eb6faa1)"><rect x="19.75" width="27.19" height="27.19" style="fill:#4b4b4b"/></g></g><g style="clip-path:url(#09512907-fa18-4134-b081-e9ea2cfb693c)"><g style="clip-path:url(#791c34bf-54e0-408d-a026-c96c8eb6faa1)"><rect x="19.75" y="21.73" width="27.19" height="27.19" style="fill:#4b4b4b"/></g></g><g style="clip-path:url(#e67953ea-3da6-485f-92a2-ebada1cdf2b5)"><g style="clip-path:url(#791c34bf-54e0-408d-a026-c96c8eb6faa1)"><rect width="24.72" height="48.92" style="fill:#4b4b4b"/></g></g><g style="clip-path:url(#f96175e9-e39d-4ac2-b34b-ecd7fe8d5ed4)"><g style="clip-path:url(#791c34bf-54e0-408d-a026-c96c8eb6faa1)"><rect x="151.93" y="14.01" width="26.66" height="29.64" style="fill:#4b4b4b"/></g></g><g style="clip-path:url(#750a4aa6-0880-4162-bfdd-f73911a4f839)"><g style="clip-path:url(#791c34bf-54e0-408d-a026-c96c8eb6faa1)"><rect x="49.45" y="6.61" width="27.02" height="37.03" style="fill:#4b4b4b"/></g></g><g style="clip-path:url(#940a0ff8-3f2f-457d-9627-1152c0884bee)"><g style="clip-path:url(#791c34bf-54e0-408d-a026-c96c8eb6faa1)"><rect x="69.2" y="14.01" width="26.66" height="29.64" style="fill:#4b4b4b"/></g></g><g style="clip-path:url(#6d32e6f1-f00e-45fd-a1ec-811fcbb73a5c)"><g style="clip-path:url(#791c34bf-54e0-408d-a026-c96c8eb6faa1)"><rect x="88.74" y="14.01" width="25.85" height="29.64" style="fill:#4b4b4b"/></g></g><g style="clip-path:url(#c80c90bb-8356-401e-9413-3a66277ae1dd)"><g style="clip-path:url(#791c34bf-54e0-408d-a026-c96c8eb6faa1)"><rect x="106.26" y="14.01" width="27.49" height="29.64" style="fill:#4b4b4b"/></g></g><g style="clip-path:url(#75eddd4b-4878-49c5-86ef-5ef587e56e05)"><g style="clip-path:url(#791c34bf-54e0-408d-a026-c96c8eb6faa1)"><rect x="127.08" y="6.61" width="14.01" height="37.03" style="fill:#4b4b4b"/></g></g><g style="clip-path:url(#94281f53-6561-4020-a5b8-3d1f2ea43842)"><g style="clip-path:url(#791c34bf-54e0-408d-a026-c96c8eb6faa1)"><rect x="133.99" y="14.01" width="25.85" height="29.64" style="fill:#4b4b4b"/></g></g><g style="clip-path:url(#bcf72b29-d287-4da3-92b1-da739544d129)"><g style="clip-path:url(#791c34bf-54e0-408d-a026-c96c8eb6faa1)"><rect x="171.68" y="14.01" width="26.03" height="29.64" style="fill:#4b4b4b"/></g></g><g style="clip-path:url(#7b22e261-7afb-408a-947a-2d4a1c536990)"><g style="clip-path:url(#791c34bf-54e0-408d-a026-c96c8eb6faa1)"><rect x="190.71" y="10.94" width="18.62" height="32.71" style="fill:#4b4b4b"/></g></g></g></g></g></g></svg>