<svg xmlns="http://www.w3.org/2000/svg" xmlns:xlink="http://www.w3.org/1999/xlink" width="64.96" height="78.14" viewBox="0 0 64.96 78.14"><defs><clipPath id="6978a2b2-256c-4419-9a26-e392640e4205" transform="translate(-106 -19)"><rect x="111" y="24" width="55" height="86" style="fill:none"/></clipPath><clipPath id="fd5888f2-2d45-46f7-86a0-ff593e0bae7c" transform="translate(-106 -19)"><path d="M145.44,82.77h7.38v-27c0-14.85-21.44-6.4-21.44-6.4V33.28l-7.66,0s0,25.14,0,25c23.44-9.12,21.68-2.65,21.68-2.65Zm-21.58,0,7.71-7.7-7.71-7.71Zm35.6,9.42h-42a6.5,6.5,0,0,1-6.5-6.5V30.5a6.5,6.5,0,0,1,6.5-6.5h42a6.5,6.5,0,0,1,6.5,6.5V85.64A6.5,6.5,0,0,1,159.46,92.14Z" style="fill:none;clip-rule:evenodd"/></clipPath><clipPath id="294aed37-93dd-4956-8127-3139b73970d2" transform="translate(-106 -19)"><rect width="276" height="133" style="fill:none"/></clipPath></defs><title>heroku</title><g id="92849a86-06f8-49ee-af2a-0b70e27f12b8" data-name="Слой 2"><g id="ea8e9f25-341c-42ee-a960-73447bbd16ec" data-name="Слой 1"><g style="opacity:0.75;isolation:isolate"><g style="clip-path:url(#6978a2b2-256c-4419-9a26-e392640e4205)"><g style="clip-path:url(#fd5888f2-2d45-46f7-86a0-ff593e0bae7c)"><g style="clip-path:url(#294aed37-93dd-4956-8127-3139b73970d2)"><rect width="64.96" height="78.14" style="fill:#4b4b4b"/></g></g></g></g></g></g></svg>