<svg xmlns="http://www.w3.org/2000/svg" xmlns:xlink="http://www.w3.org/1999/xlink" width="219.65" height="45.24" viewBox="0 0 219.65 45.24"><defs><clipPath id="5a4ddab6-b2b9-4248-ab93-4d49d4544dff" transform="translate(-28 -44.39)"><rect x="33" y="49" width="210" height="36" style="fill:none"/></clipPath><clipPath id="a2cdd8ad-5c77-4cec-bbca-656970177013" transform="translate(-28 -44.39)"><polygon points="33 61.13 39.73 72.89 46.47 61.13 39.73 49.39 33 61.13" style="fill:none;clip-rule:evenodd"/></clipPath><clipPath id="6745729e-c922-40db-bb1d-b115e1cad073" transform="translate(-28 -44.39)"><rect width="276" height="133" style="fill:none"/></clipPath><clipPath id="c6421239-7173-4bda-ba3a-7a5c783d1329" transform="translate(-28 -44.39)"><polygon points="39.74 49.39 46.47 61.13 59.94 61.13 53.2 49.39 39.74 49.39" style="fill:none;clip-rule:evenodd"/></clipPath><clipPath id="9d5c7d20-b161-47ec-b27f-b8ae66586b52" transform="translate(-28 -44.39)"><polygon points="53.2 72.89 59.93 84.63 66.66 72.89 59.93 61.13 53.2 72.89" style="fill:none;clip-rule:evenodd"/></clipPath><clipPath id="1cbb4b1d-4122-45c7-9ca5-6314a9c5bbae" transform="translate(-28 -44.39)"><polygon points="39.73 72.89 46.46 84.63 59.93 84.63 53.2 72.89 39.73 72.89" style="fill:none;clip-rule:evenodd"/></clipPath><clipPath id="0accd3f0-81d0-456a-9d52-5c468fb4c196" transform="translate(-28 -44.39)"><polygon points="91.08 72.72 91.08 49.52 87.39 49.52 87.39 59.11 76.5 59.11 76.5 49.52 72.79 49.52 72.79 72.72 76.5 72.72 76.5 62.31 87.39 62.31 87.39 72.72 91.08 72.72" style="fill:none;clip-rule:evenodd"/></clipPath><clipPath id="6f931c84-1d0e-4490-98b3-572c8b7d19c6" transform="translate(-28 -44.39)"><rect x="98.03" y="49.52" width="3.72" height="23.19" style="fill:none"/></clipPath><clipPath id="60139e4e-61c5-40f6-ac68-9519084eaae9" transform="translate(-28 -44.39)"><path d="M124,65.71a5.19,5.19,0,0,0-4.4-5.29v-.07a5.67,5.67,0,0,0,3.92-5.29c0-3.57-2.59-5.64-7.61-5.64-2.8,0-5.43.07-7.23.1V72.72c2.56,0,4.88.1,6.28.1,7.06,0,9-4.09,9-7.11m-4.37-10.07c0,2.34-1.81,3.74-5.26,3.74-.78,0-1.36,0-2,0V52.48c.89,0,1.88-.07,2.9-.07,3.28,0,4.33,1.34,4.33,3.23m.44,10.14c0,2.34-1.6,4-5,4a16.65,16.65,0,0,1-2.7-.17V62.2c.51,0,1.71,0,2.08,0,3.24,0,5.6,1,5.6,3.61" style="fill:none;clip-rule:evenodd"/></clipPath><clipPath id="5fcbb983-3d40-49cc-ae12-c7df3f05560b" transform="translate(-28 -44.39)"><polygon points="141.67 72.72 141.67 69.52 133.24 69.52 133.24 62.31 141.26 62.31 141.26 59.25 133.24 59.25 133.24 52.65 141.67 52.65 141.67 49.52 129.52 49.52 129.52 72.72 141.67 72.72" style="fill:none;clip-rule:evenodd"/></clipPath><clipPath id="1c1bd273-44f7-433a-86f6-dbacfab1cabe" transform="translate(-28 -44.39)"><path d="M163.2,72.72l-6.07-8.07c-.58-.76-1.3-1.65-1.94-2.47,3.75-.41,6.52-2.78,6.52-6.49,0-4.6-3.28-6.29-8.05-6.29-2.59,0-4.51,0-6.18.14V72.72h3.72v-10h.17l7.17,10ZM157.8,56.09c0,2.3-1.81,3.85-4.81,3.85-.82,0-1.47,0-1.81-.07V52.51c.55,0,1.23-.07,1.95-.07C156.23,52.44,157.8,53.54,157.8,56.09Z" style="fill:none;clip-rule:evenodd"/></clipPath><clipPath id="7edb7582-a09e-463d-87eb-03129f9be89d" transform="translate(-28 -44.39)"><path d="M186.46,72.72V49.52h-3.62V56.4c0,3.4.1,8.38.24,11-.85-1.68-1.78-3.54-2.8-5.26l-7.61-12.64h-4.88V72.72h3.62v-7.8c0-3.3-.07-8-.21-10.27a48.39,48.39,0,0,0,2.56,4.88l7.88,13.19Z" style="fill:none;clip-rule:evenodd"/></clipPath><clipPath id="118ccd47-595d-424c-a7b8-e3d4e296fd61" transform="translate(-28 -44.39)"><path d="M211.06,72.72,202.7,49.52h-4.13l-8.26,23.19h3.75l1.78-5.12h9.32l1.77,5.12Zm-6.89-8.11h-7.37l2.59-7.18a27.53,27.53,0,0,0,1.06-3.68h.07a25.16,25.16,0,0,0,1,3.57Z" style="fill:none;clip-rule:evenodd"/></clipPath><clipPath id="3a308b33-645f-424c-91be-68b01e7186ac" transform="translate(-28 -44.39)"><polygon points="226.65 52.69 226.65 49.52 210.27 49.52 210.27 52.69 216.58 52.69 216.58 72.72 220.3 72.72 220.3 52.69 226.65 52.69" style="fill:none;clip-rule:evenodd"/></clipPath><clipPath id="c3b6e167-dd47-49b2-b656-c288065da2af" transform="translate(-28 -44.39)"><polygon points="242.65 72.72 242.65 69.52 234.22 69.52 234.22 62.31 242.24 62.31 242.24 59.25 234.22 59.25 234.22 52.65 242.65 52.65 242.65 49.52 230.5 49.52 230.5 72.72 242.65 72.72" style="fill:none;clip-rule:evenodd"/></clipPath></defs><title>hibernate</title><g id="faeb284e-4dc5-488b-baf7-8da9a44297c4" data-name="Слой 2"><g id="5ecdbf0c-360a-411e-b65e-3a9b0d91bfc1" data-name="Слой 1"><g style="opacity:0.75;isolation:isolate"><g style="clip-path:url(#5a4ddab6-b2b9-4248-ab93-4d49d4544dff)"><g style="clip-path:url(#a2cdd8ad-5c77-4cec-bbca-656970177013)"><g style="clip-path:url(#6745729e-c922-40db-bb1d-b115e1cad073)"><rect width="23.47" height="33.5" style="fill:#4b4b4b"/></g></g><g style="clip-path:url(#c6421239-7173-4bda-ba3a-7a5c783d1329)"><g style="clip-path:url(#6745729e-c922-40db-bb1d-b115e1cad073)"><rect x="6.74" width="30.2" height="21.74" style="fill:#4b4b4b"/></g></g><g style="clip-path:url(#9d5c7d20-b161-47ec-b27f-b8ae66586b52)"><g style="clip-path:url(#6745729e-c922-40db-bb1d-b115e1cad073)"><rect x="20.2" y="11.75" width="23.46" height="33.5" style="fill:#4b4b4b"/></g></g><g style="clip-path:url(#1cbb4b1d-4122-45c7-9ca5-6314a9c5bbae)"><g style="clip-path:url(#6745729e-c922-40db-bb1d-b115e1cad073)"><rect x="6.72" y="23.5" width="30.2" height="21.74" style="fill:#4b4b4b"/></g></g><g style="clip-path:url(#0accd3f0-81d0-456a-9d52-5c468fb4c196)"><g style="clip-path:url(#6745729e-c922-40db-bb1d-b115e1cad073)"><rect x="39.79" y="0.14" width="28.29" height="33.19" style="fill:#4b4b4b"/></g></g><g style="clip-path:url(#6f931c84-1d0e-4490-98b3-572c8b7d19c6)"><g style="clip-path:url(#6745729e-c922-40db-bb1d-b115e1cad073)"><rect x="65.03" y="0.14" width="13.72" height="33.19" style="fill:#4b4b4b"/></g></g><g style="clip-path:url(#60139e4e-61c5-40f6-ac68-9519084eaae9)"><g style="clip-path:url(#6745729e-c922-40db-bb1d-b115e1cad073)"><rect x="75.7" y="0.03" width="25.32" height="33.4" style="fill:#4b4b4b"/></g></g><g style="clip-path:url(#5fcbb983-3d40-49cc-ae12-c7df3f05560b)"><g style="clip-path:url(#6745729e-c922-40db-bb1d-b115e1cad073)"><rect x="96.52" y="0.14" width="22.15" height="33.19" style="fill:#4b4b4b"/></g></g><g style="clip-path:url(#1c1bd273-44f7-433a-86f6-dbacfab1cabe)"><g style="clip-path:url(#6745729e-c922-40db-bb1d-b115e1cad073)"><rect x="114.46" width="25.73" height="33.33" style="fill:#4b4b4b"/></g></g><g style="clip-path:url(#7edb7582-a09e-463d-87eb-03129f9be89d)"><g style="clip-path:url(#6745729e-c922-40db-bb1d-b115e1cad073)"><rect x="134.79" y="0.14" width="28.67" height="33.19" style="fill:#4b4b4b"/></g></g><g style="clip-path:url(#118ccd47-595d-424c-a7b8-e3d4e296fd61)"><g style="clip-path:url(#6745729e-c922-40db-bb1d-b115e1cad073)"><rect x="157.31" y="0.14" width="30.75" height="33.19" style="fill:#4b4b4b"/></g></g><g style="clip-path:url(#3a308b33-645f-424c-91be-68b01e7186ac)"><g style="clip-path:url(#6745729e-c922-40db-bb1d-b115e1cad073)"><rect x="177.27" y="0.14" width="26.38" height="33.19" style="fill:#4b4b4b"/></g></g><g style="clip-path:url(#c3b6e167-dd47-49b2-b656-c288065da2af)"><g style="clip-path:url(#6745729e-c922-40db-bb1d-b115e1cad073)"><rect x="197.5" y="0.14" width="22.15" height="33.19" style="fill:#4b4b4b"/></g></g></g></g></g></g></svg>