<svg xmlns="http://www.w3.org/2000/svg" xmlns:xlink="http://www.w3.org/1999/xlink" width="74.06" height="129.39" viewBox="0 0 74.06 129.39"><defs><clipPath id="00136186-c48e-4e58-aab2-c5ccceb92637" transform="translate(-101 -2.05)"><rect x="102" y="7" width="72" height="120" style="fill:none"/></clipPath><clipPath id="72be98e1-1588-4503-b799-29051575a11d" transform="translate(-101 -2.05)"><path d="M169.63,100.94l-.41,1.07-.41-1.07h-.44v1.51h.3v-1.19h0l.44,1.19h.2l.44-1.19h0v1.19h.29v-1.51Zm-2.71,0v.25h.45v1.26h.31v-1.26h.45v-.25Z" style="fill:none;clip-rule:evenodd"/></clipPath><clipPath id="011386ab-6ed2-4222-8d51-b462eba1694f" transform="translate(-101 -2.05)"><rect width="276" height="133" style="fill:none"/></clipPath><clipPath id="e2ffbbd3-f149-452d-8fb7-d506179506fd" transform="translate(-101 -2.05)"><path d="M127.18,70.38s-3.12,1.82,2.22,2.44c6.48.74,9.79.63,16.92-.72a29.49,29.49,0,0,0,4.5,2.2c-16,6.87-36.21-.4-23.64-3.92m-2-9s-3.5,2.6,1.85,3.15a65.9,65.9,0,0,0,21.84-1,9.69,9.69,0,0,0,3.36,2.05c-19.34,5.67-40.89.45-27-4.16" style="fill:none;clip-rule:evenodd"/></clipPath><clipPath id="1091f1ce-fe97-4d74-9e9a-417f3270f450" transform="translate(-101 -2.05)"><path d="M141.71,46.2c3.94,4.55-1,8.64-1,8.64s10-5.18,5.41-11.66c-4.29-6-7.59-9.05,10.24-19.41,0,0-28,7-14.62,22.43" style="fill:none;clip-rule:evenodd"/></clipPath><clipPath id="6122eae4-626c-46e6-8e80-bcbe2e0eaf6a" transform="translate(-101 -2.05)"><path d="M162.87,77s2.31,1.91-2.55,3.38c-9.23,2.8-38.44,3.65-46.55.11-2.92-1.27,2.55-3,4.27-3.41a11.1,11.1,0,0,1,2.82-.32c-3.24-2.29-21,4.49-9,6.44,32.62,5.3,59.46-2.39,51-6.21M128.68,52.12s-14.85,3.54-5.26,4.82c4.05.54,12.13.42,19.65-.21,6.15-.52,12.32-1.62,12.32-1.62a26.07,26.07,0,0,0-3.74,2c-15.08,4-44.22,2.13-35.83-1.94a28.06,28.06,0,0,1,12.86-3M155.33,67c15.33-8,8.24-15.66,3.3-14.62a11.45,11.45,0,0,0-1.75.47,2.8,2.8,0,0,1,1.31-1C168,48.44,175.5,62.05,155,67.45a1.35,1.35,0,0,0,.31-.4" style="fill:none;clip-rule:evenodd"/></clipPath><clipPath id="edefcde8-3bf3-49a2-9550-07b85ade7f47" transform="translate(-101 -2.05)"><path d="M146.08,7s8.49,8.51-8.05,21.6c-13.27,10.5-3,16.48,0,23.33-7.74-7-13.43-13.17-9.62-18.9,5.6-8.42,21.1-12.5,17.67-26" style="fill:none;clip-rule:evenodd"/></clipPath><clipPath id="7a72da8f-e55c-4aa5-9fb8-57cbbccbf53e" transform="translate(-101 -2.05)"><path d="M130.19,88.68c14.72.94,37.32-.52,37.85-7.5,0,0-1,2.65-12.16,4.75a120.76,120.76,0,0,1-37.25.57s1.88,1.56,11.55,2.18" style="fill:none;clip-rule:evenodd"/></clipPath><clipPath id="38f2b430-13aa-43eb-8b0a-e386cde451d6" transform="translate(-101 -2.05)"><path d="M127.78,115.34a6.67,6.67,0,0,1-4.17,1.88,2.66,2.66,0,0,1-2.89-2.94c0-2,1.09-3.39,5.45-3.39h1.61Zm3.83,4.33V106.27c0-3.43-1.95-5.68-6.65-5.68a17.49,17.49,0,0,0-7.1,1.54l.56,2.37a16.47,16.47,0,0,1,5.48-1.09c2.71,0,3.87,1.09,3.87,3.35v1.7h-1.35c-6.58,0-9.55,2.56-9.55,6.4,0,3.31,2,5.2,5.64,5.2a8.5,8.5,0,0,0,5.79-2.41l.3,2Zm12.79,0h-4.78l-5.75-18.75H138l3.57,11.52.79,3.47a72.14,72.14,0,0,0,3.72-15h4.06A76.25,76.25,0,0,1,144.39,119.67Zm18.33-4.33a6.69,6.69,0,0,1-4.18,1.88,2.66,2.66,0,0,1-2.89-2.94c0-2,1.09-3.39,5.45-3.39h1.62Zm3.83,4.33V106.27c0-3.43-2-5.68-6.65-5.68a17.49,17.49,0,0,0-7.1,1.54l.56,2.37a16.5,16.5,0,0,1,5.49-1.09c2.71,0,3.87,1.09,3.87,3.35v1.7h-1.35c-6.58,0-9.55,2.56-9.55,6.4,0,3.31,2,5.2,5.64,5.2a8.51,8.51,0,0,0,5.79-2.41l.3,2Zm-53.88,3.19a10.08,10.08,0,0,1-4.79,3.58L106,124.21a7.94,7.94,0,0,0,3.32-3.11c.51-1,.72-2.31.72-5.43V94.25h4.07v21.12C114.1,119.53,113.77,121.22,112.68,122.86Z" style="fill:none;clip-rule:evenodd"/></clipPath></defs><title>java</title><g id="c82e0e47-2694-46df-8271-9ea03dbddbb2" data-name="Слой 2"><g id="1f2a3177-26ed-420d-bb13-5a343d9bd1f4" data-name="Слой 1"><g style="opacity:0.75;isolation:isolate"><g style="clip-path:url(#00136186-c48e-4e58-aab2-c5ccceb92637)"><g style="clip-path:url(#72be98e1-1588-4503-b799-29051575a11d)"><g style="clip-path:url(#011386ab-6ed2-4222-8d51-b462eba1694f)"><rect x="60.92" y="93.9" width="13.15" height="11.51" style="fill:#4b4b4b"/></g></g><g style="clip-path:url(#e2ffbbd3-f149-452d-8fb7-d506179506fd)"><g style="clip-path:url(#011386ab-6ed2-4222-8d51-b462eba1694f)"><rect x="14.83" y="54.36" width="41.44" height="25.73" style="fill:#4b4b4b"/></g></g><g style="clip-path:url(#1091f1ce-fe97-4d74-9e9a-417f3270f450)"><g style="clip-path:url(#011386ab-6ed2-4222-8d51-b462eba1694f)"><rect x="32.09" y="16.73" width="28.23" height="41.07" style="fill:#4b4b4b"/></g></g><g style="clip-path:url(#6122eae4-626c-46e6-8e80-bcbe2e0eaf6a)"><g style="clip-path:url(#011386ab-6ed2-4222-8d51-b462eba1694f)"><rect x="1.77" y="44.28" width="70.24" height="43.69" style="fill:#4b4b4b"/></g></g><g style="clip-path:url(#edefcde8-3bf3-49a2-9550-07b85ade7f47)"><g style="clip-path:url(#011386ab-6ed2-4222-8d51-b462eba1694f)"><rect x="21.19" width="31.07" height="54.93" style="fill:#4b4b4b"/></g></g><g style="clip-path:url(#7a72da8f-e55c-4aa5-9fb8-57cbbccbf53e)"><g style="clip-path:url(#011386ab-6ed2-4222-8d51-b462eba1694f)"><rect x="12.63" y="74.13" width="59.41" height="17.76" style="fill:#4b4b4b"/></g></g><g style="clip-path:url(#38f2b430-13aa-43eb-8b0a-e386cde451d6)"><g style="clip-path:url(#011386ab-6ed2-4222-8d51-b462eba1694f)"><rect y="87.21" width="70.56" height="42.18" style="fill:#4b4b4b"/></g></g></g></g></g></g></svg>