<svg xmlns="http://www.w3.org/2000/svg" xmlns:xlink="http://www.w3.org/1999/xlink" width="139.9" height="84.01" viewBox="0 0 139.9 84.01"><defs><clipPath id="cb605843-ac96-4d16-94f0-8c83a0f89d0f" transform="translate(-68 -24)"><rect x="73" y="29" width="130" height="75" style="fill:none"/></clipPath><clipPath id="1a21ed72-71f8-45f8-ab2f-d18388096434" transform="translate(-68 -24)"><path d="M156.65,91.75h-2.53v2.8h2.53a1.31,1.31,0,0,0,1.48-1.4A1.33,1.33,0,0,0,156.65,91.75Zm.88,3.93,1.77,3.56h-1.5l-1.73-3.45h-2v3.45h-1.28V90.52h3.81a2.51,2.51,0,0,1,2.79,2.6A2.42,2.42,0,0,1,157.53,95.68Z" style="fill:none;clip-rule:evenodd"/></clipPath><clipPath id="6302efd4-cc58-4728-8179-9e42ca96ddaf" transform="translate(-68 -24)"><rect width="276" height="133" style="fill:none"/></clipPath><clipPath id="2aba0556-4f6e-46eb-955a-17b3be2db156" transform="translate(-68 -24)"><path d="M163.73,93.72c-.86,0-1.38.6-1.49,1.64h3C165.2,94.47,164.78,93.72,163.73,93.72Zm2.79,2.7h-4.31c.14,1.26.84,1.79,1.64,1.79a2.28,2.28,0,0,0,1.42-.52l.76.82a3,3,0,0,1-2.25.86c-1.53,0-2.82-1.23-2.82-3.4s1.17-3.42,2.85-3.42c1.85,0,2.74,1.51,2.74,3.28C166.56,96.07,166.53,96.29,166.52,96.42Z" style="fill:none;clip-rule:evenodd"/></clipPath><clipPath id="090aee07-cad5-4a79-9029-4d67ebc2e23d" transform="translate(-68 -24)"><path d="M172.08,94.6a2.09,2.09,0,0,0-1.53-.86c-.92,0-1.42.7-1.42,2.08,0,1.65.52,2.37,1.47,2.37a2,2,0,0,0,1.48-.83Zm0,4.63v-.62a2.48,2.48,0,0,1-1.7.76c-1.4,0-2.51-1-2.51-3.51,0-2.24,1.22-3.3,2.57-3.3a2.31,2.31,0,0,1,1.64.75V90.82l1.27-.66v9.08Z" style="fill:none;clip-rule:evenodd"/></clipPath><clipPath id="f5009e1a-26e1-451a-b94f-f1651b2f87bb" transform="translate(-68 -24)"><polygon points="184.06 99.24 184.06 95.33 180.06 95.33 180.06 99.24 178.76 99.24 178.76 90.52 180.06 90.52 180.06 94.04 184.06 94.04 184.06 90.52 185.36 90.52 185.36 99.24 184.06 99.24" style="fill:none;clip-rule:evenodd"/></clipPath><clipPath id="7cead385-6e2a-44f5-afe9-01962874b425" transform="translate(-68 -24)"><path d="M191.17,96.45a3.19,3.19,0,0,0-1.49-.29c-.82,0-1.34.37-1.34,1s.41,1.08,1.25,1.08a2,2,0,0,0,1.58-.83v-.93Zm0,2.79v-.65a2.56,2.56,0,0,1-1.79.79,2.11,2.11,0,0,1-2.26-2.21c0-1.46,1.12-2.12,2.59-2.12a3.59,3.59,0,0,1,1.45.25v-.49c0-.71-.43-1.11-1.23-1.11a3.27,3.27,0,0,0-1.7.41l-.5-1a4,4,0,0,1,2.23-.59c1.45,0,2.45.71,2.45,2.19v4.48Z" style="fill:none;clip-rule:evenodd"/></clipPath><clipPath id="c93e9fb3-e8ef-42fd-8028-08ebaf01f6aa" transform="translate(-68 -24)"><path d="M197.38,99.08a2.59,2.59,0,0,1-1.25.3c-.91,0-1.47-.56-1.47-1.73V93.87h-.93V92.7h.93V90.83l1.25-.67V92.7h1.61v1.17h-1.61v3.55c0,.61.2.79.67.79a2,2,0,0,0,.94-.26Z" style="fill:none;clip-rule:evenodd"/></clipPath><clipPath id="2291a61d-b30e-4014-9fc2-373de5cebdaa" transform="translate(-68 -24)"><path d="M130.85,69.21h-5.73V62.88h5.73c2.16,0,3.85.81,3.85,3.24S133.12,69.21,130.85,69.21ZM125.13,53h5.53c1.5,0,2.92.66,2.92,2.67a2.67,2.67,0,0,1-2.92,2.62h-5.53Zm12,6.91a6.2,6.2,0,0,0,3.62-5.55c0-5.75-5.19-7-9.92-6.91H110.89V65.77c0,2.67-.93,3.59-2.58,3.59a2.53,2.53,0,0,1-2.77-2.82V64H98.82v1.19c0,6.14,2.35,10.34,9.61,10.34,5.93,0,9.06-2.64,9.54-7.84V75h13.19c5.88,0,10.69-2,10.69-8.57A6.54,6.54,0,0,0,137.12,59.87Z" style="fill:none;clip-rule:evenodd"/></clipPath><clipPath id="981c9b9d-6706-4e3e-b788-7057926585d7" transform="translate(-68 -24)"><path d="M127.28,94.57a8.41,8.41,0,1,0-8.4,8.44A8.42,8.42,0,0,0,127.28,94.57Z" style="fill:none;clip-rule:evenodd"/></clipPath><clipPath id="437bfb99-955b-4f14-8209-467bc71529b9" transform="translate(-68 -24)"><ellipse cx="97.5" cy="91.91" rx="7.45" ry="7.47" style="fill:none"/></clipPath><clipPath id="74d1720e-d96f-4bf2-a100-20eab02ca22a" transform="translate(-68 -24)"><path d="M88.13,78.41a6.72,6.72,0,1,0-6.72,6.76A6.73,6.73,0,0,0,88.13,78.41Z" style="fill:none;clip-rule:evenodd"/></clipPath><clipPath id="6bc3f04b-c731-4077-9d5e-19fb403f6e6a" transform="translate(-68 -24)"><ellipse cx="79" cy="59.62" rx="6" ry="6.02" style="fill:none"/></clipPath><clipPath id="b8b57cb0-5b4a-4d94-93c7-fdf3a94ea6a2" transform="translate(-68 -24)"><ellipse cx="88.37" cy="42.74" rx="5.05" ry="5.06" style="fill:none"/></clipPath><clipPath id="9252f200-dad3-40cd-86c7-c043e9b78999" transform="translate(-68 -24)"><ellipse cx="103.26" cy="35.27" rx="4.56" ry="4.58" style="fill:none"/></clipPath><clipPath id="ab388c96-af48-4d57-9bf1-7a0775292530" transform="translate(-68 -24)"><ellipse cx="119.12" cy="32.86" rx="3.84" ry="3.86" style="fill:none"/></clipPath><clipPath id="f2fa32e4-7c68-42a9-9a36-3f043853d2d0" transform="translate(-68 -24)"><path d="M188.84,71.29a4.08,4.08,0,0,1-2.42-.69,2.7,2.7,0,0,1-1.08-2.24H180c0-1.66-1.07-4.56-5.08-5.36-3-.66-7.38-1-7.38-2.9,0-1.39,1.94-1.5,3-1.5a3.9,3.9,0,0,1,2.08.5,1.9,1.9,0,0,1,.84,1.73h5.8c.23,5.05,5.42,5.19,9.45,6.22,1.15.27,3.19.58,3.19,2.12S190.11,71.29,188.84,71.29Zm-18.44,0A4.07,4.07,0,0,1,168,70.6a2.7,2.7,0,0,1-1.08-2.24h-5.58a11.52,11.52,0,0,0,.51-3.4,12,12,0,0,0-.12-1.64c1.53,2.65,5.37,2.9,8.58,3.72,1.15.27,3.19.58,3.19,2.12S171.66,71.29,170.4,71.29Zm-19.11-.77c-3,0-4-3-4-5.56s.92-5.6,4-5.6,4,3.06,4,5.6S154.33,70.52,151.29,70.52ZM193.38,63c-3-.66-7.58-1-7.58-2.9,0-1.39,1.74-1.5,2.81-1.5a3.9,3.9,0,0,1,2.08.5,1.9,1.9,0,0,1,.84,1.73h6c-.23-5.21-4.81-6.48-9.18-6.48-3.65,0-8.38,1.14-9,5.17-.9-4.1-5-5.17-9-5.17S161,55.66,161,60.49c0,.08,0,.16,0,.24a10.16,10.16,0,0,0-9.74-6.38,10,10,0,0,0-10,7.26,8.06,8.06,0,0,1,1.48,4.79,10.68,10.68,0,0,1-.67,3.88,10.67,10.67,0,0,0,18.73-.62c.85,4.54,5.28,5.88,9.62,5.88,3.73,0,7.85-1.23,9.15-4.7,1.35,3.6,5.36,4.7,9.29,4.7,4.5,0,9.57-1.77,9.57-7.14C198.46,66.74,197.41,63.81,193.38,63Z" style="fill:none;clip-rule:evenodd"/></clipPath><clipPath id="896885fe-8c12-4450-8e50-9a89e2370e59" transform="translate(-68 -24)"><path d="M199,50.44v-1h.69c.34,0,.72.08.72.49s-.38.54-.81.54Zm0,.43h.58l.88,1.44h.57l-.95-1.47a.86.86,0,0,0,.86-.91c0-.67-.38-1-1.17-1h-1.27v3.33h.5Z" style="fill:none;clip-rule:evenodd"/></clipPath><clipPath id="64c66e47-47e7-43aa-95a9-02b8c9c94938" transform="translate(-68 -24)"><path d="M199.64,48a2.68,2.68,0,1,0,2.67,2.69A2.68,2.68,0,0,0,199.64,48Zm3.25,2.69a3.26,3.26,0,1,1-3.25-3.27A3.26,3.26,0,0,1,202.9,50.66Z" style="fill:none;clip-rule:evenodd"/></clipPath><clipPath id="fe53433f-ab52-4475-9849-b5ebb0be52b2" transform="translate(-68 -24)"><path d="M138.06,93.74a2,2,0,0,0-1.48.84v2.75a2.08,2.08,0,0,0,1.53.86c.92,0,1.42-.7,1.42-2.08C139.52,94.47,139,93.74,138.06,93.74Zm.17,5.63a2.31,2.31,0,0,1-1.64-.75v.61h-1.27V90.82l1.27-.66v3.17a2.47,2.47,0,0,1,1.7-.76c1.4,0,2.51,1,2.51,3.51C140.8,98.32,139.58,99.38,138.23,99.38Z" style="fill:none;clip-rule:evenodd"/></clipPath><clipPath id="f39155c2-b159-4afc-ae98-6ae3260cbf9f" transform="translate(-68 -24)"><path d="M144.67,101.54h-1.35l.94-2.43-2.4-6.42h1.4l1.07,3.2c.2.57.5,1.54.57,1.91.11-.39.39-1.32.58-1.88l1.11-3.23h1.35Z" style="fill:none;clip-rule:evenodd"/></clipPath></defs><title>jboss</title><g id="16861900-2f32-46c2-82a1-f6a8dd8fd622" data-name="Слой 2"><g id="2128bdfe-8ba6-40c0-8ec1-4dc7a0b9d7f1" data-name="Слой 1"><g style="opacity:0.75;isolation:isolate"><g style="clip-path:url(#cb605843-ac96-4d16-94f0-8c83a0f89d0f)"><g style="clip-path:url(#1a21ed72-71f8-45f8-ab2f-d18388096434)"><g style="clip-path:url(#6302efd4-cc58-4728-8179-9e42ca96ddaf)"><rect x="79.84" y="61.52" width="16.6" height="18.72" style="fill:#4b4b4b"/></g></g><g style="clip-path:url(#2aba0556-4f6e-46eb-955a-17b3be2db156)"><g style="clip-path:url(#6302efd4-cc58-4728-8179-9e42ca96ddaf)"><rect x="87.96" y="63.56" width="15.6" height="16.82" style="fill:#4b4b4b"/></g></g><g style="clip-path:url(#090aee07-cad5-4a79-9029-4d67ebc2e23d)"><g style="clip-path:url(#6302efd4-cc58-4728-8179-9e42ca96ddaf)"><rect x="94.86" y="61.15" width="15.48" height="19.22" style="fill:#4b4b4b"/></g></g><g style="clip-path:url(#f5009e1a-26e1-451a-b94f-f1651b2f87bb)"><g style="clip-path:url(#6302efd4-cc58-4728-8179-9e42ca96ddaf)"><rect x="105.76" y="61.52" width="16.6" height="18.72" style="fill:#4b4b4b"/></g></g><g style="clip-path:url(#7cead385-6e2a-44f5-afe9-01962874b425)"><g style="clip-path:url(#6302efd4-cc58-4728-8179-9e42ca96ddaf)"><rect x="114.12" y="63.56" width="15.3" height="16.82" style="fill:#4b4b4b"/></g></g><g style="clip-path:url(#c93e9fb3-e8ef-42fd-8028-08ebaf01f6aa)"><g style="clip-path:url(#6302efd4-cc58-4728-8179-9e42ca96ddaf)"><rect x="120.73" y="61.15" width="13.8" height="19.22" style="fill:#4b4b4b"/></g></g><g style="clip-path:url(#2291a61d-b30e-4014-9fc2-373de5cebdaa)"><g style="clip-path:url(#6302efd4-cc58-4728-8179-9e42ca96ddaf)"><rect x="25.82" y="18.4" width="53.03" height="38.14" style="fill:#4b4b4b"/></g></g><g style="clip-path:url(#981c9b9d-6706-4e3e-b788-7057926585d7)"><g style="clip-path:url(#6302efd4-cc58-4728-8179-9e42ca96ddaf)"><rect x="37.47" y="57.14" width="26.82" height="26.87" style="fill:#4b4b4b"/></g></g><g style="clip-path:url(#437bfb99-955b-4f14-8209-467bc71529b9)"><g style="clip-path:url(#6302efd4-cc58-4728-8179-9e42ca96ddaf)"><rect x="17.06" y="55.44" width="24.89" height="24.95" style="fill:#4b4b4b"/></g></g><g style="clip-path:url(#74d1720e-d96f-4bf2-a100-20eab02ca22a)"><g style="clip-path:url(#6302efd4-cc58-4728-8179-9e42ca96ddaf)"><rect x="1.68" y="42.67" width="23.45" height="23.5" style="fill:#4b4b4b"/></g></g><g style="clip-path:url(#6bc3f04b-c731-4077-9d5e-19fb403f6e6a)"><g style="clip-path:url(#6302efd4-cc58-4728-8179-9e42ca96ddaf)"><rect y="24.6" width="22" height="22.05" style="fill:#4b4b4b"/></g></g><g style="clip-path:url(#b8b57cb0-5b4a-4d94-93c7-fdf3a94ea6a2)"><g style="clip-path:url(#6302efd4-cc58-4728-8179-9e42ca96ddaf)"><rect x="10.33" y="8.68" width="20.09" height="20.12" style="fill:#4b4b4b"/></g></g><g style="clip-path:url(#9252f200-dad3-40cd-86c7-c043e9b78999)"><g style="clip-path:url(#6302efd4-cc58-4728-8179-9e42ca96ddaf)"><rect x="25.7" y="1.69" width="19.12" height="19.16" style="fill:#4b4b4b"/></g></g><g style="clip-path:url(#ab388c96-af48-4d57-9bf1-7a0775292530)"><g style="clip-path:url(#6302efd4-cc58-4728-8179-9e42ca96ddaf)"><rect x="42.27" width="17.69" height="17.72" style="fill:#4b4b4b"/></g></g><g style="clip-path:url(#f2fa32e4-7c68-42a9-9a36-3f043853d2d0)"><g style="clip-path:url(#6302efd4-cc58-4728-8179-9e42ca96ddaf)"><rect x="68.28" y="25.35" width="67.17" height="31.19" style="fill:#4b4b4b"/></g></g><g style="clip-path:url(#896885fe-8c12-4450-8e50-9a89e2370e59)"><g style="clip-path:url(#6302efd4-cc58-4728-8179-9e42ca96ddaf)"><rect x="125.54" y="19.98" width="12.53" height="13.33" style="fill:#4b4b4b"/></g></g><g style="clip-path:url(#64c66e47-47e7-43aa-95a9-02b8c9c94938)"><g style="clip-path:url(#6302efd4-cc58-4728-8179-9e42ca96ddaf)"><rect x="123.38" y="18.39" width="16.51" height="16.53" style="fill:#4b4b4b"/></g></g><g style="clip-path:url(#fe53433f-ab52-4475-9849-b5ebb0be52b2)"><g style="clip-path:url(#6302efd4-cc58-4728-8179-9e42ca96ddaf)"><rect x="62.32" y="61.15" width="15.48" height="19.22" style="fill:#4b4b4b"/></g></g><g style="clip-path:url(#f39155c2-b159-4afc-ae98-6ae3260cbf9f)"><g style="clip-path:url(#6302efd4-cc58-4728-8179-9e42ca96ddaf)"><rect x="68.87" y="63.7" width="16.08" height="18.85" style="fill:#4b4b4b"/></g></g></g></g></g></g></svg>