<svg xmlns="http://www.w3.org/2000/svg" xmlns:xlink="http://www.w3.org/1999/xlink" width="209.93" height="65.9" viewBox="0 0 209.93 65.9"><defs><clipPath id="5793a5f2-8737-4466-88db-a36490615740" transform="translate(-33 -34.08)"><rect x="37" y="38" width="201" height="57" style="fill:none"/></clipPath><clipPath id="2cdf6f8e-90ee-4f62-82c2-2798290e1b0f" transform="translate(-33 -34.08)"><path d="M209.69,62.53a13.29,13.29,0,0,0-8.77-2.8c-4.28,0-5.89.11-8.16.11-1.26,0-3.88-.11-4.56-.11-.18.21-.83,1.33-.68,1.58,1,.11,1.73.25,2.26.36,1.08.22,1.62.54,1.72,1.8.07,1.51,0,6.22,0,8.62,0,3.38,0,6.36-.07,8.84-.11,1.33-.25,1.72-1,2a5.73,5.73,0,0,1-1.65.32c-.29,0-.75,1.29-.57,1.62h0c3.49,0,7.69.11,10.13.11,4.6,0,7.83-1.08,10.31-2.91s5-4.92,5-10.35a11.65,11.65,0,0,0-4-9.2M206.17,81a8,8,0,0,1-5.75,2,7.25,7.25,0,0,1-4.06-1h0a2.23,2.23,0,0,1-.79-1.73c-.07-.54-.07-5.21-.07-8.55s0-8.77.07-9.49a1.05,1.05,0,0,1,.36-.57,5.38,5.38,0,0,1,2-.25,12.71,12.71,0,0,1,6.76,1.58c3.16,1.94,4.71,5.25,4.71,9.31,0,4.24-1.33,6.9-3.23,8.62" style="fill:none;clip-rule:evenodd"/></clipPath><clipPath id="1548a4a3-d883-487a-861a-22a75a3327b5" transform="translate(-33 -34.08)"><rect width="276" height="133" style="fill:none"/></clipPath><clipPath id="88dd529e-7c39-4f92-b84f-49f1f779b0b3" transform="translate(-33 -34.08)"><path d="M232.25,70.73c-.11,0-.11-.11,0-.14a5.63,5.63,0,0,0,3.74-5c0-4.67-4.31-5.78-7.44-5.78-2.55,0-4.64.07-7.26.07s-3.85-.11-4.2-.11-.83,1.37-.65,1.54c.83.11,1.83.25,2.44.36.79.22,1.19.58,1.22,1.69,0,1.44,0,4.38,0,8.73,0,3.16,0,7.62-.07,8.88-.14,1.47-.25,1.76-1.22,2a6.68,6.68,0,0,1-1.83.29c-.25.21-.79,1.51-.5,1.62,2.73-.07,7.65.14,9.49.14a17.19,17.19,0,0,0,6.68-1.11c3.13-1.37,5.28-3.56,5.28-7s-2.66-5.39-5.68-6.14m-8.19-8.37c0-.22.18-.61.36-.65a5.78,5.78,0,0,1,1.51-.07c3.63,0,6.07,1.33,6.07,4.82A3.82,3.82,0,0,1,230.1,70a7.7,7.7,0,0,1-2.95.43c-1.11,0-2.41,0-2.95-.07a.27.27,0,0,1-.21-.22c0-2.59,0-6.4.07-7.83m9.63,15.42c0,3.7-2.48,5.28-5.32,5.28a8.23,8.23,0,0,1-3.13-.43,2.71,2.71,0,0,1-1.19-1.94C224,79.1,224,75,224,72.49c0-.11.14-.18.25-.22.36-.07,1.87,0,2.08,0,4.74,0,7.37,2,7.37,5.53" style="fill:none;clip-rule:evenodd"/></clipPath><clipPath id="0a0f4fae-7b03-49fb-af4c-c5a8ddd89e61" transform="translate(-33 -34.08)"><path d="M113.17,68.17a10.81,10.81,0,0,0-5.5,1.62,7.78,7.78,0,0,0-3.56,6.83c0,4.2,2.19,8.7,8.3,8.7a9.74,9.74,0,0,0,4.92-1.54,8.34,8.34,0,0,0,3.77-7.44c0-4.81-3.27-8.16-7.94-8.16m2.77,14.55a3.66,3.66,0,0,1-2.48.86c-3.38,0-5.75-3.31-5.75-8,0-2.52.72-4.24,2.12-5.1a3.33,3.33,0,0,1,1.94-.54c3.45,0,5.75,3.13,5.75,7.8,0,2.41-.54,4.13-1.58,5" style="fill:none;clip-rule:evenodd"/></clipPath><clipPath id="d42475d6-9ae9-4e4e-b727-35629da024de" transform="translate(-33 -34.08)"><path d="M176.56,68.17a10.81,10.81,0,0,0-5.5,1.62,7.78,7.78,0,0,0-3.56,6.83c0,4.2,2.19,8.7,8.3,8.7a10,10,0,0,0,4.92-1.54,8.34,8.34,0,0,0,3.77-7.44c0-4.81-3.27-8.16-7.94-8.16m2.77,14.55a3.65,3.65,0,0,1-2.48.86c-3.38,0-5.75-3.31-5.75-8,0-2.52.72-4.24,2.12-5.1a3.33,3.33,0,0,1,1.94-.54c3.41,0,5.75,3.13,5.75,7.8,0,2.41-.54,4.13-1.58,5" style="fill:none;clip-rule:evenodd"/></clipPath><clipPath id="e855fa42-b9c8-463e-b014-053b990dd90b" transform="translate(-33 -34.08)"><path d="M101.46,83.7a7.69,7.69,0,0,1-2.08-.5,1.13,1.13,0,0,1-.65-.86c0-.83,0-2,0-3.23s0-2.95,0-4.13c0-4.2-2-6.68-5.32-6.68-1.4,0-3.52,1-5.64,2.59a.26.26,0,0,1-.21.11.27.27,0,0,1-.25-.14,4.65,4.65,0,0,0-4.17-2.55,10.13,10.13,0,0,0-5.46,2.44.5.5,0,0,1-.22.07.28.28,0,0,1-.29-.25c0-.47,0-.94.07-1.33l0-.4a.89.89,0,0,0-.18-.57,26.31,26.31,0,0,1-5.5,1.4c-.47.07-.68.32-.68.54s.18.4.5.5a8.11,8.11,0,0,1,2.16.93,1.09,1.09,0,0,1,.4,1v.07c0,2.84,0,6.94-.07,9.09,0,.9-.32,1.29-1,1.47a13.3,13.3,0,0,1-1.58.32,1.21,1.21,0,0,0-.11.54,1.54,1.54,0,0,0,.11.83,8.6,8.6,0,0,1,1.33.07c.72,0,1.62-.07,2.87-.07,1.08,0,2,0,2.8.07.5,0,.93,0,1.29,0a3,3,0,0,0,.11-1.37l-.65-.11a7.31,7.31,0,0,1-.83-.14,1.11,1.11,0,0,1-1-1.11c0-1.4,0-4.64,0-7.22V73a1.16,1.16,0,0,1,.32-.83,6.59,6.59,0,0,1,3.66-1.4c1.91,0,3.09,1,3.52,3.13a62.24,62.24,0,0,1,0,8.23c0,.79-.25,1.11-.86,1.29l-1.15.22a2.44,2.44,0,0,0-.5.07,1.12,1.12,0,0,0-.14.65,1.9,1.9,0,0,0,.11.72c.36,0,1,0,1.62,0s1.72,0,2.26,0c1.83,0,3.09,0,4.31.07a.68.68,0,0,0,.14-.36,1.94,1.94,0,0,0,0-1l-1.15-.25-.54-.11a1.05,1.05,0,0,1-.86-1.11c0-1.15,0-2.66,0-4.27V75.61a16.55,16.55,0,0,0-.14-2.95v0a.64.64,0,0,1,.14-.36,6.37,6.37,0,0,1,3.67-1.4A3.54,3.54,0,0,1,95.39,74c.22,1.4.07,7.22.07,7.9,0,.93-.21,1.26-.93,1.47a11.38,11.38,0,0,1-1.37.32,3.5,3.5,0,0,0,0,1.37C94.27,85,95.42,85,97.65,85q1.37,0,2.73.07c.36,0,.68,0,.9,0a2.87,2.87,0,0,0,.21-1.37Z" style="fill:none;clip-rule:evenodd"/></clipPath><clipPath id="8d6cfc0d-deef-40fb-bdf4-ae355894b3dc" transform="translate(-33 -34.08)"><path d="M144.72,83.48a7.24,7.24,0,0,1-2.34-.61,1.1,1.1,0,0,1-.29-.58C142,81,142,77.44,142,75a8.48,8.48,0,0,0-1.15-4.81,4.91,4.91,0,0,0-4.17-2.16c-1.58,0-3.7,1.08-5.46,2.59,0,0-.32.29-.29-.11s.07-1.19.11-1.73a.94.94,0,0,0-.25-.75,23.94,23.94,0,0,1-5.57,1.44c-.86.18-1.08,1-.18,1.29h0a8,8,0,0,1,2.12.94,1.12,1.12,0,0,1,.32,1c0,2.69,0,6.83-.07,9.09,0,.9-.29,1.22-.93,1.36l.07,0a14.11,14.11,0,0,1-1.51.29,2.1,2.1,0,0,0,0,1.62c.4,0,2.48-.11,4.2-.11,2.37,0,3.59.11,4.2.11a2.34,2.34,0,0,0,.18-1.62,6.65,6.65,0,0,1-1.65-.25c-.65-.14-.83-.47-.86-1.22-.07-1.91-.07-5.93-.07-8.66a1.73,1.73,0,0,1,.43-1.33,5.43,5.43,0,0,1,3.34-1.22,3.72,3.72,0,0,1,2.48.83,3.53,3.53,0,0,1,1.15,2.26c.18,1.54.11,4.6.11,7.26,0,1.44-.11,1.8-.65,2a6.82,6.82,0,0,1-1.65.32,2.11,2.11,0,0,0,0,1.62c1,0,2.26-.11,4.06-.11,2.23,0,3.67.11,4.24.11a2.51,2.51,0,0,0,.11-1.55" style="fill:none;clip-rule:evenodd"/></clipPath><clipPath id="7e26bbf6-acc8-4807-ad63-e405308eaf96" transform="translate(-33 -34.08)"><path d="M161.68,71.44a8,8,0,0,0,.93.14h.18a2,2,0,0,0,1.58-.68,2.71,2.71,0,0,0,.47-1.65,2,2,0,0,0-.14-.72,3.11,3.11,0,0,1-2.52.93,6.64,6.64,0,0,1-2.34-.36,11,11,0,0,0-4-.86h-.11A10.56,10.56,0,0,0,150.61,70a5.45,5.45,0,0,0-2.3,4.53c0,2.8,1.26,4.67,3.77,5.5a.24.24,0,0,1,.14.18.26.26,0,0,1-.07.22,14.66,14.66,0,0,1-1.65,1.08c-.39.25-.75.47-1,.65s-.25.43-.22.65v.07a3.42,3.42,0,0,0,2.33,2.26.24.24,0,0,1,.14.18c0,.07,0,.11-.11.14a19,19,0,0,0-3.31,2.66,2.75,2.75,0,0,0-.72,1.8,4.74,4.74,0,0,0,1.9,3.56A8,8,0,0,0,154.68,95a11.56,11.56,0,0,0,4.78-1c3.16-1.54,5.07-4,5.07-6.68a4,4,0,0,0-2.69-3.84,31.5,31.5,0,0,0-5.79-.72c-.36,0-.68,0-1-.07-1.55-.11-1.87-.76-1.87-1.29s.72-1,1-1h0s.29,0,.47,0a4.48,4.48,0,0,1,.5,0,8.27,8.27,0,0,0,4.2-1.62,5.82,5.82,0,0,0,2.44-5.21,13.24,13.24,0,0,0-.22-1.54l0-.07c0-.11-.07-.18,0-.25Zm-7.26,14.19h0a14.52,14.52,0,0,1,5,.65,2.75,2.75,0,0,1,2.08,2.77c0,1.94-1.62,3.92-5.28,3.92a6.39,6.39,0,0,1-4.31-1.33,3.18,3.18,0,0,1-1.26-2.59c0-1.11.68-2,2.19-3A3.09,3.09,0,0,1,154.42,85.64Zm3-7.8a2.78,2.78,0,0,1-1.87.72c-2.95,0-4-2.7-4-5s1.19-3.77,3.09-3.77c2.44,0,3.92,1.8,3.92,4.78A4.76,4.76,0,0,1,157.44,77.84Z" style="fill:none;clip-rule:evenodd"/></clipPath><clipPath id="e0b05fb9-60a1-4fc9-8d7e-4703a6898894" transform="translate(-33 -34.08)"><path d="M52.62,40l-.06-.1,0,0a.79.79,0,0,0-1.36.12s0-.07,0-.1a.82.82,0,0,0-1.45-.52h0A30.33,30.33,0,0,0,38,62.38c-.63,12.79,8.33,20.47,10.52,22.15a.43.43,0,0,0,.67-.22c.82-2.78,1.9-11.36,1.6-20.82-.07-1.85-.07-20.73.37-20.73s1.11,29.71,1.11,29.71S51.2,83.4,54,84.73h0s12.9-8.48,9.88-26.12C61,45.91,53.51,41.66,52.62,40" style="fill:none;clip-rule:evenodd"/></clipPath><clipPath id="59b22097-5fd1-430b-858a-72f711aa22cc" transform="translate(-33 -34.08)"><path d="M53.24,86.32c-.85-.4-1.35-1.65-1.62-3.22a.33.33,0,0,0-.66,0,17.06,17.06,0,0,1-.74,3.67l-.16-.11c1,2.37.91,6.4.91,6.4l1.47.5a27.75,27.75,0,0,1,.14-5.82,3.57,3.57,0,0,1,.76-1.51l-.11.08Z" style="fill:none;clip-rule:evenodd"/></clipPath></defs><title>mongodb</title><g id="2376a9aa-6172-4776-9051-4a207ea09e43" data-name="Слой 2"><g id="ba73ffb8-e55a-4060-b0c4-87373a709331" data-name="Слой 1"><g style="opacity:0.75;isolation:isolate"><g style="clip-path:url(#5793a5f2-8737-4466-88db-a36490615740)"><g style="clip-path:url(#2cdf6f8e-90ee-4f62-82c2-2798290e1b0f)"><g style="clip-path:url(#1548a4a3-d883-487a-861a-22a75a3327b5)"><rect x="149.5" y="20.65" width="36.18" height="35.26" style="fill:#4b4b4b"/></g></g><g style="clip-path:url(#88dd529e-7c39-4f92-b84f-49f1f779b0b3)"><g style="clip-path:url(#1548a4a3-d883-487a-861a-22a75a3327b5)"><rect x="178.4" y="20.65" width="31.53" height="35.26" style="fill:#4b4b4b"/></g></g><g style="clip-path:url(#0a0f4fae-7b03-49fb-af4c-c5a8ddd89e61)"><g style="clip-path:url(#1548a4a3-d883-487a-861a-22a75a3327b5)"><rect x="66.12" y="29.09" width="27" height="27.14" style="fill:#4b4b4b"/></g></g><g style="clip-path:url(#d42475d6-9ae9-4e4e-b727-35629da024de)"><g style="clip-path:url(#1548a4a3-d883-487a-861a-22a75a3327b5)"><rect x="129.5" y="29.09" width="27" height="27.14" style="fill:#4b4b4b"/></g></g><g style="clip-path:url(#e855fa42-b9c8-463e-b014-053b990dd90b)"><g style="clip-path:url(#1548a4a3-d883-487a-861a-22a75a3327b5)"><rect x="32.98" y="29.17" width="40.53" height="26.82" style="fill:#4b4b4b"/></g></g><g style="clip-path:url(#8d6cfc0d-deef-40fb-bdf4-ae355894b3dc)"><g style="clip-path:url(#1548a4a3-d883-487a-861a-22a75a3327b5)"><rect x="86.49" y="28.99" width="30.31" height="27" style="fill:#4b4b4b"/></g></g><g style="clip-path:url(#7e26bbf6-acc8-4807-ad63-e405308eaf96)"><g style="clip-path:url(#1548a4a3-d883-487a-861a-22a75a3327b5)"><rect x="109.63" y="29.17" width="27.22" height="36.73" style="fill:#4b4b4b"/></g></g><g style="clip-path:url(#e0b05fb9-60a1-4fc9-8d7e-4703a6898894)"><g style="clip-path:url(#1548a4a3-d883-487a-861a-22a75a3327b5)"><rect width="36.38" height="55.65" style="fill:#4b4b4b"/></g></g><g style="clip-path:url(#59b22097-5fd1-430b-858a-72f711aa22cc)"><g style="clip-path:url(#1548a4a3-d883-487a-861a-22a75a3327b5)"><rect x="12.06" y="43.75" width="13.29" height="20.75" style="fill:#4b4b4b"/></g></g></g></g></g></g></svg>