<svg xmlns="http://www.w3.org/2000/svg" xmlns:xlink="http://www.w3.org/1999/xlink" width="158.94" height="87.33" viewBox="0 0 158.94 87.33"><defs><clipPath id="adfce64d-5060-44c4-82ee-c65a403c91b1" transform="translate(-58.43 -23.07)"><rect x="63" y="26" width="150" height="80" style="fill:none"/></clipPath><clipPath id="e1d4db94-dea7-4c05-a5d4-30517e266f95" transform="translate(-58.43 -23.07)"><path d="M208,70.28a17.5,17.5,0,0,0-7.34,1.06c-.57.23-1.47.23-1.55.94.3.3.34.79.6,1.21a8.84,8.84,0,0,0,2,2.3c.79.61,1.59,1.21,2.42,1.74,1.47.91,3.14,1.44,4.57,2.34.83.53,1.66,1.21,2.5,1.78.42.3.68.79,1.21,1v-.11c-.26-.34-.34-.83-.6-1.21s-.76-.72-1.14-1.1a17.88,17.88,0,0,0-3.93-3.82c-1.21-.83-3.86-2-4.35-3.36l-.07-.08a15.38,15.38,0,0,0,2.61-.61c1.29-.34,2.46-.26,3.78-.6.61-.15,1.21-.34,1.82-.53v-.34c-.68-.68-1.17-1.59-1.89-2.23A50.34,50.34,0,0,0,202.34,64c-1.17-.76-2.68-1.25-3.93-1.89-.46-.23-1.21-.34-1.47-.72a15.17,15.17,0,0,1-1.55-2.91c-1.1-2.08-2.16-4.39-3.1-6.58a40.56,40.56,0,0,0-1.93-4.31c-3.89-6.43-8.13-10.32-14.63-14.14a18.11,18.11,0,0,0-4.84-1.55c-.94,0-1.89-.11-2.84-.15a14.94,14.94,0,0,1-1.74-1.32c-2.16-1.36-7.71-4.31-9.3-.42-1,2.46,1.51,4.88,2.38,6.13A17.82,17.82,0,0,1,161.32,39c.26.64.34,1.32.6,2a45.28,45.28,0,0,0,2,5.07,18.22,18.22,0,0,0,1.4,2.35c.3.42.83.6.94,1.28a10.81,10.81,0,0,0-.87,2.84c-1.36,4.27-.83,9.57,1.1,12.7.61.95,2,3,4,2.23,1.7-.68,1.32-2.83,1.81-4.73.11-.45,0-.76.26-1.06v.07c.53,1.06,1.06,2.08,1.55,3.14A21.57,21.57,0,0,0,179,69.94c.91.68,1.63,1.85,2.76,2.27v-.12h-.07a4.26,4.26,0,0,0-.87-.76,18.35,18.35,0,0,1-2-2.27,48.7,48.7,0,0,1-4.23-6.88C174,61,173.46,59.73,173,58.56c-.23-.45-.23-1.14-.61-1.36a14.31,14.31,0,0,0-1.82,2.57,21.28,21.28,0,0,0-1.06,5.71c-.15,0-.08,0-.15.08-1.21-.3-1.63-1.55-2.08-2.61a16.36,16.36,0,0,1-.34-10.1c.26-.79,1.4-3.29.95-4-.23-.72-1-1.13-1.4-1.7a15.3,15.3,0,0,1-1.36-2.42c-.91-2.12-1.36-4.46-2.34-6.58a20.23,20.23,0,0,0-1.89-2.91,18.78,18.78,0,0,1-2.08-2.95c-.19-.42-.45-1.1-.15-1.55a.6.6,0,0,1,.53-.49c.49-.42,1.89.11,2.38.34a19.34,19.34,0,0,1,3.74,1.89c.53.38,1.1,1.1,1.78,1.29h.79c1.21.27,2.57.08,3.7.42A24.21,24.21,0,0,1,177,36.74a33.54,33.54,0,0,1,11.8,12.93c.45.87.64,1.66,1.06,2.57.79,1.85,1.78,3.74,2.57,5.56a24.93,24.93,0,0,0,2.68,5.07c.57.79,2.84,1.21,3.86,1.63a27,27,0,0,1,2.61,1.06c1.28.79,2.57,1.7,3.78,2.57C206,68.58,207.87,69.52,208,70.28ZM101.73,82.68h5v10.7c0,.6.19,2,2.87,2,1.4,0,10.66,0,10.74,0V82.6h5v17.51c0,4.31-5.33,5.25-7.83,5.29H101.84v-3.29h15.62c3.18-.34,2.8-1.93,2.8-2.46V98.37H109.78c-4.88,0-8-2.19-8.05-4.65C101.73,93.49,101.84,82.75,101.73,82.68ZM63.43,98.52h4.92V79L76,96c.87,2,2.12,2.8,4.54,2.8s3.59-.76,4.5-2.8l7.64-17V98.52h5V79a3,3,0,0,0-2.35-3.29c-3.74-1.13-6.24-.15-7.37,2.38L80.41,94.93,73.15,78.14c-1.1-2.53-3.63-3.52-7.41-2.38A3,3,0,0,0,63.43,79V98.52Z" style="fill:none;clip-rule:evenodd"/></clipPath><clipPath id="8992c571-95ff-43e2-9ca7-bb277baab685" transform="translate(-58.43 -23.07)"><rect width="276" height="133" style="fill:none"/></clipPath><clipPath id="e3a39a17-d515-483f-bbd2-f0f2fdaa3ab7" transform="translate(-58.43 -23.07)"><path d="M169.41,37.42a6,6,0,0,0-1.55.19v.08h.07a12.13,12.13,0,0,0,1.21,1.55c.3.6.57,1.21.87,1.81l.07-.07a2.13,2.13,0,0,0,.79-1.89,8.31,8.31,0,0,1-.45-.79C170.21,37.91,169.72,37.72,169.41,37.42Z" style="fill:none;clip-rule:evenodd"/></clipPath><clipPath id="b6a23b85-842e-4f6f-bf01-44d9f43ad327" transform="translate(-58.43 -23.07)"><path d="M211.38,98.56h.68V95.23h-1l-.83,2.27-.91-2.27h-1v3.33H209V96h0l.95,2.53h.49l.94-2.53v2.53Zm-5.48,0h.72V95.8h.94v-.57h-2.65v.57h1ZM159.43,92.7a3,3,0,0,0,.11.49c.26,1.36,1.55,2.12,3.52,2.12h4.46l-4.08-3.71h5.71l3.59,3.25A2.36,2.36,0,0,0,174,93.27a2.13,2.13,0,0,0,0-.49V81.54a1.83,1.83,0,0,0,0-.45c-.26-1.28-1.55-2-3.48-2h-7.45c-2.19,0-3.63.95-3.63,2.46ZM154.1,93V81.24c0-3,2.12-4.8,6.24-5.37.45,0,.91-.08,1.32-.08H171c.49,0,.91,0,1.4.08,4.12.57,6.2,2.38,6.2,5.37V93c0,2.42-.87,3.71-2.91,4.58l4.84,4.38h-5.71l-3.93-3.55-4,.23h-5.29a11.56,11.56,0,0,1-2.87-.38C155.65,97.35,154.1,95.69,154.1,93Zm27.64-.15c0,3.37,2.53,5.25,7.6,5.63.49,0,.94.07,1.44.07h12.86V95.23h-13c-2.88,0-4-.72-4-2.46v-17h-5V92.81ZM129,98.52h14.22a10.79,10.79,0,0,0,4.54-.94c2.16-1,3.18-2.31,3.18-4V89.9c0-1.4-1.17-2.72-3.52-3.63a12.39,12.39,0,0,0-4.2-.72h-6c-2,0-2.95-.61-3.21-1.93a1.85,1.85,0,0,1,0-.45V80.94a1.71,1.71,0,0,1,0-.42c.26-1,.79-1.29,2.53-1.47h14.56V75.76H137.31a12.81,12.81,0,0,0-4,.42c-2.91.91-4.2,2.34-4.2,4.88v2.88c0,2.23,2.5,4.12,6.73,4.57.45,0,.94,0,1.44,0h5.11a2.29,2.29,0,0,1,.53,0c1.55.15,2.23.42,2.68,1a1.15,1.15,0,0,1,.38.91v2.87a1.68,1.68,0,0,1-.68,1.17,3.53,3.53,0,0,1-2.12.68c-.19,0-.3,0-.49,0H129Z" style="fill:none;clip-rule:evenodd"/></clipPath></defs><title>mysql</title><g id="dcbf52b6-73e7-49a0-9707-a0ca093355de" data-name="Слой 2"><g id="819bdec7-74c0-4de3-b312-6026473c27ee" data-name="Слой 1"><g style="opacity:0.75;isolation:isolate"><g style="clip-path:url(#adfce64d-5060-44c4-82ee-c65a403c91b1)"><g style="clip-path:url(#e1d4db94-dea7-4c05-a5d4-30517e266f95)"><g style="clip-path:url(#8992c571-95ff-43e2-9ca7-bb277baab685)"><rect width="158.94" height="87.33" style="fill:#4b4b4b"/></g></g><g style="clip-path:url(#e3a39a17-d515-483f-bbd2-f0f2fdaa3ab7)"><g style="clip-path:url(#8992c571-95ff-43e2-9ca7-bb277baab685)"><rect x="104.44" y="9.35" width="13.02" height="13.63" style="fill:#4b4b4b"/></g></g><g style="clip-path:url(#b6a23b85-842e-4f6f-bf01-44d9f43ad327)"><g style="clip-path:url(#8992c571-95ff-43e2-9ca7-bb277baab685)"><rect x="65.6" y="47.69" width="93.03" height="36.17" style="fill:#4b4b4b"/></g></g></g></g></g></g></svg>