<svg xmlns="http://www.w3.org/2000/svg" xmlns:xlink="http://www.w3.org/1999/xlink" width="189.47" height="32.51" viewBox="0 0 189.47 32.51"><defs><clipPath id="b5edefa4-acb9-4276-a8ae-42ffc4464e87" transform="translate(-43 -50.54)"><rect x="48" y="55" width="180" height="24" style="fill:none"/></clipPath><clipPath id="8d749f1c-4ab6-4f2a-a86f-137cef2907c2" transform="translate(-43 -50.54)"><path d="M205.6,74.12a7.22,7.22,0,0,1-6.94-5.24H217l2.52-3.93H198.66a7.22,7.22,0,0,1,6.94-5.26h12.57l2.53-3.93H205.31a11.14,11.14,0,0,0,0,22.29h13.22L221,74.12ZM153.18,78a11.14,11.14,0,1,1,0-22.29h15.39l-2.52,3.93H153.47a7.22,7.22,0,1,0,0,14.43h15.45L166.41,78ZM71.81,74.12a7.21,7.21,0,0,0,0-14.43H59.43a7.22,7.22,0,0,0,0,14.43ZM59.14,78a11.14,11.14,0,1,1,0-22.29h13a11.14,11.14,0,0,1,0,22.29Zm45.12-7.21a7.54,7.54,0,0,0,0-15.07H85.51V78H89.8V59.69H104a3.61,3.61,0,0,1,0,7.22H91.9L104.68,78h6.23l-8.6-7.22Zm70.89,3.28V55.76h-4.29V75.91a2.1,2.1,0,0,0,.62,1.49,2.22,2.22,0,0,0,1.57.65h19.54l2.52-3.93ZM122.7,70.18h11.43l-6-9.74L117,78H112l13.5-21.13a3.22,3.22,0,0,1,5.25,0L144.24,78h-5.06l-2.37-3.94H125.23Z" style="fill:none;clip-rule:evenodd"/></clipPath><clipPath id="bd418d5a-a4be-4f5f-bbd2-0a93eb11b44d" transform="translate(-43 -50.54)"><rect width="276" height="133" style="fill:none"/></clipPath><clipPath id="ea16215d-c9a7-4a15-980e-018d1c74bd7e" transform="translate(-43 -50.54)"><path d="M224.92,57.92a.53.53,0,0,0,.47-.18.42.42,0,0,0,.06-.24.37.37,0,0,0-.21-.34,1.44,1.44,0,0,0-.52,0h-.16v.81Zm-.2-1.27a2,2,0,0,1,.73.07.8.8,0,0,1,.54.79,1.08,1.08,0,0,1,0,.23.77.77,0,0,1-.35.48.4.4,0,0,1-.13.07l.65,1.17h-.63L225,58.39h-.38v1.07H224V56.65Zm.24,4a2.51,2.51,0,1,0-2.5-2.5A2.51,2.51,0,0,0,225,60.64Zm-2-2.51a2,2,0,1,1,2,2A2,2,0,0,1,223,58.13Z" style="fill:none;clip-rule:evenodd"/></clipPath></defs><title>oracle</title><g id="a8c61db8-f715-45b9-8a47-a12f3c8739c1" data-name="Слой 2"><g id="a113851d-334d-4ade-9a54-c52cafa03095" data-name="Слой 1"><g style="opacity:0.7547000050544739;isolation:isolate"><g style="clip-path:url(#b5edefa4-acb9-4276-a8ae-42ffc4464e87)"><g style="clip-path:url(#8d749f1c-4ab6-4f2a-a86f-137cef2907c2)"><g style="clip-path:url(#bd418d5a-a4be-4f5f-bbd2-0a93eb11b44d)"><rect width="183.05" height="32.51" style="fill:#4b4b4b"/></g></g><g style="clip-path:url(#ea16215d-c9a7-4a15-980e-018d1c74bd7e)"><g style="clip-path:url(#bd418d5a-a4be-4f5f-bbd2-0a93eb11b44d)"><rect x="174.46" y="0.1" width="15.01" height="15.01" style="fill:#4b4b4b"/></g></g></g></g></g></g></svg>