<svg xmlns="http://www.w3.org/2000/svg" xmlns:xlink="http://www.w3.org/1999/xlink" width="199.98" height="81.8" viewBox="0 0 199.98 81.8"><defs><clipPath id="2b26fe5c-1d67-4619-9600-0f93f8e009ac" transform="translate(-38 -25.03)"><rect x="42" y="29" width="191" height="73" style="fill:none"/></clipPath><clipPath id="c92a8d4d-a001-471e-b088-8a08e073b690" transform="translate(-38 -25.03)"><path d="M99.4,74.29l-.28-.21-.43.13c-.93.26-1.81.51-1.7,2.86.24.2,1.29.52,3.33.43a14.7,14.7,0,0,0,5-1,11.15,11.15,0,0,0,2.87-1.85h0C104,75.49,101,75.38,99.4,74.29Z" style="fill:none;clip-rule:evenodd"/></clipPath><clipPath id="ae8a8cfa-8132-4091-ae6d-5272e3f14183" transform="translate(-38 -25.03)"><rect width="276" height="133" style="fill:none"/></clipPath><clipPath id="80ae9315-41c6-477f-82b5-2bc53f69ec0d" transform="translate(-38 -25.03)"><path d="M112.64,73a3.54,3.54,0,0,0-2.94-2.36,6.77,6.77,0,0,0-2.35.13,21.15,21.15,0,0,1-3.62.47,69.44,69.44,0,0,0,7.38-17.51c2.45-9.46,1.14-13.77-.39-15.72-4-5.16-10-7.93-17.08-8a30.37,30.37,0,0,0-8.88,1.24,33.25,33.25,0,0,0-5.19-.47,16.92,16.92,0,0,0-9,2.22,41.29,41.29,0,0,0-6.39-1.6c-6.25-1-11.28-.23-15,2.37C44.73,36.93,42.66,42.39,43,50a93,93,0,0,0,3.62,16.77,57.81,57.81,0,0,0,3.89,9.91c1.92,3.63,4,5.77,6.29,6.54A6.19,6.19,0,0,0,63,81.89,5.33,5.33,0,0,0,64.24,83a8.58,8.58,0,0,0,2.43,1,13.06,13.06,0,0,0,8.48-.5c0,.44,0,.86,0,1.22,0,.59,0,1.17.05,1.71.15,3.65.4,6.48,1.13,8.47,0,.11.09.28.15.45a10.19,10.19,0,0,0,2.55,4.48,7.61,7.61,0,0,0,5.37,2,12.09,12.09,0,0,0,2.51-.28c2.68-.57,5.73-1.45,7.94-4.58C97,94,98,89.55,98.18,82.52l.07-.57,0-.37.49,0h.13a19.49,19.49,0,0,0,8.13-1.4C108.67,79.47,113.87,76.73,112.64,73Zm-6.5,5.26a17,17,0,0,1-6.48,1.23,9.94,9.94,0,0,1-2.85-.35c-.37,3.37-1.15,9.65-1.6,12.28-.85,4.92-3,7.15-8.11,8.24a11.3,11.3,0,0,1-2.36.27c-4.85,0-6.39-3.83-7-5.4-.77-1.92-1-8.2-1-14.58a9.36,9.36,0,0,1-6.43,2.39A13.25,13.25,0,0,1,67.1,82c-.32-.08-3.13-.83-3.09-2.62,0-1.64,2.38-2.12,3.26-2.3,3.1-.64,3.3-.89,4.26-2.11q.34-.44.7-.86V74a8.94,8.94,0,0,1-4-1.07q-2.86,3-5.54,6.25a5.27,5.27,0,0,1-4,2.27,4,4,0,0,1-1.26-.21c-3.15-1-6.14-6.13-8.89-15.12A90.81,90.81,0,0,1,45,49.81c-.35-6.89,1.44-11.77,5.3-14.5,3.24-2.29,7.77-3,13.48-2.06a38.8,38.8,0,0,1,7,1.84,14.64,14.64,0,0,1,8.67-2.38,22.46,22.46,0,0,1,5.06.65,26.73,26.73,0,0,1,9-1.41c6.51.07,11.89,2.57,15.55,7.24.91,1.16,1.35,3.05,1.31,5.63a36.77,36.77,0,0,1-1.29,8.34,67.43,67.43,0,0,1-8.67,19.4c.58.42,2.34,1.13,7.26.11,1.66-.34,2.66,0,3,.89C111.27,75.37,108,77.45,106.14,78.3Z" style="fill:none;clip-rule:evenodd"/></clipPath><clipPath id="21b27dd9-7f37-4cbe-93b9-17b96880ee5a" transform="translate(-38 -25.03)"><path d="M73.39,69.12l.15-.4c.19-.52.42-1,.66-1.55,1.16-2.57,2.6-5.76.94-13.42a3,3,0,0,0-2.36-2.63c-2.78-.63-6.67,1.45-7.51,2.19,0,.17,0,.38,0,.62a42.71,42.71,0,0,1-.22,8.67,8.45,8.45,0,0,0,2.22,7.09A7.18,7.18,0,0,0,72.44,72a26.09,26.09,0,0,1,.95-2.84M70.77,53.63a1.23,1.23,0,0,1-.3-.81.63.63,0,0,1,.26-.42,2.54,2.54,0,0,1,1.73-.25h0c.9.12,1.83.55,1.74,1.19a1.86,1.86,0,0,1-1.77,1.2l-.23,0a2.26,2.26,0,0,1-1.44-.9" style="fill:none;clip-rule:evenodd"/></clipPath><clipPath id="6ace0e0b-65dd-419c-883b-4618920bf657" transform="translate(-38 -25.03)"><path d="M75.67,74.54c-.55-.23-.85-.35-1.51.38h0c-.44.49-.76.9-1,1.26-1.23,1.56-1.79,2.09-5.44,2.83a6.55,6.55,0,0,0-1.43.43,4.48,4.48,0,0,0,1.34.58c2.69.67,6.43.72,9-2.87a1.5,1.5,0,0,0,.13-1.26,2.13,2.13,0,0,0-1-1.35" style="fill:none;clip-rule:evenodd"/></clipPath><clipPath id="26453022-d8c6-4236-b7b6-71c426fcdc24" transform="translate(-38 -25.03)"><path d="M65.84,71.07a10.44,10.44,0,0,1-2.76-8.76A40.85,40.85,0,0,0,63.28,54c0-.45,0-.78,0-1,0-.6-.15-10.5,5.6-16.3l.15-.15c-3.5-1.14-12.23-3.38-17.53.37C48.2,39.26,46.7,43.55,47,49.71A90,90,0,0,0,50.46,65.5c2.44,8,5.21,13,7.6,13.81.37.12,1.48.49,3.09-1.44,2.28-2.73,4.42-5.06,5.41-6.11q-.37-.32-.72-.67" style="fill:none;clip-rule:evenodd"/></clipPath><clipPath id="da4ebcdb-aff2-4fdc-869b-b08bf6d53e30" transform="translate(-38 -25.03)"><path d="M97.45,71.63a13.93,13.93,0,0,1-2.21-3.56c-.1-.25-.44-.85-.82-1.53C92.31,62.79,88,55,90.77,51c1.3-1.85,3.85-2.59,7.62-2.21a22.48,22.48,0,0,0-4.07-7,19.47,19.47,0,0,0-14.86-7.08,12.13,12.13,0,0,0-9.18,3.43c-3.69,3.71-4.67,9.57-4.93,12.7l.56-.3A14.7,14.7,0,0,1,70.76,49c3.42-.35,5.67,1.17,6.34,4.28,1.8,8.31.14,12-1.07,14.67-.22.5-.44,1-.61,1.42l-.15.4a24.53,24.53,0,0,0-.88,2.62,3.13,3.13,0,0,1,2,.25,4.08,4.08,0,0,1,2.22,2.65,4.18,4.18,0,0,1,.12.59,1,1,0,0,1,0,.32c-.23,8.34.1,15.9.77,17.57,1,2.6,2.62,4.87,7.08,3.91,4.3-.92,5.83-2.46,6.55-6.61.54-3.14,1.61-12,1.76-13.92-.19-3.78,1.86-4.54,3-4.87-.15-.21-.34-.45-.54-.69" style="fill:none;clip-rule:evenodd"/></clipPath><clipPath id="b7db58f0-cf02-4c68-885d-7d3fe0f76bd4" transform="translate(-38 -25.03)"><path d="M98.31,53.64a20.36,20.36,0,0,0,.3-2.84c-4-.49-5.57.42-6.19,1.31-2.1,3,2,10.32,3.75,13.45.45.8.77,1.38.92,1.75a9.92,9.92,0,0,0,.53,1.09c1.2-2.55.89-5.14.59-7.66A25.23,25.23,0,0,1,98,57a26.18,26.18,0,0,1,.36-3.33m-2-.58a2,2,0,0,1-1.16.63l-.21,0a1.71,1.71,0,0,1-1.59-1.05c-.07-.5.75-.88,1.59-1s1.74,0,1.81.52a1.27,1.27,0,0,1-.43.88" style="fill:none;clip-rule:evenodd"/></clipPath><clipPath id="e46e517f-3648-4067-80cb-c8f8b14f90ab" transform="translate(-38 -25.03)"><path d="M95.74,40.36c3.21,3.73,4.78,7.84,4.91,9.22a1.58,1.58,0,0,1,0,.54,19.48,19.48,0,0,1-.32,3.83A24.48,24.48,0,0,0,100,57a23.31,23.31,0,0,0,.25,3.47c.36,3,.76,6.35-1.3,9.75l.1.13.24.31c8-12.54,10.75-27.07,8.24-30.26-3.27-4.16-7.88-6.34-13.71-6.47a26.38,26.38,0,0,0-5.86.55,22.14,22.14,0,0,1,7.81,5.86" style="fill:none;clip-rule:evenodd"/></clipPath><clipPath id="0247d0fd-5f04-46a7-af50-0bbee451a0b9" transform="translate(-38 -25.03)"><path d="M128.46,55.5a2.6,2.6,0,0,0,.53-1.67,3.72,3.72,0,0,0-.23-1.29,2.55,2.55,0,0,0-.79-1.09,4.1,4.1,0,0,0-1.54-.74,9.47,9.47,0,0,0-2.48-.27h-5.64V62.58h1.46V57.22h3.3a15.06,15.06,0,0,0,2.13-.15,7,7,0,0,0,1.9-.53,3.63,3.63,0,0,0,1.36-1m-1.24-.5a2.14,2.14,0,0,1-.88.76,4.38,4.38,0,0,1-1.38.38,15,15,0,0,1-1.84.1h-3.34V51.42h3.77a6,6,0,0,1,3,.59,1.92,1.92,0,0,1,1,1.74,2.28,2.28,0,0,1-.31,1.26" style="fill:none;clip-rule:evenodd"/></clipPath><clipPath id="f9b6fb82-8880-4898-8365-f2371dd91888" transform="translate(-38 -25.03)"><path d="M139.57,54.95A4.66,4.66,0,0,0,138,54a6.46,6.46,0,0,0-2.27-.36,6.39,6.39,0,0,0-2.25.36,4.59,4.59,0,0,0-1.61,1,4,4,0,0,0-1,1.46,5,5,0,0,0-.32,1.8,4.65,4.65,0,0,0,.41,2,4.09,4.09,0,0,0,1.1,1.43,4.7,4.7,0,0,0,1.63.86,7.16,7.16,0,0,0,2,.3,6.44,6.44,0,0,0,2.11-.33,4.67,4.67,0,0,0,1.63-.94,4.13,4.13,0,0,0,1-1.45,4.72,4.72,0,0,0,.36-1.89,5.18,5.18,0,0,0-.31-1.8,3.83,3.83,0,0,0-1-1.46m-.32,4.63a3.41,3.41,0,0,1-.66,1.18,3.18,3.18,0,0,1-1.17.84,4.33,4.33,0,0,1-1.73.31,4.56,4.56,0,0,1-1.63-.27,3.16,3.16,0,0,1-1.18-.76,3.25,3.25,0,0,1-.72-1.17,4.36,4.36,0,0,1-.25-1.49,4.47,4.47,0,0,1,.21-1.37,3.31,3.31,0,0,1,.66-1.18,3.24,3.24,0,0,1,1.17-.83,4.31,4.31,0,0,1,1.73-.31,4.64,4.64,0,0,1,1.74.29,3.11,3.11,0,0,1,1.16.78,3.15,3.15,0,0,1,.66,1.17,4.77,4.77,0,0,1,.21,1.45,4.39,4.39,0,0,1-.21,1.37" style="fill:none;clip-rule:evenodd"/></clipPath><clipPath id="60273ac7-65a8-46e2-836c-47ac1f47e56e" transform="translate(-38 -25.03)"><path d="M151,61.38a1.85,1.85,0,0,0,.34-1.1,1.68,1.68,0,0,0-.53-1.31,3.86,3.86,0,0,0-1.32-.75,10.2,10.2,0,0,0-1.71-.43q-.92-.15-1.71-.34a4.87,4.87,0,0,1-1.32-.51,1,1,0,0,1-.53-.9,1.25,1.25,0,0,1,.64-1.09,3.46,3.46,0,0,1,1.86-.41,4.4,4.4,0,0,1,2,.41,1.84,1.84,0,0,1,1,1.42h1.31a2.77,2.77,0,0,0-1.36-2.12,5.93,5.93,0,0,0-2.93-.63,5,5,0,0,0-2.88.7,2.1,2.1,0,0,0-1,1.8,1.7,1.7,0,0,0,.53,1.33,3.56,3.56,0,0,0,1.32.73,10.23,10.23,0,0,0,1.71.38q.92.13,1.71.3a4.5,4.5,0,0,1,1.32.49,1,1,0,0,1,.53,1,1.16,1.16,0,0,1-.17.61,1.68,1.68,0,0,1-.5.52,2.73,2.73,0,0,1-.85.36,4.87,4.87,0,0,1-1.22.13,4.42,4.42,0,0,1-2.24-.46,2.48,2.48,0,0,1-1.08-1.59h-1.31A2.74,2.74,0,0,0,143,61a3,3,0,0,0,.84.94,4.06,4.06,0,0,0,1.3.63,6.08,6.08,0,0,0,1.75.23,9.6,9.6,0,0,0,1.81-.16,5.07,5.07,0,0,0,1.43-.48,2.69,2.69,0,0,0,.94-.8" style="fill:none;clip-rule:evenodd"/></clipPath><clipPath id="8ee970d6-3805-4bf6-916b-a90ee770f623" transform="translate(-38 -25.03)"><path d="M157.81,61.79l-.53.08a4.12,4.12,0,0,1-.53,0,2.31,2.31,0,0,1-.63-.07.6.6,0,0,1-.33-.22.78.78,0,0,1-.13-.39c0-.16,0-.34,0-.56v-6h2.08v-.84h-2.08V51.42h-1.29v2.43H152.8v.84h1.56v6.39a1.6,1.6,0,0,0,.5,1.36,2.41,2.41,0,0,0,1.47.38,4,4,0,0,0,.86-.08l.62-.12Z" style="fill:none;clip-rule:evenodd"/></clipPath><clipPath id="ca8996ff-40bf-48b9-be6b-bb6844c24edd" transform="translate(-38 -25.03)"><path d="M169.73,61.74V53.85h-1.29v1.53h0a3.17,3.17,0,0,0-.72-.76,4.28,4.28,0,0,0-1-.56,6,6,0,0,0-1.08-.34,5.24,5.24,0,0,0-1.09-.12,6.56,6.56,0,0,0-2.29.35,4.25,4.25,0,0,0-1.55,1,3.67,3.67,0,0,0-.89,1.46,5.72,5.72,0,0,0-.28,1.8,5.19,5.19,0,0,0,.3,1.75,4.06,4.06,0,0,0,.91,1.48,4.44,4.44,0,0,0,1.54,1,5.81,5.81,0,0,0,2.2.38,6.29,6.29,0,0,0,2.26-.41,3.8,3.8,0,0,0,1.7-1.22,7.87,7.87,0,0,1-.1,1.48,3.07,3.07,0,0,1-.53,1.3,2.86,2.86,0,0,1-1.2.93,5.22,5.22,0,0,1-2.1.35,8.93,8.93,0,0,1-1.11-.07,3.94,3.94,0,0,1-1-.25,2.33,2.33,0,0,1-.76-.49,1.84,1.84,0,0,1-.47-.8h-1.37a1.74,1.74,0,0,0,.31.83,2.89,2.89,0,0,0,.85.82,5.06,5.06,0,0,0,1.44.62,8,8,0,0,0,2.1.24,7.8,7.8,0,0,0,2.59-.36,4,4,0,0,0,1.59-1,3.32,3.32,0,0,0,.8-1.41,6.19,6.19,0,0,0,.22-1.68m-1.54-2.08a3.42,3.42,0,0,1-.74,1.16,3.54,3.54,0,0,1-1.18.79,4,4,0,0,1-1.58.29,4.4,4.4,0,0,1-1.74-.31,3.27,3.27,0,0,1-1.2-.85,3.33,3.33,0,0,1-.69-1.26,4.53,4.53,0,0,1-.17-1.54,3.47,3.47,0,0,1,.29-1.46,3.06,3.06,0,0,1,.8-1.07,3.56,3.56,0,0,1,1.2-.67,4.73,4.73,0,0,1,1.5-.23,4.25,4.25,0,0,1,1.61.29,3.22,3.22,0,0,1,1.9,2,4.32,4.32,0,0,1,.25,1.48,3.88,3.88,0,0,1-.26,1.41" style="fill:none;clip-rule:evenodd"/></clipPath><clipPath id="1bc1d3cd-1f52-40d2-afcf-26ca20359cb4" transform="translate(-38 -25.03)"><path d="M175.06,55.75a2.86,2.86,0,0,1,1.13-.77,4.65,4.65,0,0,1,1.8-.27v-1.1a5.14,5.14,0,0,0-2.24.41,3.13,3.13,0,0,0-1.38,1.46h0V53.85H173v8.74h1.29V58.3a5.92,5.92,0,0,1,.16-1.39,2.75,2.75,0,0,1,.58-1.16" style="fill:none;clip-rule:evenodd"/></clipPath><clipPath id="ddf7c2ac-0230-4981-b198-455431e5ee2b" transform="translate(-38 -25.03)"><path d="M187.84,62a3.89,3.89,0,0,0,1-.93,4.91,4.91,0,0,0,.62-1.16H188a2.54,2.54,0,0,1-1.2,1.48,4.24,4.24,0,0,1-2.17.52,4.44,4.44,0,0,1-1.63-.28,3.36,3.36,0,0,1-1.17-.74,3,3,0,0,1-.7-1.1,3.8,3.8,0,0,1-.24-1.34h8.62a4.67,4.67,0,0,0-1.29-3.6,5,5,0,0,0-3.6-1.24,6,6,0,0,0-2.14.36,4.68,4.68,0,0,0-1.6,1,4.41,4.41,0,0,0-1,1.48,4.62,4.62,0,0,0-.35,1.8,5.27,5.27,0,0,0,.3,1.8,3.84,3.84,0,0,0,.92,1.45,4.33,4.33,0,0,0,1.59,1,6.66,6.66,0,0,0,2.29.35,7,7,0,0,0,1.84-.22,4.56,4.56,0,0,0,1.37-.62m-6.58-5.56a3.34,3.34,0,0,1,.74-1,3.51,3.51,0,0,1,1.11-.67,4.18,4.18,0,0,1,1.51-.25,4.39,4.39,0,0,1,1.52.25,3.19,3.19,0,0,1,1.1.66,2.69,2.69,0,0,1,.66,1,3.23,3.23,0,0,1,.23,1.21H180.9a3.76,3.76,0,0,1,.36-1.18" style="fill:none;clip-rule:evenodd"/></clipPath><clipPath id="b46a6f10-77b0-49ba-b4b9-ad99ebfa124a" transform="translate(-38 -25.03)"><path d="M201.26,56.95a5.7,5.7,0,0,0-1.43-.59q-.8-.22-1.66-.38l-1.68-.3A10.65,10.65,0,0,1,195,55.3a4,4,0,0,1-1.16-.58,1.56,1.56,0,0,1-.6-.95,1.64,1.64,0,0,1,.06-.94,2.07,2.07,0,0,1,.62-.86,3.45,3.45,0,0,1,1.21-.63A6.2,6.2,0,0,1,197,51.1a6.48,6.48,0,0,1,1.41.15,4.06,4.06,0,0,1,1.22.47,2.45,2.45,0,0,1,.85.83,2.25,2.25,0,0,1,.31,1.2h1.39a3.14,3.14,0,0,0-.32-1.4,3.27,3.27,0,0,0-1-1.16,4.88,4.88,0,0,0-1.62-.79,8.14,8.14,0,0,0-2.28-.29,8.67,8.67,0,0,0-2.27.27,5.29,5.29,0,0,0-1.64.73,3.19,3.19,0,0,0-1,1,2.45,2.45,0,0,0-.33,1.21,2.51,2.51,0,0,0,.41,1.48,3.19,3.19,0,0,0,1.06,1,6.11,6.11,0,0,0,1.5.59q.85.22,1.74.38l1.74.33a7.58,7.58,0,0,1,1.5.45,3.05,3.05,0,0,1,1.06.72,1.62,1.62,0,0,1,.41,1.15,2.14,2.14,0,0,1-.23,1,2.22,2.22,0,0,1-.7.8,3.69,3.69,0,0,1-1.22.55,6.9,6.9,0,0,1-1.78.2,8.1,8.1,0,0,1-1.65-.16,4.33,4.33,0,0,1-1.36-.52,3,3,0,0,1-1-.92,3,3,0,0,1-.46-1.37H191.4a3.43,3.43,0,0,0,.42,1.73A3.62,3.62,0,0,0,193,61.92a5.5,5.5,0,0,0,1.78.74,9.71,9.71,0,0,0,2.23.24,7.84,7.84,0,0,0,4.16-.93,2.92,2.92,0,0,0,1.48-2.61,2.64,2.64,0,0,0-.38-1.46,3,3,0,0,0-1-1" style="fill:none;clip-rule:evenodd"/></clipPath><clipPath id="daf77a69-7363-44a3-a76e-f31358c1128b" transform="translate(-38 -25.03)"><path d="M217,51.77a6.53,6.53,0,0,0-2.29-1.23,9.85,9.85,0,0,0-3-.42,8.49,8.49,0,0,0-3.14.53,6.4,6.4,0,0,0-2.22,1.42,5.79,5.79,0,0,0-1.32,2,6.95,6.95,0,0,0,0,4.89,5.62,5.62,0,0,0,1.35,2,6.45,6.45,0,0,0,2.25,1.37,8.88,8.88,0,0,0,3.13.51,9.45,9.45,0,0,0,2.11-.22,8.07,8.07,0,0,0,1.75-.61l2.27,1.38.81-.78-2.06-1.25a5.7,5.7,0,0,0,1.74-2.16,6.52,6.52,0,0,0,.58-2.75,6.79,6.79,0,0,0-.53-2.75,5.49,5.49,0,0,0-1.48-2m.08,7.14a4.46,4.46,0,0,1-1.46,1.86l-1.09.61a6,6,0,0,1-1.22.4,7.06,7.06,0,0,1-1.48.14,6.94,6.94,0,0,1-2.6-.44,5,5,0,0,1-1.78-1.18,4.69,4.69,0,0,1-1-1.72,6.35,6.35,0,0,1-.33-2.06,6.25,6.25,0,0,1,.33-2,4.85,4.85,0,0,1,1-1.74,5,5,0,0,1,1.78-1.21,6.59,6.59,0,0,1,2.56-.45,7.46,7.46,0,0,1,2.29.34,5,5,0,0,1,1.82,1,4.77,4.77,0,0,1,1.21,1.69,5.94,5.94,0,0,1,.44,2.38,6.1,6.1,0,0,1-.47,2.39" style="fill:none;clip-rule:evenodd"/></clipPath><clipPath id="a4a7d498-a190-4614-90b5-42f565330f19" transform="translate(-38 -25.03)"><polygon points="231.72 61.6 223.45 61.6 223.45 50.44 221.99 50.44 221.99 62.58 231.72 62.58 231.72 61.6" style="fill:none;clip-rule:evenodd"/></clipPath><clipPath id="8b4932e4-e60f-4898-91d2-74b753b6ad1f" transform="translate(-38 -25.03)"><path d="M119.72,71.66l-.15,0a.15.15,0,0,1-.08-.07.29.29,0,0,1,0-.12s0-.1,0-.17V69.48h.49v-.25h-.49V68.5h-.31v.73h-.37v.25h.37v1.93a.56.56,0,0,0,.12.41.49.49,0,0,0,.35.11l.2,0,.15,0v-.25l-.12,0h-.12" style="fill:none;clip-rule:evenodd"/></clipPath><clipPath id="5c7d4c0f-5b7e-4931-9aaa-3f92e3c1c191" transform="translate(-38 -25.03)"><path d="M122.42,69.54a.77.77,0,0,0-.35-.29,1.2,1.2,0,0,0-.45-.08.88.88,0,0,0-.47.12,2,2,0,0,0-.38.32V68.2h-.31v3.66h.31V70.44c0-.09,0-.18,0-.25a1,1,0,0,1,.06-.24.76.76,0,0,1,.26-.36.81.81,0,0,1,.21-.11.74.74,0,0,1,.26,0,.67.67,0,0,1,.53.18.79.79,0,0,1,.16.53v1.72h.31V70.14a2.65,2.65,0,0,0,0-.31.65.65,0,0,0-.11-.29" style="fill:none;clip-rule:evenodd"/></clipPath><clipPath id="f2a22273-5131-4745-8304-5669b8145ee4" transform="translate(-38 -25.03)"><path d="M125.23,69.53a1.06,1.06,0,0,0-.86-.37,1.15,1.15,0,0,0-.51.11,1.11,1.11,0,0,0-.38.3,1.37,1.37,0,0,0-.24.45,1.72,1.72,0,0,0-.08.54,2,2,0,0,0,.07.54,1.23,1.23,0,0,0,.22.44,1,1,0,0,0,.38.29,1.29,1.29,0,0,0,.55.11,1.33,1.33,0,0,0,.44-.07,1,1,0,0,0,.33-.19,1.06,1.06,0,0,0,.23-.28,1.62,1.62,0,0,0,.15-.35h-.34a.76.76,0,0,1-.29.45.85.85,0,0,1-.52.16.86.86,0,0,1-.39-.08.81.81,0,0,1-.28-.22,1,1,0,0,1-.17-.33,1.42,1.42,0,0,1-.06-.4h2.05A1.64,1.64,0,0,0,125.23,69.53Zm-1.74.83a1.37,1.37,0,0,1,.09-.36,1,1,0,0,1,.18-.29.83.83,0,0,1,.27-.2.81.81,0,0,1,.36-.08.85.85,0,0,1,.36.07.76.76,0,0,1,.26.2.86.86,0,0,1,.16.29,1.21,1.21,0,0,1,.05.36Z" style="fill:none;clip-rule:evenodd"/></clipPath><clipPath id="cbebfcdb-cad6-4fa3-a315-ccb550aa3656" transform="translate(-38 -25.03)"><polygon points="129.78 71.46 129.2 69.23 128.86 69.23 128.25 71.48 127.56 69.23 127.26 69.23 128.06 71.86 128.43 71.86 129.02 69.65 129.03 69.65 129.6 71.86 129.93 71.86 130.79 69.23 130.48 69.23 129.78 71.46" style="fill:none;clip-rule:evenodd"/></clipPath><clipPath id="a44f26ce-354e-4f63-bbd4-193129c164b4" transform="translate(-38 -25.03)"><path d="M133.2,69.56a1.1,1.1,0,0,0-.38-.29,1.37,1.37,0,0,0-1.08,0,1.09,1.09,0,0,0-.38.3,1.28,1.28,0,0,0-.23.44,1.86,1.86,0,0,0-.08.54,1.73,1.73,0,0,0,.1.61,1.23,1.23,0,0,0,.26.43,1.08,1.08,0,0,0,.39.26,1.39,1.39,0,0,0,.48.09,1.25,1.25,0,0,0,.5-.1,1.09,1.09,0,0,0,.39-.28,1.29,1.29,0,0,0,.25-.44,1.77,1.77,0,0,0,.09-.57,1.94,1.94,0,0,0-.07-.54,1.21,1.21,0,0,0-.23-.44m-.08,1.4a1.12,1.12,0,0,1-.16.36.78.78,0,0,1-.28.25.84.84,0,0,1-.41.09.89.89,0,0,1-.39-.08.77.77,0,0,1-.28-.23,1.05,1.05,0,0,1-.17-.35,1.64,1.64,0,0,1-.06-.45,1.68,1.68,0,0,1,.05-.41,1.11,1.11,0,0,1,.16-.36.81.81,0,0,1,.28-.25.84.84,0,0,1,.41-.09.9.9,0,0,1,.41.09.76.76,0,0,1,.28.24,1,1,0,0,1,.16.35,1.79,1.79,0,0,1,.05.44,1.64,1.64,0,0,1-.05.41" style="fill:none;clip-rule:evenodd"/></clipPath><clipPath id="8dcab273-efff-4266-98ee-4e0f39b69625" transform="translate(-38 -25.03)"><path d="M134.4,69.72h0v-.49h-.31v2.64h.31V70.57a2.24,2.24,0,0,1,0-.42.93.93,0,0,1,.14-.35.71.71,0,0,1,.27-.23.91.91,0,0,1,.43-.08v-.33a1,1,0,0,0-.53.13.88.88,0,0,0-.33.44" style="fill:none;clip-rule:evenodd"/></clipPath><clipPath id="5d0c793b-cfb2-4cca-985c-f7bc9fd95d62" transform="translate(-38 -25.03)"><rect x="135.81" y="68.2" width="0.5" height="3.66" style="fill:none"/></clipPath><clipPath id="329d42c2-f0b0-465e-9d64-6713bed61460" transform="translate(-38 -25.03)"><path d="M138.94,69.65a.94.94,0,0,0-.41-.37,1.22,1.22,0,0,0-.54-.12,1.12,1.12,0,0,0-.52.11,1.07,1.07,0,0,0-.37.31,1.31,1.31,0,0,0-.22.44,2,2,0,0,0-.07.53,2.16,2.16,0,0,0,.07.55,1.2,1.2,0,0,0,.21.44,1,1,0,0,0,.37.29,1.25,1.25,0,0,0,.55.11,1,1,0,0,0,.26,0,1.25,1.25,0,0,0,.26-.1,1,1,0,0,0,.23-.17.82.82,0,0,0,.17-.23h0v.46h.31V68.2h-.31ZM138.88,71a1.08,1.08,0,0,1-.17.36.81.81,0,0,1-.28.24.83.83,0,0,1-.38.09.92.92,0,0,1-.36-.07.82.82,0,0,1-.29-.2.94.94,0,0,1-.19-.32,1.3,1.3,0,0,1-.07-.44,1.71,1.71,0,0,1,0-.47,1.11,1.11,0,0,1,.16-.38.81.81,0,0,1,.29-.26.85.85,0,0,1,.41-.09.78.78,0,0,1,.37.09.86.86,0,0,1,.28.24,1.09,1.09,0,0,1,.18.35,1.46,1.46,0,0,1,.06.43A1.62,1.62,0,0,1,138.88,71Z" style="fill:none;clip-rule:evenodd"/></clipPath><clipPath id="e01fd05c-861c-4dcb-91a8-84ec8cbd9fce" transform="translate(-38 -25.03)"><path d="M140.06,68.65h.23v.17a.29.29,0,0,1-.08.22.64.64,0,0,1-.16.11v.19a.75.75,0,0,0,.36-.19.48.48,0,0,0,.14-.36v-.6h-.5Z" style="fill:none;clip-rule:evenodd"/></clipPath><clipPath id="8e65163f-2545-4ce3-a49a-c89b0e610e89" transform="translate(-38 -25.03)"><path d="M142.66,70.54a2,2,0,0,0-.41-.13l-.41-.1a1,1,0,0,1-.31-.15.32.32,0,0,1-.12-.27.4.4,0,0,1,.15-.33.69.69,0,0,1,.44-.12.87.87,0,0,1,.48.13.57.57,0,0,1,.23.43H143a.87.87,0,0,0-.32-.64,1.18,1.18,0,0,0-.7-.19,1,1,0,0,0-.69.21.69.69,0,0,0-.24.54.59.59,0,0,0,.13.4.82.82,0,0,0,.31.22,2,2,0,0,0,.41.11l.41.09a1,1,0,0,1,.31.15.34.34,0,0,1,.12.29.43.43,0,0,1,0,.18.48.48,0,0,1-.12.16.58.58,0,0,1-.2.11.93.93,0,0,1-.29,0,.87.87,0,0,1-.53-.14.77.77,0,0,1-.26-.48H141a1,1,0,0,0,.08.35.89.89,0,0,0,.2.28.9.9,0,0,0,.31.19,1.16,1.16,0,0,0,.42.07,1.83,1.83,0,0,0,.43,0,1.06,1.06,0,0,0,.34-.15.71.71,0,0,0,.22-.24.67.67,0,0,0,.08-.33.58.58,0,0,0-.12-.4.89.89,0,0,0-.31-.23" style="fill:none;clip-rule:evenodd"/></clipPath><clipPath id="68164b86-63cd-436d-aded-e06ffcbd8157" transform="translate(-38 -25.03)"><path d="M148.52,69.48a.65.65,0,0,0-.25-.23.89.89,0,0,0-.43-.09,1,1,0,0,0-.51.13.89.89,0,0,0-.35.38,1.08,1.08,0,0,0-.1-.2.62.62,0,0,0-.15-.16.69.69,0,0,0-.22-.11,1,1,0,0,0-.31,0,1,1,0,0,0-.48.12.8.8,0,0,0-.34.35h0v-.4h-.31v2.64h.31V70.44c0-.05,0-.11,0-.18a1.5,1.5,0,0,1,0-.19,1.32,1.32,0,0,1,.05-.19.59.59,0,0,1,.08-.16.74.74,0,0,1,.6-.3.52.52,0,0,1,.45.16.74.74,0,0,1,.12.45v1.82H147V70.44c0-.05,0-.11,0-.18a1.5,1.5,0,0,1,0-.19,1.31,1.31,0,0,1,.05-.19.59.59,0,0,1,.08-.16.74.74,0,0,1,.6-.3.52.52,0,0,1,.45.16.74.74,0,0,1,.12.45v1.82h.31V70.2a2.63,2.63,0,0,0,0-.39.91.91,0,0,0-.11-.33" style="fill:none;clip-rule:evenodd"/></clipPath><clipPath id="79584eae-8873-4c2e-a668-bf8b99748f1c" transform="translate(-38 -25.03)"><path d="M151.34,69.56a1.1,1.1,0,0,0-.38-.29,1.24,1.24,0,0,0-.54-.11,1.23,1.23,0,0,0-.54.11,1.09,1.09,0,0,0-.38.3,1.28,1.28,0,0,0-.23.44,1.86,1.86,0,0,0-.08.54,1.73,1.73,0,0,0,.1.61,1.23,1.23,0,0,0,.26.43,1.08,1.08,0,0,0,.39.26,1.39,1.39,0,0,0,.48.09,1.25,1.25,0,0,0,.5-.1,1.09,1.09,0,0,0,.39-.28,1.29,1.29,0,0,0,.25-.44,1.77,1.77,0,0,0,.09-.57,1.94,1.94,0,0,0-.07-.54,1.21,1.21,0,0,0-.23-.44m-.08,1.4a1.12,1.12,0,0,1-.16.36.78.78,0,0,1-.28.25.84.84,0,0,1-.41.09.89.89,0,0,1-.39-.08.77.77,0,0,1-.28-.23,1.05,1.05,0,0,1-.17-.35,1.64,1.64,0,0,1-.06-.45,1.67,1.67,0,0,1,.05-.41,1.1,1.1,0,0,1,.16-.36.81.81,0,0,1,.28-.25.84.84,0,0,1,.41-.09.9.9,0,0,1,.41.09.76.76,0,0,1,.28.24,1,1,0,0,1,.16.35,1.79,1.79,0,0,1,.05.44,1.64,1.64,0,0,1-.05.41" style="fill:none;clip-rule:evenodd"/></clipPath><clipPath id="e7062676-2837-4299-83ed-0998000c8af3" transform="translate(-38 -25.03)"><path d="M153.71,70.54a2,2,0,0,0-.41-.13l-.41-.1a1,1,0,0,1-.31-.15.32.32,0,0,1-.12-.27.4.4,0,0,1,.15-.33.69.69,0,0,1,.44-.12.87.87,0,0,1,.48.13.57.57,0,0,1,.23.43h.31a.87.87,0,0,0-.32-.64,1.17,1.17,0,0,0-.7-.19,1,1,0,0,0-.69.21.69.69,0,0,0-.24.54.59.59,0,0,0,.13.4.82.82,0,0,0,.31.22,2,2,0,0,0,.41.11l.41.09a1,1,0,0,1,.31.15.34.34,0,0,1,.13.29.43.43,0,0,1,0,.18.48.48,0,0,1-.12.16.58.58,0,0,1-.2.11.93.93,0,0,1-.29,0,.87.87,0,0,1-.53-.14.77.77,0,0,1-.26-.48h-.31a1,1,0,0,0,.08.35.88.88,0,0,0,.2.28.9.9,0,0,0,.31.19,1.16,1.16,0,0,0,.42.07,1.83,1.83,0,0,0,.43,0,1.06,1.06,0,0,0,.34-.15.71.71,0,0,0,.22-.24.67.67,0,0,0,.08-.33.58.58,0,0,0-.12-.4.89.89,0,0,0-.31-.23" style="fill:none;clip-rule:evenodd"/></clipPath><clipPath id="dd2f471e-e8fb-4d95-858b-88b215714b7d" transform="translate(-38 -25.03)"><path d="M155.43,71.66l-.15,0a.15.15,0,0,1-.08-.07.28.28,0,0,1,0-.12s0-.1,0-.17V69.48h.49v-.25h-.49V68.5h-.31v.73h-.37v.25h.37v1.93a.56.56,0,0,0,.12.41.49.49,0,0,0,.35.11l.2,0,.15,0v-.25l-.12,0h-.12" style="fill:none;clip-rule:evenodd"/></clipPath><clipPath id="3405ffad-24bf-47ac-8000-c69ee6f68650" transform="translate(-38 -25.03)"><path d="M159.69,71.64s-.06-.11-.06-.23V70a.91.91,0,0,0-.07-.39.64.64,0,0,0-.2-.25.87.87,0,0,0-.31-.14,1.68,1.68,0,0,0-.78,0,1,1,0,0,0-.34.15.82.82,0,0,0-.24.27.94.94,0,0,0-.11.4h.31a.77.77,0,0,1,.08-.29.52.52,0,0,1,.16-.18.64.64,0,0,1,.23-.1,1.38,1.38,0,0,1,.29,0,.7.7,0,0,1,.51.15.52.52,0,0,1,.15.38.75.75,0,0,1,0,.16.16.16,0,0,1-.09.12l-.2.06-.21,0-.42.06q-.92.12-.92.79a.72.72,0,0,0,.07.33.71.71,0,0,0,.19.24.81.81,0,0,0,.28.14,1.2,1.2,0,0,0,.33,0,1.31,1.31,0,0,0,.54-.11,1.33,1.33,0,0,0,.44-.33.84.84,0,0,0,0,.13.37.37,0,0,0,0,.12.29.29,0,0,0,.07.09.24.24,0,0,0,.12,0l.14,0,.14,0,.1,0v-.24C159.82,71.66,159.73,71.67,159.69,71.64Zm-.37-.75a.69.69,0,0,1-.08.34.72.72,0,0,1-.22.24,1,1,0,0,1-.31.14,1.43,1.43,0,0,1-.36,0l-.21,0a.52.52,0,0,1-.18-.09.44.44,0,0,1-.13-.15.43.43,0,0,1,0-.21.45.45,0,0,1,.2-.4,1.13,1.13,0,0,1,.55-.16l.4,0a1.51,1.51,0,0,0,.39-.11Z" style="fill:none;clip-rule:evenodd"/></clipPath><clipPath id="cc2bca29-04b9-4293-8331-58e4b02ae453" transform="translate(-38 -25.03)"><path d="M162.47,69.65a.94.94,0,0,0-.41-.37,1.22,1.22,0,0,0-.54-.12,1.12,1.12,0,0,0-.52.11,1.08,1.08,0,0,0-.37.31,1.31,1.31,0,0,0-.22.44,2,2,0,0,0-.07.53,2.16,2.16,0,0,0,.07.55,1.2,1.2,0,0,0,.21.44,1,1,0,0,0,.37.29,1.25,1.25,0,0,0,.55.11,1,1,0,0,0,.26,0,1.25,1.25,0,0,0,.26-.1,1,1,0,0,0,.23-.17.82.82,0,0,0,.17-.23h0v.46h.31V68.2h-.31ZM162.41,71a1.08,1.08,0,0,1-.17.36.81.81,0,0,1-.28.24.83.83,0,0,1-.38.09.92.92,0,0,1-.36-.07.82.82,0,0,1-.29-.2.94.94,0,0,1-.19-.32,1.3,1.3,0,0,1-.07-.44,1.71,1.71,0,0,1,0-.47,1.11,1.11,0,0,1,.16-.38.81.81,0,0,1,.29-.26.85.85,0,0,1,.41-.09.78.78,0,0,1,.38.09.86.86,0,0,1,.28.24,1.09,1.09,0,0,1,.18.35,1.46,1.46,0,0,1,.06.43A1.62,1.62,0,0,1,162.41,71Z" style="fill:none;clip-rule:evenodd"/></clipPath><clipPath id="455dbcd0-900d-459b-b0c9-3624634ce96a" transform="translate(-38 -25.03)"><polygon points="164.45 71.49 163.59 69.23 163.26 69.23 164.27 71.86 164.61 71.86 165.64 69.23 165.31 69.23 164.45 71.49" style="fill:none;clip-rule:evenodd"/></clipPath><clipPath id="624247c1-1a2a-41ac-b2fb-e15a6da93d82" transform="translate(-38 -25.03)"><path d="M168.19,71.64s-.06-.11-.06-.23V70a.91.91,0,0,0-.07-.39.64.64,0,0,0-.2-.25.86.86,0,0,0-.31-.14,1.68,1.68,0,0,0-.78,0,1,1,0,0,0-.34.15.82.82,0,0,0-.24.27.94.94,0,0,0-.11.4h.31a.77.77,0,0,1,.08-.29.52.52,0,0,1,.16-.18.64.64,0,0,1,.23-.1,1.38,1.38,0,0,1,.29,0,.7.7,0,0,1,.51.15.52.52,0,0,1,.15.38.75.75,0,0,1,0,.16.16.16,0,0,1-.09.12l-.2.06-.21,0-.42.06q-.92.12-.92.79a.72.72,0,0,0,.07.33.71.71,0,0,0,.19.24.81.81,0,0,0,.28.14,1.2,1.2,0,0,0,.33,0,1.31,1.31,0,0,0,.54-.11,1.33,1.33,0,0,0,.44-.33.83.83,0,0,0,0,.13.37.37,0,0,0,0,.12.29.29,0,0,0,.07.09.24.24,0,0,0,.12,0l.14,0,.14,0,.1,0v-.24C168.32,71.66,168.23,71.67,168.19,71.64Zm-.37-.75a.69.69,0,0,1-.08.34.72.72,0,0,1-.22.24,1,1,0,0,1-.31.14,1.43,1.43,0,0,1-.36,0l-.21,0a.52.52,0,0,1-.18-.09.44.44,0,0,1-.13-.15.43.43,0,0,1,0-.21.45.45,0,0,1,.2-.4,1.13,1.13,0,0,1,.55-.16l.4,0a1.51,1.51,0,0,0,.39-.11Z" style="fill:none;clip-rule:evenodd"/></clipPath><clipPath id="5f7e3df5-980a-4a83-b9b8-db742e88b1b0" transform="translate(-38 -25.03)"><path d="M170.89,69.54a.77.77,0,0,0-.35-.29,1.2,1.2,0,0,0-.45-.08.88.88,0,0,0-.47.12,2,2,0,0,0-.38.32v-.37h-.31v2.64h.31V70.44c0-.09,0-.18,0-.25a1,1,0,0,1,.06-.24.76.76,0,0,1,.26-.36.81.81,0,0,1,.21-.11.74.74,0,0,1,.26,0,.67.67,0,0,1,.53.18.79.79,0,0,1,.16.53v1.72H171V70.14a2.65,2.65,0,0,0,0-.31.65.65,0,0,0-.11-.29" style="fill:none;clip-rule:evenodd"/></clipPath><clipPath id="957c5dba-dc9f-4966-acf3-8d7933ef96de" transform="translate(-38 -25.03)"><path d="M173.4,71.47a.78.78,0,0,1-.55.19.82.82,0,0,1-.41-.09.79.79,0,0,1-.28-.25A1.08,1.08,0,0,1,172,71a1.7,1.7,0,0,1,0-.41,1.63,1.63,0,0,1,.05-.4,1.14,1.14,0,0,1,.16-.36.81.81,0,0,1,.28-.26.79.79,0,0,1,.4-.1.76.76,0,0,1,.51.17.89.89,0,0,1,.28.46h.31a1,1,0,0,0-.35-.68,1.18,1.18,0,0,0-.74-.22,1.11,1.11,0,0,0-.9.42,1.37,1.37,0,0,0-.23.45,1.74,1.74,0,0,0-.08.53,2,2,0,0,0,.07.55,1.24,1.24,0,0,0,.22.44,1,1,0,0,0,.38.29,1.44,1.44,0,0,0,1,0,1,1,0,0,0,.33-.2,1.06,1.06,0,0,0,.23-.31A1.55,1.55,0,0,0,174,71h-.33a.87.87,0,0,1-.26.52" style="fill:none;clip-rule:evenodd"/></clipPath><clipPath id="6475b859-cf8f-4b94-8e98-abfc87733b33" transform="translate(-38 -25.03)"><path d="M176.54,69.53a1.06,1.06,0,0,0-.86-.37,1.15,1.15,0,0,0-.51.11,1.11,1.11,0,0,0-.38.3,1.37,1.37,0,0,0-.24.45,1.72,1.72,0,0,0-.08.54,2,2,0,0,0,.07.54,1.24,1.24,0,0,0,.22.44,1,1,0,0,0,.38.29,1.29,1.29,0,0,0,.55.11,1.33,1.33,0,0,0,.44-.07,1,1,0,0,0,.33-.19,1.06,1.06,0,0,0,.23-.28,1.63,1.63,0,0,0,.15-.35h-.34a.76.76,0,0,1-.29.45.85.85,0,0,1-.52.16.86.86,0,0,1-.39-.08.81.81,0,0,1-.28-.22,1,1,0,0,1-.17-.33,1.42,1.42,0,0,1-.06-.4h2.05A1.64,1.64,0,0,0,176.54,69.53Zm-1.74.83a1.37,1.37,0,0,1,.09-.36,1,1,0,0,1,.18-.29.83.83,0,0,1,.27-.2.81.81,0,0,1,.36-.08.85.85,0,0,1,.36.07.76.76,0,0,1,.26.2.85.85,0,0,1,.16.29,1.21,1.21,0,0,1,.05.36Z" style="fill:none;clip-rule:evenodd"/></clipPath><clipPath id="86fff23c-1e86-4152-8561-eb11ac553472" transform="translate(-38 -25.03)"><path d="M179.48,69.65a.94.94,0,0,0-.41-.37,1.22,1.22,0,0,0-.54-.12,1.12,1.12,0,0,0-.52.11,1.07,1.07,0,0,0-.37.31,1.31,1.31,0,0,0-.22.44,2,2,0,0,0-.07.53,2.16,2.16,0,0,0,.07.55,1.2,1.2,0,0,0,.21.44,1,1,0,0,0,.37.29,1.25,1.25,0,0,0,.55.11,1,1,0,0,0,.26,0,1.25,1.25,0,0,0,.26-.1,1,1,0,0,0,.23-.17.82.82,0,0,0,.17-.23h0v.46h.31V68.2h-.31ZM179.42,71a1.08,1.08,0,0,1-.17.36.81.81,0,0,1-.28.24.83.83,0,0,1-.38.09.92.92,0,0,1-.36-.07.82.82,0,0,1-.29-.2.94.94,0,0,1-.19-.32,1.3,1.3,0,0,1-.07-.44,1.7,1.7,0,0,1,0-.47,1.11,1.11,0,0,1,.16-.38.81.81,0,0,1,.29-.26.85.85,0,0,1,.41-.09.78.78,0,0,1,.37.09.86.86,0,0,1,.28.24,1.09,1.09,0,0,1,.18.35,1.46,1.46,0,0,1,.06.43A1.62,1.62,0,0,1,179.42,71Z" style="fill:none;clip-rule:evenodd"/></clipPath><clipPath id="8f432066-afa4-4185-a648-44ebf0748dcf" transform="translate(-38 -25.03)"><path d="M183.95,69.56a1.1,1.1,0,0,0-.38-.29,1.24,1.24,0,0,0-.54-.11,1.23,1.23,0,0,0-.54.11,1.09,1.09,0,0,0-.38.3,1.28,1.28,0,0,0-.23.44,1.86,1.86,0,0,0-.08.54,1.73,1.73,0,0,0,.1.61,1.24,1.24,0,0,0,.26.43,1.08,1.08,0,0,0,.39.26,1.39,1.39,0,0,0,.48.09,1.25,1.25,0,0,0,.5-.1,1.09,1.09,0,0,0,.39-.28,1.29,1.29,0,0,0,.25-.44,1.77,1.77,0,0,0,.09-.57,1.94,1.94,0,0,0-.07-.54,1.21,1.21,0,0,0-.23-.44m-.08,1.4a1.12,1.12,0,0,1-.16.36.78.78,0,0,1-.28.25.84.84,0,0,1-.41.09.89.89,0,0,1-.39-.08.77.77,0,0,1-.28-.23,1.05,1.05,0,0,1-.17-.35,1.64,1.64,0,0,1-.06-.45,1.67,1.67,0,0,1,.05-.41,1.1,1.1,0,0,1,.16-.36.81.81,0,0,1,.28-.25.84.84,0,0,1,.41-.09.9.9,0,0,1,.41.09.76.76,0,0,1,.28.24,1,1,0,0,1,.16.35,1.79,1.79,0,0,1,.05.44,1.64,1.64,0,0,1-.05.41" style="fill:none;clip-rule:evenodd"/></clipPath><clipPath id="aa925427-1561-4cf8-a60b-eb6f00a3ce19" transform="translate(-38 -25.03)"><path d="M187,69.56a1,1,0,0,0-.37-.29,1.26,1.26,0,0,0-.55-.11,1,1,0,0,0-.26,0,1.25,1.25,0,0,0-.26.1,1,1,0,0,0-.23.17.91.91,0,0,0-.17.23h0v-.46h-.31V72.9h.31V71.44a1,1,0,0,0,.41.37,1.21,1.21,0,0,0,.54.13,1.13,1.13,0,0,0,.52-.11,1.07,1.07,0,0,0,.37-.31,1.3,1.3,0,0,0,.22-.45,1.94,1.94,0,0,0,.07-.53,2.15,2.15,0,0,0-.07-.54,1.18,1.18,0,0,0-.21-.44m-.09,1.37a1.11,1.11,0,0,1-.16.38.8.8,0,0,1-.29.26.86.86,0,0,1-.41.09.77.77,0,0,1-.37-.09.85.85,0,0,1-.28-.24,1.1,1.1,0,0,1-.18-.35,1.45,1.45,0,0,1-.06-.42,1.63,1.63,0,0,1,.06-.45,1.09,1.09,0,0,1,.17-.36.81.81,0,0,1,.28-.24.83.83,0,0,1,.38-.09.91.91,0,0,1,.36.07.79.79,0,0,1,.29.2.93.93,0,0,1,.19.32,1.29,1.29,0,0,1,.07.44,1.71,1.71,0,0,1,0,.47" style="fill:none;clip-rule:evenodd"/></clipPath><clipPath id="ff9da2dd-28d6-413c-aa68-f5f0c108f6f6" transform="translate(-38 -25.03)"><path d="M189.86,69.53a1.06,1.06,0,0,0-.86-.37,1.15,1.15,0,0,0-.51.11,1.11,1.11,0,0,0-.38.3,1.37,1.37,0,0,0-.24.45,1.72,1.72,0,0,0-.08.54,2,2,0,0,0,.07.54,1.23,1.23,0,0,0,.22.44,1,1,0,0,0,.38.29,1.29,1.29,0,0,0,.55.11,1.33,1.33,0,0,0,.44-.07,1,1,0,0,0,.33-.19,1.06,1.06,0,0,0,.23-.28,1.63,1.63,0,0,0,.15-.35h-.34a.76.76,0,0,1-.29.45.85.85,0,0,1-.52.16.86.86,0,0,1-.39-.08.81.81,0,0,1-.28-.22,1,1,0,0,1-.17-.33,1.42,1.42,0,0,1-.06-.4h2.05A1.64,1.64,0,0,0,189.86,69.53Zm-1.74.83a1.37,1.37,0,0,1,.09-.36,1,1,0,0,1,.18-.29.83.83,0,0,1,.27-.2.81.81,0,0,1,.36-.08.85.85,0,0,1,.36.07.76.76,0,0,1,.26.2.86.86,0,0,1,.16.29,1.21,1.21,0,0,1,.05.36Z" style="fill:none;clip-rule:evenodd"/></clipPath><clipPath id="87fc5fe7-b609-48d1-9c1c-62f4f938e1dd" transform="translate(-38 -25.03)"><path d="M192.73,69.54a.77.77,0,0,0-.35-.29,1.2,1.2,0,0,0-.45-.08.88.88,0,0,0-.47.12,2,2,0,0,0-.38.32v-.37h-.31v2.64h.31V70.44c0-.09,0-.18,0-.25a1,1,0,0,1,.06-.24.76.76,0,0,1,.26-.36.81.81,0,0,1,.21-.11.74.74,0,0,1,.26,0,.67.67,0,0,1,.53.18.79.79,0,0,1,.16.53v1.72h.31V70.14a2.65,2.65,0,0,0,0-.31.65.65,0,0,0-.11-.29" style="fill:none;clip-rule:evenodd"/></clipPath><clipPath id="e66c3316-6330-42a3-a2c2-465e4b8ddb5d" transform="translate(-38 -25.03)"><path d="M196.53,70.54a2,2,0,0,0-.41-.13l-.41-.1a1,1,0,0,1-.31-.15.32.32,0,0,1-.12-.27.4.4,0,0,1,.15-.33.69.69,0,0,1,.44-.12.87.87,0,0,1,.48.13.57.57,0,0,1,.23.43h.31a.87.87,0,0,0-.32-.64,1.18,1.18,0,0,0-.7-.19,1,1,0,0,0-.69.21.69.69,0,0,0-.24.54.59.59,0,0,0,.13.4.82.82,0,0,0,.31.22,2,2,0,0,0,.41.11l.41.09a1,1,0,0,1,.31.15.34.34,0,0,1,.13.29.43.43,0,0,1,0,.18.48.48,0,0,1-.12.16.58.58,0,0,1-.2.11.94.94,0,0,1-.29,0,.87.87,0,0,1-.53-.14.77.77,0,0,1-.26-.48h-.31a1,1,0,0,0,.08.35.89.89,0,0,0,.2.28.9.9,0,0,0,.31.19,1.16,1.16,0,0,0,.42.07,1.83,1.83,0,0,0,.43,0,1.06,1.06,0,0,0,.34-.15.71.71,0,0,0,.22-.24.67.67,0,0,0,.08-.33.58.58,0,0,0-.12-.4.89.89,0,0,0-.31-.23" style="fill:none;clip-rule:evenodd"/></clipPath><clipPath id="447aa3f1-9803-4003-afa3-bae2c39b7a26" transform="translate(-38 -25.03)"><path d="M199.54,69.56a1.1,1.1,0,0,0-.38-.29,1.24,1.24,0,0,0-.54-.11,1.23,1.23,0,0,0-.54.11,1.09,1.09,0,0,0-.38.3,1.28,1.28,0,0,0-.23.44,1.86,1.86,0,0,0-.08.54,1.73,1.73,0,0,0,.1.61,1.23,1.23,0,0,0,.26.43,1.08,1.08,0,0,0,.39.26,1.39,1.39,0,0,0,.48.09,1.25,1.25,0,0,0,.5-.1,1.09,1.09,0,0,0,.39-.28,1.29,1.29,0,0,0,.25-.44,1.77,1.77,0,0,0,.09-.57,1.94,1.94,0,0,0-.07-.54,1.21,1.21,0,0,0-.23-.44m-.08,1.4a1.12,1.12,0,0,1-.16.36.78.78,0,0,1-.28.25.84.84,0,0,1-.41.09.89.89,0,0,1-.39-.08.77.77,0,0,1-.28-.23,1.05,1.05,0,0,1-.17-.35,1.64,1.64,0,0,1-.06-.45,1.67,1.67,0,0,1,.05-.41,1.1,1.1,0,0,1,.16-.36.81.81,0,0,1,.28-.25.84.84,0,0,1,.41-.09.9.9,0,0,1,.41.09.76.76,0,0,1,.28.24,1,1,0,0,1,.16.35,1.79,1.79,0,0,1,.05.44,1.64,1.64,0,0,1-.05.41" style="fill:none;clip-rule:evenodd"/></clipPath><clipPath id="d2526c8c-b4df-47d1-a066-2389508805c3" transform="translate(-38 -25.03)"><path d="M202.2,70.66a1.37,1.37,0,0,1-.06.4,1,1,0,0,1-.16.32.71.71,0,0,1-.25.21.76.76,0,0,1-.34.07.66.66,0,0,1-.52-.18.77.77,0,0,1-.16-.52V69.23h-.31V71a1.44,1.44,0,0,0,0,.38.82.82,0,0,0,.16.31.71.71,0,0,0,.29.21,1.16,1.16,0,0,0,.44.07,1,1,0,0,0,.31,0,1,1,0,0,0,.23-.11,1,1,0,0,0,.18-.14l.14-.15v.37h.31V69.23h-.31Z" style="fill:none;clip-rule:evenodd"/></clipPath><clipPath id="819b5eb9-d40b-48f0-8e4b-e8dd37f01558" transform="translate(-38 -25.03)"><path d="M203.57,69.72h0v-.49h-.31v2.64h.31V70.57a2.23,2.23,0,0,1,0-.42.93.93,0,0,1,.14-.35.71.71,0,0,1,.27-.23.91.91,0,0,1,.43-.08v-.33a1,1,0,0,0-.53.13.88.88,0,0,0-.33.44" style="fill:none;clip-rule:evenodd"/></clipPath><clipPath id="67b52dc7-eccb-4271-9106-c10f2fddddee" transform="translate(-38 -25.03)"><path d="M206.57,71.47a.78.78,0,0,1-.55.19.82.82,0,0,1-.41-.09.79.79,0,0,1-.28-.25,1.08,1.08,0,0,1-.16-.36,1.71,1.71,0,0,1,0-.41,1.64,1.64,0,0,1,.05-.4,1.14,1.14,0,0,1,.16-.36.82.82,0,0,1,.28-.26.79.79,0,0,1,.4-.1.76.76,0,0,1,.51.17.89.89,0,0,1,.28.46h.31a1,1,0,0,0-.35-.68,1.18,1.18,0,0,0-.74-.22,1.11,1.11,0,0,0-.9.42,1.37,1.37,0,0,0-.23.45,1.75,1.75,0,0,0-.08.53,2,2,0,0,0,.07.55,1.24,1.24,0,0,0,.22.44,1,1,0,0,0,.38.29,1.44,1.44,0,0,0,1,0,1,1,0,0,0,.33-.2,1.06,1.06,0,0,0,.23-.31,1.55,1.55,0,0,0,.13-.4h-.33a.87.87,0,0,1-.26.52" style="fill:none;clip-rule:evenodd"/></clipPath><clipPath id="163addb2-2e83-4513-8bb1-5fdebef94a11" transform="translate(-38 -25.03)"><path d="M209.71,69.53a1.06,1.06,0,0,0-.86-.37,1.15,1.15,0,0,0-.51.11,1.11,1.11,0,0,0-.38.3,1.37,1.37,0,0,0-.24.45,1.72,1.72,0,0,0-.08.54,2,2,0,0,0,.07.54,1.23,1.23,0,0,0,.22.44,1,1,0,0,0,.38.29,1.29,1.29,0,0,0,.55.11,1.33,1.33,0,0,0,.44-.07,1,1,0,0,0,.33-.19,1.06,1.06,0,0,0,.23-.28,1.62,1.62,0,0,0,.15-.35h-.34a.76.76,0,0,1-.29.45.85.85,0,0,1-.52.16.86.86,0,0,1-.39-.08.81.81,0,0,1-.28-.22A1,1,0,0,1,208,71a1.42,1.42,0,0,1-.06-.4H210A1.64,1.64,0,0,0,209.71,69.53Zm-1.74.83a1.37,1.37,0,0,1,.09-.36,1,1,0,0,1,.18-.29.83.83,0,0,1,.27-.2.81.81,0,0,1,.36-.08.85.85,0,0,1,.36.07.76.76,0,0,1,.26.2.86.86,0,0,1,.16.29,1.21,1.21,0,0,1,.05.36Z" style="fill:none;clip-rule:evenodd"/></clipPath><clipPath id="b7532756-b202-4aad-96e2-c5ac47d54371" transform="translate(-38 -25.03)"><path d="M214.07,69.65a.94.94,0,0,0-.41-.37,1.22,1.22,0,0,0-.54-.12,1.12,1.12,0,0,0-.52.11,1.07,1.07,0,0,0-.37.31A1.31,1.31,0,0,0,212,70a2,2,0,0,0-.07.53,2.16,2.16,0,0,0,.07.55,1.2,1.2,0,0,0,.21.44,1,1,0,0,0,.37.29,1.25,1.25,0,0,0,.55.11,1,1,0,0,0,.26,0,1.25,1.25,0,0,0,.26-.1,1,1,0,0,0,.23-.17.82.82,0,0,0,.17-.23h0v.46h.31V68.2h-.31ZM214,71a1.08,1.08,0,0,1-.17.36.81.81,0,0,1-.28.24.83.83,0,0,1-.38.09.92.92,0,0,1-.36-.07.82.82,0,0,1-.29-.2.94.94,0,0,1-.19-.32,1.3,1.3,0,0,1-.07-.44,1.7,1.7,0,0,1,0-.47,1.11,1.11,0,0,1,.16-.38.81.81,0,0,1,.29-.26.85.85,0,0,1,.41-.09.78.78,0,0,1,.37.09.86.86,0,0,1,.28.24,1.09,1.09,0,0,1,.18.35,1.46,1.46,0,0,1,.06.43A1.62,1.62,0,0,1,214,71Z" style="fill:none;clip-rule:evenodd"/></clipPath><clipPath id="36cf34ac-fd8a-4224-80a0-87a674b30f46" transform="translate(-38 -25.03)"><path d="M217.25,71.64s-.06-.11-.06-.23V70a.91.91,0,0,0-.07-.39.64.64,0,0,0-.2-.25.87.87,0,0,0-.31-.14,1.68,1.68,0,0,0-.78,0,1,1,0,0,0-.34.15.82.82,0,0,0-.24.27.94.94,0,0,0-.11.4h.31a.77.77,0,0,1,.08-.29.52.52,0,0,1,.16-.18.64.64,0,0,1,.23-.1,1.38,1.38,0,0,1,.29,0,.7.7,0,0,1,.51.15.52.52,0,0,1,.15.38.75.75,0,0,1,0,.16.16.16,0,0,1-.09.12l-.2.06-.21,0-.42.06q-.92.12-.92.79a.72.72,0,0,0,.07.33.71.71,0,0,0,.19.24.81.81,0,0,0,.28.14,1.21,1.21,0,0,0,.33,0,1.31,1.31,0,0,0,.54-.11,1.33,1.33,0,0,0,.44-.33.84.84,0,0,0,0,.13.37.37,0,0,0,0,.12.29.29,0,0,0,.07.09.24.24,0,0,0,.12,0l.14,0,.14,0,.1,0v-.24C217.37,71.66,217.29,71.67,217.25,71.64Zm-.37-.75a.69.69,0,0,1-.08.34.72.72,0,0,1-.22.24,1,1,0,0,1-.31.14,1.43,1.43,0,0,1-.36,0l-.21,0a.52.52,0,0,1-.18-.09.44.44,0,0,1-.13-.15.43.43,0,0,1,0-.21.45.45,0,0,1,.2-.4,1.13,1.13,0,0,1,.55-.16l.4,0a1.51,1.51,0,0,0,.39-.11Z" style="fill:none;clip-rule:evenodd"/></clipPath><clipPath id="317cf986-e8fb-4544-af9a-8ecf50bc47bf" transform="translate(-38 -25.03)"><path d="M218.66,71.66l-.15,0a.15.15,0,0,1-.08-.07.29.29,0,0,1,0-.12s0-.1,0-.17V69.48h.49v-.25h-.49V68.5h-.31v.73h-.37v.25h.37v1.93a.56.56,0,0,0,.12.41.49.49,0,0,0,.35.11l.2,0,.15,0v-.25l-.12,0h-.12" style="fill:none;clip-rule:evenodd"/></clipPath><clipPath id="dabfa748-ec5f-4c87-a395-01bd6ae17636" transform="translate(-38 -25.03)"><path d="M221.5,71.64s-.06-.11-.06-.23V70a.91.91,0,0,0-.07-.39.64.64,0,0,0-.2-.25.86.86,0,0,0-.31-.14,1.68,1.68,0,0,0-.78,0,1,1,0,0,0-.34.15.82.82,0,0,0-.24.27.94.94,0,0,0-.11.4h.31a.77.77,0,0,1,.08-.29.52.52,0,0,1,.16-.18.64.64,0,0,1,.23-.1,1.38,1.38,0,0,1,.29,0,.7.7,0,0,1,.51.15.52.52,0,0,1,.15.38.75.75,0,0,1,0,.16.16.16,0,0,1-.09.12l-.2.06-.21,0-.42.06q-.92.12-.92.79a.72.72,0,0,0,.07.33.71.71,0,0,0,.19.24.81.81,0,0,0,.28.14,1.2,1.2,0,0,0,.33,0,1.31,1.31,0,0,0,.54-.11,1.33,1.33,0,0,0,.44-.33.83.83,0,0,0,0,.13.37.37,0,0,0,0,.12.29.29,0,0,0,.07.09.24.24,0,0,0,.12,0l.14,0,.14,0,.1,0v-.24C221.63,71.66,221.54,71.67,221.5,71.64Zm-.37-.75a.69.69,0,0,1-.08.34.72.72,0,0,1-.22.24,1,1,0,0,1-.31.14,1.43,1.43,0,0,1-.36,0l-.21,0a.52.52,0,0,1-.18-.09.44.44,0,0,1-.13-.15.43.43,0,0,1,0-.21.45.45,0,0,1,.2-.4,1.13,1.13,0,0,1,.55-.16l.4,0a1.51,1.51,0,0,0,.39-.11Z" style="fill:none;clip-rule:evenodd"/></clipPath><clipPath id="38cda6bd-5333-448f-87ef-a1443da4e57f" transform="translate(-38 -25.03)"><path d="M224.41,69.58a1.07,1.07,0,0,0-.37-.31,1.12,1.12,0,0,0-.52-.11,1.22,1.22,0,0,0-.54.13.94.94,0,0,0-.41.37V68.2h-.31v3.66h.31V71.4h0a.82.82,0,0,0,.17.23,1,1,0,0,0,.23.17,1.2,1.2,0,0,0,.26.1,1,1,0,0,0,.26,0,1.27,1.27,0,0,0,.55-.11,1,1,0,0,0,.37-.29,1.2,1.2,0,0,0,.21-.44,2.16,2.16,0,0,0,.07-.55,2,2,0,0,0-.07-.53,1.31,1.31,0,0,0-.22-.44m0,1.05a1.29,1.29,0,0,1-.07.44.94.94,0,0,1-.19.32.82.82,0,0,1-.29.2.92.92,0,0,1-.36.07.83.83,0,0,1-.38-.09.81.81,0,0,1-.28-.24,1.07,1.07,0,0,1-.17-.36,1.62,1.62,0,0,1-.06-.44,1.45,1.45,0,0,1,.06-.43,1.09,1.09,0,0,1,.18-.35.86.86,0,0,1,.28-.24.78.78,0,0,1,.38-.09.86.86,0,0,1,.41.09.8.8,0,0,1,.29.26,1.11,1.11,0,0,1,.16.38,1.72,1.72,0,0,1,0,.47" style="fill:none;clip-rule:evenodd"/></clipPath><clipPath id="89fb0c82-d18b-42e3-aa16-43da87ffdec4" transform="translate(-38 -25.03)"><path d="M227.45,71.64s-.06-.11-.06-.23V70a.91.91,0,0,0-.07-.39.64.64,0,0,0-.2-.25.87.87,0,0,0-.31-.14,1.68,1.68,0,0,0-.78,0,1,1,0,0,0-.34.15.82.82,0,0,0-.24.27.94.94,0,0,0-.11.4h.31a.77.77,0,0,1,.08-.29.52.52,0,0,1,.16-.18.64.64,0,0,1,.23-.1,1.38,1.38,0,0,1,.29,0,.7.7,0,0,1,.51.15.52.52,0,0,1,.15.38.75.75,0,0,1,0,.16.16.16,0,0,1-.09.12l-.2.06-.21,0-.42.06q-.92.12-.92.79a.72.72,0,0,0,.07.33.71.71,0,0,0,.19.24.81.81,0,0,0,.28.14,1.2,1.2,0,0,0,.33,0,1.31,1.31,0,0,0,.54-.11,1.33,1.33,0,0,0,.44-.33.83.83,0,0,0,0,.13.37.37,0,0,0,0,.12.29.29,0,0,0,.07.09.24.24,0,0,0,.12,0l.14,0,.14,0,.1,0v-.24C227.58,71.66,227.5,71.67,227.45,71.64Zm-.37-.75a.69.69,0,0,1-.08.34.72.72,0,0,1-.22.24,1,1,0,0,1-.31.14,1.43,1.43,0,0,1-.36,0l-.21,0a.52.52,0,0,1-.18-.09.44.44,0,0,1-.13-.15.43.43,0,0,1,0-.21.45.45,0,0,1,.2-.4,1.13,1.13,0,0,1,.55-.16l.4,0a1.51,1.51,0,0,0,.39-.11Z" style="fill:none;clip-rule:evenodd"/></clipPath><clipPath id="8c7a7969-ed31-46df-8def-59bf59d9e624" transform="translate(-38 -25.03)"><path d="M229.7,70.54a2,2,0,0,0-.41-.13l-.41-.1a1,1,0,0,1-.31-.15.32.32,0,0,1-.12-.27.4.4,0,0,1,.15-.33.69.69,0,0,1,.44-.12.87.87,0,0,1,.48.13.57.57,0,0,1,.23.43h.31a.87.87,0,0,0-.32-.64,1.18,1.18,0,0,0-.7-.19,1,1,0,0,0-.69.21.69.69,0,0,0-.24.54.59.59,0,0,0,.13.4.82.82,0,0,0,.31.22,2,2,0,0,0,.41.11l.41.09a1,1,0,0,1,.31.15.34.34,0,0,1,.13.29.43.43,0,0,1,0,.18.48.48,0,0,1-.12.16.58.58,0,0,1-.2.11.93.93,0,0,1-.29,0,.87.87,0,0,1-.53-.14.77.77,0,0,1-.26-.48h-.31a1,1,0,0,0,.08.35.89.89,0,0,0,.2.28.9.9,0,0,0,.31.19,1.16,1.16,0,0,0,.42.07,1.83,1.83,0,0,0,.43,0,1.06,1.06,0,0,0,.34-.15.71.71,0,0,0,.22-.24.67.67,0,0,0,.08-.33.58.58,0,0,0-.12-.4.89.89,0,0,0-.31-.23" style="fill:none;clip-rule:evenodd"/></clipPath><clipPath id="a1970d43-28d9-4c7f-b540-9ae87d6df0a1" transform="translate(-38 -25.03)"><path d="M232.33,71.5a.85.85,0,0,1-.52.16.86.86,0,0,1-.39-.08.81.81,0,0,1-.28-.22A1,1,0,0,1,231,71a1.43,1.43,0,0,1-.06-.4H233a1.64,1.64,0,0,0-.31-1.09,1.06,1.06,0,0,0-.86-.37,1.15,1.15,0,0,0-.51.11,1.11,1.11,0,0,0-.38.3,1.37,1.37,0,0,0-.24.45,1.72,1.72,0,0,0-.08.54,2,2,0,0,0,.07.54,1.24,1.24,0,0,0,.22.44,1,1,0,0,0,.38.29,1.28,1.28,0,0,0,.55.11,1.33,1.33,0,0,0,.44-.07,1,1,0,0,0,.33-.19,1.06,1.06,0,0,0,.23-.28,1.63,1.63,0,0,0,.15-.35h-.34a.76.76,0,0,1-.29.45M231,70a1,1,0,0,1,.18-.29.83.83,0,0,1,.27-.2.81.81,0,0,1,.36-.08.85.85,0,0,1,.36.07.75.75,0,0,1,.26.2.86.86,0,0,1,.16.29,1.21,1.21,0,0,1,.05.36h-1.72A1.37,1.37,0,0,1,231,70" style="fill:none;clip-rule:evenodd"/></clipPath></defs><title>postresql</title><g id="5793360a-0e9b-4e0b-90e9-1c81387e57d7" data-name="Слой 2"><g id="acf8c100-5558-4c46-8983-cbd32207fd4d" data-name="Слой 1"><g style="opacity:0.75;isolation:isolate"><g style="clip-path:url(#2b26fe5c-1d67-4619-9600-0f93f8e009ac)"><g style="clip-path:url(#c92a8d4d-a001-471e-b088-8a08e073b690)"><g style="clip-path:url(#ae8a8cfa-8132-4091-ae6d-5272e3f14183)"><rect x="53.98" y="44.06" width="21.17" height="13.44" style="fill:#4b4b4b"/></g></g><g style="clip-path:url(#80ae9315-41c6-477f-82b5-2bc53f69ec0d)"><g style="clip-path:url(#ae8a8cfa-8132-4091-ae6d-5272e3f14183)"><rect width="79.83" height="81.8" style="fill:#4b4b4b"/></g></g><g style="clip-path:url(#21b27dd9-7f37-4cbe-93b9-17b96880ee5a)"><g style="clip-path:url(#ae8a8cfa-8132-4091-ae6d-5272e3f14183)"><rect x="21.98" y="20.97" width="20.9" height="30.96" style="fill:#4b4b4b"/></g></g><g style="clip-path:url(#6ace0e0b-65dd-419c-883b-4618920bf657)"><g style="clip-path:url(#ae8a8cfa-8132-4091-ae6d-5272e3f14183)"><rect x="23.24" y="44.34" width="20.56" height="16.01" style="fill:#4b4b4b"/></g></g><g style="clip-path:url(#26453022-d8c6-4236-b7b6-71c426fcdc24)"><g style="clip-path:url(#ae8a8cfa-8132-4091-ae6d-5272e3f14183)"><rect x="3.97" y="4.84" width="32.02" height="54.54" style="fill:#4b4b4b"/></g></g><g style="clip-path:url(#da4ebcdb-aff2-4fdc-869b-b08bf6d53e30)"><g style="clip-path:url(#ae8a8cfa-8132-4091-ae6d-5272e3f14183)"><rect x="22.34" y="4.68" width="43.04" height="73.24" style="fill:#4b4b4b"/></g></g><g style="clip-path:url(#b7db58f0-cf02-4c68-885d-7d3fe0f76bd4)"><g style="clip-path:url(#ae8a8cfa-8132-4091-ae6d-5272e3f14183)"><rect x="48.84" y="20.64" width="16.77" height="27.74" style="fill:#4b4b4b"/></g></g><g style="clip-path:url(#e46e517f-3648-4067-80cb-c8f8b14f90ab)"><g style="clip-path:url(#ae8a8cfa-8132-4091-ae6d-5272e3f14183)"><rect x="44.93" y="3.92" width="30.47" height="46.73" style="fill:#4b4b4b"/></g></g><g style="clip-path:url(#0247d0fd-5f04-46a7-af50-0bbee451a0b9)"><g style="clip-path:url(#ae8a8cfa-8132-4091-ae6d-5272e3f14183)"><rect x="75.31" y="20.41" width="20.67" height="22.14" style="fill:#4b4b4b"/></g></g><g style="clip-path:url(#f9b6fb82-8880-4898-8365-f2371dd91888)"><g style="clip-path:url(#ae8a8cfa-8132-4091-ae6d-5272e3f14183)"><rect x="87.55" y="23.58" width="20.29" height="19.21" style="fill:#4b4b4b"/></g></g><g style="clip-path:url(#60273ac7-65a8-46e2-836c-47ac1f47e56e)"><g style="clip-path:url(#ae8a8cfa-8132-4091-ae6d-5272e3f14183)"><rect x="99.64" y="23.58" width="18.75" height="19.21" style="fill:#4b4b4b"/></g></g><g style="clip-path:url(#8ee970d6-3805-4bf6-916b-a90ee770f623)"><g style="clip-path:url(#ae8a8cfa-8132-4091-ae6d-5272e3f14183)"><rect x="109.8" y="21.39" width="15.02" height="21.4" style="fill:#4b4b4b"/></g></g><g style="clip-path:url(#ca8996ff-40bf-48b9-be6b-bb6844c24edd)"><g style="clip-path:url(#ae8a8cfa-8132-4091-ae6d-5272e3f14183)"><rect x="116.53" y="23.58" width="20.2" height="22.55" style="fill:#4b4b4b"/></g></g><g style="clip-path:url(#1bc1d3cd-1f52-40d2-afcf-26ca20359cb4)"><g style="clip-path:url(#ae8a8cfa-8132-4091-ae6d-5272e3f14183)"><rect x="130.03" y="23.58" width="14.95" height="18.97" style="fill:#4b4b4b"/></g></g><g style="clip-path:url(#ddf7c2ac-0230-4981-b198-455431e5ee2b)"><g style="clip-path:url(#ae8a8cfa-8132-4091-ae6d-5272e3f14183)"><rect x="136.53" y="23.58" width="19.99" height="19.21" style="fill:#4b4b4b"/></g></g><g style="clip-path:url(#b46a6f10-77b0-49ba-b4b9-ad99ebfa124a)"><g style="clip-path:url(#ae8a8cfa-8132-4091-ae6d-5272e3f14183)"><rect x="148.4" y="20.09" width="21.23" height="22.78" style="fill:#4b4b4b"/></g></g><g style="clip-path:url(#daf77a69-7363-44a3-a76e-f31358c1128b)"><g style="clip-path:url(#ae8a8cfa-8132-4091-ae6d-5272e3f14183)"><rect x="161.61" y="20.09" width="24.38" height="23.34" style="fill:#4b4b4b"/></g></g><g style="clip-path:url(#a4a7d498-a190-4614-90b5-42f565330f19)"><g style="clip-path:url(#ae8a8cfa-8132-4091-ae6d-5272e3f14183)"><rect x="178.99" y="20.41" width="19.73" height="22.14" style="fill:#4b4b4b"/></g></g><g style="clip-path:url(#8b4932e4-e60f-4898-91d2-74b753b6ad1f)"><g style="clip-path:url(#ae8a8cfa-8132-4091-ae6d-5272e3f14183)"><rect x="75.77" y="38.47" width="11.19" height="13.44" style="fill:#4b4b4b"/></g></g><g style="clip-path:url(#5c7d4c0f-5b7e-4931-9aaa-3f92e3c1c191)"><g style="clip-path:url(#ae8a8cfa-8132-4091-ae6d-5272e3f14183)"><rect x="77.46" y="38.17" width="12.1" height="13.66" style="fill:#4b4b4b"/></g></g><g style="clip-path:url(#f2a22273-5131-4745-8304-5669b8145ee4)"><g style="clip-path:url(#ae8a8cfa-8132-4091-ae6d-5272e3f14183)"><rect x="80.16" y="39.13" width="12.38" height="12.78" style="fill:#4b4b4b"/></g></g><g style="clip-path:url(#cbebfcdb-cad6-4fa3-a315-ccb550aa3656)"><g style="clip-path:url(#ae8a8cfa-8132-4091-ae6d-5272e3f14183)"><rect x="84.26" y="39.2" width="13.53" height="12.64" style="fill:#4b4b4b"/></g></g><g style="clip-path:url(#a44f26ce-354e-4f63-bbd4-193129c164b4)"><g style="clip-path:url(#ae8a8cfa-8132-4091-ae6d-5272e3f14183)"><rect x="88.06" y="39.13" width="12.45" height="12.78" style="fill:#4b4b4b"/></g></g><g style="clip-path:url(#8dcab273-efff-4266-98ee-4e0f39b69625)"><g style="clip-path:url(#ae8a8cfa-8132-4091-ae6d-5272e3f14183)"><rect x="91.08" y="39.13" width="11.18" height="12.71" style="fill:#4b4b4b"/></g></g><g style="clip-path:url(#5d0c793b-cfb2-4cca-985c-f7bc9fd95d62)"><g style="clip-path:url(#ae8a8cfa-8132-4091-ae6d-5272e3f14183)"><rect x="92.81" y="38.17" width="10.5" height="13.66" style="fill:#4b4b4b"/></g></g><g style="clip-path:url(#329d42c2-f0b0-465e-9d64-6713bed61460)"><g style="clip-path:url(#ae8a8cfa-8132-4091-ae6d-5272e3f14183)"><rect x="93.82" y="38.17" width="12.43" height="13.73" style="fill:#4b4b4b"/></g></g><g style="clip-path:url(#e01fd05c-861c-4dcb-91a8-84ec8cbd9fce)"><g style="clip-path:url(#ae8a8cfa-8132-4091-ae6d-5272e3f14183)"><rect x="97.06" y="38.17" width="10.5" height="11.14" style="fill:#4b4b4b"/></g></g><g style="clip-path:url(#8e65163f-2545-4ce3-a49a-c89b0e610e89)"><g style="clip-path:url(#ae8a8cfa-8132-4091-ae6d-5272e3f14183)"><rect x="98.01" y="39.13" width="12.08" height="12.78" style="fill:#4b4b4b"/></g></g><g style="clip-path:url(#68164b86-63cd-436d-aded-e06ffcbd8157)"><g style="clip-path:url(#ae8a8cfa-8132-4091-ae6d-5272e3f14183)"><rect x="102.08" y="39.13" width="13.59" height="12.71" style="fill:#4b4b4b"/></g></g><g style="clip-path:url(#79584eae-8873-4c2e-a668-bf8b99748f1c)"><g style="clip-path:url(#ae8a8cfa-8132-4091-ae6d-5272e3f14183)"><rect x="106.19" y="39.13" width="12.45" height="12.78" style="fill:#4b4b4b"/></g></g><g style="clip-path:url(#e7062676-2837-4299-83ed-0998000c8af3)"><g style="clip-path:url(#ae8a8cfa-8132-4091-ae6d-5272e3f14183)"><rect x="109.07" y="39.13" width="12.08" height="12.78" style="fill:#4b4b4b"/></g></g><g style="clip-path:url(#dd2f471e-e8fb-4d95-858b-88b215714b7d)"><g style="clip-path:url(#ae8a8cfa-8132-4091-ae6d-5272e3f14183)"><rect x="111.49" y="38.47" width="11.19" height="13.44" style="fill:#4b4b4b"/></g></g><g style="clip-path:url(#3405ffad-24bf-47ac-8000-c69ee6f68650)"><g style="clip-path:url(#ae8a8cfa-8132-4091-ae6d-5272e3f14183)"><rect x="114.46" y="39.13" width="12.49" height="12.78" style="fill:#4b4b4b"/></g></g><g style="clip-path:url(#cc2bca29-04b9-4293-8331-58e4b02ae453)"><g style="clip-path:url(#ae8a8cfa-8132-4091-ae6d-5272e3f14183)"><rect x="117.34" y="38.17" width="12.43" height="13.73" style="fill:#4b4b4b"/></g></g><g style="clip-path:url(#455dbcd0-900d-459b-b0c9-3624634ce96a)"><g style="clip-path:url(#ae8a8cfa-8132-4091-ae6d-5272e3f14183)"><rect x="120.26" y="39.2" width="12.38" height="12.64" style="fill:#4b4b4b"/></g></g><g style="clip-path:url(#624247c1-1a2a-41ac-b2fb-e15a6da93d82)"><g style="clip-path:url(#ae8a8cfa-8132-4091-ae6d-5272e3f14183)"><rect x="122.96" y="39.13" width="12.49" height="12.78" style="fill:#4b4b4b"/></g></g><g style="clip-path:url(#5f7e3df5-980a-4a83-b9b8-db742e88b1b0)"><g style="clip-path:url(#ae8a8cfa-8132-4091-ae6d-5272e3f14183)"><rect x="125.93" y="39.13" width="12.1" height="12.71" style="fill:#4b4b4b"/></g></g><g style="clip-path:url(#957c5dba-dc9f-4966-acf3-8d7933ef96de)"><g style="clip-path:url(#ae8a8cfa-8132-4091-ae6d-5272e3f14183)"><rect x="128.64" y="39.13" width="12.35" height="12.78" style="fill:#4b4b4b"/></g></g><g style="clip-path:url(#6475b859-cf8f-4b94-8e98-abfc87733b33)"><g style="clip-path:url(#ae8a8cfa-8132-4091-ae6d-5272e3f14183)"><rect x="131.46" y="39.13" width="12.38" height="12.78" style="fill:#4b4b4b"/></g></g><g style="clip-path:url(#86fff23c-1e86-4152-8561-eb11ac553472)"><g style="clip-path:url(#ae8a8cfa-8132-4091-ae6d-5272e3f14183)"><rect x="134.36" y="38.17" width="12.43" height="13.73" style="fill:#4b4b4b"/></g></g><g style="clip-path:url(#8f432066-afa4-4185-a648-44ebf0748dcf)"><g style="clip-path:url(#ae8a8cfa-8132-4091-ae6d-5272e3f14183)"><rect x="138.8" y="39.13" width="12.45" height="12.78" style="fill:#4b4b4b"/></g></g><g style="clip-path:url(#aa925427-1561-4cf8-a60b-eb6f00a3ce19)"><g style="clip-path:url(#ae8a8cfa-8132-4091-ae6d-5272e3f14183)"><rect x="141.85" y="39.13" width="12.43" height="13.74" style="fill:#4b4b4b"/></g></g><g style="clip-path:url(#ff9da2dd-28d6-413c-aa68-f5f0c108f6f6)"><g style="clip-path:url(#ae8a8cfa-8132-4091-ae6d-5272e3f14183)"><rect x="144.79" y="39.13" width="12.38" height="12.78" style="fill:#4b4b4b"/></g></g><g style="clip-path:url(#87fc5fe7-b609-48d1-9c1c-62f4f938e1dd)"><g style="clip-path:url(#ae8a8cfa-8132-4091-ae6d-5272e3f14183)"><rect x="147.76" y="39.13" width="12.1" height="12.71" style="fill:#4b4b4b"/></g></g><g style="clip-path:url(#e66c3316-6330-42a3-a2c2-465e4b8ddb5d)"><g style="clip-path:url(#ae8a8cfa-8132-4091-ae6d-5272e3f14183)"><rect x="151.88" y="39.13" width="12.08" height="12.78" style="fill:#4b4b4b"/></g></g><g style="clip-path:url(#447aa3f1-9803-4003-afa3-bae2c39b7a26)"><g style="clip-path:url(#ae8a8cfa-8132-4091-ae6d-5272e3f14183)"><rect x="154.39" y="39.13" width="12.45" height="12.78" style="fill:#4b4b4b"/></g></g><g style="clip-path:url(#d2526c8c-b4df-47d1-a066-2389508805c3)"><g style="clip-path:url(#ae8a8cfa-8132-4091-ae6d-5272e3f14183)"><rect x="157.4" y="39.2" width="12.1" height="12.71" style="fill:#4b4b4b"/></g></g><g style="clip-path:url(#819b5eb9-d40b-48f0-8e4b-e8dd37f01558)"><g style="clip-path:url(#ae8a8cfa-8132-4091-ae6d-5272e3f14183)"><rect x="160.26" y="39.13" width="11.18" height="12.71" style="fill:#4b4b4b"/></g></g><g style="clip-path:url(#67b52dc7-eccb-4271-9106-c10f2fddddee)"><g style="clip-path:url(#ae8a8cfa-8132-4091-ae6d-5272e3f14183)"><rect x="161.81" y="39.13" width="12.35" height="12.78" style="fill:#4b4b4b"/></g></g><g style="clip-path:url(#163addb2-2e83-4513-8bb1-5fdebef94a11)"><g style="clip-path:url(#ae8a8cfa-8132-4091-ae6d-5272e3f14183)"><rect x="164.64" y="39.13" width="12.38" height="12.78" style="fill:#4b4b4b"/></g></g><g style="clip-path:url(#b7532756-b202-4aad-96e2-c5ac47d54371)"><g style="clip-path:url(#ae8a8cfa-8132-4091-ae6d-5272e3f14183)"><rect x="168.95" y="38.17" width="12.43" height="13.73" style="fill:#4b4b4b"/></g></g><g style="clip-path:url(#36cf34ac-fd8a-4224-80a0-87a674b30f46)"><g style="clip-path:url(#ae8a8cfa-8132-4091-ae6d-5272e3f14183)"><rect x="172.01" y="39.13" width="12.49" height="12.78" style="fill:#4b4b4b"/></g></g><g style="clip-path:url(#317cf986-e8fb-4544-af9a-8ecf50bc47bf)"><g style="clip-path:url(#ae8a8cfa-8132-4091-ae6d-5272e3f14183)"><rect x="174.72" y="38.47" width="11.19" height="13.44" style="fill:#4b4b4b"/></g></g><g style="clip-path:url(#dabfa748-ec5f-4c87-a395-01bd6ae17636)"><g style="clip-path:url(#ae8a8cfa-8132-4091-ae6d-5272e3f14183)"><rect x="176.27" y="39.13" width="12.49" height="12.78" style="fill:#4b4b4b"/></g></g><g style="clip-path:url(#38cda6bd-5333-448f-87ef-a1443da4e57f)"><g style="clip-path:url(#ae8a8cfa-8132-4091-ae6d-5272e3f14183)"><rect x="179.27" y="38.17" width="12.43" height="13.73" style="fill:#4b4b4b"/></g></g><g style="clip-path:url(#89fb0c82-d18b-42e3-aa16-43da87ffdec4)"><g style="clip-path:url(#ae8a8cfa-8132-4091-ae6d-5272e3f14183)"><rect x="182.22" y="39.13" width="12.49" height="12.78" style="fill:#4b4b4b"/></g></g><g style="clip-path:url(#8c7a7969-ed31-46df-8def-59bf59d9e624)"><g style="clip-path:url(#ae8a8cfa-8132-4091-ae6d-5272e3f14183)"><rect x="185.06" y="39.13" width="12.08" height="12.78" style="fill:#4b4b4b"/></g></g><g style="clip-path:url(#a1970d43-28d9-4c7f-b540-9ae87d6df0a1)"><g style="clip-path:url(#ae8a8cfa-8132-4091-ae6d-5272e3f14183)"><rect x="187.6" y="39.13" width="12.38" height="12.78" style="fill:#4b4b4b"/></g></g></g></g></g></g></svg>