<svg xmlns="http://www.w3.org/2000/svg" xmlns:xlink="http://www.w3.org/1999/xlink" width="189.92" height="68.9" viewBox="0 0 189.92 68.9"><defs><clipPath id="91a0ec8e-ef38-4530-a1ec-370df9f1ea12" transform="translate(-43 -32)"><rect x="48" y="37" width="180" height="59" style="fill:none"/></clipPath><clipPath id="0fdbdf1e-66ba-423e-9560-c48a6b3d77f6" transform="translate(-43 -32)"><path d="M185.19,91.36a1.59,1.59,0,0,0-.51-.37,1.56,1.56,0,0,0-.65-.13,1.46,1.46,0,0,0-.41.05,1.44,1.44,0,0,0-.31.13,1.23,1.23,0,0,0-.23.17,1.32,1.32,0,0,0-.16.17h0V89.05h-.83v5.2h.79v-.5h0a1.13,1.13,0,0,0,.48.44,1.47,1.47,0,0,0,.66.15,1.55,1.55,0,0,0,1.19-.52,1.69,1.69,0,0,0,.32-.56,2,2,0,0,0,.11-.69,2,2,0,0,0-.12-.68A1.67,1.67,0,0,0,185.19,91.36ZM184.74,93a1,1,0,0,1-.18.34.91.91,0,0,1-.3.25,1,1,0,0,1-.83,0,1,1,0,0,1-.31-.24,1.07,1.07,0,0,1-.19-.34,1.18,1.18,0,0,1-.07-.38,1.22,1.22,0,0,1,.07-.39,1.07,1.07,0,0,1,.19-.34,1,1,0,0,1,.31-.25.85.85,0,0,1,.41-.1.9.9,0,0,1,.42.09.87.87,0,0,1,.3.25,1,1,0,0,1,.18.34,1.29,1.29,0,0,1,.06.38A1.32,1.32,0,0,1,184.74,93Zm-7.27-40.65a2.78,2.78,0,0,0-2.66-3c-1.46,0-2.36,1.16-2.36,3q0,4.51,0,9c0,3.16-.06,6.33,0,9.49a3.62,3.62,0,0,0,1,2.12,2,2,0,0,0,2.54.25,2.6,2.6,0,0,0,1.46-2.41c0-2.33,0-4.67,0-7C177.47,59.91,177.48,56.12,177.47,52.32ZM123.8,60.84c-1.6-.75-3.32-1.26-5-1.91a18.28,18.28,0,0,1-3.12-1.41,2.1,2.1,0,0,1,.21-3.75,4.89,4.89,0,0,1,1.93-.48,11.93,11.93,0,0,1,5.79,1.51,2.06,2.06,0,1,0,1.86-3.65,15.21,15.21,0,0,0-2.63-1.09c-3.14-1-6.28-1.24-9.33.37a6.42,6.42,0,0,0-3.56,6,5.74,5.74,0,0,0,3.75,5.43c1,.46,2.06.79,3.11,1.16,1.41.5,2.86.93,4.24,1.51a2.31,2.31,0,0,1,1.62,2.27,2.52,2.52,0,0,1-2,2.36,6.58,6.58,0,0,1-1.39.23,12.38,12.38,0,0,1-7.17-2.11,2,2,0,0,0-2.92.5,2.06,2.06,0,0,0,.79,2.95,17.83,17.83,0,0,0,9.4,2.76,25.85,25.85,0,0,0,3.92-1,6.23,6.23,0,0,0,4-5.7A5.61,5.61,0,0,0,123.8,60.84ZM90.15,44.5A24.39,24.39,0,1,0,55.89,79.17a2,2,0,0,1-.3-1.07A2.09,2.09,0,1,1,56.81,80a24.28,24.28,0,0,0,15.63,5.7,24.82,24.82,0,0,0,24.74-24.5c0-5.74-1.74-14.1-4.42-21.26Zm6,15.22a22.72,22.72,0,0,1-1.31,8.66c-2.12,5.62-6.45,8.46-12.24,9.13-3.38.39-6.83.3-10.24.37-2.77.05-6-.06-9.11-.06C65.82,77,68.62,76.15,71,75.4c9.24-3,17.19-10.4,19.29-19.75-1.67,4.4-8.5,13-19.19,16.41-3.43,1.08-7,1.76-10.5,2.56a2.16,2.16,0,0,1-1.47-.26A8.12,8.12,0,0,1,55.44,68c-.52-6.73,4.1-12.23,11-13.65,2.88-.6,5.85-.44,8.8-.76,7.78-.81,15.09-6.33,17.3-10.94,0,0,.4.9.48,1.16A56.13,56.13,0,0,1,96.11,59.72Zm39.69-7c-.17.21-.3.46-.46.69l-.35-.17a6,6,0,0,0-.11-.91,7.6,7.6,0,0,0-.6-1.89,2.38,2.38,0,0,0-2.8-1,2.69,2.69,0,0,0-1.8,2.88q0,12.45,0,24.9a4.65,4.65,0,0,0,.21,1.39,2.4,2.4,0,0,0,2.44,1.7,2.47,2.47,0,0,0,2.32-1.87,8.54,8.54,0,0,0,.24-1.87c0-2,0-4,0-5.93,0-.32.07-.64.13-1.15.39.37.62.57.84.79a10,10,0,0,0,14.44.17c4.6-4.49,4.73-13.25.34-17.94C146.93,48.54,139.85,47.66,135.81,52.67Zm9.85,15.17a6.81,6.81,0,0,1-9.18-1.24,8.4,8.4,0,0,1,.31-10.89,6.43,6.43,0,0,1,6.72-1.91,6.81,6.81,0,0,1,4.9,5.3,17.68,17.68,0,0,1,.31,2C148.61,63.93,147.87,66.24,145.66,67.84Zm21.18-18.49a7.93,7.93,0,0,0-5.27,3.38,3.23,3.23,0,0,1-.23-.53c-.26-1.94-1.31-3-2.76-2.91s-2.3,1.22-2.3,3.17q0,9,0,18c0,1.79,1,3,2.53,2.94s2.49-1.21,2.5-3c0-2.49,0-5,0-7.47,0-4.37,2.51-7.94,6.67-8.75A2.35,2.35,0,0,0,169.83,51,2.48,2.48,0,0,0,166.83,49.35Zm8-4.16a2.69,2.69,0,0,0,2.59-2.56,2.61,2.61,0,0,0-2.61-2.53,2.66,2.66,0,0,0-2.56,2.48A2.74,2.74,0,0,0,174.87,45.19Zm25.78,43h-1.32s0,.05,0,.07q0,3.09,0,6.19c0,.06,0,.08.08.08h1.16c.07,0,.08,0,.08-.09q0-3.09,0-6.18Zm27-17.16a70.91,70.91,0,0,0,.25-7.92c0-3.76,0-7.51,0-11.27a2.51,2.51,0,0,0-2.54-2.58,2.55,2.55,0,0,0-2.45,2.56c0,.46,0,.92,0,1.38l-.61.37a5,5,0,0,0-.48-1c-3.54-4.43-9.81-4.24-13.64-1.17s-5.37,8.9-3.71,14.28c2.44,7.93,12.33,10.37,17.48,4.38a4,4,0,0,1,.66-.49,5.77,5.77,0,0,1-4.65,6.18,14,14,0,0,1-9.46-1.22,3.78,3.78,0,0,0-1.89-.45,1.9,1.9,0,0,0-1.71,1.73A2,2,0,0,0,206.15,78a20.5,20.5,0,0,0,13.06,1.8C224.18,78.89,227,76,227.63,71Zm-7.69-3.33A6.81,6.81,0,0,1,209.11,63a9.23,9.23,0,0,1,.48-5.1A6.76,6.76,0,0,1,217,53.57a7.26,7.26,0,0,1,5.93,6.89c0,.28,0,.55,0,.83A7.16,7.16,0,0,1,219.94,67.69Zm-3,21.5h1.94c.09,0,.09,0,.09-.09v-.92h-2c-.12,0-.12,0-.12-.13q0-.58,0-1.15c0-.09,0-.09-.09-.08l-1.18.16c-.06,0-.07,0-.07.08q0,2.92,0,5.85a2.7,2.7,0,0,0,.05.51,1.2,1.2,0,0,0,.78.94,2.09,2.09,0,0,0,.73.14H219v-1h-1.32l-.37,0a.46.46,0,0,1-.45-.41,1.16,1.16,0,0,1,0-.2q0-1.77,0-3.54C216.83,89.17,216.82,89.19,217,89.19Zm8.24-.77-.1,0a10.75,10.75,0,0,0-2.2-.3,4,4,0,0,0-1.12.09,2.44,2.44,0,0,0-1.53,1.06,2.8,2.8,0,0,0-.44,1.41,9.11,9.11,0,0,0,0,1.53,2.79,2.79,0,0,0,.32,1,2.5,2.5,0,0,0,2.07,1.29c.26,0,.53,0,.8,0,.07,0,.08,0,.08-.08,0-.3,0-.6,0-.9,0,0,0,0,0-.08H223c-.18,0-.35,0-.53,0a1.41,1.41,0,0,1-1-.58,1.94,1.94,0,0,1-.37-1.13c0-.27,0-.54,0-.81a2.3,2.3,0,0,1,.14-.78,1.49,1.49,0,0,1,1.43-1l.7,0,.62.06c.06,0,.08,0,.08.09q0,2.56,0,5.13v.09h1.24c.06,0,.07,0,.07-.08q0-2.94,0-5.87A.15.15,0,0,0,225.2,88.42Zm-10.92,1.44a2.57,2.57,0,0,0-1.71-1.54,3.48,3.48,0,0,0-1.62-.09,2.79,2.79,0,0,0-1.17.46,2.58,2.58,0,0,0-1.12,2.16c0,.38,0,.75,0,1.13a3.11,3.11,0,0,0,.06.57,2.64,2.64,0,0,0,2.3,2.08l.37,0h.43a3.09,3.09,0,0,0,1-.23,2.57,2.57,0,0,0,1.63-2.33c0-.44,0-.87,0-1.31A2.56,2.56,0,0,0,214.29,89.86ZM212.8,93.1a1.53,1.53,0,0,1-.89.49,1.77,1.77,0,0,1-1.18-.17,1.52,1.52,0,0,1-.78-1.08,3.06,3.06,0,0,1,0-.49c0-.15,0-.3,0-.45h0c0-.2,0-.41,0-.61a1.64,1.64,0,0,1,.59-1.25,1.53,1.53,0,0,1,.77-.32,1.82,1.82,0,0,1,1,.1,1.55,1.55,0,0,1,1,1.13,2.21,2.21,0,0,1,.06.49c0,.34,0,.67,0,1A1.73,1.73,0,0,1,212.8,93.1ZM226.59,86s0,.07,0,.1v8.46h1.32V86s0-.07,0-.1Zm-26,1.28c.06,0,.08,0,.07-.08s0-.32,0-.48,0-.48,0-.72h-1.31v1.27h1.24ZM197,86.38a4.3,4.3,0,0,0-1.56-.4L195,86h-2.59v8.56h1.38V87.14h.05l1.32,0a2.62,2.62,0,0,1,.83.15,1.18,1.18,0,0,1,.8.84,2.12,2.12,0,0,1,0,.81,1.22,1.22,0,0,1-.26.64,1.43,1.43,0,0,1-.89.47,4.44,4.44,0,0,1-.88.05c-.11,0-.11,0-.11.11v.93c0,.11,0,.11.11.12a7,7,0,0,0,1,0,3.74,3.74,0,0,0,1.15-.31,2.11,2.11,0,0,0,1.18-1.38,3.48,3.48,0,0,0,.06-1.48A2.14,2.14,0,0,0,197,86.38Zm10.17,1.79a.09.09,0,0,0-.11.08l-.45,1.44-1.1,3.46c0,.1-.07.21-.11.31a.23.23,0,0,1-.23.16.24.24,0,0,1-.24-.14l0-.08-.36-1.15-1.24-4a.08.08,0,0,0-.09-.07h-1.51v.92h.52a.09.09,0,0,1,.11.08c0,.07,0,.13.06.19L203.55,93c.11.34.22.68.37,1a1.11,1.11,0,0,0,.79.66l.28.05h.27l.08,0a1.14,1.14,0,0,0,.6-.22,1.52,1.52,0,0,0,.51-.75l1.16-3.43.6-1.78.09-.29h-1.18ZM187.8,93.35h0l-.92-2.4h-.92l1.42,3.3-.17.42-.1.23a.66.66,0,0,1-.11.16.38.38,0,0,1-.15.1.7.7,0,0,1-.22,0h-.15l-.16,0-.07.72.22,0h.21a1.56,1.56,0,0,0,.47-.06,1,1,0,0,0,.34-.18,1.11,1.11,0,0,0,.25-.3,2.9,2.9,0,0,0,.19-.4l1.56-4h-.86Zm8.38-43.55c-3.44-1.1-6.66-.6-9.29,2.09a5.81,5.81,0,0,0-.71,1.21l-.53-.4c0-.31-.06-.61-.09-.92A2.65,2.65,0,0,0,183,49.31a2.45,2.45,0,0,0-2.43,2.55c0,6.33,0,12.65,0,19a2.34,2.34,0,0,0,1.3,2.23,2.48,2.48,0,0,0,3.7-2.34c0-3.72-.05-7.44,0-11.15.06-2.77,1.58-5.87,6-5.63,2.89.16,4.65,2.2,4.66,5.71s0,7.2,0,10.79a2.76,2.76,0,0,0,2.6,3,2.68,2.68,0,0,0,2.59-2.86c0-4.62,0-9.24-.22-13.86A7.07,7.07,0,0,0,196.18,49.8Z" style="fill:none;clip-rule:evenodd"/></clipPath><clipPath id="e8d5c615-b737-4e12-ae86-855907731e8f" transform="translate(-43 -32)"><rect width="276" height="133" style="fill:none"/></clipPath></defs><title>spring</title><g id="f2a4a8ad-5f82-4081-8a52-2881cfe13342" data-name="Слой 2"><g id="c893146b-ac56-4fd2-86cd-868cde76f3bb" data-name="Слой 1"><g style="opacity:0.75;isolation:isolate"><g style="clip-path:url(#91a0ec8e-ef38-4530-a1ec-370df9f1ea12)"><g style="clip-path:url(#0fdbdf1e-66ba-423e-9560-c48a6b3d77f6)"><g style="clip-path:url(#e8d5c615-b737-4e12-ae86-855907731e8f)"><rect width="189.92" height="68.9" style="fill:#4b4b4b"/></g></g></g></g></g></g></svg>