<?xml version="1.0" encoding="UTF-8" standalone="no"?>
<svg width="14px" height="12px" viewBox="0 0 14 12" version="1.1" xmlns="http://www.w3.org/2000/svg" xmlns:xlink="http://www.w3.org/1999/xlink">
    <!-- Generator: Sketch 40.3 (33839) - http://www.bohemiancoding.com/sketch -->
    <title>ln</title>
    <desc>Created with Sketch.</desc>
    <defs></defs>
    <g id="Page-1" stroke="none" stroke-width="1" fill="none" fill-rule="evenodd">
        <g id="ln" fill="#9D9E9E">
            <g id="Group">
                <path d="M10.2,3.6 C8.7,3.6 8.1,4.4 7.7,4.9 L7.7,3.8 L5,3.8 L5,11.7 L7.7,11.7 L7.7,7.3 C7.7,7.1 7.7,6.8 7.8,6.7 C8,6.2 8.4,5.7 9.2,5.7 C10.2,5.7 10.6,6.4 10.6,7.5 L10.6,11.7 L13.3,11.7 L13.3,7.2 C13.3,4.8 12,3.6 10.2,3.6 L10.2,3.6 L10.2,3.6 Z M7.7,5 L7.7,5 C7.7,5 7.7,4.9 7.7,5 L7.7,5 L7.7,5 Z" id="Shape"></path>
                <rect id="Rectangle-path" x="0.7" y="3.8" width="2.7" height="7.9"></rect>
                <path d="M2.1,0 C1.2,0 0.5,0.6 0.5,1.4 C0.5,2.2 1.1,2.8 2,2.8 L2,2.8 C3,2.8 3.6,2.2 3.6,1.4 C3.6,0.6 3,0 2.1,0 L2.1,0 L2.1,0 Z" id="Shape"></path>
            </g>
        </g>
    </g>
</svg>