<?xml version="1.0" encoding="UTF-8"?><!DOCTYPE svg PUBLIC "-//W3C//DTD SVG 1.1//EN" "http://www.w3.org/Graphics/SVG/1.1/DTD/svg11.dtd"><svg xmlns="http://www.w3.org/2000/svg"><symbol id="arrow-down" viewBox="0 0 100 125"><path d="M50 67c-1.1 0-2.1-.4-2.9-1.2l-25-26c-1.5-1.6-1.5-4.1.1-5.7 1.6-1.5 4.1-1.5 5.7.1l22.1 23 22.1-23c1.5-1.6 4.1-1.6 5.7-.1s1.6 4.1.1 5.7l-25 26c-.8.8-1.8 1.2-2.9 1.2z"/></symbol><symbol id="down-ar" viewBox="0 0 18 10"><style>.st0{fill:none;stroke:#454a76;stroke-linecap:round;stroke-miterlimit:10}</style><g id="Icon_5_"><path class="st0" d="M1 1l8 8M17 1L9 9"/></g></symbol><symbol id="fc" viewBox="0 0 7 14"><title>fc</title><path d="M5.9 7.1H4.1v6.5H1.5V7.1H.2V4.8h1.3V3.3C1.5 2.2 2 .6 4.2.6h2v2.2H4.7c-.2 0-.6.1-.6.6v1.4h2l-.2 2.3z" fill="#9D9E9E" fill-rule="evenodd"/></symbol><symbol id="ln" viewBox="0 0 14 12"><title>ln</title><g fill="#9D9E9E" fill-rule="evenodd"><path d="M10.2 3.6c-1.5 0-2.1.8-2.5 1.3V3.8H5v7.9h2.7V7.3c0-.2 0-.5.1-.6.2-.5.6-1 1.4-1 1 0 1.4.7 1.4 1.8v4.2h2.7V7.2c0-2.4-1.3-3.6-3.1-3.6zM7.7 5s0-.1 0 0zM.7 3.8h2.7v7.9H.7zM2.1 0C1.2 0 .5.6.5 1.4c0 .8.6 1.4 1.5 1.4 1 0 1.6-.6 1.6-1.4C3.6.6 3 0 2.1 0z"/></g></symbol><symbol id="tw" viewBox="0 0 14 12"><title>tw</title><path d="M12.2 3.4v.3c0 3.5-2.6 7.6-7.5 7.6-1.5 0-2.9-.4-4-1.2h.6c1.2 0 2.4-.4 3.3-1.1-1.1 0-2.1-.8-2.4-1.9h.5c.2 0 .5 0 .7-.1-1.2-.1-2.1-1.2-2.1-2.5.3.2.7.3 1.2.3-.7-.5-1.2-1.3-1.2-2.2 0-.5.1-.9.4-1.3C2.9 2.9 4.9 3.9 7.1 4 7 3.8 7 3.6 7 3.4 7 2 8.2.8 9.6.8c.8 0 1.4.3 1.9.8.6-.1 1.2-.3 1.7-.6-.2.6-.6 1.1-1.2 1.4.5-.1 1-.2 1.5-.4-.3.5-.7 1-1.3 1.4z" fill="#9D9E9E" fill-rule="evenodd"/></symbol></svg>