<svg xmlns="http://www.w3.org/2000/svg" xmlns:xlink="http://www.w3.org/1999/xlink" width="210" height="210" viewBox="0 0 210 210"><defs><style>.cls-1,.cls-2{fill:none;}.cls-2{clip-rule:evenodd;}.cls-3{clip-path:url(#clip-path);}.cls-4{fill:#fff;}.cls-5{clip-path:url(#clip-path-2);}.cls-6{fill:#df6622;}.cls-7{clip-path:url(#clip-path-3);}.cls-8{clip-path:url(#clip-path-4);}</style><clipPath id="clip-path"><rect class="cls-1" x="5" y="5" width="200" height="200"/></clipPath><clipPath id="clip-path-2"><path class="cls-2" d="M153.14,165.41a5.56,5.56,0,0,1-7.38,0l-2.31-2.06a31.24,31.24,0,0,1,12,0l-2.31,2Zm8.48-29.3h-1.06a8.9,8.9,0,0,1-8.54-6.43,14.49,14.49,0,0,1,9.6,6.43Zm-15.51-14.45a3.33,3.33,0,1,1,3.33,3.33,3.34,3.34,0,0,1-3.33-3.33ZM117,148.79l-.28-.09a24.42,24.42,0,0,0,9.2-8.81,2.22,2.22,0,0,0-3.8-2.3,20,20,0,0,1-37-8.3,13.08,13.08,0,0,0,10.82-10.66H114a13.19,13.19,0,0,0,12.94,10.83h.28a2.22,2.22,0,0,0,2.22-2.22A24.45,24.45,0,0,0,83.66,115.3a2.22,2.22,0,0,0,3.88,2.17,20,20,0,0,1,37.29,7.25,8.73,8.73,0,0,1-6.58-8.36,2.22,2.22,0,0,0-2.22-2.2H93.89a2.22,2.22,0,0,0-2.22,2.22A8.62,8.62,0,0,1,83.06,125h-.28a2.22,2.22,0,0,0-2.22,2.22,24.46,24.46,0,0,0,12.76,21.46l-.31.1a46.49,46.49,0,0,0-20.51,11.6c-.6-.21-1.19-.41-1.8-.59a18.87,18.87,0,0,0,7.62-9.45,2.22,2.22,0,0,0-4.18-1.52,14.45,14.45,0,0,1-25.75,2.84h1.51A12.9,12.9,0,0,0,62.59,141H76.42a2.24,2.24,0,0,0,.65-.11h0l0,0a2.24,2.24,0,0,0,.32-.14l.09-.05.26-.18.1-.08a2.22,2.22,0,0,0,.2-.21l.09-.11a2.37,2.37,0,0,0,.15-.23l.08-.14a2.24,2.24,0,0,0,.09-.23l.06-.19c0-.07,0-.14,0-.21a2.21,2.21,0,0,0,0-.25s0-.05,0-.08,0-.07,0-.1a2.41,2.41,0,0,0,0-.26c0-.06,0-.12,0-.18s0-.09,0-.14a18.89,18.89,0,0,0-35.8-.5,2.22,2.22,0,1,0,4.19,1.48,14.4,14.4,0,0,1,26-2.52H60.56a2.22,2.22,0,0,0-2.22,2.22,8.45,8.45,0,0,1-8.44,8.44H44.84l-.15,0-.22,0-.25.06-.12,0-.05,0-.23.11-.17.09-.18.13-.17.14-.13.15-.14.17a1.94,1.94,0,0,0-.1.17,2,2,0,0,0-.11.2c0,.06,0,.12-.07.18a2.29,2.29,0,0,0-.07.23c0,.06,0,.11,0,.17a2.21,2.21,0,0,0,0,.27s0,0,0,.05,0,.08,0,.12a2.18,2.18,0,0,0,0,.27c0,.07,0,.13,0,.2s0,.11,0,.16l0,.12h0a18.86,18.86,0,0,0,7.63,9.5,35.39,35.39,0,0,0-9,4.1,86.14,86.14,0,0,1-23.08-56.69H58.32c0,3.18.14,6.3.33,9.3a2.22,2.22,0,0,0,2.22,2.09H61a2.22,2.22,0,0,0,2.08-2.35c-.18-2.91-.28-5.94-.32-9h20a2.22,2.22,0,0,0,0-4.44h-20a155,155,0,0,1,3.71-32.93,213.22,213.22,0,0,0,36.3,2.92V93.89a2.22,2.22,0,1,0,4.44,0V72.77c15.87-.11,28.16-1.34,37.68-3.17a153.25,153.25,0,0,1,3.72,33.18h-21.4a2.22,2.22,0,0,0,0,4.44h64.39a86.13,86.13,0,0,1-23.08,56.69,35.37,35.37,0,0,0-9-4.1,18.86,18.86,0,0,0,7.68-9.62,2.22,2.22,0,1,0-4.19-1.48,14.44,14.44,0,0,1-27.67-8.14h2.93a13.33,13.33,0,0,0,11.12-6,13.33,13.33,0,0,0,11.12,6h4.52a4.77,4.77,0,0,1,4.37,4.74v4.14a2.22,2.22,0,1,0,4.44,0V145.3a9.23,9.23,0,0,0-7.13-9,18.91,18.91,0,0,0-11-10.23,7.78,7.78,0,1,0-12.74,0,18.79,18.79,0,0,0-3.86,1.9,2.22,2.22,0,1,0,2.41,3.73,14.32,14.32,0,0,1,5.25-2.06,8.9,8.9,0,0,1-8.54,6.43h-4.64l-.32,0-.12,0-.3.09-.11,0-.28.15-.09.05a2.22,2.22,0,0,0-.25.21l-.07.06a2.25,2.25,0,0,0-.2.25l-.07.09a2.22,2.22,0,0,0-.14.26l-.06.14,0,.08a18.87,18.87,0,0,0,7.68,22.2c-.6.18-1.2.38-1.8.59A46.48,46.48,0,0,0,117,148.79Zm-12,10L96.25,150a24.48,24.48,0,0,0,17.47,0L105,158.79Zm-47.87,6.86-2.57-2.29a31.2,31.2,0,0,1,12.65.14l-2.92,2.34a5.54,5.54,0,0,1-7.16-.19Zm-20-114.58a87.14,87.14,0,0,1,56.31-32A60.29,60.29,0,0,0,81.11,29.77C72.2,39.75,66.62,52,63.21,64.62c-19.57-4.32-24.78-11.18-26-13.56Zm65.6,17.26a206.84,206.84,0,0,1-35.2-2.83C70.8,53.72,76,42.27,84.2,33a51.58,51.58,0,0,1,18.58-13.74V68.32Zm70-17.22c-1.26,2.36-6.3,8.9-24.64,13.2-.41-1.48-.83-2.95-1.28-4.38a2.22,2.22,0,1,0-4.23,1.35c.41,1.29.79,2.62,1.16,4-9.11,1.76-21,3-36.57,3.08V18.69C111,20,122.15,24.93,131.9,39a2.22,2.22,0,1,0,3.65-2.54,63.19,63.19,0,0,0-17.24-17.08A86.68,86.68,0,0,1,172.8,51.11Zm-19.73,51.67a157.91,157.91,0,0,0-3.82-34.1C166.1,64.76,172.95,58.9,175.71,55a86.13,86.13,0,0,1,15.9,47.8Zm43,2.22a90.63,90.63,0,0,0-18.73-55.26,2.24,2.24,0,0,0-.66-.84,91,91,0,0,0-69.9-35,2.24,2.24,0,0,0-.75,0l-1.07,0A91.46,91.46,0,0,0,26,59.5a2.22,2.22,0,0,0,3.85,2.22c1.35-2.34,2.81-4.61,4.36-6.79C37.08,59,44.19,65.06,62.12,69a159.6,159.6,0,0,0-3.8,33.79h-40a86.84,86.84,0,0,1,2.69-19.42,2.22,2.22,0,0,0-4.3-1.11,91.2,91.2,0,0,0,21.1,84.3A35.49,35.49,0,0,0,25,193.89a2.22,2.22,0,0,0,2.22,2.22H39.82a2.22,2.22,0,0,0,0-4.44H29.52a31.18,31.18,0,0,1,20-26.85L54.18,169a9.93,9.93,0,0,0,10.25,1.85,46.61,46.61,0,0,0-6.1,23.07,2.22,2.22,0,1,0,4.44,0,42.19,42.19,0,0,1,30.48-40.56l8.6,8.6-9.15,9.15a2.22,2.22,0,0,0-.65,1.57v21.23a2.22,2.22,0,1,0,4.44,0V173.57l10.07-10.07,10.18-10.18a42.17,42.17,0,0,1,30.42,38.34h-8.88a2.22,2.22,0,0,0,0,4.44h11.16a2.22,2.22,0,0,0,2.22-2.22,46.62,46.62,0,0,0-6.36-23.53,10,10,0,0,0,10.78-1.62l4.41-3.92a31.15,31.15,0,0,1,20.06,29.07,2.22,2.22,0,1,0,4.44,0,35.5,35.5,0,0,0-12.85-27.34,90.59,90.59,0,0,0,24-61.55Z"/></clipPath><clipPath id="clip-path-3"><path class="cls-2" d="M105,175.58a2.78,2.78,0,1,0,2.78,2.78,2.78,2.78,0,0,0-2.78-2.78"/></clipPath><clipPath id="clip-path-4"><path class="cls-2" d="M105,186.52a2.78,2.78,0,1,0,2.78,2.78,2.78,2.78,0,0,0-2.78-2.78"/></clipPath></defs><title>customer</title><g id="Слой_2" data-name="Слой 2"><g id="Слой_1-2" data-name="Слой 1"><g class="cls-3"><rect class="cls-4" width="210" height="210"/></g><g class="cls-5"><rect class="cls-6" x="8.89" y="8.89" width="192.22" height="192.22"/></g><g class="cls-7"><rect class="cls-6" x="97.22" y="170.58" width="15.56" height="15.56"/></g><g class="cls-8"><rect class="cls-6" x="97.22" y="181.52" width="15.56" height="15.56"/></g></g></g></svg>