<svg xmlns="http://www.w3.org/2000/svg" xmlns:xlink="http://www.w3.org/1999/xlink" width="210" height="210" viewBox="0 0 210 210"><defs><style>.cls-1,.cls-2{fill:none;}.cls-2{clip-rule:evenodd;}.cls-3{clip-path:url(#clip-path);}.cls-4{fill:#fff;}.cls-5{clip-path:url(#clip-path-2);}.cls-6{fill:#df6622;}.cls-7{clip-path:url(#clip-path-3);}.cls-8{clip-path:url(#clip-path-4);}.cls-9{clip-path:url(#clip-path-5);}.cls-10{clip-path:url(#clip-path-6);}.cls-11{clip-path:url(#clip-path-7);}.cls-12{clip-path:url(#clip-path-8);}.cls-13{clip-path:url(#clip-path-9);}.cls-14{clip-path:url(#clip-path-10);}.cls-15{clip-path:url(#clip-path-11);}.cls-16{clip-path:url(#clip-path-12);}.cls-17{clip-path:url(#clip-path-13);}.cls-18{clip-path:url(#clip-path-14);}.cls-19{clip-path:url(#clip-path-15);}</style><clipPath id="clip-path"><rect class="cls-1" x="5" y="5" width="200" height="200"/></clipPath><clipPath id="clip-path-2"><path class="cls-2" d="M64.44,114.67a14.56,14.56,0,0,1,11-1.33,14.31,14.31,0,0,1,8.67,6.78l.11.22a2.34,2.34,0,0,0,2,1.22,3.25,3.25,0,0,0,1-.22,2.19,2.19,0,0,0,.89-3l-.22-.33a18.78,18.78,0,0,0-25.67-7.11,2.22,2.22,0,0,0-.89,3,2.48,2.48,0,0,0,3.11.78Z"/></clipPath><clipPath id="clip-path-3"><path class="cls-2" d="M185.22,140.78a46.7,46.7,0,0,0-80.11-29.33A46.78,46.78,0,0,0,84.78,99.11,46.19,46.19,0,0,0,49.22,103a47,47,0,0,0-22.44,27.78,46.19,46.19,0,0,0,3.89,35.56c.11.22.33.56.44.78s.11.33.22.44a45.76,45.76,0,0,0,16.33,16.56,2.67,2.67,0,0,0,1.33.78,47.16,47.16,0,0,0,22.44,5.78h.11a46.28,46.28,0,0,0,11.78-1.56,1.58,1.58,0,0,0,.67-.22,51.18,51.18,0,0,0,9.89-4,.11.11,0,0,0,.11-.11,2.75,2.75,0,0,0,1.56-.89,48.52,48.52,0,0,0,9.56-7.56c.89.89,1.78,1.78,2.78,2.67a46.54,46.54,0,0,0,30.67,11.56,31.17,31.17,0,0,0,3.22-.11,46.76,46.76,0,0,0,43.44-49.67ZM31.11,132.11a42.26,42.26,0,0,1,40.44-30.44,39.55,39.55,0,0,1,11.89,1.78,42.41,42.41,0,0,1,25.22,20.22,41.54,41.54,0,0,1,3.44,32.11,37.66,37.66,0,0,1-2.22,5.89,46.68,46.68,0,0,0-28.11-18.89A19.54,19.54,0,0,0,88.11,136a2.21,2.21,0,0,0-3.89-2.11A14.42,14.42,0,0,1,58.44,121h11a10.5,10.5,0,0,0,10.33,8.33h8.56a2.22,2.22,0,1,0,0-4.44H79.89a6.17,6.17,0,0,1-6.11-6.11,2.23,2.23,0,0,0-2.22-2.22H56.67c-.11,0-.11,0-.22.11s-.11,0-.22.11-.11.11-.22.11-.11.11-.22.11-.11.11-.22.11l-.11.11-.11.11c0,.11-.11.11-.11.22v.11L55,118a19,19,0,0,0,6.33,24.78,46.39,46.39,0,0,0-28.11,18.89,42.32,42.32,0,0,1-2.11-29.56Zm35.44,14.33a36.88,36.88,0,0,1,12.11.33l-5.89,5.89-6.22-6.22Zm5.11,39.67h-.11a41.91,41.91,0,0,1-19.89-5v-8.44a2.22,2.22,0,1,0-4.44,0v5.67a41.51,41.51,0,0,1-11.44-12.22,41.46,41.46,0,0,1,25-18.56,4.81,4.81,0,0,0,.56-.11l9.89,9.89v.11h.11L81,167.11v18a44.42,44.42,0,0,1-9.33,1Zm24.44-7.78v-5.67a2.22,2.22,0,1,0-4.44,0v8.44a44.36,44.36,0,0,1-6.22,2.78V166.11a2.19,2.19,0,0,0-.67-1.56L76,155.78l7.89-7.89a37.24,37.24,0,0,1,8.89,3.89,42.44,42.44,0,0,1,14.78,14.33,41.42,41.42,0,0,1-11.44,12.22Zm74.33-6.56a44.82,44.82,0,0,1-7.67,6.89v-5.89a2.22,2.22,0,0,0-4.44,0v8.56a43.58,43.58,0,0,1-16.89,4.78,42,42,0,0,1-30.67-10.33c-1-.89-1.89-1.78-2.78-2.67a40.42,40.42,0,0,0,3.89-5.78c0-.11.11-.11.11-.22a44.32,44.32,0,0,0,4.22-10,46.14,46.14,0,0,0,1.22-5.33A35.41,35.41,0,0,1,121,150a5.84,5.84,0,0,0,1.22,1.11,24.08,24.08,0,0,0,33.33-1.22,42.08,42.08,0,0,1,18.78,16.44,33.06,33.06,0,0,1-3.89,5.44Zm-21.33-24.22c.67.22,1.33.33,1.89.56a19.64,19.64,0,0,1-25.22.11,40.68,40.68,0,0,1,23.33-.67Zm27.78,14.22a45.72,45.72,0,0,0-26.67-18.56l-1.33-.33c.78-.56,1.56-1.11,2.22-1.67a2.21,2.21,0,1,0-2.89-3.33,16.16,16.16,0,0,1-4.78,2.89A14.49,14.49,0,0,1,125,132a14,14,0,0,1,.56-11,14.65,14.65,0,0,1,8.22-7.44,10.84,10.84,0,0,1,2.56-.67v9.44a12.61,12.61,0,0,0,12.56,12.56h11.89a2.22,2.22,0,0,0,0-4.44H148.89a8.16,8.16,0,0,1-8.11-8.11v-9.56a18.34,18.34,0,0,1,4,1.22,14.65,14.65,0,0,1,7.44,8.22,2.25,2.25,0,1,0,4.22-1.56,18.84,18.84,0,0,0-9.67-10.78,18.27,18.27,0,0,0-8-1.78h-.22a16.52,16.52,0,0,0-6.11,1.11,18.84,18.84,0,0,0-10.78,9.67,18.78,18.78,0,0,0,6.67,23.89,43.74,43.74,0,0,0-9.89,3.56,46.25,46.25,0,0,0-5.67-24.78,47.52,47.52,0,0,0-4.44-6.78,42.08,42.08,0,0,1,68.56,47Z"/></clipPath><clipPath id="clip-path-4"><path class="cls-2" d="M71.67,168.89a2.78,2.78,0,1,0-2.78-2.78,2.78,2.78,0,0,0,2.78,2.78Z"/></clipPath><clipPath id="clip-path-5"><path class="cls-2" d="M71.67,179.89a2.78,2.78,0,1,0-2.78-2.78,2.78,2.78,0,0,0,2.78,2.78Z"/></clipPath><clipPath id="clip-path-6"><path class="cls-2" d="M38.33,79.33h20v8.89a2.19,2.19,0,0,0,1.33,2,2.47,2.47,0,0,0,2.44-.44L72.56,79.33h64.78l10.44,10.44a2.19,2.19,0,0,0,1.56.67,1.34,1.34,0,0,0,.89-.22,2.19,2.19,0,0,0,1.33-2V79.33h20a2.23,2.23,0,0,0,2.22-2.22V32.67a13.37,13.37,0,0,0-13.33-13.33h-111A13.37,13.37,0,0,0,36.11,32.67V77.11a2.16,2.16,0,0,0,2.22,2.22Zm2.22-46.67a8.92,8.92,0,0,1,8.89-8.89H160.56a8.91,8.91,0,0,1,8.89,8.89V74.89h-20a2.23,2.23,0,0,0-2.22,2.22v5.78l-7.33-7.33a2.19,2.19,0,0,0-1.56-.67H71.67a2.19,2.19,0,0,0-1.56.67l-7.33,7.33V77.11a2.23,2.23,0,0,0-2.22-2.22h-20V32.67Z"/></clipPath><clipPath id="clip-path-7"><path class="cls-2" d="M49.44,34.89H55a2.22,2.22,0,0,0,0-4.44H49.44a2.22,2.22,0,1,0,0,4.44Z"/></clipPath><clipPath id="clip-path-8"><path class="cls-2" d="M66.11,34.89h5.56a2.22,2.22,0,1,0,0-4.44H66.11a2.22,2.22,0,0,0,0,4.44Z"/></clipPath><clipPath id="clip-path-9"><path class="cls-2" d="M62.78,43.78a2.23,2.23,0,0,0-2.22-2.22H49.44a2.22,2.22,0,1,0,0,4.44H60.56a2.16,2.16,0,0,0,2.22-2.22Z"/></clipPath><clipPath id="clip-path-10"><path class="cls-2" d="M69.44,43.78A2.23,2.23,0,0,0,71.67,46h44.44a2.22,2.22,0,1,0,0-4.44H71.67a2.23,2.23,0,0,0-2.22,2.22Z"/></clipPath><clipPath id="clip-path-11"><path class="cls-2" d="M138.33,57.11h5.56a2.22,2.22,0,1,0,0-4.44h-5.56a2.22,2.22,0,1,0,0,4.44Z"/></clipPath><clipPath id="clip-path-12"><path class="cls-2" d="M155,57.11h5.56a2.22,2.22,0,1,0,0-4.44H155a2.22,2.22,0,1,0,0,4.44Z"/></clipPath><clipPath id="clip-path-13"><path class="cls-2" d="M149.44,68.22h11.11a2.22,2.22,0,1,0,0-4.44H149.44a2.22,2.22,0,0,0,0,4.44Z"/></clipPath><clipPath id="clip-path-14"><path class="cls-2" d="M138.33,63.78H93.89a2.22,2.22,0,1,0,0,4.44h44.44a2.22,2.22,0,0,0,0-4.44Z"/></clipPath><clipPath id="clip-path-15"><path class="cls-2" d="M138.33,163.78a2.23,2.23,0,0,0-2.22,2.22v5.56a2.22,2.22,0,0,0,4.44,0V166a2.23,2.23,0,0,0-2.22-2.22Z"/></clipPath></defs><title>Engagement</title><g id="Слой_2" data-name="Слой 2"><g id="Слой_1-2" data-name="Слой 1"><g class="cls-3"><rect class="cls-4" width="210" height="210"/></g><g class="cls-5"><rect class="cls-6" x="56.07" y="103.41" width="37.31" height="23.15"/></g><g class="cls-7"><rect class="cls-6" x="19.86" y="92.19" width="170.46" height="103.47"/></g><g class="cls-8"><rect class="cls-6" x="63.89" y="158.33" width="15.56" height="15.56"/></g><g class="cls-9"><rect class="cls-6" x="63.89" y="169.33" width="15.56" height="15.56"/></g><g class="cls-10"><rect class="cls-6" x="31.11" y="14.33" width="147.67" height="81.11"/></g><g class="cls-11"><rect class="cls-6" x="42.22" y="25.44" width="20" height="14.44"/></g><g class="cls-12"><rect class="cls-6" x="58.89" y="25.44" width="20" height="14.44"/></g><g class="cls-13"><rect class="cls-6" x="42.22" y="36.56" width="25.56" height="14.44"/></g><g class="cls-14"><rect class="cls-6" x="64.44" y="36.56" width="58.89" height="14.44"/></g><g class="cls-15"><rect class="cls-6" x="131.11" y="47.67" width="20" height="14.44"/></g><g class="cls-16"><rect class="cls-6" x="147.78" y="47.67" width="20" height="14.44"/></g><g class="cls-17"><rect class="cls-6" x="142.22" y="58.78" width="25.56" height="14.44"/></g><g class="cls-18"><rect class="cls-6" x="86.67" y="58.78" width="58.89" height="14.44"/></g><g class="cls-19"><rect class="cls-6" x="131.11" y="158.78" width="14.44" height="20"/></g></g></g></svg>