<svg xmlns="http://www.w3.org/2000/svg" xmlns:xlink="http://www.w3.org/1999/xlink" width="210" height="210" viewBox="0 0 210 210"><defs><style>.cls-1,.cls-2{fill:none;}.cls-2{clip-rule:evenodd;}.cls-3{clip-path:url(#clip-path);}.cls-4{fill:#fff;}.cls-5{clip-path:url(#clip-path-2);}.cls-6{fill:#e06727;}.cls-7{clip-path:url(#clip-path-3);}.cls-8{clip-path:url(#clip-path-4);}.cls-9{clip-path:url(#clip-path-5);}.cls-10{clip-path:url(#clip-path-6);}.cls-11{clip-path:url(#clip-path-7);}.cls-12{clip-path:url(#clip-path-8);}.cls-13{clip-path:url(#clip-path-9);}.cls-14{clip-path:url(#clip-path-10);}.cls-15{clip-path:url(#clip-path-11);}.cls-16{clip-path:url(#clip-path-12);}.cls-17{clip-path:url(#clip-path-13);}.cls-18{clip-path:url(#clip-path-14);}.cls-19{clip-path:url(#clip-path-15);}.cls-20{clip-path:url(#clip-path-16);}.cls-21{clip-path:url(#clip-path-17);}.cls-22{clip-path:url(#clip-path-18);}.cls-23{clip-path:url(#clip-path-19);}.cls-24{clip-path:url(#clip-path-20);}.cls-25{clip-path:url(#clip-path-21);}.cls-26{clip-path:url(#clip-path-22);}.cls-27{clip-path:url(#clip-path-23);}.cls-28{clip-path:url(#clip-path-24);}.cls-29{clip-path:url(#clip-path-25);}</style><clipPath id="clip-path"><rect class="cls-1" x="5" y="5" width="200" height="200"/></clipPath><clipPath id="clip-path-2"><path class="cls-2" d="M180.56,114a24.53,24.53,0,0,0-22.11,22.11H128.89a26.23,26.23,0,0,0,1.56-8.89,25.44,25.44,0,0,0-50.89,0,26.23,26.23,0,0,0,1.56,8.89H51.56A24.53,24.53,0,0,0,29.44,114V62.67A24.53,24.53,0,0,0,51.56,40.56H158.44a24.53,24.53,0,0,0,22.11,22.11Zm-62.44,68.78V160.33a2.22,2.22,0,0,0-4.44,0v18.44L109.44,175a7.87,7.87,0,0,0-2.44-1.44V160.33a2.22,2.22,0,0,0-4.44,0v13.33a9.64,9.64,0,0,0-2,1.22l-4.78,4.33V160.33a2.22,2.22,0,0,0-4.44,0v22.89L85,188.89v-46a25.55,25.55,0,0,0,20,9.78,25.22,25.22,0,0,0,20-9.78v46ZM105,148.22a21,21,0,1,1,21-21A21.05,21.05,0,0,1,105,148.22Zm77.78-89.89a20.06,20.06,0,0,1-20-20,2.23,2.23,0,0,0-2.22-2.22H49.44a2.23,2.23,0,0,0-2.22,2.22,20.06,20.06,0,0,1-20,20A2.23,2.23,0,0,0,25,60.56v55.55a2.23,2.23,0,0,0,2.22,2.22,20.06,20.06,0,0,1,20,20,2.23,2.23,0,0,0,2.22,2.22H80.56v48.33a4.74,4.74,0,0,0,1.11,3,4.4,4.4,0,0,0,6.22.33l15.56-14a2.22,2.22,0,0,1,3,0l7.67,6.89a1.5,1.5,0,0,0,.78.67l7.22,6.44a4.19,4.19,0,0,0,3,1.11,4.46,4.46,0,0,0,4.44-4.44V140.56h31.11a2.23,2.23,0,0,0,2.22-2.22,20.06,20.06,0,0,1,20-20,2.23,2.23,0,0,0,2.22-2.22V60.56A2.41,2.41,0,0,0,182.78,58.33Z"/></clipPath><clipPath id="clip-path-3"><path class="cls-2" d="M62.78,51.67h84.44V69.44H62.78ZM60.56,73.89h88.89a2.23,2.23,0,0,0,2.22-2.22V49.44a2.23,2.23,0,0,0-2.22-2.22H60.56a2.23,2.23,0,0,0-2.22,2.22V71.67A2.23,2.23,0,0,0,60.56,73.89Z"/></clipPath><clipPath id="clip-path-4"><path class="cls-2" d="M36.11,82.78A2.23,2.23,0,0,0,38.33,85H171.67a2.22,2.22,0,1,0,0-4.44H38.33A2.23,2.23,0,0,0,36.11,82.78Z"/></clipPath><clipPath id="clip-path-5"><path class="cls-2" d="M71.67,102.78H49.44a2.22,2.22,0,1,0,0,4.44H71.67a2.22,2.22,0,1,0,0-4.44Z"/></clipPath><clipPath id="clip-path-6"><path class="cls-2" d="M160.56,102.78H138.33a2.22,2.22,0,1,0,0,4.44h22.22a2.22,2.22,0,1,0,0-4.44Z"/></clipPath><clipPath id="clip-path-7"><path class="cls-2" d="M63.33,96.11a2.22,2.22,0,1,0,0-4.44H60.56a2.22,2.22,0,1,0,0,4.44Z"/></clipPath><clipPath id="clip-path-8"><path class="cls-2" d="M149.44,96.11a2.22,2.22,0,1,0,0-4.44h-2.78a2.22,2.22,0,1,0,0,4.44Z"/></clipPath><clipPath id="clip-path-9"><path class="cls-2" d="M99,91.67H93a2.22,2.22,0,1,0,0,4.44h6a2.23,2.23,0,0,0,2.22-2.22A2.16,2.16,0,0,0,99,91.67Z"/></clipPath><clipPath id="clip-path-10"><path class="cls-2" d="M137,93.89a2.23,2.23,0,0,0-2.22-2.22h-6a2.22,2.22,0,1,0,0,4.44h6A2.23,2.23,0,0,0,137,93.89Z"/></clipPath><clipPath id="clip-path-11"><path class="cls-2" d="M81.22,91.67h-6a2.22,2.22,0,1,0,0,4.44h5.89a2.23,2.23,0,0,0,2.22-2.22A2.14,2.14,0,0,0,81.22,91.67Z"/></clipPath><clipPath id="clip-path-12"><path class="cls-2" d="M116.89,91.67h-6a2.22,2.22,0,1,0,0,4.44h5.89A2.23,2.23,0,0,0,119,93.89,2.14,2.14,0,0,0,116.89,91.67Z"/></clipPath><clipPath id="clip-path-13"><path class="cls-2" d="M27.22,51.67a2.23,2.23,0,0,0,2.22-2.22V40.56h8.89a2.22,2.22,0,0,0,0-4.45H27.22A2.23,2.23,0,0,0,25,38.33V49.44A2.23,2.23,0,0,0,27.22,51.67Z"/></clipPath><clipPath id="clip-path-14"><path class="cls-2" d="M38.33,136.11H29.44v-8.89a2.22,2.22,0,0,0-4.44,0v11.11a2.23,2.23,0,0,0,2.22,2.22H38.33a2.22,2.22,0,0,0,0-4.45Z"/></clipPath><clipPath id="clip-path-15"><path class="cls-2" d="M182.78,36.11H171.67a2.22,2.22,0,0,0,0,4.45h8.89v8.89a2.22,2.22,0,1,0,4.44,0V38.33A2.23,2.23,0,0,0,182.78,36.11Z"/></clipPath><clipPath id="clip-path-16"><path class="cls-2" d="M182.78,125a2.23,2.23,0,0,0-2.22,2.22v8.89h-8.89a2.22,2.22,0,0,0,0,4.45h11.11a2.23,2.23,0,0,0,2.22-2.22V127.22A2.23,2.23,0,0,0,182.78,125Z"/></clipPath><clipPath id="clip-path-17"><path class="cls-2" d="M97.33,122.78a2.25,2.25,0,0,0-.78-3,2.15,2.15,0,0,0-3,.78,13.9,13.9,0,0,0-1.78,6.67v.11a2.22,2.22,0,1,0,4.44,0v-.11A7.81,7.81,0,0,1,97.33,122.78Z"/></clipPath><clipPath id="clip-path-18"><path class="cls-2" d="M116.11,125a2.23,2.23,0,0,0-2.22,2.22,8.91,8.91,0,0,1-1.22,4.44,2.19,2.19,0,1,0,3.78,2.22,13.9,13.9,0,0,0,1.78-6.67A2.07,2.07,0,0,0,116.11,125Z"/></clipPath><clipPath id="clip-path-19"><path class="cls-2" d="M111.67,115.67a13.9,13.9,0,0,0-6.67-1.78h-.11a2.22,2.22,0,1,0,0,4.44,8.91,8.91,0,0,1,4.44,1.22,2.11,2.11,0,0,0,3-.78A2.1,2.1,0,0,0,111.67,115.67Z"/></clipPath><clipPath id="clip-path-20"><path class="cls-2" d="M105,136.11h0a8.91,8.91,0,0,1-4.44-1.22,2.25,2.25,0,0,0-3,.78,2.28,2.28,0,0,0,.78,3,13.9,13.9,0,0,0,6.67,1.78h.11a2.14,2.14,0,0,0,2.11-2.22A2.21,2.21,0,0,0,105,136.11Z"/></clipPath><clipPath id="clip-path-21"><path class="cls-2" d="M71.67,29.33h2.78a2.22,2.22,0,1,0,0-4.44H71.67a2.22,2.22,0,1,0,0,4.44Z"/></clipPath><clipPath id="clip-path-22"><path class="cls-2" d="M117.89,29.33h5.44a2.22,2.22,0,1,0,0-4.44h-5.44a2.22,2.22,0,1,0,0,4.44Z"/></clipPath><clipPath id="clip-path-23"><path class="cls-2" d="M85.22,29.33h5.44a2.22,2.22,0,1,0,0-4.44H85.22a2.22,2.22,0,1,0,0,4.44Z"/></clipPath><clipPath id="clip-path-24"><path class="cls-2" d="M101.56,29.33H107a2.22,2.22,0,1,0,0-4.44h-5.44a2.22,2.22,0,1,0,0,4.44Z"/></clipPath><clipPath id="clip-path-25"><path class="cls-2" d="M134.11,29.33h2.78a2.22,2.22,0,1,0,0-4.44h-2.78a2.22,2.22,0,1,0,0,4.44Z"/></clipPath></defs><title>i-3-1</title><g id="Слой_2" data-name="Слой 2"><g id="Слой_1-2" data-name="Слой 1"><g class="cls-3"><rect class="cls-4" width="210" height="210"/></g><g class="cls-5"><rect class="cls-6" x="20" y="31.11" width="170.11" height="167.24"/></g><g class="cls-7"><rect class="cls-6" x="53.33" y="42.22" width="103.33" height="36.67"/></g><g class="cls-8"><rect class="cls-6" x="31.11" y="75.56" width="147.78" height="14.44"/></g><g class="cls-9"><rect class="cls-6" x="42.22" y="97.78" width="36.67" height="14.44"/></g><g class="cls-10"><rect class="cls-6" x="131.11" y="97.78" width="36.67" height="14.44"/></g><g class="cls-11"><rect class="cls-6" x="53.33" y="86.67" width="17.22" height="14.44"/></g><g class="cls-12"><rect class="cls-6" x="139.44" y="86.67" width="17.22" height="14.44"/></g><g class="cls-13"><rect class="cls-6" x="85.78" y="86.67" width="20.44" height="14.44"/></g><g class="cls-14"><rect class="cls-6" x="121.56" y="86.67" width="20.44" height="14.44"/></g><g class="cls-15"><rect class="cls-6" x="68" y="86.67" width="20.33" height="14.44"/></g><g class="cls-16"><rect class="cls-6" x="103.67" y="86.67" width="20.33" height="14.44"/></g><g class="cls-17"><rect class="cls-6" x="20" y="31.11" width="25.56" height="25.56"/></g><g class="cls-18"><rect class="cls-6" x="20" y="120" width="25.56" height="25.56"/></g><g class="cls-19"><rect class="cls-6" x="164.44" y="31.11" width="25.56" height="25.56"/></g><g class="cls-20"><rect class="cls-6" x="164.44" y="120" width="25.56" height="25.56"/></g><g class="cls-21"><rect class="cls-6" x="86.78" y="114.46" width="15.82" height="20.09"/></g><g class="cls-22"><rect class="cls-6" x="107.35" y="120" width="15.88" height="20"/></g><g class="cls-23"><rect class="cls-6" x="97.67" y="108.89" width="20.09" height="16"/></g><g class="cls-24"><rect class="cls-6" x="92.29" y="129.62" width="19.93" height="15.82"/></g><g class="cls-25"><rect class="cls-6" x="64.44" y="19.89" width="17.22" height="14.44"/></g><g class="cls-26"><rect class="cls-6" x="110.67" y="19.89" width="19.89" height="14.44"/></g><g class="cls-27"><rect class="cls-6" x="78" y="19.89" width="19.89" height="14.44"/></g><g class="cls-28"><rect class="cls-6" x="94.33" y="19.89" width="19.89" height="14.44"/></g><g class="cls-29"><rect class="cls-6" x="126.89" y="19.89" width="17.22" height="14.44"/></g></g></g></svg>