<svg xmlns="http://www.w3.org/2000/svg" xmlns:xlink="http://www.w3.org/1999/xlink" width="210" height="210" viewBox="0 0 210 210"><defs><style>.cls-1,.cls-2{fill:none;}.cls-2{clip-rule:evenodd;}.cls-3{clip-path:url(#clip-path);}.cls-4{fill:#fff;}.cls-5{clip-path:url(#clip-path-2);}.cls-6{fill:#e06727;}.cls-7{clip-path:url(#clip-path-3);}.cls-8{clip-path:url(#clip-path-4);}.cls-9{clip-path:url(#clip-path-5);}.cls-10{clip-path:url(#clip-path-6);}.cls-11{clip-path:url(#clip-path-7);}.cls-12{clip-path:url(#clip-path-8);}.cls-13{clip-path:url(#clip-path-9);}.cls-14{clip-path:url(#clip-path-10);}.cls-15{clip-path:url(#clip-path-11);}.cls-16{clip-path:url(#clip-path-12);}.cls-17{clip-path:url(#clip-path-13);}.cls-18{clip-path:url(#clip-path-14);}.cls-19{clip-path:url(#clip-path-15);}.cls-20{clip-path:url(#clip-path-16);}.cls-21{clip-path:url(#clip-path-17);}.cls-22{clip-path:url(#clip-path-18);}</style><clipPath id="clip-path"><rect class="cls-1" x="5" y="5" width="200" height="200"/></clipPath><clipPath id="clip-path-2"><path class="cls-2" d="M45,133.89H31.67V109.44H45ZM45,105H40.56V93.89a2.22,2.22,0,0,0-4.45,0V105H31.67a4.46,4.46,0,0,0-4.44,4.44v24.45a4.46,4.46,0,0,0,4.44,4.44h4.44v22.22a2.22,2.22,0,0,0,4.45,0V138.33H45a4.46,4.46,0,0,0,4.44-4.44V109.44A4.46,4.46,0,0,0,45,105Z"/></clipPath><clipPath id="clip-path-3"><path class="cls-2" d="M89.44,167.22H76.11V120.56H89.44Zm0-51.11H85V103.33a2.22,2.22,0,1,0-4.44,0v12.78H76.11a4.46,4.46,0,0,0-4.44,4.45v46.67a4.46,4.46,0,0,0,4.44,4.44h4.45v22.22a2.22,2.22,0,0,0,4.44,0V171.67h4.44a4.46,4.46,0,0,0,4.45-4.44V120.56A4.46,4.46,0,0,0,89.44,116.11Z"/></clipPath><clipPath id="clip-path-4"><path class="cls-2" d="M133.89,122.78H120.56V87.22h13.33Zm0-40h-4.45V60.56a2.22,2.22,0,1,0-4.44,0V82.78h-4.44a4.46,4.46,0,0,0-4.45,4.44v35.56a4.46,4.46,0,0,0,4.45,4.44H125v22.22a2.22,2.22,0,1,0,4.44,0V127.22h4.45a4.46,4.46,0,0,0,4.44-4.44V87.22A4.46,4.46,0,0,0,133.89,82.78Z"/></clipPath><clipPath id="clip-path-5"><path class="cls-2" d="M178.33,133.89H165V65h13.33Zm0-73.33h-4.44V49.44a2.22,2.22,0,0,0-4.45,0V60.56H165A4.46,4.46,0,0,0,160.56,65v68.89a4.46,4.46,0,0,0,4.44,4.44h4.44v22.78a2.22,2.22,0,0,0,4.45,0V138.33h4.44a4.46,4.46,0,0,0,4.44-4.44V65A4.46,4.46,0,0,0,178.33,60.56Z"/></clipPath><clipPath id="clip-path-6"><path class="cls-2" d="M77.33,87,81,88.22a1.41,1.41,0,0,0,.67.11,2,2,0,0,0,1.67-.78l1.11-1.33a2.21,2.21,0,1,0-3.33-2.89l-.11.11-2.22-.78A2.2,2.2,0,0,0,76,84.11,2.14,2.14,0,0,0,77.33,87Z"/></clipPath><clipPath id="clip-path-7"><path class="cls-2" d="M20.11,78.33l-5,2.44a2.23,2.23,0,0,0-1,3,2.34,2.34,0,0,0,2,1.22,3.24,3.24,0,0,0,1-.22l5-2.44a2.24,2.24,0,1,0-2-4Z"/></clipPath><clipPath id="clip-path-8"><path class="cls-2" d="M52.33,74l-5.22-1.78a2.21,2.21,0,1,0-1.33,4.22L51,78.22a1.41,1.41,0,0,0,.67.11A2.22,2.22,0,0,0,52.33,74Z"/></clipPath><clipPath id="clip-path-9"><path class="cls-2" d="M170.56,32.89h.22l1.11-.11a2.72,2.72,0,0,0,1.22-.44l3.56-2.67A2.22,2.22,0,0,0,174,26.11l-3.11,2.33h-.45a2.14,2.14,0,0,0-2,2.33A2.11,2.11,0,0,0,170.56,32.89Z"/></clipPath><clipPath id="clip-path-10"><path class="cls-2" d="M31,77.56a3.25,3.25,0,0,0,1-.22l5-2.44a2.24,2.24,0,0,0-2-4l-5,2.44a2.23,2.23,0,0,0-1,3A2.34,2.34,0,0,0,31,77.56Z"/></clipPath><clipPath id="clip-path-11"><path class="cls-2" d="M123,41a2,2,0,0,0,1.67-.78l3.67-4.11A2.21,2.21,0,1,0,125,33.22l-3.67,4.22a2.26,2.26,0,0,0,.22,3.11A2,2,0,0,0,123,41Z"/></clipPath><clipPath id="clip-path-12"><path class="cls-2" d="M161.78,31.33a2.14,2.14,0,0,0-2.33-2l-5.55.44a2.14,2.14,0,0,0-2,2.33,2.28,2.28,0,0,0,2.22,2.11h.22l5.56-.44A2.33,2.33,0,0,0,161.78,31.33Z"/></clipPath><clipPath id="clip-path-13"><path class="cls-2" d="M142.78,30.56l-5.56.44a2.14,2.14,0,0,0-2,2.33,2.28,2.28,0,0,0,2.22,2.11h.22l5.56-.44a2.14,2.14,0,0,0,2-2.33A2.31,2.31,0,0,0,142.78,30.56Z"/></clipPath><clipPath id="clip-path-14"><path class="cls-2" d="M189.78,15.89a2.15,2.15,0,0,0-3.11,0L183.56,19l-.78.44a2.18,2.18,0,0,0-.44,3.11,2.32,2.32,0,0,0,1.78.89,2.13,2.13,0,0,0,1.33-.44l.89-.67.22-.22,3.22-3.22A2,2,0,0,0,189.78,15.89Z"/></clipPath><clipPath id="clip-path-15"><path class="cls-2" d="M117.11,45.56a2.25,2.25,0,0,0-3.11.22L110.33,50a2.26,2.26,0,0,0,.22,3.11,2.34,2.34,0,0,0,1.44.56,2,2,0,0,0,1.67-.78l3.67-4.22A2.25,2.25,0,0,0,117.11,45.56Z"/></clipPath><clipPath id="clip-path-16"><path class="cls-2" d="M92.11,70.89,88.44,75a2.26,2.26,0,0,0,.22,3.11,2.34,2.34,0,0,0,1.44.56,2,2,0,0,0,1.67-.78l3.67-4.22a2.25,2.25,0,0,0-.22-3.11A2.16,2.16,0,0,0,92.11,70.89Z"/></clipPath><clipPath id="clip-path-17"><path class="cls-2" d="M103,58.33l-3.67,4.22a2.26,2.26,0,0,0,.22,3.11,2.34,2.34,0,0,0,1.44.56,2,2,0,0,0,1.67-.78l3.67-4.22a2.25,2.25,0,0,0-.22-3.11A2.07,2.07,0,0,0,103,58.33Z"/></clipPath><clipPath id="clip-path-18"><path class="cls-2" d="M68.22,79.33,63,77.56a2.21,2.21,0,1,0-1.33,4.22l5.22,1.78a1.41,1.41,0,0,0,.67.11,2.23,2.23,0,0,0,2.11-1.56A2.3,2.3,0,0,0,68.22,79.33Z"/></clipPath></defs><title>ic--4</title><g id="Слой_2" data-name="Слой 2"><g id="Слой_1-2" data-name="Слой 1"><g class="cls-3"><rect class="cls-4" width="210" height="210"/></g><g class="cls-5"><rect class="cls-6" x="22.22" y="86.67" width="32.22" height="81.11"/></g><g class="cls-7"><rect class="cls-6" x="66.67" y="96.11" width="32.22" height="105"/></g><g class="cls-8"><rect class="cls-6" x="111.11" y="53.33" width="32.22" height="103.33"/></g><g class="cls-9"><rect class="cls-6" x="155.56" y="42.22" width="32.22" height="126.11"/></g><g class="cls-10"><rect class="cls-6" x="70.85" y="77.57" width="19.12" height="15.76"/></g><g class="cls-11"><rect class="cls-6" x="8.87" y="73.09" width="19.48" height="16.91"/></g><g class="cls-12"><rect class="cls-6" x="39.24" y="67.13" width="19.64" height="16.21"/></g><g class="cls-13"><rect class="cls-6" x="163.44" y="20.64" width="19.14" height="17.25"/></g><g class="cls-14"><rect class="cls-6" x="23.76" y="65.65" width="19.48" height="16.91"/></g><g class="cls-15"><rect class="cls-6" x="115.81" y="27.48" width="18.04" height="18.52"/></g><g class="cls-16"><rect class="cls-6" x="146.88" y="24.32" width="19.91" height="14.9"/></g><g class="cls-17"><rect class="cls-6" x="130.21" y="25.55" width="20.02" height="14.9"/></g><g class="cls-18"><rect class="cls-6" x="176.87" y="10.22" width="18.58" height="18.22"/></g><g class="cls-19"><rect class="cls-6" x="104.81" y="40.04" width="18.04" height="18.63"/></g><g class="cls-20"><rect class="cls-6" x="82.92" y="65.05" width="18.04" height="18.62"/></g><g class="cls-21"><rect class="cls-6" x="93.81" y="52.51" width="18.04" height="18.71"/></g><g class="cls-22"><rect class="cls-6" x="55.13" y="72.46" width="19.63" height="16.21"/></g></g></g></svg>