<svg xmlns="http://www.w3.org/2000/svg" xmlns:xlink="http://www.w3.org/1999/xlink" width="210" height="210" viewBox="0 0 210 210"><defs><style>.cls-1,.cls-2{fill:none;}.cls-2{clip-rule:evenodd;}.cls-3{clip-path:url(#clip-path);}.cls-4{fill:#fff;}.cls-5{clip-path:url(#clip-path-2);}.cls-6{fill:#e06727;}.cls-7{clip-path:url(#clip-path-3);}.cls-8{clip-path:url(#clip-path-4);}.cls-9{clip-path:url(#clip-path-5);}.cls-10{clip-path:url(#clip-path-6);}.cls-11{clip-path:url(#clip-path-7);}.cls-12{clip-path:url(#clip-path-8);}.cls-13{clip-path:url(#clip-path-9);}.cls-14{clip-path:url(#clip-path-10);}.cls-15{clip-path:url(#clip-path-11);}.cls-16{clip-path:url(#clip-path-12);}.cls-17{clip-path:url(#clip-path-13);}.cls-18{clip-path:url(#clip-path-14);}.cls-19{clip-path:url(#clip-path-15);}.cls-20{clip-path:url(#clip-path-16);}.cls-21{clip-path:url(#clip-path-17);}.cls-22{clip-path:url(#clip-path-18);}.cls-23{clip-path:url(#clip-path-19);}.cls-24{clip-path:url(#clip-path-20);}.cls-25{clip-path:url(#clip-path-21);}</style><clipPath id="clip-path"><rect class="cls-1" x="5" y="5" width="200" height="200"/></clipPath><clipPath id="clip-path-2"><path class="cls-2" d="M82.78,140.56h44.44V69.44H82.78ZM127.22,65H82.78a4.44,4.44,0,0,0-4.44,4.44v71.11A4.44,4.44,0,0,0,82.78,145h44.44a4.44,4.44,0,0,0,4.44-4.44V69.44A4.44,4.44,0,0,0,127.22,65Z"/></clipPath><clipPath id="clip-path-3"><path class="cls-2" d="M16.11,73.89H47.22V42.78H16.11ZM47.22,38.33H16.11a4.44,4.44,0,0,0-4.44,4.45V73.89a4.44,4.44,0,0,0,4.44,4.44H47.22a4.44,4.44,0,0,0,4.44-4.44V42.78A4.44,4.44,0,0,0,47.22,38.33Z"/></clipPath><clipPath id="clip-path-4"><path class="cls-2" d="M162.78,167.22h31.11V136.11H162.78Zm31.11-35.55H162.78a4.44,4.44,0,0,0-4.44,4.44v31.11a4.44,4.44,0,0,0,4.44,4.45h31.11a4.44,4.44,0,0,0,4.44-4.45V136.11A4.44,4.44,0,0,0,193.89,131.67Z"/></clipPath><clipPath id="clip-path-5"><polygon class="cls-2" points="107.22 65 102.78 65 102.78 53.89 51.67 53.89 51.67 49.44 107.22 49.44 107.22 65"/></clipPath><clipPath id="clip-path-6"><polygon class="cls-2" points="158.33 160.56 102.78 160.56 102.78 145 107.22 145 107.22 156.11 158.33 156.11 158.33 160.56"/></clipPath><clipPath id="clip-path-7"><path class="cls-2" d="M134.44,80.56h-2.78a2.22,2.22,0,1,1,0-4.44h2.78a2.22,2.22,0,1,1,0,4.44"/></clipPath><clipPath id="clip-path-8"><path class="cls-2" d="M170.28,80.56h-6a2.22,2.22,0,1,1,0-4.44h6a2.22,2.22,0,0,1,0,4.44m-17.92,0h-6a2.22,2.22,0,0,1,0-4.44h6a2.22,2.22,0,0,1,0,4.44"/></clipPath><clipPath id="clip-path-9"><path class="cls-2" d="M185,83.33a2.22,2.22,0,0,1-2.22-2.22v-.56h-.56a2.22,2.22,0,0,1,0-4.44H185a2.22,2.22,0,0,1,2.22,2.22v2.78A2.22,2.22,0,0,1,185,83.33"/></clipPath><clipPath id="clip-path-10"><path class="cls-2" d="M185,119.17a2.22,2.22,0,0,1-2.22-2.22v-6a2.22,2.22,0,0,1,4.44,0v6a2.22,2.22,0,0,1-2.22,2.22m0-17.92A2.22,2.22,0,0,1,182.78,99v-6a2.22,2.22,0,1,1,4.44,0v6a2.22,2.22,0,0,1-2.22,2.22"/></clipPath><clipPath id="clip-path-11"><path class="cls-2" d="M185,133.89a2.22,2.22,0,0,1-2.22-2.22v-2.78a2.22,2.22,0,0,1,4.44,0v2.78a2.22,2.22,0,0,1-2.22,2.22"/></clipPath><clipPath id="clip-path-12"><path class="cls-2" d="M25,83.33a2.22,2.22,0,0,1-2.22-2.22V78.33a2.22,2.22,0,0,1,4.44,0v2.78A2.22,2.22,0,0,1,25,83.33"/></clipPath><clipPath id="clip-path-13"><path class="cls-2" d="M25,119.17a2.22,2.22,0,0,1-2.22-2.22v-6a2.22,2.22,0,0,1,4.44,0v6A2.22,2.22,0,0,1,25,119.17m0-17.92A2.22,2.22,0,0,1,22.78,99v-6a2.22,2.22,0,1,1,4.44,0v6A2.22,2.22,0,0,1,25,101.25"/></clipPath><clipPath id="clip-path-14"><path class="cls-2" d="M27.78,133.89H25a2.22,2.22,0,0,1-2.22-2.22v-2.78a2.22,2.22,0,0,1,4.44,0v.56h.56a2.22,2.22,0,0,1,0,4.44"/></clipPath><clipPath id="clip-path-15"><path class="cls-2" d="M63.61,133.89h-6a2.22,2.22,0,0,1,0-4.44h6a2.22,2.22,0,0,1,0,4.44m-17.92,0h-6a2.22,2.22,0,0,1,0-4.44h6a2.22,2.22,0,1,1,0,4.44"/></clipPath><clipPath id="clip-path-16"><path class="cls-2" d="M78.33,133.89H75.56a2.22,2.22,0,1,1,0-4.44h2.78a2.22,2.22,0,1,1,0,4.44"/></clipPath><clipPath id="clip-path-17"><path class="cls-2" d="M118.33,120.56H91.67a2.22,2.22,0,1,1,0-4.44h26.67a2.22,2.22,0,1,1,0,4.44"/></clipPath><clipPath id="clip-path-18"><path class="cls-2" d="M118.33,107.22H91.67a2.22,2.22,0,1,1,0-4.44h26.67a2.22,2.22,0,1,1,0,4.44"/></clipPath><clipPath id="clip-path-19"><path class="cls-2" d="M118.33,93.89H91.67a2.22,2.22,0,1,1,0-4.44h26.67a2.22,2.22,0,1,1,0,4.44"/></clipPath><clipPath id="clip-path-20"><path class="cls-2" d="M178.16,150.74h3.69v2.74h-3.69q0,.79-.1,1.7c-.05.61-.12,1.16-.19,1.65h5.8v2.83h-9.44a26.26,26.26,0,0,0,.53-3.35q.13-1.54.18-2.83H173v-2.74h1.93v-1.2a8.48,8.48,0,0,1,.4-2.82,4.62,4.62,0,0,1,1.1-1.8,4,4,0,0,1,1.68-1,7.66,7.66,0,0,1,2.14-.28,7.32,7.32,0,0,1,1.67.18,9,9,0,0,1,1.51.5L182.6,147a4.85,4.85,0,0,0-1-.36,5.37,5.37,0,0,0-1.1-.14,3.9,3.9,0,0,0-1,.11,1.58,1.58,0,0,0-.74.43,2.17,2.17,0,0,0-.49.86,4.42,4.42,0,0,0-.18,1.36Z"/></clipPath><clipPath id="clip-path-21"><path class="cls-2" d="M30.4,65.16a10.47,10.47,0,0,1-2.59-.47,15.63,15.63,0,0,1-1.48-.58l.94-2.43a11.86,11.86,0,0,0,1.83.66,8.33,8.33,0,0,0,2.24.29,3.37,3.37,0,0,0,1.82-.35,1.13,1.13,0,0,0,.49-1,1.18,1.18,0,0,0-.2-.68,1.92,1.92,0,0,0-.57-.52,5.8,5.8,0,0,0-.94-.45c-.38-.15-.82-.31-1.31-.48s-1-.35-1.41-.56A5.72,5.72,0,0,1,28,57.86a3.38,3.38,0,0,1-.9-1.09,3.27,3.27,0,0,1-.34-1.55A4.32,4.32,0,0,1,27,53.88a3.48,3.48,0,0,1,.64-1.17,3.67,3.67,0,0,1,1.14-.9,5.65,5.65,0,0,1,1.66-.54V49h2.75v2.19a12.53,12.53,0,0,1,2,.32,8.89,8.89,0,0,1,1.3.42l-.68,2.53A10.29,10.29,0,0,0,34.06,54a9.17,9.17,0,0,0-2-.21,2.6,2.6,0,0,0-1.51.34,1,1,0,0,0-.46.89,1.13,1.13,0,0,0,.14.58,1.3,1.3,0,0,0,.45.43,5,5,0,0,0,.76.37c.3.12.66.25,1.08.39a16.24,16.24,0,0,1,1.78.74,6.63,6.63,0,0,1,1.42.92,3.73,3.73,0,0,1,.94,1.21A3.66,3.66,0,0,1,37,61.24a4.15,4.15,0,0,1-.2,1.25,3.22,3.22,0,0,1-.66,1.15,4,4,0,0,1-1.19.91,5.92,5.92,0,0,1-1.8.55v2.57H30.4Z"/></clipPath></defs><title>ic-1-4</title><g id="Слой_2" data-name="Слой 2"><g id="Слой_1-2" data-name="Слой 1"><g class="cls-3"><rect class="cls-4" width="210" height="210"/></g><g class="cls-5"><rect class="cls-6" x="73.33" y="60" width="63.33" height="90"/></g><g class="cls-7"><rect class="cls-6" x="6.67" y="33.33" width="50" height="50"/></g><g class="cls-8"><rect class="cls-6" x="153.33" y="126.67" width="50" height="50"/></g><g class="cls-9"><rect class="cls-6" x="46.67" y="44.44" width="65.56" height="25.56"/></g><g class="cls-10"><rect class="cls-6" x="97.78" y="140" width="65.56" height="25.56"/></g><g class="cls-11"><rect class="cls-6" x="124.44" y="71.11" width="17.22" height="14.44"/></g><g class="cls-12"><rect class="cls-6" x="139.17" y="71.11" width="38.33" height="14.44"/></g><g class="cls-13"><rect class="cls-6" x="175" y="71.11" width="17.22" height="17.22"/></g><g class="cls-14"><rect class="cls-6" x="177.78" y="85.83" width="14.44" height="38.33"/></g><g class="cls-15"><rect class="cls-6" x="177.78" y="121.67" width="14.44" height="17.22"/></g><g class="cls-16"><rect class="cls-6" x="17.78" y="71.11" width="14.44" height="17.22"/></g><g class="cls-17"><rect class="cls-6" x="17.78" y="85.83" width="14.44" height="38.33"/></g><g class="cls-18"><rect class="cls-6" x="17.78" y="121.67" width="17.22" height="17.22"/></g><g class="cls-19"><rect class="cls-6" x="32.5" y="124.44" width="38.33" height="14.44"/></g><g class="cls-20"><rect class="cls-6" x="68.33" y="124.44" width="17.22" height="14.44"/></g><g class="cls-21"><rect class="cls-6" x="84.44" y="111.11" width="41.11" height="14.44"/></g><g class="cls-22"><rect class="cls-6" x="84.44" y="97.78" width="41.11" height="14.44"/></g><g class="cls-23"><rect class="cls-6" x="84.44" y="84.44" width="41.11" height="14.44"/></g><g class="cls-24"><rect class="cls-6" x="168" y="138.67" width="20.67" height="26"/></g><g class="cls-25"><rect class="cls-6" x="21.33" y="44" width="20.67" height="28.67"/></g></g></g></svg>