<svg xmlns="http://www.w3.org/2000/svg" xmlns:xlink="http://www.w3.org/1999/xlink" width="210" height="210" viewBox="0 0 210 210"><defs><style>.cls-1,.cls-2{fill:none;}.cls-2{clip-rule:evenodd;}.cls-3{clip-path:url(#clip-path);}.cls-4{fill:#fff;}.cls-5{clip-path:url(#clip-path-2);}.cls-6{fill:#e06727;}.cls-7{clip-path:url(#clip-path-3);}.cls-8{clip-path:url(#clip-path-4);}.cls-9{clip-path:url(#clip-path-5);}.cls-10{clip-path:url(#clip-path-6);}.cls-11{clip-path:url(#clip-path-7);}.cls-12{clip-path:url(#clip-path-8);}.cls-13{clip-path:url(#clip-path-9);}.cls-14{clip-path:url(#clip-path-10);}.cls-15{clip-path:url(#clip-path-11);}.cls-16{clip-path:url(#clip-path-12);}.cls-17{clip-path:url(#clip-path-13);}.cls-18{clip-path:url(#clip-path-14);}.cls-19{clip-path:url(#clip-path-15);}.cls-20{clip-path:url(#clip-path-16);}.cls-21{clip-path:url(#clip-path-17);}.cls-22{clip-path:url(#clip-path-18);}.cls-23{clip-path:url(#clip-path-19);}</style><clipPath id="clip-path"><rect class="cls-1" x="5" y="5" width="200" height="200"/></clipPath><clipPath id="clip-path-2"><path class="cls-2" d="M45,162.78H31.67A6.67,6.67,0,0,0,25,169.44v13.33a6.67,6.67,0,0,0,6.67,6.67H45a6.67,6.67,0,0,0,6.67-6.67V169.44A6.67,6.67,0,0,0,45,162.78Zm2.22,20A2.22,2.22,0,0,1,45,185H31.67a2.22,2.22,0,0,1-2.22-2.22V169.44a2.22,2.22,0,0,1,2.22-2.22H45a2.22,2.22,0,0,1,2.22,2.22Z"/></clipPath><clipPath id="clip-path-3"><path class="cls-2" d="M78.33,118.33H65A6.67,6.67,0,0,0,58.33,125v57.78A6.67,6.67,0,0,0,65,189.44H78.33A6.67,6.67,0,0,0,85,182.78V125A6.67,6.67,0,0,0,78.33,118.33Zm2.22,64.45A2.22,2.22,0,0,1,78.33,185H65a2.22,2.22,0,0,1-2.22-2.22V125A2.22,2.22,0,0,1,65,122.78H78.33A2.22,2.22,0,0,1,80.56,125Z"/></clipPath><clipPath id="clip-path-4"><path class="cls-2" d="M111.67,140.56H98.33a6.67,6.67,0,0,0-6.67,6.67v35.56a6.67,6.67,0,0,0,6.67,6.67h13.33a6.67,6.67,0,0,0,6.67-6.67V147.22A6.67,6.67,0,0,0,111.67,140.56Zm2.22,42.22a2.22,2.22,0,0,1-2.22,2.22H98.33a2.22,2.22,0,0,1-2.22-2.22V147.22A2.22,2.22,0,0,1,98.33,145h13.33a2.22,2.22,0,0,1,2.22,2.22Z"/></clipPath><clipPath id="clip-path-5"><path class="cls-2" d="M145,96.11H131.67a6.67,6.67,0,0,0-6.67,6.67v80a6.67,6.67,0,0,0,6.67,6.67H145a6.67,6.67,0,0,0,6.67-6.67v-80A6.67,6.67,0,0,0,145,96.11Zm2.22,86.67A2.22,2.22,0,0,1,145,185H131.67a2.22,2.22,0,0,1-2.22-2.22v-80a2.22,2.22,0,0,1,2.22-2.22H145a2.22,2.22,0,0,1,2.22,2.22Z"/></clipPath><clipPath id="clip-path-6"><path class="cls-2" d="M178.33,51.67H165a6.67,6.67,0,0,0-6.67,6.67V182.78a6.67,6.67,0,0,0,6.67,6.67h13.33a6.67,6.67,0,0,0,6.67-6.67V58.33A6.67,6.67,0,0,0,178.33,51.67Zm2.22,131.11a2.23,2.23,0,0,1-2.22,2.22H165a2.22,2.22,0,0,1-2.22-2.22V58.33A2.22,2.22,0,0,1,165,56.11h13.33a2.22,2.22,0,0,1,2.22,2.22Z"/></clipPath><clipPath id="clip-path-7"><path class="cls-2" d="M196.6,18.78a2.23,2.23,0,0,0-3-.94l-16.25,8.52a7.76,7.76,0,0,0-12.85,2.27,2.22,2.22,0,0,0-1.5,4.17l1.05.42c0,.07,0,.13.05.2l-15.71,8.5a2.22,2.22,0,0,0-1,1.21l-9.2,25.76a7.78,7.78,0,0,0-7.59,7.69l-16,8.45a2.23,2.23,0,0,0-1.08,1.3l-8.35,26.44H105a7.75,7.75,0,0,0-5.66,2.46l-15.24-7.62L78.51,102A7.79,7.79,0,1,0,64,99.68l-15.56,7.78a2.22,2.22,0,0,0-1.11,1.28L38.58,135h-.25a7.74,7.74,0,0,0-7.65,9.12L15.12,151.9a2.22,2.22,0,0,0,2,4l15.57-7.78A7.77,7.77,0,1,0,42.8,136.42L51.26,111,66,103.65a7.75,7.75,0,0,0,9.36,1.52L81.21,111a2.27,2.27,0,0,0,.58.42l15.56,7.78a7.77,7.77,0,1,0,12-5.09l8.07-25.57,14.41-7.61a7.77,7.77,0,1,0,10.61-10.86l8.8-24.64,15.06-8.15a7.73,7.73,0,0,0,9.88.69,2.2,2.2,0,0,0,.55.33l4.58,1.83A2.22,2.22,0,1,0,183,36l-4-1.61a7.52,7.52,0,0,0,.39-4.05l16.34-8.57a2.22,2.22,0,0,0,.94-3M38.33,146.11a3.33,3.33,0,1,1,3.33-3.33,3.34,3.34,0,0,1-3.33,3.33m33.33-44.44A3.33,3.33,0,1,1,75,98.33a3.34,3.34,0,0,1-3.33,3.33M105,123.89a3.33,3.33,0,1,1,3.33-3.33,3.34,3.34,0,0,1-3.33,3.33M138.33,80a3.33,3.33,0,1,1,3.33-3.33A3.34,3.34,0,0,1,138.33,80m33.33-45A3.33,3.33,0,1,1,175,31.67,3.34,3.34,0,0,1,171.67,35"/></clipPath><clipPath id="clip-path-8"><path class="cls-2" d="M194.71,40.72l-2.58-1a2.22,2.22,0,1,0-1.65,4.13l2.58,1a2.2,2.2,0,0,0,.83.16,2.22,2.22,0,0,0,.82-4.29"/></clipPath><clipPath id="clip-path-9"><path class="cls-2" d="M149.25,27.32l4.58,1.83A2.22,2.22,0,0,0,155.48,25l-4.58-1.83a2.22,2.22,0,0,0-1.65,4.13"/></clipPath><clipPath id="clip-path-10"><path class="cls-2" d="M136.1,25a2.22,2.22,0,0,0,3-1l.33-.66.68.27a2.22,2.22,0,1,0,1.65-4.12l-2.58-1a2.22,2.22,0,0,0-2.81,1.07L135.1,22a2.22,2.22,0,0,0,1,3"/></clipPath><clipPath id="clip-path-11"><path class="cls-2" d="M121.29,54.63a2.22,2.22,0,0,0,3-1l2.47-4.93a2.22,2.22,0,1,0-4-2l-2.47,4.93a2.22,2.22,0,0,0,1,3"/></clipPath><clipPath id="clip-path-12"><path class="cls-2" d="M128.7,39.83a2.22,2.22,0,0,0,3-1l2.47-4.93a2.22,2.22,0,1,0-4-2l-2.47,4.94a2.22,2.22,0,0,0,1,3"/></clipPath><clipPath id="clip-path-13"><path class="cls-2" d="M113.33,67.31h.07l2.78-.09A2.22,2.22,0,0,0,118.1,66l1.24-2.48a2.22,2.22,0,0,0-4-2l-.65,1.3-1.45,0a2.22,2.22,0,0,0,.07,4.44"/></clipPath><clipPath id="clip-path-14"><path class="cls-2" d="M74.69,61.27l6.13,2.18a2.22,2.22,0,0,0,1.49-4.19l-6.13-2.18a2.22,2.22,0,0,0-1.49,4.19"/></clipPath><clipPath id="clip-path-15"><path class="cls-2" d="M93.14,67.83a2.22,2.22,0,0,0,.75.13H94l6.44-.21a2.22,2.22,0,0,0,2.15-2.3,2.2,2.2,0,0,0-2.3-2.15l-6.17.21A2.21,2.21,0,0,0,91.77,65a2.25,2.25,0,0,0,1.38,2.85"/></clipPath><clipPath id="clip-path-16"><path class="cls-2" d="M58.62,58.1a2.21,2.21,0,0,0,1.59-.67l.94-1,1.28.46a2.22,2.22,0,0,0,1.49-4.19l-2.62-.93a2.22,2.22,0,0,0-2.34.54l-1.94,2a2.22,2.22,0,0,0,1.59,3.77"/></clipPath><clipPath id="clip-path-17"><path class="cls-2" d="M45.3,71.75a2.21,2.21,0,0,0,1.59-.67l4.44-4.55a2.22,2.22,0,1,0-3.18-3.1L43.7,68a2.22,2.22,0,0,0,1.59,3.77"/></clipPath><clipPath id="clip-path-18"><path class="cls-2" d="M30.11,82.8a2.22,2.22,0,0,0,1-.21l5.74-2.73a2.22,2.22,0,0,0-1.91-4l-5.74,2.73a2.22,2.22,0,0,0,1,4.23"/></clipPath><clipPath id="clip-path-19"><path class="cls-2" d="M16.11,89.44a2.21,2.21,0,0,0,1-.21L19.57,88a2.22,2.22,0,0,0-1.91-4l-2.51,1.19a2.22,2.22,0,0,0,1,4.23"/></clipPath></defs><title>ic-1-3</title><g id="Слой_2" data-name="Слой 2"><g id="Слой_1-2" data-name="Слой 1"><g class="cls-3"><rect class="cls-4" width="210" height="210"/></g><g class="cls-5"><rect class="cls-6" x="20" y="157.78" width="36.67" height="36.67"/></g><g class="cls-7"><rect class="cls-6" x="53.33" y="113.33" width="36.67" height="81.11"/></g><g class="cls-8"><rect class="cls-6" x="86.67" y="135.56" width="36.67" height="58.89"/></g><g class="cls-9"><rect class="cls-6" x="120" y="91.11" width="36.67" height="103.33"/></g><g class="cls-10"><rect class="cls-6" x="153.33" y="46.67" width="36.67" height="147.78"/></g><g class="cls-11"><rect class="cls-6" x="8.89" y="12.59" width="192.96" height="148.52"/></g><g class="cls-12"><rect class="cls-6" x="184.09" y="34.52" width="17.02" height="15.48"/></g><g class="cls-13"><rect class="cls-6" x="142.85" y="18.03" width="19.03" height="16.28"/></g><g class="cls-14"><rect class="cls-6" x="129.87" y="13.33" width="18.27" height="16.93"/></g><g class="cls-15"><rect class="cls-6" x="115.07" y="40.49" width="16.91" height="19.38"/></g><g class="cls-16"><rect class="cls-6" x="122.47" y="25.69" width="16.91" height="19.38"/></g><g class="cls-17"><rect class="cls-6" x="106.11" y="55.29" width="18.46" height="17.02"/></g><g class="cls-18"><rect class="cls-6" x="68.21" y="51.96" width="20.58" height="16.63"/></g><g class="cls-19"><rect class="cls-6" x="86.64" y="58.3" width="20.91" height="14.66"/></g><g class="cls-20"><rect class="cls-6" x="51.39" y="46.67" width="19" height="16.43"/></g><g class="cls-21"><rect class="cls-6" x="38.07" y="57.76" width="18.88" height="19"/></g><g class="cls-22"><rect class="cls-6" x="22.88" y="70.62" width="20.19" height="17.17"/></g><g class="cls-23"><rect class="cls-6" x="8.89" y="78.81" width="16.95" height="15.64"/></g></g></g></svg>