<svg xmlns="http://www.w3.org/2000/svg" xmlns:xlink="http://www.w3.org/1999/xlink" width="210" height="210" viewBox="0 0 210 210"><defs><style>.cls-1,.cls-2{fill:none;}.cls-2{clip-rule:evenodd;}.cls-3{clip-path:url(#clip-path);}.cls-4{fill:#fff;}.cls-5{clip-path:url(#clip-path-2);}.cls-6{fill:#e06727;}.cls-7{clip-path:url(#clip-path-3);}.cls-8{clip-path:url(#clip-path-4);}.cls-9{clip-path:url(#clip-path-5);}.cls-10{clip-path:url(#clip-path-6);}.cls-11{clip-path:url(#clip-path-7);}.cls-12{clip-path:url(#clip-path-8);}.cls-13{clip-path:url(#clip-path-9);}.cls-14{clip-path:url(#clip-path-10);}.cls-15{clip-path:url(#clip-path-11);}.cls-16{clip-path:url(#clip-path-12);}.cls-17{clip-path:url(#clip-path-13);}.cls-18{clip-path:url(#clip-path-14);}.cls-19{clip-path:url(#clip-path-15);}.cls-20{clip-path:url(#clip-path-16);}.cls-21{clip-path:url(#clip-path-17);}.cls-22{clip-path:url(#clip-path-18);}.cls-23{clip-path:url(#clip-path-19);}.cls-24{clip-path:url(#clip-path-20);}</style><clipPath id="clip-path"><rect class="cls-1" x="5" y="5" width="200" height="200"/></clipPath><clipPath id="clip-path-2"><path class="cls-2" d="M82.78,167.22h44.44V136.11H82.78Zm44.44-35.55H82.78a4.44,4.44,0,0,0-4.44,4.44v31.11a4.44,4.44,0,0,0,4.44,4.45h44.44a4.44,4.44,0,0,0,4.44-4.45V136.11A4.44,4.44,0,0,0,127.22,131.67Z"/></clipPath><clipPath id="clip-path-3"><path class="cls-2" d="M56.11,100.56h97.78V42.78H56.11Zm97.78-62.22H56.11a4.44,4.44,0,0,0-4.44,4.45v57.78A4.44,4.44,0,0,0,56.11,105h97.78a4.44,4.44,0,0,0,4.44-4.44V42.78A4.44,4.44,0,0,0,153.89,38.33Z"/></clipPath><clipPath id="clip-path-4"><path class="cls-2" d="M149.44,167.22h44.44V136.11H149.44Zm44.44-35.55H149.44a4.44,4.44,0,0,0-4.44,4.44v31.11a4.44,4.44,0,0,0,4.44,4.45h44.44a4.44,4.44,0,0,0,4.44-4.45V136.11A4.44,4.44,0,0,0,193.89,131.67Z"/></clipPath><clipPath id="clip-path-5"><path class="cls-2" d="M16.11,167.22H60.56V136.11H16.11Zm44.44-35.55H16.11a4.44,4.44,0,0,0-4.44,4.44v31.11a4.44,4.44,0,0,0,4.44,4.45H60.56A4.44,4.44,0,0,0,65,167.22V136.11A4.44,4.44,0,0,0,60.56,131.67Z"/></clipPath><clipPath id="clip-path-6"><path class="cls-2" d="M38.33,133.89a2.22,2.22,0,0,1-2.22-2.22v-5.56a2.22,2.22,0,0,1,4.44,0v5.56a2.22,2.22,0,0,1-2.22,2.22m0-16.67A2.22,2.22,0,0,1,36.11,115v-5.56a2.22,2.22,0,0,1,4.44,0V115a2.22,2.22,0,0,1-2.22,2.22m0-16.67a2.22,2.22,0,0,1-2.22-2.22V92.78a2.22,2.22,0,0,1,4.44,0v5.55a2.22,2.22,0,0,1-2.22,2.22m0-16.67a2.22,2.22,0,0,1-2.22-2.22V76.11a2.22,2.22,0,0,1,4.44,0v5.56a2.22,2.22,0,0,1-2.22,2.22m12.22-10H45a2.22,2.22,0,0,1,0-4.44h5.56a2.22,2.22,0,0,1,0,4.44"/></clipPath><clipPath id="clip-path-7"><path class="cls-2" d="M171.67,133.89a2.22,2.22,0,0,1-2.22-2.22v-5.55a2.22,2.22,0,0,1,4.44,0v5.55a2.22,2.22,0,0,1-2.22,2.22m0-16.67a2.22,2.22,0,0,1-2.22-2.22v-5.56a2.22,2.22,0,0,1,4.44,0V115a2.22,2.22,0,0,1-2.22,2.22m0-16.67a2.22,2.22,0,0,1-2.22-2.22V92.78a2.22,2.22,0,0,1,4.44,0v5.56a2.22,2.22,0,0,1-2.22,2.22m0-16.67a2.22,2.22,0,0,1-2.22-2.22V76.11a2.22,2.22,0,0,1,4.44,0v5.55a2.22,2.22,0,0,1-2.22,2.22M164.85,74h-5.56a2.22,2.22,0,1,1,0-4.44h5.56a2.22,2.22,0,1,1,0,4.44"/></clipPath><clipPath id="clip-path-8"><path class="cls-2" d="M105,133.89a2.22,2.22,0,0,1-2.22-2.22v-5.56a2.22,2.22,0,0,1,4.44,0v5.56a2.22,2.22,0,0,1-2.22,2.22m0-16.67a2.22,2.22,0,0,1-2.22-2.22v-5.56a2.22,2.22,0,0,1,4.44,0V115a2.22,2.22,0,0,1-2.22,2.22"/></clipPath><clipPath id="clip-path-9"><path class="cls-2" d="M92.88,59.3h-.52a10.21,10.21,0,0,0-2.73.31,4.33,4.33,0,0,0-1.76.91A3.33,3.33,0,0,0,86.93,62a6.33,6.33,0,0,0-.29,2v3.91a2.81,2.81,0,0,1-.52,1.76,2,2,0,0,1-1.68.67v3.05a2,2,0,0,1,1.68.67,2.82,2.82,0,0,1,.52,1.76v3.91a6.33,6.33,0,0,0,.29,2,3.32,3.32,0,0,0,.94,1.46,4.35,4.35,0,0,0,1.76.91,10.2,10.2,0,0,0,2.73.31h.52V81.26h-.65a1.9,1.9,0,0,1-1.57-.52,2.61,2.61,0,0,1-.4-1.6V75.7a6.31,6.31,0,0,0-.36-2.28,3.35,3.35,0,0,0-1.45-1.6,3.36,3.36,0,0,0,1.45-1.6,6.3,6.3,0,0,0,.36-2.28V64.5a2.61,2.61,0,0,1,.4-1.6,1.9,1.9,0,0,1,1.57-.52h.65Z"/></clipPath><clipPath id="clip-path-10"><polygon class="cls-2" points="111.3 59.3 107.4 59.3 98.7 84.34 102.66 84.34 111.3 59.3"/></clipPath><clipPath id="clip-path-11"><path class="cls-2" d="M117.64,59.3h-.52v3.08h.65a1.9,1.9,0,0,1,1.57.52,2.61,2.61,0,0,1,.4,1.6v3.44a6.28,6.28,0,0,0,.36,2.28,3.36,3.36,0,0,0,1.45,1.6,3.35,3.35,0,0,0-1.45,1.6,6.29,6.29,0,0,0-.36,2.28v3.44a2.61,2.61,0,0,1-.4,1.6,1.9,1.9,0,0,1-1.57.52h-.65v3.08h.52a10.21,10.21,0,0,0,2.73-.31,4.36,4.36,0,0,0,1.76-.91,3.33,3.33,0,0,0,.94-1.46,6.33,6.33,0,0,0,.28-2V75.78a2.81,2.81,0,0,1,.52-1.76,2,2,0,0,1,1.68-.67V70.29a2,2,0,0,1-1.68-.67,2.8,2.8,0,0,1-.52-1.76V64a6.33,6.33,0,0,0-.28-2,3.33,3.33,0,0,0-.94-1.46,4.34,4.34,0,0,0-1.76-.91,10.22,10.22,0,0,0-2.73-.31"/></clipPath><clipPath id="clip-path-12"><path class="cls-2" d="M24.49,151.67a2.78,2.78,0,1,0,2.78-2.78,2.78,2.78,0,0,0-2.78,2.78"/></clipPath><clipPath id="clip-path-13"><path class="cls-2" d="M35.56,151.67a2.78,2.78,0,1,0,2.78-2.78,2.78,2.78,0,0,0-2.78,2.78"/></clipPath><clipPath id="clip-path-14"><path class="cls-2" d="M46.62,151.67a2.78,2.78,0,1,0,2.78-2.78,2.78,2.78,0,0,0-2.78,2.78"/></clipPath><clipPath id="clip-path-15"><path class="cls-2" d="M91.16,151.67a2.78,2.78,0,1,0,2.78-2.78,2.78,2.78,0,0,0-2.78,2.78"/></clipPath><clipPath id="clip-path-16"><path class="cls-2" d="M102.22,151.67a2.78,2.78,0,1,0,2.78-2.78,2.78,2.78,0,0,0-2.78,2.78"/></clipPath><clipPath id="clip-path-17"><path class="cls-2" d="M113.29,151.67a2.78,2.78,0,1,0,2.78-2.78,2.78,2.78,0,0,0-2.78,2.78"/></clipPath><clipPath id="clip-path-18"><path class="cls-2" d="M157.82,151.67a2.78,2.78,0,1,0,2.78-2.78,2.78,2.78,0,0,0-2.78,2.78"/></clipPath><clipPath id="clip-path-19"><path class="cls-2" d="M168.89,151.67a2.78,2.78,0,1,0,2.78-2.78,2.78,2.78,0,0,0-2.78,2.78"/></clipPath><clipPath id="clip-path-20"><path class="cls-2" d="M180,151.67a2.78,2.78,0,1,0,2.78-2.78,2.78,2.78,0,0,0-2.78,2.78"/></clipPath></defs><title>ic-1-2</title><g id="Слой_2" data-name="Слой 2"><g id="Слой_1-2" data-name="Слой 1"><g class="cls-3"><rect class="cls-4" width="210" height="210"/></g><g class="cls-5"><rect class="cls-6" x="73.33" y="126.67" width="63.33" height="50"/></g><g class="cls-7"><rect class="cls-6" x="46.67" y="33.33" width="116.67" height="76.67"/></g><g class="cls-8"><rect class="cls-6" x="140" y="126.67" width="63.33" height="50"/></g><g class="cls-9"><rect class="cls-6" x="6.67" y="126.67" width="63.33" height="50"/></g><g class="cls-10"><rect class="cls-6" x="31.11" y="64.44" width="26.67" height="74.44"/></g><g class="cls-11"><rect class="cls-6" x="152.07" y="64.6" width="26.82" height="74.29"/></g><g class="cls-12"><rect class="cls-6" x="97.78" y="102.22" width="14.44" height="36.67"/></g><g class="cls-13"><rect class="cls-6" x="79.44" y="54.3" width="18.43" height="35.04"/></g><g class="cls-14"><rect class="cls-6" x="93.7" y="54.3" width="22.6" height="35.04"/></g><g class="cls-15"><rect class="cls-6" x="112.12" y="54.3" width="18.43" height="35.04"/></g><g class="cls-16"><rect class="cls-6" x="19.49" y="143.89" width="15.56" height="15.56"/></g><g class="cls-17"><rect class="cls-6" x="30.56" y="143.89" width="15.56" height="15.56"/></g><g class="cls-18"><rect class="cls-6" x="41.62" y="143.89" width="15.56" height="15.56"/></g><g class="cls-19"><rect class="cls-6" x="86.16" y="143.89" width="15.56" height="15.56"/></g><g class="cls-20"><rect class="cls-6" x="97.22" y="143.89" width="15.56" height="15.56"/></g><g class="cls-21"><rect class="cls-6" x="108.29" y="143.89" width="15.56" height="15.56"/></g><g class="cls-22"><rect class="cls-6" x="152.82" y="143.89" width="15.56" height="15.56"/></g><g class="cls-23"><rect class="cls-6" x="163.89" y="143.89" width="15.56" height="15.56"/></g><g class="cls-24"><rect class="cls-6" x="174.96" y="143.89" width="15.56" height="15.56"/></g></g></g></svg>