<svg xmlns="http://www.w3.org/2000/svg" xmlns:xlink="http://www.w3.org/1999/xlink" width="210" height="210" viewBox="0 0 210 210"><defs><style>.cls-1,.cls-2{fill:none;}.cls-2{clip-rule:evenodd;}.cls-3{clip-path:url(#clip-path);}.cls-4{fill:#fff;}.cls-5{clip-path:url(#clip-path-2);}.cls-6{fill:#e06727;}.cls-7{clip-path:url(#clip-path-3);}.cls-8{clip-path:url(#clip-path-4);}.cls-9{clip-path:url(#clip-path-5);}.cls-10{clip-path:url(#clip-path-6);}.cls-11{clip-path:url(#clip-path-7);}.cls-12{clip-path:url(#clip-path-8);}.cls-13{clip-path:url(#clip-path-9);}.cls-14{clip-path:url(#clip-path-10);}.cls-15{clip-path:url(#clip-path-11);}.cls-16{clip-path:url(#clip-path-12);}.cls-17{clip-path:url(#clip-path-13);}.cls-18{clip-path:url(#clip-path-14);}</style><clipPath id="clip-path"><rect class="cls-1" x="5" y="5" width="200" height="200"/></clipPath><clipPath id="clip-path-2"><path class="cls-2" d="M149.44,169.44H38.33a2.22,2.22,0,0,0,0,4.44H149.44a2.22,2.22,0,0,0,0-4.44"/></clipPath><clipPath id="clip-path-3"><path class="cls-2" d="M127.22,180.56H60.56a2.22,2.22,0,1,0,0,4.44h66.67a2.22,2.22,0,1,0,0-4.44"/></clipPath><clipPath id="clip-path-4"><path class="cls-2" d="M139.07,96.11h10.37a2.22,2.22,0,1,0,0-4.44H139.07a2.22,2.22,0,1,0,0,4.44"/></clipPath><clipPath id="clip-path-5"><path class="cls-2" d="M180.46,94.62c-7-5.65-19.62-3.06-20.36-2.91h0l-.15.05-.26.08-.18.1-.19.11-.17.14-.16.14-.13.16a1.91,1.91,0,0,0-.14.18s-.06.1-.08.15a2.1,2.1,0,0,0-.12.23c0,.05,0,.11-.05.17a2.08,2.08,0,0,0-.07.24,2,2,0,0,0,0,.22c0,.07,0,.14,0,.21,0,28.13-17.27,53.32-43,62.68-6.42,2.34-36.51,2.34-42.93,0-25-9.12-42.06-33.23-42.94-60.46h97.74a2.22,2.22,0,0,0,0-4.45h-100A2.22,2.22,0,0,0,25,93.89c0,30,18.45,56.86,45.9,66.86,3.76,1.37,13.37,2.05,23,2.05s19.22-.68,23-2.05a69.38,69.38,0,0,0,36.59-31.31l19-.06A12.58,12.58,0,0,0,185,116.82V105C185,100.54,183.47,97,180.46,94.62Zm.09,22.2a8.13,8.13,0,0,1-8.09,8.12l-16.69.05a72.39,72.39,0,0,0,7-29.21c3.35-.47,10.81-1,14.94,2.31,1.93,1.56,2.88,3.83,2.88,6.92Z"/></clipPath><clipPath id="clip-path-6"><path class="cls-2" d="M95.39,82.2a2.22,2.22,0,1,0,4.29,1.15c3.72-13.85,1.95-21.35.38-28-1.65-7-3.2-13.52,1.79-27.41a2.22,2.22,0,0,0-4.18-1.5C92.23,41.6,94,49.13,95.73,56.41c1.52,6.4,3.08,13-.35,25.79"/></clipPath><clipPath id="clip-path-7"><path class="cls-2" d="M110.12,71.25a2.22,2.22,0,0,0,1.77,2.6,2.26,2.26,0,0,0,.41,0,2.22,2.22,0,0,0,2.18-1.81,38,38,0,0,0-.24-17.41c-.89-4.09-1.72-8,.21-16.19a2.22,2.22,0,1,0-4.33-1C108,46.66,109,51.21,109.9,55.6c.87,4,1.69,7.81.21,15.65"/></clipPath><clipPath id="clip-path-8"><path class="cls-2" d="M81.66,71.25a2.22,2.22,0,0,0,1.77,2.6,2.26,2.26,0,0,0,.41,0A2.22,2.22,0,0,0,86,72.08a38.38,38.38,0,0,0-.23-17.4c-.88-4.13-1.71-8,.21-16.21a2.22,2.22,0,1,0-4.33-1c-2.15,9.14-1.18,13.72-.23,18.15a33.73,33.73,0,0,1,.21,15.65"/></clipPath><clipPath id="clip-path-9"><path class="cls-2" d="M91.2,147.17a2.22,2.22,0,1,0-.17,4.44q1.41.05,2.86.05a2.22,2.22,0,0,0,0-4.45q-1.37,0-2.69-.05"/></clipPath><clipPath id="clip-path-10"><path class="cls-2" d="M50.67,129.18a2.22,2.22,0,0,0-.33,3.13c1.09,1.35,2.25,2.65,3.44,3.86A2.22,2.22,0,1,0,56.94,133c-1.09-1.11-2.15-2.3-3.15-3.54a2.22,2.22,0,0,0-3.13-.33"/></clipPath><clipPath id="clip-path-11"><path class="cls-2" d="M44.62,123.72a2.22,2.22,0,1,0,3.9-2.13c-.75-1.38-1.46-2.82-2.11-4.28a2.22,2.22,0,1,0-4.07,1.79c.7,1.57,1.46,3.13,2.27,4.62"/></clipPath><clipPath id="clip-path-12"><path class="cls-2" d="M64.22,139.06a2.22,2.22,0,0,0-2.46,3.7,49.69,49.69,0,0,0,4.47,2.64,2.22,2.22,0,0,0,2.06-3.94,44.7,44.7,0,0,1-4.07-2.4"/></clipPath><clipPath id="clip-path-13"><path class="cls-2" d="M77.07,145a2.22,2.22,0,1,0-1.24,4.27c1.62.47,3.31.88,5,1.22a2.26,2.26,0,0,0,.43,0,2.22,2.22,0,0,0,.43-4.4c-1.57-.31-3.13-.69-4.62-1.12"/></clipPath><clipPath id="clip-path-14"><path class="cls-2" d="M43.29,108.28c-.39-1.56-.54-2.5-.54-2.51a2.22,2.22,0,0,0-4.39.68s.17,1.13.62,2.91A2.22,2.22,0,0,0,41.14,111a2.3,2.3,0,0,0,.54-.07,2.22,2.22,0,0,0,1.62-2.7"/></clipPath></defs><title>ic-1</title><g id="Слой_2" data-name="Слой 2"><g id="Слой_1-2" data-name="Слой 1"><g class="cls-3"><rect class="cls-4" width="210" height="210"/></g><g class="cls-5"><rect class="cls-6" x="31.11" y="164.44" width="125.56" height="14.44"/></g><g class="cls-7"><rect class="cls-6" x="53.33" y="175.56" width="81.11" height="14.44"/></g><g class="cls-8"><rect class="cls-6" x="131.85" y="86.67" width="24.81" height="14.44"/></g><g class="cls-9"><rect class="cls-6" x="20" y="85.99" width="170" height="81.81"/></g><g class="cls-10"><rect class="cls-6" x="89.01" y="20" width="17.96" height="70"/></g><g class="cls-11"><rect class="cls-6" x="103.83" y="30.74" width="16.53" height="48.15"/></g><g class="cls-12"><rect class="cls-6" x="75.39" y="30.74" width="16.51" height="48.15"/></g><g class="cls-13"><rect class="cls-6" x="83.89" y="142.17" width="17.22" height="14.5"/></g><g class="cls-14"><rect class="cls-6" x="44.84" y="123.69" width="17.74" height="18.15"/></g><g class="cls-15"><rect class="cls-6" x="37.16" y="110.99" width="16.63" height="18.9"/></g><g class="cls-16"><rect class="cls-6" x="55.77" y="133.69" width="18.71" height="16.97"/></g><g class="cls-17"><rect class="cls-6" x="69.22" y="139.88" width="19.26" height="15.61"/></g><g class="cls-18"><rect class="cls-6" x="33.33" y="98.89" width="15.03" height="17.16"/></g></g></g></svg>