<svg xmlns="http://www.w3.org/2000/svg" xmlns:xlink="http://www.w3.org/1999/xlink" width="210" height="210" viewBox="0 0 210 210"><defs><style>.cls-1,.cls-2{fill:none;}.cls-2{clip-rule:evenodd;}.cls-3{clip-path:url(#clip-path);}.cls-4{fill:#fff;}.cls-5{clip-path:url(#clip-path-2);}.cls-6{fill:#e06727;}.cls-7{clip-path:url(#clip-path-3);}.cls-8{clip-path:url(#clip-path-4);}.cls-9{clip-path:url(#clip-path-5);}.cls-10{clip-path:url(#clip-path-6);}.cls-11{clip-path:url(#clip-path-7);}.cls-12{clip-path:url(#clip-path-8);}.cls-13{clip-path:url(#clip-path-9);}.cls-14{clip-path:url(#clip-path-10);}.cls-15{clip-path:url(#clip-path-11);}.cls-16{clip-path:url(#clip-path-12);}.cls-17{clip-path:url(#clip-path-13);}.cls-18{clip-path:url(#clip-path-14);}</style><clipPath id="clip-path"><rect class="cls-1" x="5" y="5" width="200" height="200"/></clipPath><clipPath id="clip-path-2"><path class="cls-2" d="M129.33,147.22h0a9.05,9.05,0,0,0,8.44-5.78,61.78,61.78,0,0,1,7.22-13,47.46,47.46,0,0,0,8.89-31.22,49.29,49.29,0,0,0-47.11-45.56H103A47.34,47.34,0,0,0,67.78,68.89a50.44,50.44,0,0,0-11.44,39,44.27,44.27,0,0,0,8.33,20,58.8,58.8,0,0,1,7.56,13.33,9.23,9.23,0,0,0,8.33,6Zm0,4.44H80.56a13.31,13.31,0,0,1-12.44-8.78,56.74,56.74,0,0,0-7-12.33,48.71,48.71,0,0,1-9.11-22A54.53,54.53,0,0,1,64.44,66,52.44,52.44,0,0,1,103,47.22h3.89c27.11.89,49.22,22.22,51.44,49.67A52,52,0,0,1,148.67,131,55.92,55.92,0,0,0,142,143.11,13.79,13.79,0,0,1,129.33,151.67Z"/></clipPath><clipPath id="clip-path-3"><path class="cls-2" d="M127.22,162.78H82.78a2.22,2.22,0,0,1,0-4.44h44.44a2.22,2.22,0,0,1,0,4.44Z"/></clipPath><clipPath id="clip-path-4"><path class="cls-2" d="M127.22,173.89H82.78a2.22,2.22,0,0,1,0-4.45h44.44a2.22,2.22,0,0,1,0,4.45Z"/></clipPath><clipPath id="clip-path-5"><path class="cls-2" d="M116.11,185H93.89a2.22,2.22,0,1,1,0-4.44h22.22a2.22,2.22,0,1,1,0,4.44Z"/></clipPath><clipPath id="clip-path-6"><path class="cls-2" d="M105,40.56a2.23,2.23,0,0,1-2.22-2.22V16.11a2.22,2.22,0,0,1,4.44,0V38.33A2.23,2.23,0,0,1,105,40.56Z"/></clipPath><clipPath id="clip-path-7"><path class="cls-2" d="M193.89,107.22H171.67a2.22,2.22,0,1,1,0-4.44h22.22a2.22,2.22,0,0,1,0,4.44Z"/></clipPath><clipPath id="clip-path-8"><path class="cls-2" d="M38.33,107.22H16.11a2.22,2.22,0,1,1,0-4.44H38.33a2.22,2.22,0,1,1,0,4.44Z"/></clipPath><clipPath id="clip-path-9"><path class="cls-2" d="M55.67,56.78a2.19,2.19,0,0,1-1.56-.67l-8-8A2.2,2.2,0,1,1,49.22,45l7.89,7.89a2.15,2.15,0,0,1,0,3.11A1.62,1.62,0,0,1,55.67,56.78Z"/></clipPath><clipPath id="clip-path-10"><path class="cls-2" d="M154.33,57.89a2.19,2.19,0,0,1-1.56-.67,2.15,2.15,0,0,1,0-3.11l7.89-7.89a2.2,2.2,0,1,1,3.11,3.11l-7.89,7.89A2,2,0,0,1,154.33,57.89Z"/></clipPath><clipPath id="clip-path-11"><path class="cls-2" d="M105,132.78a34.19,34.19,0,0,1-10.44-1.67A34.54,34.54,0,0,1,72.44,109a2.21,2.21,0,1,1,4.22-1.33,29.69,29.69,0,0,0,56.56,0,2.21,2.21,0,1,1,4.22,1.33A34.1,34.1,0,0,1,105,132.78Z"/></clipPath><clipPath id="clip-path-12"><path class="cls-2" d="M92.11,71.78h-.56a12.13,12.13,0,0,0-2.89.33,6.18,6.18,0,0,0-1.89,1,4.66,4.66,0,0,0-1,1.56,7,7,0,0,0-.33,2.11v4.11a2.91,2.91,0,0,1-.56,1.89,1.84,1.84,0,0,1-1.78.67v3.22a2.12,2.12,0,0,1,1.78.67,3.75,3.75,0,0,1,.56,1.89v4.11a7,7,0,0,0,.33,2.11,4.65,4.65,0,0,0,1,1.56,6.18,6.18,0,0,0,1.89,1,12.82,12.82,0,0,0,2.89.33h.56V95.11h-.67a1.83,1.83,0,0,1-1.67-.55,3.14,3.14,0,0,1-.44-1.67V89.22A9.25,9.25,0,0,0,89,86.78a3.27,3.27,0,0,0-1.56-1.67A3.76,3.76,0,0,0,89,83.44,4.54,4.54,0,0,0,89.33,81V77.33a2.89,2.89,0,0,1,.44-1.67,1.83,1.83,0,0,1,1.67-.56h.67Z"/></clipPath><clipPath id="clip-path-13"><polygon class="cls-2" points="111.67 71.78 107.56 71.78 98.33 98.44 102.56 98.44 111.67 71.78"/></clipPath><clipPath id="clip-path-14"><path class="cls-2" d="M118.44,71.78h-.56v3.33h.67a1.83,1.83,0,0,1,1.67.56,3.13,3.13,0,0,1,.44,1.67V81a9.25,9.25,0,0,0,.33,2.44,3.27,3.27,0,0,0,1.56,1.67A3.76,3.76,0,0,0,121,86.78a4.54,4.54,0,0,0-.33,2.44v3.67a2.9,2.9,0,0,1-.44,1.67,1.83,1.83,0,0,1-1.67.55h-.67v3.22h.56a12.12,12.12,0,0,0,2.89-.33,6.18,6.18,0,0,0,1.89-1,4.65,4.65,0,0,0,1-1.56,6.47,6.47,0,0,0,.33-2.11V89.11a2.91,2.91,0,0,1,.56-1.89,1.84,1.84,0,0,1,1.78-.67V83.33a2.12,2.12,0,0,1-1.78-.67,2.91,2.91,0,0,1-.56-1.89V76.56a7,7,0,0,0-.33-2.11,4.66,4.66,0,0,0-1-1.55,6.16,6.16,0,0,0-1.89-1C120.33,71.89,119.44,71.78,118.44,71.78Z"/></clipPath></defs><title>ic-3-3</title><g id="Слой_2" data-name="Слой 2"><g id="Слой_1-2" data-name="Слой 1"><g class="cls-3"><rect class="cls-4" width="210" height="210"/></g><g class="cls-5"><rect class="cls-6" x="46.49" y="42.22" width="116.98" height="114.44"/></g><g class="cls-7"><rect class="cls-6" x="75.56" y="153.33" width="58.89" height="14.44"/></g><g class="cls-8"><rect class="cls-6" x="75.56" y="164.44" width="58.89" height="14.45"/></g><g class="cls-9"><rect class="cls-6" x="86.67" y="175.56" width="36.67" height="14.44"/></g><g class="cls-10"><rect class="cls-6" x="97.78" y="8.89" width="14.44" height="36.67"/></g><g class="cls-11"><rect class="cls-6" x="164.44" y="97.78" width="36.67" height="14.44"/></g><g class="cls-12"><rect class="cls-6" x="8.89" y="97.78" width="36.67" height="14.44"/></g><g class="cls-13"><rect class="cls-6" x="40.44" y="39.33" width="22.33" height="22.44"/></g><g class="cls-14"><rect class="cls-6" x="147.11" y="40.56" width="22.33" height="22.33"/></g><g class="cls-15"><rect class="cls-6" x="67.35" y="101.13" width="75.19" height="36.65"/></g><g class="cls-16"><rect class="cls-6" x="78.11" y="66.78" width="19" height="36.56"/></g><g class="cls-17"><rect class="cls-6" x="93.33" y="66.78" width="23.33" height="36.67"/></g><g class="cls-18"><rect class="cls-6" x="112.89" y="66.78" width="19" height="36.56"/></g></g></g></svg>