<svg xmlns="http://www.w3.org/2000/svg" xmlns:xlink="http://www.w3.org/1999/xlink" width="210" height="210" viewBox="0 0 210 210"><defs><style>.cls-1,.cls-2{fill:none;}.cls-2{clip-rule:evenodd;}.cls-3{clip-path:url(#clip-path);}.cls-4{fill:#fff;}.cls-5{clip-path:url(#clip-path-2);}.cls-6{fill:#e06727;}.cls-7{clip-path:url(#clip-path-3);}.cls-8{clip-path:url(#clip-path-4);}.cls-9{clip-path:url(#clip-path-5);}.cls-10{clip-path:url(#clip-path-6);}.cls-11{clip-path:url(#clip-path-7);}.cls-12{clip-path:url(#clip-path-8);}.cls-13{clip-path:url(#clip-path-9);}</style><clipPath id="clip-path"><rect class="cls-1" x="5" y="5" width="200" height="200"/></clipPath><clipPath id="clip-path-2"><path class="cls-2" d="M105.44,29.56l47.33,20.22L105.44,70,58.22,49.78Zm28.11,49.11-15.78,7.89a12.63,12.63,0,0,0-24.44,0L77.56,78.67V62.89l27.11,11.67a1.89,1.89,0,0,0,1.78,0l27.11-11.67ZM121.44,98h-5.33a2.23,2.23,0,0,0-2.22,2.22v5.33L110,101.67A12.7,12.7,0,0,0,117.44,94Zm-16.11,0a8.11,8.11,0,0,1-8.11-8.22A8.22,8.22,0,1,1,105.44,98ZM97,105.56v-5.33A2.23,2.23,0,0,0,94.78,98H89.44l4-4a12.7,12.7,0,0,0,7.44,7.67Zm61.44-30.89a1.56,1.56,0,1,1-1.56,1.56A1.52,1.52,0,0,1,158.44,74.67ZM51.67,51.78,73,60.89V80a2.1,2.1,0,0,0,1.22,2l16.67,8.33-8.33,8.33a2.22,2.22,0,0,0,1.56,3.78h8.44v8.45a2.19,2.19,0,0,0,1.33,2,2.09,2.09,0,0,0,.89.22,2.19,2.19,0,0,0,1.56-.67l9.11-9.11,9.11,9.11a2.19,2.19,0,0,0,1.56.67,1.34,1.34,0,0,0,.89-.22,2.19,2.19,0,0,0,1.33-2v-8.45h8.44a2.19,2.19,0,0,0,2-1.33,2.47,2.47,0,0,0-.44-2.44L120,90.33,136.67,82a2.1,2.1,0,0,0,1.22-2V61l18.22-7.78V70.78a6,6,0,1,0,4.44,0v-21a.83.83,0,0,0-.11-.56v-.11c-.11-.22-.11-.33-.22-.44s-.22-.33-.33-.44l-.11-.11c-.11-.11-.33-.22-.44-.33L106.33,25a2.46,2.46,0,0,0-1.78,0L51.67,47.78a2.17,2.17,0,0,0,0,4Z"/></clipPath><clipPath id="clip-path-3"><path class="cls-2" d="M161.67,164.89h-66v-6.11a8.22,8.22,0,0,0-16.44,0v5.67H45.89a7.64,7.64,0,0,1-7.56-7.11l9.78-27.89H79.22v9.45a8.2,8.2,0,0,0,8.22,8.22,7.5,7.5,0,0,0,3.89-1,8.25,8.25,0,0,0,8.11,7,8.15,8.15,0,0,0,8.11-7,7.5,7.5,0,0,0,3.89,1,8,8,0,0,0,6-2.67,8.59,8.59,0,0,0,6,2.67,8.2,8.2,0,0,0,8.22-8.22v-9.45h31.22a7.65,7.65,0,0,1,7.56,7.22Zm-78-38a3.78,3.78,0,1,1,7.56,0v12a3.78,3.78,0,1,1-7.56,0Zm12,12v-12a3.78,3.78,0,1,1,7.56,0v18a3.78,3.78,0,1,1-7.56,0ZM107.78,127h0a3.78,3.78,0,1,1,7.56-.11v12a3.78,3.78,0,1,1-7.56,0V127Zm12,0h0a3.78,3.78,0,1,1,7.56-.11v12a3.78,3.78,0,1,1-7.56,0V127ZM163,125H131.56a8.21,8.21,0,0,0-8-6.33,8,8,0,0,0-6,2.67,8.6,8.6,0,0,0-6-2.67,8,8,0,0,0-6,2.67,8.6,8.6,0,0,0-6-2.67,8.16,8.16,0,0,0-6,2.67,8.6,8.6,0,0,0-6-2.67,8.22,8.22,0,0,0-8,6.44H46.44a2.17,2.17,0,0,0-2.11,1.45L34,156.33a1.65,1.65,0,0,0-.11.78,12,12,0,0,0,12,12H79.33v4.22a8.13,8.13,0,0,0,6,7.89v10.11a2.22,2.22,0,1,0,4.44,0v-12a2.23,2.23,0,0,0-2.22-2.22,3.75,3.75,0,0,1-3.78-3.78V159a3.78,3.78,0,1,1,7.56,0v12a2.22,2.22,0,0,0,4.44,0v-1.44h37.56v3.78a3.75,3.75,0,0,1-3.78,3.78,2.23,2.23,0,0,0-2.22,2.22v12a2.22,2.22,0,1,0,4.44,0V181.22a8.23,8.23,0,0,0,6-7.89v-3.78h25.56a2.17,2.17,0,0,0,2.11-1.56l9.33-30.11a1.41,1.41,0,0,0,.11-.67A12,12,0,0,0,163,125Z"/></clipPath><clipPath id="clip-path-4"><path class="cls-2" d="M62.56,88.78a2.11,2.11,0,0,0,3-.78c.89-1.56,1.89-3,2.89-4.44a2.22,2.22,0,1,0-3.56-2.67c-1.11,1.55-2.22,3.22-3.22,4.89A2.19,2.19,0,0,0,62.56,88.78Z"/></clipPath><clipPath id="clip-path-5"><path class="cls-2" d="M61.44,97.67a2.21,2.21,0,0,0-4.22-1.33A52.26,52.26,0,0,0,55.89,102a2.17,2.17,0,0,0,1.78,2.56h.44a2.26,2.26,0,0,0,2.22-1.89A22.69,22.69,0,0,1,61.44,97.67Z"/></clipPath><clipPath id="clip-path-6"><path class="cls-2" d="M57.22,111.33a2.31,2.31,0,0,0-2.11,2.33,51.07,51.07,0,0,0,.67,5.78A2.26,2.26,0,0,0,58,121.33h.33a2.17,2.17,0,0,0,1.78-2.56,44,44,0,0,1-.56-5.22A2.25,2.25,0,0,0,57.22,111.33Z"/></clipPath><clipPath id="clip-path-7"><path class="cls-2" d="M152.89,119.78h.33a2.26,2.26,0,0,0,2.22-1.89,50.55,50.55,0,0,0,.44-5.78,2.22,2.22,0,0,0-4.44,0,43.13,43.13,0,0,1-.44,5.33A2.18,2.18,0,0,0,152.89,119.78Z"/></clipPath><clipPath id="clip-path-8"><path class="cls-2" d="M153.11,103.22a2.13,2.13,0,0,0,1.67-2.67A45.53,45.53,0,0,0,153.22,95a2.3,2.3,0,0,0-2.78-1.44A2.35,2.35,0,0,0,149,96.33a43.32,43.32,0,0,1,1.33,5.11,2.27,2.27,0,0,0,2.22,1.78Z"/></clipPath><clipPath id="clip-path-9"><path class="cls-2" d="M141.89,79.33a2.16,2.16,0,0,0-.33,3.11,37.72,37.72,0,0,1,3,4.33,2.18,2.18,0,0,0,1.89,1,2.52,2.52,0,0,0,1.22-.33,2.28,2.28,0,0,0,.67-3.11A46.06,46.06,0,0,0,145,79.56,2.35,2.35,0,0,0,141.89,79.33Z"/></clipPath></defs><title>ic-3-2</title><g id="Слой_2" data-name="Слой 2"><g id="Слой_1-2" data-name="Слой 1"><g class="cls-3"><rect class="cls-4" width="210" height="210"/></g><g class="cls-5"><rect class="cls-6" x="45.33" y="19.83" width="124" height="98.28"/></g><g class="cls-7"><rect class="cls-6" x="28.89" y="113.67" width="151" height="84.89"/></g><g class="cls-8"><rect class="cls-6" x="56.4" y="74.98" width="17.51" height="19.13"/></g><g class="cls-9"><rect class="cls-6" x="50.85" y="89.8" width="15.68" height="19.75"/></g><g class="cls-10"><rect class="cls-6" x="50.11" y="106.32" width="15.04" height="20.01"/></g><g class="cls-11"><rect class="cls-6" x="145.99" y="104.89" width="14.9" height="19.89"/></g><g class="cls-12"><rect class="cls-6" x="143.91" y="88.47" width="15.94" height="19.75"/></g><g class="cls-13"><rect class="cls-6" x="136.05" y="73.85" width="17.64" height="18.93"/></g></g></g></svg>