<svg xmlns="http://www.w3.org/2000/svg" xmlns:xlink="http://www.w3.org/1999/xlink" width="210" height="210" viewBox="0 0 210 210"><defs><style>.cls-1,.cls-2{fill:none;}.cls-2{clip-rule:evenodd;}.cls-3{clip-path:url(#clip-path);}.cls-4{fill:#fff;}.cls-5{clip-path:url(#clip-path-2);}.cls-6{fill:#e06727;}.cls-7{clip-path:url(#clip-path-3);}.cls-8{clip-path:url(#clip-path-4);}.cls-9{clip-path:url(#clip-path-5);}.cls-10{clip-path:url(#clip-path-6);}.cls-11{clip-path:url(#clip-path-7);}.cls-12{clip-path:url(#clip-path-8);}.cls-13{clip-path:url(#clip-path-9);}.cls-14{clip-path:url(#clip-path-10);}.cls-15{clip-path:url(#clip-path-11);}.cls-16{clip-path:url(#clip-path-12);}.cls-17{clip-path:url(#clip-path-13);}.cls-18{clip-path:url(#clip-path-14);}.cls-19{clip-path:url(#clip-path-15);}.cls-20{clip-path:url(#clip-path-16);}</style><clipPath id="clip-path"><rect class="cls-1" x="5" y="5" width="200" height="200"/></clipPath><clipPath id="clip-path-2"><path class="cls-2" d="M102.33,81.11a12.11,12.11,0,0,1,16.33,0,4.3,4.3,0,0,0,5.89,0,12.21,12.21,0,1,1,8.11,21.33,12.41,12.41,0,0,1-8.22-3.11,4.3,4.3,0,0,0-5.89,0,12.15,12.15,0,0,1-17.22-.89A12.4,12.4,0,0,1,102.33,81.11Zm-2.89,21.56a16.65,16.65,0,0,0,22.22,0A16.68,16.68,0,0,0,144,77.89a16.51,16.51,0,0,0-11.11-4.22,16.85,16.85,0,0,0-11.11,4.22,16.79,16.79,0,0,0-23.56,1.22A16.59,16.59,0,0,0,99.44,102.67Z"/></clipPath><clipPath id="clip-path-3"><path class="cls-2" d="M133.33,187.56a25,25,0,1,1,25-25A25,25,0,0,1,133.33,187.56ZM92.78,187a25,25,0,0,1-29.44-19.56,36.58,36.58,0,0,1-.56-4.89v-.22A24.81,24.81,0,0,1,67,148.56a25.07,25.07,0,0,1,34.78-7,24.1,24.1,0,0,1,6.22,5.89,30.06,30.06,0,0,0-4.11,15,29,29,0,0,0,4.11,15A25.08,25.08,0,0,1,92.78,187Zm70.56-26.78h-.67a29.5,29.5,0,0,0-52.11-16.56,28.92,28.92,0,0,0-6.44-5.78,29.62,29.62,0,0,0-45.78,22.44h-.67a2.22,2.22,0,0,0,0,4.44h.67c.11,1.22.22,2.44.44,3.67a29.31,29.31,0,0,0,28.78,23.67,35.24,35.24,0,0,0,5.89-.55,29.33,29.33,0,0,0,16.89-10.11,29.5,29.5,0,0,0,52.11-16.55h.67a2.23,2.23,0,0,0,2.22-2.22A2.25,2.25,0,0,0,163.33,160.22Z"/></clipPath><clipPath id="clip-path-4"><path class="cls-2" d="M182.78,74.11a2.23,2.23,0,0,0-2.22,2.22v5.56a2.22,2.22,0,0,0,4.44,0V76.33A2.23,2.23,0,0,0,182.78,74.11Z"/></clipPath><clipPath id="clip-path-5"><path class="cls-2" d="M182.78,90.89a2.23,2.23,0,0,0-2.22,2.22v5.56a2.22,2.22,0,0,0,4.44,0V93.11A2.23,2.23,0,0,0,182.78,90.89Z"/></clipPath><clipPath id="clip-path-6"><path class="cls-2" d="M174.33,65.11a9,9,0,0,1,3.78,2.33,2.26,2.26,0,0,0,1.67.67,2.66,2.66,0,0,0,1.56-.55,2.25,2.25,0,0,0,.11-3.11,12.65,12.65,0,0,0-5.67-3.55A2.21,2.21,0,0,0,173,62.33,2.15,2.15,0,0,0,174.33,65.11Z"/></clipPath><clipPath id="clip-path-7"><path class="cls-2" d="M182.78,124.44a2.23,2.23,0,0,0-2.22,2.22v5.56a2.22,2.22,0,0,0,4.44,0v-5.56A2.23,2.23,0,0,0,182.78,124.44Z"/></clipPath><clipPath id="clip-path-8"><path class="cls-2" d="M182.78,141.22a2.23,2.23,0,0,0-2.22,2.22V149a2.22,2.22,0,0,0,4.44,0v-5.56A2.23,2.23,0,0,0,182.78,141.22Z"/></clipPath><clipPath id="clip-path-9"><path class="cls-2" d="M177.78,157.78a8.9,8.9,0,0,1-3.89,2.11,2.21,2.21,0,0,0,.56,4.33,1,1,0,0,0,.56-.11,12.4,12.4,0,0,0,5.78-3.22,2.25,2.25,0,0,0,.11-3.11A2.15,2.15,0,0,0,177.78,157.78Z"/></clipPath><clipPath id="clip-path-10"><path class="cls-2" d="M182.78,107.67a2.23,2.23,0,0,0-2.22,2.22v5.55a2.22,2.22,0,1,0,4.44,0v-5.55A2.23,2.23,0,0,0,182.78,107.67Z"/></clipPath><clipPath id="clip-path-11"><path class="cls-2" d="M156.11,106.89a6.69,6.69,0,0,1-6.67,6.67H27.22a6.69,6.69,0,0,1-6.67-6.67V64.67H156.11ZM20.56,42.44H156.11V60.22H20.56Zm0-13.33a6.69,6.69,0,0,1,6.67-6.67H149.44a6.69,6.69,0,0,1,6.67,6.67V38H20.56ZM163.89,60.22h-2.78a1,1,0,0,0-.56.11V29.11A11.14,11.14,0,0,0,149.44,18H27.22A11.14,11.14,0,0,0,16.11,29.11v77.78A11.14,11.14,0,0,0,27.22,118h8.89v2.78a2.22,2.22,0,0,0,4.44,0V118H149.44a11.14,11.14,0,0,0,11.11-11.11V64.56c.22,0,.33.11.56.11h2.78a2.22,2.22,0,0,0,0-4.44Z"/></clipPath><clipPath id="clip-path-12"><path class="cls-2" d="M38.33,144.22a2.23,2.23,0,0,0-2.22,2.22v5.11a2.22,2.22,0,0,0,4.44,0v-5.11A2.23,2.23,0,0,0,38.33,144.22Z"/></clipPath><clipPath id="clip-path-13"><path class="cls-2" d="M38.33,138.44a2.23,2.23,0,0,0,2.22-2.22v-5.11a2.22,2.22,0,0,0-4.44,0v5.11A2.23,2.23,0,0,0,38.33,138.44Z"/></clipPath><clipPath id="clip-path-14"><path class="cls-2" d="M47.89,160.11a9.42,9.42,0,0,1-3.78-1.55,2.22,2.22,0,1,0-2.67,3.55A14.69,14.69,0,0,0,47,164.56h.33a2.26,2.26,0,0,0,2.22-1.89A2,2,0,0,0,47.89,160.11Z"/></clipPath><clipPath id="clip-path-15"><path class="cls-2" d="M93.33,162.56a10.07,10.07,0,0,0-1.78-1.22c-.67-.33-1.44-.67-2.22-1a8.07,8.07,0,0,1-1.33-.56c-.33-.11-.67-.33-1-.44a1.34,1.34,0,0,1-.56-.56,1.61,1.61,0,0,1-.22-.78,1.37,1.37,0,0,1,.56-1.11,3.66,3.66,0,0,1,1.89-.45,16.66,16.66,0,0,1,2.44.22,7.75,7.75,0,0,1,2.11.67l.89-3.33a9.88,9.88,0,0,0-1.67-.56A18.86,18.86,0,0,0,90,153v-2.89H86.56v3a6.69,6.69,0,0,0-2.11.67,4.39,4.39,0,0,0-2.22,2.67,4.61,4.61,0,0,0-.22,1.78,4.07,4.07,0,0,0,.44,2,4.59,4.59,0,0,0,1.11,1.44,7.5,7.5,0,0,0,1.56,1c.56.22,1.11.56,1.78.78a13.09,13.09,0,0,1,1.67.67,5.92,5.92,0,0,1,1.22.56,1.89,1.89,0,0,1,.67.67,1.2,1.2,0,0,1,.22.89,1.84,1.84,0,0,1-.56,1.33,3.83,3.83,0,0,1-2.22.44,11.2,11.2,0,0,1-2.78-.33,13.34,13.34,0,0,1-2.22-.89l-1.22,3.11a9.68,9.68,0,0,0,1.89.78,15.08,15.08,0,0,0,3.22.67v3.22h3.44v-3.33a7.38,7.38,0,0,0,2.22-.67,3.87,3.87,0,0,0,1.44-1.22,4.1,4.1,0,0,0,.78-1.56,8.58,8.58,0,0,0,.22-1.67,4.51,4.51,0,0,0-.44-2.11A6.29,6.29,0,0,0,93.33,162.56Z"/></clipPath><clipPath id="clip-path-16"><path class="cls-2" d="M132.89,167.33A17.19,17.19,0,0,0,133,165h4.67v-3.78H133v-2a11,11,0,0,1,.22-1.89,4.11,4.11,0,0,1,.56-1.22,1.53,1.53,0,0,1,.89-.55,4.52,4.52,0,0,1,1.22-.11,5.59,5.59,0,0,1,1.33.22,6,6,0,0,1,1.22.56l1-3.67a5.45,5.45,0,0,0-1.89-.67,6.5,6.5,0,0,0-2.11-.22,11,11,0,0,0-2.67.33,4.3,4.3,0,0,0-2.11,1.33,5.91,5.91,0,0,0-1.33,2.44,14.94,14.94,0,0,0-.56,3.89v1.67h-2.44v3.78h2.44c0,1.22-.11,2.56-.22,3.89a33.74,33.74,0,0,1-.67,4.67h11.78v-3.89h-7.22A6.33,6.33,0,0,0,132.89,167.33Z"/></clipPath></defs><title>ic-4-1</title><g id="Слой_2" data-name="Слой 2"><g id="Слой_1-2" data-name="Слой 1"><g class="cls-3"><rect class="cls-4" width="210" height="210"/></g><g class="cls-5"><rect class="cls-6" x="88.89" y="68.64" width="65.57" height="43.27"/></g><g class="cls-7"><rect class="cls-6" x="50.44" y="127.99" width="119.89" height="69.12"/></g><g class="cls-8"><rect class="cls-6" x="175.56" y="69.11" width="14.44" height="20"/></g><g class="cls-9"><rect class="cls-6" x="175.56" y="85.89" width="14.44" height="20"/></g><g class="cls-10"><rect class="cls-6" x="167.86" y="55.79" width="19.15" height="17.32"/></g><g class="cls-11"><rect class="cls-6" x="175.56" y="119.44" width="14.44" height="20"/></g><g class="cls-12"><rect class="cls-6" x="175.56" y="136.22" width="14.44" height="20"/></g><g class="cls-13"><rect class="cls-6" x="167.25" y="152.11" width="19.21" height="17.11"/></g><g class="cls-14"><rect class="cls-6" x="175.56" y="102.67" width="14.44" height="20"/></g><g class="cls-15"><rect class="cls-6" x="11.11" y="13" width="160" height="115"/></g><g class="cls-16"><rect class="cls-6" x="31.11" y="139.22" width="14.44" height="19.56"/></g><g class="cls-17"><rect class="cls-6" x="31.11" y="123.89" width="14.44" height="19.55"/></g><g class="cls-18"><rect class="cls-6" x="35.53" y="153.09" width="19.1" height="16.47"/></g><g class="cls-19"><rect class="cls-6" x="76.67" y="145.11" width="23.22" height="34.45"/></g><g class="cls-20"><rect class="cls-6" x="121.33" y="146.67" width="23.33" height="32"/></g></g></g></svg>