<svg xmlns="http://www.w3.org/2000/svg" xmlns:xlink="http://www.w3.org/1999/xlink" width="210" height="210" viewBox="0 0 210 210"><defs><style>.cls-1,.cls-2{fill:none;}.cls-2{clip-rule:evenodd;}.cls-3{clip-path:url(#clip-path);}.cls-4{fill:#fff;}.cls-5{clip-path:url(#clip-path-2);}.cls-6{fill:#e06727;}.cls-7{clip-path:url(#clip-path-3);}.cls-8{clip-path:url(#clip-path-4);}.cls-9{clip-path:url(#clip-path-5);}.cls-10{clip-path:url(#clip-path-6);}.cls-11{clip-path:url(#clip-path-7);}.cls-12{clip-path:url(#clip-path-8);}.cls-13{clip-path:url(#clip-path-9);}.cls-14{clip-path:url(#clip-path-10);}.cls-15{clip-path:url(#clip-path-11);}.cls-16{clip-path:url(#clip-path-12);}.cls-17{clip-path:url(#clip-path-13);}.cls-18{clip-path:url(#clip-path-14);}.cls-19{clip-path:url(#clip-path-15);}.cls-20{clip-path:url(#clip-path-16);}.cls-21{clip-path:url(#clip-path-17);}.cls-22{clip-path:url(#clip-path-18);}.cls-23{clip-path:url(#clip-path-19);}.cls-24{clip-path:url(#clip-path-20);}.cls-25{clip-path:url(#clip-path-21);}.cls-26{clip-path:url(#clip-path-22);}.cls-27{clip-path:url(#clip-path-23);}.cls-28{clip-path:url(#clip-path-24);}.cls-29{clip-path:url(#clip-path-25);}.cls-30{clip-path:url(#clip-path-26);}.cls-31{clip-path:url(#clip-path-27);}</style><clipPath id="clip-path"><rect class="cls-1" x="5" y="5" width="200" height="200"/></clipPath><clipPath id="clip-path-2"><path class="cls-2" d="M98.94,101.06a6.67,6.67,0,1,1,6.67-6.67A6.69,6.69,0,0,1,98.94,101.06Zm0-17.78a11.11,11.11,0,1,0,11.11,11.11A11.14,11.14,0,0,0,98.94,83.28Z"/></clipPath><clipPath id="clip-path-3"><path class="cls-2" d="M41.72,30.51a6.67,6.67,0,1,1-6.67,6.67A6.69,6.69,0,0,1,41.72,30.51Zm0,17.78a10.74,10.74,0,0,0,6.11-1.89.11.11,0,0,0,.11.11l5,5a2.15,2.15,0,0,0,3.11,0,2.15,2.15,0,0,0,0-3.11l-5-5a.11.11,0,0,1-.11-.11,10.74,10.74,0,0,0,1.89-6.11A11.11,11.11,0,1,0,41.72,48.28Z"/></clipPath><clipPath id="clip-path-4"><path class="cls-2" d="M160.05,167.73a12.22,12.22,0,1,1,12.22-12.22A12.19,12.19,0,0,1,160.05,167.73Zm0-28.89a16.3,16.3,0,0,0-10.22,3.56,2.32,2.32,0,0,0-.44-.67l-4.44-4.44a2.2,2.2,0,0,0-3.11,3.11l4.44,4.44a2.31,2.31,0,0,0,.67.45,16.3,16.3,0,0,0-3.56,10.22,16.67,16.67,0,1,0,16.67-16.67Z"/></clipPath><clipPath id="clip-path-5"><path class="cls-2" d="M165.61,45.51a17.78,17.78,0,1,1,17.78-17.78A17.83,17.83,0,0,1,165.61,45.51Zm0-40a22.27,22.27,0,0,0-17.22,36.33l-6.56,6.56a2.15,2.15,0,0,0,0,3.11,2.15,2.15,0,0,0,3.11,0l6.56-6.56A22.24,22.24,0,1,0,165.61,5.51Z"/></clipPath><clipPath id="clip-path-6"><path class="cls-2" d="M98.94,134.39a40,40,0,1,1,40-40A40,40,0,0,1,98.94,134.39Zm0-84.45a44.44,44.44,0,1,0,44.44,44.45A44.43,44.43,0,0,0,98.94,49.95Z"/></clipPath><clipPath id="clip-path-7"><path class="cls-2" d="M32.27,178.84a17.78,17.78,0,1,1,17.78-17.78A17.83,17.83,0,0,1,32.27,178.84Zm20.67-41.56-5.56,5.55a3,3,0,0,0-.67,1.33,22,22,0,0,0-14.44-5.33,22.22,22.22,0,1,0,22.22,22.22,22,22,0,0,0-5.33-14.44,1.58,1.58,0,0,0,1.33-.67l5.56-5.55a2.2,2.2,0,0,0-3.11-3.11Z"/></clipPath><clipPath id="clip-path-8"><path class="cls-2" d="M126.49,48.73a39,39,0,0,1,4.44,3,2.13,2.13,0,0,0,1.33.44,2.32,2.32,0,0,0,1.78-.89,2.17,2.17,0,0,0-.44-3.11c-1.56-1.11-3.11-2.22-4.78-3.22a2.09,2.09,0,0,0-3,.78A2.25,2.25,0,0,0,126.49,48.73Z"/></clipPath><clipPath id="clip-path-9"><path class="cls-2" d="M65.61,52.17a2.13,2.13,0,0,0,1.33-.44c1.22-.89,2.56-1.78,3.78-2.67a2.25,2.25,0,1,0-2.44-3.78c-1.44.89-2.78,1.89-4.11,2.89a2.17,2.17,0,0,0-.44,3.11A2.74,2.74,0,0,0,65.61,52.17Z"/></clipPath><clipPath id="clip-path-10"><path class="cls-2" d="M79.61,44.51a1.89,1.89,0,0,0,.78-.11,38.92,38.92,0,0,1,5.11-1.56,2.18,2.18,0,0,0-1.11-4.22,53.7,53.7,0,0,0-5.56,1.78,2.27,2.27,0,0,0-1.33,2.89A2.34,2.34,0,0,0,79.61,44.51Z"/></clipPath><clipPath id="clip-path-11"><path class="cls-2" d="M95.83,41.17h.11a42.77,42.77,0,0,1,5.33,0,2.23,2.23,0,0,0,2.33-2.11,2.31,2.31,0,0,0-2.11-2.33,50.13,50.13,0,0,0-5.78,0,2.31,2.31,0,0,0-2.11,2.33A2.14,2.14,0,0,0,95.83,41.17Z"/></clipPath><clipPath id="clip-path-12"><path class="cls-2" d="M111.83,42.62c1.67.45,3.44,1,5.11,1.56a1.65,1.65,0,0,0,.78.11,2.28,2.28,0,0,0,2.11-1.44,2.31,2.31,0,0,0-1.33-2.89,45.9,45.9,0,0,0-5.56-1.67,2.13,2.13,0,0,0-2.67,1.67A2,2,0,0,0,111.83,42.62Z"/></clipPath><clipPath id="clip-path-13"><path class="cls-2" d="M130.94,137.06c-1.22.89-2.56,1.78-3.78,2.67a2.28,2.28,0,0,0-.67,3.11,2.18,2.18,0,0,0,1.89,1,2.53,2.53,0,0,0,1.22-.33c1.44-.89,2.78-1.89,4.11-2.89a2.17,2.17,0,0,0,.44-3.11A2.32,2.32,0,0,0,130.94,137.06Z"/></clipPath><clipPath id="clip-path-14"><path class="cls-2" d="M71.38,140.06a39,39,0,0,1-4.44-3,2.22,2.22,0,1,0-2.67,3.56c1.56,1.11,3.11,2.22,4.78,3.22a2.14,2.14,0,0,0,1.11.33,2.06,2.06,0,0,0,1.89-1.11A2.17,2.17,0,0,0,71.38,140.06Z"/></clipPath><clipPath id="clip-path-15"><path class="cls-2" d="M101.94,147.62a42.77,42.77,0,0,1-5.33,0,2.23,2.23,0,0,0-.22,4.44h2.56a29.93,29.93,0,0,0,3.22-.11,2.31,2.31,0,0,0,2.11-2.33A2.22,2.22,0,0,0,101.94,147.62Z"/></clipPath><clipPath id="clip-path-16"><path class="cls-2" d="M117.49,144.39a38.76,38.76,0,0,1-5.11,1.55,2.21,2.21,0,0,0,.56,4.33,1,1,0,0,0,.56-.11,53.68,53.68,0,0,0,5.56-1.78,2.27,2.27,0,0,0,1.33-2.89A2.08,2.08,0,0,0,117.49,144.39Z"/></clipPath><clipPath id="clip-path-17"><path class="cls-2" d="M86.05,146.17a44.84,44.84,0,0,1-5.11-1.56,2.25,2.25,0,1,0-1.56,4.22,45.73,45.73,0,0,0,5.56,1.67c.22,0,.33.11.56.11a2.14,2.14,0,0,0,2.11-1.67A2.1,2.1,0,0,0,86.05,146.17Z"/></clipPath><clipPath id="clip-path-18"><path class="cls-2" d="M144.61,121.95a39,39,0,0,1-3,4.45,2.17,2.17,0,0,0,.44,3.11,2.14,2.14,0,0,0,1.33.44,2.32,2.32,0,0,0,1.78-.89c1.11-1.56,2.22-3.11,3.22-4.78a2.09,2.09,0,0,0-.78-3A2.25,2.25,0,0,0,144.61,121.95Z"/></clipPath><clipPath id="clip-path-19"><path class="cls-2" d="M156.72,96.95V94.39a30.15,30.15,0,0,0-.11-3.22,2.23,2.23,0,0,0-4.44.22,27.08,27.08,0,0,1,.11,3v2.33a2.31,2.31,0,0,0,2.11,2.33h.11A2.38,2.38,0,0,0,156.72,96.95Z"/></clipPath><clipPath id="clip-path-20"><path class="cls-2" d="M145.16,59.73a2.22,2.22,0,0,0-3.56,2.67c.89,1.22,1.78,2.55,2.67,3.78a2.18,2.18,0,0,0,1.89,1,2.52,2.52,0,0,0,1.22-.33,2.28,2.28,0,0,0,.67-3.11C147.16,62.51,146.16,61.06,145.16,59.73Z"/></clipPath><clipPath id="clip-path-21"><path class="cls-2" d="M153.05,74.28a2.25,2.25,0,1,0-4.22,1.56,39,39,0,0,1,1.56,5.11,2.14,2.14,0,0,0,2.11,1.67,1,1,0,0,0,.56-.11,2.16,2.16,0,0,0,1.56-2.67A22.83,22.83,0,0,0,153.05,74.28Z"/></clipPath><clipPath id="clip-path-22"><path class="cls-2" d="M150.72,107.28a44.86,44.86,0,0,1-1.56,5.11,2.31,2.31,0,0,0,1.33,2.89,1.89,1.89,0,0,0,.78.11,2.28,2.28,0,0,0,2.11-1.45,45.79,45.79,0,0,0,1.67-5.55,2.13,2.13,0,0,0-1.67-2.67A2,2,0,0,0,150.72,107.28Z"/></clipPath><clipPath id="clip-path-23"><path class="cls-2" d="M45.05,83.17a2.14,2.14,0,0,0,2.11-1.67c.44-1.67,1-3.44,1.56-5.11a2.25,2.25,0,0,0-4.22-1.56,45.88,45.88,0,0,0-1.67,5.56,2.13,2.13,0,0,0,1.67,2.67A1,1,0,0,0,45.05,83.17Z"/></clipPath><clipPath id="clip-path-24"><path class="cls-2" d="M51.38,67.84a2.06,2.06,0,0,0,1.89-1.11,39,39,0,0,1,3-4.44,2.22,2.22,0,0,0-3.56-2.67c-1.11,1.56-2.22,3.11-3.22,4.78a2.09,2.09,0,0,0,.78,3A1.14,1.14,0,0,0,51.38,67.84Z"/></clipPath><clipPath id="clip-path-25"><path class="cls-2" d="M44.83,114.51a2.28,2.28,0,0,0,2.11,1.44,1.89,1.89,0,0,0,.78-.11,2.27,2.27,0,0,0,1.33-2.89,38.86,38.86,0,0,1-1.56-5.11,2.18,2.18,0,0,0-4.22,1.11A22.83,22.83,0,0,0,44.83,114.51Z"/></clipPath><clipPath id="clip-path-26"><path class="cls-2" d="M52.72,129.06a2.32,2.32,0,0,0,1.78.89,2.14,2.14,0,0,0,1.33-.44,2.17,2.17,0,0,0,.44-3.11c-.89-1.22-1.78-2.56-2.67-3.89a2.25,2.25,0,1,0-3.78,2.44C50.72,126.28,51.72,127.73,52.72,129.06Z"/></clipPath><clipPath id="clip-path-27"><path class="cls-2" d="M41.16,91.84v2.56a30.17,30.17,0,0,0,.11,3.22,2.21,2.21,0,0,0,2.22,2.11h.11a2.31,2.31,0,0,0,2.11-2.33,27.07,27.07,0,0,1-.11-3V92.06a2.23,2.23,0,1,0-4.44-.22Z"/></clipPath></defs><title>ic-4-7</title><g id="Слой_2" data-name="Слой 2"><g id="Слой_1-2" data-name="Слой 1"><g class="cls-3"><rect class="cls-4" width="210" height="210"/></g><g class="cls-5"><rect class="cls-6" x="82.83" y="78.28" width="32.22" height="32.22"/></g><g class="cls-7"><rect class="cls-6" x="25.61" y="21.06" width="36.11" height="36.11"/></g><g class="cls-8"><rect class="cls-6" x="136.16" y="131.62" width="45.56" height="45.56"/></g><g class="cls-9"><rect class="cls-6" x="136.16" y="0.51" width="56.67" height="56.67"/></g><g class="cls-10"><rect class="cls-6" x="49.49" y="44.95" width="98.89" height="98.89"/></g><g class="cls-11"><rect class="cls-6" x="5.05" y="131.62" width="56.67" height="56.67"/></g><g class="cls-12"><rect class="cls-6" x="120.53" y="39.61" width="18.99" height="17.56"/></g><g class="cls-13"><rect class="cls-6" x="58.25" y="39.94" width="18.48" height="17.24"/></g><g class="cls-14"><rect class="cls-6" x="72.36" y="33.53" width="19.78" height="15.97"/></g><g class="cls-15"><rect class="cls-6" x="88.61" y="31.64" width="20" height="14.54"/></g><g class="cls-16"><rect class="cls-6" x="105.15" y="33.2" width="19.82" height="16.08"/></g><g class="cls-17"><rect class="cls-6" x="121.15" y="131.59" width="18.48" height="17.24"/></g><g class="cls-18"><rect class="cls-6" x="58.36" y="131.59" width="19.04" height="17.58"/></g><g class="cls-19"><rect class="cls-6" x="89.27" y="142.62" width="20" height="14.44"/></g><g class="cls-20"><rect class="cls-6" x="105.74" y="139.21" width="19.78" height="16.08"/></g><g class="cls-21"><rect class="cls-6" x="72.91" y="139.48" width="19.82" height="16.14"/></g><g class="cls-22"><rect class="cls-6" x="136.14" y="115.98" width="17.59" height="18.96"/></g><g class="cls-23"><rect class="cls-6" x="147.16" y="84.06" width="14.56" height="20"/></g><g class="cls-24"><rect class="cls-6" x="136.14" y="53.81" width="17.26" height="18.36"/></g><g class="cls-25"><rect class="cls-6" x="143.69" y="67.81" width="16" height="19.81"/></g><g class="cls-26"><rect class="cls-6" x="144.02" y="100.6" width="16.11" height="19.79"/></g><g class="cls-27"><rect class="cls-6" x="37.75" y="68.37" width="16.11" height="19.81"/></g><g class="cls-28"><rect class="cls-6" x="44.15" y="53.7" width="17.59" height="19.13"/></g><g class="cls-29"><rect class="cls-6" x="38.19" y="101.2" width="16" height="19.75"/></g><g class="cls-30"><rect class="cls-6" x="44.48" y="116.49" width="17.26" height="18.46"/></g><g class="cls-31"><rect class="cls-6" x="36.16" y="84.73" width="14.56" height="20"/></g></g></g></svg>