<svg xmlns="http://www.w3.org/2000/svg" xmlns:xlink="http://www.w3.org/1999/xlink" width="210" height="210" viewBox="0 0 210 210"><defs><style>.cls-1,.cls-2{fill:none;}.cls-2{clip-rule:evenodd;}.cls-3{clip-path:url(#clip-path);}.cls-4{fill:#fff;}.cls-5{clip-path:url(#clip-path-2);}.cls-6{fill:#e06727;}.cls-7{clip-path:url(#clip-path-3);}.cls-8{clip-path:url(#clip-path-4);}.cls-9{clip-path:url(#clip-path-5);}.cls-10{clip-path:url(#clip-path-6);}.cls-11{clip-path:url(#clip-path-7);}.cls-12{clip-path:url(#clip-path-8);}.cls-13{clip-path:url(#clip-path-9);}.cls-14{clip-path:url(#clip-path-10);}.cls-15{clip-path:url(#clip-path-11);}.cls-16{clip-path:url(#clip-path-12);}.cls-17{clip-path:url(#clip-path-13);}.cls-18{clip-path:url(#clip-path-14);}.cls-19{clip-path:url(#clip-path-15);}.cls-20{clip-path:url(#clip-path-16);}.cls-21{clip-path:url(#clip-path-17);}.cls-22{clip-path:url(#clip-path-18);}.cls-23{clip-path:url(#clip-path-19);}.cls-24{clip-path:url(#clip-path-20);}.cls-25{clip-path:url(#clip-path-21);}.cls-26{clip-path:url(#clip-path-22);}.cls-27{clip-path:url(#clip-path-23);}.cls-28{clip-path:url(#clip-path-24);}.cls-29{clip-path:url(#clip-path-25);}.cls-30{clip-path:url(#clip-path-26);}.cls-31{clip-path:url(#clip-path-27);}.cls-32{clip-path:url(#clip-path-28);}.cls-33{clip-path:url(#clip-path-29);}.cls-34{clip-path:url(#clip-path-30);}</style><clipPath id="clip-path"><rect class="cls-1" x="5" y="5" width="200" height="200"/></clipPath><clipPath id="clip-path-2"><path class="cls-2" d="M160.56,113.89a13.21,13.21,0,0,0-11.11,6,13.48,13.48,0,0,0-11.11-6,13.21,13.21,0,0,0-11.11,6,13.48,13.48,0,0,0-11.11-6,13.21,13.21,0,0,0-11.11,6,13.48,13.48,0,0,0-11.11-6,13.21,13.21,0,0,0-11.11,6,13.48,13.48,0,0,0-11.11-6,13.21,13.21,0,0,0-11.11,6,13.48,13.48,0,0,0-11.11-6,13.31,13.31,0,0,0-8,2.67,64.44,64.44,0,0,1,127.11,0A13.31,13.31,0,0,0,160.56,113.89ZM107.22,58.44v-9a2.22,2.22,0,0,0-4.44,0v9a68.85,68.85,0,0,0-66.67,68.78,2.22,2.22,0,0,0,4.44,0,8.89,8.89,0,1,1,17.78,0,2.22,2.22,0,0,0,4.44,0,8.89,8.89,0,1,1,17.78,0,2.22,2.22,0,0,0,4.44,0,8.89,8.89,0,1,1,17.78,0v55.56a13.37,13.37,0,0,0,13.33,13.33,2.22,2.22,0,1,0,0-4.44,8.92,8.92,0,0,1-8.89-8.89V127.22a8.89,8.89,0,1,1,17.78,0,2.22,2.22,0,0,0,4.44,0,8.89,8.89,0,1,1,17.78,0,2.22,2.22,0,0,0,4.44,0,8.89,8.89,0,1,1,17.78,0,2.22,2.22,0,0,0,4.44,0A68.85,68.85,0,0,0,107.22,58.44Z"/></clipPath><clipPath id="clip-path-3"><path class="cls-2" d="M82.78,40.56A2.23,2.23,0,0,0,85,38.33V32.78a2.22,2.22,0,0,0-4.44,0v5.56A2.23,2.23,0,0,0,82.78,40.56Z"/></clipPath><clipPath id="clip-path-4"><path class="cls-2" d="M82.78,23.89A2.23,2.23,0,0,0,85,21.67V16.11a2.22,2.22,0,0,0-4.44,0v5.56A2.23,2.23,0,0,0,82.78,23.89Z"/></clipPath><clipPath id="clip-path-5"><path class="cls-2" d="M127.22,40.56a2.23,2.23,0,0,0,2.22-2.22V32.78a2.22,2.22,0,0,0-4.44,0v5.56A2.23,2.23,0,0,0,127.22,40.56Z"/></clipPath><clipPath id="clip-path-6"><path class="cls-2" d="M127.22,23.89a2.23,2.23,0,0,0,2.22-2.22V16.11a2.22,2.22,0,0,0-4.44,0v5.56A2.23,2.23,0,0,0,127.22,23.89Z"/></clipPath><clipPath id="clip-path-7"><path class="cls-2" d="M105,23.89a2.23,2.23,0,0,0,2.22-2.22V16.11a2.22,2.22,0,0,0-4.44,0v5.56A2.23,2.23,0,0,0,105,23.89Z"/></clipPath><clipPath id="clip-path-8"><path class="cls-2" d="M60.56,57.22A2.23,2.23,0,0,0,62.78,55V49.44a2.22,2.22,0,0,0-4.44,0V55A2.23,2.23,0,0,0,60.56,57.22Z"/></clipPath><clipPath id="clip-path-9"><path class="cls-2" d="M60.56,40.56a2.23,2.23,0,0,0,2.22-2.22V32.78a2.22,2.22,0,0,0-4.44,0v5.56A2.23,2.23,0,0,0,60.56,40.56Z"/></clipPath><clipPath id="clip-path-10"><path class="cls-2" d="M60.56,23.89a2.23,2.23,0,0,0,2.22-2.22V16.11a2.22,2.22,0,0,0-4.44,0v5.56A2.23,2.23,0,0,0,60.56,23.89Z"/></clipPath><clipPath id="clip-path-11"><path class="cls-2" d="M149.44,23.89a2.23,2.23,0,0,0,2.22-2.22V16.11a2.22,2.22,0,0,0-4.44,0v5.56A2.23,2.23,0,0,0,149.44,23.89Z"/></clipPath><clipPath id="clip-path-12"><path class="cls-2" d="M149.44,40.56a2.23,2.23,0,0,0,2.22-2.22V32.78a2.22,2.22,0,0,0-4.44,0v5.56A2.23,2.23,0,0,0,149.44,40.56Z"/></clipPath><clipPath id="clip-path-13"><path class="cls-2" d="M149.44,57.22A2.23,2.23,0,0,0,151.67,55V49.44a2.22,2.22,0,0,0-4.44,0V55A2.23,2.23,0,0,0,149.44,57.22Z"/></clipPath><clipPath id="clip-path-14"><path class="cls-2" d="M38.33,57.22A2.23,2.23,0,0,0,40.56,55V49.44a2.22,2.22,0,0,0-4.44,0V55A2.23,2.23,0,0,0,38.33,57.22Z"/></clipPath><clipPath id="clip-path-15"><path class="cls-2" d="M38.33,40.56a2.23,2.23,0,0,0,2.22-2.22V32.78a2.22,2.22,0,0,0-4.44,0v5.56A2.23,2.23,0,0,0,38.33,40.56Z"/></clipPath><clipPath id="clip-path-16"><path class="cls-2" d="M38.33,23.89a2.23,2.23,0,0,0,2.22-2.22V16.11a2.22,2.22,0,0,0-4.44,0v5.56A2.23,2.23,0,0,0,38.33,23.89Z"/></clipPath><clipPath id="clip-path-17"><path class="cls-2" d="M38.33,73.89a2.23,2.23,0,0,0,2.22-2.22V66.11a2.22,2.22,0,0,0-4.44,0v5.56A2.23,2.23,0,0,0,38.33,73.89Z"/></clipPath><clipPath id="clip-path-18"><path class="cls-2" d="M171.67,47.22a2.23,2.23,0,0,0-2.22,2.22V55a2.22,2.22,0,0,0,4.44,0V49.44A2.23,2.23,0,0,0,171.67,47.22Z"/></clipPath><clipPath id="clip-path-19"><path class="cls-2" d="M171.67,63.89a2.23,2.23,0,0,0-2.22,2.22v5.56a2.22,2.22,0,0,0,4.44,0V66.11A2.23,2.23,0,0,0,171.67,63.89Z"/></clipPath><clipPath id="clip-path-20"><path class="cls-2" d="M171.67,13.89a2.23,2.23,0,0,0-2.22,2.22v5.56a2.22,2.22,0,0,0,4.44,0V16.11A2.23,2.23,0,0,0,171.67,13.89Z"/></clipPath><clipPath id="clip-path-21"><path class="cls-2" d="M171.67,30.56a2.23,2.23,0,0,0-2.22,2.22v5.56a2.22,2.22,0,1,0,4.44,0V32.78A2.23,2.23,0,0,0,171.67,30.56Z"/></clipPath><clipPath id="clip-path-22"><path class="cls-2" d="M69.22,100.78a2.2,2.2,0,0,0-3.11.67c-.56.78-1,1.67-1.56,2.45a2.19,2.19,0,1,0,3.78,2.22,15.27,15.27,0,0,1,1.44-2.22A2.28,2.28,0,0,0,69.22,100.78Z"/></clipPath><clipPath id="clip-path-23"><path class="cls-2" d="M91.67,82.44a47.78,47.78,0,0,0-5.11,1.89,2.21,2.21,0,0,0,.89,4.22,2.62,2.62,0,0,0,.89-.22,31.84,31.84,0,0,1,4.56-1.67,2.08,2.08,0,0,0,1.44-2.78A2.13,2.13,0,0,0,91.67,82.44Z"/></clipPath><clipPath id="clip-path-24"><path class="cls-2" d="M77.22,89.67c-1.44,1.11-2.78,2.22-4.11,3.44a2.17,2.17,0,0,0,1.56,3.78,2.65,2.65,0,0,0,1.56-.56A33,33,0,0,1,80,93.22a2.17,2.17,0,0,0,.44-3.11A2.56,2.56,0,0,0,77.22,89.67Z"/></clipPath><clipPath id="clip-path-25"><path class="cls-2" d="M132.78,89.67a2.22,2.22,0,1,0-2.67,3.56c1.33,1,2.56,2,3.78,3.11a2.08,2.08,0,0,0,1.56.56,2.45,2.45,0,0,0,1.67-.67,2.15,2.15,0,0,0-.11-3.11C135.56,91.89,134.22,90.78,132.78,89.67Z"/></clipPath><clipPath id="clip-path-26"><path class="cls-2" d="M123.33,84.33a39.68,39.68,0,0,0-5.11-1.78,2.21,2.21,0,1,0-1.33,4.22,31.85,31.85,0,0,1,4.56,1.67,2.6,2.6,0,0,0,.89.22,2.2,2.2,0,0,0,2-1.33A2,2,0,0,0,123.33,84.33Z"/></clipPath><clipPath id="clip-path-27"><path class="cls-2" d="M107.67,80.67a44.57,44.57,0,0,0-5.44,0A2.31,2.31,0,0,0,100.11,83a2.21,2.21,0,0,0,2.22,2.11h.11a35.94,35.94,0,0,1,4.89,0A2.23,2.23,0,0,0,109.67,83,2.08,2.08,0,0,0,107.67,80.67Z"/></clipPath><clipPath id="clip-path-28"><path class="cls-2" d="M143.89,101.33a2.23,2.23,0,0,0-3.67,2.56c.44.67.89,1.44,1.33,2.22a2.06,2.06,0,0,0,1.89,1.11,2.15,2.15,0,0,0,1.11-.33,2.22,2.22,0,0,0,.89-3C144.89,103,144.44,102.22,143.89,101.33Z"/></clipPath><clipPath id="clip-path-29"><path class="cls-2" d="M94.44,168.11a42.35,42.35,0,0,1-30.33-30.33,2.18,2.18,0,1,0-4.22,1.11,46.85,46.85,0,0,0,33.56,33.56c.22,0,.33.11.56.11a2.14,2.14,0,0,0,2.11-1.67A2.38,2.38,0,0,0,94.44,168.11Z"/></clipPath><clipPath id="clip-path-30"><path class="cls-2" d="M148.56,136.22a2.14,2.14,0,0,0-2.67,1.56,42.35,42.35,0,0,1-30.33,30.33,2.21,2.21,0,0,0,.56,4.33,1,1,0,0,0,.56-.11,46.85,46.85,0,0,0,33.56-33.56A2.07,2.07,0,0,0,148.56,136.22Z"/></clipPath></defs><title>ic-4-5</title><g id="Слой_2" data-name="Слой 2"><g id="Слой_1-2" data-name="Слой 1"><g class="cls-3"><rect class="cls-4" width="210" height="210"/></g><g class="cls-5"><rect class="cls-6" x="31.11" y="42.22" width="147.78" height="158.89"/></g><g class="cls-7"><rect class="cls-6" x="75.56" y="25.56" width="14.44" height="20"/></g><g class="cls-8"><rect class="cls-6" x="75.56" y="8.89" width="14.44" height="20"/></g><g class="cls-9"><rect class="cls-6" x="120" y="25.56" width="14.44" height="20"/></g><g class="cls-10"><rect class="cls-6" x="120" y="8.89" width="14.44" height="20"/></g><g class="cls-11"><rect class="cls-6" x="97.78" y="8.89" width="14.44" height="20"/></g><g class="cls-12"><rect class="cls-6" x="53.33" y="42.22" width="14.44" height="20"/></g><g class="cls-13"><rect class="cls-6" x="53.33" y="25.56" width="14.44" height="20"/></g><g class="cls-14"><rect class="cls-6" x="53.33" y="8.89" width="14.44" height="20"/></g><g class="cls-15"><rect class="cls-6" x="142.22" y="8.89" width="14.44" height="20"/></g><g class="cls-16"><rect class="cls-6" x="142.22" y="25.56" width="14.44" height="20"/></g><g class="cls-17"><rect class="cls-6" x="142.22" y="42.22" width="14.44" height="20"/></g><g class="cls-18"><rect class="cls-6" x="31.11" y="42.22" width="14.44" height="20"/></g><g class="cls-19"><rect class="cls-6" x="31.11" y="25.56" width="14.44" height="20"/></g><g class="cls-20"><rect class="cls-6" x="31.11" y="8.89" width="14.44" height="20"/></g><g class="cls-21"><rect class="cls-6" x="31.11" y="58.89" width="14.44" height="20"/></g><g class="cls-22"><rect class="cls-6" x="164.44" y="42.22" width="14.44" height="20"/></g><g class="cls-23"><rect class="cls-6" x="164.44" y="58.89" width="14.44" height="20"/></g><g class="cls-24"><rect class="cls-6" x="164.44" y="8.89" width="14.44" height="20"/></g><g class="cls-25"><rect class="cls-6" x="164.44" y="25.56" width="14.44" height="20"/></g><g class="cls-26"><rect class="cls-6" x="59.24" y="95.4" width="15.92" height="16.82"/></g><g class="cls-27"><rect class="cls-6" x="80.23" y="77.36" width="19.24" height="16.2"/></g><g class="cls-28"><rect class="cls-6" x="67.43" y="84.28" width="18.48" height="17.61"/></g><g class="cls-29"><rect class="cls-6" x="124.2" y="84.2" width="18.53" height="17.69"/></g><g class="cls-30"><rect class="cls-6" x="110.36" y="77.47" width="19.28" height="16.2"/></g><g class="cls-31"><rect class="cls-6" x="95.11" y="75.58" width="19.56" height="14.54"/></g><g class="cls-32"><rect class="cls-6" x="134.84" y="95.4" width="15.87" height="16.83"/></g><g class="cls-33"><rect class="cls-6" x="54.8" y="131.14" width="46.35" height="46.42"/></g><g class="cls-34"><rect class="cls-6" x="108.91" y="131.14" width="46.39" height="46.3"/></g></g></g></svg>