<svg xmlns="http://www.w3.org/2000/svg" xmlns:xlink="http://www.w3.org/1999/xlink" width="210" height="210" viewBox="0 0 210 210"><defs><style>.cls-1,.cls-2{fill:none;}.cls-2{clip-rule:evenodd;}.cls-3{clip-path:url(#clip-path);}.cls-4{fill:#fff;}.cls-5{clip-path:url(#clip-path-2);}.cls-6{fill:#e06727;}.cls-7{clip-path:url(#clip-path-3);}.cls-8{clip-path:url(#clip-path-4);}.cls-9{clip-path:url(#clip-path-5);}.cls-10{clip-path:url(#clip-path-6);}.cls-11{clip-path:url(#clip-path-7);}.cls-12{clip-path:url(#clip-path-8);}.cls-13{clip-path:url(#clip-path-9);}.cls-14{clip-path:url(#clip-path-10);}.cls-15{clip-path:url(#clip-path-11);}.cls-16{clip-path:url(#clip-path-12);}.cls-17{clip-path:url(#clip-path-13);}.cls-18{clip-path:url(#clip-path-14);}.cls-19{clip-path:url(#clip-path-15);}.cls-20{clip-path:url(#clip-path-16);}.cls-21{clip-path:url(#clip-path-17);}.cls-22{clip-path:url(#clip-path-18);}</style><clipPath id="clip-path"><rect class="cls-1" x="5" y="5" width="200" height="200"/></clipPath><clipPath id="clip-path-2"><path class="cls-2" d="M117.11,15A68.92,68.92,0,0,0,67.22,34.89a66.6,66.6,0,0,0-20,47.89v33.33a2.23,2.23,0,0,0,2.22,2.22h20v31.44a13,13,0,0,0,13,13h31.44v31.11a2.22,2.22,0,0,0,4.44,0V160.56a2.23,2.23,0,0,0-2.22-2.22H82.44a8.56,8.56,0,0,1-8.56-8.56v-9.22H94.22a2.22,2.22,0,0,0,0-4.45H73.89v-20a2.23,2.23,0,0,0-2.22-2.22h-20V82.78A62.59,62.59,0,0,1,70.33,38a64.55,64.55,0,0,1,46.78-18.56c35,.45,63.56,29.78,63.56,65.33V193.89a2.22,2.22,0,0,0,4.44,0V84.78C185,46.78,154.56,15.56,117.11,15Z"/></clipPath><clipPath id="clip-path-3"><path class="cls-2" d="M28.78,14.56a2.2,2.2,0,1,0-3.11,3.11L36.78,28.78a2.15,2.15,0,0,0,3.11,0,2.15,2.15,0,0,0,0-3.11Z"/></clipPath><clipPath id="clip-path-4"><path class="cls-2" d="M28.78,36.78a2.2,2.2,0,0,0-3.11,3.11L36.78,51a2.15,2.15,0,0,0,3.11,0,2.15,2.15,0,0,0,0-3.11Z"/></clipPath><clipPath id="clip-path-5"><path class="cls-2" d="M59,28.78a2.15,2.15,0,0,0,3.11,0,2.15,2.15,0,0,0,0-3.11L51,14.56a2.2,2.2,0,0,0-3.11,3.11Z"/></clipPath><clipPath id="clip-path-6"><path class="cls-2" d="M68.67,80.67a17.1,17.1,0,0,1,16.11-18,1,1,0,0,0,.56-.11h.11c.22-.11.33-.11.44-.22H86c.11-.11.33-.22.44-.44a.11.11,0,0,1,.11-.11c.11-.22.22-.33.33-.56a31.12,31.12,0,0,1,58.56-.56,2.36,2.36,0,0,0,2.11,2,17.11,17.11,0,0,1,16.11,17.67,16.91,16.91,0,0,1-4.78,11.22H73.44A16.39,16.39,0,0,1,68.67,80.67Zm93.44-15.56a21.69,21.69,0,0,0-13-6.67,35.55,35.55,0,0,0-66.11,0A21.51,21.51,0,0,0,64.22,81,21.37,21.37,0,0,0,71,95.56a2.66,2.66,0,0,0,1.56.55h41.33V105a2.19,2.19,0,0,0,.67,1.56l21.56,22.67v64.67a2.22,2.22,0,0,0,4.44,0V128.33a2.19,2.19,0,0,0-.67-1.56l-21.56-22.67v-8h40v97.78a2.22,2.22,0,0,0,4.44,0V93.78a21.29,21.29,0,0,0,5.11-13.22A21,21,0,0,0,162.11,65.11Z"/></clipPath><clipPath id="clip-path-7"><path class="cls-2" d="M118.67,60.56a2.23,2.23,0,0,0,2.22,2.22h5.56a2.22,2.22,0,0,0,0-4.44h-5.56A2.23,2.23,0,0,0,118.67,60.56Z"/></clipPath><clipPath id="clip-path-8"><path class="cls-2" d="M112,60.56a2.23,2.23,0,0,0-2.22-2.22h-5.56a2.22,2.22,0,0,0,0,4.44h5.56A2.23,2.23,0,0,0,112,60.56Z"/></clipPath><clipPath id="clip-path-9"><path class="cls-2" d="M146.44,73.89H152a2.22,2.22,0,0,0,0-4.45h-5.56a2.22,2.22,0,0,0,0,4.45Z"/></clipPath><clipPath id="clip-path-10"><path class="cls-2" d="M102,69.44H96.44a2.22,2.22,0,0,0,0,4.45H102a2.22,2.22,0,0,0,0-4.45Z"/></clipPath><clipPath id="clip-path-11"><path class="cls-2" d="M118.67,69.44h-5.56a2.22,2.22,0,0,0,0,4.45h5.56a2.22,2.22,0,0,0,0-4.45Z"/></clipPath><clipPath id="clip-path-12"><path class="cls-2" d="M85.33,69.44H79.78a2.22,2.22,0,0,0,0,4.45h5.56a2.22,2.22,0,0,0,0-4.45Z"/></clipPath><clipPath id="clip-path-13"><path class="cls-2" d="M127.56,71.67a2.23,2.23,0,0,0,2.22,2.22h5.56a2.22,2.22,0,0,0,0-4.45h-5.56A2.23,2.23,0,0,0,127.56,71.67Z"/></clipPath><clipPath id="clip-path-14"><path class="cls-2" d="M113.11,51.67h5.56a2.22,2.22,0,0,0,0-4.44h-5.56a2.22,2.22,0,0,0,0,4.44Z"/></clipPath><clipPath id="clip-path-15"><path class="cls-2" d="M96.44,80.89H90.89a2.22,2.22,0,1,0,0,4.44h5.56a2.22,2.22,0,1,0,0-4.44Z"/></clipPath><clipPath id="clip-path-16"><path class="cls-2" d="M113.11,80.89h-5.56a2.22,2.22,0,1,0,0,4.44h5.56a2.22,2.22,0,1,0,0-4.44Z"/></clipPath><clipPath id="clip-path-17"><path class="cls-2" d="M129.78,80.89h-5.56a2.22,2.22,0,1,0,0,4.44h5.56a2.22,2.22,0,1,0,0-4.44Z"/></clipPath><clipPath id="clip-path-18"><path class="cls-2" d="M140.89,85.33h5.56a2.22,2.22,0,1,0,0-4.44h-5.56a2.22,2.22,0,1,0,0,4.44Z"/></clipPath></defs><title>ic-4-2</title><g id="Слой_2" data-name="Слой 2"><g id="Слой_1-2" data-name="Слой 1"><g class="cls-3"><rect class="cls-4" width="210" height="210"/></g><g class="cls-5"><rect class="cls-6" x="42.22" y="9.99" width="147.89" height="191.12"/></g><g class="cls-7"><rect class="cls-6" x="20" y="8.89" width="25.56" height="25.55"/></g><g class="cls-8"><rect class="cls-6" x="20" y="31.11" width="25.56" height="25.56"/></g><g class="cls-9"><rect class="cls-6" x="42.22" y="8.89" width="25.56" height="25.55"/></g><g class="cls-10"><rect class="cls-6" x="59.18" y="30.99" width="113.72" height="170.12"/></g><g class="cls-11"><rect class="cls-6" x="113.67" y="53.33" width="20" height="14.44"/></g><g class="cls-12"><rect class="cls-6" x="97" y="53.33" width="20" height="14.44"/></g><g class="cls-13"><rect class="cls-6" x="139.22" y="64.44" width="20" height="14.45"/></g><g class="cls-14"><rect class="cls-6" x="89.22" y="64.44" width="20" height="14.45"/></g><g class="cls-15"><rect class="cls-6" x="105.89" y="64.44" width="20" height="14.45"/></g><g class="cls-16"><rect class="cls-6" x="72.56" y="64.44" width="20" height="14.45"/></g><g class="cls-17"><rect class="cls-6" x="122.56" y="64.44" width="20" height="14.45"/></g><g class="cls-18"><rect class="cls-6" x="105.89" y="42.22" width="20" height="14.44"/></g><g class="cls-19"><rect class="cls-6" x="83.67" y="75.89" width="20" height="14.44"/></g><g class="cls-20"><rect class="cls-6" x="100.33" y="75.89" width="20" height="14.44"/></g><g class="cls-21"><rect class="cls-6" x="117" y="75.89" width="20" height="14.44"/></g><g class="cls-22"><rect class="cls-6" x="133.67" y="75.89" width="20" height="14.44"/></g></g></g></svg>