<svg xmlns="http://www.w3.org/2000/svg" xmlns:xlink="http://www.w3.org/1999/xlink" width="210" height="210" viewBox="0 0 210 210"><defs><style>.cls-1,.cls-2{fill:none;}.cls-2{clip-rule:evenodd;}.cls-3{clip-path:url(#clip-path);}.cls-4{fill:#fff;}.cls-5{clip-path:url(#clip-path-2);}.cls-6{fill:#e06727;}.cls-7{clip-path:url(#clip-path-3);}.cls-8{clip-path:url(#clip-path-4);}.cls-9{clip-path:url(#clip-path-5);}.cls-10{clip-path:url(#clip-path-6);}.cls-11{clip-path:url(#clip-path-7);}.cls-12{clip-path:url(#clip-path-8);}.cls-13{clip-path:url(#clip-path-9);}.cls-14{clip-path:url(#clip-path-10);}.cls-15{clip-path:url(#clip-path-11);}.cls-16{clip-path:url(#clip-path-12);}.cls-17{clip-path:url(#clip-path-13);}.cls-18{clip-path:url(#clip-path-14);}</style><clipPath id="clip-path"><rect class="cls-1" x="5" y="5" width="200" height="200"/></clipPath><clipPath id="clip-path-2"><path class="cls-2" d="M171.67,36.11h-5.56a2.22,2.22,0,0,0,0,4.45h5.56a2.22,2.22,0,0,0,0-4.45Z"/></clipPath><clipPath id="clip-path-3"><path class="cls-2" d="M182.78,40.56h5.56a2.22,2.22,0,0,0,0-4.45h-5.56a2.22,2.22,0,0,0,0,4.45Z"/></clipPath><clipPath id="clip-path-4"><path class="cls-2" d="M155,36.11H110.33l7.33-7.33a2.2,2.2,0,0,0-3.11-3.11L103.44,36.78l-.33.33a.39.39,0,0,0-.11.22c0,.11-.11.11-.11.22s0,.11-.11.22,0,.11-.11.22a1.23,1.23,0,0,0,0,.89c0,.11,0,.11.11.22s0,.11.11.22.11.11.11.22.11.11.11.22l.33.33,11.11,11.11a3.62,3.62,0,0,0,1.56.44,2.2,2.2,0,0,0,1.56-.67,2.15,2.15,0,0,0,0-3.11l-7.33-7.33H155a2.22,2.22,0,0,0,0-4.45Z"/></clipPath><clipPath id="clip-path-5"><path class="cls-2" d="M188.33,91.67h-5.56a2.22,2.22,0,1,0,0,4.44h5.56a2.22,2.22,0,1,0,0-4.44Z"/></clipPath><clipPath id="clip-path-6"><path class="cls-2" d="M155,91.67H132.56l7.33-7.33a2.2,2.2,0,1,0-3.11-3.11L125.67,92.33l-.33.33a.39.39,0,0,0-.11.22c0,.11-.11.11-.11.22s0,.11-.11.22,0,.11-.11.22a1.22,1.22,0,0,0,0,.89c0,.11,0,.11.11.22s0,.11.11.22.11.11.11.22.11.11.11.22l.33.33,11.11,11.11a2.15,2.15,0,0,0,3.11,0,2.15,2.15,0,0,0,0-3.11l-7.33-7.33H155a2.23,2.23,0,0,0,2.22-2.22A2.43,2.43,0,0,0,155,91.67Z"/></clipPath><clipPath id="clip-path-7"><path class="cls-2" d="M171.67,91.67h-5.56a2.22,2.22,0,1,0,0,4.44h5.56a2.22,2.22,0,1,0,0-4.44Z"/></clipPath><clipPath id="clip-path-8"><path class="cls-2" d="M188.33,147.22h-5.56a2.22,2.22,0,0,0,0,4.45h5.56a2.22,2.22,0,0,0,0-4.45Z"/></clipPath><clipPath id="clip-path-9"><path class="cls-2" d="M117.33,169.78,99.22,151.67h23.44A37.82,37.82,0,0,1,117.33,169.78Zm-9.44,10.78a55.09,55.09,0,0,1-14,8.56c-6-2.44-28.89-13.67-28.89-39.67V120.56h57.78v26.67H93.89a2.2,2.2,0,0,0-2,1.33,2.47,2.47,0,0,0,.44,2.44l22.44,22.44A46.09,46.09,0,0,1,107.89,180.56ZM27.22,169.44a8.92,8.92,0,0,1-8.89-8.89v-8.89h20a2.22,2.22,0,0,0,0-4.45h-20v-6.67h20a2.22,2.22,0,0,0,0-4.45h-20v-6.67h20a2.22,2.22,0,1,0,0-4.44h-20v-6.67h20a2.22,2.22,0,1,0,0-4.44h-20V96.11h84.44v20H60.56v33.33a43.91,43.91,0,0,0,4.67,20ZM40.56,91.67V85.56c0-17.67,10.78-23.89,20-23.89s20,6.22,20,23.89v6.11ZM29.44,82.78c0-15,8.22-31.11,31.11-31.11S91.67,67.78,91.67,82.78v8.89H85V85.56C85,66,72.78,57.22,60.56,57.22S36.11,66,36.11,85.56v6.11H29.44ZM155,147.22H127.22V116.11h-20V93.89A2.23,2.23,0,0,0,105,91.67H96.11V82.78c0-21.56-14-35.56-35.56-35.56S25,61.22,25,82.78v8.89H16.11a2.23,2.23,0,0,0-2.22,2.22v66.67a13.37,13.37,0,0,0,13.33,13.33H66.44a2.24,2.24,0,0,0,1.22-.33c9.78,14.78,26.22,20.33,26.22,20.33s14.22-4.78,24-17.22l15,15H122.56a2.22,2.22,0,1,0,0,4.44h16.22c.11,0,.11,0,.22-.11s.11,0,.22-.11.11-.11.22-.11a.11.11,0,0,0,.11-.11,1.89,1.89,0,0,0,.67-.67l.11-.11c0-.11.11-.11.11-.22s0-.11.11-.22,0-.11.11-.22V178.11a2.22,2.22,0,0,0-4.44,0v10.33l-15.56-15.56a42.46,42.46,0,0,0,6.67-21.22H155a2.22,2.22,0,0,0,0-4.45Z"/></clipPath><clipPath id="clip-path-10"><path class="cls-2" d="M171.67,147.22h-5.56a2.22,2.22,0,0,0,0,4.45h5.56a2.22,2.22,0,0,0,0-4.45Z"/></clipPath><clipPath id="clip-path-11"><path class="cls-2" d="M91.11,135.22h.33a16.67,16.67,0,0,1,2.44-.22,2.22,2.22,0,1,0,0-4.44,29.32,29.32,0,0,0-3.11.22A2.17,2.17,0,0,0,89,133.33,2.07,2.07,0,0,0,91.11,135.22Z"/></clipPath><clipPath id="clip-path-12"><path class="cls-2" d="M80.33,154.44A2.25,2.25,0,0,0,76.11,156a18.16,18.16,0,0,0,3.33,5.67,2.15,2.15,0,0,0,1.67.78,2.34,2.34,0,0,0,1.44-.56,2.15,2.15,0,0,0,.22-3.11A16.73,16.73,0,0,1,80.33,154.44Z"/></clipPath><clipPath id="clip-path-13"><path class="cls-2" d="M79.44,137.22a19.52,19.52,0,0,0-3.33,5.67,2.31,2.31,0,0,0,1.33,2.89,1.89,1.89,0,0,0,.78.11,2.28,2.28,0,0,0,2.11-1.45,14.37,14.37,0,0,1,2.56-4.33,2.25,2.25,0,0,0-.22-3.11A2.39,2.39,0,0,0,79.44,137.22Z"/></clipPath><clipPath id="clip-path-14"><path class="cls-2" d="M88.89,165.56a2.25,2.25,0,0,0,1.78,2.56,14.67,14.67,0,0,0,3.11.22,2.22,2.22,0,1,0,0-4.44,20,20,0,0,1-2.44-.22A2.26,2.26,0,0,0,88.89,165.56Z"/></clipPath></defs><title>ic-4-6</title><g id="Слой_2" data-name="Слой 2"><g id="Слой_1-2" data-name="Слой 1"><g class="cls-3"><rect class="cls-4" width="210" height="210"/></g><g class="cls-5"><rect class="cls-6" x="158.89" y="31.11" width="20" height="14.45"/></g><g class="cls-7"><rect class="cls-6" x="175.56" y="31.11" width="20" height="14.45"/></g><g class="cls-8"><rect class="cls-6" x="97.58" y="20" width="64.64" height="36.67"/></g><g class="cls-9"><rect class="cls-6" x="175.56" y="86.67" width="20" height="14.44"/></g><g class="cls-10"><rect class="cls-6" x="119.81" y="75.56" width="42.42" height="36.89"/></g><g class="cls-11"><rect class="cls-6" x="158.89" y="86.67" width="20" height="14.44"/></g><g class="cls-12"><rect class="cls-6" x="175.56" y="142.22" width="20" height="14.45"/></g><g class="cls-13"><rect class="cls-6" x="8.89" y="42.22" width="153.33" height="158.89"/></g><g class="cls-14"><rect class="cls-6" x="158.89" y="142.22" width="20" height="14.45"/></g><g class="cls-15"><rect class="cls-6" x="83.96" y="125.56" width="17.15" height="14.67"/></g><g class="cls-16"><rect class="cls-6" x="70.97" y="147.97" width="17.37" height="19.47"/></g><g class="cls-17"><rect class="cls-6" x="70.97" y="131.48" width="17.44" height="19.41"/></g><g class="cls-18"><rect class="cls-6" x="83.85" y="158.63" width="17.15" height="14.7"/></g></g></g></svg>