<svg xmlns="http://www.w3.org/2000/svg" xmlns:xlink="http://www.w3.org/1999/xlink" width="210" height="210" viewBox="0 0 210 210"><defs><style>.cls-1,.cls-2{fill:none;}.cls-2{clip-rule:evenodd;}.cls-3{clip-path:url(#clip-path);}.cls-4{fill:#fff;}.cls-5{clip-path:url(#clip-path-2);}.cls-6{fill:#e06727;}.cls-7{clip-path:url(#clip-path-3);}.cls-8{clip-path:url(#clip-path-4);}.cls-9{clip-path:url(#clip-path-5);}.cls-10{clip-path:url(#clip-path-6);}.cls-11{clip-path:url(#clip-path-7);}.cls-12{clip-path:url(#clip-path-8);}.cls-13{clip-path:url(#clip-path-9);}.cls-14{clip-path:url(#clip-path-10);}.cls-15{clip-path:url(#clip-path-11);}.cls-16{clip-path:url(#clip-path-12);}</style><clipPath id="clip-path"><rect class="cls-1" x="5" y="5" width="200" height="200"/></clipPath><clipPath id="clip-path-2"><path class="cls-2" d="M137,28.11a2.23,2.23,0,0,0-.44,4.45,40.83,40.83,0,0,1,5,1.22,2.25,2.25,0,0,0,1.22-4.33c-1.22-.33-2.56-.67-3.89-1h-.33l-1.22-.22h-.44Zm15,5.22a2.23,2.23,0,0,0-2.22,2.22,2.34,2.34,0,0,0,1.22,2c1.56.78,3,1.67,4.44,2.55a2.09,2.09,0,0,0,3-.78,2.4,2.4,0,0,0-.56-3,41,41,0,0,0-4.78-2.78A3.26,3.26,0,0,0,152,33.33Zm12.89,9.44A2.23,2.23,0,0,0,162.67,45a2.2,2.2,0,0,0,.67,1.56c1.22,1.22,2.33,2.44,3.45,3.78a2.17,2.17,0,0,0,3.11.33,2.27,2.27,0,0,0,.33-3.11l-1.67-2h-.22l-.11-.11H168l-.11-.11h-.22l-.11-.11h-.22l-.11-1.11H167l-.56-.55a2.19,2.19,0,0,0-1.55-.67Zm9.44,12.78a2.23,2.23,0,0,0-2.22,2.22,2.66,2.66,0,0,0,.22,1,35.17,35.17,0,0,1,2.11,4.67,2.25,2.25,0,0,0,4.22-1.55c0-.11,0-.11-.11-.22l-.45-1H178c-.22-.33-.33-.78-.56-1.11v-.22l-.11-.22h-.22l-.11-.22-.56-1a2.1,2.1,0,0,0-2-1.22Zm5.33,15.11a2.23,2.23,0,0,0-2.22,2.22v.44a37.66,37.66,0,0,1,.67,5.11,2.27,2.27,0,0,0,2.22,2h.22a2.24,2.24,0,0,0,2-2.44v-.11c-.11-.67-.11-1.33-.22-2.11a20.53,20.53,0,0,0-.44-2.56,2.16,2.16,0,0,0-2.22-1.78Zm.55,15.89a2.27,2.27,0,0,0-2.22,2c-.22,1.67-.44,3.33-.78,5a2.22,2.22,0,0,0,4.33,1,30.5,30.5,0,0,0,.55-3.11v-.11h.11v-.11a2.45,2.45,0,0,1,.11-.89,2.24,2.24,0,0,0-2-2.44ZM176.11,102a2.2,2.2,0,0,0-2,1.33,35.25,35.25,0,0,1-2.33,4.56,2.19,2.19,0,1,0,3.78,2.22,52,52,0,0,0,2.44-5,2.21,2.21,0,0,0-1.11-2.89A.94.94,0,0,0,176.11,102Zm-8.55,13.44a2.36,2.36,0,0,0-1.67.78,37,37,0,0,1-3.56,3.67,2.15,2.15,0,0,0,0,3.11,2.22,2.22,0,0,0,3,.11l1.11-1.11.11-.11h.22c.89-.89,1.67-1.78,2.44-2.67a2.25,2.25,0,0,0-.22-3.11,2.34,2.34,0,0,0-1.44-.55Zm-12.11,10.33a2.54,2.54,0,0,0-1.22.33,34.62,34.62,0,0,1-4.44,2.45,2.24,2.24,0,0,0,2,4,40.31,40.31,0,0,0,4.78-2.67,2.28,2.28,0,0,0,.67-3.11A2.1,2.1,0,0,0,155.44,125.78Zm-14.67,6.33a1,1,0,0,0-.56.11,39.69,39.69,0,0,1-5,1,2.23,2.23,0,0,0,.44,4.44H136c1.78-.33,3.67-.67,5.44-1.11a2.22,2.22,0,0,0,1.56-2.78A2.71,2.71,0,0,0,140.78,132.11Zm-21.11,1.22a2.16,2.16,0,0,0-2.33,2.11,2.24,2.24,0,0,0,2.11,2.33l2.78.33h.56a14.9,14.9,0,0,0,2.22.11h.11a2.22,2.22,0,1,0,0-4.44c-1.67-.11-3.44-.22-5.11-.44Zm-15.22-4.56a2.23,2.23,0,0,0-2.22,2.22,2.1,2.1,0,0,0,1.22,2l1.22.56h.89c1,.44,2,.78,3.11,1.22a2.25,2.25,0,0,0,1.56-4.22,34.85,34.85,0,0,1-4.67-2,3.22,3.22,0,0,0-1-.22Zm-13.22-8.89A2.23,2.23,0,0,0,89,122.11a2.26,2.26,0,0,0,.67,1.67c1.33,1.22,2.78,2.44,4.22,3.56a2.22,2.22,0,1,0,2.67-3.56c-1.33-1-2.67-2.11-3.89-3.22A2,2,0,0,0,91.22,119.89Zm-10-12.45A2.23,2.23,0,0,0,79,109.67a2.15,2.15,0,0,0,.33,1.11l.56.89h.22c.78,1.11,1.56,2.33,2.33,3.44A2.22,2.22,0,1,0,86,112.44a34.49,34.49,0,0,1-2.78-4.22,2.29,2.29,0,0,0-1.89-1.11Zm-6-14.78A2.23,2.23,0,0,0,73,94.89a1,1,0,0,0,.11.55c.22.78.33,1.56.56,2.33a26.81,26.81,0,0,0,.89,2.78,2.26,2.26,0,0,0,2.89,1.22,2.16,2.16,0,0,0,1.33-2.67c-.56-1.67-1-3.22-1.44-4.89a2.27,2.27,0,0,0-2.22-1.78ZM74,76.78a2.21,2.21,0,0,0-2.22,2.11c0,.67-.11,1.22-.11,1.89v2a2.14,2.14,0,0,0,2.22,2.11H74a2.06,2.06,0,0,0,2.11-.22V83.22c0-1.22,0-2.44.11-3.67a2.16,2.16,0,0,0-2.11-2.33Zm3.44-15.56a2.28,2.28,0,0,0-2.11,1.44A26.8,26.8,0,0,0,74,66.56h-.11l-.11.33A2.21,2.21,0,1,0,78,68.22V68c.44-1.67,1-3.22,1.56-4.89a2.26,2.26,0,0,0-1.22-2.89,1.89,1.89,0,0,0-.78-.11Zm8-13.78a2.32,2.32,0,0,0-1.78.89h-.11l-.11.11h-.22v.11H83l-.22.89h-.22l-.11.11h-.22l-.11.11h-.22l-.11.11h-.44l-.89,3a2.25,2.25,0,1,0,3.78,2.44,36.46,36.46,0,0,1,3-4.22,2.16,2.16,0,0,0-1.78-3.56ZM97.11,36.56a1.67,1.67,0,0,0-1.22.44l-.33.22h-1l-.22.11h-.22c-.89.67-1.89,1.44-2.67,2.11a2.21,2.21,0,1,0,2.89,3.33c1.33-1.11,2.67-2.11,4.11-3.11A2.28,2.28,0,0,0,99,36.56a2.45,2.45,0,0,0-1.78-1Zm14.33-7a1.41,1.41,0,0,0-.67.11l-1.33.44h-.22l-.44.11h-.67l-.33.11h-.67l-.22.11h-.67l-.78.33A2.25,2.25,0,1,0,107,35a.11.11,0,0,0,.11-.11,36.4,36.4,0,0,1,4.78-1,2.16,2.16,0,0,0,1.44-2.78A1.75,1.75,0,0,0,111.44,29.56Zm15.78-2.33h-1.56c-1.33,0-2.67.11-4,.22a2.23,2.23,0,0,0,.22,4.45h.22c1.67-.11,3.44-.22,5.11-.22a2.22,2.22,0,0,0,0-4.44Z"/></clipPath><clipPath id="clip-path-3"><path class="cls-2" d="M127.22,38.33a44.44,44.44,0,1,0,44.44,44.44A44.43,44.43,0,0,0,127.22,38.33Zm0,4.44a40,40,0,1,1-40,40A40,40,0,0,1,127.22,42.78Z"/></clipPath><clipPath id="clip-path-4"><path class="cls-2" d="M38.33,173.89a2.19,2.19,0,0,1-1.56-.67,2.15,2.15,0,0,1,0-3.11l33.33-33.33a2.2,2.2,0,1,1,3.11,3.11L39.89,173.22A2.19,2.19,0,0,1,38.33,173.89Z"/></clipPath><clipPath id="clip-path-5"><path class="cls-2" d="M27.89,184.33a2.19,2.19,0,0,1-1.56-.67,2.15,2.15,0,0,1,0-3.11l3.89-3.89a2.2,2.2,0,1,1,3.11,3.11l-3.89,3.89A2.19,2.19,0,0,1,27.89,184.33ZM16.11,196.11a2.19,2.19,0,0,1-1.56-.67,2.15,2.15,0,0,1,0-3.11l3.89-3.89a2.2,2.2,0,0,1,3.11,3.11l-3.89,3.89A2.19,2.19,0,0,1,16.11,196.11Z"/></clipPath><clipPath id="clip-path-6"><path class="cls-2" d="M27.22,151.67a2.2,2.2,0,0,1-1.56-.67,2.15,2.15,0,0,1,0-3.11L59,114.56a2.2,2.2,0,0,1,3.11,3.11L28.78,151A2.2,2.2,0,0,1,27.22,151.67Z"/></clipPath><clipPath id="clip-path-7"><path class="cls-2" d="M60.56,185a2.19,2.19,0,0,1-1.56-.67,2.15,2.15,0,0,1,0-3.11l33.33-33.33A2.2,2.2,0,0,1,95.44,151L62.11,184.33A2.19,2.19,0,0,1,60.56,185Z"/></clipPath><clipPath id="clip-path-8"><path class="cls-2" d="M38.33,107.22a2.19,2.19,0,0,1-1.56-.67,2.15,2.15,0,0,1,0-3.11L59,81.22a2.2,2.2,0,1,1,3.11,3.11L39.89,106.56A2.2,2.2,0,0,1,38.33,107.22Z"/></clipPath><clipPath id="clip-path-9"><path class="cls-2" d="M27.89,117.67a2.2,2.2,0,0,1-1.56-.67,2.15,2.15,0,0,1,0-3.11L30.22,110a2.2,2.2,0,0,1,3.11,3.11L29.44,117A2.2,2.2,0,0,1,27.89,117.67ZM16.11,129.44a2.19,2.19,0,0,1-1.56-.67,2.15,2.15,0,0,1,0-3.11l3.89-3.89a2.2,2.2,0,1,1,3.11,3.11l-3.89,3.89A2.19,2.19,0,0,1,16.11,129.44Z"/></clipPath><clipPath id="clip-path-10"><path class="cls-2" d="M105,173.89a2.19,2.19,0,0,1-1.56-.67,2.15,2.15,0,0,1,0-3.11l22.22-22.22a2.2,2.2,0,1,1,3.11,3.11l-22.22,22.22A2.19,2.19,0,0,1,105,173.89Z"/></clipPath><clipPath id="clip-path-11"><path class="cls-2" d="M94.56,184.33a2.19,2.19,0,0,1-1.56-.67,2.15,2.15,0,0,1,0-3.11l3.89-3.89a2.2,2.2,0,1,1,3.11,3.11l-3.89,3.89A2.19,2.19,0,0,1,94.56,184.33ZM82.78,196.11a2.19,2.19,0,0,1-1.56-.67,2.15,2.15,0,0,1,0-3.11l3.89-3.89a2.2,2.2,0,1,1,3.11,3.11l-3.89,3.89A2.19,2.19,0,0,1,82.78,196.11Z"/></clipPath><clipPath id="clip-path-12"><path class="cls-2" d="M137.67,90.22c0-4.78-2.78-7.67-8.44-9.89-4.67-2-6.67-3.33-6.67-6.11,0-2.22,1.33-4.67,5.78-4.67a8.85,8.85,0,0,1,6.56,2.33l.56.33,1.33-4.89A14.83,14.83,0,0,0,130,65.44V60.11h-4.44v6c-5,.78-7.67,4.22-7.67,8.67,0,4.67,3.44,7.22,8.89,9.33,4,1.67,6.11,3.45,6.11,6.45s-2.56,5.33-6.44,5.33A13.89,13.89,0,0,1,119,93.11l-2.22,4.33.33.22a16.05,16.05,0,0,0,8,2.44v5.45h4.56V99.33C135.22,98.44,137.67,94.44,137.67,90.22Z"/></clipPath></defs><title>ic-4-3</title><g id="Слой_2" data-name="Слой 2"><g id="Слой_1-2" data-name="Слой 1"><g class="cls-3"><rect class="cls-4" width="210" height="210"/></g><g class="cls-5"><rect class="cls-6" x="66.67" y="22.22" width="120.9" height="121"/></g><g class="cls-7"><rect class="cls-6" x="77.78" y="33.33" width="98.89" height="98.89"/></g><g class="cls-8"><rect class="cls-6" x="31.11" y="131.11" width="47.78" height="47.78"/></g><g class="cls-9"><rect class="cls-6" x="8.89" y="171" width="30.11" height="30.11"/></g><g class="cls-10"><rect class="cls-6" x="20" y="108.89" width="47.78" height="47.78"/></g><g class="cls-11"><rect class="cls-6" x="53.33" y="142.22" width="47.78" height="47.78"/></g><g class="cls-12"><rect class="cls-6" x="31.11" y="75.56" width="36.67" height="36.67"/></g><g class="cls-13"><rect class="cls-6" x="8.89" y="104.33" width="30.11" height="30.11"/></g><g class="cls-14"><rect class="cls-6" x="97.78" y="142.22" width="36.67" height="36.67"/></g><g class="cls-15"><rect class="cls-6" x="75.56" y="171" width="30.11" height="30.11"/></g><g class="cls-16"><rect class="cls-6" x="111.78" y="55.11" width="30.89" height="55.45"/></g></g></g></svg>