<svg xmlns="http://www.w3.org/2000/svg" xmlns:xlink="http://www.w3.org/1999/xlink" width="210" height="210" viewBox="0 0 210 210"><defs><style>.cls-1,.cls-2{fill:none;}.cls-2{clip-rule:evenodd;}.cls-3{clip-path:url(#clip-path);}.cls-4{fill:#fff;}.cls-5{clip-path:url(#clip-path-2);}.cls-6{fill:#e06727;}.cls-7{clip-path:url(#clip-path-3);}.cls-8{clip-path:url(#clip-path-4);}.cls-9{clip-path:url(#clip-path-5);}.cls-10{clip-path:url(#clip-path-6);}.cls-11{clip-path:url(#clip-path-7);}.cls-12{clip-path:url(#clip-path-8);}.cls-13{clip-path:url(#clip-path-9);}.cls-14{clip-path:url(#clip-path-10);}.cls-15{clip-path:url(#clip-path-11);}.cls-16{clip-path:url(#clip-path-12);}.cls-17{clip-path:url(#clip-path-13);}.cls-18{clip-path:url(#clip-path-14);}.cls-19{clip-path:url(#clip-path-15);}.cls-20{clip-path:url(#clip-path-16);}.cls-21{clip-path:url(#clip-path-17);}.cls-22{clip-path:url(#clip-path-18);}.cls-23{clip-path:url(#clip-path-19);}.cls-24{clip-path:url(#clip-path-20);}.cls-25{clip-path:url(#clip-path-21);}.cls-26{clip-path:url(#clip-path-22);}.cls-27{clip-path:url(#clip-path-23);}.cls-28{clip-path:url(#clip-path-24);}.cls-29{clip-path:url(#clip-path-25);}</style><clipPath id="clip-path"><rect class="cls-1" x="5" y="5" width="200" height="200"/></clipPath><clipPath id="clip-path-2"><path class="cls-2" d="M193.89,62.78H16.11a2.22,2.22,0,0,1,0-4.44H193.89a2.22,2.22,0,0,1,0,4.44Z"/></clipPath><clipPath id="clip-path-3"><path class="cls-2" d="M127.22,129.44H16.11a2.22,2.22,0,0,1,0-4.44H127.22a2.22,2.22,0,0,1,0,4.44Z"/></clipPath><clipPath id="clip-path-4"><path class="cls-2" d="M127.22,196.11H16.11a2.22,2.22,0,0,1,0-4.44H127.22a2.22,2.22,0,0,1,0,4.44Z"/></clipPath><clipPath id="clip-path-5"><path class="cls-2" d="M149.67,152h-.22a2.22,2.22,0,0,1,0-4.44c6.56-1,8.89-5.67,8.89-9.22s-2.33-8.22-8.89-9.22a2.22,2.22,0,0,1,0-4.44H150c8.89,1.33,12.78,7.78,12.78,13.67s-4,12.33-12.78,13.67Z"/></clipPath><clipPath id="clip-path-6"><path class="cls-2" d="M163.22,163.67ZM157.78,166Zm-3,7.89h-5.33a2.22,2.22,0,0,1,0-4.44h4.44v-4.33a3.71,3.71,0,0,1,2.56-3.44,23.2,23.2,0,0,0,4.56-1.89,3.54,3.54,0,0,1,4.22.56l3.11,3.11,6.33-6.33-3-3a3.54,3.54,0,0,1-.56-4.22,23.2,23.2,0,0,0,1.89-4.56,3.6,3.6,0,0,1,3.44-2.56h4.33v-8.89h-4.33a3.71,3.71,0,0,1-3.44-2.56,23.19,23.19,0,0,0-1.89-4.56,3.54,3.54,0,0,1,.56-4.22l3.11-3.11-6.33-6.33-3,3a3.54,3.54,0,0,1-4.22.56,23.19,23.19,0,0,0-4.56-1.89,3.6,3.6,0,0,1-2.56-3.44v-4.11h-4.44a2.22,2.22,0,1,1,0-4.44H155a3.51,3.51,0,0,1,3.56,3.56v4.56a28.27,28.27,0,0,1,4.22,1.78l3.22-3.22a3.77,3.77,0,0,1,5.11,0l7.56,7.56a3.62,3.62,0,0,1,0,5l-3.22,3.22a28.26,28.26,0,0,1,1.78,4.22h4.56a3.51,3.51,0,0,1,3.56,3.56v10.67a3.51,3.51,0,0,1-3.56,3.56h-4.56a28.25,28.25,0,0,1-1.78,4.22l3.22,3.22a3.77,3.77,0,0,1,0,5.11l-7.56,7.56a3.77,3.77,0,0,1-5.11,0l-3.22-3.22a28.27,28.27,0,0,1-4.22,1.78v4.56A3.85,3.85,0,0,1,154.78,173.89Z"/></clipPath><clipPath id="clip-path-7"><path class="cls-2" d="M49.33,51.67H27.22A2.23,2.23,0,0,1,25,49.44V27.33a2.23,2.23,0,0,1,2.22-2.22H43.78a2.22,2.22,0,0,1,0,4.44H29.44V47.22H47.11V43.11a2.22,2.22,0,0,1,4.44,0v6.33A2.23,2.23,0,0,1,49.33,51.67Z"/></clipPath><clipPath id="clip-path-8"><path class="cls-2" d="M42,43.56h0a2.19,2.19,0,0,1-1.56-.67l-6.22-6.33a2.2,2.2,0,1,1,3.11-3.11L42,38.11,59.11,21a2.2,2.2,0,0,1,3.11,3.11L43.56,42.89A2.19,2.19,0,0,1,42,43.56Z"/></clipPath><clipPath id="clip-path-9"><path class="cls-2" d="M105,51.67H71.67a2.22,2.22,0,1,1,0-4.44H105a2.22,2.22,0,0,1,0,4.44Z"/></clipPath><clipPath id="clip-path-10"><path class="cls-2" d="M82.78,40.56H71.67a2.22,2.22,0,1,1,0-4.44H82.78a2.22,2.22,0,0,1,0,4.44Z"/></clipPath><clipPath id="clip-path-11"><path class="cls-2" d="M126.11,96.11H71.67a2.22,2.22,0,1,1,0-4.44h54.44a2.22,2.22,0,0,1,0,4.44Z"/></clipPath><clipPath id="clip-path-12"><path class="cls-2" d="M182.78,40.56H93.89a2.22,2.22,0,0,1,0-4.44h88.89a2.22,2.22,0,0,1,0,4.44Z"/></clipPath><clipPath id="clip-path-13"><path class="cls-2" d="M182.78,29.44H71.67a2.22,2.22,0,1,1,0-4.44H182.78a2.22,2.22,0,1,1,0,4.44Z"/></clipPath><clipPath id="clip-path-14"><path class="cls-2" d="M49.33,118.33H27.22A2.23,2.23,0,0,1,25,116.11V94a2.23,2.23,0,0,1,2.22-2.22H43.78a2.22,2.22,0,1,1,0,4.44H29.44v17.67H47.11v-4.11a2.22,2.22,0,0,1,4.44,0v6.33A2.23,2.23,0,0,1,49.33,118.33Z"/></clipPath><clipPath id="clip-path-15"><path class="cls-2" d="M42,110.22a2.19,2.19,0,0,1-1.56-.67l-6.22-6.22a2.2,2.2,0,0,1,3.11-3.11L42,104.89,59.11,87.78a2.2,2.2,0,0,1,3.11,3.11L43.56,109.56A2.19,2.19,0,0,1,42,110.22Z"/></clipPath><clipPath id="clip-path-16"><path class="cls-2" d="M49.33,185H27.22A2.23,2.23,0,0,1,25,182.78V160.67a2.23,2.23,0,0,1,2.22-2.22H43.78a2.22,2.22,0,0,1,0,4.44H29.44v17.67H47.11v-4.11a2.22,2.22,0,0,1,4.44,0v6.33A2.23,2.23,0,0,1,49.33,185Z"/></clipPath><clipPath id="clip-path-17"><path class="cls-2" d="M42,176.89a2.19,2.19,0,0,1-1.56-.67L34.22,170a2.2,2.2,0,0,1,3.11-3.11L42,171.56l17.11-17.11a2.2,2.2,0,0,1,3.11,3.11L43.56,176.22A2.19,2.19,0,0,1,42,176.89Z"/></clipPath><clipPath id="clip-path-18"><path class="cls-2" d="M82.44,107.22H71.67a2.22,2.22,0,1,1,0-4.44H82.44a2.22,2.22,0,1,1,0,4.44Z"/></clipPath><clipPath id="clip-path-19"><path class="cls-2" d="M127.22,107.22h-33a2.22,2.22,0,0,1,0-4.44h33a2.22,2.22,0,1,1,0,4.44Z"/></clipPath><clipPath id="clip-path-20"><path class="cls-2" d="M105,118.33H71.67a2.22,2.22,0,1,1,0-4.44H105a2.22,2.22,0,0,1,0,4.44Z"/></clipPath><clipPath id="clip-path-21"><path class="cls-2" d="M105,185H71.67a2.22,2.22,0,1,1,0-4.44H105a2.22,2.22,0,0,1,0,4.44Z"/></clipPath><clipPath id="clip-path-22"><path class="cls-2" d="M82.44,173.89H71.67a2.22,2.22,0,1,1,0-4.44H82.44a2.22,2.22,0,1,1,0,4.44Z"/></clipPath><clipPath id="clip-path-23"><path class="cls-2" d="M127.22,173.89h-33a2.22,2.22,0,0,1,0-4.44h33a2.22,2.22,0,0,1,0,4.44Z"/></clipPath><clipPath id="clip-path-24"><path class="cls-2" d="M127.22,162.78H71.67a2.22,2.22,0,1,1,0-4.44h55.56a2.22,2.22,0,0,1,0,4.44Z"/></clipPath><clipPath id="clip-path-25"><path class="cls-2" d="M155,96.44h-.22a42.55,42.55,0,0,0-5.22-.33,2.22,2.22,0,1,1,0-4.44,50.37,50.37,0,0,1,5.78.33,2.09,2.09,0,0,1,1.89,2.44A2.26,2.26,0,0,1,155,96.44Zm15.78,5.11a4,4,0,0,1-1.11-.22,37.31,37.31,0,0,0-4.78-2.22A2.22,2.22,0,1,1,166.56,95a56.86,56.86,0,0,1,5.33,2.44,2.19,2.19,0,0,1,.89,3A2.48,2.48,0,0,1,170.78,101.56Zm12.78,10.56a2,2,0,0,1-1.67-.78,29.45,29.45,0,0,0-3.67-3.78,2.2,2.2,0,0,1,3-3.22,47.46,47.46,0,0,1,4,4.22,2.25,2.25,0,0,1-.22,3.11A3.15,3.15,0,0,1,183.56,112.11Zm8.11,14.44a2.23,2.23,0,0,1-2.11-1.56,37.6,37.6,0,0,0-2-4.89,2.24,2.24,0,0,1,4-2,46.59,46.59,0,0,1,2.22,5.44,2.2,2.2,0,0,1-1.44,2.78A1.58,1.58,0,0,1,191.67,126.56Zm2.11,16.33h-.11a2.31,2.31,0,0,1-2.11-2.33c0-.78.11-1.56.11-2.22a27.08,27.08,0,0,0-.11-3,2.22,2.22,0,1,1,4.44-.22c.11,1.11.11,2.22.11,3.33a17.2,17.2,0,0,1-.11,2.44A2.12,2.12,0,0,1,193.78,142.89ZM189.89,159a2.09,2.09,0,0,1-.89-.22,2.33,2.33,0,0,1-1.11-3,37.07,37.07,0,0,0,1.89-4.89,2.21,2.21,0,1,1,4.22,1.33,46,46,0,0,1-2.11,5.44A2.14,2.14,0,0,1,189.89,159Zm-9.56,13.56a2.19,2.19,0,0,1-1.56-.67,2.15,2.15,0,0,1,.11-3.11c1.22-1.22,2.44-2.56,3.56-3.89a2.21,2.21,0,0,1,3.44,2.78A48.93,48.93,0,0,1,182,172,3.31,3.31,0,0,1,180.33,172.56Zm-13.89,9.11a2.2,2.2,0,0,1-2-1.33,2.26,2.26,0,0,1,1.22-2.89,38,38,0,0,0,4.78-2.33,2.19,2.19,0,0,1,2.22,3.78,45.39,45.39,0,0,1-5.22,2.56A4.12,4.12,0,0,1,166.44,181.67ZM150.22,185a2.22,2.22,0,0,1,0-4.44,39.7,39.7,0,0,0,5.22-.44,2.25,2.25,0,1,1,.67,4.44A50.6,50.6,0,0,1,150.22,185Z"/></clipPath></defs><title>ic-5-1</title><g id="Слой_2" data-name="Слой 2"><g id="Слой_1-2" data-name="Слой 1"><g class="cls-3"><rect class="cls-4" width="210" height="210"/></g><g class="cls-5"><rect class="cls-6" x="8.89" y="53.33" width="192.22" height="14.44"/></g><g class="cls-7"><rect class="cls-6" x="8.89" y="120" width="125.56" height="14.44"/></g><g class="cls-8"><rect class="cls-6" x="8.89" y="186.67" width="125.56" height="14.44"/></g><g class="cls-9"><rect class="cls-6" x="142.22" y="119.67" width="25.56" height="37.33"/></g><g class="cls-10"><rect class="cls-6" x="142.22" y="97.78" width="48.11" height="81.11"/></g><g class="cls-11"><rect class="cls-6" x="20" y="20.11" width="36.56" height="36.56"/></g><g class="cls-12"><rect class="cls-6" x="28.56" y="15.33" width="39.33" height="33.22"/></g><g class="cls-13"><rect class="cls-6" x="64.44" y="42.22" width="47.78" height="14.44"/></g><g class="cls-14"><rect class="cls-6" x="64.44" y="31.11" width="25.56" height="14.44"/></g><g class="cls-15"><rect class="cls-6" x="64.44" y="86.67" width="68.89" height="14.44"/></g><g class="cls-16"><rect class="cls-6" x="86.67" y="31.11" width="103.33" height="14.44"/></g><g class="cls-17"><rect class="cls-6" x="64.44" y="20" width="125.56" height="14.44"/></g><g class="cls-18"><rect class="cls-6" x="20" y="86.78" width="36.56" height="36.56"/></g><g class="cls-19"><rect class="cls-6" x="28.56" y="82.11" width="39.33" height="33.11"/></g><g class="cls-20"><rect class="cls-6" x="20" y="153.44" width="36.56" height="36.56"/></g><g class="cls-21"><rect class="cls-6" x="28.56" y="148.78" width="39.33" height="33.11"/></g><g class="cls-22"><rect class="cls-6" x="64.44" y="97.78" width="25.22" height="14.44"/></g><g class="cls-23"><rect class="cls-6" x="87" y="97.78" width="47.44" height="14.44"/></g><g class="cls-24"><rect class="cls-6" x="64.44" y="108.89" width="47.78" height="14.44"/></g><g class="cls-25"><rect class="cls-6" x="64.44" y="175.56" width="47.78" height="14.44"/></g><g class="cls-26"><rect class="cls-6" x="64.44" y="164.44" width="25.22" height="14.44"/></g><g class="cls-27"><rect class="cls-6" x="87" y="164.44" width="47.44" height="14.44"/></g><g class="cls-28"><rect class="cls-6" x="64.44" y="153.33" width="70" height="14.44"/></g><g class="cls-29"><rect class="cls-6" x="142.33" y="86.67" width="58.78" height="103.33"/></g></g></g></svg>