<svg xmlns="http://www.w3.org/2000/svg" xmlns:xlink="http://www.w3.org/1999/xlink" width="210" height="210" viewBox="0 0 210 210"><defs><style>.cls-1,.cls-2{fill:none;}.cls-2{clip-rule:evenodd;}.cls-3{clip-path:url(#clip-path);}.cls-4{fill:#fff;}.cls-5{clip-path:url(#clip-path-2);}.cls-6{fill:#e06727;}.cls-7{clip-path:url(#clip-path-3);}.cls-8{clip-path:url(#clip-path-4);}.cls-9{clip-path:url(#clip-path-5);}.cls-10{clip-path:url(#clip-path-6);}.cls-11{clip-path:url(#clip-path-7);}.cls-12{clip-path:url(#clip-path-8);}.cls-13{clip-path:url(#clip-path-9);}.cls-14{clip-path:url(#clip-path-10);}.cls-15{clip-path:url(#clip-path-11);}.cls-16{clip-path:url(#clip-path-12);}.cls-17{clip-path:url(#clip-path-13);}.cls-18{clip-path:url(#clip-path-14);}.cls-19{clip-path:url(#clip-path-15);}.cls-20{clip-path:url(#clip-path-16);}.cls-21{clip-path:url(#clip-path-17);}.cls-22{clip-path:url(#clip-path-18);}.cls-23{clip-path:url(#clip-path-19);}.cls-24{clip-path:url(#clip-path-20);}.cls-25{clip-path:url(#clip-path-21);}</style><clipPath id="clip-path"><rect class="cls-1" x="5" y="5" width="200" height="200"/></clipPath><clipPath id="clip-path-2"><path class="cls-2" d="M105.11,62.44a22.82,22.82,0,0,0,9-1.78l-.33.67a1.54,1.54,0,0,0,0,1,8.9,8.9,0,0,1-17.78,0,1.54,1.54,0,0,0,0-1,2.23,2.23,0,0,0-.44-.89A25,25,0,0,0,105.11,62.44ZM27.22,107.22h0A2.23,2.23,0,0,0,29.44,105a31.11,31.11,0,0,1,31-31.11h.22a31,31,0,0,1,8.44,1.22A46.67,46.67,0,0,0,58.33,105a2.22,2.22,0,0,0,4.44,0A42.48,42.48,0,0,1,74.56,75.67l.11-.11A41.72,41.72,0,0,1,92,64.78a13.31,13.31,0,0,0,26,0,43.18,43.18,0,0,1,17.33,10.78l.11.11A42.48,42.48,0,0,1,147.22,105a2.22,2.22,0,0,0,4.44,0,46.67,46.67,0,0,0-10.78-29.89A31.29,31.29,0,0,1,147.33,74a18.17,18.17,0,0,0,2.44.22c.78,0,1.56-.11,2.22-.11a31.1,31.1,0,0,1,28.56,31,2.22,2.22,0,1,0,4.44,0,35.55,35.55,0,0,0-25-33.89,17.35,17.35,0,0,0,4-3.56A19,19,0,0,0,161.89,41,2.21,2.21,0,1,0,159,44.33a14.74,14.74,0,0,1,5,9.89,14.46,14.46,0,0,1-12.33,15.44c-.78,0-1.56-.11-2.33-.11a12.08,12.08,0,0,0-2,.11,14.79,14.79,0,0,1-7.11-3.22c-.22-.11-.33-.33-.44-.44a2.2,2.2,0,0,0-3,3.22,3,3,0,0,0,.67.56c.56.44,1.11.89,1.78,1.33-.56.22-1.11.33-1.78.56A46.14,46.14,0,0,0,117,60.11a1.41,1.41,0,0,0-.67-.11,24.3,24.3,0,0,0,10.22-9.89A2.21,2.21,0,1,0,122.67,48a20,20,0,0,1-36.78-4.22,20.48,20.48,0,0,1,1.22-14.33h15.78A13.35,13.35,0,0,0,116,40.56h11.33a2.22,2.22,0,1,0,0-4.44H116.11a8.92,8.92,0,0,1-8.89-8.89A2.23,2.23,0,0,0,105,25H85.22c-.11,0-.11,0-.22.11s-.11,0-.22.11-.11.11-.22.11-.11.11-.22.11-.11.11-.22.11l-.11.11-.11.11c0,.11-.11.11-.11.22v.11a24.05,24.05,0,0,0-2.11,18.56A24.36,24.36,0,0,0,93.33,59.33l.67.33a2.09,2.09,0,0,0-.89.22A47.23,47.23,0,0,0,72.67,71.44a10.93,10.93,0,0,0-1.78-.56,18.92,18.92,0,0,0,6.89-24.11A18.84,18.84,0,0,0,67,37.11,19.83,19.83,0,0,0,60.78,36h-.22a17.39,17.39,0,0,0-8.11,1.89,18.84,18.84,0,0,0-9.67,10.78A2.25,2.25,0,1,0,47,50.22,14.28,14.28,0,0,1,54.44,42a13.79,13.79,0,0,1,4-1.22v9.44a8.16,8.16,0,0,1-8.11,8.11h-12a2.22,2.22,0,1,0,0,4.44H50.22A12.61,12.61,0,0,0,62.78,50.22V40.78a9.61,9.61,0,0,1,2.56.67,14.28,14.28,0,0,1,8.22,7.44,14.06,14.06,0,0,1,.56,11,14.4,14.4,0,0,1-18.44,8.78,13.13,13.13,0,0,1-4.78-2.89A2.21,2.21,0,1,0,48,69.11a19.66,19.66,0,0,0,2.44,1.78,34.87,34.87,0,0,0-15,9A35.49,35.49,0,0,0,25,105,2.23,2.23,0,0,0,27.22,107.22Z"/></clipPath><clipPath id="clip-path-3"><path class="cls-2" d="M95.11,20.89A19.68,19.68,0,0,1,110.33,19a20.2,20.2,0,0,1,12.11,9.44.84.84,0,0,1,.22.44,2.34,2.34,0,0,0,2,1.22,3.25,3.25,0,0,0,1-.22,2.19,2.19,0,0,0,.89-3,2.43,2.43,0,0,0-.33-.56,24.52,24.52,0,0,0-33.33-9.22,2.19,2.19,0,1,0,2.22,3.78Z"/></clipPath><clipPath id="clip-path-4"><path class="cls-2" d="M132.78,58.33A2.23,2.23,0,0,0,135,60.56a18.87,18.87,0,0,0,18.89-18.89,2.22,2.22,0,1,0-4.44,0A14.42,14.42,0,0,1,135,56.11,2.23,2.23,0,0,0,132.78,58.33Z"/></clipPath><clipPath id="clip-path-5"><path class="cls-2" d="M132.89,51.56a1.41,1.41,0,0,0,.67.11,2.23,2.23,0,0,0,2.11-1.56,14.22,14.22,0,0,1,8.11-8.67,2.22,2.22,0,0,0-1.67-4.11,19,19,0,0,0-10.56,11.33A2.27,2.27,0,0,0,132.89,51.56Z"/></clipPath><clipPath id="clip-path-6"><path class="cls-2" d="M173.56,116.11a2.23,2.23,0,0,0-2.22-2.22h-133a2.22,2.22,0,1,0,0,4.44h133A2.23,2.23,0,0,0,173.56,116.11Z"/></clipPath><clipPath id="clip-path-7"><path class="cls-2" d="M87.56,125a2.16,2.16,0,0,0-2.33,2.11v.78a37.8,37.8,0,0,0,.78,3.78,2.23,2.23,0,0,0,2.11,1.56,1.41,1.41,0,0,0,.67-.11,2.08,2.08,0,0,0,1.44-2.78,14.55,14.55,0,0,1-.67-3A2.14,2.14,0,0,0,87.56,125Z"/></clipPath><clipPath id="clip-path-8"><path class="cls-2" d="M95.44,138.56a2.21,2.21,0,1,0-2.89,3.33,20.1,20.1,0,0,0,5.33,3.22,1.89,1.89,0,0,0,.78.11,2.28,2.28,0,0,0,2.11-1.44,2.26,2.26,0,0,0-1.22-2.89A11.62,11.62,0,0,1,95.44,138.56Z"/></clipPath><clipPath id="clip-path-9"><path class="cls-2" d="M122.44,125a2.14,2.14,0,0,0-2,2.33,26,26,0,0,1-1.11,4.44,2.22,2.22,0,0,0,1.33,2.89,1.89,1.89,0,0,0,.78.11,2.28,2.28,0,0,0,2.11-1.44,29.08,29.08,0,0,0,1.44-5.56v-.89A2.51,2.51,0,0,0,122.44,125Z"/></clipPath><clipPath id="clip-path-10"><path class="cls-2" d="M113.33,139.44a15.38,15.38,0,0,1-4.33,2,2.27,2.27,0,0,0,.56,4.44.83.83,0,0,0,.56-.11,18.87,18.87,0,0,0,5.67-2.67,2.28,2.28,0,0,0,.56-3.11A2.11,2.11,0,0,0,113.33,139.44Z"/></clipPath><clipPath id="clip-path-11"><path class="cls-2" d="M138.33,144.89a33.79,33.79,0,0,0,2.67-6.56h6.56a4,4,0,0,0,4-4v-7.11a2.22,2.22,0,0,0-4.44,0v6.67h-6.56a3.93,3.93,0,0,0-3.78,2.89,43.09,43.09,0,0,1-2.56,6.22,4.05,4.05,0,0,0,.67,4.78l4.56,4.56L130,161.78l-4.56-4.56a4,4,0,0,0-4.78-.67,27.22,27.22,0,0,1-6.22,2.56,4.07,4.07,0,0,0-2.89,3.89v6.44H98.33V163a4.07,4.07,0,0,0-2.89-3.89,43.1,43.1,0,0,1-6.22-2.56,4.05,4.05,0,0,0-4.78.67l-4.56,4.56-9.44-9.44L75,147.78a4,4,0,0,0,.67-4.78,27.23,27.23,0,0,1-2.56-6.22,4.07,4.07,0,0,0-3.89-2.89H62.78v-6.67a2.22,2.22,0,0,0-4.44,0v7.11a4,4,0,0,0,4,4h6.56a36.89,36.89,0,0,0,2.67,6.56l-4.67,4.67a4,4,0,0,0,0,5.67L77,165.33a4,4,0,0,0,5.67,0l4.67-4.67a33.79,33.79,0,0,0,6.56,2.67V170a4,4,0,0,0,4,4h14.22a4,4,0,0,0,4-4v-6.56a36.89,36.89,0,0,0,6.56-2.67l4.67,4.67a4,4,0,0,0,5.67,0l10.11-10.11a4,4,0,0,0,0-5.67Z"/></clipPath><clipPath id="clip-path-12"><path class="cls-2" d="M187.33,156.11l-.11-.11a11,11,0,0,0-1.89-1.22,2.25,2.25,0,0,0-3,.78,2.28,2.28,0,0,0,.78,3,9.26,9.26,0,0,1,1.33.89,2.19,2.19,0,0,0,1.56.67,2.34,2.34,0,0,0,1.44-.56,2.25,2.25,0,0,0,.22-3.11Z"/></clipPath><clipPath id="clip-path-13"><path class="cls-2" d="M169.22,168.78a2.25,2.25,0,1,0-4.33,1.22,15.83,15.83,0,0,0,2.78,5.44l.11.11.33.33a2.34,2.34,0,0,0,1.44.56,2,2,0,0,0,1.67-.78,2.37,2.37,0,0,0-.11-3.11A10.09,10.09,0,0,1,169.22,168.78Z"/></clipPath><clipPath id="clip-path-14"><path class="cls-2" d="M172.67,153.67a14.41,14.41,0,0,0-5.33,3.89,2.16,2.16,0,0,0,.33,3.11,2.34,2.34,0,0,0,1.44.56,2,2,0,0,0,1.67-.78,12,12,0,0,1,3.56-2.67,2.26,2.26,0,0,0,1.22-2.89A2.21,2.21,0,0,0,172.67,153.67Z"/></clipPath><clipPath id="clip-path-15"><path class="cls-2" d="M200.11,143.78l-3.33-3.33a3.27,3.27,0,0,0-2.44-1,3.45,3.45,0,0,0-2.44,1l-2.67,2.67a32,32,0,0,0-3.44-1.44v-3.78a3.34,3.34,0,0,0-3.33-3.33h-9.33a3.34,3.34,0,0,0-3.33,3.33v3.78a18.81,18.81,0,0,0-3.44,1.44l-2.67-2.67a3.35,3.35,0,0,0-4.78,0l-6.67,6.67a3.35,3.35,0,0,0,0,4.78l2.78,2.78a20.85,20.85,0,0,0-1.33,3.33h-3.78a3.37,3.37,0,0,0-3.33,3.44v9.33a3.34,3.34,0,0,0,3.33,3.33h3.78a18.81,18.81,0,0,0,1.44,3.44l-2.67,2.67a3.27,3.27,0,0,0-1,2.44,3.59,3.59,0,0,0,.89,2.33l.11.11,3.33,3.33a2.15,2.15,0,0,0,3.11,0,2.15,2.15,0,0,0,0-3.11l-2.78-2.56,2.44-2.44a3.39,3.39,0,0,0,.56-4,30.55,30.55,0,0,1-1.67-4,3.44,3.44,0,0,0-3.22-2.44h-3.56v-7.22h3.56a3.33,3.33,0,0,0,3.22-2.44,21.59,21.59,0,0,1,1.67-4c0-.11.11-.11.11-.22a3.44,3.44,0,0,0-.89-3.89l-2.44-2.44,5.22-5.22,2.44,2.44a3.39,3.39,0,0,0,4,.56,25.3,25.3,0,0,1,4-1.67,3.44,3.44,0,0,0,2.44-3.22V139h7.22v3.56a3.33,3.33,0,0,0,2.44,3.22,21.59,21.59,0,0,1,4,1.67,3.2,3.2,0,0,0,4-.56l2.44-2.44,2.56,2.56a2.15,2.15,0,0,0,3.11,0A2.31,2.31,0,0,0,200.11,143.78Z"/></clipPath><clipPath id="clip-path-16"><path class="cls-2" d="M42.33,170.56a2.25,2.25,0,0,0-3,.78,9.27,9.27,0,0,1-.89,1.33,2.11,2.11,0,0,0-.11,3,2.15,2.15,0,0,0,1.67.78,2.34,2.34,0,0,0,1.44-.56l.33-.33.11-.11a11,11,0,0,0,1.22-1.89A2.11,2.11,0,0,0,42.33,170.56Z"/></clipPath><clipPath id="clip-path-17"><path class="cls-2" d="M27.89,153.22A15.83,15.83,0,0,0,22.44,156l-.11.11-.33.33a2.25,2.25,0,0,0,.22,3.11,2.34,2.34,0,0,0,1.44.56,2.19,2.19,0,0,0,1.56-.67,14.37,14.37,0,0,1,3.89-2,2.22,2.22,0,0,0,1.56-2.78A2.25,2.25,0,0,0,27.89,153.22Z"/></clipPath><clipPath id="clip-path-18"><path class="cls-2" d="M40.33,155.67a2.21,2.21,0,1,0-2.78,3.44,12,12,0,0,1,2.67,3.56A2.18,2.18,0,0,0,42.33,164a2.45,2.45,0,0,0,.89-.11A2.26,2.26,0,0,0,44.44,161,16,16,0,0,0,40.33,155.67Z"/></clipPath><clipPath id="clip-path-19"><path class="cls-2" d="M60,158H56.11a18.8,18.8,0,0,0-1.44-3.44l2.67-2.67a3.27,3.27,0,0,0,1-2.44,3.45,3.45,0,0,0-1-2.44l-6.67-6.67a3.46,3.46,0,0,0-4.78-.11h-.11l-2.67,2.67a32,32,0,0,0-3.44-1.44v-3.67a3.37,3.37,0,0,0-3.44-3.33H26.89a3.34,3.34,0,0,0-3.33,3.33v3.78A18.8,18.8,0,0,0,20.11,143l-2.67-2.67a3.27,3.27,0,0,0-2.44-1,3.2,3.2,0,0,0-2.33,1l-3.33,3.33a2.2,2.2,0,1,0,3.11,3.11L15,144.22l2.44,2.44a3.37,3.37,0,0,0,4,.56,25.31,25.31,0,0,1,4-1.67,3.44,3.44,0,0,0,2.44-3.22v-3.56h7.22v3.44a3.44,3.44,0,0,0,2.44,3.22,21.59,21.59,0,0,1,4,1.67,3.2,3.2,0,0,0,4-.56L48,144.11l5.22,5.22-2.44,2.44a3.39,3.39,0,0,0-.56,4,25.3,25.3,0,0,1,1.67,4,3.44,3.44,0,0,0,3.22,2.44h3.56v7.22H55.11a3.44,3.44,0,0,0-3.22,2.44,25.3,25.3,0,0,1-1.67,4,3.2,3.2,0,0,0,.56,4l2.44,2.44-2.56,2.56a2.15,2.15,0,0,0,0,3.11,2.15,2.15,0,0,0,3.11,0l3.33-3.33a3.27,3.27,0,0,0,1-2.44,3.37,3.37,0,0,0-.89-2.33l-.11-.11-2.67-2.67a32,32,0,0,0,1.44-3.44h3.78A3.34,3.34,0,0,0,63,170.33V161C63.33,159.44,61.78,158,60,158Z"/></clipPath><clipPath id="clip-path-20"><path class="cls-2" d="M102.78,106.33a2.22,2.22,0,1,0,4.44,0v-5.56a2.22,2.22,0,0,0-4.44,0Z"/></clipPath><clipPath id="clip-path-21"><path class="cls-2" d="M105,91.89a2.23,2.23,0,0,0,2.22-2.22V84.11a2.22,2.22,0,1,0-4.44,0v5.56A2.23,2.23,0,0,0,105,91.89Z"/></clipPath></defs><title>ic-5-2</title><g id="Слой_2" data-name="Слой 2"><g id="Слой_1-2" data-name="Слой 1"><g class="cls-3"><rect class="cls-4" width="210" height="210"/></g><g class="cls-5"><rect class="cls-6" x="20" y="20" width="170" height="92.33"/></g><g class="cls-7"><rect class="cls-6" x="86.74" y="8.94" width="45.08" height="26.17"/></g><g class="cls-8"><rect class="cls-6" x="127.78" y="34.44" width="31.11" height="31.11"/></g><g class="cls-9"><rect class="cls-6" x="126.42" y="32.18" width="23.74" height="24.49"/></g><g class="cls-10"><rect class="cls-6" x="31.11" y="108.89" width="147.44" height="14.44"/></g><g class="cls-11"><rect class="cls-6" x="80.22" y="119.99" width="15.14" height="18.23"/></g><g class="cls-12"><rect class="cls-6" x="86.81" y="133.04" width="19.12" height="17.19"/></g><g class="cls-13"><rect class="cls-6" x="114.18" y="119.99" width="15.82" height="19.79"/></g><g class="cls-14"><rect class="cls-6" x="102.36" y="134.06" width="19.36" height="16.83"/></g><g class="cls-15"><rect class="cls-6" x="53.33" y="120" width="103.22" height="59"/></g><g class="cls-16"><rect class="cls-6" x="177.07" y="149.51" width="16.12" height="15.6"/></g><g class="cls-17"><rect class="cls-6" x="159.8" y="162.14" width="16.95" height="19.31"/></g><g class="cls-18"><rect class="cls-6" x="161.82" y="148.51" width="18.89" height="17.71"/></g><g class="cls-19"><rect class="cls-6" x="141.56" y="129.56" width="64.08" height="64.56"/></g><g class="cls-20"><rect class="cls-6" x="32.76" y="165.29" width="15.69" height="16.16"/></g><g class="cls-21"><rect class="cls-6" x="16.48" y="148.14" width="19.27" height="16.98"/></g><g class="cls-22"><rect class="cls-6" x="31.71" y="150.16" width="17.89" height="18.84"/></g><g class="cls-23"><rect class="cls-6" x="3.67" y="129.44" width="64.38" height="64.22"/></g><g class="cls-24"><rect class="cls-6" x="97.78" y="93.56" width="14.44" height="20"/></g><g class="cls-25"><rect class="cls-6" x="97.78" y="76.89" width="14.44" height="20"/></g></g></g></svg>