<svg xmlns="http://www.w3.org/2000/svg" xmlns:xlink="http://www.w3.org/1999/xlink" width="210" height="210" viewBox="0 0 210 210"><defs><style>.cls-1,.cls-2{fill:none;}.cls-2{clip-rule:evenodd;}.cls-3{clip-path:url(#clip-path);}.cls-4{fill:#fff;}.cls-5{clip-path:url(#clip-path-2);}.cls-6{fill:#df6622;}.cls-7{clip-path:url(#clip-path-3);}.cls-8{clip-path:url(#clip-path-4);}.cls-9{clip-path:url(#clip-path-5);}.cls-10{clip-path:url(#clip-path-6);}.cls-11{clip-path:url(#clip-path-7);}.cls-12{clip-path:url(#clip-path-8);}.cls-13{clip-path:url(#clip-path-9);}.cls-14{clip-path:url(#clip-path-10);}.cls-15{clip-path:url(#clip-path-11);}.cls-16{clip-path:url(#clip-path-12);}.cls-17{clip-path:url(#clip-path-13);}.cls-18{clip-path:url(#clip-path-14);}.cls-19{clip-path:url(#clip-path-15);}.cls-20{clip-path:url(#clip-path-16);}.cls-21{clip-path:url(#clip-path-17);}.cls-22{clip-path:url(#clip-path-18);}.cls-23{clip-path:url(#clip-path-19);}.cls-24{clip-path:url(#clip-path-20);}.cls-25{clip-path:url(#clip-path-21);}.cls-26{clip-path:url(#clip-path-22);}.cls-27{clip-path:url(#clip-path-23);}.cls-28{clip-path:url(#clip-path-24);}.cls-29{clip-path:url(#clip-path-25);}.cls-30{clip-path:url(#clip-path-26);}</style><clipPath id="clip-path"><rect class="cls-1" x="5" y="5" width="200" height="200"/></clipPath><clipPath id="clip-path-2"><path class="cls-2" d="M38.33,51.67H60.44a2.23,2.23,0,0,0,2.22-2.22V43.11a2.22,2.22,0,1,0-4.44,0v4.11H40.56V29.56H54.89a2.22,2.22,0,1,0,0-4.44H38.33a2.23,2.23,0,0,0-2.22,2.22V49.44a2.16,2.16,0,0,0,2.22,2.22Z"/></clipPath><clipPath id="clip-path-3"><path class="cls-2" d="M70.22,21.11,53.11,38.22l-4.78-4.67a2.2,2.2,0,1,0-3.11,3.11l6.22,6.22a2.15,2.15,0,0,0,3.11,0L73.22,24.22a2.15,2.15,0,0,0,0-3.11,2,2,0,0,0-3,0Z"/></clipPath><clipPath id="clip-path-4"><path class="cls-2" d="M38.33,96.11H60.44a2.23,2.23,0,0,0,2.22-2.22V87.56a2.22,2.22,0,0,0-4.44,0v4.11H40.56V74H54.89a2.22,2.22,0,0,0,0-4.44H38.33a2.23,2.23,0,0,0-2.22,2.22V93.89a2.23,2.23,0,0,0,2.22,2.22Z"/></clipPath><clipPath id="clip-path-5"><path class="cls-2" d="M70.22,65.56,53.11,82.67l-4.78-4.78A2.2,2.2,0,0,0,45.22,81l6.22,6.33A2.19,2.19,0,0,0,53,88h0a2.19,2.19,0,0,0,1.56-.67L73.22,68.67a2.15,2.15,0,0,0,0-3.11,2,2,0,0,0-3,0Z"/></clipPath><clipPath id="clip-path-6"><path class="cls-2" d="M38.33,140.56H60.44a2.23,2.23,0,0,0,2.22-2.22V132a2.22,2.22,0,0,0-4.44,0v4.11H40.56V118.44H54.89a2.22,2.22,0,1,0,0-4.44H38.33a2.23,2.23,0,0,0-2.22,2.22v22.11a2.23,2.23,0,0,0,2.22,2.22Z"/></clipPath><clipPath id="clip-path-7"><path class="cls-2" d="M70.22,110,53.11,127.11l-4.67-4.67a2.2,2.2,0,1,0-3.11,3.11l6.22,6.33a2.15,2.15,0,0,0,3.11,0l18.67-18.67A2.24,2.24,0,0,0,70.22,110Z"/></clipPath><clipPath id="clip-path-8"><path class="cls-2" d="M60.44,174.22a2.23,2.23,0,0,0-2.22,2.22v4.11H40.56V162.89H54.89a2.22,2.22,0,0,0,0-4.44H38.33a2.23,2.23,0,0,0-2.22,2.22v22.11A2.23,2.23,0,0,0,38.33,185H60.44a2.23,2.23,0,0,0,2.22-2.22v-6.33a2.23,2.23,0,0,0-2.22-2.22Z"/></clipPath><clipPath id="clip-path-9"><path class="cls-2" d="M70.22,154.44,53.11,171.56l-4.67-4.67A2.2,2.2,0,1,0,45.33,170l6.22,6.22a2.15,2.15,0,0,0,3.11,0l18.67-18.67a2.2,2.2,0,1,0-3.11-3.11Z"/></clipPath><clipPath id="clip-path-10"><path class="cls-2" d="M82.78,29.56h44.11a2.22,2.22,0,0,0,0-4.44H82.78a2.22,2.22,0,1,0,0,4.44Z"/></clipPath><clipPath id="clip-path-11"><path class="cls-2" d="M138.33,29.56h0l33.33-.11a2.22,2.22,0,1,0,0-4.44h0l-33.33.11a2.22,2.22,0,1,0,0,4.44Z"/></clipPath><clipPath id="clip-path-12"><path class="cls-2" d="M171.67,36.11h0l-88.89.11a2.22,2.22,0,0,0,0,4.44h0l88.89-.11a2.22,2.22,0,1,0,0-4.44Z"/></clipPath><clipPath id="clip-path-13"><path class="cls-2" d="M82.78,51.67h33.33a2.22,2.22,0,0,0,0-4.44H82.78a2.22,2.22,0,0,0,0,4.44Z"/></clipPath><clipPath id="clip-path-14"><path class="cls-2" d="M82.78,73.89H93.89a2.22,2.22,0,0,0,0-4.44H82.78a2.22,2.22,0,0,0,0,4.44Z"/></clipPath><clipPath id="clip-path-15"><path class="cls-2" d="M171.67,69.44H105a2.22,2.22,0,0,0,0,4.44h66.67a2.22,2.22,0,1,0,0-4.44Z"/></clipPath><clipPath id="clip-path-16"><path class="cls-2" d="M82.78,85h44.44a2.22,2.22,0,1,0,0-4.44H82.78a2.22,2.22,0,1,0,0,4.44Z"/></clipPath><clipPath id="clip-path-17"><path class="cls-2" d="M171.67,80.56H138.33a2.22,2.22,0,1,0,0,4.44h33.33a2.22,2.22,0,1,0,0-4.44Z"/></clipPath><clipPath id="clip-path-18"><path class="cls-2" d="M82.78,96.11H105a2.22,2.22,0,1,0,0-4.44H82.78a2.22,2.22,0,1,0,0,4.44Z"/></clipPath><clipPath id="clip-path-19"><path class="cls-2" d="M171.67,113.89H82.78a2.22,2.22,0,0,0,0,4.44h88.89a2.22,2.22,0,1,0,0-4.44Z"/></clipPath><clipPath id="clip-path-20"><path class="cls-2" d="M171.67,125H116.11a2.22,2.22,0,1,0,0,4.44h55.56a2.22,2.22,0,1,0,0-4.44Z"/></clipPath><clipPath id="clip-path-21"><path class="cls-2" d="M82.78,129.44H105a2.22,2.22,0,1,0,0-4.44H82.78a2.22,2.22,0,1,0,0,4.44Z"/></clipPath><clipPath id="clip-path-22"><path class="cls-2" d="M82.78,140.56h55.56a2.22,2.22,0,1,0,0-4.44H82.78a2.22,2.22,0,1,0,0,4.44Z"/></clipPath><clipPath id="clip-path-23"><path class="cls-2" d="M93.89,180.56H82.78a2.22,2.22,0,1,0,0,4.44H93.89a2.22,2.22,0,1,0,0-4.44Z"/></clipPath><clipPath id="clip-path-24"><path class="cls-2" d="M116.11,169.44H82.78a2.22,2.22,0,0,0,0,4.44h33.33a2.22,2.22,0,0,0,0-4.44Z"/></clipPath><clipPath id="clip-path-25"><path class="cls-2" d="M171.67,169.44H127.22a2.22,2.22,0,0,0,0,4.44h44.44a2.22,2.22,0,1,0,0-4.44Z"/></clipPath><clipPath id="clip-path-26"><path class="cls-2" d="M171.67,158.33H82.78a2.22,2.22,0,0,0,0,4.44h88.89a2.22,2.22,0,1,0,0-4.44Z"/></clipPath></defs><title>Professionalism</title><g id="Слой_2" data-name="Слой 2"><g id="Слой_1-2" data-name="Слой 1"><g class="cls-3"><rect class="cls-4" width="210" height="210"/></g><g class="cls-5"><rect class="cls-6" x="31.11" y="20.11" width="36.56" height="36.56"/></g><g class="cls-7"><rect class="cls-6" x="39.56" y="15.44" width="39.33" height="33.11"/></g><g class="cls-8"><rect class="cls-6" x="31.11" y="64.56" width="36.56" height="36.56"/></g><g class="cls-9"><rect class="cls-6" x="39.56" y="59.89" width="39.33" height="33.11"/></g><g class="cls-10"><rect class="cls-6" x="31.11" y="109" width="36.56" height="36.56"/></g><g class="cls-11"><rect class="cls-6" x="39.67" y="104.39" width="39.33" height="33.17"/></g><g class="cls-12"><rect class="cls-6" x="31.11" y="153.44" width="36.56" height="36.56"/></g><g class="cls-13"><rect class="cls-6" x="39.67" y="148.78" width="39.33" height="33.11"/></g><g class="cls-14"><rect class="cls-6" x="75.56" y="20.11" width="58.56" height="14.44"/></g><g class="cls-15"><rect class="cls-6" x="131.11" y="20" width="47.78" height="14.56"/></g><g class="cls-16"><rect class="cls-6" x="75.56" y="31.11" width="103.33" height="14.56"/></g><g class="cls-17"><rect class="cls-6" x="75.56" y="42.22" width="47.78" height="14.44"/></g><g class="cls-18"><rect class="cls-6" x="75.56" y="64.44" width="25.56" height="14.44"/></g><g class="cls-19"><rect class="cls-6" x="97.78" y="64.44" width="81.11" height="14.44"/></g><g class="cls-20"><rect class="cls-6" x="75.56" y="75.56" width="58.89" height="14.44"/></g><g class="cls-21"><rect class="cls-6" x="131.11" y="75.56" width="47.78" height="14.44"/></g><g class="cls-22"><rect class="cls-6" x="75.56" y="86.67" width="36.67" height="14.44"/></g><g class="cls-23"><rect class="cls-6" x="75.56" y="108.89" width="103.33" height="14.44"/></g><g class="cls-24"><rect class="cls-6" x="108.89" y="120" width="70" height="14.44"/></g><g class="cls-25"><rect class="cls-6" x="75.56" y="120" width="36.67" height="14.44"/></g><g class="cls-26"><rect class="cls-6" x="75.56" y="131.11" width="70" height="14.44"/></g><g class="cls-27"><rect class="cls-6" x="75.56" y="175.56" width="25.56" height="14.44"/></g><g class="cls-28"><rect class="cls-6" x="75.56" y="164.44" width="47.78" height="14.44"/></g><g class="cls-29"><rect class="cls-6" x="120" y="164.44" width="58.89" height="14.44"/></g><g class="cls-30"><rect class="cls-6" x="75.56" y="153.33" width="103.33" height="14.44"/></g></g></g></svg>