<svg xmlns="http://www.w3.org/2000/svg" xmlns:xlink="http://www.w3.org/1999/xlink" width="29.66" height="28.01" viewBox="0 0 29.66 28.01"><defs><clipPath id="e5440f51-8bea-44af-bcb0-93210004f43a"><path d="M16,12.62Zm3.8-2a4.22,4.22,0,0,0-3.8,2V10.85H11.8C11.85,12,11.8,23,11.8,23H16V16.22a2.59,2.59,0,0,1,.14-1,2.29,2.29,0,0,1,2.17-1.48c1.52,0,2.13,1.11,2.13,2.74V23h4.22V16c0-3.73-2.08-5.46-4.85-5.46Z" style="fill:none"/></clipPath><clipPath id="9553f47e-3043-40fb-a86c-62b7546d74f0"><rect x="5.25" y="10.86" width="4.22" height="12.15" style="fill:none"/></clipPath><clipPath id="ea8ab395-5405-42ee-92d7-bd7d45427aef"><path d="M7.38,5A2.16,2.16,0,0,0,5,6.93Q5,7,5,7.1A2.14,2.14,0,0,0,7.17,9.21h.16a2.16,2.16,0,0,0,2.4-1.89q0-.1,0-.21A2.15,2.15,0,0,0,7.55,5H7.38" style="fill:none"/></clipPath></defs><title>Ресурс 1</title><g id="790c24b0-a532-45a8-93de-55a54cfdc63b" data-name="Слой 2"><g id="2f3de328-b480-48b1-8f0d-a768d26839b0" data-name="Слой 1"><g style="clip-path:url(#e5440f51-8bea-44af-bcb0-93210004f43a)"><rect x="6.8" y="5.57" width="22.86" height="22.43" style="fill:#d7d7d7"/></g><g style="clip-path:url(#9553f47e-3043-40fb-a86c-62b7546d74f0)"><rect x="0.25" y="5.86" width="14.22" height="22.15" style="fill:#d7d7d7"/></g><g style="clip-path:url(#ea8ab395-5405-42ee-92d7-bd7d45427aef)"><rect width="14.74" height="14.2" style="fill:#d7d7d7"/></g></g></g></svg>