<?xml version="1.0" encoding="UTF-8" standalone="no"?>
<svg width="200px" height="32px" viewBox="0 0 200 32" version="1.1" xmlns="http://www.w3.org/2000/svg" xmlns:xlink="http://www.w3.org/1999/xlink">
    <!-- Generator: Sketch 46 (44423) - http://www.bohemiancoding.com/sketch -->
    <title>ACI</title>
    <desc>Created with Sketch.</desc>
    <defs></defs>
    <g id="CLIENTS-BANNERS" stroke="none" stroke-width="1" fill="none" fill-rule="evenodd">
        <g id="ACI" transform="translate(-60.000000, -63.000000)" fill="#FFFFFF">
            <g id="Logo" transform="translate(60.000000, 63.000000)">
                <g id="ACI">
                    <path d="M65.4332864,0.146635368 C65.686025,0.496087637 65.9972926,0.817527387 66.1810172,1.20015649 C66.8905634,2.67809077 67.5077778,4.20219092 68.2580125,5.65837246 C68.97241,7.04491393 68.3035524,7.52550861 67.1129421,7.50344288 C63.9858685,7.44553991 60.8559781,7.44726135 57.7292175,7.51862285 C56.543615,7.5456964 55.3318779,7.71064163 54.187903,8.01971831 C51.8559781,8.64976526 50.3763224,10.1835681 49.8979186,12.5957746 C49.4980751,14.6120501 49.4957277,16.6361502 49.8836776,18.6519562 C50.401518,21.34241 52.1192019,22.8978091 54.7235837,23.4364632 C56.0135681,23.7031299 57.3562911,23.7865415 58.6778873,23.8123631 C61.4661502,23.8668232 64.2562911,23.8286385 67.0456495,23.829421 C67.2800782,23.8295775 67.5177934,23.814554 67.7484664,23.8463224 C68.4401721,23.941471 68.7365728,24.4262911 68.4913459,25.086072 C68.3467449,25.4754304 68.1478404,25.8444444 67.9738185,26.2230047 C67.3542567,27.570892 66.716385,28.9109546 66.1237402,30.2707355 C65.8614554,30.8726135 65.4836776,31.1471049 64.8109077,31.1419405 C61.7350078,31.1175274 58.657856,31.1749609 55.5830516,31.1106416 C52.072723,31.0372457 48.6188889,30.5723005 45.3857121,29.086072 C40.9868075,27.0636933 38.5350078,23.6170579 38.0386072,18.8103286 C37.7699061,16.2106416 37.7292175,13.5979656 38.2586385,11.0239437 C39.186964,6.51032864 41.9699061,3.5600939 46.1832081,1.8799687 C48.5761659,0.925665102 51.0839906,0.489201878 53.6420501,0.296557121 C54.0268701,0.267449139 54.4085603,0.197652582 54.7916588,0.146635368 L65.4332864,0.146635368 Z" id="Fill-1"></path>
                    <path d="M23.8057433,0.146635368 C24.4971362,0.753834116 24.5185759,0.898904538 24.0519092,1.90469484 C19.8340689,10.9971831 15.615759,20.0896714 11.3974491,29.1820031 C11.200266,29.6070423 10.9958842,30.0289515 10.8057433,30.457277 C10.6049609,30.9097027 10.2802347,31.1366197 9.77147105,31.1353678 C6.85097027,31.1280125 3.93046948,31.1416275 1.0101252,31.1264476 C0.0731924883,31.1215962 -0.237449139,30.5502347 0.185555556,29.6303599 C1.42546166,26.9338028 2.68023474,24.2442879 3.92906103,21.5519562 C7.06208138,14.7973396 10.1916588,8.04100156 13.3368858,1.29201878 C13.528748,0.880594679 13.844867,0.527073552 14.1030829,0.146635368 L23.8057433,0.146635368 Z" id="Fill-4"></path>
                    <path d="M81.7087167,0.146635368 C82.0573865,0.557902973 82.1683412,1.02222222 82.1675587,1.56901408 C82.1530047,10.9505477 82.1573865,20.3320814 82.1559781,29.7137715 C82.1558216,29.9475743 82.1688106,30.1877934 82.1223318,30.4140845 C82.0198279,30.9112676 81.7068388,31.1262911 81.072723,31.129421 C79.3267136,31.1377152 77.5807042,31.1325509 75.8346948,31.1325509 C74.9226448,31.1325509 74.0105947,31.1366197 73.0983881,31.1314554 C72.1201408,31.1256651 71.8664632,30.8685446 71.8647418,29.8660407 C71.8603599,27.5467919 71.8631768,25.2273865 71.8631768,22.9081377 C71.8631768,15.7937402 71.8684977,8.67934272 71.8531612,1.56510172 C71.8520657,1.01815336 71.9494053,0.549608764 72.3190454,0.146635368 L81.7087167,0.146635368 Z" id="Fill-7"></path>
                    <path d="M33.2723631,31.1321596 C31.8650078,31.1323161 30.4574961,31.1158842 29.0506103,31.1402973 C28.4512363,31.150626 28.087543,30.9235524 27.8346479,30.3751956 C25.9377778,26.264241 24.0279186,22.1592332 22.1060094,18.0598592 C21.8831612,17.5844288 21.9288576,17.1808294 22.1427856,16.7246479 C23.5678247,13.6855243 24.9762754,10.6387324 26.3900469,7.59444444 C26.5883255,7.16752739 26.7545227,6.707277 27.3485759,6.70524257 C27.9402817,6.70305164 28.1210329,7.15688576 28.3189984,7.58364632 C31.0892645,13.5556338 33.8576526,19.5284038 36.6263537,25.5010172 C37.2282316,26.7992958 37.8294836,28.0978873 38.4310485,29.3963224 C38.4966197,29.5379499 38.5731455,29.6758216 38.6261972,29.8219875 C38.9052269,30.5897496 38.5604695,31.1155712 37.7288576,31.1263693 C36.2435681,31.1459311 34.7578091,31.1320031 33.2723631,31.1321596" id="Fill-9"></path>
                    <path d="M142.4982,28.0740219 C141.332473,26.3264476 140.225274,24.6666667 139.021831,22.8625978 C138.821831,23.8630673 138.934194,24.7045383 138.914632,25.5364632 C138.893818,26.4223787 138.909937,27.3090767 138.909937,28.1954617 L138.909937,30.7954617 L137.000078,30.7954617 L137.000078,19.4511737 L139.087246,19.4511737 C140.201956,21.185446 141.338263,22.9535211 142.530125,24.8081377 C143.701017,22.9841941 144.823709,21.2352113 145.968779,19.4514867 L148.035915,19.4514867 L148.035915,30.7816901 L146.140767,30.7816901 L146.140767,22.971518 C146.080829,22.9471049 146.020892,22.9228482 145.960798,22.8985915 C144.830908,24.5876369 143.700861,26.2765258 142.4982,28.0740219" id="Fill-11"></path>
                    <path d="M163.892551,30.8071674 L162.002723,30.8071674 L162.002723,19.4577152 L163.811017,19.4577152 C165.762817,21.9883881 167.73011,24.5392488 169.697402,27.0901095 C169.742942,27.0764945 169.788326,27.0628795 169.833865,27.0492645 L169.833865,19.4667919 L171.789108,19.4667919 L171.789108,30.7646009 L170.10554,30.7646009 C168.121659,28.1955869 166.077371,25.5483255 164.032926,22.9010642 C163.986291,22.9204695 163.939343,22.9398748 163.892551,22.9592801 L163.892551,30.8071674 Z" id="Fill-13"></path>
                    <polygon id="Fill-15" points="153.081831 21.1799374 153.081831 24.1437872 158.663521 24.1437872 158.663521 25.9638185 153.099515 25.9638185 153.099515 29.0419092 159.481831 29.0419092 159.481831 30.7753991 151.07651 30.7753991 151.07651 19.4642879 159.430344 19.4642879 159.430344 21.1799374"></polygon>
                    <path d="M117.274304,26.2364319 L121.123912,26.2364319 C120.47759,24.7361189 119.863975,23.3117058 119.188858,21.7441002 C118.516401,23.3220344 117.902629,24.76241 117.274304,26.2364319 M125.124695,30.7897966 L123.03471,30.7897966 C122.668983,29.9383099 122.291674,29.0597496 121.897152,28.1412833 L116.499343,28.1412833 C116.114523,29.0273552 115.732989,29.905446 115.345509,30.7976213 L113.315618,30.7976213 C114.985102,26.9547418 116.628607,23.1717997 118.276651,19.3783725 L120.164757,19.3783725 C121.807167,23.1569327 123.44989,26.9367449 125.124695,30.7897966" id="Fill-17"></path>
                    <path d="M106.624429,21.2849296 L106.624429,25.3940063 C107.696103,25.3414241 108.719421,25.386338 109.706275,25.2174804 C110.839296,25.0237402 111.373099,24.1932238 111.300485,23.0710016 C111.237574,22.0958842 110.555884,21.3846166 109.454632,21.2996401 C108.52928,21.2282786 107.593912,21.2849296 106.624429,21.2849296 L106.624429,21.2849296 Z M104.60831,19.4165415 C106.274038,19.4165415 107.863709,19.3987011 109.452598,19.4282786 C109.887496,19.4362598 110.331941,19.5473709 110.751346,19.6778873 C112.323959,20.1674022 113.259484,21.3672457 113.331941,22.9386072 C113.415978,24.7645853 112.647903,26.1307825 111.041017,26.7199844 C110.275133,27.000892 109.423333,27.0783568 108.601737,27.1672457 C107.962457,27.2365728 107.309718,27.1811737 106.580141,27.1811737 L106.580141,30.7785133 L104.60831,30.7785133 L104.60831,19.4165415 Z" id="Fill-19"></path>
                    <path d="M192.729656,20.6987637 C192.349844,21.233349 192.020423,21.6971987 191.676917,22.1807668 C190.806182,21.6223944 189.95579,21.0907825 188.930751,21.0738811 C188.449218,21.0658998 187.94421,21.1391393 187.488654,21.291252 C187.016354,21.4489984 186.75579,21.8649609 186.735915,22.3817058 C186.716197,22.8995462 186.942019,23.3056495 187.413693,23.5155086 C187.909937,23.7363224 188.426526,23.9153521 188.943427,24.0849922 C189.634351,24.3117527 190.350626,24.4691862 191.026682,24.7322535 C192.442175,25.2829577 193.120579,26.276385 193.085837,27.6380438 C193.049218,29.0773239 192.299609,30.2101878 190.913693,30.6643349 C188.475665,31.4629264 186.314789,30.8319405 184.286463,29.1987637 C184.685524,28.7119092 185.05313,28.2633959 185.453599,27.774507 C185.744836,27.9787324 185.989593,28.161518 186.245149,28.3277152 C187.329343,29.0325665 188.491315,29.4267762 189.79507,29.1220814 C190.088654,29.0533803 190.39554,28.9161346 190.6259,28.7255243 C191.29554,28.1715336 191.252191,27.1838967 190.509468,26.7371049 C190.050313,26.460892 189.511346,26.3086228 188.996479,26.1355399 C188.209155,25.8710642 187.398983,25.6710642 186.621674,25.3817058 C185.394757,24.9248983 184.746714,24.0097183 184.728873,22.6968858 C184.710407,21.3499374 185.311815,20.3358529 186.515102,19.7256808 C187.766119,19.0914085 189.081299,19.1399218 190.400391,19.4823318 C191.239828,19.7003286 191.996792,20.0856182 192.729656,20.6987637" id="Fill-21"></path>
                    <path d="M118.275164,3.08242567 L118.275164,12.1473709 L117.088779,12.1473709 L117.088779,0.820923318 L118.286432,0.820923318 C120.572504,3.74330203 122.898013,6.71607199 125.344178,9.84314554 L125.344178,0.81372457 L126.596604,0.81372457 L126.596604,12.1282786 L125.585962,12.1282786 C123.248873,9.14815336 120.857637,6.09932707 118.466557,3.05034429 C118.402707,3.06114241 118.339014,3.07178404 118.275164,3.08242567" id="Fill-23"></path>
                    <path d="M158.978106,6.55067293 C160.341643,6.55067293 161.641487,6.56162754 162.940704,6.54206573 C163.22036,6.53784038 163.506588,6.448482 163.775446,6.35599374 C164.815665,5.99856025 165.382488,5.1656964 165.336792,4.09480438 C165.292504,3.05959311 164.692973,2.30106416 163.59,2.08760563 C162.077793,1.79511737 160.545556,1.95004695 158.978106,1.96209703 L158.978106,6.55067293 Z M157.680767,0.787762128 C159.600016,0.787762128 161.451815,0.712957746 163.294538,0.809358372 C165.024116,0.899812207 166.221455,1.93064163 166.552598,3.36632238 C166.948372,5.08212833 166.187027,6.548482 164.551346,7.21061033 C164.264178,7.32688576 163.96856,7.42250391 163.604397,7.55380282 C164.743052,9.08165884 165.852754,10.5708607 167.027089,12.1466041 L165.461518,12.1466041 C164.402363,10.7218779 163.317387,9.26241002 162.224116,7.79183099 L158.937574,7.79183099 L158.937574,12.1394053 L157.680767,12.1394053 L157.680767,0.787762128 Z" id="Fill-25"></path>
                    <polygon id="Fill-27" points="148.09975 1.87478873 148.09975 5.80092332 154.201471 5.80092332 154.201471 6.99544601 148.101941 6.99544601 148.101941 10.9913772 155.048263 10.9913772 155.048263 12.138169 146.849671 12.138169 146.849671 0.808122066 154.919311 0.808122066 154.919311 1.87478873"></polygon>
                    <path d="M132.889452,19.4367919 L135.105415,19.4367919 C134.963005,19.6934429 134.866448,19.8961033 134.744851,20.0820188 C133.575211,21.8699687 132.422942,23.6696557 131.216682,25.432723 C130.811831,26.0245853 130.644695,26.6148826 130.670047,27.3216119 C130.711049,28.4610485 130.681002,29.6031455 130.681002,30.7870266 L128.657371,30.7870266 C128.657371,30.4358529 128.658936,30.0813928 128.657058,29.7267762 C128.650955,28.6061189 128.875681,27.4169171 128.570986,26.3842097 C128.266604,25.3529108 127.435149,24.4762285 126.828263,23.5358529 C126.107762,22.4195775 125.378654,21.3086228 124.656901,20.1931299 C124.51903,19.9802973 124.397277,19.7571362 124.222629,19.4616745 L126.544851,19.4616745 C127.029358,20.2349139 127.551737,21.0701252 128.075837,21.9040845 C128.588044,22.719108 129.102128,23.5328795 129.679906,24.4494679 C130.778654,22.733349 131.835775,21.0826448 132.889452,19.4367919" id="Fill-29"></path>
                    <polygon id="Fill-31" points="183.09989 21.2583412 179.57892 21.2583412 179.57892 30.7838498 177.565931 30.7838498 177.565931 21.2996557 174.000673 21.2996557 174.000673 19.4520814 183.09989 19.4520814"></polygon>
                    <path d="M184.432926,2.37247261 C184.376275,2.36558685 184.319468,2.3585446 184.262817,2.35150235 C183.440438,4.19140845 182.618059,6.03131455 181.765947,7.93773083 L186.899906,7.93773083 C186.064851,6.05384977 185.248889,4.21316119 184.432926,2.37247261 M183.756088,0.672629108 L184.959844,0.672629108 C186.663912,4.45964006 188.37784,8.26809077 190.123067,12.1468075 L188.758122,12.1468075 C188.32698,11.1867136 187.891299,10.2166041 187.441377,9.21425665 L181.229171,9.21425665 C180.792707,10.1762285 180.35374,11.1435211 179.900219,12.1428951 L178.599906,12.1428951 C180.327606,8.29954617 182.034804,4.50158059 183.756088,0.672629108" id="Fill-33"></path>
                    <path d="M169.44651,9.62325509 C169.857465,9.91558685 170.18626,10.1717684 170.536182,10.3944601 C171.641972,11.09759 172.854804,11.31277 174.133834,11.0875743 C175.328983,10.8772457 176.044476,9.91934272 175.853552,8.87661972 C175.750736,8.31511737 175.439781,7.90228482 174.930548,7.69837246 C174.281408,7.43827856 173.602379,7.25220657 172.936182,7.03452269 C172.195806,6.79273865 171.43133,6.60682316 170.719593,6.29899844 C168.533052,5.35345853 168.681721,2.34766823 170.464038,1.25048513 C171.810516,0.421533646 173.241033,0.463317684 174.692207,0.838122066 C175.453396,1.03483568 176.142128,1.40729264 176.801909,2.0000939 C176.577653,2.31089202 176.358091,2.61527387 176.105665,2.96535211 C175.262942,2.35330203 174.402535,1.83233177 173.389703,1.79758998 C172.756056,1.77583725 172.086886,1.85471049 171.486729,2.05095462 C170.796588,2.27646322 170.423662,2.84485133 170.405978,3.61496088 C170.388764,4.35909233 170.722254,4.89555556 171.387199,5.15298905 C172.184538,5.46159624 173.020219,5.66973396 173.833991,5.93765258 C174.425853,6.13233177 175.0318,6.30525822 175.592207,6.57082942 C177.846041,7.63921753 177.487042,10.5556495 175.888451,11.6044757 C175.214272,12.0467293 174.476714,12.2708294 173.688138,12.3318623 C171.887199,12.4709859 170.119437,11.8279499 168.714272,10.5218466 C168.822723,10.3680125 168.928357,10.2007199 169.051674,10.0476682 C169.16482,9.90729264 169.296901,9.78241002 169.44651,9.62325509" id="Fill-35"></path>
                    <path d="M112.700203,0.800031299 L113.89989,0.800031299 C113.923991,0.955899844 113.972817,1.12647887 113.97313,1.2970579 C113.976573,3.35683881 113.98471,5.41677621 113.962332,7.47624413 C113.956698,7.99283255 113.902394,8.52241002 113.775321,9.02162754 C113.329468,10.7712363 112.231972,11.8652895 110.436041,12.2353991 C109.522582,12.4235055 108.619139,12.3986228 107.726025,12.1643505 C105.937293,11.69518 104.665462,10.209734 104.588466,8.22381847 C104.493787,5.77921753 104.565775,3.32788732 104.565775,0.820219092 L105.76374,0.820219092 C105.776886,1.02663537 105.803333,1.25214397 105.803803,1.47765258 C105.807246,3.30269171 105.805055,5.12773083 105.806307,6.95292645 C105.806463,7.23962441 105.796604,7.52788732 105.821487,7.81286385 C106.064523,10.6005008 108.053568,11.5487011 110.371565,11.0174022 C111.823208,10.6845383 112.659045,9.45543036 112.687058,7.70081377 C112.719296,5.69361502 112.698169,3.6856338 112.700203,1.67796557 C112.70036,1.39784038 112.700203,1.11755869 112.700203,0.800031299" id="Fill-37"></path>
                    <path d="M138.4823,12.2087793 C136.864617,8.3986072 135.270876,4.64492958 133.645681,0.817230047 L135.065399,0.817230047 C136.372128,3.98921753 137.696541,7.2043975 139.087621,10.5815493 C140.466495,7.24336463 141.789812,4.03960876 143.127058,0.802363067 L144.502332,0.802363067 C142.873224,4.64117371 141.271346,8.4158216 139.661643,12.2087793 L138.4823,12.2087793 Z" id="Fill-39"></path>
                    <polygon id="Fill-41" points="192.437371 0.793928013 193.645509 0.793928013 193.645509 10.9555869 199.998247 10.9555869 199.998247 12.1377465 192.437371 12.1377465"></polygon>
                    <polygon id="Fill-43" points="131.220501 12.1577465 130.013302 12.1577465 130.013302 0.805320814 131.220501 0.805320814"></polygon>
                    <path d="M195.442942,29.929421 C195.586761,30.0031299 195.807731,30.0766823 196.035743,30.0766823 C196.281127,30.0766823 196.411174,29.9749609 196.411174,29.8206573 C196.411174,29.6733959 196.298811,29.5892019 196.014617,29.4874804 C195.621815,29.3505477 195.36579,29.1331768 195.36579,28.7893584 C195.36579,28.3859155 195.70241,28.0773083 196.260313,28.0773083 C196.526823,28.0773083 196.72338,28.1333333 196.863599,28.1965571 L196.744194,28.6280125 C196.649671,28.5824726 196.481283,28.5158059 196.249671,28.5158059 C196.018216,28.5158059 195.905853,28.6209703 195.905853,28.743662 C195.905853,28.8945227 196.039343,28.9611894 196.344507,29.0769953 C196.761878,29.2312989 196.958279,29.4488263 196.958279,29.7821596 C196.958279,30.1784038 196.653114,30.51518 196.004131,30.51518 C195.734022,30.51518 195.467355,30.4450704 195.334178,30.3713615 L195.442942,29.929421 Z" id="Fill-45"></path>
                    <path d="M199.318466,29.5750861 C199.307981,29.2910485 199.29734,28.94723 199.29734,28.6034116 L199.287011,28.6034116 C199.213302,28.905133 199.115023,29.2419092 199.023787,29.519061 L198.73615,30.4415962 L198.318779,30.4415962 L198.066197,29.5259468 C197.989045,29.2489515 197.908294,28.9121753 197.852269,28.6034116 L197.845227,28.6034116 C197.831142,28.9226604 197.820657,29.2874491 197.802973,29.5821283 L197.761033,30.4800939 L197.26651,30.4800939 L197.417371,28.1157746 L198.129264,28.1157746 L198.360876,28.905133 C198.434585,29.1786854 198.508138,29.4733646 198.56072,29.7505164 L198.571362,29.7505164 C198.637872,29.476964 198.718623,29.1646009 198.795775,28.9015336 L199.048357,28.1157746 L199.746322,28.1157746 L199.876213,30.4800939 L199.353678,30.4800939 L199.318466,29.5750861 Z" id="Fill-46"></path>
                </g>
            </g>
        </g>
    </g>
</svg>