<?xml version="1.0" encoding="UTF-8" standalone="no"?>
<svg width="200px" height="38px" viewBox="0 0 200 38" version="1.1" xmlns="http://www.w3.org/2000/svg" xmlns:xlink="http://www.w3.org/1999/xlink">
    <!-- Generator: Sketch 46 (44423) - http://www.bohemiancoding.com/sketch -->
    <title>Advcash</title>
    <desc>Created with Sketch.</desc>
    <defs></defs>
    <g id="CLIENTS-BANNERS" stroke="none" stroke-width="1" fill="none" fill-rule="evenodd">
        <g id="Advcash" transform="translate(-60.000000, -57.000000)" fill="#FFFFFF">
            <g id="Logo" transform="translate(60.000000, 57.000000)">
                <g id="Advcash">
                    <polygon id="Fill-1" points="151.080756 12.5368262 156.676725 18.132796 194.78403 18.132796 199.992594 12.5368262"></polygon>
                    <polygon id="Fill-2" points="158.420202 21.1460285 164.016171 26.7419983 187.444551 26.7419983 192.653115 21.1460285"></polygon>
                    <polygon id="Fill-3" points="175.038438 0.0668010076 157.977145 36.8202855 165.396289 36.8202855 175.038438 15.8525273 185.190747 36.8202855 192.897045 36.8202855"></polygon>
                    <path d="M148.156037,37.022267 L142.300621,37.022267 C142.300621,34.6066499 142.300789,32.3406549 142.300621,30.0746599 C142.300285,27.8770109 142.316742,25.679026 142.295919,23.481377 C142.652594,19.0090008 139.999698,18.0513182 134.401881,18.792712 L134.401881,36.8664316 L128.559563,36.8664316 L128.559563,2.93293031 L134.282317,2.93293031 L134.282317,13.4914526 C137.053602,13.4914526 139.45461,13.2996809 141.812796,13.5362888 C145.364265,13.8924601 147.91288,16.0753317 148.078119,19.4348615 C148.360571,25.174576 148.156037,30.9383039 148.156037,37.022267" id="Fill-4"></path>
                    <path d="M44.2551134,13.9537364 L50.1783711,13.9537364 C51.9726616,19.9055416 53.7557011,25.8202351 55.5387406,31.7349286 C55.7689673,31.7725441 55.999194,31.8103275 56.2294207,31.8481108 C58.0253904,25.895466 59.8213602,19.9429891 61.6232074,13.9713686 L67.4982704,13.9713686 C64.6619983,21.743157 61.9437783,29.1911839 59.192309,36.7305626 L52.6326113,36.7305626 C49.9073384,29.3211587 47.1395802,21.7960537 44.2551134,13.9537364" id="Fill-6"></path>
                    <path d="M85.7534509,14.8656087 C85.1415281,16.1238791 84.6476574,17.1396641 84.0753652,18.3164903 C80.9678925,17.6125441 77.8137364,17.1771117 76.1428715,20.5388245 C74.5183543,23.8070025 74.4708312,27.3119563 76.3853568,30.4998657 C78.1170109,33.3833249 80.9064316,33.3121243 83.9606717,32.1532662 C84.6001343,33.5312678 85.1596641,34.7371453 85.7047523,35.9117884 C79.1358186,39.9915533 71.357817,37.1391604 69.6102099,29.9020487 C68.9309488,27.0891184 68.9381696,23.8499916 69.5910663,21.0266499 C71.2676406,13.7781192 78.7633585,10.9509152 85.7534509,14.8656087" id="Fill-8"></path>
                    <path d="M36.3513518,18.2002687 C32.1431234,16.9982536 29.8856927,17.5774307 28.4017296,20.2318388 C26.6015617,23.4519899 26.5461461,26.8916205 28.0324601,30.1980856 C29.5458102,33.5645004 33.0996306,34.3750798 36.3513518,32.2896054 L36.3513518,18.2002687 Z M36.5535348,13.9136188 L36.5535348,3.44728799 L41.5318724,3.44728799 L41.5318724,35.8350294 C37.1990428,37.7720571 32.6307809,38.2529975 28.0034089,36.4716373 C23.3731822,34.6891016 21.3402687,29.8592107 22.0311167,22.9364568 C22.4823342,18.4145424 25.5624349,14.7319228 29.9256591,13.9725609 C31.9181024,13.6257935 34.0208732,13.9136188 36.5535348,13.9136188 L36.5535348,13.9136188 Z" id="Fill-11"></path>
                    <path d="M13.886885,33.7498405 L13.886885,25.2697397 C11.4380185,25.7352309 9.39939547,25.9540386 7.47244332,26.5401008 C5.8009068,27.048581 4.85598657,28.4067674 5.01467674,30.2470697 C5.18528967,32.2233921 6.42441646,33.4495886 8.28890008,33.6996306 C10.0383543,33.9342233 11.8440638,33.7498405 13.886885,33.7498405 M18.8588413,35.8709152 C13.8857095,37.725827 9.17655751,38.1988749 4.40762385,36.4966079 C1.61921075,35.5013098 0.108211587,33.2747775 0.00527287993,30.4181864 C-0.0990092359,27.5223006 1.33390428,25.2500924 4.15439127,24.2551301 C6.09242653,23.5715029 8.14700252,23.2055919 10.1637951,22.7626029 C11.3607725,22.4997985 12.5854576,22.3629387 13.70267,22.1847691 C14.0788245,18.5102099 12.7639631,16.9822502 9.35506297,16.8930814 C8.33474391,16.8663812 7.30199832,17.1275063 6.28235097,17.3004702 C5.26287154,17.4734341 4.25246012,17.7013098 2.87244332,17.9785558 C2.51560034,17.1785558 2.13608732,16.328178 1.78193115,15.5340554 C2.28940386,15.0643661 2.49813602,14.735063 2.79099916,14.6205374 C6.46891688,13.1825861 10.2885642,13.2830059 14.0529639,13.9718388 C16.9344081,14.4992947 18.7337364,16.6410243 18.8166919,19.5926616 C18.9661461,24.8942569 18.8588413,30.203073 18.8588413,35.8709152" id="Fill-13"></path>
                    <path d="M101.392393,33.7498405 L101.392393,25.2697397 C98.9435264,25.7352309 96.9049034,25.9540386 94.9781192,26.5401008 C93.3064148,27.048581 92.3614945,28.4067674 92.5203526,30.2470697 C92.6907976,32.2233921 93.9299244,33.4495886 95.7944081,33.6996306 C97.5440302,33.9342233 99.3497397,33.7498405 101.392393,33.7498405 M106.364517,35.8709152 C101.391217,37.725827 96.6820655,38.1988749 91.9132997,36.4966079 C89.1247187,35.5013098 87.6137196,33.2747775 87.5107809,30.4181864 C87.4064987,27.5223006 88.8395802,25.2500924 91.6598992,24.2551301 C93.5979345,23.5715029 95.6525105,23.2055919 97.6693031,22.7626029 C98.8664484,22.4997985 100.090966,22.3629387 101.208178,22.1847691 C101.5845,18.5102099 100.269471,16.9822502 96.8607389,16.8930814 C95.8402519,16.8663812 94.8075063,17.1275063 93.7878589,17.3004702 C92.7683795,17.4734341 91.758136,17.7013098 90.3779513,17.9785558 C90.0211083,17.1785558 89.6415953,16.328178 89.2874391,15.5340554 C89.7949118,15.0643661 90.0038119,14.735063 90.2965071,14.6205374 C93.9745928,13.1825861 97.7940722,13.2830059 101.558472,13.9718388 C104.439916,14.4992947 106.239244,16.6410243 106.322368,19.5926616 C106.471654,24.8942569 106.364517,30.203073 106.364517,35.8709152" id="Fill-16"></path>
                    <path d="M126.6333,30.0935013 C126.6333,31.1341394 126.417683,32.1109656 125.989303,33.0201175 C125.557733,33.9317884 124.937582,34.72356 124.128682,35.3976154 C123.31995,36.0718388 122.337246,36.6033249 121.183762,36.9935852 C120.030445,37.3838455 118.71827,37.5788077 117.244215,37.5788077 C115.896104,37.5788077 114.544971,37.4374139 113.193837,37.1536188 C111.845726,36.8698237 110.593501,36.4557179 109.440017,35.9116373 L110.656306,31.4767086 C111.513233,31.8795634 112.483846,32.2283459 113.562435,32.52356 C114.643879,32.8199496 115.809286,32.9675567 117.061511,32.9675567 C118.092074,32.9675567 118.93691,32.7838455 119.602065,32.4172628 C120.26403,32.050848 120.593669,31.4543745 120.593669,30.6263308 C120.593669,30.0347271 120.306012,29.4970277 119.730865,29.0117212 C119.152695,28.5264148 118.103997,28.0123929 116.58225,27.4683123 C114.176541,26.594089 112.420873,25.5935852 111.318438,24.4704954 C110.212981,23.3474055 109.661847,21.9102939 109.661847,20.1593283 C109.661847,17.8656255 110.440688,16.1160034 111.998539,14.9091184 C113.55639,13.7034089 115.710378,13.0992107 118.460672,13.0992107 C119.859664,13.0992107 121.195852,13.2481612 122.472091,13.5432074 C123.748329,13.839597 124.826751,14.223644 125.710546,14.6965239 L124.679983,19.060084 C123.820202,18.6585726 122.882502,18.3334677 121.863862,18.0844332 C120.84539,17.8355668 119.79686,17.7118052 118.71827,17.7118052 C117.807439,17.7118052 117.079479,17.8594123 116.528346,18.1558018 C115.974022,18.450848 115.698455,18.9537867 115.698455,19.6629387 C115.698455,19.9942569 115.746314,20.27822 115.845223,20.5146599 C115.944131,20.750932 116.120789,20.9761209 116.378556,21.1887154 C116.636154,21.4013098 116.998539,21.6139043 117.466045,21.8278421 C117.930361,22.0404366 118.520453,22.2881276 119.233636,22.5719228 C120.26403,22.9746096 121.231788,23.4011419 122.139597,23.8501763 C123.047238,24.2992107 123.835147,24.8194458 124.49728,25.4110495 C125.159412,26.0024853 125.680655,26.6767086 126.061175,27.4333837 C126.441528,28.1900588 126.6333,29.0767086 126.6333,30.0935013" id="Fill-18"></path>
                </g>
            </g>
        </g>
    </g>
</svg>