<?xml version="1.0" encoding="UTF-8" standalone="no"?>
<svg width="200px" height="25px" viewBox="0 0 200 25" version="1.1" xmlns="http://www.w3.org/2000/svg" xmlns:xlink="http://www.w3.org/1999/xlink">
    <!-- Generator: Sketch 46 (44423) - http://www.bohemiancoding.com/sketch -->
    <title>AdvisorEng</title>
    <desc>Created with Sketch.</desc>
    <defs></defs>
    <g id="CLIENTS-BANNERS" stroke="none" stroke-width="1" fill="none" fill-rule="evenodd">
        <g id="AdvisorEngine" transform="translate(-60.000000, -57.000000)" fill="#FFFFFF">
            <g id="Logo" transform="translate(60.000000, 57.000000)">
                <g id="AdvisorEng">
                    <path d="M163.581361,12.4610756 C163.55032,11.5330973 163.46659,10.6301702 163.057876,9.80076242 C162.519959,8.70899932 161.675439,8.01818924 160.419346,7.95406399 C159.20369,7.89211709 158.230374,8.37489449 157.651749,9.44678012 C156.702941,11.2045745 156.605868,13.0571273 157.445214,14.8659769 C158.35563,16.8275834 160.753587,17.2313955 162.348686,15.7739415 C163.332621,14.8748264 163.568291,13.7011028 163.581361,12.4610756 M155.565705,23.5051872 L155.565705,20.9488904 C155.71111,21.0004901 155.834867,21.0269027 155.941198,21.0849013 C157.27966,21.8146494 158.719687,22.0308509 160.218666,21.9175766 C162.290824,21.7612798 163.38708,20.6734649 163.553179,18.5965419 C163.596338,18.0575357 163.559714,17.5122668 163.559714,16.9386794 C163.483744,16.9778897 163.408591,16.9915044 163.379047,17.0357522 C161.835956,19.3348673 158.567611,19.2933424 156.695725,17.9600545 C155.254336,16.9333696 154.50403,15.52629 154.289462,13.7968142 C154.027651,11.6869435 154.256242,9.67223962 155.483472,7.87046971 C156.731804,6.03724983 158.840585,5.26420694 160.971967,5.80974813 C161.839496,6.0319401 162.543513,6.49497617 163.100082,7.19000681 C163.223975,7.34480599 163.342423,7.50396188 163.55563,7.78088496 L163.55563,5.88340368 L166.139292,5.88340368 C166.149775,6.09007488 166.168291,6.28762423 166.168428,6.48530973 C166.169789,10.3879646 166.177141,14.2906195 166.15985,18.1934105 C166.157127,18.8008986 166.095725,19.4206399 165.964207,20.0131518 C165.492049,22.1422192 164.125677,23.479047 162.066453,24.0451464 C159.872172,24.64855 157.712335,24.3800681 155.565705,23.5051872" id="Fill-1"></path>
                    <path d="M53.2447651,12.5817971 C52.3212798,9.6363921 51.4097754,6.72965283 50.4525255,3.67628319 C49.4709054,6.74422056 48.5404765,9.65177672 47.5916678,12.6174677 C49.4037849,12.6174677 51.1240027,12.6180123 52.8442206,12.6161062 C52.9543635,12.6161062 53.0646426,12.5978625 53.2447651,12.5817971 L53.2447651,12.5817971 Z M52.2689993,1.4708373 C54.2892852,7.39405037 56.2890129,13.2570865 58.315017,19.1967733 L55.4036487,19.1967733 C54.9497345,17.7928251 54.4982709,16.3967733 54.030742,14.9510279 L46.8255684,14.9510279 C46.365936,16.3370048 45.8921443,17.7658679 45.4111368,19.2162423 L42.528904,19.2162423 C44.5828182,13.2738325 46.6194418,7.38111641 48.6620558,1.4708373 L52.2689993,1.4708373 Z" id="Fill-3"></path>
                    <path d="M68.5317903,12.5187747 C68.4505106,11.6517903 68.3648741,10.8169367 68.000953,10.0464806 C67.4035398,8.78167461 66.4117086,8.02524166 64.9908781,7.95784888 C63.6104833,7.8924983 62.5568414,8.52408441 61.957386,9.74137509 C61.0939415,11.4945405 61.0388019,13.3330701 61.8386658,15.1198639 C62.4428863,16.4692172 63.5154527,17.2447107 65.066712,17.1243567 C66.5488087,17.0093125 67.5607897,16.1981484 68.0473792,14.8240163 C68.3072839,14.0903199 68.3764466,13.2893669 68.5317903,12.5187747 M68.3002042,17.4512457 C67.2507828,18.9082914 65.803676,19.5081552 64.0563649,19.4276923 C62.4217835,19.352403 61.0910824,18.6802451 60.1097345,17.3510415 C58.8747447,15.6782029 58.5132743,13.7782709 58.6701157,11.7517223 C58.7784888,10.35145 59.1515317,9.03477195 59.9937372,7.88078965 C61.3233492,6.05914227 63.5300204,5.2626821 65.7089176,5.81611981 C66.5697754,6.03477195 67.289857,6.47929204 67.8840027,7.13415929 C68.032403,7.29767189 68.1763104,7.46526889 68.4050374,7.72530973 L68.4050374,0.596242342 L70.9949626,0.596242342 L70.9949626,19.2078148 L68.4355344,19.2078148 L68.4355344,17.4926344 C68.3904697,17.4788836 68.3452689,17.4651327 68.3002042,17.4512457" id="Fill-5"></path>
                    <polygon id="Fill-7" points="130.13002 3.68411164 130.13002 9.20691627 133.402042 9.20691627 136.632131 9.20691627 136.632131 11.4751259 130.134922 11.4751259 130.134922 16.975194 137.639755 16.975194 137.639755 19.1980667 127.411709 19.1980667 127.411709 1.48343091 137.498026 1.48343091 137.498026 3.68411164"></polygon>
                    <path d="M113.499605,12.5500885 C113.520436,11.6541048 113.370265,10.7257182 112.976528,9.83817563 C112.426222,8.59787611 111.477822,7.9500885 110.129013,7.86853642 C108.701511,7.7822192 107.622546,8.33456773 106.923975,9.59760381 C106.175167,10.95145 106.098652,12.4001906 106.334867,13.8860994 C106.45386,14.6344997 106.753792,15.3180939 107.198176,15.9330701 C108.557195,17.8140776 111.422954,17.7382437 112.682859,15.7906603 C113.308455,14.8234717 113.516624,13.7492716 113.499605,12.5500885 M116.281089,12.5224506 C116.257808,13.6762968 116.084084,14.7917495 115.608523,15.8408986 C114.735684,17.7661538 113.305868,19.0410347 111.17966,19.3649285 C109.134187,19.6765691 107.185242,19.4406263 105.585242,17.9496801 C104.465024,16.9057046 103.830442,15.5935194 103.621048,14.0865078 C103.34889,12.1280327 103.524248,10.2370865 104.609476,8.51741321 C105.775303,6.67003404 107.447325,5.68528251 109.641607,5.68106195 C110.360735,5.67983662 111.103281,5.72503744 111.79518,5.90366236 C114.239837,6.53484003 115.50083,8.28895848 116.046916,10.6377672 C116.189598,11.2509735 116.206481,11.8934513 116.281089,12.5224506" id="Fill-9"></path>
                    <path d="M190.896065,11.5003268 L197.497971,11.5003268 C197.37966,10.8530837 197.334323,10.2605718 197.157059,9.71053778 C196.834527,8.70917631 196.133097,8.06914908 195.075643,7.88562287 C193.566181,7.62353982 192.210157,8.28752893 191.528332,9.67622873 C191.254268,10.2342954 191.113764,10.857985 190.896065,11.5003268 M199.760054,13.6078829 L191.011246,13.6078829 C191.184561,14.9359973 191.784697,15.9001906 192.880953,16.5550579 C193.725882,17.0597549 194.662301,17.2096528 195.624997,17.1976719 C196.725473,17.183921 197.785922,16.9765691 198.753928,16.4150987 C198.82772,16.3723485 198.910497,16.3452553 199.051818,16.2834445 L199.051818,18.5105378 C198.482178,18.9225187 197.783199,19.0906603 197.069789,19.2122396 C195.715262,19.4428727 194.358421,19.46629 193.023227,19.1150306 C190.360735,18.414418 188.589871,16.2006671 188.383063,13.3154391 C188.27646,11.8293941 188.425813,10.3704425 189.062437,8.99808033 C190.465977,5.9716678 194.28599,4.73109598 197.215194,6.34157931 C198.672512,7.14294078 199.451409,8.42585432 199.765092,10.0078829 C199.995589,11.1705786 200.026222,12.3474336 199.760054,13.6078829" id="Fill-11"></path>
                    <path d="M186.125664,19.2147039 L183.554527,19.2147039 L183.554527,18.4479238 C183.554527,16.0201498 183.556569,13.5923758 183.552349,11.1644656 C183.551804,10.8479238 183.526753,10.5307012 183.499387,10.2149762 C183.326481,8.21756297 181.485092,7.5036079 179.904561,8.11708645 C178.592512,8.62641253 177.942682,9.67052417 177.745813,11.019469 C177.680599,11.4664398 177.663581,11.9234854 177.661675,12.3761743 C177.652961,14.3956433 177.657726,16.4149762 177.657726,18.4344452 L177.657726,19.2111641 L175.11096,19.2111641 L175.11096,5.86834581 L177.636896,5.86834581 L177.636896,7.8228727 C177.677332,7.83376447 177.717767,7.84465623 177.758203,7.85541184 C177.831858,7.7586113 177.911641,7.66589517 177.978216,7.56446562 C178.773724,6.35262083 179.920899,5.75248468 181.343907,5.69121852 C181.904561,5.66712049 182.48482,5.68795099 183.030633,5.80612662 C184.723758,6.17263445 185.665351,7.3059224 186.026413,8.95248468 C186.118039,9.37004765 186.151396,9.80789653 186.153029,10.2366236 C186.164329,13.0728387 186.159973,15.9090538 186.158884,18.7452689 C186.158747,18.8792376 186.140368,19.0132063 186.125664,19.2147039" id="Fill-14"></path>
                    <path d="M140.898788,5.85395507 L143.419006,5.85395507 L143.419006,7.84496937 C143.459033,7.8528659 143.499061,7.86062628 143.538952,7.8685228 C143.627583,7.7466712 143.720163,7.6274064 143.804438,7.50255956 C144.584969,6.34571818 145.699605,5.77498979 147.066385,5.69180395 C147.583472,5.66035398 148.118666,5.65640572 148.623907,5.75293397 C150.50192,6.11168142 151.742355,7.51426821 151.871014,9.42958475 C151.936365,10.4012662 151.921253,11.3790742 151.924656,12.3541593 C151.931736,14.3732199 151.926835,16.3924166 151.926835,18.4114772 L151.926835,19.2014023 L149.317168,19.2014023 L149.317168,18.4327161 C149.316896,16.0506875 149.317032,13.6685228 149.316351,11.2864942 C149.316351,11.0369367 149.316351,10.7873792 149.308863,10.5379578 C149.279047,9.54993873 148.970538,8.68567733 148.044057,8.21311096 C147.059033,7.71045609 146.064343,7.81297481 145.130647,8.3929612 C144.250048,8.94 143.760191,9.76532335 143.574078,10.7647788 C143.487488,11.229857 143.450456,11.7100477 143.447461,12.1838393 C143.434527,14.2708373 143.442015,16.3579714 143.442015,18.4451055 L143.442015,19.2146086 L140.898788,19.2146086 L140.898788,5.85395507 Z" id="Fill-16"></path>
                    <path d="M72.8615793,5.86285909 L75.6019469,5.86285909 C76.7683186,9.52535058 77.94,13.2047243 79.1073247,16.8703472 C80.3032403,13.2218788 81.5089585,9.54332199 82.7164466,5.85918312 L85.4338053,5.85918312 C83.810388,10.3339278 82.2022192,14.7670116 80.5875153,19.2179306 L77.5994963,19.2179306 C76.0222328,14.772049 74.451096,10.3431858 72.8615793,5.86285909" id="Fill-18"></path>
                    <path d="M101.323485,6.27123213 L101.323485,8.49206263 C100.513683,8.29955071 99.7368278,8.05448604 98.9413206,7.946113 C98.3701838,7.8682369 97.7632403,7.91234854 97.1919673,8.01323349 C96.6028591,8.11724983 96.1622873,8.49356025 96.0506467,9.12746086 C95.9373724,9.77089176 96.1561607,10.3104425 96.7139551,10.6472703 C97.2929884,10.9968958 97.9151804,11.2740912 98.508373,11.6015248 C99.2793737,12.0272566 100.067257,12.430388 100.800136,12.9154799 C102.654187,14.1425732 102.472294,17.4235807 100.526889,18.5510143 C99.9507148,18.884983 99.2913547,19.1572771 98.6388019,19.2607488 C97.1474472,19.4969639 95.6540504,19.3988019 94.2078965,18.9063581 C93.9543907,18.8199047 93.7113683,18.7029544 93.4465623,18.5929476 L93.4465623,16.1698026 C93.7138189,16.3006399 93.9262083,16.4031586 94.1376447,16.5078557 C95.150034,17.0095575 96.2206943,17.277631 97.3507148,17.2482233 C97.7067393,17.2391014 98.0784207,17.1749762 98.4113002,17.0512185 C99.4849558,16.6518993 99.7518039,15.5214704 98.9528931,14.7039074 C98.6431586,14.3869571 98.2502383,14.1315453 97.8558203,13.9217427 C97.3174949,13.6355616 96.7202178,13.4585705 96.1876106,13.1635398 C95.5776719,12.825759 94.9394146,12.4857999 94.4381212,12.0143227 C92.6778761,10.3585024 93.01484,7.59281144 95.1236215,6.42262764 C95.7217155,6.09070116 96.4265487,5.88280463 97.1068754,5.78164738 C98.5365555,5.56912185 99.9477195,5.73345133 101.323485,6.27123213" id="Fill-20"></path>
                    <path d="M124.995657,5.80954391 L124.995657,8.24752893 C124.603145,8.20042206 124.247801,8.14160654 123.890007,8.11791695 C122.981634,8.05760381 122.258557,8.42628999 121.69341,9.12063989 C121.007638,9.96298162 120.696678,10.9394282 120.694772,12.0177127 C120.690824,14.1497754 120.692321,16.2819741 120.691641,18.4143091 C120.691504,18.6620967 120.691641,18.9098843 120.691641,19.2054595 L118.135344,19.2054595 L118.135344,5.8859224 L120.666726,5.8859224 L120.666726,7.84085773 C121.20968,7.14623553 121.68143,6.4352757 122.495997,6.07053778 C123.28143,5.71886998 124.091096,5.593887 124.995657,5.80954391" id="Fill-22"></path>
                    <polygon id="Fill-24" points="171.827093 19.1950987 169.260858 19.1950987 169.260858 5.87066031 171.827093 5.87066031"></polygon>
                    <polygon id="Fill-26" points="90.4300885 19.2088496 87.9066031 19.2088496 87.9066031 5.88835943 90.4300885 5.88835943"></polygon>
                    <path d="M172.159224,1.75697754 C172.156365,2.66044929 171.413138,3.37835262 170.493737,3.36569095 C169.611096,3.35371001 168.90599,2.63771273 168.903404,1.75057862 C168.900681,0.832675289 169.62757,0.102246426 170.53744,0.108645337 C171.462423,0.115180395 172.162083,0.826276378 172.159224,1.75697754" id="Fill-27"></path>
                    <path d="M89.1895167,0.108577263 C90.1177672,0.123144997 90.8008169,0.836147039 90.7852961,1.77406399 C90.7700477,2.69251191 90.0367597,3.38849558 89.1098707,3.36412526 C88.2119809,3.34043567 87.549081,2.64404357 87.5565691,1.73253914 C87.5643295,0.788904016 88.2630361,0.0940095303 89.1895167,0.108577263" id="Fill-28"></path>
                    <polygon id="Fill-29" points="-2.72294078e-05 20.6554255 4.17519401 20.6554255 15.9745133 3.36475153 20.7851327 3.36475153 18.334486 0.108386658 14.2500749 0.108386658"></polygon>
                    <polygon id="Fill-30" points="34.0367325 20.6554255 16.4284275 20.6554255 18.7882641 17.2064125 34.0367325 17.2064125"></polygon>
                    <polygon id="Fill-31" points="34.0367325 12.1064125 16.4284275 12.1064125 18.7882641 8.65739959 34.0367325 8.65739959"></polygon>
                    <polygon id="Fill-32" points="34.0367325 0.0119945541 21.783499 0.0119945541 24.1433356 3.46100749 34.0367325 3.46100749"></polygon>
                </g>
            </g>
        </g>
    </g>
</svg>