<?xml version="1.0" encoding="UTF-8" standalone="no"?>
<svg width="200px" height="52px" viewBox="0 0 200 52" version="1.1" xmlns="http://www.w3.org/2000/svg" xmlns:xlink="http://www.w3.org/1999/xlink">
    <!-- Generator: Sketch 46 (44423) - http://www.bohemiancoding.com/sketch -->
    <title>EmergSys</title>
    <desc>Created with Sketch.</desc>
    <defs></defs>
    <g id="CLIENTS-BANNERS" stroke="none" stroke-width="1" fill="none" fill-rule="evenodd">
        <g id="Emergent-Systems" transform="translate(-60.000000, -57.000000)" fill="#FFFFFF">
            <g id="Logo" transform="translate(60.000000, 57.000000)">
                <g id="EmergSys">
                    <polygon id="Fill-1" points="7.98297872 22.9608983 0 47.9954137 9.23356974 47.9954137 10.8316785 42.9854846 6.92293144 42.9854846 8.678487 37.4809929 12.0047281 37.4809929 13.5234043 32.7183452 10.1971631 32.7183452 11.7106383 27.9713002 15.2652482 27.9713002 16.8624113 22.9608983"></polygon>
                    <path d="M22.2026478,27.4761229 L21.4910638,29.4297872 C22.1345626,28.6539007 22.7922459,28.0742317 23.4641135,27.6846336 C24.1355083,27.2983452 24.8210875,27.1049645 25.5213239,27.1049645 C26.8872813,27.1049645 27.7151773,27.8808511 28.0050118,29.4297872 C28.6825532,28.6539007 29.3525296,28.0742317 30.0163593,27.6846336 C30.6792435,27.2983452 31.3397636,27.1049645 31.9974468,27.1049645 C32.8660047,27.1049645 33.5024113,27.3631206 33.9071395,27.878487 C34.3123404,28.3933806 34.475461,29.0250591 34.3974468,29.772104 C34.3194326,30.5196217 34.0125768,31.7338061 33.4764066,33.4141844 L28.8267612,47.9952719 L23.8683688,47.9952719 L28.133617,34.6198582 C28.6924823,32.8676123 28.9898818,31.7825059 29.0262884,31.3654846 C29.0622222,30.9479905 28.903357,30.7385343 28.5492199,30.7385343 C28.1865721,30.7385343 27.8868085,30.9451537 27.6499291,31.3574468 C27.4130496,31.76974 27.0135225,32.8572104 26.4513475,34.6198582 L22.1860993,47.9952719 L17.2277069,47.9952719 L21.3846809,34.9602837 C22.0253428,32.9498818 22.3700236,31.7437352 22.4182506,31.3423168 C22.4664775,30.9399527 22.3090307,30.7385343 21.946383,30.7385343 C21.7189598,30.7385343 21.4910638,30.8444444 21.2636407,31.055792 C21.0357447,31.2676123 20.8650591,31.5248227 20.7515839,31.8288416 C20.6371631,32.1333333 20.4225059,32.7801418 20.1071395,33.76974 L15.5704965,47.9952719 L10.612104,47.9952719 L17.1558392,27.4761229 L22.2026478,27.4761229 Z" id="Fill-2"></path>
                    <path d="M41.2566903,34.7594799 L41.7347045,33.2592435 C42.0737116,32.1977778 42.2458156,31.5121986 42.2514894,31.2029787 C42.2576359,30.8932861 42.1172104,30.7386761 41.8302128,30.7386761 C41.4760757,30.7386761 41.2150827,30.8701182 41.0467612,31.1330024 C40.8789125,31.3963593 40.6103546,32.1051064 40.2420331,33.2592435 L39.7640189,34.7594799 L41.2566903,34.7594799 Z M45.3143735,38.0989598 L38.6987707,38.0989598 L37.2836407,42.5372577 C36.9881324,43.4649173 36.8519622,44.063026 36.8760757,44.3306383 C36.9001891,44.5991962 37.0685106,44.7330024 37.3805674,44.7330024 C37.7682742,44.7330024 38.0845863,44.5552246 38.3285579,44.199669 C38.5725296,43.8436407 38.8571631,43.1556974 39.1829314,42.1353664 L40.0458156,39.4289835 L44.89026,39.4289835 L44.4070449,40.9443499 C44.0027896,42.212435 43.6264303,43.1864303 43.2789125,43.8672813 C42.9313948,44.5471868 42.3938061,45.2739007 41.6666194,46.0474232 C40.9394326,46.8204728 40.1451064,47.4001418 39.2841135,47.7869031 C38.4231206,48.1731915 37.4358865,48.3665721 36.3228842,48.3665721 C35.2434515,48.3665721 34.3517258,48.1760284 33.6467612,47.7944681 C32.9417967,47.4133806 32.4656738,46.8899764 32.2183924,46.2252009 C31.9706383,45.5604255 31.8860047,44.8285106 31.9635461,44.0289835 C32.0410875,43.2304019 32.3228842,42.068227 32.8098818,40.5424586 L34.718156,34.5580615 C35.2897872,32.7646809 35.9394326,31.3495508 36.6661466,30.313617 C37.3928605,29.2776832 38.2949882,28.4843026 39.3734752,27.9325296 C40.4514894,27.3812293 41.5767849,27.1051064 42.7488889,27.1051064 C44.1819858,27.1051064 45.2590544,27.4379669 45.9786761,28.1027423 C46.6982979,28.7675177 47.0708747,29.6483688 47.0959338,30.7467139 C47.1209929,31.8445863 46.8165012,33.3883215 46.1819858,35.3779196 L45.3143735,38.0989598 Z" id="Fill-4"></path>
                    <path d="M55.4817494,27.4761229 L54.4188652,30.1744681 C55.7772577,28.2416076 57.1786761,27.2184397 58.6231206,27.1049645 L56.3200473,34.3262411 C55.3843499,34.3262411 54.6477069,34.4808511 54.110591,34.7905437 C53.5734752,35.0992908 53.166383,35.5295508 52.8893144,36.0813239 C52.6122459,36.6326241 52.1564539,37.9035461 51.5219385,39.8931442 L48.938487,47.9952719 L43.8283215,47.9952719 L50.3715839,27.4761229 L55.4817494,27.4761229 Z" id="Fill-6"></path>
                    <path d="M64.3961702,32.9190071 C64.695461,31.9814184 64.8415603,31.3833097 64.8354137,31.1256265 C64.8292671,30.8679433 64.6741844,30.7388652 64.3706383,30.7388652 C64.07513,30.7388652 63.8198109,30.8859102 63.6037352,31.1795272 C63.3881324,31.4731442 63.1417967,32.0532861 62.8656738,32.9190071 L60.6666194,39.8159338 C60.373948,40.7331915 60.2302128,41.3284634 60.2363593,41.6017494 C60.2415603,41.8745626 60.3919149,42.0112057 60.6874232,42.0112057 C61.024539,42.0112057 61.2964066,41.8466667 61.5025532,41.516643 C61.7091726,41.1866194 61.9980615,40.4391017 62.3696927,39.2740898 L64.3961702,32.9190071 Z M71.2547991,27.4759811 L66.2150827,43.2792908 C65.5347045,45.4135697 65.0552719,46.7922931 64.7758392,47.415461 C64.4968794,48.0395745 64.0023168,48.6991489 63.2912057,49.39513 C62.5800946,50.0906383 61.7299764,50.6216076 60.7403783,50.987565 C59.7507801,51.3535225 58.594279,51.5365012 57.2704019,51.5365012 C55.6429787,51.5365012 54.4434515,51.1989125 53.6722931,50.5237352 C52.9011348,49.8485579 52.8136643,48.5213712 53.4113002,46.5421749 L58.3696927,46.5421749 C58.080331,47.4490307 58.2056265,47.9024586 58.7451064,47.9024586 C59.1332861,47.9024586 59.4349409,47.7634515 59.6500709,47.4854374 C59.8652009,47.2069504 60.1143735,46.6244444 60.3975887,45.7350827 L60.8916785,44.1866194 C60.2978251,44.673617 59.7195745,45.0395745 59.1550355,45.2896927 C58.5909693,45.5374468 58.0434515,45.6603783 57.5124823,45.6603783 C56.5933333,45.6603783 55.9086998,45.4339007 55.4590544,44.9804728 C55.0089362,44.5270449 54.7919149,43.9313002 54.8079905,43.1941844 C54.8235934,42.4575414 55.0481797,41.4083688 55.4822222,40.0476123 L57.8590544,32.5941844 C58.480331,30.6461939 59.2141371,29.2443026 60.0604728,28.3885106 C60.9068085,27.5327187 61.915792,27.1048227 63.087896,27.1048227 C63.7290307,27.1048227 64.2618913,27.2651064 64.6869504,27.5847281 C65.1115366,27.9062411 65.4287943,28.3861466 65.637305,29.0277541 L66.4987707,27.4759811 L71.2547991,27.4759811 Z" id="Fill-8"></path>
                    <path d="M77.2045863,34.7594799 L77.6826005,33.2592435 C78.0216076,32.1977778 78.1937116,31.5121986 78.1993853,31.2029787 C78.2055319,30.8932861 78.0651064,30.7386761 77.7781087,30.7386761 C77.4239716,30.7386761 77.1629787,30.8701182 76.9946572,31.1330024 C76.8268085,31.3963593 76.5582506,32.1051064 76.1899291,33.2592435 L75.7119149,34.7594799 L77.2045863,34.7594799 Z M81.2622695,38.0989598 L74.6466667,38.0989598 L73.2315366,42.5372577 C72.9360284,43.4649173 72.7998582,44.063026 72.8239716,44.3306383 C72.8480851,44.5991962 73.0164066,44.7330024 73.3284634,44.7330024 C73.7161702,44.7330024 74.0324823,44.5552246 74.2764539,44.199669 C74.5204255,43.8436407 74.8050591,43.1556974 75.1308274,42.1353664 L75.9937116,39.4289835 L80.838156,39.4289835 L80.3549409,40.9443499 C79.9506856,42.212435 79.5743262,43.1864303 79.2268085,43.8672813 C78.8792908,44.5471868 78.3417021,45.2739007 77.6145154,46.0474232 C76.8873286,46.8204728 76.0930024,47.4001418 75.2320095,47.7869031 C74.3710165,48.1731915 73.3837825,48.3665721 72.2707801,48.3665721 C71.1913475,48.3665721 70.2996217,48.1760284 69.5946572,47.7944681 C68.8896927,47.4133806 68.4135697,46.8899764 68.1662884,46.2252009 C67.9185343,45.5604255 67.8339007,44.8285106 67.9114421,44.0289835 C67.9889835,43.2304019 68.2707801,42.068227 68.7577778,40.5424586 L70.666052,34.5580615 C71.2376832,32.7646809 71.8873286,31.3495508 72.6140426,30.313617 C73.3407565,29.2776832 74.2428842,28.4843026 75.3213712,27.9325296 C76.3993853,27.3812293 77.5246809,27.1051064 78.6967849,27.1051064 C80.1298818,27.1051064 81.2069504,27.4379669 81.9265721,28.1027423 C82.6461939,28.7675177 83.0187707,29.6483688 83.0438298,30.7467139 C83.0688889,31.8445863 82.7643972,33.3883215 82.1298818,35.3779196 L81.2622695,38.0989598 Z" id="Fill-10"></path>
                    <path d="M91.5180615,27.4761229 L90.8263357,29.3678487 C91.438156,28.612766 92.071253,28.048227 92.7275177,27.6695035 C93.3828369,27.2931442 94.0608511,27.1049645 94.7606147,27.1049645 C95.6376832,27.1049645 96.2740898,27.3574468 96.6693617,27.8624113 C97.0646336,28.3678487 97.2201891,29.0042553 97.1355556,29.772104 C97.050922,30.5404255 96.7223168,31.8212766 96.1502128,33.6146572 L91.56487,47.9952719 L86.4547045,47.9952719 L90.9861466,33.7853428 C91.4367376,32.3725768 91.6731442,31.5120567 91.6958392,31.2028369 C91.7185343,30.893617 91.557305,30.7385343 91.2112057,30.7385343 C90.8485579,30.7385343 90.5643972,30.9167849 90.3582506,31.2723404 C90.152104,31.627896 89.8022222,32.5791962 89.309078,34.1252955 L84.886383,47.9952719 L79.7762175,47.9952719 L86.3194799,27.4761229 L91.5180615,27.4761229 Z" id="Fill-12"></path>
                    <path d="M106.12747,24.7391962 L105.096738,27.9708747 L106.475461,27.9708747 L105.44,31.2186288 L104.061277,31.2186288 L100.560567,42.1968794 C100.129835,43.5477069 99.9468558,44.2999527 100.011158,44.4545626 C100.075934,44.6091726 100.525106,44.6867139 101.360095,44.6867139 L100.305248,47.995461 L98.2433097,47.995461 C97.0797163,47.995461 96.267896,47.9363593 95.8078487,47.8176832 C95.3482742,47.6990071 94.996974,47.4261939 94.753948,46.9982979 C94.510922,46.5704019 94.4310165,46.0805674 94.5142317,45.5292671 C94.596974,44.9774941 94.9643499,43.681513 95.6149409,41.6403783 L98.9383452,31.2186288 L97.8381087,31.2186288 L98.8735697,27.9708747 L99.974279,27.9708747 L101.004539,24.7391962 L106.12747,24.7391962 Z" id="Fill-14"></path>
                    <path d="M122.783499,30.5378723 L117.837872,30.5378723 L118.429835,28.6820804 C118.705957,27.8163593 118.818487,27.2650591 118.767423,27.0277069 C118.716359,26.7908274 118.54331,26.6721513 118.248274,26.6721513 C117.927707,26.6721513 117.634563,26.8319622 117.368369,27.1515839 C117.101702,27.4712057 116.865296,27.9553664 116.657258,28.6078487 C116.391064,29.4428369 116.283262,30.0716785 116.332908,30.4939007 C116.374043,30.9170686 116.71305,31.427234 117.349929,32.0253428 C119.172151,33.7440189 120.214232,35.1563121 120.478534,36.2593853 C120.742364,37.3624586 120.48279,39.1402364 119.700757,41.5941371 C119.131962,43.3771158 118.541891,44.6920095 117.931017,45.5373995 C117.319669,46.3823168 116.43409,47.0910638 115.273333,47.6631678 C114.112577,48.2352719 112.883262,48.5213239 111.584444,48.5213239 C110.159385,48.5213239 109.048274,48.191773 108.251111,47.5317258 C107.453475,46.8721513 107.061513,46.0319622 107.075225,45.0111584 C107.088463,43.9908274 107.394374,42.5426005 107.992482,40.6660047 L108.515414,39.027234 L113.46104,39.027234 L112.489882,42.0730969 C112.190591,43.0116312 112.06766,43.6144681 112.12156,43.8825532 C112.174988,44.1506383 112.379243,44.2844444 112.733381,44.2844444 C113.087518,44.2844444 113.405248,44.1147045 113.686572,43.774279 C113.967896,43.4338534 114.215177,42.9288889 114.428889,42.2589125 C114.898865,40.7846809 115.042128,39.8210875 114.85773,39.3671868 C114.665296,38.9137589 114.07617,38.1558392 113.090827,37.0939007 C112.108794,36.0225059 111.479953,35.2437825 111.204303,34.7596217 C110.929125,34.2745154 110.786336,33.604539 110.776407,32.7492199 C110.76695,31.8934279 110.974043,30.8007565 111.398156,29.4707329 C112.009504,27.5534752 112.657258,26.1515839 113.340473,25.2650591 C114.023688,24.3785343 114.891773,23.6853901 115.945201,23.1851537 C116.998629,22.6853901 118.157494,22.4352719 119.42227,22.4352719 C120.805248,22.4352719 121.896974,22.7085579 122.696501,23.2546572 C123.496028,23.8012293 123.92156,24.4896454 123.97357,25.3189598 C124.024634,26.1492199 123.733381,27.5586761 123.098865,29.5482742 L122.783499,30.5378723 Z" id="Fill-16"></path>
                    <path d="M136.418203,27.4761229 L130.22435,42.3205674 C129.244208,44.670922 128.538771,46.2742317 128.109929,47.1295508 C127.681087,47.9853428 127.196927,48.691253 126.656501,49.248227 C126.116548,49.8052009 125.482033,50.2146572 124.753428,50.4770686 C124.02435,50.7404255 122.951537,50.8713948 121.535934,50.8713948 L118.437116,50.8713948 L119.482506,47.5938534 C120.275887,47.5938534 120.803073,47.5446809 121.061702,47.4463357 C121.321749,47.3484634 121.505201,47.1295508 121.613948,46.7895981 C121.66643,46.6245863 121.789362,45.9078014 121.983215,44.6401891 L124.65792,27.4761229 L129.29669,27.4761229 L126.557683,41.3314421 L131.795035,27.4761229 L136.418203,27.4761229 Z" id="Fill-18"></path>
                    <path d="M145.676407,34.0327187 L141.148274,34.0327187 L141.503357,32.9192435 C141.805485,31.9707801 141.953002,31.3703073 141.944965,31.1178251 C141.936927,30.8653428 141.755839,30.7386288 141.401702,30.7386288 C141.115177,30.7386288 140.862695,30.8549409 140.645674,31.0870922 C140.42818,31.3187707 140.245674,31.6667612 140.097683,32.130591 C139.89721,32.7594326 139.786099,33.2204255 139.763877,33.5145154 C139.742128,33.8081324 139.854184,34.130591 140.100993,34.4809456 C140.347329,34.8313002 140.920378,35.3419385 141.819669,36.0119149 C143.021087,36.8984397 143.728889,37.7334279 143.943073,38.5164066 C144.156785,39.300331 144.025343,40.4393381 143.548747,41.9343735 C143.016359,43.6038771 142.437163,44.8643972 141.812104,45.7149882 C141.186572,46.5655792 140.385626,47.2199527 139.408794,47.6785816 C138.431962,48.1372104 137.357258,48.3665248 136.185154,48.3665248 C134.886336,48.3665248 133.854657,48.1192435 133.0887,47.6246809 C132.323215,47.1296454 131.902411,46.459669 131.826288,45.614279 C131.750165,44.7688889 131.984681,43.4908747 132.530307,41.7797636 L132.846147,40.7896927 L137.374279,40.7896927 L136.960095,42.0885106 C136.608322,43.1915839 136.43669,43.9083688 136.445674,44.2379196 C136.454184,44.5679433 136.627234,44.7329551 136.96435,44.7329551 C137.326998,44.7329551 137.615414,44.621844 137.829125,44.4005674 C138.04331,44.178818 138.263641,43.7126241 138.490591,43.0010402 C138.802648,42.0213712 138.905721,41.4086052 138.799338,41.1608511 C138.683972,40.9135697 137.926525,40.1816548 136.526998,38.9655792 C135.354421,37.9343735 134.737872,36.9986761 134.676879,36.158487 C134.615887,35.3187707 134.770024,34.3211348 135.137872,33.1665248 C135.660331,31.5272813 136.222979,30.3192435 136.825343,29.5405201 C137.427707,28.7622695 138.220142,28.1617967 139.202648,27.7391017 C140.184681,27.3164066 141.23669,27.1050591 142.358203,27.1050591 C143.471206,27.1050591 144.362459,27.2776359 145.032435,27.6227896 C145.702411,27.9684161 146.155839,28.4246809 146.392246,28.9915839 C146.629125,29.558487 146.714232,30.0842553 146.648511,30.5688889 C146.582317,31.0530496 146.385154,31.8109693 146.056076,32.8417021 L145.676407,34.0327187 Z" id="Fill-20"></path>
                    <path d="M155.786714,24.7391962 L154.755981,27.9708747 L156.134704,27.9708747 L155.099243,31.2186288 L153.72052,31.2186288 L150.219811,42.1968794 C149.788605,43.5477069 149.605626,44.2999527 149.670402,44.4545626 C149.734704,44.6091726 150.18435,44.6867139 151.019338,44.6867139 L149.964019,47.995461 L147.902553,47.995461 C146.738487,47.995461 145.926667,47.9363593 145.467092,47.8176832 C145.007518,47.6990071 144.656217,47.4261939 144.413191,46.9982979 C144.170165,46.5704019 144.09026,46.0805674 144.173475,45.5292671 C144.256217,44.9774941 144.623593,43.681513 145.274184,41.6403783 L148.597589,31.2186288 L147.497352,31.2186288 L148.532813,27.9708747 L149.63305,27.9708747 L150.663783,24.7391962 L155.786714,24.7391962 Z" id="Fill-22"></path>
                    <path d="M161.546572,34.7594799 L162.025059,33.2592435 C162.363593,32.1977778 162.535697,31.5121986 162.541371,31.2029787 C162.547518,30.8932861 162.407092,30.7386761 162.120095,30.7386761 C161.765957,30.7386761 161.504965,30.8701182 161.337116,31.1330024 C161.168794,31.3963593 160.900709,32.1051064 160.532388,33.2592435 L160.053901,34.7594799 L161.546572,34.7594799 Z M165.604255,38.0989598 L158.989125,38.0989598 L157.573995,42.5372577 C157.278014,43.4649173 157.142317,44.063026 157.16643,44.3306383 C157.190544,44.5991962 157.358392,44.7330024 157.670449,44.7330024 C158.058629,44.7330024 158.374468,44.5552246 158.61844,44.199669 C158.862411,43.8436407 159.147518,43.1556974 159.472813,42.1353664 L160.335697,39.4289835 L165.180142,39.4289835 L164.696927,40.9443499 C164.292671,42.212435 163.916785,43.1864303 163.568794,43.8672813 C163.221277,44.5471868 162.683688,45.2739007 161.956974,46.0474232 C161.229787,46.8204728 160.435461,47.4001418 159.574468,47.7869031 C158.713002,48.1731915 157.725768,48.3665721 156.612766,48.3665721 C155.533333,48.3665721 154.641608,48.1760284 153.936643,47.7944681 C153.232151,47.4133806 152.756028,46.8899764 152.508274,46.2252009 C152.26052,45.5604255 152.175887,44.8285106 152.253428,44.0289835 C152.330969,43.2304019 152.613239,42.068227 153.099764,40.5424586 L155.008038,34.5580615 C155.580142,32.7646809 156.229314,31.3495508 156.956028,30.313617 C157.682742,29.2776832 158.585343,28.4843026 159.663357,27.9325296 C160.741371,27.3812293 161.866667,27.1051064 163.038771,27.1051064 C164.47234,27.1051064 165.548936,27.4379669 166.268558,28.1027423 C166.988652,28.7675177 167.360757,29.6483688 167.386288,30.7467139 C167.411348,31.8445863 167.106856,33.3883215 166.471868,35.3779196 L165.604255,38.0989598 Z" id="Fill-24"></path>
                    <path d="M175.708322,27.4761229 L174.99721,29.4297872 C175.640709,28.6539007 176.29792,28.0742317 176.969787,27.6846336 C177.641182,27.2983452 178.327234,27.1049645 179.026998,27.1049645 C180.392955,27.1049645 181.220851,27.8808511 181.511158,29.4297872 C182.1887,28.6539007 182.858203,28.0742317 183.522033,27.6846336 C184.184917,27.2983452 184.845437,27.1049645 185.503121,27.1049645 C186.371678,27.1049645 187.008085,27.3631206 187.413286,27.878487 C187.818014,28.3933806 187.981608,29.0250591 187.903121,29.772104 C187.825106,30.5196217 187.518251,31.7338061 186.982553,33.4141844 L182.332435,47.9952719 L177.374043,47.9952719 L181.639291,34.6198582 C182.198156,32.8676123 182.495556,31.7825059 182.531962,31.3654846 C182.567896,30.9479905 182.409031,30.7385343 182.054894,30.7385343 C181.692246,30.7385343 181.392482,30.9451537 181.155603,31.3574468 C180.918723,31.76974 180.519196,32.8572104 179.957021,34.6198582 L175.691773,47.9952719 L170.733381,47.9952719 L174.890355,34.9602837 C175.531017,32.9498818 175.875697,31.7437352 175.923924,31.3423168 C175.972151,30.9399527 175.814704,30.7385343 175.452057,30.7385343 C175.224634,30.7385343 174.996738,30.8444444 174.769314,31.055792 C174.541891,31.2676123 174.370733,31.5248227 174.257258,31.8288416 C174.14331,32.1333333 173.928652,32.7801418 173.612813,33.76974 L169.076643,47.9952719 L164.118251,47.9952719 L170.661513,27.4761229 L175.708322,27.4761229 Z" id="Fill-26"></path>
                    <path d="M198.97844,34.0327187 L194.450307,34.0327187 L194.80539,32.9192435 C195.107518,31.9707801 195.255035,31.3703073 195.246998,31.1178251 C195.23896,30.8653428 195.057872,30.7386288 194.703735,30.7386288 C194.41721,30.7386288 194.164728,30.8549409 193.947707,31.0870922 C193.730213,31.3187707 193.547707,31.6667612 193.399716,32.130591 C193.199243,32.7594326 193.088132,33.2204255 193.06591,33.5145154 C193.044161,33.8081324 193.156217,34.130591 193.403026,34.4809456 C193.649362,34.8313002 194.222411,35.3419385 195.121702,36.0119149 C196.323121,36.8984397 197.030922,37.7334279 197.244634,38.5164066 C197.458818,39.300331 197.327376,40.4393381 196.85078,41.9343735 C196.318392,43.6038771 195.739196,44.8643972 195.114137,45.7149882 C194.488605,46.5655792 193.68766,47.2199527 192.710827,47.6785816 C191.733522,48.1372104 190.659291,48.3665248 189.487187,48.3665248 C188.188369,48.3665248 187.15669,48.1192435 186.390733,47.6246809 C185.625248,47.1296454 185.204444,46.459669 185.128322,45.614279 C185.052199,44.7688889 185.286714,43.4908747 185.83234,41.7797636 L186.14818,40.7896927 L190.676312,40.7896927 L190.262128,42.0885106 C189.910355,43.1915839 189.738723,43.9083688 189.747707,44.2379196 C189.756217,44.5679433 189.929267,44.7329551 190.266383,44.7329551 C190.629031,44.7329551 190.917447,44.621844 191.131158,44.4005674 C191.345343,44.178818 191.565674,43.7126241 191.792624,43.0010402 C192.104681,42.0213712 192.207754,41.4086052 192.101371,41.1608511 C191.986005,40.9135697 191.228558,40.1816548 189.829031,38.9655792 C188.656454,37.9343735 188.039905,36.9986761 187.978913,36.158487 C187.91792,35.3187707 188.071584,34.3211348 188.439905,33.1665248 C188.962364,31.5272813 189.525012,30.3192435 190.127376,29.5405201 C190.72974,28.7622695 191.522175,28.1617967 192.504681,27.7391017 C193.486714,27.3164066 194.538251,27.1050591 195.659764,27.1050591 C196.773239,27.1050591 197.664492,27.2776359 198.334468,27.6227896 C199.004444,27.9684161 199.457872,28.4246809 199.694279,28.9915839 C199.930686,29.558487 200.016265,30.0842553 199.950071,30.5688889 C199.88435,31.0530496 199.687187,31.8109693 199.358109,32.8417021 L198.97844,34.0327187 Z" id="Fill-28"></path>
                    <path d="M78.4812766,20.3816076 L38.2217021,20.3816076 C38.2217021,9.26434988 47.2344681,0.251583924 58.351253,0.251583924 C69.4685106,0.251583924 78.4812766,9.26434988 78.4812766,20.3816076" id="Fill-31"></path>
                </g>
            </g>
        </g>
    </g>
</svg>