<?xml version="1.0" encoding="UTF-8" standalone="no"?>
<svg width="200px" height="67px" viewBox="0 0 200 67" version="1.1" xmlns="http://www.w3.org/2000/svg" xmlns:xlink="http://www.w3.org/1999/xlink">
    <!-- Generator: Sketch 46 (44423) - http://www.bohemiancoding.com/sketch -->
    <title>Invoca</title>
    <desc>Created with Sketch.</desc>
    <defs></defs>
    <g id="CLIENTS-BANNERS" stroke="none" stroke-width="1" fill="none" fill-rule="evenodd">
        <g id="Invoca" transform="translate(-60.000000, -57.000000)" fill="#FFFFFF">
            <g id="Logo" transform="translate(60.000000, 57.000000)">
                <g id="Invoca">
                    <path d="M8.06451612e-05,22.4781452 L6.16217742,22.4781452 C6.19604839,22.7567742 6.24564516,22.9737097 6.24564516,23.1910484 C6.25008065,30.2696774 6.22669355,37.3487097 6.26137097,44.4277419 C6.27387097,46.9325806 4.40733871,48.3777419 2.41943548,48.1789516 C1.88637097,48.1257258 1.34322581,48.1708871 0.804516129,48.1708871 L8.06451612e-05,48.1708871 L8.06451612e-05,22.4781452 Z" id="Fill-1"></path>
                    <path d="M188.250403,24.297379 C188.616129,24.1534274 188.892339,24.0340726 189.175403,23.9344758 C191.481452,23.1243952 192.778226,20.9586694 192.700806,18.9038306 C192.620161,16.7493952 192.695161,14.5893145 192.679032,12.4320565 C192.658065,9.61471774 190.453226,7.36794355 187.622984,7.34818548 C183.077016,7.31673387 178.531048,7.31350806 173.985081,7.34939516 C171.1,7.37197581 168.894355,9.6421371 168.878629,12.5159274 C168.867742,14.634879 168.960081,16.7578629 168.856048,18.8715726 C168.717742,21.6747984 171.256855,24.3010081 174.183468,24.2070565 C176.415726,24.1356855 178.652823,24.1610887 180.885887,24.215121 C181.466935,24.2296371 182.104032,24.4042339 182.607258,24.6933468 C184.175403,25.5941532 185.68871,26.5905242 187.230645,27.5381048 C187.571774,27.7477823 187.941532,27.9106855 188.516129,28.2078629 C188.416935,26.7453629 188.334677,25.5389113 188.250403,24.297379 M162.649194,35.6292339 C164.39879,33.8066532 166.148387,31.9840726 167.9875,30.0679435 C167.592339,29.7618952 167.308065,29.527621 167.009677,29.3127016 C163.527016,26.8074597 161.618548,23.4675403 161.608468,19.1231855 C161.603226,16.8086694 161.642339,14.49375 161.601613,12.1796371 C161.511694,7.1296371 165.374597,1.19657258 172.340726,0.142540323 C172.794758,0.0739919355 173.264919,0.10625 173.727823,0.105846774 C178.434274,0.103830645 183.141532,0.159879032 187.847177,0.0893145161 C192.612903,0.0179435484 198.639113,3.54294355 199.866935,10.4493952 C199.960887,10.9760081 199.939516,11.5264113 199.941129,12.0663306 C199.947984,14.534879 199.918548,17.0042339 199.949597,19.4727823 C200.016129,24.7429435 195.868548,30.0844758 190.131855,31.1921371 C189.381452,31.3368952 188.607661,31.3957661 187.842742,31.4167339 C186.531855,31.452621 185.214516,31.5022177 183.908871,31.4122984 C180.241532,31.159879 176.725403,31.7796371 173.240726,32.9006048 C170.057258,33.9247984 166.809677,34.7506048 163.58871,35.6578629 C163.317742,35.7340726 163.033871,35.7659274 162.756048,35.81875 C162.720565,35.7558468 162.685081,35.6925403 162.649194,35.6292339" id="Fill-3"></path>
                    <path d="M37.3158065,22.4781452 L37.3158065,48.1180645 L32.1553226,48.1180645 C27.8887903,42.8700806 23.5444355,37.5269355 19.0569355,32.0067742 C19.0218548,32.4737097 18.9835484,32.751129 18.9831452,33.0285484 C18.9791129,36.8458871 18.9004839,40.6652419 19.0117742,44.4793548 C19.0734677,46.5902419 17.4198387,48.3737097 15.2512903,48.1805645 C14.5645968,48.1192742 13.8678226,48.1708871 13.0887903,48.1708871 L13.0887903,22.5519355 L18.6795161,22.5519355 C22.7871774,27.6083871 26.9347581,32.713629 31.2770968,38.0591935 C31.3162097,37.4281452 31.3569355,37.0745161 31.3573387,36.7204839 C31.3621774,33.2499194 31.4496774,29.7769355 31.3307258,26.3104032 C31.2432258,23.7579839 33.1621774,22.231371 35.1770968,22.4656452 C35.8581452,22.5450806 36.556129,22.4781452 37.3158065,22.4781452" id="Fill-6"></path>
                    <path d="M84.8119758,27.3007258 C80.0914113,27.2866129 76.5914113,30.6809677 76.5857661,35.2781452 C76.580121,39.8031452 80.1579435,43.3212903 84.7902016,43.3458871 C89.4192339,43.3708871 92.9938306,39.9462903 93.0111694,35.468871 C93.0293145,30.8285484 89.5022984,27.3148387 84.8119758,27.3007258 M85.5543145,22.0148387 C89.6188306,22.1120161 93.7579435,23.6628226 96.7692339,27.5325806 C101.05996,33.0458871 100.203105,41.8402419 93.3966532,46.1180645 C88.1502823,49.4152419 82.5829435,49.5757258 77.1297177,46.7112097 C72.4764919,44.2668548 70.1006855,40.2156452 70.2696371,34.9051613 C70.4353629,29.6825806 73.1518952,26.0156452 77.6946371,23.6406452 C79.8381855,22.5200806 82.299879,22.0172581 85.5543145,22.0148387" id="Fill-8"></path>
                    <path d="M149.154234,37.2667742 C147.983266,34.5909677 146.859879,32.0248387 145.622379,29.1970161 C144.379637,32.0441935 143.254637,34.6224194 142.100605,37.2667742 L149.154234,37.2667742 Z M151.35504,42.3849194 C147.657863,42.3849194 144.075605,42.3841129 140.493347,42.3865323 C140.303427,42.3865323 140.113508,42.4107258 139.874798,42.4268548 C139.405444,43.4820968 138.885685,44.5123387 138.48246,45.5857258 C137.776008,47.4651613 136.462702,48.2962097 134.471169,48.1816935 C133.436492,48.1220161 132.39496,48.1708065 131.146976,48.1708065 C135.087298,39.486129 138.970363,30.9292742 142.867944,22.3389516 L148.53246,22.3389516 C152.402621,30.8683871 156.289315,39.4353226 160.238911,48.1409677 C158.578024,48.1409677 157.048992,48.241371 155.540524,48.1099194 C154.312298,48.0026613 153.459476,47.1941935 152.963508,46.0441935 C152.446573,44.845 151.913105,43.6530645 151.35504,42.3849194 L151.35504,42.3849194 Z" id="Fill-10"></path>
                    <path d="M128.474153,44.6252419 C127.097137,46.0220161 125.519315,47.0437903 123.719315,47.6562903 C119.76004,49.0034677 115.769315,49.0760484 111.83625,47.5695968 C106.303992,45.4502419 102.958024,40.2147581 103.360444,34.4425806 C103.766089,28.6284677 107.726573,23.8506452 113.470927,22.5232258 C119.168105,21.2066935 124.330202,22.2179839 128.700766,26.6353226 C127.753992,27.5058871 126.892298,28.4458065 125.882621,29.1833065 C124.987056,29.8377419 123.98504,29.6208065 123.082621,28.9877419 C121.282218,27.7244355 119.276573,27.1937903 117.082621,27.3079032 C112.89996,27.5252419 109.724556,30.9587097 109.715685,35.2966129 C109.706411,39.661129 112.834234,43.0937903 117.019315,43.3377419 C119.049153,43.4562903 120.906815,42.9591129 122.635444,41.9062903 C124.281008,40.9034677 125.149153,41.0308871 126.478992,42.4498387 C127.13504,43.1494355 127.776573,43.8631452 128.474153,44.6252419" id="Fill-12"></path>
                    <path d="M55.3754839,40.4033871 C56.4202419,37.7795968 57.3702419,35.3977419 58.3170161,33.0142742 C59.3964516,30.2965323 60.4666129,27.5751613 61.5525,24.8598387 C62.2875806,23.021129 63.0932258,22.4804032 65.0508871,22.4787903 C66.2456452,22.4779839 67.4404032,22.4828226 68.6355645,22.488871 C68.7101613,22.4892742 68.7851613,22.5195161 69.0077419,22.5687097 C65.3270968,31.1642742 61.6581452,39.733629 57.9843548,48.3146774 L52.5827419,48.3146774 C48.9323387,39.7872581 45.2625806,31.213871 41.5315323,22.4981452 C43.3496774,22.4981452 45.0016935,22.4033871 46.6371774,22.5287903 C47.8924194,22.6251613 48.656129,23.505 49.115,24.6751613 C50.7859677,28.9372581 52.481129,33.1900806 54.1706452,37.4453226 C54.5347581,38.3614516 54.9137903,39.271129 55.3754839,40.4033871" id="Fill-14"></path>
                    <polygon id="Fill-16" points="61.4695565 64.3378226 61.4695565 55.7382258 58.2461694 55.7382258 58.2461694 54.7370161 65.7897177 54.7370161 65.7897177 55.7382258 62.5667339 55.7382258 62.5667339 64.3378226"></polygon>
                    <path d="M67.4356452,64.3378226 L67.4356452,54.3257258 L68.4916935,54.3257258 L68.4916935,58.481371 C69.0493548,57.5579839 69.858629,57.0962903 70.9195161,57.0962903 C71.7606452,57.0962903 72.4231452,57.3547581 72.9078226,57.8708871 C73.3925,58.3878226 73.6352419,59.0757258 73.6352419,59.9354032 L73.6352419,64.3378226 L72.5787903,64.3378226 L72.5787903,60.1958871 C72.5787903,59.5285484 72.4074194,59.0047581 72.0646774,58.6253226 C71.7215323,58.2462903 71.2392742,58.0559677 70.6175,58.0559677 C70.005,58.0559677 69.4973387,58.2620161 69.0953226,58.6733065 C68.6929032,59.085 68.4916935,59.6196774 68.4916935,60.2781452 L68.4916935,64.3378226 L67.4356452,64.3378226 Z" id="Fill-18"></path>
                    <path d="M76.515121,60.3740726 L81.0824597,60.3740726 C81.0179435,59.6881855 80.7917339,59.1192339 80.4034274,58.6664113 C80.0147177,58.2139919 79.4864919,57.9877823 78.8191532,57.9877823 C78.2159274,57.9877823 77.6989919,58.2115726 77.2695565,58.6595565 C76.8397177,59.1075403 76.5881048,59.6793145 76.515121,60.3740726 L76.515121,60.3740726 Z M76.515121,61.2244758 C76.5881048,61.9466532 76.859879,62.5204435 77.3308468,62.9454435 C77.8018145,63.3708468 78.3618952,63.5833468 79.0110887,63.5833468 C79.8614919,63.5833468 80.6066532,63.2494758 81.2469758,62.5821371 L81.9050403,63.1720565 C81.109879,64.0591532 80.1356855,64.5022984 78.9840726,64.5022984 C77.9868952,64.5022984 77.1481855,64.1571371 76.4671371,63.4668145 C75.7856855,62.7764919 75.4453629,61.887379 75.4453629,60.7990726 C75.4453629,59.7660081 75.7695565,58.8906048 76.4191532,58.1728629 C77.0683468,57.455121 77.8772177,57.09625 78.8465726,57.09625 C79.8614919,57.09625 80.6659274,57.4527016 81.2606855,58.1660081 C81.8546371,58.8789113 82.1518145,59.7752823 82.1518145,60.8539113 C82.1518145,60.9914113 82.147379,61.1147984 82.1381048,61.2244758 L76.515121,61.2244758 Z" id="Fill-20"></path>
                    <path d="M91.6977016,63.5422177 C92.4110081,63.5422177 93.0053629,63.2934274 93.4807661,62.7946371 C93.9561694,62.2966532 94.1936694,61.6268952 94.1936694,60.7857661 C94.1936694,59.9720565 93.9513306,59.3111694 93.4670565,58.8039113 C92.982379,58.29625 92.3924597,58.042621 91.6977016,58.042621 C91.0118145,58.042621 90.4130242,58.3031048 89.9009274,58.8240726 C89.3888306,59.3454435 89.1327823,60.0039113 89.1327823,60.7990726 C89.1327823,61.5946371 89.3888306,62.2506855 89.9009274,62.767621 C90.4130242,63.2841532 91.0118145,63.5422177 91.6977016,63.5422177 L91.6977016,63.5422177 Z M88.1178629,66.5325403 L88.1178629,57.2470565 L89.1739113,57.2470565 L89.1739113,58.6732661 C89.8872177,57.6220565 90.7924597,57.09625 91.8896371,57.09625 C92.794879,57.09625 93.5856048,57.4321371 94.2622177,58.1043145 C94.9388306,58.7764919 95.2771371,59.6744758 95.2771371,60.7990726 C95.2771371,61.9055242 94.9388306,62.7970565 94.2622177,63.4736694 C93.5856048,64.1506855 92.794879,64.4885887 91.8896371,64.4885887 C90.7739113,64.4885887 89.8686694,63.9861694 89.1739113,62.9797177 L89.1739113,66.5325403 L88.1178629,66.5325403 Z" id="Fill-22"></path>
                    <path d="M100.488952,63.5560081 C101.247823,63.5560081 101.872016,63.2910887 102.361129,62.7604435 C102.850242,62.2302016 103.095,61.5765726 103.095,60.7991532 C103.095,60.0310081 102.840968,59.377379 102.33371,58.8378629 C101.826048,58.2983468 101.202258,58.0285887 100.461532,58.0285887 C99.7026613,58.0285887 99.0808871,58.2963306 98.5962097,58.8310081 C98.1115323,59.3660887 97.8691935,60.0221371 97.8691935,60.7991532 C97.8691935,61.5672984 98.1208065,62.2189113 98.623629,62.7535887 C99.1264516,63.2882661 99.7482258,63.5560081 100.488952,63.5560081 M103.10871,63.4120565 C102.395403,64.1386694 101.513145,64.502379 100.461532,64.502379 C99.4099194,64.502379 98.5345161,64.1414919 97.8349194,63.4189113 C97.1357258,62.6967339 96.7857258,61.8233468 96.7857258,60.7991532 C96.7857258,59.7842339 97.1401613,58.9132661 97.8490323,58.1866532 C98.5570968,57.4596371 99.4373387,57.0959274 100.488952,57.0959274 C101.540161,57.0959274 102.417984,57.4572177 103.122419,58.1797984 C103.826048,58.9019758 104.178468,59.7753629 104.178468,60.7991532 C104.178468,61.8140726 103.822016,62.6850403 103.10871,63.4120565" id="Fill-25"></path>
                    <polygon id="Fill-27" points="107.621008 64.3925806 105.138347 57.2470161 106.263347 57.2470161 108.128669 62.9389516 110.035121 57.2195968 110.91254 57.2195968 112.832702 62.9389516 114.698024 57.2470161 115.795202 57.2470161 113.299234 64.3925806 112.380282 64.3925806 110.473831 58.7970161 108.553669 64.3925806"></polygon>
                    <path d="M117.838669,60.3740726 L122.406008,60.3740726 C122.341895,59.6881855 122.115685,59.1192339 121.726976,58.6664113 C121.338266,58.2139919 120.810444,57.9877823 120.143105,57.9877823 C119.539476,57.9877823 119.022944,58.2115726 118.593105,58.6595565 C118.163266,59.1075403 117.912056,59.6793145 117.838669,60.3740726 L117.838669,60.3740726 Z M117.838669,61.2244758 C117.912056,61.9466532 118.183831,62.5204435 118.654798,62.9454435 C119.125363,63.3708468 119.685847,63.5833468 120.334637,63.5833468 C121.18504,63.5833468 121.930605,63.2494758 122.570524,62.5821371 L123.228992,63.1720565 C122.433427,64.0591532 121.459234,64.5022984 120.307621,64.5022984 C119.310847,64.5022984 118.471734,64.1571371 117.790685,63.4668145 C117.109234,62.7764919 116.768911,61.887379 116.768911,60.7990726 C116.768911,59.7660081 117.093508,58.8906048 117.742702,58.1728629 C118.391895,57.455121 119.200766,57.09625 120.170524,57.09625 C121.18504,57.09625 121.989879,57.4527016 122.584234,58.1660081 C123.178589,58.8789113 123.475363,59.7752823 123.475363,60.8539113 C123.475363,60.9914113 123.470927,61.1147984 123.462056,61.2244758 L117.838669,61.2244758 Z" id="Fill-29"></path>
                    <path d="M125.327298,64.3378226 L125.327298,57.2470968 L126.383347,57.2470968 L126.383347,59.0987097 C126.65754,58.4862097 127.04625,57.9966935 127.549073,57.6309677 C128.051895,57.2652419 128.628105,57.0962903 129.276895,57.1237097 L129.276895,58.2620161 L129.19504,58.2620161 C128.380927,58.2620161 127.709153,58.5454839 127.178911,59.1124194 C126.648266,59.6793548 126.383347,60.4793548 126.383347,61.5124194 L126.383347,64.3378226 L125.327298,64.3378226 Z" id="Fill-31"></path>
                    <path d="M138.260444,63.5560081 C139.019315,63.5560081 139.643508,63.2910887 140.132621,62.7604435 C140.621734,62.2302016 140.866492,61.5765726 140.866492,60.7991532 C140.866492,60.0310081 140.61246,59.377379 140.105202,58.8378629 C139.597944,58.2983468 138.97375,58.0285887 138.233427,58.0285887 C137.474153,58.0285887 136.852379,58.2963306 136.368105,58.8310081 C135.883024,59.3660887 135.641089,60.0221371 135.641089,60.7991532 C135.641089,61.5672984 135.892298,62.2189113 136.395524,62.7535887 C136.897944,63.2882661 137.520121,63.5560081 138.260444,63.5560081 M140.880202,63.4120565 C140.166895,64.1386694 139.284637,64.502379 138.233427,64.502379 C137.181411,64.502379 136.306008,64.1414919 135.606815,63.4189113 C134.907218,62.6967339 134.557621,61.8233468 134.557621,60.7991532 C134.557621,59.7842339 134.911653,58.9132661 135.620524,58.1866532 C136.328589,57.4596371 137.209234,57.0959274 138.260444,57.0959274 C139.312056,57.0959274 140.189879,57.4572177 140.893911,58.1797984 C141.597944,58.9019758 141.94996,59.7753629 141.94996,60.7991532 C141.94996,61.8140726 141.593508,62.6850403 140.880202,63.4120565" id="Fill-33"></path>
                    <path d="M144.254113,64.3378226 L144.254113,58.1797581 L143.280323,58.1797581 L143.280323,57.2608065 L144.254113,57.2608065 L144.254113,56.6434677 C144.254113,55.8390323 144.459758,55.2309677 144.871452,54.8196774 C145.237177,54.4539516 145.744435,54.2708871 146.394032,54.2708871 C146.841613,54.2708871 147.230323,54.3301613 147.559355,54.4491129 L147.559355,55.3680645 C147.13879,55.2491129 146.796048,55.1898387 146.530726,55.1898387 C145.708145,55.1898387 145.296452,55.6926613 145.296452,56.6983065 L145.296452,57.2745161 L147.546048,57.2745161 L147.546048,58.1797581 L145.310161,58.1797581 L145.310161,64.3378226 L144.254113,64.3378226 Z" id="Fill-35"></path>
                    <path d="M155.376895,64.4612903 C154.764395,64.4612903 154.277298,64.2991935 153.916008,63.9741935 C153.555121,63.65 153.374476,63.1443548 153.374476,62.458871 L153.374476,58.1794355 L152.386976,58.1794355 L152.386976,57.2467742 L153.374476,57.2467742 L153.374476,55.1072581 L154.430524,55.1072581 L154.430524,57.2467742 L156.679718,57.2467742 L156.679718,58.1794355 L154.430524,58.1794355 L154.430524,62.3217742 C154.430524,63.1080645 154.828508,63.5012097 155.623669,63.5012097 C155.97125,63.5012097 156.313992,63.4189516 156.652702,63.2540323 L156.652702,64.1592742 C156.268427,64.3604839 155.843427,64.4612903 155.376895,64.4612903" id="Fill-37"></path>
                    <path d="M160.862944,63.6383065 C161.521411,63.6383065 162.079073,63.4600806 162.536331,63.103629 C162.993185,62.7467742 163.222218,62.2895161 163.222218,61.7318548 L163.222218,61.0733871 C162.527056,60.8725806 161.836734,60.7717742 161.150847,60.7717742 C160.501653,60.7717742 159.994395,60.9020161 159.628266,61.1629032 C159.262944,61.4233871 159.079879,61.7778226 159.079879,62.2258065 C159.079879,62.6556452 159.25125,62.9983871 159.594395,63.2540323 C159.937137,63.5104839 160.359718,63.6383065 160.862944,63.6383065 M160.657298,64.4887097 C159.934718,64.4887097 159.312944,64.2923387 158.791976,63.8987903 C158.271008,63.5060484 158.010121,62.9572581 158.010121,62.2532258 C158.010121,61.5125 158.284315,60.941129 158.833105,60.5387097 C159.381492,60.1362903 160.117379,59.9350806 161.041169,59.9350806 C161.772621,59.9350806 162.494798,60.0358871 163.208105,60.2366935 L163.208105,60.0177419 C163.208105,59.3959677 163.025444,58.9201613 162.659718,58.591129 C162.293992,58.2620968 161.777056,58.0971774 161.109718,58.0971774 C160.41496,58.0971774 159.696815,58.2665323 158.956492,58.6048387 L158.640766,57.7407258 C159.518992,57.3383065 160.378266,57.1370968 161.219395,57.1370968 C162.22504,57.1370968 162.98875,57.3979839 163.509718,57.9189516 C164.004073,58.4129032 164.250444,59.1076613 164.250444,60.003629 L164.250444,64.3379032 L163.208105,64.3379032 L163.208105,63.2818548 C162.57746,64.0862903 161.727056,64.4887097 160.657298,64.4887097" id="Fill-39"></path>
                    <polygon id="Fill-41" points="166.581855 54.3258065 167.637903 54.3258065 167.637903 64.3379032 166.581855 64.3379032"></polygon>
                    <polygon id="Fill-43" points="170.093024 64.3378226 170.093024 54.3257258 171.149073 54.3257258 171.149073 61.2382258 174.975685 57.2470968 176.292218 57.2470968 173.316008 60.2918548 176.388185 64.3378226 175.126089 64.3378226 172.588992 61.0325806 171.149073 62.4862097 171.149073 64.3378226"></polygon>
                    <path d="M155.464315,23.9085484 C154.477621,23.9085484 153.674798,24.711371 153.674798,25.6980645 C153.674798,26.6847581 154.477621,27.4875806 155.464315,27.4875806 C156.451008,27.4875806 157.253427,26.6847581 157.253427,25.6980645 C157.253427,24.711371 156.451008,23.9085484 155.464315,23.9085484 M155.464315,27.9855645 C154.203024,27.9855645 153.176815,26.9593548 153.176815,25.6980645 C153.176815,24.4367742 154.203024,23.4105645 155.464315,23.4105645 C156.725605,23.4105645 157.751815,24.4367742 157.751815,25.6980645 C157.751815,26.9593548 156.725605,27.9855645 155.464315,27.9855645" id="Fill-44"></path>
                    <path d="M155.097097,25.6325 L155.51,25.6325 C155.610806,25.6325 155.691048,25.6079032 155.750726,25.5591129 C155.810403,25.5103226 155.840242,25.4437903 155.840242,25.3595161 C155.840242,25.273629 155.81121,25.2079032 155.753145,25.1623387 C155.695081,25.116371 155.612823,25.0933871 155.507581,25.0933871 L155.097097,25.0933871 L155.097097,25.6325 Z M154.814839,26.4425806 L154.814839,24.8365323 L155.530565,24.8365323 C155.717258,24.8365323 155.863226,24.8829032 155.968871,24.9752419 C156.074113,25.0679839 156.126935,25.1921774 156.126935,25.3478226 C156.126935,25.4752419 156.092661,25.5792742 156.02371,25.661129 C155.954758,25.7429839 155.861613,25.8006452 155.743871,25.8345161 L156.177339,26.4425806 L155.844677,26.4425806 L155.445887,25.8825 L155.097097,25.8825 L155.097097,26.4425806 L154.814839,26.4425806 Z" id="Fill-45"></path>
                </g>
            </g>
        </g>
    </g>
</svg>