<?xml version="1.0" encoding="UTF-8" standalone="no"?>
<svg width="200px" height="83px" viewBox="0 0 200 83" version="1.1" xmlns="http://www.w3.org/2000/svg" xmlns:xlink="http://www.w3.org/1999/xlink">
    <!-- Generator: Sketch 46 (44423) - http://www.bohemiancoding.com/sketch -->
    <title>Kollective</title>
    <desc>Created with Sketch.</desc>
    <defs></defs>
    <g id="CLIENTS-BANNERS" stroke="none" stroke-width="1" fill="none" fill-rule="evenodd">
        <g id="Kollective" transform="translate(-60.000000, -57.000000)" fill="#FFFFFF">
            <g id="Logo" transform="translate(60.000000, 57.000000)">
                <g id="Kollective">
                    <path d="M55.7558232,65.2478659 C56.7259451,64.6865854 57.2552134,62.7634146 56.6744207,62.0310976 C55.7808232,62.4338415 55.1878354,64.4262195 55.7558232,65.2478659 L55.7558232,65.2478659 Z M56.7539939,21.0262195 C57.231128,20.3371951 56.8600915,19.6603659 56.671372,19.0155488 C56.5256402,18.5176829 56.3158841,17.9948171 55.7475915,17.7746951 C55.1921037,18.6884146 55.8094817,20.6637195 56.7539939,21.0262195 L56.7539939,21.0262195 Z M45.1732012,79.010061 C45.1055183,78.8954268 45.0274695,78.5884146 44.8518598,78.5152439 C44.6728963,78.4405488 44.3518598,78.5329268 44.173811,78.6628049 C43.6664939,79.0335366 43.4091768,79.5829268 43.3704573,80.1996951 C43.3585671,80.3908537 43.4960671,80.6795732 43.6527744,80.7682927 C43.8073476,80.8557927 44.116189,80.8155488 44.2826524,80.7115854 C44.8478963,80.3588415 45.0835671,79.7926829 45.1732012,79.010061 L45.1732012,79.010061 Z M45.1765549,4.03079268 C45.0878354,3.27134146 44.8576524,2.68170732 44.2649695,2.31402439 C43.7948476,2.0222561 43.3430183,2.26371951 43.3664939,2.80335366 C43.3957622,3.47560976 43.6820427,4.05457317 44.2527744,4.43414634 C44.4158841,4.54268293 44.7149695,4.59786585 44.8735061,4.5195122 C45.0350915,4.43963415 45.1003354,4.16493902 45.1765549,4.03079268 L45.1765549,4.03079268 Z M43.6216768,67.6652439 C43.5171037,67.5042683 43.4082622,67.2103659 43.1982012,67.0429878 C42.9158841,66.8176829 42.6332622,67.0457317 42.4003354,67.2271341 C41.8515549,67.6545732 41.556128,68.2402439 41.4360061,68.9118902 C41.4058232,69.0817073 41.4375305,69.279878 41.496372,69.445122 C41.6607012,69.9051829 42.0006402,70.0381098 42.4128354,69.7795732 C43.1393598,69.3240854 43.4881402,68.6262195 43.6216768,67.6652439 L43.6216768,67.6652439 Z M43.6201524,15.3878049 C43.5058232,14.5085366 43.2189329,13.8655488 42.6219817,13.4231707 C42.4128354,13.2682927 42.0573476,13.1506098 41.8296037,13.2185976 C41.4707622,13.3262195 41.373811,13.7189024 41.4280793,14.0765244 C41.5347866,14.7759146 41.828689,15.3972561 42.4152744,15.8164634 C42.6149695,15.9591463 42.97625,16.0990854 43.1427134,16.0109756 C43.3805183,15.8853659 43.5067378,15.5490854 43.6201524,15.3878049 L43.6201524,15.3878049 Z M25.6439329,55.7728659 C25.641189,56.7969512 26.3695427,57.5454268 27.3515549,57.5277439 C28.4515549,57.5079268 29.5158841,56.4246951 29.5067378,55.3344512 C29.4991159,54.417378 28.7094817,53.6670732 27.7506402,53.6661585 C26.6390549,53.664939 25.6472866,54.6567073 25.6439329,55.7728659 L25.6439329,55.7728659 Z M25.6442378,27.2972561 C25.6558232,28.4082317 26.6646646,29.3932927 27.7759451,29.3786585 C28.7265549,29.3661585 29.5192378,28.589939 29.5070427,27.6841463 C29.4921037,26.5789634 28.4210671,25.5140244 27.3271646,25.5164634 C26.3384451,25.5185976 25.6335671,26.2643293 25.6442378,27.2972561 L25.6442378,27.2972561 Z M21.8454573,9.8347561 C22.353689,9.82164634 22.8985061,9.68597561 23.2357012,9.13567073 C23.5832622,8.56859756 23.5082622,8.00487805 23.196372,7.44237805 C22.77625,6.68506098 22.1073476,6.28628049 21.2930183,6.10213415 C20.6244207,5.95121951 19.8722866,6.22957317 19.5308232,6.75731707 C19.1524695,7.34176829 19.2274695,7.95335366 19.5579573,8.5152439 C20.0430183,9.34115854 20.7844817,9.78993902 21.8454573,9.8347561 L21.8454573,9.8347561 Z M20.93875,76.9902439 C21.9167988,76.9780488 22.9658841,76.2408537 23.3378354,75.3042683 C23.6982012,74.3969512 23.2549085,73.5167683 22.3131402,73.2676829 C21.1524695,72.9609756 19.7027744,73.7908537 19.3698476,74.952439 C19.0570427,76.0426829 19.7975915,77.0042683 20.93875,76.9902439 L20.93875,76.9902439 Z M5.77137195,43.4597561 L5.81070122,43.5652439 C6.25064024,43.3902439 6.72929878,43.2768293 7.12259146,43.0283537 C8.21832317,42.3359756 8.27746951,40.9317073 7.26801829,40.1195122 C6.63875,39.6131098 5.92167683,39.4518293 5.13234756,39.6862805 C4.07442073,40 3.46435976,40.8131098 3.5860061,41.7506098 C3.70307927,42.6527439 4.55734756,43.3911585 5.56496951,43.4591463 C5.63356707,43.4637195 5.70277439,43.4597561 5.77137195,43.4597561 L5.77137195,43.4597561 Z M48.843628,41.3859756 C48.8610061,42.9371951 49.2735061,44.2329268 50.098811,45.3847561 C51.8506402,47.8295732 55.1829573,47.9981707 57.1039939,45.7512195 C59.0582622,43.4658537 59.1603963,39.8917683 57.3219817,37.5204268 C55.4628354,35.1219512 52.336311,34.9695122 50.3305183,37.3219512 C49.2948476,38.5368902 48.8991159,39.9612805 48.843628,41.3859756 L48.843628,41.3859756 Z M42.646372,82.9268293 C41.5908841,82.2753049 41.7116159,81.245122 41.8832622,80.2740854 C42.1439329,78.7981707 42.9131402,77.5810976 44.0704573,76.6216463 C44.2277744,76.4911585 44.4070427,76.3515244 44.5978963,76.3042683 C45.2024695,76.1545732 45.4826524,75.6990854 45.7494207,75.2054878 C47.2991159,72.3405488 48.4222866,69.3027439 49.383872,66.2015244 C50.3378354,63.1243902 51.1021646,60.0009146 51.5570427,56.8079268 C51.8945427,54.4359756 52.0826524,52.0579268 51.7573476,49.667378 C51.72625,49.439939 51.6741159,49.2155488 51.621372,48.9920732 C51.6085671,48.9368902 51.5549085,48.8914634 51.4442378,48.732622 C51.346372,49.1045732 51.2698476,49.3807927 51.2006402,49.6585366 C50.3518598,53.0756098 49.3451524,56.442378 48.01375,59.7070122 C47.3094817,61.4344512 46.5152744,63.1164634 45.5225915,64.6978659 C45.3146646,65.0289634 45.2689329,65.3329268 45.3140549,65.729878 C45.3774695,66.2893293 45.3591768,66.8810976 45.2469817,67.4329268 C44.9292988,68.9990854 44.2201524,70.3807927 43.0677134,71.5057927 C42.8094817,71.7582317 42.4954573,71.9716463 42.1741159,72.1393293 C40.821372,72.8442073 39.5369207,71.897561 39.518628,70.5890244 C39.5082622,69.8679878 39.6515549,69.125 39.8472866,68.4262195 C40.1149695,67.470122 40.5982012,66.5990854 41.2369207,65.8280488 C41.8140549,65.1317073 42.5049085,64.6253049 43.4454573,64.6103659 C46.7280793,59.2698171 48.6802134,53.5109756 49.381128,47.2789634 C49.241189,47.4420732 49.0899695,47.5966463 48.9628354,47.7685976 C47.0628354,50.3381098 45.1866159,52.9253049 43.2631402,55.4771341 C40.5515549,59.075 37.7655793,62.6143293 34.7289939,65.9490854 C32.6064329,68.2801829 30.4256402,70.5496951 27.9103963,72.4698171 C27.5820427,72.7207317 27.2430183,72.9573171 26.911311,73.2042683 C26.8768598,73.2295732 26.8607012,73.2795732 26.8366159,73.3182927 C26.91375,76.8655488 24.8399695,79.5137195 21.3908841,80.2143293 C20.4616159,80.4030488 19.5164939,80.3746951 18.5960671,80.0762195 C16.2460671,79.3137195 15.1296037,76.7865854 16.10125,74.3478659 C16.8097866,72.570122 18.1457622,71.3780488 19.8341768,70.5570122 C21.0549085,69.9637195 22.3460671,69.7929878 23.6603963,70.1347561 C24.271372,70.2939024 24.841189,70.6106707 25.4296037,70.8560976 C25.4296037,70.9125 25.4292988,70.9689024 25.4292988,71.0253049 C25.7792988,70.8722561 26.166189,70.7719512 26.4725915,70.5567073 C27.5616159,69.7920732 28.67625,69.0503049 29.6841768,68.1862805 C31.7289939,66.4335366 33.5210671,64.4256098 35.2893598,62.3966463 C38.0405793,59.2396341 40.6164939,55.9454268 43.021372,52.5195122 C44.5799085,50.2996951 46.1433232,48.0780488 47.346372,45.6341463 C47.5122256,45.2972561 47.623811,44.9338415 47.6780793,44.5128049 C43.303689,48.6146341 38.2597866,51.5625 32.8052134,53.6152439 C32.6658841,54.6408537 32.6274695,55.5893293 32.3978963,56.4890244 C31.6244207,59.5213415 28.3634451,61.2414634 25.4116159,60.2384146 C24.0442378,59.7737805 23.1853963,58.8222561 22.7308232,57.4795732 C21.918628,55.0810976 22.7235061,52.304878 24.9576524,51.0439024 C26.9799085,49.9027439 29.0643598,49.7810976 31.0960671,51.0835366 C31.4344817,51.3003049 31.7427134,51.3667683 32.1305183,51.257622 C36.7966768,49.945122 41.046372,47.8301829 44.7530793,44.6844512 C45.2735061,44.2429878 45.7033841,43.6890244 46.13875,43.1570122 C46.3171037,42.9396341 46.398811,42.6432927 46.5265549,42.3786585 C45.9430183,42.1469512 12.573811,42.6 11.2914939,42.8295732 C11.01375,43.3734756 10.7747256,43.9487805 10.4457622,44.4667683 C9.36740854,46.1631098 7.78875,47.0929878 5.79271341,47.1060976 C3.27685976,47.122561 0.959786585,45.6289634 0.185396341,42.935061 C0.128689024,42.7387195 0.0619207317,42.5454268 3.04878049e-05,42.3503049 L3.04878049e-05,40.6942073 C0.207957317,40.1378049 0.358262195,39.5509146 0.633871951,39.0301829 C1.72533537,36.9676829 3.51832317,35.9265244 5.79789634,35.947561 C8.20490854,35.9698171 9.89606707,37.2539634 10.9116159,39.4262195 C11.0085671,39.6344512 11.0866159,39.8515244 11.1765549,40.0631098 C11.1939329,40.104878 11.2241159,40.1411585 11.2799085,40.2301829 C11.4201524,40.2481707 11.5969817,40.2884146 11.7747256,40.2914634 C14.9689329,40.3457317 18.1631402,40.3984756 21.3573476,40.4457317 C24.6899695,40.4954268 28.0222866,40.5371951 31.3546037,40.5862805 C34.2732012,40.6289634 37.1914939,40.672561 40.1100915,40.7243902 C41.9247256,40.7567073 43.7390549,40.8060976 45.553689,40.8454268 C45.8469817,40.8518293 46.1405793,40.8463415 46.6171037,40.8463415 C46.3960671,40.404878 46.3070427,40.0579268 46.0924085,39.8292683 C45.3716768,39.0612805 44.6728963,38.2493902 43.846372,37.6082317 C40.353689,34.8990854 36.4491159,32.9890244 32.1899695,31.8045732 C31.8457622,31.7088415 31.5289939,31.6567073 31.2134451,31.9073171 C30.0167988,32.8573171 28.6460671,33.0905488 27.1799085,32.8036585 C23.4402744,32.0707317 21.9768598,28.7332317 22.6597866,25.8570122 C23.273811,23.2698171 25.6302134,22.3289634 27.6951524,22.5402439 C30.4192378,22.8195122 32.6683232,25.1103659 32.693628,28.4323171 C32.6960671,28.7286585 32.6939329,29.025 32.6939329,29.3832317 C38.2399695,31.4810976 43.2942378,34.4140244 47.5853963,38.5887195 C47.6384451,38.5478659 47.6914939,38.507622 47.7448476,38.4667683 C47.62625,38.1414634 47.533872,37.8039634 47.3853963,37.4926829 C46.4417988,35.5131098 45.2058232,33.7091463 43.9756402,31.9042683 C41.3317378,28.0256098 38.4844817,24.3015244 35.3832622,20.7768293 C34.093628,19.3109756 32.7985061,17.8435976 31.4152744,16.4676829 C29.9341768,14.9945122 28.398811,13.5628049 26.5546037,12.5280488 C26.2183232,12.3390244 25.8579573,12.1926829 25.5680183,12.0554878 C25.4381402,12.0963415 25.3841768,12.0978659 25.3524695,12.1253049 C24.228689,13.0993902 22.9299085,13.2689024 21.5329573,12.9411585 C19.1527744,12.3832317 17.2299085,11.1817073 16.1902744,8.88810976 C14.8652744,5.96615854 16.6509451,2.82134146 20.0820427,2.71615854 C22.8945427,2.62987805 26.4475915,4.90609756 26.8326524,8.42408537 C26.8771646,8.82987805 26.83875,9.24512195 26.83875,9.84847561 C26.8421037,9.85030488 26.9860061,9.92469512 27.1180183,10.0164634 C30.3533841,12.270122 33.011311,15.1381098 35.6000305,18.0685976 C40.2628354,23.347561 44.4027744,29.0368902 48.5460671,34.7216463 C48.8009451,35.0713415 49.0704573,35.410061 49.3628354,35.7926829 C49.8235061,32.9817073 46.0253354,21.9259146 43.428689,18.4490854 C42.3472866,18.3890244 41.6021646,17.7448171 40.98875,16.8902439 C40.2103963,15.8051829 39.7308232,14.5990854 39.5134451,13.2856707 C39.4948476,13.1728659 39.4924085,13.0567073 39.4893598,12.9420732 C39.4634451,12.0625 39.6616159,11.2856707 40.5204573,10.85 C41.3625305,10.422561 42.1271646,10.7228659 42.7521646,11.2670732 C44.3896646,12.6935976 45.2360061,14.5353659 45.3917988,16.697561 C45.0549085,17.6875 45.5850915,18.4332317 46.0442378,19.2359756 C47.6860061,22.1045732 48.8274695,25.1881098 49.7896646,28.3371951 C50.3399695,30.1390244 50.8006402,31.9679878 51.3039939,33.7841463 C51.3439329,33.9286585 51.4027744,34.0682927 51.5027744,34.3521341 C51.8064329,33.520122 51.8591768,32.797561 51.8939329,32.0795732 C52.041189,29.05 51.6299085,26.0689024 51.0110061,23.117378 C50.1024695,18.7868902 48.8289939,14.5640244 47.0482012,10.5073171 C46.5872256,9.45670732 46.0329573,8.44573171 45.4948476,7.43079268 C45.3847866,7.22317073 45.1850915,6.99420732 44.9756402,6.92103659 C44.2207622,6.65731707 43.673811,6.1375 43.198811,5.54420732 C42.3457622,4.47865854 41.82625,3.28079268 41.7982012,1.8804878 C41.7832622,1.1222561 42.0003354,0.531097561 42.646372,0.117987805 L43.4747256,0.117987805 C44.8445427,0.86402439 45.7771646,1.97743902 46.3241159,3.43780488 C46.6478963,4.30182927 46.7360061,5.17012195 46.5869207,6.07804878 C46.5530793,6.28384146 46.5899695,6.5402439 46.6884451,6.7222561 C48.246372,9.59939024 49.5921037,12.5685976 50.6320427,15.6734756 C51.6853963,18.8176829 52.5070427,22.0198171 52.9985061,25.3003049 C53.4235061,28.1387195 53.811311,30.982622 54.221372,33.8231707 C54.2518598,34.0353659 54.3283841,34.2408537 54.3917988,34.4807927 C54.8558232,34.3204268 54.9768598,33.9655488 55.0625305,33.657622 C55.3265549,32.7082317 55.586311,31.752439 55.7558232,30.7829268 C56.1482012,28.535061 56.246372,26.2621951 56.17625,23.9835366 C56.1677134,23.7042683 56.1064329,23.3539634 55.931128,23.1646341 C54.9329573,22.0856707 54.5225915,20.7609756 54.2448476,19.372561 C54.053689,18.4167683 53.9914939,17.4533537 54.2756402,16.5060976 C54.5991159,15.4277439 55.3832622,15.2503049 56.1664939,16.079878 C56.8424085,16.795122 57.2667988,17.667378 57.5533841,18.5969512 C57.9482012,19.8759146 58.2631402,21.172561 57.9518598,22.5256098 C57.9006402,22.7478659 57.8622256,23.0033537 57.7271646,23.1707317 C57.3326524,23.660061 57.446372,24.1862805 57.4747256,24.742378 C57.5277744,25.7963415 57.58875,26.864939 57.4741159,27.9085366 C57.2509451,29.9381098 56.9049085,31.9536585 56.6195427,33.9765244 C56.5750305,34.2939024 56.5640549,34.6185976 56.5680183,34.9396341 C56.5747256,35.4896341 56.641189,35.5603659 57.2939329,35.820122 C57.9125305,35.2143293 58.3744207,34.4756098 58.7591768,33.6957317 C59.6143598,31.9615854 60.0070427,30.1015244 60.1832622,28.1884146 C60.2146646,27.8454268 60.2402744,27.5021341 60.2796037,27.160061 C60.3378354,26.6490854 60.2893598,26.1890244 60.0122256,25.7121951 C59.46375,24.767378 59.4341768,23.7335366 59.8055183,22.7155488 C60.1299085,21.8259146 60.8174085,21.7036585 61.4292988,22.4347561 C62.293628,23.4676829 62.45125,24.6823171 62.0899695,25.9405488 C61.986311,26.3015244 61.6198476,26.5868902 61.2796037,27.029878 C61.0521646,30.3963415 60.4692378,33.8189024 57.9835671,36.6118902 C58.0744207,36.7716463 58.1424085,36.9112805 58.2302134,37.0371951 C58.306128,37.1466463 58.4049085,37.2402439 58.5198476,37.3704268 C59.7634451,36.8155488 60.7216768,35.9472561 61.5448476,34.9121951 C61.7018598,34.7146341 61.8232012,34.4896341 61.9735061,34.2859756 C62.2765549,33.8746951 62.3765549,33.4603659 62.2244207,32.9359756 C61.9780793,32.0865854 62.0948476,31.242378 62.5475915,30.4740854 C62.9555183,29.7823171 63.6485061,29.7396341 64.1015549,30.3984756 C64.8610061,31.502439 64.9399695,32.7161585 64.4927134,33.9527439 C64.2759451,34.5515244 63.9622256,34.6853659 63.1366159,34.6942073 C62.25125,36.4051829 60.871372,37.6439024 59.1018598,38.4920732 C59.3320427,39.3490854 59.5500305,40.1591463 59.7985061,41.0835366 C61.2881402,41.1091463 62.7881402,41.1073171 64.3024695,41.0829268 C64.4399695,40.6884146 64.5384451,40.3612805 64.6680183,40.047561 C64.8155793,39.6908537 65.0546037,39.3929878 65.4689329,39.3786585 C65.8857012,39.3643293 66.1491159,39.6460366 66.3064329,39.9972561 C66.7616159,41.0118902 66.8308232,42.0371951 66.3116159,43.0551829 C66.1366159,43.3987805 65.878689,43.6807927 65.4646646,43.6655488 C65.0506402,43.65 64.8128354,43.35 64.6664939,42.9932927 C64.5454573,42.6978659 64.4573476,42.3884146 64.3591768,42.0990854 C63.8357012,41.9118902 60.6119207,41.872561 59.7820427,42.0478659 C59.5674085,42.8335366 59.3457622,43.6448171 59.1049085,44.5262195 C60.7924085,45.3990854 62.236311,46.5698171 63.1024695,48.3106707 C64.2503354,48.4426829 64.6515549,48.8734756 64.7247256,50.0262195 C64.7765549,50.8417683 64.7091768,51.6323171 64.2881402,52.3621951 C64.0597866,52.7585366 63.7954573,53.110061 63.2921037,53.097561 C62.7664939,53.0847561 62.5634451,52.6634146 62.38875,52.2603659 C62.0774695,51.5411585 62.0265549,50.7929878 62.2308232,50.0341463 C62.3158841,49.7179878 62.3704573,49.4259146 62.1866159,49.1082317 C61.3594817,47.6789634 60.2378354,46.5588415 58.7753354,45.7856707 C58.6975915,45.7442073 58.6058232,45.7295732 58.4744207,45.6881098 C58.3091768,45.9070122 58.1482012,46.1210366 57.9503354,46.3835366 C60.4485061,49.189939 61.0631402,52.6237805 61.2829573,56.1469512 C62.3049085,56.9990854 62.556128,58.2609756 61.9878354,59.6689024 C61.8607012,59.9844512 61.691189,60.2990854 61.4753354,60.5597561 C60.8210671,61.3490854 60.116189,61.2259146 59.7789939,60.2628049 C59.4369207,59.2859756 59.4622256,58.2942073 59.9799085,57.3960366 C60.2927134,56.8530488 60.3421037,56.3341463 60.2564329,55.7506098 C60.0826524,54.5707317 59.993628,53.3740854 59.7494207,52.2091463 C59.4122256,50.6 58.7960671,49.0893293 57.7756402,47.7719512 C57.623811,47.5762195 57.456128,47.3926829 57.308872,47.2189024 C56.6247256,47.4908537 56.5256402,47.5625 56.5768598,48.1731707 C56.6530793,49.0859756 56.7808232,49.9972561 56.9332622,50.9012195 C57.2997256,53.0789634 57.6085671,55.2603659 57.5369207,57.477439 C57.528689,57.7301829 57.5451524,57.9887195 57.4951524,58.2335366 C57.3722866,58.8381098 57.4091768,59.375 57.7421037,59.9426829 C57.9732012,60.3365854 58.0634451,60.8664634 58.061311,61.335061 C58.0518598,63.2365854 57.5948476,65.0222561 56.4692378,66.5905488 C56.2850915,66.847561 56.053689,67.0905488 55.7954573,67.2704268 C55.2177134,67.6728659 54.686311,67.5009146 54.3902744,66.8634146 C54.0789939,66.1926829 54.066189,65.4768293 54.1134451,64.7646341 C54.2158841,63.2292683 54.5235061,61.7134146 55.4869207,60.4957317 C56.0704573,59.7585366 56.1991159,59.0359756 56.1991159,58.1646341 C56.1991159,55.4884146 55.983872,52.8402439 55.3485061,50.2362805 C55.25125,49.8378049 55.0884451,49.4512195 54.9195427,49.0756098 C54.8341768,48.8847561 54.6680183,48.7301829 54.4308232,48.417378 C54.3280793,48.8036585 54.2506402,49.0091463 54.2207622,49.2213415 C53.8978963,51.5176829 53.5841768,53.8152439 53.2640549,56.1118902 C52.523811,61.4198171 51.1896646,66.5689024 49.0414939,71.4865854 C48.3335671,73.1067073 47.4881402,74.6667683 46.7228963,76.2621951 C46.6219817,76.472561 46.5421037,76.7493902 46.5893598,76.9655488 C47.0707622,79.1689024 45.4369207,81.9426829 43.7530793,82.7317073 C43.6521646,82.7792683 43.5671037,82.8609756 43.4747256,82.9268293 L42.646372,82.9268293 Z" id="Fill-1"></path>
                    <path d="M196.460305,42.594878 C196.293841,40.8241463 194.976463,39.7982317 193.068232,39.8860366 C191.534695,39.9567683 190.26061,41.1564634 190.257256,42.594878 L196.460305,42.594878 Z M199.983171,45.1107317 C199.272195,45.1232317 198.560915,45.1451829 197.849634,45.1467073 C195.574939,45.1512805 193.299939,45.1482317 191.025244,45.1482317 L190.277378,45.1482317 C190.339878,46.4933537 191.438963,47.6668293 192.840183,47.979939 C194.318232,48.310122 195.657256,47.9567683 196.919756,47.1936585 C197.094756,47.0878659 197.257561,46.9616463 197.506037,46.7890854 C198.032256,47.5485366 198.5475,48.292439 199.104207,49.0960976 C198.917317,49.2710976 198.7725,49.4427439 198.594756,49.567439 C196.216707,51.2354268 192.247805,51.6613415 189.515793,49.9616463 C187.787744,48.8866463 186.806951,47.307378 186.481341,45.3305488 C186.177073,43.4829878 186.453293,41.7146951 187.451768,40.100061 C188.919146,37.7265854 191.590488,36.6238415 194.266098,36.9991463 C197.201159,37.4110366 198.985915,39.1613415 199.764573,41.9872561 C199.824329,42.2040244 199.909695,42.4137805 199.983171,42.6265854 L199.983171,45.1107317 Z" id="Fill-3"></path>
                    <path d="M78.6943293,50.6793598 L74.6885366,50.6793598 L74.6885366,32.2872866 L78.6806098,32.2872866 C78.7092683,33.5857622 78.6903659,34.8854573 78.6937195,36.1845427 C78.6970732,37.4839329 78.6943293,38.783628 78.6943293,40.2531402 C80.8812195,37.4970427 82.9610976,34.8757012 85.0141463,32.2882012 L90.0208537,32.2882012 C87.5504268,35.2116768 85.1708537,38.0272256 82.7479878,40.8942988 C85.332439,44.1333232 87.890061,47.3385061 90.53,50.6473476 C90.1958537,50.6894207 90.0010366,50.7345427 89.8059146,50.7354573 C88.5873171,50.7421646 87.3687195,50.7260061 86.1504268,50.7458232 C85.7379268,50.7528354 85.4793902,50.5973476 85.234878,50.271128 C83.6781707,48.1921646 82.1019512,46.1281402 80.5309146,44.0601524 C80.3931098,43.8784451 80.2492073,43.701311 80.0364024,43.4314939 C79.5885366,43.9753963 79.1534756,44.4665549 78.7693293,44.9946037 C78.6653659,45.1375915 78.6979878,45.3924695 78.697378,45.596128 C78.6918902,47.0214329 78.6943293,48.4470427 78.6943293,49.8726524 L78.6943293,50.6793598 Z" id="Fill-5"></path>
                    <path d="M94.477561,43.8792988 C94.5714634,44.4472866 94.6034756,44.9570427 94.7440244,45.4347866 C95.1382317,46.7735061 96.1562195,47.6064329 97.4531707,47.7372256 C98.890061,47.8817378 99.9967683,47.3283841 100.655915,46.0695427 C101.3675,44.7097866 101.371463,43.2783841 100.660488,41.9030793 C100.043415,40.7085671 98.9995122,40.1256402 97.6717683,40.1960671 C96.282439,40.2698476 95.2985976,41.0039939 94.8293902,42.3289939 C94.6485976,42.8390549 94.584878,43.391189 94.477561,43.8792988 M90.7354878,44.0555183 C90.7269512,40.2671037 93.1967683,37.1951524 97.287622,36.9533841 C102.039146,36.6722866 104.683659,39.9222866 104.920854,43.3634451 C105.202256,47.4402744 102.632134,50.8564329 98.1836585,51.0381402 C93.9147561,51.2125305 90.8284756,48.3692378 90.7354878,44.0555183" id="Fill-7"></path>
                    <path d="M132.535823,42.601128 C132.624238,41.1404573 131.310823,39.9282622 129.651067,39.8794817 C127.852896,39.8267378 126.375762,41.041372 126.39253,42.601128 L132.535823,42.601128 Z M136.10564,45.1572256 L126.380945,45.1572256 C126.633689,46.8755183 127.990701,48.0410671 129.808689,48.1026524 C131.033689,48.1444207 132.166616,47.8047866 133.186738,47.1133232 C133.300152,47.0364939 133.412043,46.9578354 133.526372,46.8822256 C133.54375,46.8709451 133.570579,46.8739939 133.694055,46.8535671 C134.183079,47.5596646 134.697713,48.3026524 135.258079,49.1117988 C135.04497,49.2935061 134.878506,49.4797866 134.674238,49.6029573 C131.785518,51.34625 128.795884,51.6328354 125.780335,50.0133232 C123.816006,48.9584451 122.823933,47.1532622 122.572713,44.9855793 C122.287043,42.5194207 122.955335,40.3346646 124.84375,38.6303963 C128.055335,35.731311 134.58003,36.2590549 135.962348,42.1956402 C136.252591,43.4428963 136.29314,44.3303963 136.10564,45.1572256 L136.10564,45.1572256 Z" id="Fill-9"></path>
                    <path d="M180.58939,50.6891768 L176.7025,50.6891768 C174.924451,46.2550305 173.145488,41.8193598 171.329634,37.2907012 L175.221402,37.2907012 C176.335122,40.2516768 177.454634,43.2272866 178.635122,46.3644817 C179.809512,43.2330793 180.924756,40.2608232 182.05372,37.2510671 C183.357378,37.2440549 184.60372,37.1849085 185.964695,37.2964939 C184.148537,41.821189 182.374756,46.2407012 180.58939,50.6891768" id="Fill-11"></path>
                    <path d="M148.589695,46.2654573 C149.483293,47.0974695 150.233902,47.79625 150.968659,48.4807012 C149.94,50.3980793 146.765915,51.636189 143.529634,50.7584451 C140.45128,49.923689 138.49061,47.1956402 138.541829,43.8178963 C138.592134,40.5096646 140.69061,37.8447256 143.855854,37.1300915 C146.829634,36.45875 149.867744,37.4965549 150.963171,39.4633232 C150.231768,40.15875 149.487561,40.866372 148.721402,41.5947256 C148.580854,41.488628 148.461037,41.423689 148.374451,41.3285671 C147.324146,40.1733841 146.042439,39.9331402 144.608293,40.4148476 C143.210122,40.8843598 142.522317,41.9639329 142.351585,43.3578354 C142.198841,44.6026524 142.404329,45.7910671 143.333293,46.7459451 C144.6525,48.1020427 146.890305,48.1221646 148.228415,46.7819207 C148.355549,46.6544817 148.43939,46.48375 148.589695,46.2654573" id="Fill-13"></path>
                    <path d="M162.041707,50.0998171 C161.239878,50.8437195 160.304512,50.9839634 159.366098,51.0357927 C158.82372,51.0653659 158.25939,51.0040854 157.729207,50.8803049 C156.132561,50.5077439 155.24628,49.3665854 155.233476,47.6925 C155.217317,45.5559146 155.229207,43.4193293 155.228902,41.2827439 L155.228902,40.4659756 L153.075854,40.4659756 L153.075854,37.2513415 L155.215793,37.2513415 L155.215793,33.6903659 L158.84811,33.6903659 L158.84811,37.215061 L161.495671,37.215061 C161.646585,38.3287805 161.59811,39.3458537 161.532561,40.4431098 L158.936829,40.4431098 C158.913659,40.6946341 158.88378,40.8714634 158.883476,41.0482927 C158.879817,42.7943293 158.881037,44.5403659 158.881341,46.2860976 C158.881341,46.3781707 158.878902,46.4705488 158.885915,46.5620122 C158.953902,47.4168902 159.46122,47.837622 160.322805,47.7235976 C160.612439,47.6854878 160.892622,47.5790854 161.286829,47.4748171 C161.533476,48.3318293 161.781951,49.1970732 162.041707,50.0998171" id="Fill-15"></path>
                    <path d="M119.33122,50.661189 C118.152561,50.8142378 116.993415,50.72125 115.856829,50.7227744 C115.648902,50.1593598 115.608963,33.0648476 115.801951,32.2800915 L119.33122,32.2800915 L119.33122,50.661189 Z" id="Fill-17"></path>
                    <polygon id="Fill-19" points="108.105183 32.2771341 111.642988 32.2771341 111.642988 50.6737805 108.105183 50.6737805"></polygon>
                    <path d="M165.488384,37.2892988 L168.954848,37.2892988 C169.121006,37.8085061 169.182287,49.4859451 169.022835,50.6853354 C167.866128,50.7804573 166.695091,50.7597256 165.488384,50.691128 L165.488384,37.2892988 Z" id="Fill-21"></path>
                    <path d="M167.343872,35.1683841 C166.144177,35.1799695 165.226799,34.2955183 165.219482,33.1202134 C165.212165,31.9668598 166.096006,31.0577134 167.242348,31.0394207 C168.44936,31.0199085 169.343262,31.8906402 169.348445,33.0903354 C169.353323,34.2696037 168.497226,35.1574085 167.343872,35.1683841" id="Fill-22"></path>
                </g>
            </g>
        </g>
    </g>
</svg>