<?xml version="1.0" encoding="UTF-8" standalone="no"?>
<svg width="200px" height="38px" viewBox="0 0 200 38" version="1.1" xmlns="http://www.w3.org/2000/svg" xmlns:xlink="http://www.w3.org/1999/xlink">
    <!-- Generator: Sketch 46 (44423) - http://www.bohemiancoding.com/sketch -->
    <title>Protect</title>
    <desc>Created with Sketch.</desc>
    <defs></defs>
    <g id="CLIENTS-BANNERS" stroke="none" stroke-width="1" fill="none" fill-rule="evenodd">
        <g id="Protectimus" transform="translate(-60.000000, -58.000000)" fill="#FFFFFF">
            <g id="Logo" transform="translate(60.000000, 58.000000)">
                <g id="Protect">
                    <path d="M66.6307463,30.6279744 L66.6307463,26.8484435 C66.6307463,26.4936461 66.3416205,26.2066525 65.9842644,26.2066525 L60.495565,26.2066525 L60.495565,31.2680597 L65.9842644,31.2680597 C66.3416205,31.2680597 66.6307463,30.9823454 66.6307463,30.6279744 L66.6307463,30.6279744 Z M85.3224307,34.3034542 C84.9637953,34.3034542 84.6772281,34.0147548 84.6772281,33.6582516 L84.6772281,26.8484435 C84.6772281,26.4936461 84.9637953,26.2066525 85.3224307,26.2066525 L90.4772281,26.2066525 C90.8328785,26.2066525 91.1215778,26.4936461 91.1215778,26.8484435 L91.1215778,33.6582516 C91.1215778,34.0147548 90.8328785,34.3034542 90.4772281,34.3034542 L85.3224307,34.3034542 Z M81.5390618,33.8714712 C81.5390618,35.0970576 83.769339,37.33629 85.0064392,37.33629 L90.7970576,37.33629 C92.0307463,37.33629 94.2610235,35.0970576 94.2610235,33.8714712 L94.2610235,26.638209 C94.2610235,25.4147548 92.0307463,23.1725373 90.7970576,23.1725373 L85.0064392,23.1725373 C83.769339,23.1725373 81.5390618,25.4147548 81.5390618,26.638209 L81.5390618,26.9004691 L81.5390618,27.0301066 L81.5390618,33.8714712 Z M102.527974,26.2066525 L102.527974,37.1512154 C102.527974,37.2573987 102.442687,37.3401279 102.340341,37.3401279 L99.5795736,37.3401279 C99.4776546,37.3401279 99.3893817,37.2573987 99.3893817,37.1512154 L99.3893817,26.2066525 L95.5326652,26.2066525 C95.4281876,26.2066525 95.3446055,26.1205117 95.3446055,26.0164606 L95.3446055,23.3614499 C95.3446055,23.2552665 95.4281876,23.1725373 95.5326652,23.1725373 L106.385544,23.1725373 C106.491301,23.1725373 106.577441,23.2552665 106.577441,23.3614499 L106.577441,26.0164606 C106.577441,26.1205117 106.491301,26.2066525 106.385544,26.2066525 L102.527974,26.2066525 Z M139.565075,26.2066525 L139.565075,37.1512154 C139.565075,37.2573987 139.481919,37.3401279 139.375736,37.3401279 L136.621791,37.3401279 C136.51774,37.3401279 136.428614,37.2573987 136.428614,37.1512154 L136.428614,26.2066525 L134.9429,26.2066525 L132.568486,26.2066525 C132.469552,26.2066525 132.38,26.1205117 132.38,26.0164606 L132.38,23.3614499 C132.38,23.2552665 132.469552,23.1725373 132.568486,23.1725373 L143.427761,23.1725373 C143.527548,23.1725373 143.6171,23.2552665 143.6171,23.3614499 L143.6171,26.0164606 C143.6171,26.1205117 143.527548,26.2066525 143.427761,26.2066525 L139.565075,26.2066525 Z M145.472537,23.1725373 L148.228188,23.1725373 C148.32968,23.1725373 148.416674,23.2552665 148.416674,23.3614499 L148.416674,37.1512154 C148.416674,37.2573987 148.32968,37.3401279 148.228188,37.3401279 L145.472537,37.3401279 C145.36678,37.3401279 145.281919,37.2573987 145.281919,37.1512154 L145.281919,23.3614499 C145.281919,23.2552665 145.36678,23.1725373 145.472537,23.1725373 L145.472537,23.1725373 Z M107.835011,33.8714712 C107.835011,35.0970576 110.06145,37.33629 111.300256,37.33629 C112.646098,37.33629 113.992793,37.3401279 115.337783,37.3401279 L118.729254,37.3401279 C118.831173,37.3401279 118.918593,37.2573987 118.918593,37.1512154 L118.918593,34.4923667 C118.918593,34.3861834 118.832878,34.3034542 118.729254,34.3034542 L111.612836,34.3034542 C111.257612,34.3034542 110.968486,34.0147548 110.968486,33.6582516 L110.968486,31.8019616 L114.179574,31.8019616 L116.945458,31.8019616 L117.569765,31.8019616 C117.675949,31.8019616 117.761237,31.7124094 117.761237,31.6079318 L117.761237,28.9507889 C117.761237,28.8497228 117.675949,28.7623028 117.569765,28.7623028 L115.559531,28.7623028 L110.968486,28.7623028 L110.968486,26.8484435 C110.968486,26.4936461 111.257612,26.2066525 111.612836,26.2066525 L118.729254,26.2066525 C118.831173,26.2066525 118.918593,26.1205117 118.918593,26.0164606 L118.918593,23.3614499 C118.918593,23.2552665 118.832878,23.1725373 118.729254,23.1725373 L116.718593,23.1725373 L111.281066,23.1725373 C110.028614,23.1878891 107.835011,25.3222175 107.835011,26.5844776 L107.835011,33.8714712 Z M120.570192,33.8714712 C120.570192,35.0970576 122.800469,37.33629 124.037143,37.33629 L124.429467,37.33629 C124.442687,37.33629 124.453774,37.3401279 124.468273,37.3401279 L127.243113,37.3401279 L130.009424,37.3401279 L130.631599,37.3401279 C130.740768,37.3401279 130.821365,37.2573987 130.821365,37.1512154 L130.821365,34.4923667 C130.821365,34.3861834 130.740768,34.3034542 130.631599,34.3034542 L124.346738,34.3034542 C123.991514,34.3034542 123.703667,34.0147548 123.703667,33.6582516 L123.703667,26.8484435 C123.703667,26.4936461 123.991514,26.2066525 124.346738,26.2066525 L130.631599,26.2066525 C130.740768,26.2066525 130.821365,26.1205117 130.821365,26.0164606 L130.821365,23.3614499 C130.821365,23.2552665 130.740768,23.1725373 130.631599,23.1725373 L127.638422,23.1725373 L124.037143,23.1725373 C122.778721,23.1725373 120.570192,25.3234968 120.570192,26.5844776 L120.570192,33.8714712 Z M160.55484,24.1652878 C159.910064,23.5917271 159.190661,23.1725373 158.660597,23.1725373 L154.538635,23.1725373 C153.301535,23.1878891 151.08533,25.4177399 151.08533,26.638209 L151.08533,37.1512154 C151.08533,37.2573987 151.16806,37.3401279 151.272111,37.3401279 L154.031599,37.3401279 C154.13565,37.3401279 154.221791,37.2573987 154.221791,37.1512154 L154.221791,26.8484435 C154.221791,26.4936461 154.508785,26.2066525 154.866141,26.2066525 L155.952281,26.2066525 L158.342473,26.2066525 C158.693006,26.2066525 158.976588,26.4881023 158.985544,26.830533 L158.985544,37.1512154 C158.985544,37.2573987 159.073817,37.3401279 159.175736,37.3401279 L161.932665,37.3401279 C162.03629,37.3401279 162.122857,37.2573987 162.122857,37.1512154 L162.122857,26.830533 C162.133518,26.486823 162.420085,26.2066525 162.765928,26.2066525 L163.777015,26.2066525 L166.248657,26.2066525 C166.601748,26.2066525 166.888316,26.4936461 166.888316,26.8484435 L166.888316,37.1512154 C166.888316,37.2573987 166.976588,37.3401279 167.07936,37.3401279 L169.837143,37.3401279 C169.93693,37.3401279 170.02435,37.2573987 170.02435,37.1512154 L170.02435,27.0522814 L170.026055,26.9004691 L170.026055,26.638209 C170.026055,25.4147548 167.793646,23.1725373 166.56209,23.1725373 L162.453774,23.1725373 C161.916461,23.1725373 161.202175,23.5917271 160.55484,24.1652878 L160.55484,24.1652878 Z M181.806439,23.3614499 C181.806439,23.2552665 181.892154,23.1725373 181.998763,23.1725373 L184.754414,23.1725373 C184.856333,23.1725373 184.943326,23.2552665 184.943326,23.3614499 L184.943326,33.8714712 C184.943326,35.0970576 182.712196,37.33629 181.475949,37.33629 L176.159957,37.33629 C174.928401,37.33629 172.695565,35.0970576 172.695565,33.8714712 L172.695565,23.3614499 C172.695565,23.2552665 172.779147,23.1725373 172.884478,23.1725373 L175.643113,23.1725373 C175.748017,23.1725373 175.829041,23.2552665 175.829041,23.3614499 L175.829041,33.6582516 C175.829041,34.0147548 176.119019,34.3034542 176.472537,34.3034542 L181.162942,34.3034542 C181.519446,34.3034542 181.806439,34.0147548 181.806439,33.6582516 L181.806439,23.3614499 Z M187.062303,26.6096375 C187.098977,25.3755224 189.303241,23.1768017 190.523284,23.1768017 C193.321151,23.1768017 196.127548,23.1725373 198.923284,23.1725373 C199.028188,23.1725373 199.112623,23.2552665 199.112623,23.3614499 L199.112623,26.0164606 C199.112623,26.1205117 199.028188,26.2066525 198.923284,26.2066525 L190.840128,26.2066525 C190.485757,26.2066525 190.196631,26.4970576 190.196631,26.8561194 L190.196631,28.0962047 C190.196631,28.4501493 190.485757,28.7358635 190.840128,28.7358635 L196.47467,28.7358635 C197.739915,28.7358635 199.942047,30.8953518 199.942047,32.1588913 L199.942047,33.8714712 C199.942047,35.0970576 197.71177,37.33629 196.47467,37.33629 C193.466141,37.33629 190.456333,37.3401279 187.447377,37.3401279 C187.343326,37.3401279 187.256333,37.2573987 187.256333,37.1529211 L187.256333,34.4923667 C187.256333,34.3849041 187.34162,34.3034542 187.447377,34.3034542 L196.158678,34.3034542 C196.513475,34.3034542 196.802601,34.0147548 196.802601,33.6582516 L196.802601,32.4143284 C196.802601,32.0646482 196.513475,31.7746695 196.158678,31.7746695 L195.956972,31.7746695 L190.523284,31.7746695 C189.293006,31.7746695 187.058038,29.5315991 187.061023,28.3094243 L187.062303,26.6096375 Z M71.8810661,26.638209 C71.8810661,25.4177399 74.1011087,23.1878891 75.3373561,23.1725373 L80.2657143,23.1725373 C80.3727505,23.1725373 80.4533475,23.2552665 80.4533475,23.3614499 L80.4533475,26.0164606 C80.4533475,26.1205117 80.3727505,26.2066525 80.2657143,26.2066525 L75.6533475,26.2066525 C75.3049467,26.2147548 75.0183795,26.4970576 75.0183795,26.8484435 L75.0183795,37.33629 C75.0183795,37.4394883 74.930533,37.5264819 74.8298934,37.5264819 L72.0716844,37.5264819 C71.9663539,37.5264819 71.8810661,37.4394883 71.8810661,37.33629 L71.8810661,27.0522814 L71.8810661,26.9004691 L71.8810661,26.638209 Z M57.5578252,23.1725373 L62.4755224,23.1725373 L66.3028145,23.1725373 C67.5369296,23.1725373 69.7646482,25.4147548 69.7646482,26.638209 L69.7646482,30.8407676 C69.7646482,32.2949254 67.7591045,34.3055864 66.3028145,34.3055864 L60.495565,34.3055864 L60.495565,37.1456716 C60.495565,37.2514286 60.4128358,37.33629 60.3117697,37.33629 L57.5578252,37.33629 C57.4482303,37.33629 57.3650746,37.2514286 57.3650746,37.1456716 L57.3650746,23.3614499 C57.3650746,23.2552665 57.4482303,23.1725373 57.5578252,23.1725373 L57.5578252,23.1725373 Z" id="Fill-1"></path>
                    <path d="M37.7249041,15.0492111 L22.3470789,15.0492111 L13.3564606,27.8858849 L22.3470789,27.8858849 L18.0293817,34.046226 C16.2976119,34.046226 14.5654158,34.050064 12.8332196,34.046226 C7.5863113,34.046226 3.33428571,29.7903625 3.33428571,24.5408955 C3.33428571,20.5860981 5.75006397,17.1946269 9.19441365,15.7673348 C10.2272495,15.3404691 11.4204264,15.0492111 12.5457996,15.0492111 C13.1927079,8.66754797 18.5807676,3.6841791 25.135565,3.6841791 C31.6865245,3.6841791 37.0767164,8.66754797 37.7249041,15.0492111 M41.2797015,24.5566738 L19.6984648,24.5566738 L24.0225586,18.3779957 L41.7432409,18.3779957 C45.9573134,18.516162 49.328742,21.9745842 49.328742,26.221919 C49.328742,28.1370576 48.6170149,30.0040085 47.3419616,31.4419616 C45.8643497,33.1055011 43.7035821,34.0701066 41.4809808,34.0701066 L30.6818337,34.0701066 L28.3445203,37.400597 L41.391855,37.400597 C47.570533,37.446226 52.6622175,32.3886567 52.6622175,26.2065672 C52.6622175,20.0317271 47.6494243,15.0172281 41.4720256,15.0172281 C41.33258,15.0172281 41.2029424,15.0244776 41.0643497,15.0261834 C40.395693,6.81552239 33.5159488,0.359232409 25.135565,0.359232409 C17.7799147,0.359232409 11.5837527,5.32767591 9.72319829,12.0965458 C4.13940299,13.4948401 -4.26439233e-05,18.5396162 -4.26439233e-05,24.5566738 C-4.26439233e-05,31.6457996 5.75219616,37.400597 12.8472921,37.400597 L19.6929211,37.400597 L26.3543284,27.8858849 L41.283113,27.8858849 C42.1973987,27.8973987 42.9573134,27.1289552 42.9573134,26.221919 C42.9573134,25.3029424 42.1961194,24.548145 41.2797015,24.5566738" id="Fill-4"></path>
                </g>
            </g>
        </g>
    </g>
</svg>