<?xml version="1.0" encoding="UTF-8" standalone="no"?>
<svg width="200px" height="71px" viewBox="0 0 200 71" version="1.1" xmlns="http://www.w3.org/2000/svg" xmlns:xlink="http://www.w3.org/1999/xlink">
    <!-- Generator: Sketch 46 (44423) - http://www.bohemiancoding.com/sketch -->
    <title>Taurus</title>
    <desc>Created with Sketch.</desc>
    <defs></defs>
    <g id="CLIENTS-BANNERS" stroke="none" stroke-width="1" fill="none" fill-rule="evenodd">
        <g id="Taurus" transform="translate(-60.000000, -58.000000)" fill="#FFFFFF">
            <g id="Logo" transform="translate(60.000000, 58.000000)">
                <g id="Taurus">
                    <path d="M13.3159916,12.097453 C13.1291441,12.097453 12.9443841,12.0143633 12.8207933,11.8552818 C12.6086848,11.5820042 12.6583716,11.1886848 12.9314405,10.9763674 C18.8326931,6.3936952 25.9107724,3.97135699 33.4005428,3.97135699 C40.6439666,3.97135699 47.5349896,6.25152401 53.328309,10.5648852 C53.605762,10.771357 53.6631733,11.1638413 53.4567015,11.4412944 C53.2500209,11.7189562 52.8577453,11.7763674 52.5802923,11.5696868 C47.0047182,7.41832985 40.3725678,5.2239666 33.4005428,5.2239666 C26.1915658,5.2239666 19.3792484,7.55528184 13.6997077,11.965929 C13.5855115,12.0544468 13.4502296,12.097453 13.3159916,12.097453" id="Fill-1"></path>
                    <path d="M33.4004593,70.7724426 C14.9833403,70.7724426 4.17536535e-05,55.7889353 4.17536535e-05,37.3718163 C4.17536535e-05,31.8427975 1.3793737,26.3647182 3.98876827,21.5298539 C4.15286013,21.225261 4.53302714,21.111691 4.83741127,21.2762004 C5.14179541,21.440501 5.25536534,21.8204593 5.09106472,22.1248434 C2.58,26.777453 1.25265136,32.0498956 1.25265136,37.3718163 C1.25265136,55.0983299 15.6741545,69.519833 33.4004593,69.519833 C51.1269729,69.519833 65.548476,55.0983299 65.548476,37.3718163 C65.548476,32.2045929 64.3599582,27.2703549 62.0161169,22.7064718 C61.8580793,22.3987474 61.9795825,22.0210856 62.2870981,21.8632568 C62.5948225,21.7052192 62.9724843,21.8265136 63.1303132,22.1340292 C65.5660125,26.8770355 66.8010856,32.0037578 66.8010856,37.3718163 C66.8010856,55.7889353 51.8175783,70.7724426 33.4004593,70.7724426" id="Fill-3"></path>
                    <path d="M102.499708,33.7461587 C101.791357,30.1469937 101.169436,26.6175574 99.8951148,23.2144259 C98.737286,26.6419833 98.3627557,30.2129645 97.371524,33.7461587 L102.499708,33.7461587 Z M95.6473069,18.1021086 L104.077787,18.1021086 C106.636033,26.204405 109.18739,34.2847808 111.766514,42.4532568 L104.965261,42.4532568 C104.589269,41.1069102 104.209729,39.7486639 103.816618,38.3405219 L96.0767432,38.3405219 C95.6863466,39.6914614 95.2871816,41.0726722 94.8853027,42.4630689 L88.0550313,42.4630689 C90.5946973,34.3137996 93.1086848,26.2478288 95.6473069,18.1021086 L95.6473069,18.1021086 Z" id="Fill-5"></path>
                    <path d="M145.011065,29.7375574 C147.40167,30.3206472 148.930063,29.0651148 149.71524,27.8001879 C150.581002,26.4054071 150.549269,25.0337996 149.639457,23.8208559 C148.558038,22.3793111 146.742171,21.7408977 145.011065,22.221691 L145.011065,29.7375574 Z M151.542797,42.4492484 C149.912317,39.475762 148.295407,36.5275365 146.671608,33.5661587 L144.970772,33.5661587 L144.970772,42.46762 L138.740292,42.46762 L138.740292,18.1340084 C139.070564,18.103737 139.372025,18.0494572 139.673069,18.05238 C142.522547,18.0795198 145.374322,18.0584342 148.220042,18.1797286 C149.345929,18.2277453 150.501044,18.4743006 151.568267,18.8452818 C155.151983,20.090167 156.196033,23.15238 155.789144,26.3041545 C155.510647,28.4632359 154.368476,30.1068685 152.573486,31.3120877 C152.373695,31.4463257 152.179332,31.5880793 151.870981,31.804572 C154.098121,35.3308768 156.311065,38.8346347 158.594154,42.4492484 L151.542797,42.4492484 Z" id="Fill-7"></path>
                    <path d="M128.237223,18.7191232 C130.35309,18.5038831 132.371879,18.2984551 134.48023,18.0840501 C134.502568,18.5683925 134.531587,18.9082672 134.531795,19.248142 C134.534927,23.7711065 134.553925,28.2942797 134.522192,32.8172443 C134.511545,34.3431315 134.332839,35.8564927 133.78858,37.3113987 C132.820104,39.9001253 131.018852,41.6333194 128.396305,42.416618 C125.855177,43.1754906 123.263319,43.1746555 120.682109,42.5258038 C117.366868,41.6924008 114.83785,39.1395825 114.447244,34.9364509 C114.273967,33.0719415 114.324697,31.1846764 114.311127,29.3076409 C114.287954,26.0721503 114.293173,22.8364509 114.288789,19.6009603 C114.288789,19.4314405 114.312589,19.2619207 114.335971,18.9491858 C116.383152,18.662547 118.420522,18.3773695 120.599228,18.0725678 L120.599228,19.3404175 C120.599436,23.7938622 120.589833,28.2473069 120.609875,32.7007516 C120.612797,33.3890605 120.673758,34.0963674 120.842025,34.7610856 C121.30904,36.6088935 122.520522,37.6406263 124.808205,37.479666 C127.168539,37.3134864 127.919478,36.0118163 128.193591,33.7326931 C128.267704,33.1141127 128.235136,32.4815449 128.235553,31.8554489 C128.238685,27.9239248 128.237223,23.9924008 128.237223,20.0608768 L128.237223,18.7191232 Z" id="Fill-9"></path>
                    <path d="M159.965511,18.9530689 C162.084301,18.6591232 164.123549,18.3762422 166.295574,18.0749896 L166.295574,19.3618372 C166.295783,23.6735282 166.28263,27.985428 166.307474,32.2969102 C166.312276,33.1578706 166.367808,34.0405428 166.56572,34.873737 C166.976367,36.6046347 168.385971,37.5848017 170.197035,37.5307307 C172.185344,37.4716493 173.350898,36.5409603 173.71666,34.6449269 C173.85382,33.9342797 173.923758,33.2000418 173.927098,32.4762422 C173.946305,28.3037996 173.936701,24.1309395 173.936701,19.9582881 L173.936701,18.7186221 C176.001002,18.5058873 177.986597,18.3010856 180.0438,18.088977 C180.091608,18.4689353 180.154447,18.7334447 180.15382,18.9977453 C180.143173,24.0741545 180.23023,29.1536952 180.077829,34.225929 C179.939833,38.814238 177.12334,41.9896033 172.81833,42.7175783 C170.678038,43.0795825 168.537745,43.1063048 166.421253,42.5361587 C162.827933,41.5678914 160.516868,38.8810438 160.154656,35.202547 C160.039207,34.0298956 159.980543,32.8474322 159.973653,31.6689353 C159.951524,27.8440919 159.965511,24.0192484 159.965511,20.1941962 L159.965511,18.9530689 Z" id="Fill-11"></path>
                    <path d="M183.758163,35.5960125 C185.015157,36.1033194 186.168601,36.6740919 187.384885,37.0317119 C188.779248,37.4417328 190.223507,37.6880793 191.700752,37.3941336 C192.469436,37.2413152 193.109102,36.9321294 193.317662,36.1254489 C193.527474,35.3122965 193.147307,34.6736743 192.487599,34.2557203 C191.698664,33.7557203 190.857119,33.3377662 190.032902,32.8941336 C188.964217,32.3185595 187.865678,31.7943424 186.822881,31.1755532 C183.205762,29.0294154 182.872777,24.7905846 184.046889,21.8267015 C184.783215,19.96762 186.299499,18.835261 188.162965,18.2454906 C192.072568,17.0081211 195.823716,17.6824426 199.598455,19.3077035 C198.971315,20.950501 198.370271,22.5237787 197.729562,24.2014405 C197.328727,24.0400626 196.99595,23.8663674 196.641879,23.770334 C195.24334,23.3916284 193.840209,23.0292067 192.433737,22.6818163 C192.204509,22.6252401 191.947724,22.6615658 191.705553,22.6799374 C190.666305,22.7584342 189.890313,23.3077035 189.716827,24.0751357 C189.528309,24.9110438 189.808058,25.550501 190.786555,26.1275365 C191.891148,26.7791023 193.056701,27.3262839 194.18238,27.9434029 C195.064008,28.4267015 195.955866,28.901858 196.789687,29.4605219 C198.968601,30.9208559 199.763173,33.0711691 199.582797,35.5907933 C199.318914,39.2813987 197.407641,41.6348434 193.772985,42.5436117 C189.903257,43.5110438 186.148142,42.8849478 182.378205,41.3070772 C182.847933,39.3634447 183.307223,37.4624008 183.758163,35.5960125" id="Fill-13"></path>
                    <path d="M90.3919624,18.1217745 C89.8621086,20.0086221 89.3786013,21.7307516 88.8811065,23.5019415 L83.232881,23.5019415 C83.2226514,24.7990188 83.2092902,26.0309603 83.2044885,27.2631106 C83.1996868,28.5144676 83.2034447,29.7658246 83.2034447,31.0173904 L83.2034447,34.8758455 L83.2034447,38.6301253 L83.2034447,42.4416075 L76.8823591,42.4416075 L76.8823591,23.5345094 L71.4863257,23.5345094 L71.4863257,18.1217745 L90.3919624,18.1217745 Z" id="Fill-15"></path>
                    <path d="M19.5738413,20.6982463 C19.1725887,21.9875992 18.7784342,23.2800835 18.3341754,24.5546138 C18.1151775,25.1827975 18.055261,25.7596242 18.5005637,26.4523173 C19.4727975,25.6020042 20.4801044,24.9491858 21.7393946,25.1857203 C22.5072443,25.3299791 23.2418998,25.6702714 23.9790605,25.9548225 C24.8158038,26.2779958 25.6107933,26.8022129 26.473215,26.9485595 C28.7057829,27.3274739 29.3385595,27.1132777 30.4418998,25.2193319 C31.3857411,23.599499 31.7343841,21.8001253 31.3976409,19.9999165 C31.107453,18.448142 31.3679958,17.0527349 31.8348017,15.6251775 C32.1099582,14.7836326 32.3540084,13.9320668 32.6464927,12.9723591 C31.40119,13.1617119 30.2558873,13.0819624 29.2563048,13.8038831 C27.4130898,15.1347808 25.3627766,15.5884342 23.1414823,15.0128601 C21.7880376,14.6619207 20.6396033,15.1477244 19.4473278,15.7053445 C19.4874113,15.9704802 19.5174739,16.1704802 19.5481628,16.3702714 C19.7694572,17.8118163 20.0229019,19.2552401 19.5738413,20.6982463" id="Fill-17"></path>
                    <path d="M23.7207724,31.7818163 C24.958142,32.6310856 26.3132568,32.6129228 27.4669102,31.6479958 C29.0558455,30.3191858 30.2577244,28.6941336 30.9168058,26.6872443 C30.2447808,27.4707516 29.4756785,28.1490397 28.4161795,28.1780585 C26.6038622,28.2277453 24.7664927,28.1296242 23.2289144,27.0390188 C21.9155532,26.107286 19.7422756,26.3550939 18.6560543,27.6926722 C19.0692067,29.2306681 19.0867432,29.1834864 20.5209812,29.7160543 C21.2535491,29.9880793 21.9276618,30.4367223 22.5946764,30.8588518 C23.0017745,31.116263 23.3218163,31.5079123 23.7207724,31.7818163" id="Fill-19"></path>
                    <path d="M25.5209812,46.4011065 C25.4998956,47.6182255 25.9337161,48.7470355 26.9159708,49.7487056 C27.7735908,48.6403549 28.5541754,47.6288727 29.3378914,46.6196868 C30.0623173,45.6869102 30.247286,44.6413987 30.1021921,43.4812735 C29.8462422,41.4311691 29.1497912,39.5150939 28.4161795,37.6073695 C28.0731733,36.7155115 27.9049061,35.81238 28.0756785,34.8591441 C28.2143006,34.084405 28.3387265,33.3071608 28.4953027,32.376263 C27.6767223,33.4495407 26.6683716,33.7370146 25.4819415,33.6810647 C24.2618998,33.6234447 23.2767223,33.1894154 22.4806889,32.2562213 C21.8765136,31.5480793 21.2506263,30.8353445 20.035595,30.6867015 C20.2667015,30.9307516 20.3917537,31.0489144 20.5007307,31.1802296 C21.895929,32.8622756 23.3662839,34.4889979 24.6606472,36.2453653 C25.9710856,38.0234447 26.347286,40.0704175 25.9570981,42.2779332 C25.7170146,43.6370146 25.5449896,45.0236534 25.5209812,46.4011065" id="Fill-21"></path>
                    <path d="M32.1877035,20.0756994 C32.3056576,21.1097286 32.3975157,22.1470981 32.5279958,23.1794572 C32.8361378,25.6176618 32.2831106,27.8397912 31.0012735,29.9314405 C30.3707933,30.9606681 29.8613987,32.0711065 29.3753862,33.1790397 C29.0528392,33.9143215 28.9716284,34.7022129 29.2073278,35.5182881 C29.7357203,37.3479332 30.1591023,39.2099374 30.7415658,41.0214196 C31.1183925,42.1934447 31.3570146,43.3546138 31.3691232,44.5842589 C31.3776827,45.4333194 31.1106681,46.11119 30.5785177,46.7702714 C29.5758038,48.0120251 28.616096,49.2915658 27.7025261,50.600334 C27.3221503,51.145428 27.1062839,51.8053445 26.7482463,52.5537787 C27.2355115,52.5285177 27.513382,52.5479332 27.7766388,52.4951148 C29.1945929,52.2093111 30.5908351,52.200334 31.9918789,52.6358246 C32.3409395,52.7443841 32.7672443,52.742714 33.1348852,52.6596242 C33.5025261,52.742714 33.9290397,52.7443841 34.2781002,52.6358246 C35.6791441,52.200334 37.0753862,52.2093111 38.4933403,52.4951148 C38.7565971,52.5479332 39.0344676,52.5285177 39.5217328,52.5537787 C39.1636952,51.8053445 38.9478288,51.145428 38.567453,50.600334 C37.6538831,49.2915658 36.6939666,48.0120251 35.6912526,46.7702714 C35.1591023,46.11119 34.8922965,45.4333194 34.9008559,44.5842589 C34.9129645,43.3546138 35.1513779,42.1934447 35.5282046,41.0214196 C36.1108768,39.2099374 36.5340501,37.3479332 37.0626514,35.5182881 C37.2983507,34.7022129 37.2169311,33.9143215 36.8943841,33.1790397 C36.4083716,32.0711065 35.898977,30.9606681 35.2684969,29.9314405 C33.9868685,27.8397912 33.4336326,25.6176618 33.7417745,23.1794572 C33.8722547,22.1470981 33.9643215,21.1097286 34.0822756,20.0756994 C34.2854071,18.294071 31.984572,18.294071 32.1877035,20.0756994" id="Fill-23"></path>
                    <path d="M7.34989562,20.1691858 C10.0478079,22.6199165 13.4292276,23.4890188 16.9206681,24.1255532 C18.4985386,21.5792067 18.9227557,18.9351566 18.2106472,16.1789979 C17.0768267,16.465428 16.0655532,16.6821294 15.0780793,16.9779541 C12.6098121,17.7172025 9.61753653,15.5731524 9.08392484,13.214071 C8.70751566,11.5495616 8.93778706,9.98379958 9.54237996,8.43599165 C10.6661795,5.55958246 12.459499,3.17294363 14.8137787,1.1863048 C15.1417537,0.909478079 15.3615866,0.504676409 15.631524,0.159164927 L15.4227557,0.159164927 C15.208142,0.306764092 15.0068894,0.481503132 14.7762004,0.597160752 C14.0329854,0.970647182 13.259499,1.28713987 12.5323591,1.68818372 C9.60939457,3.30070981 6.99958246,5.28734864 5.12672234,8.10906054 C4.34926931,9.28025052 3.84906054,10.5579123 3.7565762,11.986096 C3.5388309,15.3407933 4.95574113,17.9944468 7.34989562,20.1691858" id="Fill-25"></path>
                    <path d="M21.4470564,34.2284134 C20.9693946,33.6474113 20.5128184,33.0891649 20.0529019,32.5340501 C19.9426722,32.4012735 19.8447599,32.2202714 19.7002923,32.1616075 C19.3370355,32.0137996 18.9201253,31.7758038 18.5804593,31.8457411 C18.1111482,31.9421921 17.9612526,32.4248643 17.9541545,32.9179749 C17.9407933,33.8348852 18.3249269,34.5593111 19.0708559,34.8442797 C19.9691858,35.1874948 20.7412109,34.9488727 21.4470564,34.2284134" id="Fill-27"></path>
                    <path d="M14.1839875,25.8921712 C10.7036117,25.3973904 7.88670146,26.4353862 6.00987474,29.5464509 C5.73889353,29.9957203 5.48795407,30.4570981 5.12135699,31.098643 C5.56895616,30.9867432 5.77501044,30.9689979 5.94954071,30.8856994 C6.72824635,30.5136743 7.53409186,30.4172234 8.37793319,30.5836117 C8.95434238,30.6969729 9.52949896,30.8330898 10.1119624,30.8938413 C10.4608142,30.930167 10.8226096,30.8412317 11.3720877,30.7909186 C9.98941545,29.206785 8.28941545,29.8387265 6.57835073,29.6426931 C8.72448852,28.1282881 11.009666,28.3545929 12.6704175,30.0393528 C13.1514196,30.5270355 13.7063257,30.9633612 14.2889979,31.3230689 C14.8236534,31.6529228 15.433048,31.7512526 16.0829436,31.5218163 C17.9413987,30.8656576 18.0712526,29.1188935 17.3215658,27.9001044 C16.6065344,26.7376827 15.5167641,26.081524 14.1839875,25.8921712" id="Fill-29"></path>
                    <path d="M25.8778706,51.4113361 C25.3832985,50.2497495 24.8632568,49.2963048 24.5691023,48.2779332 C24.0511482,46.4829436 24.4588727,44.6887891 24.8949896,42.9359708 C25.1920668,41.7422338 25.1308977,40.6077871 24.7087683,39.4741754 C24.5152401,38.9545511 24.3377871,38.4257411 24.1012526,37.9255324 C23.6536534,36.9787683 23.0672234,36.130334 22.2300626,35.492547 C20.7549061,36.4192693 20.7549061,36.4192693 18.7064718,36.0651983 C18.8722338,37.718643 19.7331942,38.9299165 20.6073069,40.1526722 C21.2104384,40.9965136 21.7979123,41.8731315 22.2296451,42.8102923 C22.5223382,43.4451566 22.631524,44.2079958 22.6475992,44.9175992 C22.6749478,46.1315866 22.5323591,47.3484969 22.5210856,48.5647808 C22.5068894,50.1265762 22.4707724,51.7025678 22.9874739,53.2071608 C23.1824635,53.7750104 23.5041754,54.2994363 23.7964509,54.9023591 C24.4010438,54.4428601 24.8651357,54.0900418 25.2555324,53.793382 C25.4968685,52.8693737 25.7133612,52.0403549 25.8778706,51.4113361" id="Fill-31"></path>
                    <path d="M34.8722338,19.9999582 C34.5356994,21.800167 34.8843424,23.5995407 35.8279749,25.2193737 C36.9313152,27.1133194 37.5643006,27.3275157 39.7966597,26.9486013 C40.6590814,26.8022547 41.454071,26.2778288 42.291023,25.9546555 C43.0279749,25.6703132 43.7626305,25.3300209 44.5304802,25.185762 C45.7897704,24.9492276 46.7970772,25.6018372 47.7693111,26.4523591 C48.2146138,25.759666 48.1546973,25.1828392 47.9356994,24.5546555 C47.4914405,23.2799165 47.097286,21.9876409 46.6960334,20.6982881 C46.2469729,19.2552818 46.5006263,17.811858 46.7217119,16.3703132 C46.7524008,16.1703132 46.7824635,15.9705219 46.8227557,15.7053862 C45.6302714,15.1475574 44.4818372,14.6619624 43.1283925,15.0126931 C40.9070981,15.588476 38.856785,15.1348225 37.0135699,13.8039248 C36.0137787,13.0820042 34.8686848,13.1617537 33.623382,12.9721921 C33.9158664,13.9321086 34.1599165,14.7836743 34.4350731,15.6250104 C34.9018789,17.0525678 35.1624217,18.4481837 34.8722338,19.9999582" id="Fill-33"></path>
                    <path d="M47.6138413,27.6925887 C46.52762,26.3552192 44.3543424,26.1074113 43.0409812,27.0389353 C41.5034029,28.1295407 39.6660334,28.2276618 37.8539248,28.1779749 C36.7942171,28.1489562 36.0251148,27.4708768 35.3530898,26.6871608 C36.0121712,28.6940501 37.2140501,30.3193111 38.8029854,31.6481211 C39.9566388,32.613048 41.3117537,32.6310021 42.5491232,31.7817328 C42.9480793,31.5080376 43.2683299,31.1161795 43.6752192,30.8587683 C44.3422338,30.4368476 45.0165553,29.9882046 45.7489144,29.7159708 C47.1831524,29.1834029 47.2006889,29.2305846 47.6138413,27.6925887" id="Fill-35"></path>
                    <path d="M45.7692693,31.1802714 C45.8782463,31.0489562 46.0032985,30.9307933 46.234405,30.6865344 C45.0191649,30.8353862 44.3932777,31.5479123 43.7891023,32.2560543 C42.9930689,33.1894572 42.0078914,33.6234864 40.7878497,33.6811065 C39.6016284,33.7370564 38.5930689,33.4495825 37.7746973,32.3763048 C37.9312735,33.3072025 38.0554906,34.0844468 38.1941127,34.8591858 C38.3648852,35.8122129 38.196618,36.7155532 37.8536117,37.6074113 C37.12,39.5149269 36.4237578,41.4312109 36.1675992,43.4811065 C36.022714,44.6414405 36.2074739,45.686952 36.9321086,46.6197286 C37.7158246,47.6289144 38.4964092,48.6403967 39.3540292,49.7485386 C40.3362839,48.7470772 40.7701044,47.6180585 40.74881,46.4011482 C40.7250104,45.0236952 40.5527766,43.6370564 40.3126931,42.2779749 C39.922714,40.0702505 40.2987056,38.0232777 41.6091441,36.2454071 C42.9037161,34.4890397 44.3738622,32.8623173 45.7692693,31.1802714" id="Fill-37"></path>
                    <path d="M58.9200418,20.1691858 C61.3141962,17.9944468 62.7311065,15.3407933 62.5133612,11.986096 C62.4208768,10.5579123 61.9204593,9.28025052 61.143215,8.10906054 C59.2703549,5.28734864 56.6605428,3.30070981 53.7375783,1.68818372 C53.0104384,1.28713987 52.236952,0.970647182 51.4935282,0.597160752 C51.263048,0.481503132 51.0617954,0.306764092 50.8471816,0.159164927 L50.6384134,0.159164927 C50.9083507,0.504676409 51.1281837,0.909478079 51.4561587,1.1863048 C53.8104384,3.17294363 55.6037578,5.55958246 56.7275574,8.43599165 C57.3321503,9.98379958 57.5624217,11.5495616 57.1860125,13.214071 C56.6524008,15.5731524 53.6601253,17.7172025 51.191858,16.9779541 C50.2043841,16.6821294 49.1931106,16.465428 48.0592902,16.1789979 C47.3471816,18.9351566 47.7713987,21.5792067 49.3492693,24.1255532 C52.8407098,23.4890188 56.2221294,22.6199165 58.9200418,20.1691858" id="Fill-39"></path>
                    <path d="M37.0339248,53.6053445 C35.7203549,53.7500209 34.4287056,53.81119 33.1349687,53.7974113 C31.841023,53.81119 30.5495825,53.7500209 29.2360125,53.6053445 C25.0850731,53.1483507 23.2370564,57.0091023 24.0376827,59.7949061 C24.5610647,61.616618 26.3241127,62.7324843 28.1397704,62.1356159 C28.1397704,60.6999165 28.1474948,59.2926096 28.1358038,57.8857203 C28.1316284,57.3838413 28.3291232,57.0218372 28.8439457,57.0809186 C29.3001044,57.1333194 29.8224426,57.2483507 30.1660752,57.522881 C31.1965553,58.3460543 31.4318372,59.5690188 30.9608559,60.7999165 C31.1483299,61.6842589 31.6748434,62.0692276 32.5105428,62.1251775 C32.7291232,62.1395825 32.9368476,62.1360334 33.1349687,62.1159916 C33.3330898,62.1360334 33.5408142,62.1395825 33.7591858,62.1251775 C34.5950939,62.0692276 35.1216075,61.6842589 35.3090814,60.7999165 C34.8381002,59.5690188 35.073382,58.3460543 36.1038622,57.522881 C36.4474948,57.2483507 36.969833,57.1333194 37.4259916,57.0809186 C37.9408142,57.0218372 38.138309,57.3838413 38.1341336,57.8857203 C38.1224426,59.2926096 38.1299582,60.6999165 38.1299582,62.1356159 C39.9458246,62.7324843 41.7088727,61.616618 42.2322547,59.7949061 C43.032881,57.0091023 41.1848643,53.1483507 37.0339248,53.6053445" id="Fill-41"></path>
                    <path d="M36.7194572,59.9156785 C36.5618372,59.733215 36.2632985,59.8808142 36.3106889,60.1171399 L36.3127766,60.1277871 C36.643048,61.7751775 36.0977453,62.7856159 34.4693528,63.298142 C34.0234238,63.438643 33.5764509,63.5231942 33.1349061,63.5382255 C32.6935699,63.5231942 32.2463883,63.438643 31.8006681,63.298142 C30.1722756,62.7856159 29.6269729,61.7751775 29.9572443,60.1277871 C29.9578706,60.124238 29.9587056,60.1204802 29.9593319,60.1169311 C30.0319833,59.7511691 29.5079749,59.592714 29.3666388,59.9375992 C29.199833,60.3451148 29.0994154,60.7605637 29.0994154,61.1764301 C29.0994154,61.8327975 29.1720668,63.3507516 30.3119415,63.9515866 C31.1921086,64.4154697 32.2733194,64.6540919 33.1349061,64.6618163 C33.9967015,64.6540919 34.8691441,64.4154697 35.7493111,63.9515866 C36.888977,63.3507516 37.1703967,62.1286221 37.1703967,61.1764301 C37.1703967,60.5945929 37.0595407,60.3092067 36.7194572,59.9156785" id="Fill-43"></path>
                    <path d="M47.6894781,31.8457203 C47.3500209,31.7757829 46.9329019,32.0137787 46.5696451,32.1615866 C46.4251775,32.2202505 46.3272651,32.4012526 46.2170355,32.5340292 C45.757119,33.0893528 45.3005428,33.6473904 44.822881,34.2283925 C45.5287265,34.9488518 46.3007516,35.1874739 47.1990814,34.8442589 C47.9450104,34.559499 48.3291441,33.8348643 48.3157829,32.9179541 C48.3086848,32.4248434 48.1587891,31.9421712 47.6894781,31.8457203" id="Fill-45"></path>
                    <path d="M52.085929,25.8921712 C50.7529436,26.081524 49.663382,26.7376827 48.9483507,27.9001044 C48.1986639,29.1188935 48.3285177,30.8656576 50.1867641,31.5218163 C50.8368685,31.7512526 51.4460543,31.6529228 51.9809186,31.3230689 C52.5635908,30.9633612 53.1184969,30.5270355 53.599499,30.0393528 C55.2602505,28.3545929 57.545428,28.1282881 59.6915658,29.6426931 C57.980501,29.8387265 56.280501,29.206785 54.8978288,30.7909186 C55.4473069,30.8412317 55.8091023,30.930167 56.1579541,30.8938413 C56.7404175,30.8330898 57.3153653,30.6969729 57.8919833,30.5836117 C58.7358246,30.4172234 59.5416701,30.5136743 60.3203758,30.8856994 C60.4949061,30.9689979 60.7009603,30.9867432 61.1485595,31.098643 C60.7819624,30.4570981 60.531023,29.9957203 60.2600418,29.5464509 C58.383215,26.4353862 55.5663048,25.3973904 52.085929,25.8921712" id="Fill-47"></path>
                    <path d="M44.0398956,35.4924426 C43.2027349,36.1302296 42.6163048,36.9788727 42.1687056,37.9256367 C41.9321712,38.4258455 41.7547182,38.9544468 41.56119,39.4742797 C41.1388518,40.6078914 41.0778914,41.7423382 41.3749687,42.9360752 C41.8110856,44.6888935 42.2186013,46.4828392 41.7006472,48.2778288 C41.4067015,49.2964092 40.8866597,50.2496451 40.3920877,51.4112317 C40.5563883,52.0404593 40.7730898,52.8694781 41.0144259,53.7932777 C41.4046138,54.0899374 41.8689144,54.4427557 42.4735073,54.9024635 C42.7657829,54.2995407 43.0874948,53.7751148 43.2824843,53.2072651 C43.7991858,51.7024635 43.7630689,50.1266806 43.7486639,48.5646764 C43.7375992,47.3486013 43.5950104,46.1314823 43.6223591,44.9174948 C43.6384342,44.2081002 43.74762,43.445261 44.0401044,42.8101879 C44.4720459,41.8732359 45.0593111,40.996618 45.6624426,40.1527766 C46.5367641,38.9300209 47.3975157,37.7187474 47.5632777,36.0653027 C45.5148434,36.4191649 45.5148434,36.4191649 44.0398956,35.4924426" id="Fill-49"></path>
                    <path d="M82.2398956,54.6221712 C82.2398956,54.3555741 82.1737161,54.1219624 82.0411482,53.9219624 C81.9085804,53.7219624 81.7290397,53.557453 81.5018998,53.428643 C81.2749687,53.299833 81.0102505,53.2044259 80.7077453,53.1420042 C80.4050313,53.0797912 80.0835282,53.0486848 79.7430271,53.0486848 L78.4094154,53.0486848 L78.4094154,56.1822965 L79.9131733,56.1822965 C80.6225678,56.1822965 81.1874948,56.05119 81.6085804,55.7887683 C82.0294572,55.5267641 82.2398956,55.1378288 82.2398956,54.6221712 L82.2398956,54.6221712 Z M79.6108768,52.0712317 C79.9311273,52.0712317 80.230501,52.0357411 80.5083716,51.9649687 C80.7862422,51.894405 81.0265344,51.7927349 81.2292484,51.6599582 C81.4317537,51.5273904 81.5895825,51.3681002 81.7027349,51.1822965 C81.8158873,50.9964927 81.8724635,50.7843841 81.8724635,50.5453445 C81.8724635,50.1031733 81.6956367,49.7716493 81.3424008,49.5505637 C80.9889562,49.3294781 80.529666,49.2188309 79.9643215,49.2188309 L78.4094154,49.2188309 L78.4094154,52.0712317 L79.6108768,52.0712317 Z M83.483737,54.6651775 C83.483737,55.0315658 83.396263,55.3693528 83.221524,55.6777035 C83.046785,55.986263 82.798977,56.2499374 82.4778914,56.4691441 C82.1568058,56.688142 81.7718372,56.8580793 81.3234029,56.9787474 C80.8745511,57.0996242 80.3766388,57.1597495 79.8288309,57.1597495 L77.1655741,57.1597495 L77.1655741,48.2413779 L80.0841545,48.2413779 C80.5375992,48.2413779 80.9532568,48.2925261 81.3311273,48.3950313 C81.7087891,48.4975365 82.0321712,48.6445094 82.3014823,48.8361587 C82.5703758,49.0278079 82.778309,49.2572443 82.9246555,49.5246764 C83.0710021,49.7921086 83.1444885,50.0860543 83.1444885,50.4069311 C83.1444885,50.9236326 82.9624426,51.3582881 82.5987683,51.7102714 C82.2350939,52.0620459 81.7697495,52.3271816 81.2029436,52.5054697 C81.901691,52.6305219 82.4568058,52.8743633 82.867453,53.2365762 C83.278309,53.5987891 83.483737,54.0749896 83.483737,54.6651775 L83.483737,54.6651775 Z" id="Fill-51"></path>
                    <polygon id="Fill-53" points="86.5789144 57.1597077 85.2784969 57.1597077 85.2784969 48.2411273 86.5789144 48.2411273"></polygon>
                    <polygon id="Fill-55" points="94.9320459 48.2412735 94.9320459 49.2456576 92.161691 49.2456576 92.161691 57.1598539 90.8612735 57.1598539 90.8612735 49.2456576 88.0909186 49.2456576 88.0909186 48.2412735"></polygon>
                    <path d="M100.458706,48.0805219 C100.882714,48.0805219 101.325511,48.1187265 101.787098,48.1943006 C102.248685,48.2702923 102.635324,48.3707098 102.946388,48.495762 L102.73428,49.4464927 C102.41382,49.3393946 102.070188,49.2523382 101.702338,49.1853236 C101.334906,49.118309 100.972067,49.0849061 100.614029,49.0849061 C99.4361587,49.0849061 98.5173695,49.3974322 97.8578706,50.0222756 C97.1983716,50.6473278 96.8685177,51.5400209 96.8685177,52.7005637 C96.8685177,53.8611065 97.1983716,54.7540084 97.8578706,55.378643 C98.5173695,56.0036952 99.4361587,56.3162213 100.614029,56.3162213 C100.972067,56.3162213 101.334906,56.2826096 101.702338,56.2158038 C102.070188,56.1487891 102.41382,56.0617328 102.73428,55.9546347 L102.946388,56.9053653 C102.635324,57.0304175 102.248685,57.1310438 101.787098,57.206618 C101.325511,57.2824008 100.882714,57.3203967 100.458706,57.3203967 C99.6858455,57.3203967 98.9958664,57.2043215 98.388142,56.97238 C97.7802088,56.7402296 97.2689353,56.4189353 96.8545303,56.0080793 C96.4397077,55.5976409 96.1217537,55.1110021 95.9004593,54.5483716 C95.6789562,53.9861587 95.568309,53.3700835 95.568309,52.7005637 C95.568309,52.0310438 95.6789562,51.4149687 95.9004593,50.852547 C96.1217537,50.2901253 96.4397077,49.8036952 96.8545303,49.3928392 C97.2689353,48.9824008 97.7802088,48.6608977 98.388142,48.4287474 C98.9958664,48.1968058 99.6858455,48.0805219 100.458706,48.0805219" id="Fill-56"></path>
                    <path d="M108.571524,56.3295198 C109.108685,56.3295198 109.584468,56.2357829 109.999081,56.048309 C110.413695,55.8608351 110.757537,55.6019624 111.030814,55.271691 C111.304092,54.9414196 111.511399,54.5551983 111.652944,54.1132359 C111.79428,53.6714823 111.864843,53.2007098 111.864843,52.700501 C111.864843,52.2007098 111.79428,51.7297286 111.652944,51.2877662 C111.511399,50.8458038 111.304092,50.4620877 111.030814,50.1359916 C110.757537,49.8103132 110.413695,49.5514405 109.999081,49.3593737 C109.584468,49.1675157 109.108685,49.0714823 108.571524,49.0714823 C108.034572,49.0714823 107.558372,49.1675157 107.143967,49.3593737 C106.729353,49.5514405 106.385303,49.8103132 106.112234,50.1359916 C105.838747,50.4620877 105.631649,50.8458038 105.490313,51.2877662 C105.348977,51.7297286 105.278413,52.2007098 105.278413,52.700501 C105.278413,53.2007098 105.348977,53.6714823 105.490313,54.1132359 C105.631649,54.5551983 105.838747,54.9414196 106.112234,55.271691 C106.385303,55.6019624 106.729353,55.8608351 107.143967,56.048309 C107.558372,56.2357829 108.034572,56.3295198 108.571524,56.3295198 M108.571524,57.3205428 C107.836451,57.3205428 107.181545,57.1952818 106.607015,56.945595 C106.032067,56.6956994 105.551482,56.3608351 105.165261,55.9412109 C104.778831,55.5215866 104.484468,55.0305637 104.281754,54.468142 C104.07904,53.9057203 103.977996,53.3165762 103.977996,52.700501 C103.977996,52.0846347 104.07904,51.4952818 104.281754,50.9328601 C104.484468,50.3704384 104.778831,49.8796242 105.165261,49.4597912 C105.551482,49.0403758 106.032067,48.7055115 106.607015,48.4556159 C107.181545,48.2057203 107.836451,48.0804593 108.571524,48.0804593 C109.306597,48.0804593 109.961294,48.2057203 110.536242,48.4556159 C111.110772,48.7055115 111.591357,49.0403758 111.977787,49.4597912 C112.364217,49.8796242 112.65858,50.3704384 112.861294,50.9328601 C113.0638,51.4952818 113.165261,52.0846347 113.165261,52.700501 C113.165261,53.3165762 113.0638,53.9057203 112.861294,54.468142 C112.65858,55.0305637 112.364217,55.5215866 111.977787,55.9412109 C111.591357,56.3608351 111.110772,56.6956994 110.536242,56.945595 C109.961294,57.1952818 109.306597,57.3205428 108.571524,57.3205428" id="Fill-57"></path>
                    <polygon id="Fill-58" points="116.302923 57.1597077 115.002505 57.1597077 115.002505 48.2411273 116.302923 48.2411273"></polygon>
                    <polygon id="Fill-59" points="125.150647 57.1597912 119.878622 50.1562422 119.878622 57.1597912 118.634781 57.1597912 118.634781 48.2412109 119.878622 48.2412109 125.150647 55.2449687 125.150647 48.2412109 126.394489 48.2412109 126.394489 57.1597912"></polygon>
                    <polygon id="Fill-60" points="131.694635 48.2412735 136.938476 48.2412735 136.938476 49.2456576 132.995052 49.2456576 132.995052 52.0978497 136.768956 52.0978497 136.768956 53.1022338 132.995052 53.1022338 132.995052 56.1554697 136.980856 56.1554697 136.980856 57.1598539 131.694635 57.1598539"></polygon>
                    <polygon id="Fill-61" points="142.083111 53.6379541 139.637808 57.1598747 138.266827 57.1598747 141.404614 52.6736534 138.309207 48.2412944 139.680188 48.2412944 142.083111 51.6962004 144.485825 48.2412944 145.856806 48.2412944 142.761399 52.6736534 145.899186 57.1598747 144.528205 57.1598747"></polygon>
                    <path d="M151.581044,48.0805219 C152.005052,48.0805219 152.44785,48.1187265 152.909645,48.1943006 C153.371232,48.2702923 153.757871,48.3707098 154.068727,48.495762 L153.856618,49.4464927 C153.536159,49.3393946 153.192526,49.2523382 152.824885,49.1853236 C152.457453,49.118309 152.094614,49.0849061 151.736576,49.0849061 C150.558706,49.0849061 149.639916,49.3974322 148.980418,50.0222756 C148.320919,50.6473278 147.991065,51.5400209 147.991065,52.7005637 C147.991065,53.8611065 148.320919,54.7540084 148.980418,55.378643 C149.639916,56.0036952 150.558706,56.3162213 151.736576,56.3162213 C152.094614,56.3162213 152.457453,56.2826096 152.824885,56.2158038 C153.192526,56.1487891 153.536159,56.0617328 153.856618,55.9546347 L154.068727,56.9053653 C153.757871,57.0304175 153.371232,57.1310438 152.909645,57.206618 C152.44785,57.2824008 152.005052,57.3203967 151.581044,57.3203967 C150.808392,57.3203967 150.118205,57.2043215 149.51048,56.97238 C148.902756,56.7402296 148.391482,56.4189353 147.976868,56.0080793 C147.562255,55.5976409 147.244301,55.1110021 147.022797,54.5483716 C146.801294,53.9861587 146.690647,53.3700835 146.690647,52.7005637 C146.690647,52.0310438 146.801294,51.4149687 147.022797,50.852547 C147.244301,50.2901253 147.562255,49.8036952 147.976868,49.3928392 C148.391482,48.9824008 148.902756,48.6608977 149.51048,48.4287474 C150.118205,48.1968058 150.808392,48.0805219 151.581044,48.0805219" id="Fill-62"></path>
                    <polygon id="Fill-63" points="161.955428 57.1597912 161.955428 53.1558246 157.135595 53.1558246 157.135595 57.1597912 155.835386 57.1597912 155.835386 48.2412109 157.135595 48.2412109 157.135595 52.111357 161.955428 52.111357 161.955428 48.2412109 163.255846 48.2412109 163.255846 57.1597912"></polygon>
                    <path d="M167.354656,54.012881 L170.973027,54.012881 L169.163841,49.3661169 L167.354656,54.012881 Z M173.545261,57.1598539 L172.21666,57.1598539 L171.354656,55.003904 L166.958831,55.003904 L166.110814,57.1598539 L164.782213,57.1598539 L168.527724,48.2412735 L169.799749,48.2412735 L173.545261,57.1598539 Z" id="Fill-64"></path>
                    <polygon id="Fill-65" points="181.587808 57.1597912 176.315783 50.1562422 176.315783 57.1597912 175.071942 57.1597912 175.071942 48.2412109 176.315783 48.2412109 181.587808 55.2449687 181.587808 48.2412109 182.831649 48.2412109 182.831649 57.1597912"></polygon>
                    <path d="M189.616013,48.0805219 C190.14357,48.0805219 190.647745,48.1231106 191.12833,48.2076618 C191.608914,48.2928392 192.042317,48.4243633 192.428747,48.6028601 L192.216639,49.5803132 C191.811628,49.4287474 191.389916,49.3080793 190.951503,49.2189353 C190.513507,49.1295825 190.072797,49.0849061 189.63,49.0849061 C188.461733,49.0849061 187.542944,49.4078706 186.873841,50.0542171 C186.204739,50.7001461 185.870501,51.615595 185.870501,52.8007724 C185.870501,53.9414823 186.18595,54.8170564 186.817474,55.427286 C187.44858,56.0379332 188.395553,56.3429436 189.658392,56.3429436 C189.959854,56.3429436 190.26382,56.3229019 190.570084,56.2826096 C190.876138,56.2425261 191.137724,56.1911691 191.354426,56.1287474 L191.354426,53.2226931 L192.5419,53.2226931 L192.5419,56.8181002 C192.183653,56.9627766 191.72666,57.0830271 191.17071,57.1780167 C190.614551,57.2727975 190.05881,57.3203967 189.50286,57.3203967 C188.730209,57.3203967 188.037516,57.2110021 187.425198,56.9924217 C186.812463,56.7738413 186.294509,56.4659081 185.870501,56.0684134 C185.446284,55.6713361 185.123528,55.1959708 184.902234,54.6423173 C184.680731,54.0888727 184.570084,53.4771816 184.570084,52.8076618 C184.570084,52.1114196 184.685532,51.4730063 184.91643,50.8926305 C185.147328,50.3124635 185.479478,49.8147599 185.912881,49.3995198 C186.346284,48.9844885 186.873841,48.6608977 187.495971,48.4287474 C188.117683,48.1968058 188.824572,48.0805219 189.616013,48.0805219" id="Fill-66"></path>
                    <polygon id="Fill-67" points="194.661712 48.2412735 199.905553 48.2412735 199.905553 49.2456576 195.962129 49.2456576 195.962129 52.0978497 199.736033 52.0978497 199.736033 53.1022338 195.962129 53.1022338 195.962129 56.1554697 199.947933 56.1554697 199.947933 57.1598539 194.661712 57.1598539"></polygon>
                </g>
            </g>
        </g>
    </g>
</svg>