<svg xmlns="http://www.w3.org/2000/svg" xmlns:xlink="http://www.w3.org/1999/xlink" width="24.33" height="58" viewBox="0 0 24.33 58"><defs><style>.cls-1{fill:none;clip-rule:evenodd;}.cls-2{clip-path:url(#clip-path);}.cls-3{fill:#e06727;}</style><clipPath id="clip-path"><path class="cls-1" d="M10.83,28.14,9.56,29a8.46,8.46,0,0,0,1.28.83,16.78,16.78,0,0,1,1.81,1.27,3.35,3.35,0,0,1,.92,1.33,6.23,6.23,0,0,1,.33,2.27V44.77a3.62,3.62,0,0,0,1.25,3.09,7.15,7.15,0,0,0,4.19.94V53H17.39Q12.94,53,11,51.45T9.11,46.26V34.33a3.9,3.9,0,0,0-.61-2.46,2.3,2.3,0,0,0-1.89-.74H5V26.87H6.61a2.3,2.3,0,0,0,1.89-.74,3.9,3.9,0,0,0,.61-2.46V11.74q0-3.59,1.92-5.17T17.39,5h1.94V9.2a7.15,7.15,0,0,0-4.19.94,3.62,3.62,0,0,0-1.25,3.09V23.39a4.83,4.83,0,0,1-.67,2.87A8.07,8.07,0,0,1,10.83,28.14Z"/></clipPath></defs><title>bracket</title><g id="Слой_2" data-name="Слой 2"><g id="Слой_1-2" data-name="Слой 1"><g class="cls-2"><rect class="cls-3" width="24.33" height="58"/></g></g></g></svg>