<svg xmlns="http://www.w3.org/2000/svg" width="200" height="200" viewBox="0 0 200 200"><defs><style>.cls-1{fill:#fff;}.cls-2{fill:#ff671b;}</style></defs><title>fin-tech-1</title><g id="Слой_2" data-name="Слой 2"><g id="Слой_1-2" data-name="Слой 1"><g id="SOURCE-LIBRARY"><g id="Icons"><g id="Home"><g id="_02A" data-name="02A"><g id="Icon"><polygon id="Fill-1" class="cls-1" points="0 200 200 200 200 0 0 0 0 200"/><path id="Fill-3" class="cls-2" d="M42.22,177.78A2.22,2.22,0,0,1,40,180H26.67a2.22,2.22,0,0,1-2.22-2.22V164.44a2.22,2.22,0,0,1,2.22-2.22H40a2.22,2.22,0,0,1,2.22,2.22Zm-2.22-20H26.67A6.67,6.67,0,0,0,20,164.44v13.33a6.67,6.67,0,0,0,6.67,6.67H40a6.67,6.67,0,0,0,6.67-6.67V164.44A6.67,6.67,0,0,0,40,157.78Z"/><path id="Fill-5" class="cls-2" d="M75.56,177.78A2.22,2.22,0,0,1,73.33,180H60a2.22,2.22,0,0,1-2.22-2.22V120A2.22,2.22,0,0,1,60,117.78H73.33A2.22,2.22,0,0,1,75.56,120Zm-2.22-64.44H60A6.67,6.67,0,0,0,53.33,120v57.78A6.67,6.67,0,0,0,60,184.44H73.33A6.67,6.67,0,0,0,80,177.78V120a6.67,6.67,0,0,0-6.67-6.67Z"/><path id="Fill-7" class="cls-2" d="M108.89,177.78a2.22,2.22,0,0,1-2.22,2.22H93.33a2.22,2.22,0,0,1-2.22-2.22V142.22A2.22,2.22,0,0,1,93.33,140h13.33a2.22,2.22,0,0,1,2.22,2.22Zm-2.22-42.22H93.33a6.67,6.67,0,0,0-6.67,6.67v35.56a6.67,6.67,0,0,0,6.67,6.67h13.33a6.67,6.67,0,0,0,6.67-6.67V142.22a6.67,6.67,0,0,0-6.67-6.67Z"/><path id="Fill-9" class="cls-2" d="M142.22,177.78A2.22,2.22,0,0,1,140,180H126.67a2.22,2.22,0,0,1-2.22-2.22v-80a2.22,2.22,0,0,1,2.22-2.22H140a2.22,2.22,0,0,1,2.22,2.22ZM140,91.11H126.67A6.67,6.67,0,0,0,120,97.78v80a6.67,6.67,0,0,0,6.67,6.67H140a6.67,6.67,0,0,0,6.67-6.67v-80A6.67,6.67,0,0,0,140,91.11Z"/><path id="Fill-11" class="cls-2" d="M175.56,177.78a2.22,2.22,0,0,1-2.22,2.22H160a2.22,2.22,0,0,1-2.22-2.22V53.33A2.22,2.22,0,0,1,160,51.11h13.33a2.22,2.22,0,0,1,2.22,2.22ZM173.33,46.67H160a6.67,6.67,0,0,0-6.67,6.67V177.78a6.67,6.67,0,0,0,6.67,6.67h13.33a6.67,6.67,0,0,0,6.67-6.67V53.33a6.67,6.67,0,0,0-6.67-6.67Z"/><path id="Fill-13" class="cls-2" d="M166.67,30A3.33,3.33,0,1,1,170,26.67,3.34,3.34,0,0,1,166.67,30M133.33,75a3.33,3.33,0,1,1,3.33-3.33A3.34,3.34,0,0,1,133.33,75M100,118.89a3.33,3.33,0,1,1,3.33-3.33,3.34,3.34,0,0,1-3.33,3.33M66.67,96.67A3.33,3.33,0,1,1,70,93.33a3.34,3.34,0,0,1-3.33,3.33M33.33,141.11a3.33,3.33,0,1,1,3.33-3.33,3.34,3.34,0,0,1-3.33,3.33M191.6,13.78a2.22,2.22,0,0,0-3-.94l-16.25,8.52a7.76,7.76,0,0,0-12.85,2.27,2.22,2.22,0,0,0-1.5,4.17l1.05.42c0,.07,0,.13.05.2l-15.71,8.5a2.22,2.22,0,0,0-1,1.21l-9.2,25.76a7.78,7.78,0,0,0-7.59,7.69l-16,8.45a2.22,2.22,0,0,0-1.08,1.3l-8.35,26.44H100a7.75,7.75,0,0,0-5.66,2.46l-15.24-7.62L73.51,97A7.79,7.79,0,1,0,59,94.68l-15.56,7.78a2.22,2.22,0,0,0-1.11,1.28L33.58,130h-.25a7.74,7.74,0,0,0-7.65,9.12L10.12,146.9a2.22,2.22,0,0,0,2,4l15.57-7.78A7.77,7.77,0,1,0,37.8,131.42L46.26,106,61,98.65a7.75,7.75,0,0,0,9.36,1.52L76.21,106a2.25,2.25,0,0,0,.58.42l15.56,7.78a7.77,7.77,0,1,0,12-5.09l8.07-25.57,14.41-7.61a7.77,7.77,0,1,0,10.61-10.86l8.8-24.64,15.06-8.15a7.73,7.73,0,0,0,9.88.69,2.21,2.21,0,0,0,.55.33l4.58,1.83A2.22,2.22,0,0,0,178,31l-4-1.61a7.51,7.51,0,0,0,.39-4.05l16.34-8.57a2.22,2.22,0,0,0,.93-3"/><path id="Fill-15" class="cls-2" d="M189.71,35.72l-2.58-1a2.22,2.22,0,1,0-1.65,4.13l2.58,1a2.2,2.2,0,0,0,.82.16,2.22,2.22,0,0,0,.83-4.29"/><path id="Fill-17" class="cls-2" d="M144.25,22.32l4.58,1.83A2.22,2.22,0,0,0,150.48,20l-4.58-1.83a2.22,2.22,0,0,0-1.65,4.13"/><path id="Fill-19" class="cls-2" d="M131.1,20a2.22,2.22,0,0,0,3-1l.33-.65.68.27a2.22,2.22,0,1,0,1.65-4.13l-2.58-1a2.22,2.22,0,0,0-2.81,1.07L130.1,17a2.22,2.22,0,0,0,1,3"/><path id="Fill-21" class="cls-2" d="M116.29,49.63a2.22,2.22,0,0,0,3-1l2.47-4.93a2.22,2.22,0,1,0-4-2l-2.47,4.93a2.22,2.22,0,0,0,1,3"/><path id="Fill-23" class="cls-2" d="M123.7,34.83a2.22,2.22,0,0,0,3-1l2.47-4.93a2.22,2.22,0,1,0-4-2l-2.47,4.93a2.22,2.22,0,0,0,1,3"/><path id="Fill-25" class="cls-2" d="M108.33,62.31h.07l2.78-.09A2.22,2.22,0,0,0,113.1,61l1.24-2.49a2.22,2.22,0,0,0-4-2l-.65,1.3-1.45,0a2.22,2.22,0,0,0,.07,4.44"/><path id="Fill-27" class="cls-2" d="M69.69,56.27l6.13,2.18a2.22,2.22,0,0,0,1.49-4.19l-6.13-2.18a2.22,2.22,0,0,0-1.49,4.19"/><path id="Fill-29" class="cls-2" d="M88.14,62.83a2.23,2.23,0,0,0,.75.13H89l6.44-.21a2.22,2.22,0,0,0,2.15-2.3,2.2,2.2,0,0,0-2.3-2.15l-6.17.21A2.21,2.21,0,0,0,86.77,60a2.25,2.25,0,0,0,1.38,2.85"/><path id="Fill-31" class="cls-2" d="M53.62,53.1a2.22,2.22,0,0,0,1.59-.67l.94-1,1.28.46a2.22,2.22,0,0,0,1.49-4.19l-2.62-.93a2.22,2.22,0,0,0-2.34.54l-1.94,2a2.22,2.22,0,0,0,1.59,3.77"/><path id="Fill-33" class="cls-2" d="M40.3,66.75a2.22,2.22,0,0,0,1.59-.67l4.44-4.55a2.22,2.22,0,0,0-3.18-3.1L38.7,63a2.22,2.22,0,0,0,1.59,3.77"/><path id="Fill-35" class="cls-2" d="M25.11,77.8a2.21,2.21,0,0,0,1-.21l5.74-2.73a2.22,2.22,0,1,0-1.91-4l-5.74,2.73a2.22,2.22,0,0,0,1,4.23"/><path id="Fill-37" class="cls-2" d="M11.11,84.44a2.22,2.22,0,0,0,1-.21L14.57,83a2.22,2.22,0,0,0-1.91-4l-2.51,1.19a2.22,2.22,0,0,0,1,4.23"/></g></g></g></g></g></g></g></svg>