<svg xmlns="http://www.w3.org/2000/svg" xmlns:xlink="http://www.w3.org/1999/xlink" width="29.66" height="28" viewBox="0 0 29.66 28"><defs><style>.cls-1,.cls-2{fill:none;}.cls-1{clip-rule:evenodd;}.cls-3{clip-path:url(#clip-path);}.cls-4{fill:#d7d7d7;}.cls-5{clip-path:url(#clip-path-2);}.cls-6{clip-path:url(#clip-path-3);}</style><clipPath id="clip-path"><path class="cls-1" d="M16,12.62h0l0,0v0Zm3.8-2a4.22,4.22,0,0,0-3.8,2V10.85H11.8C11.85,12,11.8,23,11.8,23H16V16.22a2.59,2.59,0,0,1,.14-1,2.29,2.29,0,0,1,2.17-1.48c1.52,0,2.13,1.11,2.13,2.74V23h4.22V16c0-3.73-2.08-5.46-4.85-5.46Z"/></clipPath><clipPath id="clip-path-2"><rect class="cls-2" x="5.25" y="10.86" width="4.22" height="12.15"/></clipPath><clipPath id="clip-path-3"><path class="cls-1" d="M7.38,5A2.16,2.16,0,0,0,5,7.1,2.14,2.14,0,0,0,7.33,9.2h0A2.16,2.16,0,0,0,9.74,7.1,2.15,2.15,0,0,0,7.38,5"/></clipPath></defs><title>ic-in</title><g id="Слой_2" data-name="Слой 2"><g id="Слой_1-2" data-name="Слой 1"><g class="cls-3"><rect class="cls-4" x="6.8" y="5.57" width="22.86" height="22.43"/></g><g class="cls-5"><rect class="cls-4" x="0.25" y="5.86" width="14.22" height="22.15"/></g><g class="cls-6"><rect class="cls-4" width="14.74" height="14.2"/></g></g></g></svg>