<svg xmlns="http://www.w3.org/2000/svg" xmlns:xlink="http://www.w3.org/1999/xlink" width="29.66" height="26.25" viewBox="0 0 29.66 26.25"><defs><style>.cls-1{fill:none;clip-rule:evenodd;}.cls-2{clip-path:url(#clip-path);}.cls-3{fill:#d7d7d7;}</style><clipPath id="clip-path"><path class="cls-1" d="M22.65,9c0,.17,0,.35,0,.53,0,5.42-4.06,11.67-11.48,11.67A11.25,11.25,0,0,1,5,19.41a7.78,7.78,0,0,0,1,.06,8,8,0,0,0,5-1.76,4,4,0,0,1-3.77-2.85,3.88,3.88,0,0,0,.76.07A3.94,3.94,0,0,0,9,14.79a4.09,4.09,0,0,1-3.24-4,.31.31,0,0,1,0-.05,3.93,3.93,0,0,0,1.83.51A4.15,4.15,0,0,1,6.37,5.75,11.39,11.39,0,0,0,14.68,10a4.2,4.2,0,0,1-.1-.94,4.07,4.07,0,0,1,4-4.1,4,4,0,0,1,2.94,1.29,7.89,7.89,0,0,0,2.57-1,4.11,4.11,0,0,1-1.78,2.27,7.88,7.88,0,0,0,2.32-.64,8.31,8.31,0,0,1-2,2.12"/></clipPath></defs><title>ic-twit</title><g id="Слой_2" data-name="Слой 2"><g id="Слой_1-2" data-name="Слой 1"><g class="cls-2"><rect class="cls-3" width="29.66" height="26.25"/></g></g></g></svg>