<svg xmlns="http://www.w3.org/2000/svg" width="200" height="200" viewBox="0 0 200 200"><defs><style>.cls-1{fill:#fff;}.cls-2{fill:#ff671b;}</style></defs><title>java-1</title><g id="Слой_2" data-name="Слой 2"><g id="Слой_1-2" data-name="Слой 1"><g id="SOURCE-LIBRARY"><g id="Icons"><g id="Home"><g id="_01A" data-name="01A"><g id="Icon"><polygon id="Fill-1" class="cls-1" points="0 200 200 200 200 0 0 0 0 200"/><path id="Fill-3" class="cls-2" d="M144.44,164.44H33.33a2.22,2.22,0,0,0,0,4.44H144.44a2.22,2.22,0,1,0,0-4.44"/><path id="Fill-5" class="cls-2" d="M122.22,175.56H55.56a2.22,2.22,0,1,0,0,4.44h66.67a2.22,2.22,0,0,0,0-4.44"/><path id="Fill-7" class="cls-2" d="M134.07,91.11h10.37a2.22,2.22,0,1,0,0-4.44H134.07a2.22,2.22,0,1,0,0,4.44"/><path id="Fill-9" class="cls-2" d="M175.56,111.82a8.13,8.13,0,0,1-8.09,8.12l-16.69.05a72.38,72.38,0,0,0,7-29.21c3.35-.47,10.81-1,14.94,2.31,1.93,1.56,2.88,3.83,2.88,6.92Zm-.09-22.2c-7-5.65-19.62-3.06-20.36-2.91h0l-.15,0-.26.08-.18.1-.19.11-.17.14-.16.14-.13.15a2.08,2.08,0,0,0-.14.18s-.06.1-.08.15a2.17,2.17,0,0,0-.12.23c0,.05,0,.11-.05.17a2.12,2.12,0,0,0-.07.24,2,2,0,0,0,0,.22c0,.07,0,.14,0,.21,0,28.13-17.27,53.32-43,62.68-6.42,2.34-36.51,2.34-42.93,0-25-9.12-42.06-33.23-42.94-60.46h97.74a2.22,2.22,0,0,0,0-4.44h-100A2.22,2.22,0,0,0,20,88.89c0,30,18.45,56.86,45.9,66.86,3.76,1.37,13.37,2.05,23,2.05s19.22-.68,23-2.05a69.38,69.38,0,0,0,36.59-31.31l19-.06A12.58,12.58,0,0,0,180,111.82V100c0-4.46-1.53-8-4.54-10.38Z"/><path id="Fill-11" class="cls-2" d="M90.39,77.2a2.22,2.22,0,1,0,4.29,1.15c3.72-13.85,1.95-21.35.38-28-1.65-7-3.2-13.52,1.79-27.41a2.22,2.22,0,0,0-4.18-1.5C87.23,36.6,89,44.13,90.73,51.41c1.52,6.4,3.08,13-.35,25.79"/><path id="Fill-13" class="cls-2" d="M105.12,66.26a2.22,2.22,0,0,0,1.77,2.6,2.29,2.29,0,0,0,.41,0,2.22,2.22,0,0,0,2.18-1.81,38,38,0,0,0-.24-17.41c-.89-4.09-1.72-8,.21-16.19a2.22,2.22,0,1,0-4.33-1C103,41.66,104,46.21,104.9,50.6c.87,4,1.69,7.81.21,15.65"/><path id="Fill-15" class="cls-2" d="M76.66,66.26a2.22,2.22,0,0,0,1.77,2.6,2.29,2.29,0,0,0,.41,0A2.22,2.22,0,0,0,81,67.08a38.38,38.38,0,0,0-.23-17.4c-.88-4.13-1.71-8,.21-16.21a2.22,2.22,0,1,0-4.33-1c-2.15,9.14-1.18,13.72-.23,18.15a33.73,33.73,0,0,1,.21,15.65"/><path id="Fill-17" class="cls-2" d="M86.2,142.17a2.22,2.22,0,0,0-.17,4.44q1.41.05,2.86.05a2.22,2.22,0,0,0,0-4.44q-1.37,0-2.69-.05"/><path id="Fill-19" class="cls-2" d="M45.67,124.18a2.22,2.22,0,0,0-.33,3.13c1.09,1.35,2.25,2.65,3.44,3.86A2.22,2.22,0,0,0,51.94,128c-1.09-1.11-2.15-2.3-3.15-3.54a2.22,2.22,0,0,0-3.13-.33"/><path id="Fill-21" class="cls-2" d="M39.62,118.72a2.22,2.22,0,1,0,3.9-2.13c-.75-1.38-1.46-2.82-2.11-4.29a2.22,2.22,0,1,0-4.07,1.79c.7,1.57,1.46,3.13,2.27,4.62"/><path id="Fill-23" class="cls-2" d="M59.22,134.06a2.22,2.22,0,0,0-2.46,3.7,49.59,49.59,0,0,0,4.47,2.64,2.22,2.22,0,0,0,2.06-3.94,44.88,44.88,0,0,1-4.07-2.4"/><path id="Fill-25" class="cls-2" d="M72.07,140a2.22,2.22,0,1,0-1.24,4.27c1.62.47,3.31.88,5,1.22a2.27,2.27,0,0,0,.43,0,2.22,2.22,0,0,0,.43-4.4c-1.57-.31-3.13-.69-4.62-1.12"/><path id="Fill-27" class="cls-2" d="M38.29,103.28c-.39-1.56-.54-2.5-.54-2.51a2.22,2.22,0,1,0-4.39.68s.17,1.13.62,2.91A2.22,2.22,0,0,0,36.14,106a2.27,2.27,0,0,0,.54-.07,2.22,2.22,0,0,0,1.62-2.7"/></g></g></g></g></g></g></g></svg>