<svg xmlns="http://www.w3.org/2000/svg" xmlns:xlink="http://www.w3.org/1999/xlink" width="165.99" height="61.28" viewBox="0 0 165.99 61.28"><defs><style>.cls-1,.cls-2{fill:none;}.cls-2{clip-rule:evenodd;}.cls-3{opacity:0.8;}.cls-21,.cls-3{isolation:isolate;}.cls-4{clip-path:url(#clip-path);}.cls-5{clip-path:url(#clip-path-2);}.cls-6{clip-path:url(#clip-path-3);}.cls-7{fill:#4b4b4b;}.cls-8{clip-path:url(#clip-path-4);}.cls-9{clip-path:url(#clip-path-6);}.cls-10{clip-path:url(#clip-path-8);}.cls-11{clip-path:url(#clip-path-10);}.cls-12{clip-path:url(#clip-path-12);}.cls-13{clip-path:url(#clip-path-14);}.cls-14{clip-path:url(#clip-path-16);}.cls-15{clip-path:url(#clip-path-18);}.cls-16{clip-path:url(#clip-path-20);}.cls-17{clip-path:url(#clip-path-22);}.cls-18{clip-path:url(#clip-path-24);}.cls-19{clip-path:url(#clip-path-26);}.cls-20{clip-path:url(#clip-path-27);}.cls-22{clip-path:url(#clip-path-29);}.cls-23{clip-path:url(#clip-path-30);}</style><clipPath id="clip-path" transform="translate(-26.94 -36.25)"><rect class="cls-1" y="41" width="200" height="52"/></clipPath><clipPath id="clip-path-2" transform="translate(-26.94 -36.25)"><path class="cls-2" d="M45.31,79.1H38.7l-1.42,4.44a6.27,6.27,0,0,0-.41,1.79q0,.4.5.4a1.11,1.11,0,0,0,.95-.53,8.93,8.93,0,0,0,.85-2.06L40,80.43h4.84l-.48,1.52a20.29,20.29,0,0,1-1.13,2.92A9.8,9.8,0,0,1,41.67,87a7.49,7.49,0,0,1-2.38,1.74,7.17,7.17,0,0,1-3,.58,5.58,5.58,0,0,1-2.68-.57,2.93,2.93,0,0,1-1.43-1.57A4.87,4.87,0,0,1,32,85a18.47,18.47,0,0,1,.85-3.49l1.91-6a15.84,15.84,0,0,1,1.95-4.24,7.43,7.43,0,0,1,6.08-3.21,4.61,4.61,0,0,1,3.23,1,3.54,3.54,0,0,1,1.12,2.64,15.35,15.35,0,0,1-.91,4.63Zm-4.06-3.34.48-1.5a9.86,9.86,0,0,0,.52-2.06q0-.46-.42-.46a.86.86,0,0,0-.78.39,12.31,12.31,0,0,0-.8,2.13l-.48,1.5Z"/></clipPath><clipPath id="clip-path-3" transform="translate(-26.94 -36.25)"><rect class="cls-1" width="276" height="133"/></clipPath><clipPath id="clip-path-4" transform="translate(-26.94 -36.25)"><path class="cls-2" d="M55.48,68.48l-1.06,2.7q2-2.9,4.2-3.07l-2.3,7.22a4.44,4.44,0,0,0-2.21.46,3,3,0,0,0-1.22,1.29,34,34,0,0,0-1.37,3.81L48.94,89H43.83l6.54-20.52Z"/></clipPath><clipPath id="clip-path-6" transform="translate(-26.94 -36.25)"><path class="cls-2" d="M71.25,68.48l-5,15.8q-1,3.2-1.44,4.14a6.74,6.74,0,0,1-1.48,2A7.14,7.14,0,0,1,60.74,92a10,10,0,0,1-3.47.55,5.36,5.36,0,0,1-3.6-1q-1.16-1-.26-4h5q-.43,1.36.38,1.36a1.08,1.08,0,0,0,.9-.42,6.48,6.48,0,0,0,.75-1.75l.49-1.55a7.67,7.67,0,0,1-1.74,1.1,4.07,4.07,0,0,1-1.64.37A2.78,2.78,0,0,1,55.46,86a2.35,2.35,0,0,1-.65-1.79A12.13,12.13,0,0,1,55.48,81l2.38-7.45a10.58,10.58,0,0,1,2.2-4.21,4.11,4.11,0,0,1,3-1.28,2.59,2.59,0,0,1,1.6.48,2.85,2.85,0,0,1,1,1.44l.86-1.55ZM64.4,73.92a7.7,7.7,0,0,0,.44-1.79q0-.39-.46-.39a.94.94,0,0,0-.77.44,6.79,6.79,0,0,0-.74,1.74l-2.2,6.9a7.43,7.43,0,0,0-.43,1.79q0,.41.45.41a.93.93,0,0,0,.82-.49,12.22,12.22,0,0,0,.87-2.24Z"/></clipPath><clipPath id="clip-path-8" transform="translate(-26.94 -36.25)"><path class="cls-2" d="M81.26,79.1H74.65l-1.42,4.44a6.27,6.27,0,0,0-.41,1.79q0,.4.5.4a1.11,1.11,0,0,0,.95-.53,8.92,8.92,0,0,0,.85-2.06L76,80.43h4.84l-.48,1.52a20.29,20.29,0,0,1-1.13,2.92A9.8,9.8,0,0,1,77.61,87a7.49,7.49,0,0,1-2.38,1.74,7.17,7.17,0,0,1-3,.58,5.58,5.58,0,0,1-2.68-.57,2.93,2.93,0,0,1-1.43-1.57,4.87,4.87,0,0,1-.25-2.2,18.47,18.47,0,0,1,.85-3.49l1.91-6a15.84,15.84,0,0,1,1.95-4.24,7.43,7.43,0,0,1,6.08-3.21,4.61,4.61,0,0,1,3.23,1A3.54,3.54,0,0,1,83,71.75a15.35,15.35,0,0,1-.91,4.63ZM77.2,75.76l.48-1.5a9.86,9.86,0,0,0,.52-2.06q0-.46-.42-.46a.86.86,0,0,0-.78.39,12.31,12.31,0,0,0-.8,2.13l-.48,1.5Z"/></clipPath><clipPath id="clip-path-10" transform="translate(-26.94 -36.25)"><path class="cls-2" d="M91.52,68.48l-.69,1.89a7,7,0,0,1,1.9-1.7,4,4,0,0,1,2-.56,2.28,2.28,0,0,1,1.91.76,2.53,2.53,0,0,1,.47,1.91,23.09,23.09,0,0,1-1,3.84L91.56,89H86.45L91,74.79a17.76,17.76,0,0,0,.71-2.58q0-.46-.48-.46a1,1,0,0,0-.85.53,19.81,19.81,0,0,0-1,2.85L84.89,89H79.78l6.54-20.52Z"/></clipPath><clipPath id="clip-path-12" transform="translate(-26.94 -36.25)"><path class="cls-2" d="M106.13,65.74l-1,3.23h1.38l-1,3.25h-1.38l-3.5,11a7.58,7.58,0,0,0-.55,2.26q.1.23,1.35.23L100.31,89H98.24a11.22,11.22,0,0,1-2.44-.18A1.65,1.65,0,0,1,94.75,88a2.22,2.22,0,0,1-.24-1.47,35.36,35.36,0,0,1,1.1-3.89l3.32-10.42h-1.1l1-3.25H100l1-3.23Z"/></clipPath><clipPath id="clip-path-14" transform="translate(-26.94 -36.25)"><path class="cls-2" d="M122.78,71.54h-4.95l.59-1.86a4.47,4.47,0,0,0,.34-1.65q-.08-.36-.52-.36a1.14,1.14,0,0,0-.88.48,4.37,4.37,0,0,0-.71,1.46,4.94,4.94,0,0,0-.32,1.89,2.79,2.79,0,0,0,1,1.53q2.73,2.58,3.13,4.23t-.78,5.33a14.52,14.52,0,0,1-1.77,3.94,7,7,0,0,1-2.66,2.13,8.23,8.23,0,0,1-3.69.86,5.08,5.08,0,0,1-3.33-1A3.07,3.07,0,0,1,107.08,86a16.27,16.27,0,0,1,.92-4.35l.52-1.64h4.95l-1,3a4.93,4.93,0,0,0-.37,1.81q.08.4.61.4a1.22,1.22,0,0,0,1-.51,4.59,4.59,0,0,0,.74-1.52,5.37,5.37,0,0,0,.43-2.89,10.29,10.29,0,0,0-1.77-2.27,15.85,15.85,0,0,1-1.89-2.33,4.2,4.2,0,0,1-.43-2,10.89,10.89,0,0,1,.62-3.28,14.17,14.17,0,0,1,1.94-4.21,7,7,0,0,1,2.6-2.08,8,8,0,0,1,3.48-.75,5.73,5.73,0,0,1,3.27.82A2.65,2.65,0,0,1,124,66.32a13.64,13.64,0,0,1-.87,4.23Z"/></clipPath><clipPath id="clip-path-16" transform="translate(-26.94 -36.25)"><path class="cls-2" d="M136.42,68.48l-6.19,14.84q-1.47,3.53-2.11,4.81a8.45,8.45,0,0,1-1.45,2.12,5,5,0,0,1-1.9,1.23,10,10,0,0,1-3.22.39h-3.1l1-3.28a5.36,5.36,0,0,0,1.58-.15,1,1,0,0,0,.55-.66q.08-.25.37-2.15l2.67-17.16h4.64l-2.74,13.86,5.24-13.86Z"/></clipPath><clipPath id="clip-path-18" transform="translate(-26.94 -36.25)"><path class="cls-2" d="M145.68,75h-4.53l.36-1.11a7.72,7.72,0,0,0,.44-1.8q0-.38-.54-.38a1,1,0,0,0-.76.35,2.73,2.73,0,0,0-.55,1,6.88,6.88,0,0,0-.33,1.38,1.52,1.52,0,0,0,.34,1A8.59,8.59,0,0,0,141.82,77a5.23,5.23,0,0,1,2.12,2.5,6.46,6.46,0,0,1-.39,3.42,13.4,13.4,0,0,1-1.74,3.78,6.2,6.2,0,0,1-2.4,2,7.49,7.49,0,0,1-3.22.69,5.65,5.65,0,0,1-3.1-.74,2.58,2.58,0,0,1-1.26-2,10.84,10.84,0,0,1,.7-3.83l.32-1h4.53l-.41,1.3a8.8,8.8,0,0,0-.51,2.15.46.46,0,0,0,.52.5,1.15,1.15,0,0,0,.86-.33,3.89,3.89,0,0,0,.66-1.4,3.64,3.64,0,0,0,.31-1.84,14.62,14.62,0,0,0-2.27-2.2,4.61,4.61,0,0,1-1.85-2.81,8.13,8.13,0,0,1,.46-3,12.09,12.09,0,0,1,1.69-3.63,5.88,5.88,0,0,1,2.38-1.8,7.9,7.9,0,0,1,3.16-.63,5.87,5.87,0,0,1,2.67.52A2.76,2.76,0,0,1,146.39,70a3,3,0,0,1,.26,1.58,15.23,15.23,0,0,1-.59,2.27Z"/></clipPath><clipPath id="clip-path-20" transform="translate(-26.94 -36.25)"><path class="cls-2" d="M155.79,65.74l-1,3.23h1.38l-1,3.25h-1.38l-3.5,11a7.55,7.55,0,0,0-.55,2.26q.1.23,1.35.23L150,89H147.9a11.22,11.22,0,0,1-2.44-.18,1.65,1.65,0,0,1-1.05-.82,2.22,2.22,0,0,1-.24-1.47,35.34,35.34,0,0,1,1.1-3.89l3.32-10.42h-1.1l1-3.25h1.1l1-3.23Z"/></clipPath><clipPath id="clip-path-22" transform="translate(-26.94 -36.25)"><path class="cls-2" d="M165.6,79.1H159l-1.42,4.44a6.26,6.26,0,0,0-.41,1.79q0,.4.5.4a1.11,1.11,0,0,0,.95-.53,8.9,8.9,0,0,0,.85-2.06l.86-2.71h4.84l-.48,1.52a20.23,20.23,0,0,1-1.13,2.92A9.81,9.81,0,0,1,162,87a7.49,7.49,0,0,1-2.38,1.74,7.17,7.17,0,0,1-3,.58,5.58,5.58,0,0,1-2.68-.57,2.93,2.93,0,0,1-1.43-1.57,4.87,4.87,0,0,1-.25-2.2,18.5,18.5,0,0,1,.85-3.49l1.91-6A15.86,15.86,0,0,1,157,71.31,7.43,7.43,0,0,1,163,68.11a4.61,4.61,0,0,1,3.23,1,3.55,3.55,0,0,1,1.12,2.64,15.34,15.34,0,0,1-.91,4.63Zm-4.06-3.34.48-1.5a9.88,9.88,0,0,0,.52-2.06q0-.46-.42-.46a.86.86,0,0,0-.78.39,12.27,12.27,0,0,0-.8,2.13l-.48,1.5Z"/></clipPath><clipPath id="clip-path-24" transform="translate(-26.94 -36.25)"><path class="cls-2" d="M175.71,68.48l-.71,2a7.53,7.53,0,0,1,2-1.75,4.08,4.08,0,0,1,2.06-.58q2,0,2.48,2.32a8.36,8.36,0,0,1,2-1.75,3.91,3.91,0,0,1,2-.58,2.28,2.28,0,0,1,1.91.77,2.52,2.52,0,0,1,.49,1.89,21,21,0,0,1-.92,3.64L182.33,89h-5l4.27-13.38a22.7,22.7,0,0,0,.89-3.25q.05-.63-.48-.63a1,1,0,0,0-.9.62,22.94,22.94,0,0,0-1.2,3.26L175.69,89h-5l4.16-13a32.7,32.7,0,0,0,1-3.62q.07-.6-.47-.6a1,1,0,0,0-.68.32,2,2,0,0,0-.51.77q-.17.46-.64,1.94L169.08,89h-5l6.54-20.52Z"/></clipPath><clipPath id="clip-path-26" transform="translate(-26.94 -36.25)"><rect class="cls-1" y="41.25" width="199.97" height="51.28"/></clipPath><clipPath id="clip-path-27" transform="translate(-26.94 -36.25)"><polyline class="cls-2" points="0 41.25 199.97 41.25 199.97 92.54 0 92.54"/></clipPath><clipPath id="clip-path-29" transform="translate(-26.94 -36.25)"><rect class="cls-1" x="38" y="41" width="41" height="21"/></clipPath><clipPath id="clip-path-30" transform="translate(-26.94 -36.25)"><path class="cls-2" d="M78.48,61.38H38.22a20.13,20.13,0,1,1,40.26,0"/></clipPath></defs><title>lc-13</title><g id="Слой_2" data-name="Слой 2"><g id="Слой_1-2" data-name="Слой 1"><g class="cls-3"><g class="cls-4"><g class="cls-5"><g class="cls-6"><rect class="cls-7" y="26.85" width="25.16" height="31.26"/></g></g><g class="cls-8"><g class="cls-6"><rect class="cls-7" x="11.89" y="26.85" width="24.79" height="30.89"/></g></g><g class="cls-9"><g class="cls-6"><rect class="cls-7" x="21.08" y="26.85" width="28.23" height="34.43"/></g></g><g class="cls-10"><g class="cls-6"><rect class="cls-7" x="35.95" y="26.85" width="25.16" height="31.26"/></g></g><g class="cls-11"><g class="cls-6"><rect class="cls-7" x="47.84" y="26.85" width="27.38" height="30.89"/></g></g><g class="cls-12"><g class="cls-6"><rect class="cls-7" x="62.55" y="24.49" width="21.99" height="33.26"/></g></g><g class="cls-13"><g class="cls-6"><rect class="cls-7" x="75.14" y="22.18" width="26.9" height="36.09"/></g></g><g class="cls-14"><g class="cls-6"><rect class="cls-7" x="86.5" y="27.22" width="27.98" height="33.4"/></g></g><g class="cls-15"><g class="cls-6"><rect class="cls-7" x="99.88" y="26.85" width="24.86" height="31.26"/></g></g><g class="cls-16"><g class="cls-6"><rect class="cls-7" x="112.21" y="24.49" width="21.99" height="33.26"/></g></g><g class="cls-17"><g class="cls-6"><rect class="cls-7" x="120.29" y="26.85" width="25.16" height="31.26"/></g></g><g class="cls-18"><g class="cls-6"><rect class="cls-7" x="132.18" y="26.85" width="33.8" height="30.89"/></g></g><g class="cls-20"><g class="cls-6"><g class="cls-21"><g class="cls-22"><g class="cls-23"><g class="cls-4"><rect class="cls-7" x="6.29" width="50.26" height="30.13"/></g></g></g></g></g></g></g></g></g></g></svg>