<svg xmlns="http://www.w3.org/2000/svg" xmlns:xlink="http://www.w3.org/1999/xlink" width="209.98" height="92.81" viewBox="0 0 209.98 92.81"><defs><style>.cls-1,.cls-2{fill:none;}.cls-2{clip-rule:evenodd;}.cls-3{opacity:0.8;}.cls-17,.cls-3{isolation:isolate;}.cls-4{clip-path:url(#clip-path);}.cls-5{clip-path:url(#clip-path-2);}.cls-6{clip-path:url(#clip-path-3);}.cls-7{fill:#4b4b4b;}.cls-8{clip-path:url(#clip-path-4);}.cls-9{clip-path:url(#clip-path-6);}.cls-10{clip-path:url(#clip-path-8);}.cls-11{clip-path:url(#clip-path-10);}.cls-12{clip-path:url(#clip-path-12);}.cls-13{clip-path:url(#clip-path-14);}.cls-14{clip-path:url(#clip-path-16);}.cls-15{clip-path:url(#clip-path-18);}.cls-16{clip-path:url(#clip-path-20);}.cls-18{clip-path:url(#clip-path-22);}.cls-19{clip-path:url(#clip-path-23);}.cls-20{clip-path:url(#clip-path-25);}.cls-21{clip-path:url(#clip-path-27);}</style><clipPath id="clip-path" transform="translate(0 -20.12)"><rect class="cls-1" x="5" y="25" width="200" height="83"/></clipPath><clipPath id="clip-path-2" transform="translate(0 -20.12)"><path class="cls-2" d="M47.65,107.93c-1.05-.65-.93-1.68-.76-2.65a6,6,0,0,1,2.19-3.65,1.45,1.45,0,0,1,.53-.32,1.84,1.84,0,0,0,1.15-1.1,49.72,49.72,0,0,0,3.64-9,60.58,60.58,0,0,0,2.17-9.39,25.73,25.73,0,0,0,.2-7.14c0-.23-.08-.45-.14-.68,0-.06-.07-.1-.18-.26-.1.37-.17.65-.24.93a73.37,73.37,0,0,1-3.19,10,32.26,32.26,0,0,1-2.49,5,1.46,1.46,0,0,0-.21,1,5.56,5.56,0,0,1-.07,1.7,7.72,7.72,0,0,1-2.18,4.07,3.83,3.83,0,0,1-.89.63,1.76,1.76,0,0,1-2.66-1.55,7.74,7.74,0,0,1,.33-2.16,7.06,7.06,0,0,1,1.39-2.6,2.89,2.89,0,0,1,2.21-1.22,41.47,41.47,0,0,0,5.94-17.33c-.14.16-.29.32-.42.49-1.9,2.57-3.78,5.16-5.7,7.71-2.71,3.6-5.5,7.14-8.53,10.47a52.28,52.28,0,0,1-6.82,6.52l-1,.73a.4.4,0,0,0-.07.11,6.53,6.53,0,0,1-5.45,6.9,5.45,5.45,0,0,1-2.79-.14,4.2,4.2,0,0,1-2.49-5.73,7.15,7.15,0,0,1,3.73-3.79,5.43,5.43,0,0,1,3.83-.42,13.8,13.8,0,0,1,1.77.72c0,.06,0,.11,0,.17a5.88,5.88,0,0,0,1-.47c1.09-.76,2.2-1.51,3.21-2.37a55.42,55.42,0,0,0,5.6-5.79A119.54,119.54,0,0,0,48,77.52a52.46,52.46,0,0,0,4.33-6.89,3.49,3.49,0,0,0,.33-1.12,44.27,44.27,0,0,1-14.87,9.1,26.29,26.29,0,0,1-.41,2.87,5.43,5.43,0,0,1-7,3.75,4.13,4.13,0,0,1-2.68-2.76A5.36,5.36,0,0,1,30,76a5.6,5.6,0,0,1,6.14,0,1.18,1.18,0,0,0,1,.17,33,33,0,0,0,12.62-6.57,11.48,11.48,0,0,0,1.39-1.53,3.84,3.84,0,0,0,.39-.78c-.58-.23-34,.22-35.24.45-.28.54-.52,1.12-.85,1.64a5.34,5.34,0,0,1-4.65,2.64,5.67,5.67,0,0,1-5.61-4.17c-.06-.2-.12-.39-.19-.58V65.69A13.94,13.94,0,0,1,5.63,64a5.48,5.48,0,0,1,5.16-3.08,5.46,5.46,0,0,1,5.11,3.48c.1.21.17.43.26.64a1.55,1.55,0,0,0,.1.17,4.27,4.27,0,0,0,.49.06l9.58.15,10,.14,8.76.14,5.44.12h1.06a4.67,4.67,0,0,0-.53-1,20.14,20.14,0,0,0-2.25-2.22,33.43,33.43,0,0,0-11.66-5.8,1,1,0,0,0-1,.1,4.73,4.73,0,0,1-4,.9,5.6,5.6,0,0,1-4.52-6.95,4.45,4.45,0,0,1,5-3.32,5.69,5.69,0,0,1,5,5.89c0,.3,0,.59,0,1a42.56,42.56,0,0,1,14.89,9.21l.16-.12c-.12-.33-.21-.66-.36-1A42.57,42.57,0,0,0,49,56.9a114.09,114.09,0,0,0-8.59-11.13c-1.29-1.47-2.58-2.93-4-4.31a23,23,0,0,0-4.86-3.94c-.34-.19-.7-.34-1-.47a.89.89,0,0,0-.22.07,4.07,4.07,0,0,1-3.82.82,7.25,7.25,0,0,1-5.34-4.05,4.25,4.25,0,0,1,3.89-6.17c2.81-.09,6.37,2.19,6.75,5.71,0,.41,0,.82,0,1.42a2.9,2.9,0,0,1,.28.17,48.9,48.9,0,0,1,8.48,8.05c4.66,5.28,8.8,11,12.95,16.65.26.35.52.69.82,1.07C54.82,58,51,46.93,48.43,43.45A3.2,3.2,0,0,1,46,41.89a8.46,8.46,0,0,1-1.48-3.6,2.62,2.62,0,0,1,0-.34,2,2,0,0,1,1-2.09,1.91,1.91,0,0,1,2.23.42,7.66,7.66,0,0,1,2.64,5.43c-.34,1,.19,1.74.65,2.54a44.09,44.09,0,0,1,3.75,9.1c.55,1.8,1,3.63,1.51,5.45,0,.14.1.28.2.57a7.27,7.27,0,0,0,.39-2.27,35.26,35.26,0,0,0-.88-9,63.89,63.89,0,0,0-4-12.61c-.46-1.05-1-2.06-1.55-3.08a1.1,1.1,0,0,0-.52-.51,4,4,0,0,1-1.78-1.38,5.93,5.93,0,0,1-1.4-3.66,1.85,1.85,0,0,1,.85-1.76h.83a6.06,6.06,0,0,1,2.85,3.32,5,5,0,0,1,.26,2.64,1.08,1.08,0,0,0,.1.64,56.46,56.46,0,0,1,3.94,9A56.85,56.85,0,0,1,58,50.3c.42,2.84.81,5.68,1.22,8.52a6.17,6.17,0,0,0,.17.66,1,1,0,0,0,.67-.82c.26-.95.52-1.91.69-2.87a33.5,33.5,0,0,0,.42-6.8,1.35,1.35,0,0,0-.24-.82,7.47,7.47,0,0,1-1.69-3.79,5.84,5.84,0,0,1,0-2.87c.32-1.08,1.11-1.26,1.89-.43a6.27,6.27,0,0,1,1.39,2.52,7.46,7.46,0,0,1,.4,3.93,1.61,1.61,0,0,1-.22.65,2.05,2.05,0,0,0-.25,1.57,19.92,19.92,0,0,1,0,3.17c-.22,2-.57,4-.85,6.07a6.31,6.31,0,0,0-.05,1c0,.55.07.62.73.88a7.67,7.67,0,0,0,1.47-2.12,15.49,15.49,0,0,0,1.42-5.51c0-.34.06-.69.1-1A2.22,2.22,0,0,0,65,50.71a3.43,3.43,0,0,1-.21-3c.32-.89,1-1,1.62-.28a3.64,3.64,0,0,1,.66,3.51c-.1.36-.47.65-.81,1.09-.23,3.37-.81,6.79-3.3,9.58.09.16.16.3.25.43a4.12,4.12,0,0,0,.29.33,8.06,8.06,0,0,0,3-2.46c.16-.2.28-.42.43-.63a1.43,1.43,0,0,0,.25-1.35,3.05,3.05,0,0,1,.32-2.46.85.85,0,0,1,1.55-.08A3.74,3.74,0,0,1,69.49,59c-.22.6-.53.73-1.36.74a8.53,8.53,0,0,1-4,3.8l.7,2.59q2.23,0,4.5,0c.14-.39.24-.72.37-1a.92.92,0,0,1,.8-.67.89.89,0,0,1,.84.62,3.38,3.38,0,0,1,0,3.06A.85.85,0,0,1,69.67,68c-.12-.3-.21-.6-.31-.89A19.11,19.11,0,0,0,64.78,67l-.68,2.48a8.68,8.68,0,0,1,4,3.78c1.15.13,1.55.56,1.62,1.72a4,4,0,0,1-.44,2.34c-.23.4-.49.75-1,.74s-.73-.43-.9-.84A3.31,3.31,0,0,1,67.23,75a1.12,1.12,0,0,0,0-.93,8.45,8.45,0,0,0-3.41-3.32,1.94,1.94,0,0,0-.3-.1l-.52.7c2.5,2.81,3.11,6.24,3.33,9.76A2.89,2.89,0,0,1,67,84.67a3.39,3.39,0,0,1-.51.89c-.65.79-1.36.67-1.7-.3A3.35,3.35,0,0,1,65,82.4a2.39,2.39,0,0,0,.28-1.65c-.17-1.18-.26-2.38-.51-3.54a10.72,10.72,0,0,0-2-4.44c-.15-.2-.32-.38-.47-.55-.68.27-.78.34-.73,1,.08.91.2,1.82.36,2.73a33.06,33.06,0,0,1,.6,6.58,4.51,4.51,0,0,1,0,.76,2.26,2.26,0,0,0,.25,1.71,2.84,2.84,0,0,1,.32,1.39,8.84,8.84,0,0,1-1.59,5.26,2.86,2.86,0,0,1-.67.68.86.86,0,0,1-1.41-.41,4.21,4.21,0,0,1-.28-2.1,7.49,7.49,0,0,1,1.37-4.27,3.43,3.43,0,0,0,.71-2.33,33.28,33.28,0,0,0-.85-7.93,7,7,0,0,0-.43-1.16,4.51,4.51,0,0,0-.49-.66c-.1.39-.18.59-.21.8-.32,2.3-.64,4.59-1,6.89A58.24,58.24,0,0,1,54,96.49c-.71,1.62-1.55,3.18-2.32,4.78a1.19,1.19,0,0,0-.13.7,5.84,5.84,0,0,1-2.84,5.77,1.92,1.92,0,0,0-.28.2Zm6.2-41.54a6.74,6.74,0,0,0,1.26,4,4.37,4.37,0,0,0,7,.37,6.67,6.67,0,0,0,.22-8.23,4.32,4.32,0,0,0-7-.2A6.47,6.47,0,0,0,53.84,66.39ZM10.77,68.46l0,.11A7.84,7.84,0,0,0,12.12,68a1.74,1.74,0,0,0,.15-2.91,2.23,2.23,0,0,0-2.14-.43,1.93,1.93,0,0,0-1.55,2.06,2.1,2.1,0,0,0,2,1.71ZM25.94,102a2.8,2.8,0,0,0,2.4-1.69,1.46,1.46,0,0,0-1-2A2.59,2.59,0,0,0,24.37,100,1.55,1.55,0,0,0,25.94,102Zm.91-67.16a1.55,1.55,0,0,0,1.39-.7,1.57,1.57,0,0,0,0-1.69,2.73,2.73,0,0,0-1.9-1.34,1.71,1.71,0,0,0-1.76.66,1.59,1.59,0,0,0,0,1.76A2.59,2.59,0,0,0,26.85,34.83Zm3.8,17.46a2.18,2.18,0,0,0,2.13,2.08,1.74,1.74,0,0,0,1.73-1.69,2.33,2.33,0,0,0-2.18-2.17A1.66,1.66,0,0,0,30.64,52.3Zm0,28.48a1.66,1.66,0,0,0,1.71,1.75,2.33,2.33,0,0,0,2.16-2.19,1.73,1.73,0,0,0-1.76-1.67A2.17,2.17,0,0,0,30.64,80.77Zm18-40.39a2.68,2.68,0,0,0-1-2,1.05,1.05,0,0,0-.79-.2.71.71,0,0,0-.4.86,2.51,2.51,0,0,0,1,1.74c.2.14.56.28.73.19S48.51,40.55,48.62,40.39Zm0,52.28A2.28,2.28,0,0,0,48.2,92c-.28-.23-.57,0-.8.18a2.64,2.64,0,0,0-1,1.68,1.11,1.11,0,0,0,.06.53.56.56,0,0,0,.92.33A2.72,2.72,0,0,0,48.62,92.67ZM50.18,29a2.12,2.12,0,0,0-.91-1.72c-.47-.29-.92-.05-.9.49a2,2,0,0,0,.89,1.63.74.74,0,0,0,.62.09C50,29.44,50.1,29.16,50.18,29Zm0,75c-.07-.11-.15-.42-.32-.49a.84.84,0,0,0-.68.15,2,2,0,0,0-.8,1.54.72.72,0,0,0,.28.57.74.74,0,0,0,.63-.06A2.09,2.09,0,0,0,50.17,104ZM61.75,46c.48-.69.11-1.37-.08-2a1.67,1.67,0,0,0-.92-1.24A2.72,2.72,0,0,0,61.75,46Zm-1,44.22c1-.56,1.5-2.48.92-3.22A2.74,2.74,0,0,0,60.76,90.25Z"/></clipPath><clipPath id="clip-path-3" transform="translate(0 -20.12)"><rect class="cls-1" x="5" width="276" height="133"/></clipPath><clipPath id="clip-path-4" transform="translate(0 -20.12)"><path class="cls-2" d="M205,70.11c-.71,0-1.42,0-2.13,0h-7.57A3.2,3.2,0,0,0,197.84,73a5.37,5.37,0,0,0,4.08-.79c.17-.11.34-.23.59-.4l1.6,2.31a5.21,5.21,0,0,1-.51.47,8.78,8.78,0,0,1-9.08.39,6.44,6.44,0,0,1-3-4.63,7.38,7.38,0,0,1,1-5.23,6.78,6.78,0,0,1,6.81-3.1,6.28,6.28,0,0,1,5.5,5c.06.22.15.43.22.64Zm-3.52-2.52a3,3,0,0,0-3.39-2.71,2.87,2.87,0,0,0-2.81,2.71Z"/></clipPath><clipPath id="clip-path-6" transform="translate(0 -20.12)"><path class="cls-2" d="M83.69,75.68h-4V57.29h4c0,1.3,0,2.6,0,3.9s0,2.6,0,4.07l6.32-8h5l-7.27,8.61,7.78,9.75a7.23,7.23,0,0,1-.72.09c-1.22,0-2.44,0-3.66,0a1,1,0,0,1-.92-.47c-1.56-2.08-3.13-4.14-4.7-6.21L85,68.43c-.45.54-.88,1-1.27,1.56a1.13,1.13,0,0,0-.07.6c0,1.43,0,2.85,0,4.28Z"/></clipPath><clipPath id="clip-path-8" transform="translate(0 -20.12)"><path class="cls-2" d="M95.73,69.06a7.11,7.11,0,0,1,14.19-.69c.28,4.08-2.29,7.49-6.74,7.67a6.82,6.82,0,0,1-7.45-7m3.74-.18a13.28,13.28,0,0,0,.27,1.56,3.08,3.08,0,0,0,2.71,2.3,3,3,0,0,0,3.2-1.67,4.33,4.33,0,0,0,0-4.17,3.18,3.18,0,0,0-5.83.43,12.71,12.71,0,0,0-.35,1.55"/></clipPath><clipPath id="clip-path-10" transform="translate(0 -20.12)"><path class="cls-2" d="M141.11,70.16h-9.72a3.42,3.42,0,0,0,3.43,2.95,5.57,5.57,0,0,0,3.38-1l.34-.23.17,0,1.56,2.26a4.9,4.9,0,0,1-.58.49,8.48,8.48,0,0,1-8.89.41,6.19,6.19,0,0,1-3.21-5,7,7,0,0,1,2.27-6.36c3.21-2.9,9.74-2.37,11.12,3.57A6.42,6.42,0,0,1,141.11,70.16Zm-3.57-2.56a2.77,2.77,0,0,0-2.89-2.72,3,3,0,0,0-3.26,2.72Z"/></clipPath><clipPath id="clip-path-12" transform="translate(0 -20.12)"><path class="cls-2" d="M185.59,75.69H181.7l-5.37-13.4h3.89l3.41,9.07,3.42-9.11c1.3,0,2.55-.07,3.91,0l-5.38,13.39"/></clipPath><clipPath id="clip-path-14" transform="translate(0 -20.12)"><path class="cls-2" d="M153.59,71.27,156,73.48c-1,1.92-4.2,3.16-7.44,2.28a7.08,7.08,0,0,1,.33-13.63c3-.67,6,.37,7.11,2.33l-2.24,2.13a2.71,2.71,0,0,1-.35-.27,3.47,3.47,0,0,0-6,2,3.91,3.91,0,0,0,1,3.39,3.47,3.47,0,0,0,4.9,0,4,4,0,0,0,.36-.52"/></clipPath><clipPath id="clip-path-16" transform="translate(0 -20.12)"><path class="cls-2" d="M167,75.1a4,4,0,0,1-2.68.94,5.89,5.89,0,0,1-1.64-.16,3.05,3.05,0,0,1-2.5-3.19c0-2.14,0-4.27,0-6.41v-.82h-2.15V62.25h2.14V58.69h3.63v3.52h2.65a16.13,16.13,0,0,1,0,3.23h-2.6c0,.25-.05.43-.05.61q0,2.62,0,5.24c0,.09,0,.18,0,.28a1.14,1.14,0,0,0,1.44,1.16,8.66,8.66,0,0,0,1-.25L167,75.1"/></clipPath><clipPath id="clip-path-18" transform="translate(0 -20.12)"><path class="cls-2" d="M124.33,75.66a26.74,26.74,0,0,1-3.47.06c-.21-.56-.25-17.66-.06-18.44h3.53Z"/></clipPath><clipPath id="clip-path-20" transform="translate(0 -20.12)"><rect class="cls-1" x="5" y="25.12" width="199.98" height="82.81"/></clipPath><clipPath id="clip-path-22" transform="translate(0 -20.12)"><rect class="cls-1" x="113" y="56" width="62" height="20"/></clipPath><clipPath id="clip-path-23" transform="translate(0 -20.12)"><rect class="cls-1" x="113.1" y="57.28" width="3.54" height="18.4"/></clipPath><clipPath id="clip-path-25" transform="translate(0 -20.12)"><path class="cls-2" d="M170.49,62.29H174c.17.52.23,12.2.07,13.4a25.44,25.44,0,0,1-3.53,0Z"/></clipPath><clipPath id="clip-path-27" transform="translate(0 -20.12)"><path class="cls-2" d="M172.34,60.17a2.07,2.07,0,1,1-.1-4.13,2.07,2.07,0,0,1,.1,4.13"/></clipPath></defs><title>lc-11</title><g id="Слой_2" data-name="Слой 2"><g id="Слой_1-2" data-name="Слой 1"><g class="cls-3"><g class="cls-4"><g class="cls-5"><g class="cls-6"><rect class="cls-7" width="76.68" height="92.81"/></g></g><g class="cls-8"><g class="cls-6"><rect class="cls-7" x="186.36" y="36.81" width="23.62" height="24.12"/></g></g><g class="cls-9"><g class="cls-6"><rect class="cls-7" x="74.69" y="32.17" width="25.84" height="28.46"/></g></g><g class="cls-10"><g class="cls-6"><rect class="cls-7" x="90.73" y="36.82" width="24.21" height="24.11"/></g></g><g class="cls-11"><g class="cls-6"><rect class="cls-7" x="122.51" y="36.8" width="23.71" height="24.16"/></g></g><g class="cls-12"><g class="cls-6"><rect class="cls-7" x="171.33" y="37.11" width="24.64" height="23.46"/></g></g><g class="cls-13"><g class="cls-6"><rect class="cls-7" x="138.54" y="36.81" width="22.43" height="24.12"/></g></g><g class="cls-14"><g class="cls-6"><rect class="cls-7" x="153.08" y="33.57" width="18.97" height="27.35"/></g></g><g class="cls-15"><g class="cls-6"><rect class="cls-7" x="115.68" y="32.16" width="13.65" height="28.47"/></g></g><g class="cls-16"><g class="cls-6"><g class="cls-17"><g class="cls-18"><g class="cls-19"><g class="cls-4"><rect class="cls-7" x="108.1" y="32.16" width="13.54" height="28.4"/></g></g><g class="cls-20"><g class="cls-4"><rect class="cls-7" x="165.49" y="37.17" width="13.63" height="23.46"/></g></g><g class="cls-21"><g class="cls-4"><rect class="cls-7" x="165.22" y="30.92" width="14.13" height="14.13"/></g></g></g></g></g></g></g></g></g></g></svg>