<svg xmlns="http://www.w3.org/2000/svg" xmlns:xlink="http://www.w3.org/1999/xlink" width="168" height="54" viewBox="0 0 168 54"><defs><style>.cls-1,.cls-2{fill:none;}.cls-2{clip-rule:evenodd;}.cls-3{opacity:0.8;}.cls-13,.cls-3{isolation:isolate;}.cls-4{clip-path:url(#clip-path);}.cls-5{clip-path:url(#clip-path-2);}.cls-6{clip-path:url(#clip-path-3);}.cls-7{fill:#4b4b4b;}.cls-8{clip-path:url(#clip-path-4);}.cls-9{clip-path:url(#clip-path-6);}.cls-10{clip-path:url(#clip-path-8);}.cls-11{clip-path:url(#clip-path-10);}.cls-12{clip-path:url(#clip-path-12);}.cls-14{clip-path:url(#clip-path-14);}.cls-15{clip-path:url(#clip-path-15);}.cls-16{clip-path:url(#clip-path-17);}.cls-17{clip-path:url(#clip-path-19);}.cls-18{clip-path:url(#clip-path-21);}.cls-19{clip-path:url(#clip-path-23);}.cls-20{clip-path:url(#clip-path-25);}.cls-21{clip-path:url(#clip-path-27);}.cls-22{clip-path:url(#clip-path-29);}.cls-23{clip-path:url(#clip-path-31);}.cls-24{clip-path:url(#clip-path-33);}.cls-25{clip-path:url(#clip-path-35);}.cls-26{clip-path:url(#clip-path-37);}.cls-27{clip-path:url(#clip-path-39);}.cls-28{clip-path:url(#clip-path-41);}.cls-29{clip-path:url(#clip-path-43);}.cls-30{clip-path:url(#clip-path-45);}.cls-31{clip-path:url(#clip-path-47);}.cls-32{clip-path:url(#clip-path-49);}.cls-33{clip-path:url(#clip-path-51);}.cls-34{clip-path:url(#clip-path-53);}</style><clipPath id="clip-path" transform="translate(-36 -40)"><rect class="cls-1" y="45" width="199" height="45"/></clipPath><clipPath id="clip-path-2" transform="translate(-36 -40)"><path class="cls-2" d="M134,73.51l12-6.78,5.79,11.5S163.39,53.31,176,48c0,0-1.34,5.53,0,15.63,0,.52-12,6.93-23.3,25.36.3.44-18.7-15.48-18.7-15.48"/></clipPath><clipPath id="clip-path-3" transform="translate(-36 -40)"><rect class="cls-1" width="276" height="133"/></clipPath><clipPath id="clip-path-4" transform="translate(-36 -40)"><path class="cls-2" d="M169,76h2.64a4.65,4.65,0,0,1,1.36.15,2.36,2.36,0,0,1,1.08.74,3.6,3.6,0,0,1,.68,1.3,6.52,6.52,0,0,1,.23,1.89,5.84,5.84,0,0,1-.22,1.7,3.63,3.63,0,0,1-.77,1.41,2.49,2.49,0,0,1-1,.64,3.94,3.94,0,0,1-1.28.17H169Zm1.44,1.35v5.3h1.08a3.52,3.52,0,0,0,.87-.08,1.29,1.29,0,0,0,.58-.33,1.76,1.76,0,0,0,.38-.77,5.83,5.83,0,0,0,.15-1.46,5.35,5.35,0,0,0-.15-1.42,1.89,1.89,0,0,0-.41-.77,1.33,1.33,0,0,0-.67-.38,5.91,5.91,0,0,0-1.19-.08Z"/></clipPath><clipPath id="clip-path-6" transform="translate(-36 -40)"><path class="cls-2" d="M176,79a5.23,5.23,0,0,1,.33-2A3.69,3.69,0,0,1,177,76a2.8,2.8,0,0,1,.93-.7,3.73,3.73,0,0,1,1.55-.31A3.27,3.27,0,0,1,182,76.06a5,5,0,0,1,0,5.88,3.61,3.61,0,0,1-5.1,0A4.17,4.17,0,0,1,176,79m1.5-.05a3,3,0,0,0,.57,2,1.86,1.86,0,0,0,2.87,0,3.11,3.11,0,0,0,.56-2,3.06,3.06,0,0,0-.54-2,1.92,1.92,0,0,0-2.9,0,3.07,3.07,0,0,0-.55,2"/></clipPath><clipPath id="clip-path-8" transform="translate(-36 -40)"><polygon class="cls-2" points="184 84 184 76 185.49 76 188.58 81.34 188.58 76 190 76 190 84 188.47 84 185.42 78.78 185.42 84 184 84"/></clipPath><clipPath id="clip-path-10" transform="translate(-36 -40)"><polygon class="cls-2" points="192 84 192 76 197.85 76 197.85 77.35 193.59 77.35 193.59 79.13 197.55 79.13 197.55 80.47 193.59 80.47 193.59 82.65 198 82.65 198 84 192 84"/></clipPath><clipPath id="clip-path-12" transform="translate(-36 -40)"><rect class="cls-1" y="45" width="200" height="44"/></clipPath><clipPath id="clip-path-14" transform="translate(-36 -40)"><rect class="cls-1" y="45" width="199" height="40"/></clipPath><clipPath id="clip-path-15" transform="translate(-36 -40)"><rect class="cls-1" x="198" y="82" width="1" height="2"/></clipPath><clipPath id="clip-path-17" transform="translate(-36 -40)"><path class="cls-2" d="M46,76.15A12.45,12.45,0,0,1,48,76a3.39,3.39,0,0,1,2.28.66A2.12,2.12,0,0,1,51,78.32a2.31,2.31,0,0,1-.63,1.7,3.41,3.41,0,0,1-2.48.87,3.69,3.69,0,0,1-.84-.07V84H46ZM47,80a3.57,3.57,0,0,0,.87.08c1.27,0,2-.6,2-1.7s-.76-1.56-1.92-1.56a4.47,4.47,0,0,0-1,.08Z"/></clipPath><clipPath id="clip-path-19" transform="translate(-36 -40)"><path class="cls-2" d="M58,84.59A4.65,4.65,0,0,1,55.9,85c-2.23,0-3.9-1.55-3.9-4.42S53.68,76,56.13,76a3.89,3.89,0,0,1,1.88.39l-.25.92a3.42,3.42,0,0,0-1.59-.36c-1.85,0-3.08,1.31-3.08,3.6,0,2.14,1.11,3.51,3,3.51a3.75,3.75,0,0,0,1.66-.36Z"/></clipPath><clipPath id="clip-path-21" transform="translate(-36 -40)"><rect class="cls-1" x="60" y="76" width="1" height="8"/></clipPath><clipPath id="clip-path-23" transform="translate(-36 -40)"><path class="cls-2" d="M71,84.59A4.65,4.65,0,0,1,68.9,85c-2.23,0-3.9-1.55-3.9-4.42S66.68,76,69.13,76a3.89,3.89,0,0,1,1.88.39l-.25.92a3.42,3.42,0,0,0-1.59-.36c-1.85,0-3.08,1.31-3.08,3.6,0,2.14,1.11,3.51,3,3.51a3.75,3.75,0,0,0,1.66-.36Z"/></clipPath><clipPath id="clip-path-25" transform="translate(-36 -40)"><path class="cls-2" d="M78,80.41c0,3-1.6,4.59-3.56,4.59S71,83.22,71,80.58,72.51,76,74.56,76,78,77.82,78,80.41m-5.94.14c0,1.86.89,3.53,2.44,3.53S77,82.44,77,80.46c0-1.73-.8-3.54-2.44-3.54s-2.45,1.72-2.45,3.63"/></clipPath><clipPath id="clip-path-27" transform="translate(-36 -40)"><path class="cls-2" d="M86.81,80.49c-.06-1.12-.13-2.46-.12-3.45h0c-.27.94-.59,1.93-1,3L84.29,84h-.77l-1.27-3.81C81.88,79,81.57,78,81.35,77h0c0,1-.08,2.34-.15,3.54L81,84H80l.55-8h1.29l1.34,3.87c.33,1,.59,1.86.79,2.69h0c.2-.81.48-1.69.82-2.69L86.22,76h1.29L88,84H87Z"/></clipPath><clipPath id="clip-path-29" transform="translate(-36 -40)"><path class="cls-2" d="M90,76.15A12.45,12.45,0,0,1,92,76a3.39,3.39,0,0,1,2.28.66A2.12,2.12,0,0,1,95,78.32a2.31,2.31,0,0,1-.63,1.7,3.41,3.41,0,0,1-2.48.87,3.69,3.69,0,0,1-.84-.07V84H90ZM91,80a3.57,3.57,0,0,0,.87.08c1.27,0,2-.6,2-1.7s-.76-1.56-1.92-1.56a4.47,4.47,0,0,0-1,.08Z"/></clipPath><clipPath id="clip-path-31" transform="translate(-36 -40)"><polygon class="cls-2" points="96 76 96.93 76 96.93 83.13 100 83.13 100 84 96 84 96 76"/></clipPath><clipPath id="clip-path-33" transform="translate(-36 -40)"><rect class="cls-1" x="102" y="76" width="1" height="8"/></clipPath><clipPath id="clip-path-35" transform="translate(-36 -40)"><path class="cls-2" d="M106,81.48,105.12,84H104l2.84-8h1.3L111,84h-1.15L109,81.48Zm2.74-.81-.82-2.3c-.19-.52-.31-1-.44-1.46h0c-.12.47-.26,1-.42,1.45l-.82,2.31Z"/></clipPath><clipPath id="clip-path-37" transform="translate(-36 -40)"><path class="cls-2" d="M112,84V76h1.13l2.56,4a22.69,22.69,0,0,1,1.44,2.6h0c-.09-1.07-.12-2-.12-3.29V76h1v8h-1l-2.54-4.06a25.42,25.42,0,0,1-1.49-2.67h0c.06,1,.08,2,.08,3.3V84Z"/></clipPath><clipPath id="clip-path-39" transform="translate(-36 -40)"><path class="cls-2" d="M125,84.59a4.65,4.65,0,0,1-2.09.41c-2.23,0-3.9-1.55-3.9-4.42S120.68,76,123.13,76a3.89,3.89,0,0,1,1.88.39l-.25.92a3.42,3.42,0,0,0-1.59-.36c-1.85,0-3.08,1.31-3.08,3.6,0,2.14,1.11,3.51,3,3.51a3.75,3.75,0,0,0,1.66-.36Z"/></clipPath><clipPath id="clip-path-41" transform="translate(-36 -40)"><polygon class="cls-2" points="131.6 80.25 128.15 80.25 128.15 83.13 132 83.13 132 84 127 84 127 76 131.8 76 131.8 76.87 128.15 76.87 128.15 79.39 131.6 79.39 131.6 80.25"/></clipPath><clipPath id="clip-path-43" transform="translate(-36 -40)"><path class="cls-2" d="M45.49,51v4.17H49v2H45.49V65c0,1.8.47,2.82,1.84,2.82a5.08,5.08,0,0,0,1.42-.18l.11,2a5.63,5.63,0,0,1-2.18.36A3.28,3.28,0,0,1,44,68.89a5.68,5.68,0,0,1-.95-3.78V57.18H41v-2h2.09V51.69Z"/></clipPath><clipPath id="clip-path-45" transform="translate(-36 -40)"><path class="cls-2" d="M52.36,63c.06,3.53,2.19,5,4.67,5a8.53,8.53,0,0,0,3.77-.74l.42,1.87a10.51,10.51,0,0,1-4.52.89C52.5,70,50,67.09,50,62.75S52.42,55,56.38,55C60.82,55,62,59.13,62,61.77A10.46,10.46,0,0,1,61.92,63Zm7.25-1.87c0-1.66-.65-4.25-3.43-4.25-2.5,0-3.6,2.44-3.79,4.25Z"/></clipPath><clipPath id="clip-path-47" transform="translate(-36 -40)"><path class="cls-2" d="M77.89,49V66.85c0,1.31,0,2.81.11,3.81H75.75l-.11-2.56h-.06A5.05,5.05,0,0,1,70.89,71C67.56,71,65,68,65,63.49c0-4.91,2.82-7.93,6.17-7.93a4.53,4.53,0,0,1,4.15,2.26h.06V49Zm-2.5,12.91a5,5,0,0,0-.11-1.13,3.75,3.75,0,0,0-3.61-3.11c-2.59,0-4.12,2.44-4.12,5.71,0,3,1.36,5.46,4.07,5.46a3.83,3.83,0,0,0,3.67-3.2,5,5,0,0,0,.11-1.16Z"/></clipPath><clipPath id="clip-path-49" transform="translate(-36 -40)"><path class="cls-2" d="M81,45.5a48.78,48.78,0,0,1,7.66-.5c3.5,0,6,.64,7.66,1.91A6.83,6.83,0,0,1,99,52.42a7.41,7.41,0,0,1-2.31,5.66c-1.93,1.73-4.8,2.51-8.14,2.51a15,15,0,0,1-1.93-.11V69H81Zm5.62,10.82a9.09,9.09,0,0,0,1.9.14c3,0,4.87-1.45,4.87-3.89,0-2.19-1.6-3.5-4.43-3.5a10.14,10.14,0,0,0-2.34.21Z"/></clipPath><clipPath id="clip-path-51" transform="translate(-36 -40)"><path class="cls-2" d="M119.71,69a15.31,15.31,0,0,1-6.15,1C105.27,70,101,64.78,101,57.88,101,49.6,106.83,45,114.09,45A14,14,0,0,1,120,46.08l-1.1,4.35a11.6,11.6,0,0,0-4.55-.9c-4.31,0-7.65,2.63-7.65,8,0,4.86,2.85,7.91,7.69,7.91a13.41,13.41,0,0,0,4.52-.79Z"/></clipPath><clipPath id="clip-path-53" transform="translate(-36 -40)"><rect class="cls-1" x="124" y="46" width="6" height="24"/></clipPath></defs><title>lc-15</title><g id="Слой_2" data-name="Слой 2"><g id="Слой_1-2" data-name="Слой 1"><g class="cls-3"><g class="cls-4"><g class="cls-5"><g class="cls-6"><rect class="cls-7" x="93" y="3" width="52" height="51"/></g></g><g class="cls-8"><g class="cls-6"><rect class="cls-7" x="128" y="31" width="16" height="18"/></g></g><g class="cls-9"><g class="cls-6"><rect class="cls-7" x="135" y="30" width="17" height="18"/></g></g><g class="cls-10"><g class="cls-6"><rect class="cls-7" x="143" y="31" width="16" height="18"/></g></g><g class="cls-11"><g class="cls-6"><rect class="cls-7" x="151" y="31" width="16" height="18"/></g></g><g class="cls-12"><g class="cls-6"><g class="cls-13"><g class="cls-14"><g class="cls-15"><g class="cls-12"><rect class="cls-7" x="157" y="37" width="11" height="12"/></g></g><g class="cls-16"><g class="cls-12"><rect class="cls-7" x="5" y="31" width="15" height="18"/></g></g><g class="cls-17"><g class="cls-12"><rect class="cls-7" x="11" y="31" width="16" height="19"/></g></g><g class="cls-18"><g class="cls-12"><rect class="cls-7" x="19" y="31" width="11" height="18"/></g></g><g class="cls-19"><g class="cls-12"><rect class="cls-7" x="24" y="31" width="16" height="19"/></g></g><g class="cls-20"><g class="cls-12"><rect class="cls-7" x="30" y="31" width="17" height="19"/></g></g><g class="cls-21"><g class="cls-12"><rect class="cls-7" x="39" y="31" width="18" height="18"/></g></g><g class="cls-22"><g class="cls-12"><rect class="cls-7" x="49" y="31" width="15" height="18"/></g></g><g class="cls-23"><g class="cls-12"><rect class="cls-7" x="55" y="31" width="14" height="18"/></g></g><g class="cls-24"><g class="cls-12"><rect class="cls-7" x="61" y="31" width="11" height="18"/></g></g><g class="cls-25"><g class="cls-12"><rect class="cls-7" x="63" y="31" width="17" height="18"/></g></g><g class="cls-26"><g class="cls-12"><rect class="cls-7" x="71" y="31" width="16" height="18"/></g></g><g class="cls-27"><g class="cls-12"><rect class="cls-7" x="78" y="31" width="16" height="19"/></g></g><g class="cls-28"><g class="cls-12"><rect class="cls-7" x="86" y="31" width="15" height="18"/></g></g><g class="cls-29"><g class="cls-12"><rect class="cls-7" y="6" width="18" height="29"/></g></g><g class="cls-30"><g class="cls-12"><rect class="cls-7" x="9" y="10" width="22" height="25"/></g></g><g class="cls-31"><g class="cls-12"><rect class="cls-7" x="24" y="4" width="23" height="32"/></g></g><g class="cls-32"><g class="cls-12"><rect class="cls-7" x="40" width="28" height="34"/></g></g><g class="cls-33"><g class="cls-12"><rect class="cls-7" x="60" width="29" height="35"/></g></g><g class="cls-34"><g class="cls-12"><rect class="cls-7" x="83" y="1" width="16" height="34"/></g></g></g></g></g></g></g></g></g></g></svg>