<svg xmlns="http://www.w3.org/2000/svg" xmlns:xlink="http://www.w3.org/1999/xlink" width="209.85" height="59.12" viewBox="0 0 209.85 59.12"><defs><style>.cls-1,.cls-2{fill:none;}.cls-2{clip-rule:evenodd;}.cls-3{opacity:0.8;}.cls-14,.cls-3{isolation:isolate;}.cls-4{clip-path:url(#clip-path);}.cls-5{clip-path:url(#clip-path-2);}.cls-6{clip-path:url(#clip-path-3);}.cls-7{fill:#4b4b4b;}.cls-8{clip-path:url(#clip-path-4);}.cls-9{clip-path:url(#clip-path-6);}.cls-10{clip-path:url(#clip-path-8);}.cls-11{clip-path:url(#clip-path-10);}.cls-12{clip-path:url(#clip-path-12);}.cls-13{clip-path:url(#clip-path-14);}.cls-15{clip-path:url(#clip-path-16);}.cls-16{clip-path:url(#clip-path-17);}</style><clipPath id="clip-path" transform="translate(0 -37.09)"><rect class="cls-1" x="5" y="42" width="200" height="50"/></clipPath><clipPath id="clip-path-2" transform="translate(0 -37.09)"><path class="cls-2" d="M59.92,56.57A11,11,0,0,0,53,59V57.17H46.68v34S51,87.09,53,87.09V77.6a11,11,0,0,0,7,2.52,11.22,11.22,0,0,0,8.29-3.33,11.45,11.45,0,0,0,3.31-8.35A11.61,11.61,0,0,0,68.29,60a11.19,11.19,0,0,0-8.36-3.4m-5.49,7.08A6.1,6.1,0,0,1,59,61.88a5.79,5.79,0,0,1,4.41,1.83,6.65,6.65,0,0,1,1.74,4.76A6.32,6.32,0,0,1,63.39,73,5.74,5.74,0,0,1,59,74.86a6,6,0,0,1-4.56-1.79,6.58,6.58,0,0,1-1.76-4.71,6.44,6.44,0,0,1,1.76-4.71"/></clipPath><clipPath id="clip-path-3" transform="translate(0 -37.09)"><rect class="cls-1" x="5" width="276" height="133"/></clipPath><clipPath id="clip-path-4" transform="translate(0 -37.09)"><path class="cls-2" d="M120.62,59.06a9,9,0,0,0-6.72-2.49,9.63,9.63,0,0,0-6,2.1v-1.5h-6.31V79.5h6.31V68.71c0-2.58.35-4.4,1-5.4a3.93,3.93,0,0,1,3.5-1.45,3.72,3.72,0,0,1,3.1,1.08c.58.73.88,2.13.88,4.14V79.5h6.31V65.9c0-3.13-.71-5.43-2.1-6.84"/></clipPath><clipPath id="clip-path-6" transform="translate(0 -37.09)"><path class="cls-2" d="M139,56.57a11,11,0,0,0-7,2.44V57.17H125.7v34s3.3-3.89,6.35-3.89V77.6a11.07,11.07,0,0,0,7.06,2.52,11.29,11.29,0,0,0,8.33-3.33,11.42,11.42,0,0,0,3.32-8.35A11.58,11.58,0,0,0,147.42,60a11.27,11.27,0,0,0-8.4-3.4m-5.51,7.08a6.15,6.15,0,0,1,4.61-1.77,5.83,5.83,0,0,1,4.43,1.83,6.63,6.63,0,0,1,1.74,4.76A6.3,6.3,0,0,1,142.49,73a5.78,5.78,0,0,1-4.41,1.81,6,6,0,0,1-4.58-1.79,6.56,6.56,0,0,1-1.77-4.71,6.42,6.42,0,0,1,1.76-4.71"/></clipPath><clipPath id="clip-path-8" transform="translate(0 -37.09)"><path class="cls-2" d="M171.52,58.48a10.41,10.41,0,0,0-6.93-2.68,10.85,10.85,0,0,0-8.2,3.48A12.21,12.21,0,0,0,153.12,68a12.57,12.57,0,0,0,3.27,8.83,11.07,11.07,0,0,0,8.35,3.48,10.81,10.81,0,0,0,6.78-2.5v1.86h6.28V56.43h-6.28ZM170.12,73a5.92,5.92,0,0,1-4.56,1.84,5.59,5.59,0,0,1-4.36-1.9A7.16,7.16,0,0,1,159.5,68a6.84,6.84,0,0,1,1.74-4.75,5.67,5.67,0,0,1,4.37-1.89,5.82,5.82,0,0,1,4.51,1.86,7.74,7.74,0,0,1,0,9.78Z"/></clipPath><clipPath id="clip-path-10" transform="translate(0 -37.09)"><path class="cls-2" d="M198.68,57.17l-6.56,14-5.38-14h-7l8.8,21.52-5.44,12S188,87.52,190.33,88l14.52-30.86Z"/></clipPath><clipPath id="clip-path-12" transform="translate(0 -37.09)"><path class="cls-2" d="M98.06,68.33c0-3.64-1.07-6.54-3.18-8.62a11.93,11.93,0,0,0-8.7-3.15,12,12,0,0,0-8.75,3.24,11.61,11.61,0,0,0-3.28,8.55,11.34,11.34,0,0,0,3.38,8.55,12.5,12.5,0,0,0,8.94,3.21,13.19,13.19,0,0,0,9.41-4.21l.39-.46L90.5,73.53l-.17.09a11.09,11.09,0,0,1-3.65,1.25,5.77,5.77,0,0,1-4.07-1.43,5.69,5.69,0,0,1-1.74-3.51H98Zm-17.3-2.89a5.49,5.49,0,0,1,.79-1.66,5.27,5.27,0,0,1,1.25-1.25,5.65,5.65,0,0,1,1.62-.8,6.37,6.37,0,0,1,1.9-.28q4.44,0,5.6,4Z"/></clipPath><clipPath id="clip-path-14" transform="translate(0 -37.09)"><rect class="cls-1" x="5" y="42.09" width="199.85" height="49.12"/></clipPath><clipPath id="clip-path-16" transform="translate(0 -37.09)"><rect class="cls-1" x="5" y="42" width="40" height="40"/></clipPath><clipPath id="clip-path-17" transform="translate(0 -37.09)"><path class="cls-2" d="M24.69,42.09A19.69,19.69,0,1,0,44.37,61.78,19.69,19.69,0,0,0,24.69,42.09Zm12,19.69a12,12,0,1,1-12-12h12Z"/></clipPath></defs><title>lc-10</title><g id="Слой_2" data-name="Слой 2"><g id="Слой_1-2" data-name="Слой 1"><g class="cls-3"><g class="cls-4"><g class="cls-5"><g class="cls-6"><rect class="cls-7" x="41.68" y="14.47" width="34.94" height="44.64"/></g></g><g class="cls-8"><g class="cls-6"><rect class="cls-7" x="96.58" y="14.47" width="31.14" height="32.94"/></g></g><g class="cls-9"><g class="cls-6"><rect class="cls-7" x="120.7" y="14.47" width="35.06" height="44.64"/></g></g><g class="cls-10"><g class="cls-6"><rect class="cls-7" x="148.12" y="13.71" width="34.69" height="34.46"/></g></g><g class="cls-11"><g class="cls-6"><rect class="cls-7" x="174.74" y="15.07" width="35.11" height="43.53"/></g></g><g class="cls-12"><g class="cls-6"><rect class="cls-7" x="69.16" y="14.47" width="33.9" height="33.55"/></g></g><g class="cls-13"><g class="cls-6"><g class="cls-14"><g class="cls-15"><g class="cls-16"><g class="cls-4"><rect class="cls-7" width="49.37" height="49.37"/></g></g></g></g></g></g></g></g></g></g></svg>