<svg xmlns="http://www.w3.org/2000/svg" xmlns:xlink="http://www.w3.org/1999/xlink" width="209.95" height="58.65" viewBox="0 0 209.95 58.65"><defs><style>.cls-1,.cls-2{fill:none;}.cls-2{clip-rule:evenodd;}.cls-3{opacity:0.8;isolation:isolate;}.cls-4{clip-path:url(#clip-path);}.cls-5{clip-path:url(#clip-path-2);}.cls-6{clip-path:url(#clip-path-3);}.cls-7{fill:#4b4b4b;}.cls-8{clip-path:url(#clip-path-4);}.cls-9{clip-path:url(#clip-path-6);}.cls-10{clip-path:url(#clip-path-8);}.cls-11{clip-path:url(#clip-path-10);}.cls-12{clip-path:url(#clip-path-12);}.cls-13{clip-path:url(#clip-path-14);}.cls-14{clip-path:url(#clip-path-16);}.cls-15{clip-path:url(#clip-path-18);}</style><clipPath id="clip-path" transform="translate(0 -28.09)"><rect class="cls-1" x="5" y="33" width="201" height="67"/></clipPath><clipPath id="clip-path-2" transform="translate(0 -28.09)"><path class="cls-2" d="M5,55.48h6.16a6.42,6.42,0,0,1,.08.71c0,7.08,0,14.16,0,21.24a3.5,3.5,0,0,1-3.84,3.75c-.53-.05-1.08,0-1.61,0H5Z"/></clipPath><clipPath id="clip-path-3" transform="translate(0 -28.09)"><rect class="cls-1" x="5" width="276" height="133"/></clipPath><clipPath id="clip-path-4" transform="translate(0 -28.09)"><path class="cls-2" d="M167.65,68.63,173,63.07c-.4-.31-.68-.54-1-.76a12,12,0,0,1-5.4-10.19c0-2.31,0-4.63,0-6.94a12.38,12.38,0,0,1,10.74-12,9.42,9.42,0,0,1,1.39,0c4.71,0,9.41.05,14.12,0a12.41,12.41,0,0,1,12,10.36,9.35,9.35,0,0,1,.07,1.62c0,2.47,0,4.94,0,7.41a12.27,12.27,0,0,1-9.82,11.72,14.16,14.16,0,0,1-2.29.22c-1.31,0-2.63.09-3.93,0a28.17,28.17,0,0,0-10.67,1.49c-3.18,1-6.43,1.85-9.65,2.76-.27.08-.55.11-.83.16l-.11-.19m25.6-11.33c.37-.14.64-.26.93-.36a5.21,5.21,0,0,0,3.53-5c-.08-2.15,0-4.31,0-6.47a5.07,5.07,0,0,0-5.06-5.08q-6.82,0-13.64,0a5.11,5.11,0,0,0-5.11,5.17c0,2.12.08,4.24,0,6.36a5.29,5.29,0,0,0,5.33,5.34c2.23-.07,4.47,0,6.7,0a3.78,3.78,0,0,1,1.72.48c1.57.9,3.08,1.9,4.62,2.84.34.21.71.37,1.29.67l-.27-3.91"/></clipPath><clipPath id="clip-path-6" transform="translate(0 -28.09)"><path class="cls-2" d="M42.32,55.48V81.12H37.16L24.06,65c0,.47-.07.74-.07,1,0,3.82-.08,7.64,0,11.45a3.5,3.5,0,0,1-3.76,3.7c-.69-.06-1.38,0-2.16,0V55.55h5.59l12.6,15.51c0-.63.08-1,.08-1.34,0-3.47.09-6.94,0-10.41a3.49,3.49,0,0,1,3.85-3.84,19.07,19.07,0,0,0,2.14,0"/></clipPath><clipPath id="clip-path-8" transform="translate(0 -28.09)"><path class="cls-2" d="M90.55,55a14.22,14.22,0,0,1,11.22,5.52A12.76,12.76,0,0,1,98.4,79.12a15.48,15.48,0,0,1-16.27.59,12.13,12.13,0,0,1-6.86-11.81c.17-5.22,2.88-8.89,7.42-11.26A16.41,16.41,0,0,1,90.55,55m-.74,5.29a7.87,7.87,0,0,0-8.23,8,8,8,0,0,0,8.2,8.07A7.91,7.91,0,0,0,98,68.47a8,8,0,0,0-8.2-8.17"/></clipPath><clipPath id="clip-path-10" transform="translate(0 -28.09)"><path class="cls-2" d="M156.35,75.38H145.49c-.19,0-.38,0-.62,0-.47,1.06-1,2.09-1.39,3.16a3.65,3.65,0,0,1-4,2.6c-1-.06-2.08,0-3.32,0l11.72-25.83h5.66l11.71,25.8c-1.66,0-3.19.1-4.7,0A3.09,3.09,0,0,1,158,79C157.45,77.84,156.91,76.65,156.35,75.38Zm-2.2-5.12-3.53-8.07-3.52,8.07Z"/></clipPath><clipPath id="clip-path-12" transform="translate(0 -28.09)"><path class="cls-2" d="M133.47,77.63a12.09,12.09,0,0,1-4.76,3,17,17,0,0,1-11.88-.09,13.11,13.11,0,0,1,1.63-25c5.7-1.32,10.86-.31,15.23,4.11a34.33,34.33,0,0,1-2.82,2.55,2.29,2.29,0,0,1-2.8-.2,9.3,9.3,0,0,0-6-1.68,8,8,0,0,0-.06,16,9.48,9.48,0,0,0,5.62-1.43c1.65-1,2.51-.88,3.84.54.66.7,1.3,1.41,2,2.18"/></clipPath><clipPath id="clip-path-14" transform="translate(0 -28.09)"><path class="cls-2" d="M60.38,73.4,63.32,66c1.08-2.72,2.15-5.44,3.24-8.15.73-1.84,1.54-2.38,3.5-2.38h3.58a2.66,2.66,0,0,1,.37.08L63,81.31h-5.4L46.53,55.5c1.82,0,3.47-.09,5.1,0a2.94,2.94,0,0,1,2.48,2.15q2.51,6.39,5.06,12.77c.36.92.74,1.83,1.2,3"/></clipPath><clipPath id="clip-path-16" transform="translate(0 -28.09)"><path class="cls-2" d="M160.46,61a2.29,2.29,0,1,1,2.29-2.29A2.29,2.29,0,0,1,160.46,61m0-4.08a1.79,1.79,0,1,0,1.79,1.79,1.79,1.79,0,0,0-1.79-1.79"/></clipPath><clipPath id="clip-path-18" transform="translate(0 -28.09)"><path class="cls-2" d="M159.81,59.44V57.84h.72A.64.64,0,0,1,161,58a.52.52,0,0,1,.06.69.55.55,0,0,1-.28.17l.43.61h-.33l-.4-.56h-.35v.56Zm.28-.81h.41a.37.37,0,0,0,.24-.07.25.25,0,0,0,.09-.2.24.24,0,0,0-.09-.2.39.39,0,0,0-.24-.07h-.41Z"/></clipPath></defs><title>lc-12</title><g id="Слой_2" data-name="Слой 2"><g id="Слой_1-2" data-name="Слой 1"><g class="cls-3"><g class="cls-4"><g class="cls-5"><g class="cls-6"><rect class="cls-7" y="22.39" width="16.26" height="35.72"/></g></g><g class="cls-8"><g class="cls-6"><rect class="cls-7" x="161.6" width="48.35" height="45.73"/></g></g><g class="cls-9"><g class="cls-6"><rect class="cls-7" x="13.09" y="22.35" width="34.23" height="35.75"/></g></g><g class="cls-10"><g class="cls-6"><rect class="cls-7" x="70.26" y="21.93" width="39.14" height="36.72"/></g></g><g class="cls-11"><g class="cls-6"><rect class="cls-7" x="131.15" y="22.25" width="39.09" height="35.85"/></g></g><g class="cls-12"><g class="cls-6"><rect class="cls-7" x="103.33" y="21.9" width="35.37" height="36.7"/></g></g><g class="cls-13"><g class="cls-6"><rect class="cls-7" x="41.53" y="22.38" width="37.48" height="35.85"/></g></g><g class="cls-14"><g class="cls-6"><rect class="cls-7" x="153.18" y="23.32" width="14.57" height="14.58"/></g></g><g class="cls-15"><g class="cls-6"><rect class="cls-7" x="154.81" y="24.75" width="11.36" height="11.61"/></g></g></g></g></g></g></svg>