<svg xmlns="http://www.w3.org/2000/svg" xmlns:xlink="http://www.w3.org/1999/xlink" width="152.58" height="24.35" viewBox="0 0 152.58 24.35"><defs><style>.cls-1,.cls-2{fill:none;}.cls-2{clip-rule:evenodd;}.cls-3{opacity:0.8;}.cls-3,.cls-7{isolation:isolate;}.cls-4{clip-path:url(#clip-path);}.cls-5{clip-path:url(#clip-path-2);}.cls-6{clip-path:url(#clip-path-3);}.cls-8{clip-path:url(#clip-path-4);}.cls-9{clip-path:url(#clip-path-5);}.cls-10{fill:#4b4b4b;}.cls-11{clip-path:url(#clip-path-7);}</style><clipPath id="clip-path" transform="translate(-52.37 -66.17)"><rect class="cls-1" y="48" width="200" height="38"/></clipPath><clipPath id="clip-path-2" transform="translate(-52.37 -66.17)"><rect class="cls-1" y="48.36" width="199.94" height="37.17"/></clipPath><clipPath id="clip-path-3" transform="translate(-52.37 -66.17)"><rect class="cls-1" width="276" height="133"/></clipPath><clipPath id="clip-path-4" transform="translate(-52.37 -66.17)"><rect class="cls-1" x="57" y="71" width="143" height="15"/></clipPath><clipPath id="clip-path-5" transform="translate(-52.37 -66.17)"><path class="cls-2" d="M187.06,74.61c0-1.23,2.24-3.43,3.46-3.43h8.4a.19.19,0,0,1,.19.19V74a.19.19,0,0,1-.19.19h-8.08a.65.65,0,0,0-.64.65V76.1a.64.64,0,0,0,.64.64h5.63c1.27,0,3.47,2.16,3.47,3.42v1.71c0,1.23-2.23,3.46-3.47,3.46h-9a.19.19,0,0,1-.19-.19V82.49a.19.19,0,0,1,.19-.19h8.71a.64.64,0,0,0,.64-.65V80.41a.64.64,0,0,0-.64-.64h-5.64c-1.23,0-3.47-2.24-3.46-3.47Zm-5.26-3.25a.19.19,0,0,1,.19-.19h2.76a.19.19,0,0,1,.19.19V81.87c0,1.23-2.23,3.46-3.47,3.46h-5.32c-1.23,0-3.46-2.24-3.46-3.46V71.36a.19.19,0,0,1,.19-.19h2.76a.18.18,0,0,1,.19.19v10.3a.65.65,0,0,0,.64.65h4.69a.64.64,0,0,0,.64-.65Zm-21.25.8a3.38,3.38,0,0,0-1.89-1h-4.12c-1.24,0-3.45,2.25-3.45,3.47V85.15a.19.19,0,0,0,.19.19H154a.19.19,0,0,0,.19-.19V74.85a.64.64,0,0,1,.64-.64h3.48a.64.64,0,0,1,.64.62V85.15a.19.19,0,0,0,.19.19h2.76a.19.19,0,0,0,.19-.19V74.83a.65.65,0,0,1,.64-.62h3.48a.64.64,0,0,1,.64.64v10.3a.19.19,0,0,0,.19.19h2.76a.19.19,0,0,0,.19-.19V74.64c0-1.22-2.23-3.47-3.46-3.47h-4.11A3.38,3.38,0,0,0,160.55,72.17Zm-15.08-1h2.76a.19.19,0,0,1,.19.19V85.15a.19.19,0,0,1-.19.19h-2.76a.19.19,0,0,1-.19-.19V71.36A.19.19,0,0,1,145.47,71.17Zm-5.91,3V85.15a.19.19,0,0,1-.19.19h-2.75a.19.19,0,0,1-.19-.19V74.21h-3.86a.19.19,0,0,1-.19-.19V71.36a.19.19,0,0,1,.19-.19h10.86a.19.19,0,0,1,.19.19V74a.19.19,0,0,1-.19.19Z"/></clipPath><clipPath id="clip-path-7" transform="translate(-52.37 -66.17)"><polyline class="cls-2" points="0 48.36 199.94 48.36 199.94 85.53 0 85.53"/></clipPath></defs><title>lc-14</title><g id="Слой_2" data-name="Слой 2"><g id="Слой_1-2" data-name="Слой 1"><g class="cls-3"><g class="cls-4"><g class="cls-5"><g class="cls-6"><g class="cls-7"><g class="cls-8"><g class="cls-9"><g class="cls-4"><rect class="cls-10" width="152.58" height="24.35"/></g></g></g></g></g></g></g></g></g></g></svg>