<svg xmlns="http://www.w3.org/2000/svg" xmlns:xlink="http://www.w3.org/1999/xlink" width="165.15" height="25.86" viewBox="0 0 165.15 25.86"><defs><style>.cls-1,.cls-2{fill:none;}.cls-2{clip-rule:evenodd;}.cls-3{opacity:0.8;isolation:isolate;}.cls-4{clip-path:url(#clip-path);}.cls-5{clip-path:url(#clip-path-2);}.cls-6{clip-path:url(#clip-path-3);}.cls-7{fill:#4b4b4b;}.cls-8{clip-path:url(#clip-path-4);}.cls-9{clip-path:url(#clip-path-6);}.cls-10{clip-path:url(#clip-path-8);}.cls-11{clip-path:url(#clip-path-10);}.cls-12{clip-path:url(#clip-path-12);}.cls-13{clip-path:url(#clip-path-14);}.cls-14{clip-path:url(#clip-path-16);}.cls-15{clip-path:url(#clip-path-18);}.cls-16{clip-path:url(#clip-path-20);}.cls-17{clip-path:url(#clip-path-22);}</style><clipPath id="clip-path" transform="translate(-39.84 -56.81)"><rect class="cls-1" y="47" width="200" height="39"/></clipPath><clipPath id="clip-path-2" transform="translate(-39.84 -56.81)"><path class="cls-2" d="M183.49,66.73a7.16,7.16,0,0,0-1.38-2.49,6.51,6.51,0,0,0-2.31-1.7,7.86,7.86,0,0,0-3.22-.62h-5.21V77.57h5.21a7.92,7.92,0,0,0,3-.56A6.59,6.59,0,0,0,182,75.4a7.14,7.14,0,0,0,1.48-2.48,9.52,9.52,0,0,0,.51-3.2,9.68,9.68,0,0,0-.46-3M182,72.27a5.6,5.6,0,0,1-1.09,2,5,5,0,0,1-1.81,1.3,6.29,6.29,0,0,1-2.53.47h-3.65V63.45h3.65a6.32,6.32,0,0,1,2.49.46,5,5,0,0,1,1.8,1.28,5.78,5.78,0,0,1,1.12,2,8,8,0,0,1,.39,2.55,8.36,8.36,0,0,1-.37,2.55"/></clipPath><clipPath id="clip-path-3" transform="translate(-39.84 -56.81)"><rect class="cls-1" width="276" height="133"/></clipPath><clipPath id="clip-path-4" transform="translate(-39.84 -56.81)"><polygon class="cls-2" points="82.21 61.92 75.89 76.67 75.51 77.56 75.89 77.56 77.21 77.56 82.81 64.37 88.36 77.56 90.09 77.56 83.38 61.92 82.21 61.92"/></clipPath><clipPath id="clip-path-6" transform="translate(-39.84 -56.81)"><polygon class="cls-2" points="61.67 76.04 61.45 76.04 61.45 77.56 61.67 77.56 71.85 77.56 72.02 77.56 72.02 76.04 71.85 76.04 61.67 76.04"/></clipPath><clipPath id="clip-path-8" transform="translate(-39.84 -56.81)"><polygon class="cls-2" points="117.95 77.56 119.51 77.56 119.51 70.34 127.01 70.34 127.01 68.83 117.95 68.83 117.95 77.56"/></clipPath><clipPath id="clip-path-10" transform="translate(-39.84 -56.81)"><polygon class="cls-2" points="70.73 70.34 70.73 68.81 63.01 68.81 63.01 63.45 71.83 63.45 71.83 61.92 61.67 61.92 61.45 61.92 61.45 70.34 61.67 70.34 70.73 70.34"/></clipPath><clipPath id="clip-path-12" transform="translate(-39.84 -56.81)"><polygon class="cls-2" points="96.12 61.92 94.55 61.92 94.55 77.56 105.14 77.56 105.14 76.04 96.12 76.04 96.12 61.92"/></clipPath><clipPath id="clip-path-14" transform="translate(-39.84 -56.81)"><rect class="cls-1" x="117.95" y="61.92" width="10.36" height="1.53"/></clipPath><clipPath id="clip-path-16" transform="translate(-39.84 -56.81)"><path class="cls-2" d="M199.56,71.59a3.64,3.64,0,0,0-1.2-1.26,6.8,6.8,0,0,0-1.77-.79c-.66-.2-1.41-.38-2.21-.55s-1.45-.33-2-.48a4.7,4.7,0,0,1-1.28-.54,1.78,1.78,0,0,1-.66-.7,2.36,2.36,0,0,1-.21-1.06,2.55,2.55,0,0,1,.9-2.07,4.89,4.89,0,0,1,3.14-.79,6.1,6.1,0,0,1,2.13.34A4,4,0,0,1,198,64.82l.35.4.92-1.27-.25-.26a6,6,0,0,0-2.11-1.43,7.29,7.29,0,0,0-2.65-.45,8.29,8.29,0,0,0-2.25.29,5.31,5.31,0,0,0-1.77.85,3.94,3.94,0,0,0-1.17,1.42,4.35,4.35,0,0,0-.42,1.93A3.65,3.65,0,0,0,189,68a3.21,3.21,0,0,0,1.1,1.18,6.19,6.19,0,0,0,1.68.74c.63.18,1.36.36,2.17.53A21.32,21.32,0,0,1,196,71a5.69,5.69,0,0,1,1.37.62,2.08,2.08,0,0,1,.73.78,2.44,2.44,0,0,1,.24,1.14,2.14,2.14,0,0,1-1,2,5.65,5.65,0,0,1-3,.69,7.5,7.5,0,0,1-2.84-.51,6.54,6.54,0,0,1-2.21-1.5l-.34-.35L188,75l.28.27A8.25,8.25,0,0,0,191,77.09a9.08,9.08,0,0,0,3.32.58,9.34,9.34,0,0,0,2.25-.25,5.34,5.34,0,0,0,1.79-.78,3.78,3.78,0,0,0,1.19-1.34,3.93,3.93,0,0,0,.42-1.85,3.78,3.78,0,0,0-.43-1.86"/></clipPath><clipPath id="clip-path-18" transform="translate(-39.84 -56.81)"><polygon class="cls-2" points="163.5 74.75 153.33 61.92 152.15 61.92 152.15 77.56 153.72 77.56 153.72 64.96 163.72 77.56 165.06 77.56 165.06 61.94 163.5 61.94 163.5 74.75"/></clipPath><clipPath id="clip-path-20" transform="translate(-39.84 -56.81)"><path class="cls-2" d="M144.21,71.6a4.27,4.27,0,1,1-8.52,0V61.92h-1.53V71.6a5.79,5.79,0,1,0,11.57,0V61.92h-1.53Z"/></clipPath><clipPath id="clip-path-22" transform="translate(-39.84 -56.81)"><path class="cls-2" d="M57.57,76.72l-4.83-5.11a3.9,3.9,0,0,0,.85-.38,4.69,4.69,0,0,0,1.26-1.1,4.8,4.8,0,0,0,.82-1.51,5.47,5.47,0,0,0,.28-1.76,5,5,0,0,0-.34-1.8,5.17,5.17,0,0,0-.95-1.58,4.9,4.9,0,0,0-1.46-1.13,4.11,4.11,0,0,0-1.88-.44H44.84V77.57h1.57V71.86h4.51l5.25,5.71h2.19Zm-6.13-6.39h-5V63.45H51.3a2.49,2.49,0,0,1,1.16.28,3.4,3.4,0,0,1,1,.76,3.68,3.68,0,0,1,.68,1.1,3.45,3.45,0,0,1,.25,1.29,4.08,4.08,0,0,1-.22,1.3,3.63,3.63,0,0,1-.6,1.12,3,3,0,0,1-.92.77A2.48,2.48,0,0,1,51.44,70.33Z"/></clipPath></defs><title>lc-16</title><g id="Слой_2" data-name="Слой 2"><g id="Слой_1-2" data-name="Слой 1"><g class="cls-3"><g class="cls-4"><g class="cls-5"><g class="cls-6"><rect class="cls-7" x="126.52" y="0.1" width="22.58" height="25.65"/></g></g><g class="cls-8"><g class="cls-6"><rect class="cls-7" x="30.67" y="0.1" width="24.58" height="25.65"/></g></g><g class="cls-9"><g class="cls-6"><rect class="cls-7" x="16.6" y="14.22" width="20.57" height="11.53"/></g></g><g class="cls-10"><g class="cls-6"><rect class="cls-7" x="73.11" y="7.02" width="19.06" height="18.73"/></g></g><g class="cls-11"><g class="cls-6"><rect class="cls-7" x="16.6" y="0.1" width="20.39" height="18.42"/></g></g><g class="cls-12"><g class="cls-6"><rect class="cls-7" x="49.71" y="0.1" width="20.59" height="25.65"/></g></g><g class="cls-13"><g class="cls-6"><rect class="cls-7" x="73.11" y="0.1" width="20.36" height="11.53"/></g></g><g class="cls-14"><g class="cls-6"><rect class="cls-7" x="143.17" width="21.98" height="25.86"/></g></g><g class="cls-15"><g class="cls-6"><rect class="cls-7" x="107.31" y="0.1" width="22.91" height="25.65"/></g></g><g class="cls-16"><g class="cls-6"><rect class="cls-7" x="89.33" y="0.1" width="21.57" height="25.65"/></g></g><g class="cls-17"><g class="cls-6"><rect class="cls-7" y="0.1" width="23.52" height="25.65"/></g></g></g></g></g></g></svg>