<svg xmlns="http://www.w3.org/2000/svg" xmlns:xlink="http://www.w3.org/1999/xlink" width="209.47" height="48.42" viewBox="0 0 209.47 48.42"><defs><style>.cls-1,.cls-2{fill:none;}.cls-2{clip-rule:evenodd;}.cls-3{opacity:0.8;}.cls-3,.cls-9{isolation:isolate;}.cls-4{clip-path:url(#clip-path);}.cls-5{clip-path:url(#clip-path-2);}.cls-6{clip-path:url(#clip-path-3);}.cls-7{fill:#4b4b4b;}.cls-8{clip-path:url(#clip-path-4);}.cls-10{clip-path:url(#clip-path-6);}.cls-11{clip-path:url(#clip-path-7);}.cls-12{clip-path:url(#clip-path-9);}.cls-13{clip-path:url(#clip-path-11);}.cls-14{clip-path:url(#clip-path-13);}.cls-15{clip-path:url(#clip-path-15);}.cls-16{clip-path:url(#clip-path-17);}.cls-17{clip-path:url(#clip-path-19);}.cls-18{clip-path:url(#clip-path-21);}.cls-19{clip-path:url(#clip-path-23);}.cls-20{clip-path:url(#clip-path-25);}.cls-21{clip-path:url(#clip-path-27);}.cls-22{clip-path:url(#clip-path-29);}.cls-23{clip-path:url(#clip-path-31);}.cls-24{clip-path:url(#clip-path-33);}.cls-25{clip-path:url(#clip-path-35);}.cls-26{clip-path:url(#clip-path-37);}</style><clipPath id="clip-path" transform="translate(0 -42.25)"><rect class="cls-1" x="5" y="47" width="200" height="39"/></clipPath><clipPath id="clip-path-2" transform="translate(0 -42.25)"><path class="cls-2" d="M5,73V47.59H27.93a14.92,14.92,0,0,1,3.93.45,6.38,6.38,0,0,1,2.6,1.33,5.09,5.09,0,0,1,1.43,2.17,9.08,9.08,0,0,1,.45,3v11.6a9.07,9.07,0,0,1-.45,3,5.1,5.1,0,0,1-1.43,2.17,6.39,6.39,0,0,1-2.6,1.33,14.88,14.88,0,0,1-3.93.45Zm5-5H28a4.43,4.43,0,0,0,2.46-.53,1.82,1.82,0,0,0,.77-1.6V54.72a1.82,1.82,0,0,0-.77-1.6A4.44,4.44,0,0,0,28,52.59H10Z"/></clipPath><clipPath id="clip-path-3" transform="translate(0 -42.25)"><rect class="cls-1" x="5" width="276" height="133"/></clipPath><clipPath id="clip-path-4" transform="translate(0 -42.25)"><rect class="cls-1" x="5" y="47.25" width="199.47" height="38.42"/></clipPath><clipPath id="clip-path-6" transform="translate(0 -42.25)"><rect class="cls-1" x="41" y="47" width="164" height="39"/></clipPath><clipPath id="clip-path-7" transform="translate(0 -42.25)"><rect class="cls-1" x="41.02" y="47.59" width="4.99" height="25.44"/></clipPath><clipPath id="clip-path-9" transform="translate(0 -42.25)"><path class="cls-2" d="M50.83,73V49.66a2.22,2.22,0,0,1,.72-1.81,2.51,2.51,0,0,1,1.65-.6,3.52,3.52,0,0,1,1.17.21,2.69,2.69,0,0,1,1.07.72L73,67.39l17.6-19.21a2.73,2.73,0,0,1,1-.71,3.42,3.42,0,0,1,1.19-.22,2.51,2.51,0,0,1,1.65.6,2.22,2.22,0,0,1,.72,1.81V73h-5V55.79L74.83,72.66a2.5,2.5,0,0,1-3.58,0L55.82,55.79V73Z"/></clipPath><clipPath id="clip-path-11" transform="translate(0 -42.25)"><path class="cls-2" d="M99.72,73V56.24a8.28,8.28,0,0,1,2.43-6.41q2.43-2.24,7.39-2.24h11.74q5,0,7.39,2.24a8.28,8.28,0,0,1,2.43,6.41V73h-5V64.91H104.72V73Zm5-12.77H126.1v-4a5.11,5.11,0,0,0-.22-1.6,2.45,2.45,0,0,0-.79-1.14,3.7,3.7,0,0,0-1.5-.69,10.18,10.18,0,0,0-2.34-.22H109.57a10.17,10.17,0,0,0-2.34.22,3.69,3.69,0,0,0-1.5.69,2.44,2.44,0,0,0-.79,1.14,5.07,5.07,0,0,0-.22,1.6Z"/></clipPath><clipPath id="clip-path-13" transform="translate(0 -42.25)"><path class="cls-2" d="M135.57,73V47.59h23a14.92,14.92,0,0,1,3.93.45,6.38,6.38,0,0,1,2.6,1.33,5.11,5.11,0,0,1,1.43,2.17,9.11,9.11,0,0,1,.45,3V57a9.1,9.1,0,0,1-.45,3,5.1,5.1,0,0,1-1.43,2.17,6.38,6.38,0,0,1-2.6,1.32,14.88,14.88,0,0,1-3.93.45h-3.86l13,9.09h-9l-12.05-9.09h-6.13V73Zm5-13.57h18a4.42,4.42,0,0,0,2.46-.53,1.82,1.82,0,0,0,.77-1.6V54.72a1.82,1.82,0,0,0-.77-1.6,4.42,4.42,0,0,0-2.46-.53h-18Z"/></clipPath><clipPath id="clip-path-15" transform="translate(0 -42.25)"><polygon class="cls-2" points="170.28 73.04 170.28 47.59 175.27 47.59 175.27 57.17 178.3 57.17 193.76 47.59 203.26 47.59 183.32 59.37 204.47 73.04 195.24 73.04 178.3 61.57 175.27 61.57 175.27 73.04 170.28 73.04"/></clipPath><clipPath id="clip-path-17" transform="translate(0 -42.25)"><path class="cls-2" d="M71.16,85.54V83.83h7.56a1.51,1.51,0,0,0,.84-.18.62.62,0,0,0,.27-.55v-.9a.62.62,0,0,0-.27-.55,1.51,1.51,0,0,0-.84-.18h-5q-2.53,0-2.53-1.88v-1.1q0-1.68,2.5-1.68h7.57v1.71H73.61a1.24,1.24,0,0,0-.53.08.26.26,0,0,0-.14.24v.52a.32.32,0,0,0,.14.3,1.12,1.12,0,0,0,.54.09h5.09a5.08,5.08,0,0,1,1.35.15,2.19,2.19,0,0,1,.89.46,1.75,1.75,0,0,1,.49.74,3.12,3.12,0,0,1,.15,1v1a3.13,3.13,0,0,1-.15,1,1.76,1.76,0,0,1-.49.74,2.2,2.2,0,0,1-.89.45,5.12,5.12,0,0,1-1.35.15Z"/></clipPath><clipPath id="clip-path-19" transform="translate(0 -42.25)"><path class="cls-2" d="M85.91,85.54a5.11,5.11,0,0,1-1.35-.15,2.19,2.19,0,0,1-.89-.45,1.75,1.75,0,0,1-.49-.74,3.11,3.11,0,0,1-.15-1v-4a3.11,3.11,0,0,1,.15-1,1.76,1.76,0,0,1,.49-.74,2.2,2.2,0,0,1,.89-.45,5.1,5.1,0,0,1,1.35-.15h5a5.12,5.12,0,0,1,1.35.15,2.22,2.22,0,0,1,.89.45,1.78,1.78,0,0,1,.49.74,3.13,3.13,0,0,1,.15,1v4a3.13,3.13,0,0,1-.15,1,1.76,1.76,0,0,1-.49.74,2.2,2.2,0,0,1-.89.45,5.12,5.12,0,0,1-1.35.15Zm-1.12-2.45a.62.62,0,0,0,.27.55,1.51,1.51,0,0,0,.84.18h5a1.5,1.5,0,0,0,.84-.18.62.62,0,0,0,.27-.55V79.26a.62.62,0,0,0-.27-.55,1.51,1.51,0,0,0-.84-.18h-5a1.52,1.52,0,0,0-.84.18.62.62,0,0,0-.27.55Z"/></clipPath><clipPath id="clip-path-21" transform="translate(0 -42.25)"><polygon class="cls-2" points="95.3 85.54 95.3 76.81 106.06 76.81 106.06 78.52 97.01 78.52 97.01 79.67 103.94 79.67 103.94 81.26 97.01 81.26 97.01 85.54 95.3 85.54"/></clipPath><clipPath id="clip-path-23" transform="translate(0 -42.25)"><polygon class="cls-2" points="111.4 85.54 111.4 78.52 106.87 78.52 106.87 76.81 117.63 76.81 117.63 78.52 113.11 78.52 113.11 85.54 111.4 85.54"/></clipPath><clipPath id="clip-path-25" transform="translate(0 -42.25)"><path class="cls-2" d="M121.42,85.54a5.11,5.11,0,0,1-1.35-.15,2.2,2.2,0,0,1-.89-.45,1.74,1.74,0,0,1-.49-.74,3.11,3.11,0,0,1-.15-1V76.81h1.76v6.28a.62.62,0,0,0,.27.55,1.51,1.51,0,0,0,.84.18h4.19v-7h1.71v7h4.17a1.51,1.51,0,0,0,.84-.18.62.62,0,0,0,.27-.55V76.81h1.76v6.35a3.13,3.13,0,0,1-.15,1,1.74,1.74,0,0,1-.49.74,2.2,2.2,0,0,1-.89.45,5.13,5.13,0,0,1-1.35.15Z"/></clipPath><clipPath id="clip-path-27" transform="translate(0 -42.25)"><path class="cls-2" d="M135.86,85.54V79.77a2.84,2.84,0,0,1,.83-2.2,3.64,3.64,0,0,1,2.53-.77h4a3.64,3.64,0,0,1,2.53.77,2.84,2.84,0,0,1,.83,2.2v5.76h-1.71V82.75h-7.33v2.79Zm1.71-4.38h7.33V79.77a1.76,1.76,0,0,0-.08-.55.84.84,0,0,0-.27-.39,1.26,1.26,0,0,0-.51-.24,3.52,3.52,0,0,0-.8-.08h-4a3.52,3.52,0,0,0-.8.08,1.25,1.25,0,0,0-.51.24.83.83,0,0,0-.27.39,1.74,1.74,0,0,0-.08.55Z"/></clipPath><clipPath id="clip-path-29" transform="translate(0 -42.25)"><path class="cls-2" d="M148.16,85.54V76.81H156a5.12,5.12,0,0,1,1.35.15,2.21,2.21,0,0,1,.89.45,1.75,1.75,0,0,1,.49.74,3.12,3.12,0,0,1,.15,1V80a3.12,3.12,0,0,1-.15,1,1.74,1.74,0,0,1-.49.74,2.18,2.18,0,0,1-.89.45,5.08,5.08,0,0,1-1.35.15h-1.32l4.46,3.12h-3.07L152,82.42h-2.1v3.12Zm1.71-4.65H156a1.52,1.52,0,0,0,.84-.18.62.62,0,0,0,.27-.55v-.9a.62.62,0,0,0-.27-.55,1.52,1.52,0,0,0-.84-.18h-6.18Z"/></clipPath><clipPath id="clip-path-31" transform="translate(0 -42.25)"><polygon class="cls-2" points="160.06 85.54 160.06 76.81 170.8 76.81 170.8 78.52 161.77 78.52 161.77 79.67 169.16 79.67 169.16 81.26 161.77 81.26 161.77 83.83 170.82 83.83 170.82 85.54 160.06 85.54"/></clipPath><clipPath id="clip-path-33" transform="translate(0 -42.25)"><rect class="cls-1" x="176.55" y="76.81" width="1.71" height="8.73"/></clipPath><clipPath id="clip-path-35" transform="translate(0 -42.25)"><path class="cls-2" d="M179.91,85.54v-8a.85.85,0,0,1,.24-.64.79.79,0,0,1,.56-.23,1,1,0,0,1,.29,0,.85.85,0,0,1,.28.15L189,83.08V76.81h1.71v8a.85.85,0,0,1-.24.64.79.79,0,0,1-.56.23,1,1,0,0,1-.3,0,.82.82,0,0,1-.28-.15l-7.66-6.19v6.26Z"/></clipPath><clipPath id="clip-path-37" transform="translate(0 -42.25)"><path class="cls-2" d="M195.06,85.54a5.11,5.11,0,0,1-1.35-.15,2.19,2.19,0,0,1-.89-.45,1.75,1.75,0,0,1-.49-.74,3.11,3.11,0,0,1-.15-1v-4a3.11,3.11,0,0,1,.15-1,1.76,1.76,0,0,1,.49-.74,2.2,2.2,0,0,1,.89-.45,5.1,5.1,0,0,1,1.35-.15h7.85v1.71h-7.86a1.52,1.52,0,0,0-.84.18.62.62,0,0,0-.27.55v3.84a.62.62,0,0,0,.27.55,1.51,1.51,0,0,0,.84.18h7.89v1.71Z"/></clipPath></defs><title>lc-6</title><g id="Слой_2" data-name="Слой 2"><g id="Слой_1-2" data-name="Слой 1"><g class="cls-3"><g class="cls-4"><g class="cls-5"><g class="cls-6"><rect class="cls-7" y="0.34" width="41.33" height="35.45"/></g></g><g class="cls-8"><g class="cls-6"><g class="cls-9"><g class="cls-10"><g class="cls-11"><g class="cls-4"><rect class="cls-7" x="36.02" y="0.34" width="14.99" height="35.44"/></g></g><g class="cls-12"><g class="cls-4"><rect class="cls-7" x="45.83" width="54.42" height="36.17"/></g></g><g class="cls-13"><g class="cls-4"><rect class="cls-7" x="94.72" y="0.34" width="41.37" height="35.44"/></g></g><g class="cls-14"><g class="cls-4"><rect class="cls-7" x="130.57" y="0.34" width="42.13" height="35.45"/></g></g><g class="cls-15"><g class="cls-4"><rect class="cls-7" x="165.27" y="0.34" width="44.19" height="35.44"/></g></g><g class="cls-16"><g class="cls-4"><rect class="cls-7" x="66.16" y="29.56" width="20.43" height="18.73"/></g></g><g class="cls-17"><g class="cls-4"><rect class="cls-7" x="78.03" y="29.56" width="20.76" height="18.73"/></g></g><g class="cls-18"><g class="cls-4"><rect class="cls-7" x="90.3" y="29.56" width="20.76" height="18.73"/></g></g><g class="cls-19"><g class="cls-4"><rect class="cls-7" x="101.87" y="29.56" width="20.76" height="18.73"/></g></g><g class="cls-20"><g class="cls-4"><rect class="cls-7" x="113.54" y="29.56" width="25.81" height="18.73"/></g></g><g class="cls-21"><g class="cls-4"><rect class="cls-7" x="130.86" y="29.56" width="20.76" height="18.73"/></g></g><g class="cls-22"><g class="cls-4"><rect class="cls-7" x="143.16" y="29.56" width="21.02" height="18.73"/></g></g><g class="cls-23"><g class="cls-4"><rect class="cls-7" x="155.06" y="29.56" width="20.76" height="18.73"/></g></g><g class="cls-24"><g class="cls-4"><rect class="cls-7" x="171.55" y="29.56" width="11.71" height="18.73"/></g></g><g class="cls-25"><g class="cls-4"><rect class="cls-7" x="174.91" y="29.44" width="20.76" height="18.98"/></g></g><g class="cls-26"><g class="cls-4"><rect class="cls-7" x="187.18" y="29.56" width="20.76" height="18.73"/></g></g></g></g></g></g></g></g></g></g></svg>