<svg xmlns="http://www.w3.org/2000/svg" xmlns:xlink="http://www.w3.org/1999/xlink" width="209.96" height="50.29" viewBox="0 0 209.96 50.29"><defs><style>.cls-1,.cls-2{fill:none;}.cls-2{clip-rule:evenodd;}.cls-3{opacity:0.8;}.cls-3,.cls-9{isolation:isolate;}.cls-4{clip-path:url(#clip-path);}.cls-5{clip-path:url(#clip-path-2);}.cls-6{clip-path:url(#clip-path-3);}.cls-7{fill:#4b4b4b;}.cls-8{clip-path:url(#clip-path-4);}.cls-10{clip-path:url(#clip-path-6);}.cls-11{clip-path:url(#clip-path-7);}.cls-12{clip-path:url(#clip-path-11);}.cls-13{clip-path:url(#clip-path-12);}.cls-14{clip-path:url(#clip-path-16);}.cls-15{clip-path:url(#clip-path-17);}.cls-16{clip-path:url(#clip-path-19);}.cls-17{clip-path:url(#clip-path-21);}.cls-18{clip-path:url(#clip-path-23);}.cls-19{clip-path:url(#clip-path-25);}.cls-20{clip-path:url(#clip-path-27);}.cls-21{clip-path:url(#clip-path-29);}.cls-22{clip-path:url(#clip-path-31);}.cls-23{clip-path:url(#clip-path-33);}.cls-24{clip-path:url(#clip-path-35);}.cls-25{clip-path:url(#clip-path-37);}.cls-26{clip-path:url(#clip-path-39);}.cls-27{clip-path:url(#clip-path-41);}</style><clipPath id="clip-path" transform="translate(0 -41.05)"><rect class="cls-1" x="5" y="46" width="200" height="41"/></clipPath><clipPath id="clip-path-2" transform="translate(0 -41.05)"><path class="cls-2" d="M25.74,46.05c.78.12,1.56.21,2.33.37a19,19,0,0,1,7.22,3.11c.17.12.28.22.2.45a12.71,12.71,0,0,1-3,5,13.49,13.49,0,0,0-17.36.63l-.57-.54A12.71,12.71,0,0,1,11.85,51a.43.43,0,0,1,.15-.59,19.14,19.14,0,0,1,9.75-4.22l.95-.14Z"/></clipPath><clipPath id="clip-path-3" transform="translate(0 -41.05)"><rect class="cls-1" x="5" width="276" height="133"/></clipPath><clipPath id="clip-path-4" transform="translate(0 -41.05)"><rect class="cls-1" x="5" y="46.05" width="199.96" height="40.29"/></clipPath><clipPath id="clip-path-6" transform="translate(0 -41.05)"><rect class="cls-1" x="5" y="53" width="10" height="25"/></clipPath><clipPath id="clip-path-7" transform="translate(0 -41.05)"><path class="cls-2" d="M5,64.2c.14-.91.25-1.83.44-2.73a18.76,18.76,0,0,1,3.28-7.22.4.4,0,0,1,.55-.18,13,13,0,0,1,4.32,2.59c.24.22.23.36,0,.6a13.47,13.47,0,0,0,.24,17.11l.21.26a.52.52,0,0,1,0,.13c-.36.32-.72.66-1.11,1a12.59,12.59,0,0,1-3.38,2,.41.41,0,0,1-.56-.16,19.06,19.06,0,0,1-3.94-9.45c0-.31-.09-.61-.13-.91Z"/></clipPath><clipPath id="clip-path-11" transform="translate(0 -41.05)"><rect class="cls-1" x="153" y="81" width="4" height="6"/></clipPath><clipPath id="clip-path-12" transform="translate(0 -41.05)"><path class="cls-2" d="M153.86,86.34l-.22-.3a5,5,0,0,0,.46-.63,7.93,7.93,0,0,0,.48-1.11.37.37,0,0,0-.29-.53,1,1,0,0,1-.66-1.08,1.16,1.16,0,0,1,.92-1.06,1,1,0,0,1,1.14.57,2.36,2.36,0,0,1,0,1.94,4.75,4.75,0,0,1-1.46,2l-.22.2Z"/></clipPath><clipPath id="clip-path-16" transform="translate(0 -41.05)"><rect class="cls-1" x="11" y="46" width="194" height="40"/></clipPath><clipPath id="clip-path-17" transform="translate(0 -41.05)"><path class="cls-2" d="M205,83.16a1.26,1.26,0,0,1-1.15.77,1.15,1.15,0,0,1-.38-2.23,1.11,1.11,0,0,1,1.38.47l.15.25Z"/></clipPath><clipPath id="clip-path-19" transform="translate(0 -41.05)"><path class="cls-2" d="M75.74,46.41A17.79,17.79,0,0,1,93.23,60.67a19.52,19.52,0,0,1-2.4,14.82A17.64,17.64,0,0,1,77.67,84a17.52,17.52,0,0,1-14.94-4.67,18.1,18.1,0,0,1-5.89-12.13,18.93,18.93,0,0,1,4.25-14.09,18,18,0,0,1,11.45-6.43c1.06-.17,2.13-.21,3.2-.31m-16,17.77c0,4.49.87,7.68,2.69,10.37,3.49,5.19,8.35,7.75,14.63,7.09a14.58,14.58,0,0,0,11.83-8.26A17.28,17.28,0,0,0,90.5,62.19a15.76,15.76,0,0,0-4.64-9,15,15,0,0,0-11.63-4.27,14.3,14.3,0,0,0-9.29,4,16.07,16.07,0,0,0-5.23,11.27"/></clipPath><clipPath id="clip-path-21" transform="translate(0 -41.05)"><path class="cls-2" d="M124.08,77.21V47.47c0-.54,0-.54.54-.54s1,0,1.52,0c.34,0,.45.11.41.43a1.44,1.44,0,0,0,0,.19q0,18,0,36a3.2,3.2,0,0,1-.11.58,2.83,2.83,0,0,1-.46-.38q-9.36-11.81-18.71-23.63c-1.71-2.17-3.36-4.39-5-6.59a.33.33,0,0,0-.2-.12V83.06c0,.7.06.61-.61.62H99.87c-.23,0-.32-.08-.3-.3s0-.17,0-.26q0-18.11,0-36.21a2.63,2.63,0,0,1,.1-.51,2.42,2.42,0,0,1,.44.35q10.66,13.51,21.31,27c.81,1,1.56,2.1,2.34,3.15l.23.31.09,0"/></clipPath><clipPath id="clip-path-23" transform="translate(0 -41.05)"><path class="cls-2" d="M134.53,65.31V47.46c0-.52,0-.53.52-.53h14.48c.5,0,.5,0,.5.51s0,1,0,1.52c0,.33-.09.45-.44.44-1.59,0-3.18,0-4.78,0-2.38,0-4.76,0-7.15,0-.36,0-.48.08-.48.47q0,6.65,0,13.29c0,.38.1.48.48.48h11c.54,0,.54,0,.54.55s0,.91,0,1.37,0,.51-.5.51h-11c-.55,0-.55,0-.55.54q0,7,0,14.07c0,.48,0,.48.48.48h12.44c.48,0,.48,0,.48.49s0,1.14,0,1.7c0,.26-.09.34-.34.34-.88,0-1.75,0-2.63,0H135c-.48,0-.48,0-.48-.48q0-8.94,0-17.89"/></clipPath><clipPath id="clip-path-25" transform="translate(0 -41.05)"><path class="cls-2" d="M43.46,65A19.51,19.51,0,0,1,40,76.36a.47.47,0,0,1-.63.22,13.13,13.13,0,0,1-4.21-2.35c-.22-.18-.28-.3-.09-.56a13.42,13.42,0,0,0-.88-17.11c-.23-.25-.23-.39,0-.63A13,13,0,0,1,38.55,53a.37.37,0,0,1,.5.13,19,19,0,0,1,4.24,9.82c.1.81.13,1.62.17,2"/></clipPath><clipPath id="clip-path-27" transform="translate(0 -41.05)"><path class="cls-2" d="M15.29,75.82a13.55,13.55,0,0,0,18-.14c.24.27.48.52.7.78a13,13,0,0,1,2,3.33.47.47,0,0,1-.16.65,18.79,18.79,0,0,1-8.74,4,19,19,0,0,1-14.38-3.09.58.58,0,0,1-.27-.81A12.85,12.85,0,0,1,15,76.17c.09-.1.16-.22.26-.35"/></clipPath><clipPath id="clip-path-29" transform="translate(0 -41.05)"><path class="cls-2" d="M182.88,80.38V65.83c0-.52,0-.53.52-.52.86,0,.74-.12.74.74q0,8.66,0,17.33c0,.16,0,.33,0,.49l-.13.06L171.87,68.61V83.14c0,.54,0,.54-.55.53-.78,0-.7.13-.7-.71q0-8.7,0-17.4v-.5l.14-.06,12.12,15.39"/></clipPath><clipPath id="clip-path-31" transform="translate(0 -41.05)"><path class="cls-2" d="M200.46,66.73c-.7-.13-1.32-.27-1.94-.34a10.77,10.77,0,0,0-5.14.49A6.86,6.86,0,0,0,189,71.38a8.9,8.9,0,0,0,.38,6.88,7.66,7.66,0,0,0,6.71,4.36,9.38,9.38,0,0,0,4.19-.55c0,.46,0,.85,0,1.24,0,.06-.17.13-.27.15-.71.14-1.42.31-2.14.39a10.13,10.13,0,0,1-6.29-1.19,8.74,8.74,0,0,1-4.45-6.95,10,10,0,0,1,.77-5.46,8.7,8.7,0,0,1,6.24-4.93,13.48,13.48,0,0,1,6,0c.24.05.33.16.32.4s0,.61,0,1"/></clipPath><clipPath id="clip-path-33" transform="translate(0 -41.05)"><path class="cls-2" d="M33.21,72.4a12.35,12.35,0,0,1-.66-14.05,11,11,0,0,1,.66,14.05"/></clipPath><clipPath id="clip-path-35" transform="translate(0 -41.05)"><path class="cls-2" d="M17.24,74.51a12.34,12.34,0,0,1,14.07-.11,11,11,0,0,1-14.07.11"/></clipPath><clipPath id="clip-path-37" transform="translate(0 -41.05)"><path class="cls-2" d="M15.68,72.95a11,11,0,0,1-.32-14,12.32,12.32,0,0,1,2.29,6.55,12.4,12.4,0,0,1-2,7.46"/></clipPath><clipPath id="clip-path-39" transform="translate(0 -41.05)"><path class="cls-2" d="M30.76,56.68A12.3,12.3,0,0,1,17,57.21a11,11,0,0,1,13.75-.53"/></clipPath><clipPath id="clip-path-41" transform="translate(0 -41.05)"><path class="cls-2" d="M165.32,83.68V65.31c.39,0,.74,0,1.1,0,.08,0,.18.13.22.22a.75.75,0,0,1,0,.29V83.15c0,.53,0,.53-.52.53h-.81"/></clipPath></defs><title>lc-7</title><g id="Слой_2" data-name="Слой 2"><g id="Слой_1-2" data-name="Слой 1"><g class="cls-3"><g class="cls-4"><g class="cls-5"><g class="cls-6"><rect class="cls-7" x="6.79" width="33.73" height="19.58"/></g></g><g class="cls-8"><g class="cls-6"><g class="cls-9"><g class="cls-10"><g class="cls-11"><g class="cls-4"><rect class="cls-7" y="7.97" width="19.12" height="33.71"/></g></g></g></g></g></g><g class="cls-8"><g class="cls-6"><g class="cls-9"><g class="cls-12"><g class="cls-13"><g class="cls-4"><rect class="cls-7" x="148.64" y="35.56" width="12.27" height="14.72"/></g></g></g></g></g></g><g class="cls-8"><g class="cls-6"><g class="cls-9"><g class="cls-14"><g class="cls-15"><g class="cls-4"><rect class="cls-7" x="197.68" y="35.57" width="12.28" height="12.31"/></g></g><g class="cls-16"><g class="cls-4"><rect class="cls-7" x="51.76" y="0.36" width="46.98" height="47.83"/></g></g><g class="cls-17"><g class="cls-4"><rect class="cls-7" x="94.57" y="0.34" width="36.99" height="47.72"/></g></g><g class="cls-18"><g class="cls-4"><rect class="cls-7" x="129.53" y="0.89" width="26.08" height="46.74"/></g></g><g class="cls-19"><g class="cls-4"><rect class="cls-7" x="29.02" y="6.89" width="19.44" height="33.69"/></g></g><g class="cls-20"><g class="cls-4"><rect class="cls-7" x="7.38" y="29.63" width="33.68" height="19.11"/></g></g><g class="cls-21"><g class="cls-4"><rect class="cls-7" x="165.62" y="18.94" width="23.53" height="28.94"/></g></g><g class="cls-22"><g class="cls-4"><rect class="cls-7" x="182.03" y="18.94" width="23.43" height="28.94"/></g></g><g class="cls-23"><g class="cls-4"><rect class="cls-7" x="25.67" y="12.29" width="14.76" height="24.05"/></g></g><g class="cls-24"><g class="cls-4"><rect class="cls-7" x="12.24" y="26.2" width="24.07" height="14.73"/></g></g><g class="cls-25"><g class="cls-4"><rect class="cls-7" x="8.01" y="12.89" width="14.66" height="24.01"/></g></g><g class="cls-26"><g class="cls-4"><rect class="cls-7" x="12.02" y="8.49" width="23.75" height="14.52"/></g></g><g class="cls-27"><g class="cls-4"><rect class="cls-7" x="160.32" y="19.25" width="11.34" height="28.38"/></g></g></g></g></g></g></g></g></g></g></svg>