<svg xmlns="http://www.w3.org/2000/svg" xmlns:xlink="http://www.w3.org/1999/xlink" width="152.9" height="47.72" viewBox="0 0 152.9 47.72"><defs><style>.cls-1,.cls-2{fill:none;}.cls-2{clip-rule:evenodd;}.cls-3{opacity:0.8;}.cls-3,.cls-7{isolation:isolate;}.cls-4{clip-path:url(#clip-path);}.cls-5{clip-path:url(#clip-path-2);}.cls-6{clip-path:url(#clip-path-3);}.cls-8{clip-path:url(#clip-path-5);}.cls-9{fill:#4b4b4b;}.cls-10{clip-path:url(#clip-path-7);}.cls-11{clip-path:url(#clip-path-9);}.cls-12{clip-path:url(#clip-path-11);}</style><clipPath id="clip-path" transform="translate(0 -43.05)"><rect class="cls-1" x="5" y="48" width="200" height="38"/></clipPath><clipPath id="clip-path-2" transform="translate(0 -43.05)"><polyline class="cls-2" points="5 48.05 204.97 48.05 204.97 85.77 5 85.77"/></clipPath><clipPath id="clip-path-3" transform="translate(0 -43.05)"><rect class="cls-1" x="5" width="276" height="133"/></clipPath><clipPath id="clip-path-5" transform="translate(0 -43.05)"><path class="cls-2" d="M37.28,53.62a17.22,17.22,0,0,0-5.82-4.07A19.5,19.5,0,0,0,23.59,48a19.7,19.7,0,0,0-7.9,1.5,17.15,17.15,0,0,0-5.85,4.07,17.35,17.35,0,0,0-3.61,6,22.27,22.27,0,0,0,0,14.6,17.33,17.33,0,0,0,3.61,6,17.12,17.12,0,0,0,5.85,4.07,19.72,19.72,0,0,0,7.9,1.5,19.52,19.52,0,0,0,7.87-1.5,17.19,17.19,0,0,0,5.82-4.07,17.7,17.7,0,0,0,3.64-6,21.82,21.82,0,0,0,0-14.6,17.73,17.73,0,0,0-3.64-6m-4.67,18a10.45,10.45,0,0,1-1.83,3.72,8.58,8.58,0,0,1-3,2.43,9.42,9.42,0,0,1-4.15.88,9.37,9.37,0,0,1-4.18-.87,8.63,8.63,0,0,1-3-2.43,10.43,10.43,0,0,1-1.83-3.72,18.93,18.93,0,0,1,0-9.46,10.46,10.46,0,0,1,1.83-3.72,8.65,8.65,0,0,1,3-2.43,9.38,9.38,0,0,1,4.18-.87,9.43,9.43,0,0,1,4.15.88,8.6,8.6,0,0,1,3,2.43,10.47,10.47,0,0,1,1.83,3.72,18.91,18.91,0,0,1,0,9.46"/></clipPath><clipPath id="clip-path-7" transform="translate(0 -43.05)"><path class="cls-2" d="M70,66.63a11.33,11.33,0,0,0,1.81-6.4,11.48,11.48,0,0,0-1.06-5.11,9.91,9.91,0,0,0-2.94-3.58,13.1,13.1,0,0,0-4.44-2.13,20.63,20.63,0,0,0-5.55-.71H47.59V85.11h7.91V72.48h1.44l8.82,12.63H75.5L64.94,70.79a11.36,11.36,0,0,0,5-4.16m-7.59-2.24a7.77,7.77,0,0,1-5,1.42H55.49V55.59h2.27a8.18,8.18,0,0,1,4.73,1.18,4.13,4.13,0,0,1,1.69,3.64,4.81,4.81,0,0,1-1.78,4"/></clipPath><clipPath id="clip-path-9" transform="translate(0 -43.05)"><polygon class="cls-2" points="75.78 55.81 85.57 55.81 85.57 85.11 94.53 85.11 104.32 85.11 104.32 55.81 104.32 52.04 104.32 48.7 75.78 48.7 75.78 55.81"/></clipPath><clipPath id="clip-path-11" transform="translate(0 -43.05)"><path class="cls-2" d="M141.94,70.23a20.83,20.83,0,0,1-7.82-4.68,9.47,9.47,0,0,1-2.46-6.73q0-5.38,3.47-8.2a11.44,11.44,0,0,1,3.52-1.91h-12v7.11H112.91v7.33H126v7.11H112.91V78H126.8v7.11H136a24,24,0,0,1-4.68-1.69l1.8-6.93a26.19,26.19,0,0,0,4.32,1.64,18.68,18.68,0,0,0,5.19.69,7.42,7.42,0,0,0,3.77-.86,3,3,0,0,0,1.48-2.8,3.33,3.33,0,0,0-1.29-2.52,16,16,0,0,0-4.67-2.41"/></clipPath></defs><title>lc-8</title><g id="Слой_2" data-name="Слой 2"><g id="Слой_1-2" data-name="Слой 1"><g class="cls-3"><g class="cls-4"><g class="cls-5"><g class="cls-6"><g class="cls-7"><g class="cls-4"><g class="cls-8"><g class="cls-4"><rect class="cls-9" width="47.17" height="47.72"/></g></g><g class="cls-10"><g class="cls-4"><rect class="cls-9" x="42.59" y="0.66" width="37.92" height="46.41"/></g></g><g class="cls-11"><g class="cls-4"><rect class="cls-9" x="70.78" y="0.66" width="38.54" height="46.41"/></g></g><g class="cls-12"><g class="cls-4"><rect class="cls-9" x="107.91" y="0.66" width="44.99" height="46.41"/></g></g></g></g></g></g></g></g></g></g></svg>