<svg xmlns="http://www.w3.org/2000/svg" xmlns:xlink="http://www.w3.org/1999/xlink" width="121.77" height="80.61" viewBox="0 0 121.77 80.61"><defs><style>.cls-1,.cls-2{fill:none;}.cls-2{clip-rule:evenodd;}.cls-3{opacity:0.8;}.cls-3,.cls-30{isolation:isolate;}.cls-4{clip-path:url(#clip-path);}.cls-5{clip-path:url(#clip-path-2);}.cls-6{clip-path:url(#clip-path-3);}.cls-7{fill:#4b4b4b;}.cls-8{clip-path:url(#clip-path-4);}.cls-9{clip-path:url(#clip-path-6);}.cls-10{clip-path:url(#clip-path-8);}.cls-11{clip-path:url(#clip-path-10);}.cls-12{clip-path:url(#clip-path-12);}.cls-13{clip-path:url(#clip-path-14);}.cls-14{clip-path:url(#clip-path-16);}.cls-15{clip-path:url(#clip-path-18);}.cls-16{clip-path:url(#clip-path-20);}.cls-17{clip-path:url(#clip-path-22);}.cls-18{clip-path:url(#clip-path-24);}.cls-19{clip-path:url(#clip-path-26);}.cls-20{clip-path:url(#clip-path-28);}.cls-21{clip-path:url(#clip-path-30);}.cls-22{clip-path:url(#clip-path-32);}.cls-23{clip-path:url(#clip-path-34);}.cls-24{clip-path:url(#clip-path-36);}.cls-25{clip-path:url(#clip-path-38);}.cls-26{clip-path:url(#clip-path-40);}.cls-27{clip-path:url(#clip-path-42);}.cls-28{clip-path:url(#clip-path-44);}.cls-29{clip-path:url(#clip-path-46);}.cls-31{clip-path:url(#clip-path-48);}.cls-32{clip-path:url(#clip-path-49);}.cls-33{clip-path:url(#clip-path-51);}.cls-34{clip-path:url(#clip-path-53);}</style><clipPath id="clip-path" transform="translate(0 -26.16)"><rect class="cls-1" x="5" y="31" width="200" height="71"/></clipPath><clipPath id="clip-path-2" transform="translate(0 -26.16)"><path class="cls-2" d="M18.32,43.1A.63.63,0,0,1,17.93,42a33.41,33.41,0,0,1,40.4-.41.63.63,0,0,1-.75,1A32.16,32.16,0,0,0,18.7,43a.62.62,0,0,1-.38.13"/></clipPath><clipPath id="clip-path-3" transform="translate(0 -26.16)"><rect class="cls-1" x="5" width="276" height="133"/></clipPath><clipPath id="clip-path-4" transform="translate(0 -26.16)"><path class="cls-2" d="M38.4,101.77A33.41,33.41,0,0,1,9,52.53a.63.63,0,1,1,1.1.59A32.15,32.15,0,1,0,70.55,68.37,31.8,31.8,0,0,0,67,53.71a.63.63,0,0,1,1.11-.57A33,33,0,0,1,71.8,68.37a33.44,33.44,0,0,1-33.4,33.4"/></clipPath><clipPath id="clip-path-6" transform="translate(0 -26.16)"><path class="cls-2" d="M100.65,49.1h8.43l7.69,24.35H110l-1.15-4.11h-7.74l-1.19,4.12H93.05Zm6.85,15.64a65.88,65.88,0,0,0-2.6-10.53c-1.16,3.43-1.53,7-2.52,10.53Z"/></clipPath><clipPath id="clip-path-8" transform="translate(0 -26.16)"><path class="cls-2" d="M95.39,49.12,93.88,54.5H88.23c0,1.3,0,2.53,0,3.76s0,2.5,0,3.75V73.44H81.88V54.53h-5.4V49.12Z"/></clipPath><clipPath id="clip-path-10" transform="translate(0 -26.16)"><path class="cls-2" d="M24.57,51.7c-.4,1.29-.8,2.58-1.24,3.86a2,2,0,0,0,.17,1.9,3.82,3.82,0,0,1,3.24-1.27A13.14,13.14,0,0,1,29,57a13.86,13.86,0,0,0,2.49,1c2.23.38,2.87.16,4-1.73a7.51,7.51,0,0,0,1-5.22,8.56,8.56,0,0,1,.44-4.37c.28-.84.52-1.69.81-2.65-1.25.19-2.39.11-3.39.83A7,7,0,0,1,28.14,46a5.28,5.28,0,0,0-3.69.69l.1.66a9.44,9.44,0,0,1,0,4.33"/></clipPath><clipPath id="clip-path-12" transform="translate(0 -26.16)"><path class="cls-2" d="M28.72,62.78a2.92,2.92,0,0,0,3.75-.13,10.79,10.79,0,0,0,3.45-5,3.5,3.5,0,0,1-2.5,1.49A8.24,8.24,0,0,1,28.23,58a3.55,3.55,0,0,0-4.57.65c.41,1.54.43,1.49,1.86,2a11.48,11.48,0,0,1,2.07,1.14c.41.26.73.65,1.13.92"/></clipPath><clipPath id="clip-path-14" transform="translate(0 -26.16)"><path class="cls-2" d="M30.52,77.4a4.53,4.53,0,0,0,1.39,3.35l2.42-3.13a4,4,0,0,0,.76-3.14,25.07,25.07,0,0,0-1.69-5.87,5,5,0,0,1-.34-2.75c.14-.77.26-1.55.42-2.48a3.26,3.26,0,0,1-3,1.3,4,4,0,0,1-3-1.42A3.65,3.65,0,0,0,25,61.69c.23.24.36.36.47.49,1.4,1.68,2.87,3.31,4.16,5.07a7.57,7.57,0,0,1,1.3,6,26.47,26.47,0,0,0-.44,4.12"/></clipPath><clipPath id="clip-path-16" transform="translate(0 -26.16)"><path class="cls-2" d="M37.19,51.08c.12,1,.21,2.07.34,3.1A10.12,10.12,0,0,1,36,60.93a26.77,26.77,0,0,0-1.63,3.25,3.36,3.36,0,0,0-.17,2.34c.53,1.83,1,3.69,1.53,5.5a11.89,11.89,0,0,1,.63,3.56,3.25,3.25,0,0,1-.79,2.19q-1.5,1.86-2.88,3.83a14.39,14.39,0,0,0-1,2,8.57,8.57,0,0,0,1-.06,8.35,8.35,0,0,1,4.22.14,2.3,2.3,0,0,0,1.14,0,2.31,2.31,0,0,0,1.14,0,8.35,8.35,0,0,1,4.22-.14,8.57,8.57,0,0,0,1,.06,14.38,14.38,0,0,0-1-2q-1.37-2-2.88-3.83a3.25,3.25,0,0,1-.79-2.19A11.89,11.89,0,0,1,40.53,72c.58-1.81,1-3.67,1.53-5.5a3.36,3.36,0,0,0-.17-2.34,26.78,26.78,0,0,0-1.63-3.25,10.12,10.12,0,0,1-1.53-6.75c.13-1,.22-2.07.34-3.1.2-1.78-2.1-1.78-1.89,0"/></clipPath><clipPath id="clip-path-18" transform="translate(0 -26.16)"><path class="cls-2" d="M12.35,51.17c2.7,2.45,6.08,3.32,9.57,4a9.85,9.85,0,0,0,1.29-7.95c-1.13.29-2.14.5-3.13.8-2.47.74-5.46-1.4-6-3.76a8,8,0,0,1,.46-4.78,17.92,17.92,0,0,1,5.27-7.25,6.52,6.52,0,0,0,.82-1h-.21a5.75,5.75,0,0,1-.65.44c-.74.37-1.52.69-2.24,1.09a20.3,20.3,0,0,0-7.41,6.42A7.84,7.84,0,0,0,8.76,43a9.83,9.83,0,0,0,3.59,8.18"/></clipPath><clipPath id="clip-path-20" transform="translate(0 -26.16)"><path class="cls-2" d="M26.45,65.23l-1.39-1.69c-.11-.13-.21-.31-.35-.37a2.25,2.25,0,0,0-1.12-.32c-.47.1-.62.58-.63,1.07a1.88,1.88,0,0,0,1.12,1.93,2.06,2.06,0,0,0,2.38-.62"/></clipPath><clipPath id="clip-path-22" transform="translate(0 -26.16)"><path class="cls-2" d="M19.18,56.89c-3.48-.49-6.3.54-8.17,3.65-.27.45-.52.91-.89,1.55a5.71,5.71,0,0,0,.83-.21,3.78,3.78,0,0,1,2.43-.3c.58.11,1.15.25,1.73.31a7.51,7.51,0,0,0,1.26-.1c-1.38-1.58-3.08-1-4.79-1.15a4.45,4.45,0,0,1,6.09.4,8.74,8.74,0,0,0,1.62,1.28,2,2,0,0,0,1.79.2,2.34,2.34,0,0,0,1.24-3.62,4.23,4.23,0,0,0-3.14-2"/></clipPath><clipPath id="clip-path-24" transform="translate(0 -26.16)"><path class="cls-2" d="M30.88,82.41a29.59,29.59,0,0,1-1.31-3.13,10.18,10.18,0,0,1,.33-5.34,5.69,5.69,0,0,0-.19-3.46c-.19-.52-.37-1-.61-1.55a6.41,6.41,0,0,0-1.87-2.43c-1.48.93-1.48.93-3.52.57a8.37,8.37,0,0,0,1.9,4.09,16.61,16.61,0,0,1,1.62,2.66,5.44,5.44,0,0,1,.42,2.11c0,1.21-.12,2.43-.13,3.65A13.69,13.69,0,0,0,28,84.21a16.19,16.19,0,0,0,.81,1.7l1.46-1.11.62-2.38"/></clipPath><clipPath id="clip-path-26" transform="translate(0 -26.16)"><path class="cls-2" d="M39.87,51a7.51,7.51,0,0,0,1,5.22c1.1,1.89,1.74,2.11,4,1.73a13.87,13.87,0,0,0,2.49-1,13.13,13.13,0,0,1,2.24-.77,3.82,3.82,0,0,1,3.24,1.27,2,2,0,0,0,.17-1.9c-.44-1.27-.84-2.57-1.24-3.86a9.44,9.44,0,0,1,0-4.33l.1-.66A5.28,5.28,0,0,0,48.13,46,7,7,0,0,1,42,44.8c-1-.72-2.14-.64-3.39-.83.29,1,.54,1.81.81,2.65A8.56,8.56,0,0,1,39.87,51"/></clipPath><clipPath id="clip-path-28" transform="translate(0 -26.16)"><path class="cls-2" d="M52.61,58.69A3.55,3.55,0,0,0,48,58a8.24,8.24,0,0,1-5.19,1.14,3.49,3.49,0,0,1-2.5-1.49,10.79,10.79,0,0,0,3.45,5,2.92,2.92,0,0,0,3.75.13c.4-.27.72-.67,1.13-.92a11.52,11.52,0,0,1,2.07-1.14c1.43-.53,1.45-.49,1.86-2"/></clipPath><clipPath id="clip-path-30" transform="translate(0 -26.16)"><path class="cls-2" d="M50.77,62.18c.11-.13.23-.25.47-.49a3.66,3.66,0,0,0-2.45,1.57,4,4,0,0,1-3,1.42,3.26,3.26,0,0,1-3-1.3c.16.93.28,1.71.42,2.48a5,5,0,0,1-.34,2.75,25.08,25.08,0,0,0-1.69,5.87,4,4,0,0,0,.76,3.14l2.42,3.13a4.53,4.53,0,0,0,1.39-3.35,26.45,26.45,0,0,0-.44-4.12,7.57,7.57,0,0,1,1.3-6c1.29-1.76,2.76-3.38,4.16-5.07"/></clipPath><clipPath id="clip-path-32" transform="translate(0 -26.16)"><path class="cls-2" d="M63.92,51.17A9.83,9.83,0,0,0,67.51,43a7.84,7.84,0,0,0-1.37-3.88,20.3,20.3,0,0,0-7.41-6.42c-.73-.4-1.5-.72-2.24-1.09a5.76,5.76,0,0,1-.65-.44h-.21a6.53,6.53,0,0,0,.82,1,17.92,17.92,0,0,1,5.27,7.25,8,8,0,0,1,.46,4.78c-.53,2.36-3.53,4.5-6,3.76-1-.3-2-.51-3.13-.8a9.85,9.85,0,0,0,1.29,7.95c3.49-.64,6.87-1.51,9.57-4"/></clipPath><clipPath id="clip-path-34" transform="translate(0 -26.16)"><path class="cls-2" d="M42,84.61a32.31,32.31,0,0,1-3.9.19,32.31,32.31,0,0,1-3.9-.19A4.8,4.8,0,0,0,29,90.79a3.23,3.23,0,0,0,4.1,2.34c0-1.44,0-2.84,0-4.25,0-.5.19-.86.71-.8a2.68,2.68,0,0,1,1.32.44A2.73,2.73,0,0,1,36,91.8a1.52,1.52,0,0,0,1.55,1.33,3.76,3.76,0,0,0,.62,0,3.75,3.75,0,0,0,.62,0,1.52,1.52,0,0,0,1.55-1.33,2.73,2.73,0,0,1,.79-3.28,2.68,2.68,0,0,1,1.32-.44c.51-.06.71.3.71.8,0,1.41,0,2.81,0,4.25a3.23,3.23,0,0,0,4.1-2.34A4.8,4.8,0,0,0,42,84.61"/></clipPath><clipPath id="clip-path-36" transform="translate(0 -26.16)"><path class="cls-2" d="M41.72,90.92a.24.24,0,0,0-.41.2h0a2.4,2.4,0,0,1-1.84,3.17,5,5,0,0,1-1.33.24,5,5,0,0,1-1.33-.24A2.4,2.4,0,0,1,35,91.13h0a.31.31,0,0,0-.59-.18,3.28,3.28,0,0,0-.27,1.24c0,.66.07,2.17,1.21,2.78a6.53,6.53,0,0,0,2.82.71A5.69,5.69,0,0,0,40.75,95a3,3,0,0,0,1.42-2.78,1.63,1.63,0,0,0-.45-1.26"/></clipPath><clipPath id="clip-path-38" transform="translate(0 -26.16)"><path class="cls-2" d="M52.69,62.85a2.25,2.25,0,0,0-1.12.32c-.14.06-.24.24-.35.37l-1.39,1.69a2.06,2.06,0,0,0,2.38.62,1.88,1.88,0,0,0,1.12-1.93c0-.49-.16-1-.63-1.07"/></clipPath><clipPath id="clip-path-40" transform="translate(0 -26.16)"><path class="cls-2" d="M57.09,56.89a4.23,4.23,0,0,0-3.14,2,2.34,2.34,0,0,0,1.24,3.62,2,2,0,0,0,1.79-.2A8.74,8.74,0,0,0,58.6,61a4.45,4.45,0,0,1,6.09-.4c-1.71.2-3.41-.44-4.79,1.15a7.51,7.51,0,0,0,1.26.1c.58-.06,1.16-.2,1.73-.31a3.78,3.78,0,0,1,2.43.3,5.71,5.71,0,0,0,.83.21c-.37-.64-.62-1.1-.89-1.55-1.88-3.11-4.69-4.15-8.17-3.65"/></clipPath><clipPath id="clip-path-42" transform="translate(0 -26.16)"><path class="cls-2" d="M49,66.49a6.41,6.41,0,0,0-1.87,2.43c-.24.5-.41,1-.61,1.55a5.69,5.69,0,0,0-.19,3.46,10.18,10.18,0,0,1,.33,5.34,29.5,29.5,0,0,1-1.31,3.13L46,84.79l1.46,1.11a16.19,16.19,0,0,0,.81-1.7,13.69,13.69,0,0,0,.47-4.64c0-1.22-.15-2.43-.13-3.65A5.44,5.44,0,0,1,49,73.81a16.63,16.63,0,0,1,1.62-2.66,8.37,8.37,0,0,0,1.9-4.09c-2,.35-2,.35-3.52-.57"/></clipPath><clipPath id="clip-path-44" transform="translate(0 -26.16)"><path class="cls-2" d="M88.48,85.67a2,2,0,0,1-.26,1,2.37,2.37,0,0,1-.74.79,3.77,3.77,0,0,1-1.15.51,5.74,5.74,0,0,1-1.49.18H82.17V79.24h2.92a4.75,4.75,0,0,1,1.25.15,3,3,0,0,1,1,.44,2.05,2.05,0,0,1,.62.69,1.81,1.81,0,0,1,.22.88,1.74,1.74,0,0,1-.55,1.3,3.47,3.47,0,0,1-1.4.8,3.36,3.36,0,0,1,1.66.73A1.81,1.81,0,0,1,88.48,85.67Zm-3.87-2.59a3.63,3.63,0,0,0,.9-.11,2.37,2.37,0,0,0,.72-.31,1.51,1.51,0,0,0,.47-.48,1.2,1.2,0,0,0,.17-.64,1.1,1.1,0,0,0-.53-1A2.57,2.57,0,0,0,85,80.22H83.41v2.85Zm2.63,2.55a1.24,1.24,0,0,0-.2-.7,1.55,1.55,0,0,0-.54-.49,2.71,2.71,0,0,0-.79-.29,4.78,4.78,0,0,0-1-.09H83.41v3.13h1.5a3.18,3.18,0,0,0,1.7-.39A1.29,1.29,0,0,0,87.24,85.62Z"/></clipPath><clipPath id="clip-path-46" transform="translate(0 -26.16)"><rect class="cls-1" x="5" y="31.16" width="199.95" height="70.61"/></clipPath><clipPath id="clip-path-48" transform="translate(0 -26.16)"><rect class="cls-1" x="90" y="79" width="115" height="10"/></clipPath><clipPath id="clip-path-49" transform="translate(0 -26.16)"><rect class="cls-1" x="90.28" y="79.24" width="1.3" height="8.92"/></clipPath><clipPath id="clip-path-51" transform="translate(0 -26.16)"><polygon class="cls-2" points="99.93 79.24 99.93 80.25 97.16 80.25 97.16 88.16 95.86 88.16 95.86 80.25 93.09 80.25 93.09 79.24 99.93 79.24"/></clipPath><clipPath id="clip-path-53" transform="translate(0 -26.16)"><path class="cls-2" d="M105.46,79.08a8.23,8.23,0,0,1,1.33.11,5.58,5.58,0,0,1,1.16.3l-.21,1a7.49,7.49,0,0,0-1-.26,6.06,6.06,0,0,0-1.09-.1,3.85,3.85,0,0,0-2.76.94,4.12,4.12,0,0,0,0,5.36,3.85,3.85,0,0,0,2.76.94,6.08,6.08,0,0,0,1.09-.1,7.49,7.49,0,0,0,1-.26l.21,1a5.56,5.56,0,0,1-1.16.3,8.2,8.2,0,0,1-1.33.11,5.78,5.78,0,0,1-2.07-.35,4.35,4.35,0,0,1-1.53-1,4.18,4.18,0,0,1-1-1.46,5.31,5.31,0,0,1,0-3.7,4.18,4.18,0,0,1,1-1.46,4.35,4.35,0,0,1,1.53-1,5.78,5.78,0,0,1,2.07-.35"/></clipPath></defs><title>lc-9</title><g id="Слой_2" data-name="Слой 2"><g id="Слой_1-2" data-name="Слой 1"><g class="cls-3"><g class="cls-4"><g class="cls-5"><g class="cls-6"><rect class="cls-7" x="12.69" y="3.81" width="50.89" height="18.13"/></g></g><g class="cls-8"><g class="cls-6"><rect class="cls-7" y="21.04" width="76.8" height="59.57"/></g></g><g class="cls-9"><g class="cls-6"><rect class="cls-7" x="88.05" y="17.94" width="33.71" height="34.36"/></g></g><g class="cls-10"><g class="cls-6"><rect class="cls-7" x="71.49" y="17.96" width="28.91" height="34.32"/></g></g><g class="cls-11"><g class="cls-6"><rect class="cls-7" x="18.17" y="12.81" width="24.48" height="24.13"/></g></g><g class="cls-12"><g class="cls-6"><rect class="cls-7" x="18.66" y="26.32" width="22.26" height="15.92"/></g></g><g class="cls-13"><g class="cls-6"><rect class="cls-7" x="20.04" y="30.53" width="20.11" height="29.06"/></g></g><g class="cls-14"><g class="cls-6"><rect class="cls-7" x="26.75" y="18.58" width="22.77" height="43.98"/></g></g><g class="cls-15"><g class="cls-6"><rect class="cls-7" x="3.73" width="24.81" height="33.97"/></g></g><g class="cls-16"><g class="cls-6"><rect class="cls-7" x="17.95" y="31.67" width="13.49" height="13.17"/></g></g><g class="cls-17"><g class="cls-6"><rect class="cls-7" x="5.12" y="25.62" width="22.63" height="15.87"/></g></g><g class="cls-18"><g class="cls-6"><rect class="cls-7" x="18.71" y="35.33" width="17.17" height="29.41"/></g></g><g class="cls-19"><g class="cls-6"><rect class="cls-7" x="33.62" y="12.81" width="24.48" height="24.13"/></g></g><g class="cls-20"><g class="cls-6"><rect class="cls-7" x="35.35" y="26.32" width="22.26" height="15.92"/></g></g><g class="cls-21"><g class="cls-6"><rect class="cls-7" x="36.12" y="30.53" width="20.11" height="29.06"/></g></g><g class="cls-22"><g class="cls-6"><rect class="cls-7" x="47.73" width="24.81" height="33.97"/></g></g><g class="cls-23"><g class="cls-6"><rect class="cls-7" x="23.86" y="53.41" width="28.56" height="18.73"/></g></g><g class="cls-24"><g class="cls-6"><rect class="cls-7" x="29.1" y="59.59" width="18.07" height="14.92"/></g></g><g class="cls-25"><g class="cls-6"><rect class="cls-7" x="44.82" y="31.67" width="13.49" height="13.17"/></g></g><g class="cls-26"><g class="cls-6"><rect class="cls-7" x="48.52" y="25.62" width="22.63" height="15.87"/></g></g><g class="cls-27"><g class="cls-6"><rect class="cls-7" x="40.39" y="35.33" width="17.17" height="29.41"/></g></g><g class="cls-28"><g class="cls-6"><rect class="cls-7" x="77.17" y="48.08" width="16.32" height="18.92"/></g></g><g class="cls-29"><g class="cls-6"><g class="cls-30"><g class="cls-31"><g class="cls-32"><g class="cls-4"><rect class="cls-7" x="85.28" y="48.08" width="11.3" height="18.92"/></g></g><g class="cls-33"><g class="cls-4"><rect class="cls-7" x="88.09" y="48.08" width="16.84" height="18.92"/></g></g><g class="cls-34"><g class="cls-4"><rect class="cls-7" x="95.57" y="47.92" width="17.38" height="19.24"/></g></g></g></g></g></g></g></g></g></g></svg>