<svg xmlns="http://www.w3.org/2000/svg" xmlns:xlink="http://www.w3.org/1999/xlink" width="210" height="40.99" viewBox="0 0 210 40.99"><defs><style>.cls-1,.cls-2{fill:none;}.cls-2{clip-rule:evenodd;}.cls-3{opacity:0.8;}.cls-3,.cls-7{isolation:isolate;}.cls-4{clip-path:url(#clip-path);}.cls-5{clip-path:url(#clip-path-2);}.cls-6{clip-path:url(#clip-path-3);}.cls-8{clip-path:url(#clip-path-4);}.cls-9{clip-path:url(#clip-path-5);}.cls-10{fill:#4b4b4b;}.cls-11{clip-path:url(#clip-path-10);}.cls-12{clip-path:url(#clip-path-12);}.cls-13{clip-path:url(#clip-path-14);}.cls-14{clip-path:url(#clip-path-16);}.cls-15{clip-path:url(#clip-path-18);}.cls-16{clip-path:url(#clip-path-20);}.cls-17{clip-path:url(#clip-path-22);}.cls-18{clip-path:url(#clip-path-24);}.cls-19{clip-path:url(#clip-path-26);}.cls-20{clip-path:url(#clip-path-28);}.cls-21{clip-path:url(#clip-path-30);}.cls-22{clip-path:url(#clip-path-32);}.cls-23{clip-path:url(#clip-path-34);}.cls-24{clip-path:url(#clip-path-36);}.cls-25{clip-path:url(#clip-path-38);}.cls-26{clip-path:url(#clip-path-40);}.cls-27{clip-path:url(#clip-path-42);}.cls-28{clip-path:url(#clip-path-44);}.cls-29{clip-path:url(#clip-path-46);}.cls-30{clip-path:url(#clip-path-48);}.cls-31{clip-path:url(#clip-path-50);}.cls-32{clip-path:url(#clip-path-52);}</style><clipPath id="clip-path" transform="translate(0 -46.15)"><rect class="cls-1" x="5" y="51" width="200" height="32"/></clipPath><clipPath id="clip-path-2" transform="translate(0 -46.15)"><rect class="cls-1" x="5" y="51.15" width="200" height="30.99"/></clipPath><clipPath id="clip-path-3" transform="translate(0 -46.15)"><rect class="cls-1" x="5" width="276" height="133"/></clipPath><clipPath id="clip-path-4" transform="translate(0 -46.15)"><rect class="cls-1" x="42" y="51" width="32" height="32"/></clipPath><clipPath id="clip-path-5" transform="translate(0 -46.15)"><path class="cls-2" d="M70.43,51.15a7.39,7.39,0,0,1,.75,1.05c.71,1.48,1.33,3,2.08,4.46s0,1.87-1.15,1.85q-4.69-.09-9.38,0a15,15,0,0,0-3.54.5A5.58,5.58,0,0,0,54.9,63.6a15.67,15.67,0,0,0,0,6.06,5.71,5.71,0,0,0,4.84,4.78,21.61,21.61,0,0,0,4,.38c2.79.05,5.58,0,8.37,0a5.48,5.48,0,0,1,.7,0,.84.84,0,0,1,.74,1.24c-.14.39-.34.76-.52,1.14-.62,1.35-1.26,2.69-1.85,4a1.27,1.27,0,0,1-1.31.87c-3.08,0-6.15,0-9.23,0a25.31,25.31,0,0,1-10.2-2A12,12,0,0,1,43,69.81,25.48,25.48,0,0,1,43.26,62a12.06,12.06,0,0,1,7.92-9.14,25,25,0,0,1,7.46-1.58c.38,0,.77-.1,1.15-.15Z"/></clipPath><clipPath id="clip-path-10" transform="translate(0 -46.15)"><path class="cls-2" d="M28.81,51.15c.69.61.71.75.25,1.76L16.4,80.18c-.2.43-.4.85-.59,1.28a1,1,0,0,1-1,.68c-2.92,0-5.84,0-8.76,0-.94,0-1.25-.58-.82-1.5,1.24-2.7,2.49-5.39,3.74-8.08q4.7-10.13,9.41-20.26a8.75,8.75,0,0,1,.77-1.15Z"/></clipPath><clipPath id="clip-path-12" transform="translate(0 -46.15)"><path class="cls-2" d="M86.71,51.15a2.06,2.06,0,0,1,.46,1.42q0,14.07,0,28.15a3.52,3.52,0,0,1,0,.7c-.1.5-.42.71-1,.72h-8c-1,0-1.23-.26-1.23-1.27q0-3.48,0-7,0-10.67,0-21.34a1.94,1.94,0,0,1,.47-1.42Z"/></clipPath><clipPath id="clip-path-14" transform="translate(0 -46.15)"><path class="cls-2" d="M38.27,82.13c-1.41,0-2.81,0-4.22,0a1.17,1.17,0,0,1-1.22-.77Q30,75.21,27.11,69.06a1.44,1.44,0,0,1,0-1.34q2.14-4.56,4.25-9.13c.2-.43.36-.89,1-.89s.77.45,1,.88L41.63,76.5l1.8,3.9c.07.14.14.28.2.43.28.77-.07,1.29-.9,1.3-1.49,0-3,0-4.46,0"/></clipPath><clipPath id="clip-path-16" transform="translate(0 -46.15)"><path class="cls-2" d="M147.5,79.07,144,73.86a13.75,13.75,0,0,0-.11,2.67c0,.89,0,1.77,0,2.66v2.6H142V70.45h2.09l3.44,5.36L151,70.45H153V81.78h-1.9V74L151,73.9l-3.46,5.17"/></clipPath><clipPath id="clip-path-18" transform="translate(0 -46.15)"><path class="cls-2" d="M168.89,81.81H167V70.46h1.81l5.89,7.63.14,0V70.47h2v11.3h-1.68L169,73.9l-.14.06Z"/></clipPath><clipPath id="clip-path-20" transform="translate(0 -46.15)"><polygon class="cls-2" points="158.08 72.18 158.08 75.14 163.66 75.14 163.66 76.96 158.1 76.96 158.1 80.04 164.48 80.04 164.48 81.78 156.08 81.78 156.08 70.46 164.43 70.46 164.43 72.18 158.08 72.18"/></clipPath><clipPath id="clip-path-22" transform="translate(0 -46.15)"><path class="cls-2" d="M130.12,81.79H128l-1.14-2.65h-5.4l-1.15,2.66h-2l5-11.42h1.89l5,11.41m-7.85-4.55h3.85l-1.93-4.49-1.91,4.49"/></clipPath><clipPath id="clip-path-24" transform="translate(0 -46.15)"><path class="cls-2" d="M109.61,70.42c1.67,0,3.26,0,4.84,0a4.74,4.74,0,0,1,1.3.25,3.46,3.46,0,0,1,2.58,3.26A3.51,3.51,0,0,1,116,77.72a10.34,10.34,0,0,1-2.44.45,19.26,19.26,0,0,1-2,0v3.6h-2Zm2,1.87v4.11a26.37,26.37,0,0,0,3.08-.18,2,2,0,0,0-.25-3.92C113.53,72.23,112.59,72.29,111.62,72.29Z"/></clipPath><clipPath id="clip-path-26" transform="translate(0 -46.15)"><path class="cls-2" d="M197.73,71.7l-1.05,1.48a5.32,5.32,0,0,0-2.75-1.11,4.41,4.41,0,0,0-1.44.22,1.12,1.12,0,0,0-.75,1.09,1.11,1.11,0,0,0,.68,1.13c.5.22,1,.4,1.53.57.69.23,1.41.38,2.08.65a2.87,2.87,0,0,1,2.06,2.91,3.08,3.08,0,0,1-2.17,3,6.69,6.69,0,0,1-6.63-1.46l1.17-1.42c.29.2.54.39.79.55a4.46,4.46,0,0,0,3.55.79,2.09,2.09,0,0,0,.83-.4,1.2,1.2,0,0,0-.12-2,7.62,7.62,0,0,0-1.51-.6c-.79-.27-1.6-.46-2.37-.75a2.71,2.71,0,0,1-1.89-2.68,3.08,3.08,0,0,1,1.79-3,5.34,5.34,0,0,1,3.89-.24,5.83,5.83,0,0,1,2.33,1.22"/></clipPath><clipPath id="clip-path-28" transform="translate(0 -46.15)"><path class="cls-2" d="M123.28,54.08v9.06h-1.19V51.82h1.2l7.06,9v-9h1.25V63.13h-1l-7.12-9.08-.19,0"/></clipPath><clipPath id="clip-path-30" transform="translate(0 -46.15)"><path class="cls-2" d="M162.68,51.79c1.92,0,3.77-.07,5.61,0a3.33,3.33,0,0,1,3.26,2.56,3.17,3.17,0,0,1-2,3.85c-.29.12-.58.21-.95.34L172,63.15h-1.57l-3.24-4.35h-3.29v4.35h-1.26Zm1.3,5.76c1.36,0,2.66,0,4,0a2.78,2.78,0,0,0,.83-.19,2.18,2.18,0,0,0,1.56-2.26,2,2,0,0,0-1.75-2A23.21,23.21,0,0,0,164,53Z"/></clipPath><clipPath id="clip-path-32" transform="translate(0 -46.15)"><polygon class="cls-2" points="153.1 52.88 153.1 56.8 159.2 56.8 159.2 57.99 153.1 57.99 153.1 61.99 160.05 61.99 160.05 63.14 151.85 63.14 151.85 51.81 159.92 51.81 159.92 52.88 153.1 52.88"/></clipPath><clipPath id="clip-path-34" transform="translate(0 -46.15)"><path class="cls-2" d="M137.89,70.44h2.22c-.14.26-.24.46-.36.65-1.17,1.79-2.32,3.59-3.53,5.35a3,3,0,0,0-.55,1.89c0,1.14,0,2.28,0,3.46h-2c0-.35,0-.71,0-1.06a12.45,12.45,0,0,0-.09-3.34,12.22,12.22,0,0,0-1.74-2.85l-2.17-3.34c-.14-.21-.26-.44-.43-.73h2.32l1.53,2.44,1.6,2.54,3.21-5"/></clipPath><clipPath id="clip-path-36" transform="translate(0 -46.15)"><polygon class="cls-2" points="188.1 72.26 184.58 72.26 184.58 81.78 182.57 81.78 182.57 72.3 179 72.3 179 70.45 188.1 70.45 188.1 72.26"/></clipPath><clipPath id="clip-path-38" transform="translate(0 -46.15)"><path class="cls-2" d="M188.76,51.67H190l5.16,11.47h-1.36l-1.32-2.93h-6.21l-1.33,2.93h-1.3l5.16-11.47m.68,1.7-.17,0-2.5,5.59h5.13l-2.47-5.57"/></clipPath><clipPath id="clip-path-40" transform="translate(0 -46.15)"><path class="cls-2" d="M174.45,60.62c.41.29.74.55,1.09.77a4.91,4.91,0,0,0,3.6.69,1.93,1.93,0,0,0,1.72-2.21,1.48,1.48,0,0,0-.92-1.18c-.65-.26-1.33-.45-2-.66s-1.5-.43-2.22-.74a2.89,2.89,0,0,1-.26-5,5.21,5.21,0,0,1,4.23-.41A5,5,0,0,1,181.8,53l-.7,1a5,5,0,0,0-2.72-1.17,5.61,5.61,0,0,0-1.9.25,1.56,1.56,0,0,0-1.08,1.56,1.48,1.48,0,0,0,1,1.54c.8.31,1.63.52,2.45.79a14.86,14.86,0,0,1,1.76.63,2.92,2.92,0,0,1,.3,5,4.57,4.57,0,0,1-2.2.73,6.53,6.53,0,0,1-5-1.81c.11-.15.21-.32.34-.47s.25-.27.39-.42"/></clipPath><clipPath id="clip-path-42" transform="translate(0 -46.15)"><path class="cls-2" d="M117.7,51.8h1.2a3.27,3.27,0,0,1,.07.5c0,2.06,0,4.12,0,6.18a6.61,6.61,0,0,1-.19,1.55,4.07,4.07,0,0,1-3.34,3.21,5.85,5.85,0,0,1-2.71-.07,4.13,4.13,0,0,1-3.14-3.94c-.09-2.44,0-4.9,0-7.4h1.2c0,.21,0,.43,0,.66q0,2.74,0,5.47c0,.29,0,.57,0,.86.24,2.79,2.23,3.74,4.55,3.2a3.11,3.11,0,0,0,2.32-3.32c0-2,0-4,0-6,0-.28,0-.56,0-.88"/></clipPath><clipPath id="clip-path-44" transform="translate(0 -46.15)"><path class="cls-2" d="M143.48,63.21l-4.84-11.39h1.42l4,9.77,4-9.78h1.38l-4.84,11.41Z"/></clipPath><clipPath id="clip-path-46" transform="translate(0 -46.15)"><polygon class="cls-2" points="197.44 51.79 198.65 51.79 198.65 61.96 205 61.96 205 63.14 197.44 63.14 197.44 51.79"/></clipPath><clipPath id="clip-path-48" transform="translate(0 -46.15)"><rect class="cls-1" x="135.01" y="51.81" width="1.21" height="11.35"/></clipPath><clipPath id="clip-path-50" transform="translate(0 -46.15)"><path class="cls-2" d="M200.44,80.93a1.36,1.36,0,0,0,.59.15c.25,0,.38-.1.38-.26s-.11-.23-.4-.33-.65-.35-.65-.7.34-.71.89-.71a1.43,1.43,0,0,1,.6.12l-.12.43a1.12,1.12,0,0,0-.49-.11c-.23,0-.34.1-.34.23s.13.22.44.33.61.37.61.7-.31.73-1,.73a1.54,1.54,0,0,1-.67-.14Z"/></clipPath><clipPath id="clip-path-52" transform="translate(0 -46.15)"><path class="cls-2" d="M204.32,80.57c0-.28,0-.63,0-1h0c-.07.3-.17.64-.26.92l-.29.92h-.42l-.25-.92c-.08-.28-.16-.61-.21-.92h0c0,.32,0,.68,0,1l0,.9h-.49l.15-2.36h.71l.23.79c.07.27.15.57.2.85h0c.07-.27.15-.59.22-.85l.25-.79h.7l.13,2.36h-.52Z"/></clipPath></defs><title>lc1</title><g id="Слой_2" data-name="Слой 2"><g id="Слой_1-2" data-name="Слой 1"><g class="cls-3"><g class="cls-4"><g class="cls-5"><g class="cls-6"><g class="cls-7"><g class="cls-8"><g class="cls-9"><g class="cls-4"><rect class="cls-10" x="37.85" width="40.73" height="40.99"/></g></g></g></g></g></g><g class="cls-5"><g class="cls-6"><g class="cls-7"><g class="cls-4"><g class="cls-11"><g class="cls-4"><rect class="cls-10" width="34.37" height="40.99"/></g></g><g class="cls-12"><g class="cls-4"><rect class="cls-10" x="71.85" width="20.31" height="40.99"/></g></g><g class="cls-13"><g class="cls-4"><rect class="cls-10" x="21.96" y="6.56" width="26.76" height="34.44"/></g></g><g class="cls-14"><g class="cls-4"><rect class="cls-10" x="137" y="19.3" width="21.04" height="21.34"/></g></g><g class="cls-15"><g class="cls-4"><rect class="cls-10" x="162" y="19.31" width="19.79" height="21.35"/></g></g><g class="cls-16"><g class="cls-4"><rect class="cls-10" x="151.08" y="19.32" width="18.41" height="21.31"/></g></g><g class="cls-17"><g class="cls-4"><rect class="cls-10" x="113.32" y="19.23" width="21.81" height="21.42"/></g></g><g class="cls-18"><g class="cls-4"><rect class="cls-10" x="104.61" y="19.26" width="18.73" height="21.37"/></g></g><g class="cls-19"><g class="cls-4"><rect class="cls-10" x="184.29" y="19.09" width="18.8" height="21.78"/></g></g><g class="cls-20"><g class="cls-4"><rect class="cls-10" x="117.09" y="0.67" width="19.51" height="21.33"/></g></g><g class="cls-21"><g class="cls-4"><rect class="cls-10" x="157.68" y="0.61" width="19.35" height="21.39"/></g></g><g class="cls-22"><g class="cls-4"><rect class="cls-10" x="146.85" y="0.66" width="18.2" height="21.33"/></g></g><g class="cls-23"><g class="cls-4"><rect class="cls-10" x="124.22" y="19.29" width="20.88" height="21.35"/></g></g><g class="cls-24"><g class="cls-4"><rect class="cls-10" x="174" y="19.31" width="19.1" height="21.33"/></g></g><g class="cls-25"><g class="cls-4"><rect class="cls-10" x="178.6" y="0.53" width="21.52" height="21.47"/></g></g><g class="cls-26"><g class="cls-4"><rect class="cls-10" x="168.71" y="0.44" width="18.47" height="21.77"/></g></g><g class="cls-27"><g class="cls-4"><rect class="cls-10" x="104.54" y="0.65" width="19.44" height="21.56"/></g></g><g class="cls-28"><g class="cls-4"><rect class="cls-10" x="133.65" y="0.66" width="20.86" height="21.41"/></g></g><g class="cls-29"><g class="cls-4"><rect class="cls-10" x="192.44" y="0.65" width="17.56" height="21.34"/></g></g><g class="cls-30"><g class="cls-4"><rect class="cls-10" x="130.01" y="0.66" width="11.21" height="21.35"/></g></g><g class="cls-31"><g class="cls-4"><rect class="cls-10" x="195.33" y="27.93" width="11.62" height="12.44"/></g></g><g class="cls-32"><g class="cls-4"><rect class="cls-10" x="197.27" y="27.97" width="12.61" height="12.36"/></g></g></g></g></g></g></g></g></g></g></svg>