<svg xmlns="http://www.w3.org/2000/svg" xmlns:xlink="http://www.w3.org/1999/xlink" width="209.95" height="34.36" viewBox="0 0 209.95 34.36"><defs><style>.cls-1,.cls-2{fill:none;}.cls-2{clip-rule:evenodd;}.cls-3{opacity:0.8;}.cls-13,.cls-3{isolation:isolate;}.cls-4{clip-path:url(#clip-path);}.cls-5{clip-path:url(#clip-path-2);}.cls-6{clip-path:url(#clip-path-3);}.cls-7{fill:#4b4b4b;}.cls-8{clip-path:url(#clip-path-4);}.cls-9{clip-path:url(#clip-path-6);}.cls-10{clip-path:url(#clip-path-8);}.cls-11{clip-path:url(#clip-path-10);}.cls-12{clip-path:url(#clip-path-12);}.cls-14{clip-path:url(#clip-path-14);}.cls-15{clip-path:url(#clip-path-15);}.cls-16{clip-path:url(#clip-path-17);}.cls-17{clip-path:url(#clip-path-19);}.cls-18{clip-path:url(#clip-path-21);}.cls-19{clip-path:url(#clip-path-23);}.cls-20{clip-path:url(#clip-path-25);}.cls-21{clip-path:url(#clip-path-27);}.cls-22{clip-path:url(#clip-path-29);}.cls-23{clip-path:url(#clip-path-31);}.cls-24{clip-path:url(#clip-path-33);}.cls-25{clip-path:url(#clip-path-35);}.cls-26{clip-path:url(#clip-path-37);}.cls-27{clip-path:url(#clip-path-39);}.cls-28{clip-path:url(#clip-path-41);}</style><clipPath id="clip-path" transform="translate(0 -49.01)"><rect class="cls-1" x="5" y="54" width="200" height="25"/></clipPath><clipPath id="clip-path-2" transform="translate(0 -49.01)"><path class="cls-2" d="M160.57,77.51V74.95a2.67,2.67,0,0,1,.38.14,7.54,7.54,0,0,0,4.28.83,3.24,3.24,0,0,0,3.33-3.32c0-.54,0-1.09,0-1.66-.08,0-.15.05-.18.1-1.54,2.3-4.81,2.26-6.68.92a5.72,5.72,0,0,1-2.41-4.16,8.3,8.3,0,0,1,1.19-5.93A5,5,0,0,1,166,59.81a3.89,3.89,0,0,1,2.13,1.38l.46.59v-1.9h2.58c0,.21,0,.4,0,.6,0,3.9,0,7.81,0,11.71A8.63,8.63,0,0,1,171,74a5.12,5.12,0,0,1-3.9,4,9.87,9.87,0,0,1-6.5-.54m8-11a6.36,6.36,0,0,0-.52-2.66A3,3,0,0,0,165.42,62a2.78,2.78,0,0,0-2.77,1.49,5.82,5.82,0,0,0-.21,5.42,3,3,0,0,0,4.9.91,4.24,4.24,0,0,0,1.23-3.31"/></clipPath><clipPath id="clip-path-3" transform="translate(0 -49.01)"><rect class="cls-1" x="5" width="276" height="133"/></clipPath><clipPath id="clip-path-4" transform="translate(0 -49.01)"><path class="cls-2" d="M57.27,55.47l6,17.73H60.4L59,69H51.83l-1.41,4.26H47.53l6.13-17.74Zm1,11.11-2.79-8.91-2.86,8.94h5.25Z"/></clipPath><clipPath id="clip-path-6" transform="translate(0 -49.01)"><path class="cls-2" d="M73.3,71.45a4.64,4.64,0,0,1-4.24,2,5,5,0,0,1-3.95-2.08,8,8,0,0,1-1.44-5.6A7.35,7.35,0,0,1,65,61.88a5.35,5.35,0,0,1,5.72-2.06,4.31,4.31,0,0,1,2.18,1.32l.52.59V54.6H76V73.21H73.44V71.49l-.14,0m.23-4.93A7.25,7.25,0,0,0,73,64,3.35,3.35,0,0,0,70,62a3,3,0,0,0-3,1.78,6.11,6.11,0,0,0-.12,5.38,3.08,3.08,0,0,0,3.23,2,3.24,3.24,0,0,0,3-2.3,16.89,16.89,0,0,0,.48-2.3"/></clipPath><clipPath id="clip-path-8" transform="translate(0 -49.01)"><polygon class="cls-2" points="135.13 57.68 135.13 63.21 138.4 63.21 141.63 63.21 141.63 65.47 135.13 65.47 135.13 70.97 142.64 70.97 142.64 73.2 132.41 73.2 132.41 55.48 142.5 55.48 142.5 57.68 135.13 57.68"/></clipPath><clipPath id="clip-path-10" transform="translate(0 -49.01)"><path class="cls-2" d="M121.28,66.52a8.32,8.32,0,0,1-.67,3.32,5.63,5.63,0,0,1-4.43,3.52,6.12,6.12,0,0,1-7.56-5.28,8,8,0,0,1,1-5.57,5.67,5.67,0,0,1,5-2.84,8.62,8.62,0,0,1,2.15.22A5.75,5.75,0,0,1,121,64.64a17.3,17.3,0,0,1,.23,1.88m-2.78,0a6.3,6.3,0,0,0-.52-2.71,3.1,3.1,0,0,0-2.85-2,3.17,3.17,0,0,0-3.21,1.73,6.47,6.47,0,0,0-.59,4.29,4.75,4.75,0,0,0,.86,2,3.34,3.34,0,0,0,5.48-.14,5.61,5.61,0,0,0,.82-3.24"/></clipPath><clipPath id="clip-path-12" transform="translate(0 -49.01)"><polyline class="cls-2" points="5 54.01 204.95 54.01 204.95 78.37 5 78.37"/></clipPath><clipPath id="clip-path-14" transform="translate(0 -49.01)"><rect class="cls-1" x="5" y="54" width="200" height="21"/></clipPath><clipPath id="clip-path-15" transform="translate(0 -49.01)"><path class="cls-2" d="M204.76,67.61H196a3.78,3.78,0,0,0,1.87,2.95,5.09,5.09,0,0,0,2.74.64,6.26,6.26,0,0,0,3.13-.78c.07,0,.16-.07.3-.13v2.23a4.63,4.63,0,0,1-2,.7,9.49,9.49,0,0,1-4-.1,6.22,6.22,0,0,1-4.64-5.8,8.61,8.61,0,0,1,.68-4.32,5.94,5.94,0,0,1,8.15-2.66A5.06,5.06,0,0,1,204.77,64a8.79,8.79,0,0,1,0,3.6M195.9,65.5h6.6a14.54,14.54,0,0,0-.34-1.79,2.53,2.53,0,0,0-2.08-1.83,3.2,3.2,0,0,0-3.55,1.79,15.38,15.38,0,0,0-.63,1.82"/></clipPath><clipPath id="clip-path-17" transform="translate(0 -49.01)"><path class="cls-2" d="M191.13,73.21h-2.57v-.77q0-3.64,0-7.28c0-.32,0-.63-.05-.95a2.5,2.5,0,0,0-3.59-2.1,3.39,3.39,0,0,0-2.16,2.9,9.71,9.71,0,0,0-.08,1.36c0,2,0,4,0,6.06v.78h-2.55V59.87h2.53v2l.12,0c.07-.1.15-.19.22-.29a4,4,0,0,1,3.37-1.87,6.7,6.7,0,0,1,1.69.11A3.75,3.75,0,0,1,191,63a6.15,6.15,0,0,1,.13,1.29c0,2.84,0,5.67,0,8.51,0,.13,0,.27,0,.47"/></clipPath><clipPath id="clip-path-19" transform="translate(0 -49.01)"><path class="cls-2" d="M145.9,59.85h2.52v2l.12,0,.27-.37a4,4,0,0,1,3.26-1.81,6.28,6.28,0,0,1,1.56.06,3.86,3.86,0,0,1,3.25,3.68c.07,1,.05,1.95.05,2.92,0,2,0,4,0,6.06v.79h-2.61v-.77q0-3.57,0-7.15c0-.25,0-.5,0-.75A2.45,2.45,0,0,0,153,62.21a2.82,2.82,0,0,0-2.91.18,3.39,3.39,0,0,0-1.56,2.37,8.06,8.06,0,0,0-.13,1.42c0,2.09,0,4.17,0,6.26v.77H145.9Z"/></clipPath><clipPath id="clip-path-21" transform="translate(0 -49.01)"><path class="cls-2" d="M77.86,59.86H80.6l3.51,11,3.61-11h2.72L85.59,73.22h-3L77.86,59.86"/></clipPath><clipPath id="clip-path-23" transform="translate(0 -49.01)"><path class="cls-2" d="M106.32,60.27v2.22c-.81-.19-1.59-.44-2.38-.55a5.75,5.75,0,0,0-1.75.07,1.32,1.32,0,0,0-1.14,1.11,1.38,1.38,0,0,0,.66,1.52c.58.35,1.2.63,1.79,1,.77.42,1.56.83,2.29,1.31,1.85,1.23,1.67,4.51-.27,5.64a5.65,5.65,0,0,1-1.89.71,9.16,9.16,0,0,1-4.43-.35c-.25-.09-.5-.2-.76-.31V70.17l.69.34a6.76,6.76,0,0,0,3.21.74,3.33,3.33,0,0,0,1.06-.2A1.37,1.37,0,0,0,104,68.7a4.46,4.46,0,0,0-1.1-.78c-.54-.29-1.14-.46-1.67-.76A8.54,8.54,0,0,1,99.44,66a3.44,3.44,0,0,1,.69-5.59,6,6,0,0,1,2-.64,8.13,8.13,0,0,1,4.22.49"/></clipPath><clipPath id="clip-path-25" transform="translate(0 -49.01)"><path class="cls-2" d="M130,59.81v2.44c-.39,0-.75-.11-1.11-.13a2.5,2.5,0,0,0-2.2,1,4.46,4.46,0,0,0-1,2.9q0,3.2,0,6.4c0,.25,0,.5,0,.79h-2.56V59.89h2.53v2a5.14,5.14,0,0,1,1.83-1.77,3.75,3.75,0,0,1,2.5-.26"/></clipPath><clipPath id="clip-path-27" transform="translate(0 -49.01)"><rect class="cls-1" x="174.26" y="59.87" width="2.57" height="13.32"/></clipPath><clipPath id="clip-path-29" transform="translate(0 -49.01)"><rect class="cls-1" x="92.91" y="59.89" width="2.52" height="13.32"/></clipPath><clipPath id="clip-path-31" transform="translate(0 -49.01)"><path class="cls-2" d="M177.16,55.76a1.63,1.63,0,1,1-1.62-1.65,1.61,1.61,0,0,1,1.62,1.65"/></clipPath><clipPath id="clip-path-33" transform="translate(0 -49.01)"><path class="cls-2" d="M94.19,54.11a1.63,1.63,0,1,1-.08,3.26,1.63,1.63,0,0,1,.08-3.26"/></clipPath><clipPath id="clip-path-35" transform="translate(0 -49.01)"><polygon class="cls-2" points="5 74.66 9.18 74.66 20.97 57.37 25.79 57.37 23.33 54.11 19.25 54.11 5 74.66"/></clipPath><clipPath id="clip-path-37" transform="translate(0 -49.01)"><polygon class="cls-2" points="39.04 74.66 21.43 74.66 23.79 71.21 39.04 71.21 39.04 74.66"/></clipPath><clipPath id="clip-path-39" transform="translate(0 -49.01)"><polygon class="cls-2" points="39.04 66.11 21.43 66.11 23.79 62.66 39.04 62.66 39.04 66.11"/></clipPath><clipPath id="clip-path-41" transform="translate(0 -49.01)"><polygon class="cls-2" points="39.04 54.01 26.78 54.01 29.14 57.46 39.04 57.46 39.04 54.01"/></clipPath></defs><title>lc2</title><g id="Слой_2" data-name="Слой 2"><g id="Слой_1-2" data-name="Слой 1"><g class="cls-3"><g class="cls-4"><g class="cls-5"><g class="cls-6"><rect class="cls-7" x="154.19" y="5.63" width="21.98" height="28.73"/></g></g><g class="cls-8"><g class="cls-6"><rect class="cls-7" x="42.53" y="1.46" width="25.79" height="27.74"/></g></g><g class="cls-9"><g class="cls-6"><rect class="cls-7" x="58.64" y="0.58" width="22.36" height="28.84"/></g></g><g class="cls-10"><g class="cls-6"><rect class="cls-7" x="127.41" y="1.47" width="20.23" height="27.71"/></g></g><g class="cls-11"><g class="cls-6"><rect class="cls-7" x="103.51" y="5.67" width="22.77" height="23.8"/></g></g><g class="cls-12"><g class="cls-6"><g class="cls-13"><g class="cls-14"><g class="cls-15"><g class="cls-4"><rect class="cls-7" x="188.35" y="5.62" width="21.6" height="23.75"/></g></g><g class="cls-16"><g class="cls-4"><rect class="cls-7" x="175.11" y="5.67" width="21.05" height="23.53"/></g></g><g class="cls-17"><g class="cls-4"><rect class="cls-7" x="140.9" y="5.66" width="21.03" height="23.54"/></g></g><g class="cls-18"><g class="cls-4"><rect class="cls-7" x="72.86" y="5.85" width="22.57" height="23.36"/></g></g><g class="cls-19"><g class="cls-4"><rect class="cls-7" x="93.3" y="5.68" width="18.79" height="23.69"/></g></g><g class="cls-20"><g class="cls-4"><rect class="cls-7" x="118.14" y="5.69" width="16.86" height="23.5"/></g></g><g class="cls-21"><g class="cls-4"><rect class="cls-7" x="169.26" y="5.86" width="12.57" height="23.32"/></g></g><g class="cls-22"><g class="cls-4"><rect class="cls-7" x="87.91" y="5.88" width="12.52" height="23.32"/></g></g><g class="cls-23"><g class="cls-4"><rect class="cls-7" x="168.9" y="0.1" width="13.26" height="13.26"/></g></g><g class="cls-24"><g class="cls-4"><rect class="cls-7" x="87.56" y="0.1" width="13.23" height="13.26"/></g></g><g class="cls-25"><g class="cls-4"><rect class="cls-7" y="0.1" width="30.79" height="30.55"/></g></g><g class="cls-26"><g class="cls-4"><rect class="cls-7" x="16.43" y="17.19" width="27.61" height="13.45"/></g></g><g class="cls-27"><g class="cls-4"><rect class="cls-7" x="16.43" y="8.65" width="27.61" height="13.45"/></g></g><g class="cls-28"><g class="cls-4"><rect class="cls-7" x="21.78" width="22.25" height="13.45"/></g></g></g></g></g></g></g></g></g></g></svg>