<svg xmlns="http://www.w3.org/2000/svg" xmlns:xlink="http://www.w3.org/1999/xlink" width="209.94" height="58.32" viewBox="0 0 209.94 58.32"><defs><style>.cls-1,.cls-2,.cls-3{fill:none;}.cls-2{clip-rule:evenodd;}.cls-3{fill-rule:evenodd;}.cls-4{opacity:0.8;}.cls-4,.cls-8{isolation:isolate;}.cls-5{clip-path:url(#clip-path);}.cls-6{clip-path:url(#clip-path-2);}.cls-7{clip-path:url(#clip-path-3);}.cls-9{clip-path:url(#clip-path-4);}.cls-10{clip-path:url(#clip-path-5);}.cls-11{fill:#4b4b4b;}.cls-12{clip-path:url(#clip-path-9);}.cls-13{clip-path:url(#clip-path-10);}.cls-14{clip-path:url(#clip-path-12);}.cls-15{clip-path:url(#clip-path-14);}.cls-16{clip-path:url(#clip-path-16);}.cls-17{clip-path:url(#clip-path-18);}.cls-18{clip-path:url(#clip-path-20);}</style><clipPath id="clip-path" transform="translate(0 -37.19)"><rect class="cls-1" x="5" y="42" width="200" height="49"/></clipPath><clipPath id="clip-path-2" transform="translate(0 -37.19)"><polyline class="cls-2" points="5 42.19 204.94 42.19 204.94 90.51 5 90.51"/></clipPath><clipPath id="clip-path-3" transform="translate(0 -37.19)"><rect class="cls-1" x="5" width="276" height="133"/></clipPath><clipPath id="clip-path-4" transform="translate(0 -37.19)"><rect class="cls-1" x="5" y="42" width="49" height="49"/></clipPath><clipPath id="clip-path-5" transform="translate(0 -37.19)"><path class="cls-2" d="M5,66.37A24,24,0,1,1,29,90.51,24,24,0,0,1,5,66.37M39.51,55.78a52.06,52.06,0,0,0-21,0,51.49,51.49,0,0,0,0,21.12,51.48,51.48,0,0,0,21,0,53.12,53.12,0,0,0,0-21.12"/></clipPath><clipPath id="clip-path-9" transform="translate(0 -37.19)"><rect class="cls-1" x="71" y="51" width="134" height="31"/></clipPath><clipPath id="clip-path-10" transform="translate(0 -37.19)"><path class="cls-2" d="M199.72,73.83V52.4h5.23V80.1h-8L186.4,57.47l-.35.1V80.08h-5.39V52.39h8.44L199.32,73.9l.4-.07"/></clipPath><clipPath id="clip-path-12" transform="translate(0 -37.19)"><path class="cls-2" d="M149.31,66.16c.13-1.05.21-2.54.5-4,1.32-6.6,5.64-10.25,12.36-10.42a18.81,18.81,0,0,1,4.07.36c4.93,1,7.74,4.2,9,8.89a19.52,19.52,0,0,1-.49,11.83,11.18,11.18,0,0,1-8.66,7.69,15.91,15.91,0,0,1-8.11-.26c-5-1.48-7.92-5.29-8.51-10.84-.1-.94-.12-1.89-.2-3.26m19.43-6.26a6.67,6.67,0,0,0-12.53.84,18.42,18.42,0,0,0,0,11.06,9.83,9.83,0,0,0,1.21,2.38,5.3,5.3,0,0,0,3.3,2.26c3.67.91,6.69-.48,8-4,.72-1.94,1.68-9.23,0-12.51"/></clipPath><clipPath id="clip-path-14" transform="translate(0 -37.19)"><path class="cls-2" d="M98.76,52.37h7l9.59,27.74h-5.82l-2-5.86H96.4l-2.1,5.87H88.79l10-27.75m3.55,5.69h-.39l-4,11.63H106l-3.74-11.64"/></clipPath><clipPath id="clip-path-16" transform="translate(0 -37.19)"><path class="cls-2" d="M71.41,52.27c4.3.12,8.45.09,12.58.41,3.14.24,5.68,1.79,6.65,5a9.2,9.2,0,0,1-1.94,9.44c-1.58,1.71-3.72,2.08-5.92,2.16-1.78.07-3.56,0-5.53,0V80.07H71.41ZM77.1,65.15a45.71,45.71,0,0,0,5.31-.5c1.75-.37,2.59-1.73,2.68-3.64s-.51-3.17-2-3.77c-2-.79-4-.43-6-.47Z"/></clipPath><clipPath id="clip-path-18" transform="translate(0 -37.19)"><path class="cls-2" d="M127.08,80.11h-5.68l-.18-9.19s-9-17.8-9.26-18.36h6.77l5.76,12.73,5.89-12.76h5.9l-9.21,18.56Z"/></clipPath><clipPath id="clip-path-20" transform="translate(0 -37.19)"><path class="cls-2" d="M136.55,69.65a13.16,13.16,0,0,1,0-5.78,15.1,15.1,0,0,1,5.74-.06,14,14,0,0,1,.05,5.84,12.68,12.68,0,0,1-5.77,0"/></clipPath></defs><title>lc3</title><g id="Слой_2" data-name="Слой 2"><g id="Слой_1-2" data-name="Слой 1"><g class="cls-4"><g class="cls-5"><g class="cls-6"><g class="cls-7"><g class="cls-8"><g class="cls-9"><g class="cls-10"><g class="cls-5"><rect class="cls-11" width="58.04" height="58.32"/></g></g></g></g></g></g><g class="cls-6"><g class="cls-7"><g class="cls-8"><g class="cls-12"><g class="cls-13"><g class="cls-5"><rect class="cls-11" x="175.66" y="10.2" width="34.28" height="37.71"/></g></g><g class="cls-14"><g class="cls-5"><rect class="cls-11" x="144.31" y="9.57" width="36.65" height="39.18"/></g></g><g class="cls-15"><g class="cls-5"><rect class="cls-11" x="83.79" y="10.18" width="36.57" height="37.75"/></g></g><g class="cls-16"><g class="cls-5"><rect class="cls-11" x="66.41" y="10.08" width="29.75" height="37.8"/></g></g><g class="cls-17"><g class="cls-5"><rect class="cls-11" x="106.96" y="10.34" width="34.31" height="37.58"/></g></g><g class="cls-18"><g class="cls-5"><rect class="cls-11" x="131.22" y="21.37" width="16.39" height="16.42"/></g></g></g></g></g></g></g></g></g></g></svg>