<svg xmlns="http://www.w3.org/2000/svg" xmlns:xlink="http://www.w3.org/1999/xlink" width="209.86" height="81.93" viewBox="0 0 209.86 81.93"><defs><style>.cls-1,.cls-2,.cls-3{fill:none;}.cls-2{clip-rule:evenodd;}.cls-3{fill-rule:evenodd;}.cls-4{opacity:0.8;}.cls-13,.cls-4{isolation:isolate;}.cls-5{clip-path:url(#clip-path);}.cls-6{clip-path:url(#clip-path-2);}.cls-7{clip-path:url(#clip-path-3);}.cls-8{fill:#4b4b4b;}.cls-9{clip-path:url(#clip-path-4);}.cls-10{clip-path:url(#clip-path-6);}.cls-11{clip-path:url(#clip-path-8);}.cls-12{clip-path:url(#clip-path-10);}.cls-14{clip-path:url(#clip-path-12);}.cls-15{clip-path:url(#clip-path-13);}.cls-16{clip-path:url(#clip-path-15);}.cls-17{clip-path:url(#clip-path-17);}.cls-18{clip-path:url(#clip-path-19);}.cls-19{clip-path:url(#clip-path-21);}.cls-20{clip-path:url(#clip-path-23);}.cls-21{clip-path:url(#clip-path-27);}.cls-22{clip-path:url(#clip-path-28);}.cls-23{clip-path:url(#clip-path-30);}.cls-24{clip-path:url(#clip-path-32);}.cls-25{clip-path:url(#clip-path-34);}.cls-26{clip-path:url(#clip-path-36);}.cls-27{clip-path:url(#clip-path-38);}.cls-28{clip-path:url(#clip-path-40);}.cls-29{clip-path:url(#clip-path-42);}.cls-30{clip-path:url(#clip-path-44);}.cls-31{clip-path:url(#clip-path-46);}.cls-32{clip-path:url(#clip-path-48);}.cls-33{clip-path:url(#clip-path-50);}.cls-34{clip-path:url(#clip-path-52);}.cls-35{clip-path:url(#clip-path-54);}.cls-36{clip-path:url(#clip-path-56);}.cls-37{clip-path:url(#clip-path-58);}.cls-38{clip-path:url(#clip-path-60);}.cls-39{clip-path:url(#clip-path-62);}.cls-40{clip-path:url(#clip-path-64);}</style><clipPath id="clip-path" transform="translate(0 -25.19)"><rect class="cls-1" x="5" y="30" width="200" height="73"/></clipPath><clipPath id="clip-path-2" transform="translate(0 -25.19)"><path class="cls-2" d="M40.86,44.6A27.52,27.52,0,0,1,35.31,35,.14.14,0,0,0,35,35c-.24,1.39-.65,5.7,1.7,13a12.2,12.2,0,0,0,4.12-3.47"/></clipPath><clipPath id="clip-path-3" transform="translate(0 -25.19)"><rect class="cls-1" x="5" width="276" height="133"/></clipPath><clipPath id="clip-path-4" transform="translate(0 -25.19)"><path class="cls-2" d="M45.53,30.29c-.68,10.82-4.67,14.27-4.67,14.27A12.34,12.34,0,0,0,45,48.07C49,41,46,31.71,45.8,30.31c0-.14-.26-.16-.27,0"/></clipPath><clipPath id="clip-path-6" transform="translate(0 -25.19)"><path class="cls-2" d="M40.86,35.64A1.82,1.82,0,1,0,39,33.82a1.82,1.82,0,0,0,1.82,1.82"/></clipPath><clipPath id="clip-path-8" transform="translate(0 -25.19)"><path class="cls-2" d="M41.07,87.71a27.51,27.51,0,0,1,5.55,9.59.14.14,0,0,0,.27,0c.24-1.39.65-5.7-1.7-13a12.2,12.2,0,0,0-4.12,3.47"/></clipPath><clipPath id="clip-path-10" transform="translate(0 -25.19)"><polyline class="cls-2" points="5 30.19 204.87 30.19 204.87 102.12 5 102.12"/></clipPath><clipPath id="clip-path-12" transform="translate(0 -25.19)"><rect class="cls-1" x="9" y="59" width="68" height="44"/></clipPath><clipPath id="clip-path-13" transform="translate(0 -25.19)"><path class="cls-2" d="M41.07,87.75a12.34,12.34,0,0,0-4.17-3.5c-3.95,7.06-1,16.36-.77,17.76,0,.14.26.16.27,0,.68-10.81,4.67-14.27,4.67-14.27"/></clipPath><clipPath id="clip-path-15" transform="translate(0 -25.19)"><path class="cls-2" d="M41.07,96.67a1.82,1.82,0,1,0,1.82,1.82,1.82,1.82,0,0,0-1.82-1.82"/></clipPath><clipPath id="clip-path-17" transform="translate(0 -25.19)"><path class="cls-2" d="M59.05,61.93a12.2,12.2,0,0,0,3.47,4.12,27.51,27.51,0,0,1,9.59-5.55.14.14,0,0,0,0-.27c-1.38-.24-5.7-.65-13,1.7"/></clipPath><clipPath id="clip-path-19" transform="translate(0 -25.19)"><path class="cls-2" d="M76.83,70.72C66,70,62.56,66.05,62.56,66.05a12.34,12.34,0,0,0-3.51,4.17c7.06,3.95,16.36,1,17.76.77.14,0,.16-.26,0-.27"/></clipPath><clipPath id="clip-path-21" transform="translate(0 -25.19)"><path class="cls-2" d="M71.48,66.05a1.82,1.82,0,1,0,1.82-1.82,1.82,1.82,0,0,0-1.82,1.82"/></clipPath><clipPath id="clip-path-23" transform="translate(0 -25.19)"><path class="cls-2" d="M22.88,70.38a12.21,12.21,0,0,0-3.46-4.12,27.51,27.51,0,0,1-9.59,5.55.14.14,0,0,0,0,.27c1.39.24,5.7.65,13-1.7"/></clipPath><clipPath id="clip-path-27" transform="translate(0 -25.19)"><rect class="cls-1" x="5" y="37" width="200" height="59"/></clipPath><clipPath id="clip-path-28" transform="translate(0 -25.19)"><path class="cls-2" d="M19.37,66.26a12.33,12.33,0,0,0,3.5-4.17c-7.06-3.95-16.36-1-17.76-.77-.14,0-.16.26,0,.27,10.82.68,14.27,4.67,14.27,4.67"/></clipPath><clipPath id="clip-path-30" transform="translate(0 -25.19)"><path class="cls-2" d="M10.45,66.26a1.82,1.82,0,1,0-1.82,1.82,1.82,1.82,0,0,0,1.82-1.82"/></clipPath><clipPath id="clip-path-32" transform="translate(0 -25.19)"><path class="cls-2" d="M56.13,50.84A27.54,27.54,0,0,1,59,40.13a.14.14,0,0,0-.2-.18c-1.15.81-4.49,3.57-8,10.42a12.22,12.22,0,0,0,5.37.46"/></clipPath><clipPath id="clip-path-34" transform="translate(0 -25.19)"><path class="cls-2" d="M56.16,50.81a12.34,12.34,0,0,0,.47,5.43c7.78-2.2,12.29-10.85,13.1-12,.08-.12-.07-.3-.18-.2-8.13,7.17-13.39,6.79-13.39,6.79"/></clipPath><clipPath id="clip-path-36" transform="translate(0 -25.19)"><path class="cls-2" d="M65,44.51a1.82,1.82,0,1,0-2.58,0,1.82,1.82,0,0,0,2.58,0"/></clipPath><clipPath id="clip-path-38" transform="translate(0 -25.19)"><path class="cls-2" d="M25.8,81.47a27.52,27.52,0,0,1-2.86,10.71.14.14,0,0,0,.2.18c1.15-.81,4.49-3.57,8-10.42a12.21,12.21,0,0,0-5.36-.46"/></clipPath><clipPath id="clip-path-40" transform="translate(0 -25.19)"><path class="cls-2" d="M25.77,81.5a12.35,12.35,0,0,0-.47-5.43c-7.78,2.2-12.29,10.85-13.1,12-.08.12.07.3.18.2,8.13-7.17,13.39-6.79,13.39-6.79"/></clipPath><clipPath id="clip-path-42" transform="translate(0 -25.19)"><path class="cls-2" d="M16.88,87.81a1.82,1.82,0,1,0,2.58,0,1.82,1.82,0,0,0-2.58,0"/></clipPath><clipPath id="clip-path-44" transform="translate(0 -25.19)"><path class="cls-2" d="M56.74,76a12.21,12.21,0,0,0-.46,5.36A27.52,27.52,0,0,1,67,84.18a.14.14,0,0,0,.18-.2c-.81-1.15-3.57-4.49-10.42-8"/></clipPath><clipPath id="clip-path-46" transform="translate(0 -25.19)"><path class="cls-2" d="M56.31,81.35a12.35,12.35,0,0,0-5.43.47c2.2,7.78,10.85,12.29,12,13.1.12.08.3-.07.2-.18-7.17-8.13-6.79-13.39-6.79-13.39"/></clipPath><clipPath id="clip-path-48" transform="translate(0 -25.19)"><path class="cls-2" d="M62.62,87.66a1.82,1.82,0,1,0,2.58,0,1.82,1.82,0,0,0-2.58,0"/></clipPath><clipPath id="clip-path-50" transform="translate(0 -25.19)"><path class="cls-2" d="M25.19,56.35A12.2,12.2,0,0,0,25.65,51a27.51,27.51,0,0,1-10.71-2.86.14.14,0,0,0-.18.2c.81,1.15,3.57,4.49,10.42,8"/></clipPath><clipPath id="clip-path-52" transform="translate(0 -25.19)"><path class="cls-2" d="M25.62,51A12.35,12.35,0,0,0,31,50.49c-2.2-7.78-10.85-12.29-12-13.1-.12-.08-.3.07-.2.18C26,45.69,25.62,51,25.62,51"/></clipPath><clipPath id="clip-path-54" transform="translate(0 -25.19)"><path class="cls-2" d="M19.31,44.65a1.82,1.82,0,1,0-2.58,0,1.82,1.82,0,0,0,2.58,0"/></clipPath><clipPath id="clip-path-56" transform="translate(0 -25.19)"><path class="cls-2" d="M101.74,73.38a3.55,3.55,0,0,0-1.47-3,14.17,14.17,0,0,0-5.14-1.86,24.25,24.25,0,0,1-5.81-1.88A8.27,8.27,0,0,1,86.13,64a6.24,6.24,0,0,1-1-3.6A7.32,7.32,0,0,1,88,54.53a11.45,11.45,0,0,1,7.5-2.4,11.78,11.78,0,0,1,7.78,2.48,7.87,7.87,0,0,1,3,6.34h-4.85a4.35,4.35,0,0,0-1.68-3.41,6.3,6.3,0,0,0-4.24-1.44,6.59,6.59,0,0,0-4.12,1.15,3.61,3.61,0,0,0-1.49,3,2.92,2.92,0,0,0,1.38,2.63,17,17,0,0,0,5,1.69,26,26,0,0,1,5.85,1.93,8.55,8.55,0,0,1,3.32,2.7A6.65,6.65,0,0,1,106.56,73a7.22,7.22,0,0,1-3,6.06,12.69,12.69,0,0,1-7.85,2.28,14.2,14.2,0,0,1-6-1.2,9.76,9.76,0,0,1-4.08-3.35,8.08,8.08,0,0,1-1.47-4.65H89A5,5,0,0,0,90.91,76a7.53,7.53,0,0,0,4.79,1.42,7.77,7.77,0,0,0,4.39-1.11,3.41,3.41,0,0,0,1.66-3"/></clipPath><clipPath id="clip-path-58" transform="translate(0 -25.19)"><path class="cls-2" d="M130.27,80.87a10.09,10.09,0,0,1-.68-3,10.76,10.76,0,0,1-8,3.49A10,10,0,0,1,114.71,79,7.63,7.63,0,0,1,112,73a8,8,0,0,1,3.35-6.84,13.56,13.56,0,0,1,6.56-2.29,30.74,30.74,0,0,0,6.25-1.27l1.31-.44v-.66a5.43,5.43,0,0,0-1.51-4,6.08,6.08,0,0,0-4.46-1.5,7,7,0,0,0-4.33,1.3,3.84,3.84,0,0,0-1.75,3.16h-4.85a6.65,6.65,0,0,1,1.5-4.08,10.23,10.23,0,0,1,4.07-3.12,13.7,13.7,0,0,1,5.65-1.15q4.88,0,7.64,2.44a8.8,8.8,0,0,1,2.87,6.72v13a15.86,15.86,0,0,0,1,6.18v.42Zm-8-3.68a8.47,8.47,0,0,0,4.3-1.17A7.1,7.1,0,0,0,129.51,73V65.69a46.53,46.53,0,0,1-6.44,1.62q-6.21.71-6.21,5.05a4.39,4.39,0,0,0,1.51,3.55A5.81,5.81,0,0,0,122.26,77.19Z"/></clipPath><clipPath id="clip-path-60" transform="translate(0 -25.19)"><rect class="cls-1" x="142.31" y="40.81" width="4.82" height="40.05"/></clipPath><clipPath id="clip-path-62" transform="translate(0 -25.19)"><path class="cls-2" d="M171.28,73.38a3.55,3.55,0,0,0-1.47-3,14.18,14.18,0,0,0-5.14-1.86,24.25,24.25,0,0,1-5.81-1.88A8.26,8.26,0,0,1,155.68,64a6.23,6.23,0,0,1-1-3.6,7.32,7.32,0,0,1,2.93-5.87,11.45,11.45,0,0,1,7.5-2.4,11.79,11.79,0,0,1,7.78,2.48,7.87,7.87,0,0,1,3,6.34H171a4.35,4.35,0,0,0-1.68-3.41,6.3,6.3,0,0,0-4.24-1.44A6.59,6.59,0,0,0,161,57.24a3.61,3.61,0,0,0-1.49,3,2.93,2.93,0,0,0,1.38,2.63,17,17,0,0,0,5,1.69,26,26,0,0,1,5.85,1.93A8.55,8.55,0,0,1,175,69.2,6.64,6.64,0,0,1,176.11,73a7.22,7.22,0,0,1-3,6.06,12.69,12.69,0,0,1-7.85,2.28,14.21,14.21,0,0,1-6-1.2,9.76,9.76,0,0,1-4.08-3.35,8.08,8.08,0,0,1-1.47-4.65h4.82A5,5,0,0,0,160.45,76a7.53,7.53,0,0,0,4.79,1.42,7.77,7.77,0,0,0,4.39-1.11,3.4,3.4,0,0,0,1.66-3"/></clipPath><clipPath id="clip-path-64" transform="translate(0 -25.19)"><path class="cls-2" d="M199.81,80.87a10.09,10.09,0,0,1-.68-3,10.76,10.76,0,0,1-8,3.49A10,10,0,0,1,184.25,79a7.63,7.63,0,0,1-2.67-6,8,8,0,0,1,3.35-6.84,13.57,13.57,0,0,1,6.56-2.29,30.74,30.74,0,0,0,6.25-1.27l1.31-.44v-.66a5.42,5.42,0,0,0-1.51-4,6.08,6.08,0,0,0-4.46-1.5,7,7,0,0,0-4.33,1.3A3.84,3.84,0,0,0,187,60.48h-4.85a6.66,6.66,0,0,1,1.5-4.08,10.24,10.24,0,0,1,4.07-3.12,13.7,13.7,0,0,1,5.64-1.15q4.88,0,7.64,2.44a8.8,8.8,0,0,1,2.87,6.72v13a15.88,15.88,0,0,0,1,6.18v.42Zm-8-3.68A8.47,8.47,0,0,0,196.1,76,7.1,7.1,0,0,0,199.05,73V65.62l-.23.44a21.88,21.88,0,0,1-6.21,1.25q-6.21.71-6.21,5.05a4.39,4.39,0,0,0,1.51,3.55A5.81,5.81,0,0,0,191.8,77.19Z"/></clipPath></defs><title>lc4</title><g id="Слой_2" data-name="Слой 2"><g id="Слой_1-2" data-name="Слой 1"><g class="cls-4"><g class="cls-5"><g class="cls-6"><g class="cls-7"><rect class="cls-8" x="29.85" y="4.72" width="16.01" height="23.16"/></g></g><g class="cls-9"><g class="cls-7"><rect class="cls-8" x="35.86" width="16.21" height="27.88"/></g></g><g class="cls-10"><g class="cls-7"><rect class="cls-8" x="34.04" y="1.81" width="13.64" height="13.64"/></g></g><g class="cls-11"><g class="cls-7"><rect class="cls-8" x="36.07" y="54.05" width="16.01" height="23.16"/></g></g><g class="cls-12"><g class="cls-7"><g class="cls-13"><g class="cls-14"><g class="cls-15"><g class="cls-5"><rect class="cls-8" x="29.85" y="54.05" width="16.21" height="27.88"/></g></g><g class="cls-16"><g class="cls-5"><rect class="cls-8" x="34.25" y="66.48" width="13.64" height="13.64"/></g></g><g class="cls-17"><g class="cls-5"><rect class="cls-8" x="54.05" y="29.85" width="23.16" height="16.01"/></g></g><g class="cls-18"><g class="cls-5"><rect class="cls-8" x="54.05" y="35.86" width="27.88" height="16.21"/></g></g><g class="cls-19"><g class="cls-5"><rect class="cls-8" x="66.48" y="34.04" width="13.64" height="13.64"/></g></g><g class="cls-20"><g class="cls-5"><rect class="cls-8" x="4.72" y="36.07" width="23.16" height="16.01"/></g></g></g></g></g></g><g class="cls-12"><g class="cls-7"><g class="cls-13"><g class="cls-21"><g class="cls-22"><g class="cls-5"><rect class="cls-8" y="29.85" width="27.88" height="16.21"/></g></g><g class="cls-23"><g class="cls-5"><rect class="cls-8" x="1.81" y="34.25" width="13.64" height="13.64"/></g></g><g class="cls-24"><g class="cls-5"><rect class="cls-8" x="45.77" y="9.74" width="18.24" height="21.01"/></g></g><g class="cls-25"><g class="cls-5"><rect class="cls-8" x="51.07" y="13.81" width="23.69" height="22.24"/></g></g><g class="cls-26"><g class="cls-5"><rect class="cls-8" x="56.94" y="11.2" width="13.64" height="13.64"/></g></g><g class="cls-27"><g class="cls-5"><rect class="cls-8" x="17.92" y="51.19" width="18.24" height="21.01"/></g></g><g class="cls-28"><g class="cls-5"><rect class="cls-8" x="7.17" y="45.88" width="23.69" height="22.24"/></g></g><g class="cls-29"><g class="cls-5"><rect class="cls-8" x="11.35" y="57.08" width="13.64" height="13.64"/></g></g><g class="cls-30"><g class="cls-5"><rect class="cls-8" x="51.19" y="45.77" width="21.01" height="18.24"/></g></g><g class="cls-31"><g class="cls-5"><rect class="cls-8" x="45.88" y="51.07" width="22.24" height="23.69"/></g></g><g class="cls-32"><g class="cls-5"><rect class="cls-8" x="57.08" y="56.94" width="13.64" height="13.64"/></g></g><g class="cls-33"><g class="cls-5"><rect class="cls-8" x="9.74" y="17.92" width="21" height="18.24"/></g></g><g class="cls-34"><g class="cls-5"><rect class="cls-8" x="13.81" y="7.17" width="22.24" height="23.69"/></g></g><g class="cls-35"><g class="cls-5"><rect class="cls-8" x="11.2" y="11.35" width="13.64" height="13.64"/></g></g><g class="cls-36"><g class="cls-5"><rect class="cls-8" x="79.14" y="21.94" width="32.42" height="39.26"/></g></g><g class="cls-37"><g class="cls-5"><rect class="cls-8" x="107.04" y="21.94" width="33.28" height="39.26"/></g></g><g class="cls-38"><g class="cls-5"><rect class="cls-8" x="137.31" y="10.62" width="14.82" height="50.05"/></g></g><g class="cls-39"><g class="cls-5"><rect class="cls-8" x="148.68" y="21.94" width="32.42" height="39.26"/></g></g><g class="cls-40"><g class="cls-5"><rect class="cls-8" x="176.58" y="21.94" width="33.28" height="39.26"/></g></g></g></g></g></g></g></g></g></g></svg>