<svg xmlns="http://www.w3.org/2000/svg" xmlns:xlink="http://www.w3.org/1999/xlink" width="209.99" height="47.72" viewBox="0 0 209.99 47.72"><defs><style>.cls-1,.cls-2,.cls-3{fill:none;}.cls-2{clip-rule:evenodd;}.cls-3{fill-rule:evenodd;}.cls-4{opacity:0.8;}.cls-14,.cls-4{isolation:isolate;}.cls-5{clip-path:url(#clip-path);}.cls-6{clip-path:url(#clip-path-2);}.cls-7{clip-path:url(#clip-path-3);}.cls-8{fill:#4b4b4b;}.cls-9{clip-path:url(#clip-path-4);}.cls-10{clip-path:url(#clip-path-6);}.cls-11{clip-path:url(#clip-path-8);}.cls-12{clip-path:url(#clip-path-10);}.cls-13{clip-path:url(#clip-path-12);}.cls-15{clip-path:url(#clip-path-14);}.cls-16{clip-path:url(#clip-path-15);}.cls-17{clip-path:url(#clip-path-17);}.cls-18{clip-path:url(#clip-path-21);}.cls-19{clip-path:url(#clip-path-22);}.cls-20{clip-path:url(#clip-path-24);}.cls-21{clip-path:url(#clip-path-26);}</style><clipPath id="clip-path" transform="translate(0 -43.07)"><rect class="cls-1" x="5" y="48" width="200" height="38"/></clipPath><clipPath id="clip-path-2" transform="translate(0 -43.07)"><polygon class="cls-2" points="156.08 60.54 161.68 66.13 199.78 66.13 204.99 60.54 156.08 60.54"/></clipPath><clipPath id="clip-path-3" transform="translate(0 -43.07)"><rect class="cls-1" x="5" width="276" height="133"/></clipPath><clipPath id="clip-path-4" transform="translate(0 -43.07)"><polygon class="cls-2" points="163.42 69.15 169.02 74.74 192.44 74.74 197.65 69.15 163.42 69.15"/></clipPath><clipPath id="clip-path-6" transform="translate(0 -43.07)"><polygon class="cls-2" points="180.04 48.07 162.98 84.82 170.4 84.82 180.04 63.85 190.19 84.82 197.9 84.82 180.04 48.07"/></clipPath><clipPath id="clip-path-8" transform="translate(0 -43.07)"><path class="cls-2" d="M153.16,85H147.3c0-2.41,0-4.68,0-6.95s0-4.4,0-6.59c.36-4.47-2.3-5.43-7.89-4.69V84.87h-5.84V50.93h5.72V61.49c2.77,0,5.17-.19,7.53,0,3.55.36,6.1,2.54,6.27,5.9.28,5.74.08,11.5.08,17.59"/></clipPath><clipPath id="clip-path-10" transform="translate(0 -43.07)"><path class="cls-2" d="M49.26,62h5.92l5.36,17.78.69.11L66.62,62H72.5L64.19,84.73H57.63L49.26,62"/></clipPath><clipPath id="clip-path-12" transform="translate(0 -43.07)"><polyline class="cls-2" points="5 48.07 204.99 48.07 204.99 85.78 5 85.78"/></clipPath><clipPath id="clip-path-14" transform="translate(0 -43.07)"><rect class="cls-1" x="26" y="51" width="65" height="35"/></clipPath><clipPath id="clip-path-15" transform="translate(0 -43.07)"><path class="cls-2" d="M90.75,62.87l-1.68,3.45c-3.11-.7-6.26-1.14-7.93,2.22a10,10,0,0,0,.24,10c1.73,2.88,4.52,2.81,7.58,1.65l1.74,3.76c-6.57,4.08-14.35,1.23-16.09-6a20,20,0,0,1,0-8.87c1.68-7.25,9.17-10.08,16.16-6.16"/></clipPath><clipPath id="clip-path-17" transform="translate(0 -43.07)"><path class="cls-2" d="M41.55,61.91V51.45h5V83.84A17.1,17.1,0,0,1,33,84.47c-4.63-1.78-6.66-6.61-6-13.54a9.79,9.79,0,0,1,7.89-9C36.92,61.63,39,61.91,41.55,61.91Zm-.2,4.29c-4.21-1.2-6.47-.62-7.95,2a10.7,10.7,0,0,0-.37,10c1.51,3.37,5.07,4.18,8.32,2.09Z"/></clipPath><clipPath id="clip-path-21" transform="translate(0 -43.07)"><rect class="cls-1" x="5" y="61" width="127" height="25"/></clipPath><clipPath id="clip-path-22" transform="translate(0 -43.07)"><path class="cls-2" d="M23.86,83.87c-5,1.86-9.68,2.33-14.45.63A6.36,6.36,0,0,1,5,78.42a5.93,5.93,0,0,1,4.15-6.16,50.8,50.8,0,0,1,6-1.49c1.2-.26,2.42-.4,3.54-.58.38-3.68-.94-5.2-4.35-5.29a16.26,16.26,0,0,0-3.07.41c-1,.17-2,.4-3.41.68L6.78,63.53c.51-.47.72-.8,1-.91A20.33,20.33,0,0,1,19.05,62a5.58,5.58,0,0,1,4.76,5.62c.15,5.3,0,10.61,0,16.28m-5-2.12V73.27a64.58,64.58,0,0,0-6.41,1.27A3.34,3.34,0,0,0,10,78.25a3.58,3.58,0,0,0,3.27,3.45,44.13,44.13,0,0,0,5.6,0"/></clipPath><clipPath id="clip-path-24" transform="translate(0 -43.07)"><path class="cls-2" d="M111.36,83.87c-5,1.86-9.68,2.33-14.45.63a6.36,6.36,0,0,1-4.4-6.08,5.93,5.93,0,0,1,4.15-6.16,50.8,50.8,0,0,1,6-1.49c1.2-.26,2.42-.4,3.54-.58.38-3.68-.94-5.2-4.35-5.29a16.26,16.26,0,0,0-3.07.41c-1,.17-2,.4-3.41.68l-1.09-2.44c.51-.47.72-.8,1-.91A20.33,20.33,0,0,1,106.56,62a5.58,5.58,0,0,1,4.76,5.62c.15,5.3,0,10.61,0,16.28m-5-2.12V73.27A64.57,64.57,0,0,0,100,74.54a3.34,3.34,0,0,0-2.46,3.71,3.58,3.58,0,0,0,3.27,3.45,44.13,44.13,0,0,0,5.6,0"/></clipPath><clipPath id="clip-path-26" transform="translate(0 -43.07)"><path class="cls-2" d="M131.63,78.09A6.78,6.78,0,0,1,131,81a6.93,6.93,0,0,1-1.86,2.38,9.12,9.12,0,0,1-2.94,1.6,12.27,12.27,0,0,1-3.94.58,19.72,19.72,0,0,1-4.05-.42,17,17,0,0,1-3.75-1.24l1.22-4.43a18.09,18.09,0,0,0,2.91,1,13.21,13.21,0,0,0,3.5.44,5.21,5.21,0,0,0,2.54-.55,1.89,1.89,0,0,0,1-1.79,2.1,2.1,0,0,0-.86-1.61,11,11,0,0,0-3.15-1.54,14.13,14.13,0,0,1-5.26-3,5.89,5.89,0,0,1-1.66-4.31A6.24,6.24,0,0,1,117,62.91a10.32,10.32,0,0,1,6.46-1.81,17.76,17.76,0,0,1,4,.44,13.24,13.24,0,0,1,3.24,1.15l-1,4.36a15.16,15.16,0,0,0-2.82-1,13.25,13.25,0,0,0-3.15-.37,4.62,4.62,0,0,0-2.19.44,1.57,1.57,0,0,0-.83,1.51,2.21,2.21,0,0,0,.15.85,1.79,1.79,0,0,0,.53.67,5,5,0,0,0,1.09.64q.7.32,1.77.74,1.55.6,2.91,1.28a10.5,10.5,0,0,1,2.36,1.56,6.79,6.79,0,0,1,1.56,2,5.86,5.86,0,0,1,.57,2.66"/></clipPath></defs><title>lc5</title><g id="Слой_2" data-name="Слой 2"><g id="Слой_1-2" data-name="Слой 1"><g class="cls-4"><g class="cls-5"><g class="cls-6"><g class="cls-7"><rect class="cls-8" x="151.08" y="12.47" width="58.91" height="15.6"/></g></g><g class="cls-9"><g class="cls-7"><rect class="cls-8" x="158.42" y="21.08" width="44.23" height="15.6"/></g></g><g class="cls-10"><g class="cls-7"><rect class="cls-8" x="157.98" width="44.92" height="46.75"/></g></g><g class="cls-11"><g class="cls-7"><rect class="cls-8" x="128.56" y="2.87" width="29.67" height="44.09"/></g></g><g class="cls-12"><g class="cls-7"><rect class="cls-8" x="44.26" y="13.89" width="33.24" height="32.78"/></g></g><g class="cls-13"><g class="cls-7"><g class="cls-14"><g class="cls-15"><g class="cls-16"><g class="cls-5"><rect class="cls-8" x="69.1" y="13.03" width="26.65" height="34.68"/></g></g><g class="cls-17"><g class="cls-5"><rect class="cls-8" x="21.9" y="3.38" width="29.63" height="44.13"/></g></g></g></g></g></g><g class="cls-13"><g class="cls-7"><g class="cls-14"><g class="cls-18"><g class="cls-19"><g class="cls-5"><rect class="cls-8" y="13.42" width="28.9" height="34.06"/></g></g><g class="cls-20"><g class="cls-5"><rect class="cls-8" x="87.51" y="13.42" width="28.9" height="34.06"/></g></g><g class="cls-21"><g class="cls-5"><rect class="cls-8" x="109.44" y="13.03" width="27.19" height="34.48"/></g></g></g></g></g></g></g></g></g></g></svg>