<svg xmlns="http://www.w3.org/2000/svg" viewBox="0 0 162 42"><defs><style>.cls-1{fill:#000a8b}.cls-2{fill:#ff671b}.cls-3{fill:#f63}</style></defs><title>Artboard 32_SVG</title><g id="Desktop_Landing"><g id="Logo"><ellipse class="cls-1" cx="3.92" cy="4.45" rx="2.44" ry="2.47"/><ellipse class="cls-1" cx="23.36" cy="14.28" rx="2.44" ry="2.47"/><ellipse class="cls-1" cx="23.36" cy="24.11" rx="2.44" ry="2.47"/><ellipse class="cls-1" cx="13.64" cy="24.11" rx="2.44" ry="2.47"/><path class="cls-2" d="M5.94 26.15a2.91 2.91 0 0 0 0-4.08 4.09 4.09 0 0 1 0-5.74 4 4 0 0 1 5.68 0 2.83 2.83 0 0 0 4 0 2.91 2.91 0 0 0 0-4.08 4.09 4.09 0 0 1 0-5.74 4 4 0 0 1 5.68 0 2.83 2.83 0 0 0 4 0 4 4 0 0 1 5.68 0 2.83 2.83 0 0 0 4 0 2.91 2.91 0 0 0 0-4.08 2.83 2.83 0 0 0-4 0 4 4 0 0 1-2.77 1.17 4 4 0 0 1-2.84-1.19 2.83 2.83 0 0 0-4 0A4 4 0 0 1 18.5 3.6a4 4 0 0 1-2.84-1.19 2.83 2.83 0 0 0-4 0 2.91 2.91 0 0 0 0 4.08 4.09 4.09 0 0 1 0 5.74 4 4 0 0 1-5.68 0 2.83 2.83 0 0 0-4 0 2.91 2.91 0 0 0 0 4.08 4.07 4.07 0 0 1 1.18 2.87 4.07 4.07 0 0 1-1.26 2.89 2.91 2.91 0 0 0 0 4.08 2.83 2.83 0 0 0 4 0z"/><ellipse class="cls-1" cx="33.07" cy="14.28" rx="2.44" ry="2.47"/><path class="cls-2" d="M35.09 22.07a2.83 2.83 0 0 0-4 0 2.91 2.91 0 0 0 0 4.08 2.83 2.83 0 0 0 4 0 2.91 2.91 0 0 0 0-4.08z"/><path class="cls-1" d="M145.17 2a4 4 0 0 0-3.89 4v.3h7.17a.53.53 0 0 1 .52.53V26a.53.53 0 0 0 .52.53h3.22a.53.53 0 0 0 .52-.53V6.3h7.17a.53.53 0 0 0 .52-.53V2.51a.53.53 0 0 0-.52-.53zm-38.23 0a4 4 0 0 0-3.74 2.72l-7.06 21.85h4.49l2.47-7.66h3.65a.53.53 0 0 0 .5-.69l-1-3.26a.52.52 0 0 0-.5-.37h-1.22L106.94 7l3.79 11.9 1.38 4.32 1.07 3.35h4.48L109.82 2zM67.4 19L57 2h-.69a4 4 0 0 0-4 4v20.57h4.27v-17l10.42 17h4.64V2H67.4zM42.79 6v20.57h4.27V2h-.32a4 4 0 0 0-3.95 4zm50.88 9.63a4.36 4.36 0 0 0-1.13-1.16 7.44 7.44 0 0 0-1.43-.78 22 22 0 0 0-3-1q-1.61-.45-3.81-1a7.06 7.06 0 0 1-2.7-1.13 2.08 2.08 0 0 1-.84-1.68q0-2.81 4.05-2.81a5.26 5.26 0 0 1 3.3.87 3 3 0 0 1 .68.79 3.94 3.94 0 0 0 3.35 1.88H94a8.1 8.1 0 0 0-.72-3.11 6.84 6.84 0 0 0-1.84-2.4 8.47 8.47 0 0 0-2.83-1.53A11.91 11.91 0 0 0 84.87 2a11.35 11.35 0 0 0-3.69.54A7.9 7.9 0 0 0 78.55 4 5.72 5.72 0 0 0 77 6.15a6.94 6.94 0 0 0-.52 2.67 7.13 7.13 0 0 0 .52 3.1A5.26 5.26 0 0 0 78.86 14 11.24 11.24 0 0 0 82 15.41q1.91.57 4.52 1.13a10.31 10.31 0 0 1 1.79.54 3.59 3.59 0 0 1 1.08.68 2 2 0 0 1 .53.85 3.65 3.65 0 0 1 .14 1 2.63 2.63 0 0 1-1.17 2.26 5.89 5.89 0 0 1-3.43.83 5.72 5.72 0 0 1-3.49-1 3.37 3.37 0 0 1-1.42-2.79h-4.6a7.19 7.19 0 0 0 2.64 5.76 11.06 11.06 0 0 0 6.31 1.91h2a11.39 11.39 0 0 0 2.46-.44 8.51 8.51 0 0 0 2.75-1.35A6.6 6.6 0 0 0 94 22.61a6.17 6.17 0 0 0 .69-3 8.8 8.8 0 0 0-.27-2.36 5.89 5.89 0 0 0-.75-1.62zm42.39 1.17A8.47 8.47 0 0 0 130.61 2H125a4 4 0 0 0-4 4v20a.53.53 0 0 0 .52.53h3.22a.53.53 0 0 0 .52-.53V6.3h5.12a4.22 4.22 0 0 1 4.24 3.87 4.13 4.13 0 0 1-4.09 4.43h-2a.53.53 0 0 0-.52.53v3.26a.53.53 0 0 0 .52.53h2a8.28 8.28 0 0 0 1.66-.17l2.51 7.47a.52.52 0 0 0 .49.36h3.4a.53.53 0 0 0 .49-.7z"/><path class="cls-3" d="M1.86 40.33V35h3.9v.85h-3v1.45h2.67v.85H2.79v2.16zm6.47 0V35h.92v5.3zm3.82 0V35H13l2.81 3.67V35h.91v5.3h-.77l-2.89-3.77v3.77zm8.7 0v-4.44h-1.66V35h4.25v.86h-1.66v4.44zm5.07 0V35h3.88v.83h-3v1.38h2.63v.83h-2.59v1.42h3v.83zm8.95.09a2.54 2.54 0 0 1-1.9-.79 2.87 2.87 0 0 1 0-3.9 2.57 2.57 0 0 1 1.94-.79 2.83 2.83 0 0 1 1.16.21 3.16 3.16 0 0 1 .9.61l-.59.69a2.14 2.14 0 0 0-1.47-.66 1.59 1.59 0 0 0-1.24.55 2.07 2.07 0 0 0 0 2.68 1.59 1.59 0 0 0 1.24.55 1.77 1.77 0 0 0 .79-.17 3 3 0 0 0 .71-.52l.59.61a3.17 3.17 0 0 1-.94.71 2.76 2.76 0 0 1-1.19.22zm4.59-.09V35h.92v2.2h2.5V35h.92v5.3h-.92v-2.21h-2.5v2.23zm14.54.1l-.7-.72a2.31 2.31 0 0 1-1.61.69 1.8 1.8 0 0 1-1.19-.4 1.4 1.4 0 0 1-.5-1.13 1.58 1.58 0 0 1 1.12-1.48 1.83 1.83 0 0 1-.43-1.12 1.25 1.25 0 0 1 .41-.94 1.53 1.53 0 0 1 1.09-.39 1.4 1.4 0 0 1 1 .37 1.23 1.23 0 0 1 .39.92q0 .94-1.15 1.38l.9.92a8.22 8.22 0 0 0 .56-1l.7.37a8.48 8.48 0 0 1-.71 1.21l.82.85zm-2.21-.8a1.42 1.42 0 0 0 1-.46L51.64 38a1 1 0 0 0-.7.89.71.71 0 0 0 .25.55.91.91 0 0 0 .63.19zm.21-2.52a1.71 1.71 0 0 0 .62-.35.66.66 0 0 0 .2-.49.57.57 0 0 0-.6-.6.59.59 0 0 0-.45.18.65.65 0 0 0-.17.47 1.26 1.26 0 0 0 .4.79zm10 3.29a2 2 0 0 1-1.68-.86l.61-.63a1.36 1.36 0 0 0 1.06.62.76.76 0 0 0 .61-.26 1.16 1.16 0 0 0 .22-.78V35h.94v3.5a1.92 1.92 0 0 1-.49 1.41 1.71 1.71 0 0 1-1.27.49zm3.9-.07L68.21 35h.85l2.31 5.34h-1L69.86 39h-2.48l-.54 1.28zm1.82-2.11h1.8l-.91-2.12zm7.02 2.14L72.56 35h1l1.58 4.08 1.6-4.08h1l-2.18 5.34zm4.19-.03L81.24 35h.85l2.31 5.34h-1L82.89 39h-2.47l-.54 1.28zm1.82-2.11h1.8l-.91-2.12zm9.79 2.11V35h3.89v.83h-3v1.38h2.63v.83h-2.6v1.42h3v.83zm6.52 0V35h.85l2.81 3.67V35h.91v5.3h-.77L98 36.56v3.77zm9.94.09a2.62 2.62 0 0 1-2-.78 2.89 2.89 0 0 1 0-3.9 2.57 2.57 0 0 1 1.94-.8 3.16 3.16 0 0 1 1.12.18 3.08 3.08 0 0 1 .89.54l-.58.7a2.45 2.45 0 0 0-.66-.43 2.07 2.07 0 0 0-.81-.14 1.56 1.56 0 0 0-1.21.55 2.09 2.09 0 0 0 0 2.69 1.68 1.68 0 0 0 1.29.53 2 2 0 0 0 1.27-.4v-1h-1.34v-.81h2.23v2.23a3.24 3.24 0 0 1-2.14.84zm4.9-.09V35h.92v5.3zm3.82 0V35h.85l2.81 3.67V35h.91v5.3h-.77l-2.89-3.77v3.77zm7.41 0V35H127v.83h-3v1.38h2.63v.83H124v1.42h3v.83zm6.52 0V35h3.89v.83h-3v1.38h2.63v.83h-2.63v1.42h3v.83zm6.51 0V35h2.34a2.08 2.08 0 0 1 1.43.46 1.73 1.73 0 0 1 .18 2.26 1.8 1.8 0 0 1-.91.57l1.42 2h-1.09l-1.3-1.85h-1.14v1.85zm.92-2.67h1.35a1.19 1.19 0 0 0 .79-.24.81.81 0 0 0 .29-.66.78.78 0 0 0-.29-.65 1.25 1.25 0 0 0-.8-.23h-1.34zm6.05 2.67V35h.92v5.3zm3.82 0V35h.85l2.81 3.67V35h.91v5.3h-.77l-2.89-3.77v3.77zm9.9.09a2.62 2.62 0 0 1-2-.78 2.89 2.89 0 0 1 0-3.9 2.57 2.57 0 0 1 1.94-.8 3.16 3.16 0 0 1 1.12.18 3.08 3.08 0 0 1 .89.54l-.58.7a2.45 2.45 0 0 0-.66-.43 2.07 2.07 0 0 0-.81-.14 1.56 1.56 0 0 0-1.21.55 2.09 2.09 0 0 0 0 2.69 1.68 1.68 0 0 0 1.29.53 2 2 0 0 0 1.27-.4v-1h-1.34v-.81H159v2.23a3.24 3.24 0 0 1-2.15.84z"/></g></g></svg>