<svg xmlns="http://www.w3.org/2000/svg" viewBox="0 0 22 22"><defs><style>.cls-1{fill:#000a8b}.cls-2{fill:#ff671b}</style></defs><title>Artboard 33_SVG</title><g id="Desktop_Landing"><g id="Logo"><circle class="cls-1" cx="4.7" cy="4.7" r="3.16"/><path class="cls-2" d="M20.26 19.5a3.6 3.6 0 0 0 .63-1.34v-.4a3.65 3.65 0 0 0 0-.47v-.13a3.7 3.7 0 0 0-.66-2A7.31 7.31 0 0 1 18.75 11a6.16 6.16 0 0 1 1.33-3.85c.08-.09.16-.18.22-.27a3.7 3.7 0 0 0-3-5.88 3.71 3.71 0 0 0-3.7 3.7 3.69 3.69 0 0 0 .81 2.3v.05A6.19 6.19 0 0 1 15.84 11a4.79 4.79 0 0 1-1.19 3.64 4.81 4.81 0 0 1-3.65 1.2 6.19 6.19 0 0 1-3.94-1.4L7 14.4a3.7 3.7 0 0 0-4.92.28A3.69 3.69 0 0 0 4.7 21a3.7 3.7 0 0 0 2.18-.7l.27-.22A6.16 6.16 0 0 1 11 18.74a7.31 7.31 0 0 1 4.13 1.55 3.71 3.71 0 0 0 4.76-.39 3.82 3.82 0 0 0 .37-.4z"/></g></g></svg>