<svg xmlns="http://www.w3.org/2000/svg" width="200" height="31" viewBox="0 0 200 31"><g id="a217f24a-59b1-4f52-8837-2a12f9045b34" data-name="Слой 2"><g id="2fd484c0-92cf-4baf-a7ed-0503e3e0698a" data-name="Слой 1"><g id="a8bda2df-792e-4c71-aaad-79721ddec71e" data-name="CLIENTS-BANNERS"><g id="2d856640-2a76-45fe-8c50-a6604651d20f" data-name="ACI"><g id="6d1816b9-c77d-4618-8ea8-8941b0d38fc1" data-name="Logo"><g id="5a113e16-932e-4a27-a9df-11daefd8fd43" data-name="ACI"><path id="2c141f1e-a571-418b-96ea-d86b55ce9f34" data-name="Fill-1" d="M65.43,0a7.38,7.38,0,0,1,.75,1.05c.71,1.48,1.33,3,2.08,4.46s0,1.87-1.15,1.85q-4.69-.09-9.38,0a15,15,0,0,0-3.54.5,5.58,5.58,0,0,0-4.29,4.58,15.67,15.67,0,0,0,0,6.06,5.71,5.71,0,0,0,4.84,4.78,21.71,21.71,0,0,0,4,.38c2.79.05,5.58,0,8.37,0a5.2,5.2,0,0,1,.7,0,.84.84,0,0,1,.74,1.24c-.14.39-.34.76-.52,1.14-.62,1.35-1.26,2.69-1.85,4a1.27,1.27,0,0,1-1.31.87c-3.08,0-6.15,0-9.23,0a25.29,25.29,0,0,1-10.2-2A12,12,0,0,1,38,18.66a25.48,25.48,0,0,1,.22-7.79,12.06,12.06,0,0,1,7.92-9.14A25,25,0,0,1,53.64.15c.38,0,.77-.1,1.15-.15Z" style="fill:#fff"/><path id="3d5bfb4e-27b7-4ba4-adb7-6729306adbd7" data-name="Fill-4" d="M23.81,0c.69.61.71.75.25,1.76L11.4,29c-.2.43-.4.85-.59,1.28a1,1,0,0,1-1,.68C6.85,31,3.93,31,1,31c-.94,0-1.25-.58-.82-1.5,1.24-2.7,2.49-5.39,3.74-8.08q4.7-10.13,9.41-20.26A8.76,8.76,0,0,1,14.1,0Z" style="fill:#fff"/><path id="8fbb5a40-0ed0-4832-ab8a-bdb1a4641a96" data-name="Fill-7" d="M81.71,0a2.06,2.06,0,0,1,.46,1.42q0,14.07,0,28.14a3.52,3.52,0,0,1,0,.7c-.1.5-.42.71-1,.72h-8c-1,0-1.23-.26-1.23-1.27q0-3.48,0-7,0-10.67,0-21.34A2,2,0,0,1,72.32,0Z" style="fill:#fff"/><path id="60dffef1-943e-40c7-8159-af874f3e7a38" data-name="Fill-9" d="M33.27,31c-1.41,0-2.81,0-4.22,0a1.17,1.17,0,0,1-1.22-.77Q25,24.06,22.11,17.91a1.44,1.44,0,0,1,0-1.34Q24.28,12,26.39,7.45c.2-.43.36-.89,1-.89s.77.45,1,.88l8.31,17.92,1.8,3.9c.07.14.14.28.2.43.28.77-.07,1.29-.9,1.3-1.49,0-3,0-4.46,0" style="fill:#fff"/><path id="ae4dd1b3-62f1-44f8-a087-1d747d400c22" data-name="Fill-11" d="M142.5,27.93,139,22.72a13.75,13.75,0,0,0-.11,2.67c0,.89,0,1.77,0,2.66v2.6H137V19.3h2.09l3.44,5.36L146,19.3H148V30.64h-1.9V22.82l-.18-.07-3.46,5.18" style="fill:#fff"/><path id="94277f29-fac5-4e75-8932-46b0c3ed2883" data-name="Fill-13" d="M163.89,30.66H162V19.31h1.81l5.89,7.63.14,0V19.32h2v11.3h-1.68L164,22.75l-.14.06Z" style="fill:#fff"/><polygon id="fd85825a-5d1d-4715-86ed-4ca580a51abf" data-name="Fill-15" points="153.08 21.03 153.08 24 158.66 24 158.66 25.82 153.1 25.82 153.1 28.89 159.48 28.89 159.48 30.63 151.08 30.63 151.08 19.32 159.43 19.32 159.43 21.03 153.08 21.03" style="fill:#fff"/><path id="79219a54-b700-4230-abe1-2d5e2298d385" data-name="Fill-17" d="M117.27,26.09h3.85l-1.94-4.49-1.91,4.49m7.85,4.55H123L121.9,28h-5.4l-1.15,2.66h-2l5-11.42h1.89l5,11.41" style="fill:#fff"/><path id="a775b787-3d75-42cc-b879-0b1822d91d42" data-name="Fill-19" d="M106.62,21.14v4.11a26.28,26.28,0,0,0,3.08-.18,2,2,0,0,0-.25-3.92c-.93-.07-1.86,0-2.83,0Zm-2-1.87c1.67,0,3.26,0,4.84,0a4.75,4.75,0,0,1,1.3.25,3.47,3.47,0,0,1,2.58,3.26A3.51,3.51,0,0,1,111,26.57a10.34,10.34,0,0,1-2.44.45,19.47,19.47,0,0,1-2,0v3.6h-2Z" style="fill:#fff"/><path id="f3bbf6c8-ceca-4b5d-847c-5bc158e3e5b1" data-name="Fill-21" d="M192.73,20.55,191.68,22a5.32,5.32,0,0,0-2.75-1.11,4.4,4.4,0,0,0-1.44.22,1.12,1.12,0,0,0-.75,1.09,1.11,1.11,0,0,0,.68,1.13,16.11,16.11,0,0,0,1.53.57c.69.23,1.41.38,2.08.65a2.87,2.87,0,0,1,2.06,2.91,3.08,3.08,0,0,1-2.17,3,6.7,6.7,0,0,1-6.63-1.47l1.17-1.42c.29.2.54.39.79.55a4.46,4.46,0,0,0,3.55.79,2.08,2.08,0,0,0,.83-.4,1.2,1.2,0,0,0-.12-2A7.61,7.61,0,0,0,189,26c-.79-.26-1.6-.46-2.37-.75a2.71,2.71,0,0,1-1.89-2.68,3.08,3.08,0,0,1,1.79-3,5.34,5.34,0,0,1,3.89-.24,5.83,5.83,0,0,1,2.33,1.22" style="fill:#fff"/><path id="bcc09782-e4d9-43c8-beb9-96cfaf8462f3" data-name="Fill-23" d="M118.28,2.94V12h-1.19V.67h1.2l7.06,9v-9h1.25V12h-1L118.47,2.9l-.19,0" style="fill:#fff"/><path id="d638f02d-bbc0-4ef2-847e-af7c4252fc12" data-name="Fill-25" d="M159,6.4c1.36,0,2.66,0,4,0a2.77,2.77,0,0,0,.83-.19,2.18,2.18,0,0,0,1.56-2.26,2,2,0,0,0-1.75-2A23.25,23.25,0,0,0,159,1.82ZM157.68.64c1.92,0,3.77-.07,5.61,0a3.33,3.33,0,0,1,3.26,2.56,3.17,3.17,0,0,1-2,3.84c-.29.12-.58.21-.95.34L167,12h-1.57l-3.24-4.35h-3.29V12h-1.26Z" style="fill:#fff"/><polygon id="88bf8935-63f1-4c2a-b68c-a3af4d7326b0" data-name="Fill-27" points="148.1 1.73 148.1 5.65 154.2 5.65 154.2 6.85 148.1 6.85 148.1 10.85 155.05 10.85 155.05 11.99 146.85 11.99 146.85 0.66 154.92 0.66 154.92 1.73 148.1 1.73" style="fill:#fff"/><path id="5c996f99-5d55-49a6-b52e-c4ac8dce1a27" data-name="Fill-29" d="M132.89,19.29h2.22c-.14.26-.24.46-.36.65-1.17,1.79-2.32,3.59-3.53,5.35a3,3,0,0,0-.55,1.89c0,1.14,0,2.28,0,3.47h-2c0-.35,0-.71,0-1.06a12.44,12.44,0,0,0-.09-3.34,12.22,12.22,0,0,0-1.74-2.85L124.66,20c-.14-.21-.26-.44-.43-.73h2.32l1.53,2.44,1.6,2.55,3.21-5" style="fill:#fff"/><polygon id="6c59deb7-fd3a-4db4-9fc0-91930dc05dbc" data-name="Fill-31" points="183.1 21.11 179.58 21.11 179.58 30.64 177.57 30.64 177.57 21.15 174 21.15 174 19.3 183.1 19.3 183.1 21.11" style="fill:#fff"/><path id="23153b2f-4632-4d4f-887b-a4a2c6898388" data-name="Fill-33" d="M184.43,2.23l-.17,0-2.5,5.59h5.13l-2.47-5.57m-.68-1.7H185L190.12,12h-1.36l-1.32-2.93h-6.21L179.9,12h-1.3L183.76.53" style="fill:#fff"/><path id="23e781cd-ba35-4f46-9b30-d312bd3191e7" data-name="Fill-35" d="M169.45,9.48c.41.29.74.55,1.09.77a4.92,4.92,0,0,0,3.6.69,1.93,1.93,0,0,0,1.72-2.21,1.48,1.48,0,0,0-.92-1.18c-.65-.26-1.33-.45-2-.66s-1.5-.43-2.22-.74a2.89,2.89,0,0,1-.26-5,5.21,5.21,0,0,1,4.23-.41,5,5,0,0,1,2.11,1.16l-.7,1a5,5,0,0,0-2.72-1.17,5.61,5.61,0,0,0-1.9.25,1.56,1.56,0,0,0-1.08,1.56,1.48,1.48,0,0,0,1,1.54c.8.31,1.63.52,2.45.78a15.06,15.06,0,0,1,1.76.63,2.92,2.92,0,0,1,.3,5,4.57,4.57,0,0,1-2.2.73,6.53,6.53,0,0,1-5-1.81c.11-.15.21-.32.34-.47s.25-.27.39-.42" style="fill:#fff"/><path id="fecd13f6-4b17-4e19-843f-30b32a517dd1" data-name="Fill-37" d="M112.7.65h1.2a3.28,3.28,0,0,1,.07.5c0,2.06,0,4.12,0,6.18a6.61,6.61,0,0,1-.19,1.55,4.07,4.07,0,0,1-3.34,3.21,5.87,5.87,0,0,1-2.71-.07,4.13,4.13,0,0,1-3.14-3.94c-.09-2.44,0-4.9,0-7.4h1.2c0,.21,0,.43,0,.66q0,2.74,0,5.48c0,.29,0,.57,0,.86.24,2.79,2.23,3.74,4.55,3.2a3.12,3.12,0,0,0,2.32-3.32c0-2,0-4,0-6,0-.28,0-.56,0-.88" style="fill:#fff"/><path id="7efdbd06-6856-4083-ad66-793122bc5ecd" data-name="Fill-39" d="M138.48,12.06,133.65.67h1.42l4,9.76,4-9.78h1.38l-4.84,11.41Z" style="fill:#fff"/><polygon id="76439fa9-873a-400e-937c-c8061251250f" data-name="Fill-41" points="192.44 0.65 193.65 0.65 193.65 10.81 200 10.81 200 11.99 192.44 11.99 192.44 0.65" style="fill:#fff"/><polygon id="336bd2e7-0216-4ced-bfe7-31414cac2280" data-name="Fill-43" points="131.22 12.01 130.01 12.01 130.01 0.66 131.22 0.66 131.22 12.01" style="fill:#fff"/><path id="75a7e365-183e-45a8-9210-516b3bc0a32e" data-name="Fill-45" d="M195.44,29.78a1.36,1.36,0,0,0,.59.15c.25,0,.38-.1.38-.26s-.11-.23-.4-.33-.65-.35-.65-.7.34-.71.89-.71a1.45,1.45,0,0,1,.6.12l-.12.43a1.12,1.12,0,0,0-.49-.11c-.23,0-.34.11-.34.23s.13.22.44.33.61.37.61.71-.31.73-1,.73a1.55,1.55,0,0,1-.67-.14Z" style="fill:#fff"/><path id="941a85dc-bcba-4d71-a134-6050fbe4cadb" data-name="Fill-46" d="M199.32,29.43c0-.28,0-.63,0-1h0c-.07.3-.17.64-.26.92l-.29.92h-.42l-.25-.92c-.08-.28-.16-.61-.21-.92h0c0,.32,0,.68,0,1l0,.9h-.49l.15-2.36h.71l.23.79c.07.27.15.57.2.85h0c.07-.27.15-.59.22-.85L199,28h.7l.13,2.36h-.52Z" style="fill:#fff"/></g></g></g></g></g></g></svg>