<svg xmlns="http://www.w3.org/2000/svg" width="199.99" height="37.72" viewBox="0 0 199.99 37.72"><g id="7cd05a45-b565-4cda-886c-09d2dc78c2ee" data-name="Слой 2"><g id="2132401e-857c-44b2-a945-ef509eb08688" data-name="Слой 1"><g id="3feec57f-f5c7-4b03-b249-f87b6f815d60" data-name="CLIENTS-BANNERS"><g id="76cd292f-ba1b-4d37-bdaa-05ae74296e29" data-name="Advcash"><g id="cce330bc-0bad-488c-b2be-cfbe61ad480b" data-name="Logo"><g id="37129ab7-655b-4ea9-b2f8-2a4ea8323915" data-name="Advcash"><polygon id="e0607f35-424d-4b7b-a725-9983641c3f27" data-name="Fill-1" points="151.08 12.47 156.68 18.07 194.78 18.07 199.99 12.47 151.08 12.47" style="fill:#fff"/><polygon id="fe02dba7-f977-400f-a6b0-8cf062541609" data-name="Fill-2" points="158.42 21.08 164.02 26.68 187.44 26.68 192.65 21.08 158.42 21.08" style="fill:#fff"/><polygon id="56747614-072b-4e59-a634-0cc9eeece7aa" data-name="Fill-3" points="175.04 0 157.98 36.75 165.4 36.75 175.04 15.79 185.19 36.75 192.9 36.75 175.04 0" style="fill:#fff"/><path id="452d28c4-4269-4cfb-8388-530177f88788" data-name="Fill-4" d="M148.16,37H142.3c0-2.42,0-4.68,0-6.95s0-4.4,0-6.59c.36-4.47-2.3-5.43-7.89-4.69V36.8h-5.84V2.87h5.72V13.42c2.77,0,5.17-.19,7.53,0,3.55.36,6.1,2.54,6.27,5.9.28,5.74.08,11.5.08,17.59" style="fill:#fff"/><path id="b2d8d39d-e1f3-4c0a-b9aa-5c45266d7cac" data-name="Fill-6" d="M44.26,13.89h5.92l5.36,17.78.69.11L61.62,13.9H67.5L59.19,36.66H52.63L44.26,13.89" style="fill:#fff"/><path id="e94435ef-0840-4a14-b8c1-1b98f42b44c2" data-name="Fill-8" d="M85.75,14.8l-1.68,3.45c-3.11-.7-6.26-1.14-7.93,2.22a10,10,0,0,0,.24,10c1.73,2.88,4.52,2.81,7.58,1.65l1.74,3.76c-6.57,4.08-14.35,1.23-16.09-6a20,20,0,0,1,0-8.88c1.68-7.25,9.17-10.08,16.16-6.16" style="fill:#fff"/><path id="105109d9-dedc-44e6-962e-0cc5023e55d7" data-name="Fill-11" d="M36.35,18.13c-4.21-1.2-6.47-.62-7.95,2a10.7,10.7,0,0,0-.37,10c1.51,3.37,5.07,4.18,8.32,2.09Zm.2-4.29V3.38h5V35.77A17.1,17.1,0,0,1,28,36.4c-4.63-1.78-6.66-6.61-6-13.54a9.79,9.79,0,0,1,7.89-9c2-.35,4.1-.06,6.63-.06Z" style="fill:#fff"/><path id="1c24ffdb-2241-414f-85ab-05b80a3210fa" data-name="Fill-13" d="M13.89,33.68V25.2a64.72,64.72,0,0,0-6.41,1.27A3.34,3.34,0,0,0,5,30.18a3.58,3.58,0,0,0,3.27,3.45,44,44,0,0,0,5.6.05m5,2.12c-5,1.85-9.68,2.33-14.45.63A6.36,6.36,0,0,1,0,30.35a5.93,5.93,0,0,1,4.15-6.16,50.66,50.66,0,0,1,6-1.49c1.2-.26,2.42-.4,3.54-.58.38-3.67-.94-5.2-4.35-5.29a16.21,16.21,0,0,0-3.07.41c-1,.17-2,.4-3.41.68L1.78,15.47c.51-.47.72-.8,1-.91a20.33,20.33,0,0,1,11.26-.65,5.58,5.58,0,0,1,4.76,5.62c.15,5.3,0,10.61,0,16.28" style="fill:#fff"/><path id="dc5bf725-ec15-4ba0-9103-5eee8f92bf07" data-name="Fill-16" d="M101.39,33.68V25.2A64.71,64.71,0,0,0,95,26.47a3.34,3.34,0,0,0-2.46,3.71,3.57,3.57,0,0,0,3.27,3.45,44,44,0,0,0,5.6.05m5,2.12c-5,1.85-9.68,2.33-14.45.63a6.36,6.36,0,0,1-4.4-6.08,5.93,5.93,0,0,1,4.15-6.16,50.66,50.66,0,0,1,6-1.49c1.2-.26,2.42-.4,3.54-.58.38-3.67-.94-5.2-4.35-5.29a16.21,16.21,0,0,0-3.07.41c-1,.17-2,.4-3.41.68l-1.09-2.44c.51-.47.72-.8,1-.91a20.33,20.33,0,0,1,11.26-.65,5.58,5.58,0,0,1,4.76,5.62c.15,5.3,0,10.61,0,16.28" style="fill:#fff"/><path id="7a434519-dee0-42d3-9a60-b17346c08e48" data-name="Fill-18" d="M126.63,30A6.79,6.79,0,0,1,126,33a6.93,6.93,0,0,1-1.86,2.38,9.1,9.1,0,0,1-2.94,1.6,12.26,12.26,0,0,1-3.94.59,19.66,19.66,0,0,1-4.05-.43,17,17,0,0,1-3.75-1.24l1.22-4.43a18,18,0,0,0,2.91,1,13.19,13.19,0,0,0,3.5.44,5.22,5.22,0,0,0,2.54-.55,1.89,1.89,0,0,0,1-1.79,2.1,2.1,0,0,0-.86-1.61,11,11,0,0,0-3.15-1.54,14.15,14.15,0,0,1-5.26-3,5.89,5.89,0,0,1-1.66-4.31A6.24,6.24,0,0,1,112,14.84,10.32,10.32,0,0,1,118.46,13a17.75,17.75,0,0,1,4,.44,13.22,13.22,0,0,1,3.24,1.15l-1,4.36a15.13,15.13,0,0,0-2.82-1,13.2,13.2,0,0,0-3.15-.37,4.62,4.62,0,0,0-2.19.44,1.57,1.57,0,0,0-.83,1.51,2.2,2.2,0,0,0,.15.85,1.79,1.79,0,0,0,.53.67,5,5,0,0,0,1.09.64q.7.32,1.77.74,1.55.6,2.91,1.28a10.51,10.51,0,0,1,2.36,1.56,6.79,6.79,0,0,1,1.56,2,5.85,5.85,0,0,1,.57,2.66" style="fill:#fff"/></g></g></g></g></g></g></svg>