<svg xmlns="http://www.w3.org/2000/svg" width="199.95" height="24.36" viewBox="0 0 199.95 24.36"><g id="d2409a24-020b-480c-b716-e18e160734f4" data-name="Слой 2"><g id="431074f0-dc7a-429e-bbde-131f2474eda7" data-name="Слой 1"><g id="8a5904d3-f629-4264-84c8-670054f2a581" data-name="CLIENTS-BANNERS"><g id="29581f96-a0c4-4414-88c1-871752152813" data-name="AdvisorEngine"><g id="105e8d75-2a4c-4a6a-8241-d2d18cb5135a" data-name="Logo"><g id="9025f4e8-8959-482f-b3fb-3d9d63ad0bd0" data-name="AdvisorEng"><path id="9471d738-fb44-421e-ba69-36bac53247df" data-name="Fill-1" d="M163.58,12.45a6.36,6.36,0,0,0-.52-2.66,3,3,0,0,0-2.64-1.85,2.78,2.78,0,0,0-2.77,1.49,5.82,5.82,0,0,0-.21,5.42,3,3,0,0,0,4.9.91,4.24,4.24,0,0,0,1.23-3.31m-8,11V20.94a2.74,2.74,0,0,1,.38.14,7.54,7.54,0,0,0,4.28.83,3.24,3.24,0,0,0,3.33-3.32c0-.54,0-1.08,0-1.66-.08,0-.15.05-.18.1-1.54,2.3-4.81,2.26-6.68.92a5.72,5.72,0,0,1-2.41-4.16,8.3,8.3,0,0,1,1.19-5.93A5,5,0,0,1,161,5.8a3.9,3.9,0,0,1,2.13,1.38l.46.59V5.87h2.58c0,.21,0,.4,0,.6,0,3.9,0,7.81,0,11.71A8.64,8.64,0,0,1,166,20a5.12,5.12,0,0,1-3.9,4,9.88,9.88,0,0,1-6.5-.54" style="fill:#fff"/><path id="d16fdb96-fe0d-48b5-b808-61d04ac5d809" data-name="Fill-3" d="M53.24,12.57,50.45,3.66l-2.86,8.94h5.25l.4,0Zm-1-11.11,6,17.73H55.4L54,14.94H46.83L45.41,19.2H42.53L48.66,1.46Z" style="fill:#fff"/><path id="5b330ef4-f889-42b0-bd56-e70588d4bfdf" data-name="Fill-5" d="M68.53,12.51A7.24,7.24,0,0,0,68,10a3.35,3.35,0,0,0-3-2.09,3,3,0,0,0-3,1.78,6.11,6.11,0,0,0-.12,5.38,3.08,3.08,0,0,0,3.23,2,3.25,3.25,0,0,0,3-2.3,16.85,16.85,0,0,0,.48-2.31m-.23,4.93a4.64,4.64,0,0,1-4.24,2,5,5,0,0,1-3.95-2.08,8,8,0,0,1-1.44-5.6A7.35,7.35,0,0,1,60,7.87,5.35,5.35,0,0,1,65.71,5.8a4.31,4.31,0,0,1,2.18,1.32l.52.59V.58H71V19.2H68.44V17.48l-.14,0" style="fill:#fff"/><polygon id="fde28529-ee5d-477e-af43-2a5d2d04388e" data-name="Fill-7" points="130.13 3.67 130.13 9.2 133.4 9.2 136.63 9.2 136.63 11.46 130.13 11.46 130.13 16.96 137.64 16.96 137.64 19.19 127.41 19.19 127.41 1.47 137.5 1.47 137.5 3.67 130.13 3.67" style="fill:#fff"/><path id="62b91c38-672f-4e1f-a07f-3d07578e8b1b" data-name="Fill-9" d="M113.5,12.54A6.3,6.3,0,0,0,113,9.83a3.1,3.1,0,0,0-2.85-2,3.17,3.17,0,0,0-3.21,1.73,6.47,6.47,0,0,0-.59,4.29,4.74,4.74,0,0,0,.86,2,3.34,3.34,0,0,0,5.48-.14,5.6,5.6,0,0,0,.82-3.24m2.78,0a8.32,8.32,0,0,1-.67,3.32,5.63,5.63,0,0,1-4.43,3.52,6.12,6.12,0,0,1-7.56-5.28,8,8,0,0,1,1-5.57,5.67,5.67,0,0,1,5-2.84,8.63,8.63,0,0,1,2.15.22A5.75,5.75,0,0,1,116,10.63a17.31,17.31,0,0,1,.23,1.88" style="fill:#fff"/><path id="35469151-60af-42f3-9433-bb65403d2dd1" data-name="Fill-11" d="M190.9,11.49h6.6a14.54,14.54,0,0,0-.34-1.79,2.53,2.53,0,0,0-2.08-1.82,3.2,3.2,0,0,0-3.55,1.79,15.37,15.37,0,0,0-.63,1.82m8.86,2.11H191a3.77,3.77,0,0,0,1.87,2.95,5.1,5.1,0,0,0,2.74.64,6.26,6.26,0,0,0,3.13-.78c.07,0,.16-.07.3-.13V18.5a4.64,4.64,0,0,1-2,.7,9.49,9.49,0,0,1-4-.1,6.22,6.22,0,0,1-4.64-5.8A8.61,8.61,0,0,1,189.06,9a5.94,5.94,0,0,1,8.15-2.66A5.06,5.06,0,0,1,199.77,10a8.79,8.79,0,0,1,0,3.6" style="fill:#fff"/><path id="c3895c41-08c7-443c-a8b4-d4314e303377" data-name="Fill-14" d="M186.13,19.2h-2.57v-.77q0-3.64,0-7.28c0-.32,0-.63-.05-.95a2.5,2.5,0,0,0-3.59-2.1,3.39,3.39,0,0,0-2.16,2.9,9.7,9.7,0,0,0-.08,1.36c0,2,0,4,0,6.06v.78h-2.55V5.86h2.53v2l.12,0c.07-.1.15-.19.22-.29a4,4,0,0,1,3.37-1.87,6.69,6.69,0,0,1,1.69.11,3.75,3.75,0,0,1,3,3.15,6.14,6.14,0,0,1,.13,1.28c0,2.84,0,5.67,0,8.51,0,.13,0,.27,0,.47" style="fill:#fff"/><path id="b8c957a5-3ccc-4c37-83c2-59a99ded2950" data-name="Fill-16" d="M140.9,5.84h2.52v2l.12,0,.27-.37a4,4,0,0,1,3.26-1.81,6.33,6.33,0,0,1,1.56.06,3.86,3.86,0,0,1,3.25,3.68c.07,1,.05,1.95.05,2.92,0,2,0,4,0,6.06v.79h-2.61v-.77q0-3.57,0-7.15c0-.25,0-.5,0-.75A2.45,2.45,0,0,0,148,8.2a2.82,2.82,0,0,0-2.91.18,3.39,3.39,0,0,0-1.56,2.37,8.07,8.07,0,0,0-.13,1.42c0,2.09,0,4.17,0,6.26v.77H140.9Z" style="fill:#fff"/><path id="a8abd265-e77f-49b7-9563-f02ea0b0b1b3" data-name="Fill-18" d="M72.86,5.85H75.6l3.51,11,3.61-11h2.72L80.59,19.21h-3L72.86,5.85" style="fill:#fff"/><path id="35846fd8-719e-4a93-8771-ace09fdc9e42" data-name="Fill-20" d="M101.32,6.26V8.48c-.81-.19-1.59-.44-2.38-.55A5.75,5.75,0,0,0,97.19,8a1.32,1.32,0,0,0-1.14,1.11,1.38,1.38,0,0,0,.66,1.52c.58.35,1.2.63,1.79,1,.77.43,1.56.83,2.29,1.31,1.85,1.23,1.67,4.51-.27,5.64a5.63,5.63,0,0,1-1.89.71,9.16,9.16,0,0,1-4.43-.35c-.25-.09-.5-.2-.76-.31V16.16l.69.34a6.76,6.76,0,0,0,3.21.74,3.34,3.34,0,0,0,1.06-.2A1.37,1.37,0,0,0,99,14.69a4.46,4.46,0,0,0-1.1-.78c-.54-.29-1.14-.46-1.67-.76A8.55,8.55,0,0,1,94.44,12a3.44,3.44,0,0,1,.69-5.59,6,6,0,0,1,2-.64,8.13,8.13,0,0,1,4.22.49" style="fill:#fff"/><path id="06471fe9-8ef5-41b5-96fa-7d8443b7195a" data-name="Fill-22" d="M125,5.8V8.24c-.39,0-.75-.11-1.11-.13a2.5,2.5,0,0,0-2.2,1,4.46,4.46,0,0,0-1,2.9q0,3.2,0,6.4c0,.25,0,.5,0,.79h-2.56V5.87h2.53v2a5.15,5.15,0,0,1,1.83-1.77A3.76,3.76,0,0,1,125,5.8" style="fill:#fff"/><polygon id="5ef9e5ce-2e8b-49ff-b991-ea1638dfc225" data-name="Fill-24" points="171.83 19.18 169.26 19.18 169.26 5.86 171.83 5.86 171.83 19.18" style="fill:#fff"/><polygon id="dee5cb65-31bc-4b7f-b106-b59e2081a17d" data-name="Fill-26" points="90.43 19.2 87.91 19.2 87.91 5.88 90.43 5.88 90.43 19.2" style="fill:#fff"/><path id="61aac5fb-5a19-4e32-a6c3-4d5694706631" data-name="Fill-27" d="M172.16,1.74A1.63,1.63,0,1,1,170.54.1a1.61,1.61,0,0,1,1.62,1.65" style="fill:#fff"/><path id="64818b63-e3c4-47d6-b7db-91d5a6f0ec88" data-name="Fill-28" d="M89.19.1a1.59,1.59,0,0,1,1.6,1.67,1.6,1.6,0,0,1-1.68,1.59,1.57,1.57,0,0,1-1.55-1.63A1.58,1.58,0,0,1,89.19.1" style="fill:#fff"/><polygon id="01cdc201-a2b9-4ec7-afe6-4182387edce0" data-name="Fill-29" points="0 20.64 4.17 20.64 15.97 3.35 20.79 3.35 18.33 0.1 14.25 0.1 0 20.64" style="fill:#fff"/><polygon id="a28ee74b-f823-4433-b959-9ab28a90c225" data-name="Fill-30" points="34.04 20.64 16.43 20.64 18.79 17.19 34.04 17.19 34.04 20.64" style="fill:#fff"/><polygon id="442074ac-e256-4721-9bf2-adccb7d87352" data-name="Fill-31" points="34.04 12.09 16.43 12.09 18.79 8.64 34.04 8.64 34.04 12.09" style="fill:#fff"/><polygon id="f9fc844a-2662-49ae-bb04-a74675c01b1a" data-name="Fill-32" points="34.04 0 21.78 0 24.14 3.45 34.04 3.45 34.04 0" style="fill:#fff"/></g></g></g></g></g></g></svg>