<svg xmlns="http://www.w3.org/2000/svg" width="199.47" height="38.42" viewBox="0 0 199.47 38.42"><g id="2bfcb8d9-54cf-453d-b379-f2b4a26e6794" data-name="Слой 2"><g id="856b3213-6998-4aad-b2cd-237344d55c8b" data-name="Слой 1"><g id="5e558ea5-17ce-4902-a92e-29ed029562cf" data-name="CLIENTS-BANNERS"><g id="51aa4cfa-687c-4d2c-9b31-082c08598719" data-name="Dimark"><g id="ea2efac8-06b5-4351-8d3c-d76cc4d3ee5c" data-name="Logo"><g id="d6ed50c0-f53d-4631-a187-c293463aed28" data-name="Dimark"><path id="2f1f912a-6396-4c72-aba5-148e0f9ea2df" data-name="Fill-1" d="M5,20.8H23a4.43,4.43,0,0,0,2.46-.53,1.82,1.82,0,0,0,.77-1.6V7.47a1.82,1.82,0,0,0-.77-1.6A4.44,4.44,0,0,0,23,5.34H5Zm-5,5V.34H22.93a14.92,14.92,0,0,1,3.93.45,6.39,6.39,0,0,1,2.6,1.33,5.1,5.1,0,0,1,1.43,2.17,9.08,9.08,0,0,1,.45,3v11.6a9.07,9.07,0,0,1-.45,3A5.1,5.1,0,0,1,29.46,24a6.38,6.38,0,0,1-2.6,1.32,14.87,14.87,0,0,1-3.93.45Z" style="fill:#fff"/><polygon id="b2d89c75-cb57-4f39-b99e-e9d0a9b24a76" data-name="Fill-3" points="36.02 0.34 41.01 0.34 41.01 25.79 36.02 25.79 36.02 0.34" style="fill:#fff"/><path id="6495c692-c103-4b4f-9ecb-e6d7a929ba02" data-name="Fill-5" d="M45.83,25.79V2.41A2.22,2.22,0,0,1,46.55.6,2.51,2.51,0,0,1,48.2,0a3.51,3.51,0,0,1,1.17.21,2.68,2.68,0,0,1,1.07.72L68,20.14,85.63.93a2.71,2.71,0,0,1,1-.71A3.41,3.41,0,0,1,87.87,0a2.51,2.51,0,0,1,1.65.6,2.22,2.22,0,0,1,.72,1.81V25.79h-5V8.54L69.83,25.41a2.49,2.49,0,0,1-3.58,0L50.82,8.54V25.79Z" style="fill:#fff"/><path id="088c3639-af22-4f09-8b75-8fba79a048d2" data-name="Fill-6" d="M99.72,13H121.1V9a5.1,5.1,0,0,0-.22-1.6,2.45,2.45,0,0,0-.79-1.14,3.71,3.71,0,0,0-1.5-.69,10.22,10.22,0,0,0-2.34-.22H104.57a10.21,10.21,0,0,0-2.34.22,3.71,3.71,0,0,0-1.5.69,2.45,2.45,0,0,0-.79,1.14A5.06,5.06,0,0,0,99.72,9Zm-5,12.77V9a8.28,8.28,0,0,1,2.43-6.4Q99.58.34,104.54.34h11.74q5,0,7.39,2.24A8.28,8.28,0,0,1,126.09,9v16.8h-5V17.66H99.72v8.13Z" style="fill:#fff"/><path id="795bb87b-a1d6-46ed-93f5-cd7312582808" data-name="Fill-7" d="M135.56,12.22h18a4.42,4.42,0,0,0,2.46-.53,1.81,1.81,0,0,0,.77-1.6V7.47a1.81,1.81,0,0,0-.77-1.6,4.42,4.42,0,0,0-2.46-.53h-18Zm-5,13.57V.34h23a14.92,14.92,0,0,1,3.93.45,6.39,6.39,0,0,1,2.6,1.33,5.11,5.11,0,0,1,1.43,2.17,9.11,9.11,0,0,1,.45,3V9.78a9.1,9.1,0,0,1-.45,3,5.11,5.11,0,0,1-1.43,2.17,6.39,6.39,0,0,1-2.6,1.32,14.87,14.87,0,0,1-3.93.45h-3.86l13,9.09h-9L141.69,16.7h-6.13v9.09Z" style="fill:#fff"/><polygon id="ffc931d1-c566-44df-abbb-86b860bdb99b" data-name="Fill-8" points="165.28 25.79 165.28 0.34 170.27 0.34 170.27 9.92 173.3 9.92 188.76 0.34 198.26 0.34 178.32 12.12 199.47 25.79 190.24 25.79 173.3 14.32 170.27 14.32 170.27 25.79 165.28 25.79" style="fill:#fff"/><path id="739a5f89-35ce-4fba-bad3-30527a921d95" data-name="Fill-9" d="M66.16,38.29V36.58h7.56a1.51,1.51,0,0,0,.84-.18.62.62,0,0,0,.27-.55v-.9a.62.62,0,0,0-.27-.55,1.51,1.51,0,0,0-.84-.18h-5q-2.53,0-2.53-1.88v-1.1q0-1.68,2.5-1.68h7.57v1.71H68.61a1.23,1.23,0,0,0-.53.08.26.26,0,0,0-.14.24v.52a.33.33,0,0,0,.14.3,1.13,1.13,0,0,0,.54.09h5.09a5.1,5.1,0,0,1,1.35.15,2.19,2.19,0,0,1,.89.45,1.75,1.75,0,0,1,.49.74,3.13,3.13,0,0,1,.15,1v1a3.12,3.12,0,0,1-.15,1,1.75,1.75,0,0,1-.49.74,2.19,2.19,0,0,1-.89.45,5.12,5.12,0,0,1-1.35.15Z" style="fill:#fff"/><path id="f7cb19e7-31ec-4b9d-94aa-fb675664e49a" data-name="Fill-10" d="M79.79,35.84a.62.62,0,0,0,.27.55,1.51,1.51,0,0,0,.84.18h5a1.51,1.51,0,0,0,.84-.18.62.62,0,0,0,.27-.55V32a.62.62,0,0,0-.27-.55,1.52,1.52,0,0,0-.84-.18h-5a1.53,1.53,0,0,0-.84.18.62.62,0,0,0-.27.55Zm1.12,2.44a5.11,5.11,0,0,1-1.35-.15,2.18,2.18,0,0,1-.89-.45,1.75,1.75,0,0,1-.49-.74,3.1,3.1,0,0,1-.15-1v-4a3.11,3.11,0,0,1,.15-1,1.76,1.76,0,0,1,.49-.74,2.2,2.2,0,0,1,.89-.45,5.11,5.11,0,0,1,1.35-.15h5a5.12,5.12,0,0,1,1.35.15,2.21,2.21,0,0,1,.89.45,1.77,1.77,0,0,1,.49.74,3.13,3.13,0,0,1,.15,1v4a3.12,3.12,0,0,1-.15,1,1.76,1.76,0,0,1-.49.74,2.2,2.2,0,0,1-.89.45,5.12,5.12,0,0,1-1.35.15Z" style="fill:#fff"/><polygon id="22f8a5b6-266e-437a-9575-141fa10b818b" data-name="Fill-11" points="90.3 38.29 90.3 29.56 101.06 29.56 101.06 31.27 92.01 31.27 92.01 32.42 98.94 32.42 98.94 34.01 92.01 34.01 92.01 38.29 90.3 38.29" style="fill:#fff"/><polygon id="d24781d6-d232-4f28-9e86-d72e8bfa3319" data-name="Fill-12" points="106.4 38.29 106.4 31.27 101.87 31.27 101.87 29.56 112.63 29.56 112.63 31.27 108.11 31.27 108.11 38.29 106.4 38.29" style="fill:#fff"/><path id="69b446d9-90ca-4b29-920c-e09793b7257a" data-name="Fill-13" d="M116.42,38.29a5.11,5.11,0,0,1-1.35-.15,2.19,2.19,0,0,1-.89-.45,1.74,1.74,0,0,1-.49-.74,3.1,3.1,0,0,1-.15-1V29.56h1.76v6.28a.62.62,0,0,0,.27.55,1.51,1.51,0,0,0,.84.18h4.19v-7h1.71v7h4.17a1.51,1.51,0,0,0,.84-.18.62.62,0,0,0,.27-.55V29.56h1.76v6.35a3.12,3.12,0,0,1-.15,1,1.74,1.74,0,0,1-.49.74,2.19,2.19,0,0,1-.89.45,5.13,5.13,0,0,1-1.35.15Z" style="fill:#fff"/><path id="c406ce60-50ac-43b7-bbb6-4cfede9a2771" data-name="Fill-14" d="M132.58,33.91h7.33V32.52a1.76,1.76,0,0,0-.08-.55.84.84,0,0,0-.27-.39,1.26,1.26,0,0,0-.51-.24,3.5,3.5,0,0,0-.8-.08h-4a3.5,3.5,0,0,0-.8.08,1.26,1.26,0,0,0-.51.24.83.83,0,0,0-.27.39,1.74,1.74,0,0,0-.08.55Zm-1.71,4.38V32.52a2.84,2.84,0,0,1,.83-2.2,3.63,3.63,0,0,1,2.53-.77h4a3.63,3.63,0,0,1,2.53.77,2.84,2.84,0,0,1,.83,2.2v5.76h-1.71V35.5h-7.33v2.79Z" style="fill:#fff"/><path id="2a0a9f0c-e188-4b44-a598-35f88b465365" data-name="Fill-15" d="M144.87,33.63H151a1.51,1.51,0,0,0,.84-.18.62.62,0,0,0,.27-.55V32a.62.62,0,0,0-.27-.55,1.53,1.53,0,0,0-.84-.18h-6.18Zm-1.71,4.65V29.56H151a5.13,5.13,0,0,1,1.35.15,2.21,2.21,0,0,1,.89.45,1.75,1.75,0,0,1,.49.74,3.12,3.12,0,0,1,.15,1v.86a3.13,3.13,0,0,1-.15,1,1.75,1.75,0,0,1-.49.74,2.2,2.2,0,0,1-.89.45,5.1,5.1,0,0,1-1.35.15h-1.32l4.46,3.12h-3.07L147,35.17h-2.1v3.12Z" style="fill:#fff"/><polygon id="1c7a6206-b93a-4d70-8666-aeb7fdeb10f0" data-name="Fill-16" points="155.06 38.29 155.06 29.56 165.8 29.56 165.8 31.27 156.77 31.27 156.77 32.42 164.16 32.42 164.16 34.01 156.77 34.01 156.77 36.58 165.82 36.58 165.82 38.29 155.06 38.29" style="fill:#fff"/><polygon id="98d6390a-369f-4c50-8f11-1ceddcb10928" data-name="Fill-17" points="171.55 29.56 173.26 29.56 173.26 38.29 171.55 38.29 171.55 29.56" style="fill:#fff"/><path id="c6d88606-22c9-4947-a316-a28dccd878cf" data-name="Fill-18" d="M174.91,38.29v-8a.85.85,0,0,1,.24-.64.79.79,0,0,1,.56-.23,1,1,0,0,1,.29,0,.85.85,0,0,1,.28.15L184,35.83V29.56h1.71v8a.85.85,0,0,1-.24.64.79.79,0,0,1-.56.23,1,1,0,0,1-.3,0,.83.83,0,0,1-.28-.15L176.63,32v6.26Z" style="fill:#fff"/><path id="0d7b523c-dde0-409c-80c1-1b38eddc7334" data-name="Fill-19" d="M190.06,38.29a5.11,5.11,0,0,1-1.35-.15,2.18,2.18,0,0,1-.89-.45,1.75,1.75,0,0,1-.49-.74,3.1,3.1,0,0,1-.15-1v-4a3.11,3.11,0,0,1,.15-1,1.76,1.76,0,0,1,.49-.74,2.21,2.21,0,0,1,.89-.45,5.11,5.11,0,0,1,1.35-.15h7.85v1.71h-7.86a1.53,1.53,0,0,0-.84.18.62.62,0,0,0-.27.55v3.84a.62.62,0,0,0,.27.55,1.51,1.51,0,0,0,.84.18h7.89v1.71Z" style="fill:#fff"/></g></g></g></g></g></g></svg>