<svg xmlns="http://www.w3.org/2000/svg" width="199.97" height="51.28" viewBox="0 0 199.97 51.28"><g id="f0212657-c1a0-495c-8ace-fb329d4adf08" data-name="Слой 2"><g id="58435d14-ea9d-463e-adb8-5abc15227e34" data-name="Слой 1"><g id="4939c2f4-5e42-47c0-8458-eb52c5e513e0" data-name="CLIENTS-BANNERS"><g id="f6447418-b41f-4c1c-a761-0a8c7a86dd48" data-name="Emergent-Systems"><g id="6f9387c5-6632-412f-a9ee-668a0c5aec3f" data-name="Logo"><g id="0290869b-7005-42b1-b2d8-2524cc04c193" data-name="EmergSys"><polygon id="081a9cd3-c15b-4255-b057-0b5d3e83bf94" data-name="Fill-1" points="7.98 22.71 0 47.74 9.23 47.74 10.83 42.73 6.92 42.73 8.68 37.23 12.01 37.23 13.52 32.47 10.2 32.47 11.71 27.72 15.27 27.72 16.86 22.71 7.98 22.71" style="fill:#fff"/><path id="0d0e1ee9-56c6-4100-a4a5-fa5b9d7a523b" data-name="Fill-2" d="M22.2,27.22l-.71,2a7.53,7.53,0,0,1,2-1.75,4.08,4.08,0,0,1,2.06-.58q2,0,2.48,2.32a8.37,8.37,0,0,1,2-1.75,3.91,3.91,0,0,1,2-.58,2.28,2.28,0,0,1,1.91.77,2.52,2.52,0,0,1,.49,1.89,21,21,0,0,1-.92,3.64L28.83,47.74h-5l4.27-13.38A22.7,22.7,0,0,0,29,31.11q.05-.63-.48-.63a1,1,0,0,0-.9.62,22.92,22.92,0,0,0-1.2,3.26L22.19,47.74h-5l4.16-13a32.7,32.7,0,0,0,1-3.62q.07-.6-.47-.6a1,1,0,0,0-.68.32,2,2,0,0,0-.51.77q-.17.46-.64,1.94L15.57,47.74h-5l6.54-20.52Z" style="fill:#fff"/><path id="a5633146-dbb0-4184-96e7-b68bda6e6c36" data-name="Fill-4" d="M41.26,34.51l.48-1.5A9.86,9.86,0,0,0,42.25,31q0-.46-.42-.46a.86.86,0,0,0-.78.39,12.31,12.31,0,0,0-.8,2.13l-.48,1.5Zm4.06,3.34H38.7l-1.42,4.44a6.27,6.27,0,0,0-.41,1.79q0,.4.5.4a1.11,1.11,0,0,0,.95-.53,8.92,8.92,0,0,0,.85-2.06L40,39.18h4.84l-.48,1.52a20.29,20.29,0,0,1-1.13,2.92,9.8,9.8,0,0,1-1.61,2.18,7.49,7.49,0,0,1-2.38,1.74,7.17,7.17,0,0,1-3,.58,5.58,5.58,0,0,1-2.68-.57A2.93,2.93,0,0,1,32.22,46a4.87,4.87,0,0,1-.25-2.2,18.47,18.47,0,0,1,.85-3.49l1.91-6a15.84,15.84,0,0,1,1.95-4.24,7.43,7.43,0,0,1,6.08-3.21,4.61,4.61,0,0,1,3.23,1A3.54,3.54,0,0,1,47.1,30.5a15.35,15.35,0,0,1-.91,4.63Z" style="fill:#fff"/><path id="925326d1-521a-4270-879b-5954dc7c4c83" data-name="Fill-6" d="M55.48,27.22l-1.06,2.7q2-2.9,4.2-3.07l-2.3,7.22a4.43,4.43,0,0,0-2.21.46,3,3,0,0,0-1.22,1.29,33.94,33.94,0,0,0-1.37,3.81l-2.58,8.1H43.83l6.54-20.52Z" style="fill:#fff"/><path id="07373e95-22e4-40df-b6c9-021e8881bbdd" data-name="Fill-8" d="M64.4,32.67a7.71,7.71,0,0,0,.44-1.79q0-.39-.46-.39a.94.94,0,0,0-.77.44,6.79,6.79,0,0,0-.74,1.74l-2.2,6.9a7.43,7.43,0,0,0-.43,1.79q0,.41.45.41a.93.93,0,0,0,.82-.49A12.22,12.22,0,0,0,62.37,39Zm6.86-5.44-5,15.8q-1,3.2-1.44,4.14a6.74,6.74,0,0,1-1.48,2,7.14,7.14,0,0,1-2.55,1.59,10,10,0,0,1-3.47.55,5.36,5.36,0,0,1-3.6-1q-1.16-1-.26-4h5q-.43,1.36.38,1.36a1.08,1.08,0,0,0,.9-.42,6.48,6.48,0,0,0,.75-1.75l.49-1.55A7.67,7.67,0,0,1,59.16,45a4.07,4.07,0,0,1-1.64.37,2.78,2.78,0,0,1-2.05-.68,2.35,2.35,0,0,1-.65-1.79,12.13,12.13,0,0,1,.67-3.15l2.38-7.45a10.58,10.58,0,0,1,2.2-4.21,4.11,4.11,0,0,1,3-1.28,2.59,2.59,0,0,1,1.6.48,2.85,2.85,0,0,1,1,1.44l.86-1.55Z" style="fill:#fff"/><path id="25086f9a-d35e-449d-bbba-af649cc1da95" data-name="Fill-10" d="M77.2,34.51l.48-1.5A9.86,9.86,0,0,0,78.2,31q0-.46-.42-.46a.86.86,0,0,0-.78.39,12.31,12.31,0,0,0-.8,2.13l-.48,1.5Zm4.06,3.34H74.65l-1.42,4.44a6.27,6.27,0,0,0-.41,1.79q0,.4.5.4a1.11,1.11,0,0,0,.95-.53,8.92,8.92,0,0,0,.85-2.06L76,39.18h4.84l-.48,1.52a20.29,20.29,0,0,1-1.13,2.92,9.8,9.8,0,0,1-1.61,2.18,7.49,7.49,0,0,1-2.38,1.74,7.17,7.17,0,0,1-3,.58,5.58,5.58,0,0,1-2.68-.57A2.93,2.93,0,0,1,68.17,46a4.87,4.87,0,0,1-.25-2.2,18.47,18.47,0,0,1,.85-3.49l1.91-6a15.84,15.84,0,0,1,1.95-4.24,7.43,7.43,0,0,1,6.08-3.21,4.61,4.61,0,0,1,3.23,1A3.54,3.54,0,0,1,83,30.5a15.35,15.35,0,0,1-.91,4.63Z" style="fill:#fff"/><path id="4be4e304-c3a4-442f-94b4-bb0140ed2cd8" data-name="Fill-12" d="M91.52,27.22l-.69,1.89a7,7,0,0,1,1.9-1.7,4,4,0,0,1,2-.56,2.28,2.28,0,0,1,1.91.76,2.53,2.53,0,0,1,.47,1.91,23.08,23.08,0,0,1-1,3.84L91.56,47.74H86.45L91,33.53A17.76,17.76,0,0,0,91.7,31q0-.46-.48-.46a1,1,0,0,0-.85.53,19.83,19.83,0,0,0-1,2.85L84.89,47.74H79.78l6.54-20.52Z" style="fill:#fff"/><path id="cd6232ab-ca5e-41f9-9e98-df949d1bff68" data-name="Fill-14" d="M106.13,24.49l-1,3.23h1.38l-1,3.25h-1.38l-3.5,11A7.59,7.59,0,0,0,100,44.2q.1.23,1.35.23l-1.05,3.31H98.24a11.23,11.23,0,0,1-2.44-.18,1.65,1.65,0,0,1-1.05-.82,2.22,2.22,0,0,1-.24-1.47,35.35,35.35,0,0,1,1.1-3.89L98.94,31h-1.1l1-3.25H100l1-3.23Z" style="fill:#fff"/><path id="e7793e29-3180-4b7d-bbad-3960a7f4ed49" data-name="Fill-16" d="M122.78,30.29h-4.95l.59-1.86a4.47,4.47,0,0,0,.34-1.65q-.08-.36-.52-.36a1.14,1.14,0,0,0-.88.48,4.37,4.37,0,0,0-.71,1.46,4.94,4.94,0,0,0-.32,1.89,2.79,2.79,0,0,0,1,1.53q2.73,2.58,3.13,4.23t-.78,5.33a14.52,14.52,0,0,1-1.77,3.94,7,7,0,0,1-2.66,2.13,8.23,8.23,0,0,1-3.69.86,5.08,5.08,0,0,1-3.33-1,3.07,3.07,0,0,1-1.18-2.52,16.27,16.27,0,0,1,.92-4.35l.52-1.64h4.95l-1,3a4.93,4.93,0,0,0-.37,1.81q.08.4.61.4a1.22,1.22,0,0,0,1-.51,4.59,4.59,0,0,0,.74-1.52,5.37,5.37,0,0,0,.43-2.89,10.3,10.3,0,0,0-1.77-2.27,15.85,15.85,0,0,1-1.89-2.33,4.2,4.2,0,0,1-.43-2,10.89,10.89,0,0,1,.62-3.28A14.17,14.17,0,0,1,113.34,25a7,7,0,0,1,2.6-2.08,8,8,0,0,1,3.48-.75,5.73,5.73,0,0,1,3.27.82A2.65,2.65,0,0,1,124,25.07a13.63,13.63,0,0,1-.87,4.23Z" style="fill:#fff"/><path id="18cecdd8-2263-40c8-9c2e-b4f0aaeb3f53" data-name="Fill-18" d="M136.42,27.22l-6.19,14.84q-1.47,3.53-2.11,4.81A8.45,8.45,0,0,1,126.66,49a5,5,0,0,1-1.9,1.23,10,10,0,0,1-3.22.39h-3.1l1-3.28a5.36,5.36,0,0,0,1.58-.15,1,1,0,0,0,.55-.66q.08-.25.37-2.15l2.67-17.16h4.64l-2.74,13.86,5.24-13.86Z" style="fill:#fff"/><path id="f9fa9b53-4be9-4665-a32c-d7ba5222f6fa" data-name="Fill-20" d="M145.68,33.78h-4.53l.36-1.11a7.71,7.71,0,0,0,.44-1.8q0-.38-.54-.38a1,1,0,0,0-.76.35,2.73,2.73,0,0,0-.55,1,6.88,6.88,0,0,0-.33,1.38,1.52,1.52,0,0,0,.34,1,8.6,8.6,0,0,0,1.72,1.53,5.23,5.23,0,0,1,2.12,2.5,6.46,6.46,0,0,1-.39,3.42,13.41,13.41,0,0,1-1.74,3.78,6.2,6.2,0,0,1-2.4,2,7.49,7.49,0,0,1-3.22.69,5.65,5.65,0,0,1-3.1-.74,2.58,2.58,0,0,1-1.26-2,10.84,10.84,0,0,1,.7-3.83l.32-1h4.53l-.41,1.3a8.8,8.8,0,0,0-.51,2.15.46.46,0,0,0,.52.5,1.15,1.15,0,0,0,.86-.33,3.89,3.89,0,0,0,.66-1.4,3.64,3.64,0,0,0,.31-1.84,14.62,14.62,0,0,0-2.27-2.2,4.61,4.61,0,0,1-1.85-2.81,8.13,8.13,0,0,1,.46-3,12.09,12.09,0,0,1,1.69-3.63,5.87,5.87,0,0,1,2.38-1.8,7.9,7.9,0,0,1,3.16-.63,5.87,5.87,0,0,1,2.67.52,2.76,2.76,0,0,1,1.36,1.37,3,3,0,0,1,.26,1.58,15.24,15.24,0,0,1-.59,2.27Z" style="fill:#fff"/><path id="22d619be-e8e3-4faf-a516-b75d6c235b6d" data-name="Fill-22" d="M155.79,24.49l-1,3.23h1.38l-1,3.25h-1.38l-3.5,11a7.55,7.55,0,0,0-.55,2.26q.1.23,1.35.23L150,47.74H147.9a11.22,11.22,0,0,1-2.44-.18,1.65,1.65,0,0,1-1.05-.82,2.22,2.22,0,0,1-.24-1.47,35.35,35.35,0,0,1,1.1-3.89L148.6,31h-1.1l1-3.25h1.1l1-3.23Z" style="fill:#fff"/><path id="f6db4041-efcd-45bc-b38e-7e3ff6837cc7" data-name="Fill-24" d="M161.55,34.51,162,33a9.88,9.88,0,0,0,.52-2.06q0-.46-.42-.46a.86.86,0,0,0-.78.39,12.27,12.27,0,0,0-.8,2.13l-.48,1.5Zm4.06,3.34H159l-1.42,4.44a6.26,6.26,0,0,0-.41,1.79q0,.4.5.4a1.11,1.11,0,0,0,.95-.53,8.9,8.9,0,0,0,.85-2.06l.86-2.71h4.84l-.48,1.52a20.24,20.24,0,0,1-1.13,2.92A9.81,9.81,0,0,1,162,45.8a7.49,7.49,0,0,1-2.38,1.74,7.17,7.17,0,0,1-3,.58,5.58,5.58,0,0,1-2.68-.57A2.93,2.93,0,0,1,152.51,46a4.87,4.87,0,0,1-.25-2.2,18.5,18.5,0,0,1,.85-3.49l1.91-6A15.85,15.85,0,0,1,157,30.06,7.43,7.43,0,0,1,163,26.85a4.61,4.61,0,0,1,3.23,1,3.54,3.54,0,0,1,1.12,2.64,15.34,15.34,0,0,1-.91,4.63Z" style="fill:#fff"/><path id="e2fd901c-29d9-40c8-b187-5de13be03134" data-name="Fill-26" d="M175.71,27.22l-.71,2a7.53,7.53,0,0,1,2-1.75,4.08,4.08,0,0,1,2.06-.58q2,0,2.48,2.32a8.36,8.36,0,0,1,2-1.75,3.91,3.91,0,0,1,2-.58,2.28,2.28,0,0,1,1.91.77,2.52,2.52,0,0,1,.49,1.89,21,21,0,0,1-.92,3.64l-4.65,14.58h-5l4.27-13.38a22.7,22.7,0,0,0,.89-3.25q.05-.63-.48-.63a1,1,0,0,0-.9.62,22.92,22.92,0,0,0-1.2,3.26l-4.27,13.38h-5l4.16-13a32.7,32.7,0,0,0,1-3.62q.07-.6-.47-.6a1,1,0,0,0-.68.32,2,2,0,0,0-.51.77q-.17.46-.64,1.94l-4.54,14.23h-5l6.54-20.52Z" style="fill:#fff"/><path id="a0952109-a9a8-4bc0-acf2-da8f2aeec274" data-name="Fill-28" d="M199,33.78h-4.53l.36-1.11a7.71,7.71,0,0,0,.44-1.8q0-.38-.54-.38a1,1,0,0,0-.76.35,2.73,2.73,0,0,0-.55,1,6.88,6.88,0,0,0-.33,1.38,1.52,1.52,0,0,0,.34,1,8.6,8.6,0,0,0,1.72,1.53,5.23,5.23,0,0,1,2.12,2.5,6.45,6.45,0,0,1-.39,3.42,13.41,13.41,0,0,1-1.74,3.78,6.2,6.2,0,0,1-2.4,2,7.49,7.49,0,0,1-3.22.69,5.65,5.65,0,0,1-3.1-.74,2.58,2.58,0,0,1-1.26-2,10.84,10.84,0,0,1,.7-3.83l.32-1h4.53l-.41,1.3a8.8,8.8,0,0,0-.51,2.15.46.46,0,0,0,.52.5,1.15,1.15,0,0,0,.86-.33,3.89,3.89,0,0,0,.66-1.4,3.64,3.64,0,0,0,.31-1.84,14.62,14.62,0,0,0-2.27-2.2A4.61,4.61,0,0,1,188,35.91a8.12,8.12,0,0,1,.46-3,12.09,12.09,0,0,1,1.69-3.63,5.87,5.87,0,0,1,2.38-1.8,7.89,7.89,0,0,1,3.16-.63,5.87,5.87,0,0,1,2.67.52,2.76,2.76,0,0,1,1.36,1.37,3,3,0,0,1,.26,1.58,15.16,15.16,0,0,1-.59,2.27Z" style="fill:#fff"/><path id="438eb7d9-3bf1-400e-9576-ab1dc5cd26f4" data-name="Fill-31" d="M78.48,20.13H38.22a20.13,20.13,0,1,1,40.26,0" style="fill:#fff"/></g></g></g></g></g></g></svg>