<svg xmlns="http://www.w3.org/2000/svg" width="174" height="100" viewBox="0 0 174 100"><title>exp-4</title><g id="6023b81a-f899-4cc9-869c-8decf05ff82f" data-name="Слой 2"><g id="b1c89ea2-53fd-462c-bea0-132719152eca" data-name="Desktop_Content_W1194px"><g id="4ce3b014-bf3d-4eb3-a89d-68094a43e472" data-name="Expertise"><g id="9cb59ad1-42a0-4cf8-abc3-aafbe456bb4c" data-name="Content"><g id="5bf90741-d6d0-43cd-8452-f22b9635f37e" data-name="Investment and Rebalancingt"><g id="a752b25c-a51d-4d6b-b7af-5c81cc197605" data-name="Icon"><rect width="174" height="100" style="fill:none"/><path d="M128.13,82.26h-2.42V8.06h2.42a5.65,5.65,0,0,1,5.65,5.65V84.29a8.83,8.83,0,0,0-5.65-2Zm0-77.42h-5.65v12.9H91.84v6.45h1.61a3.23,3.23,0,0,1,3.23,3.23v5.7a6.4,6.4,0,0,0-3.23-.87H91.84v3.23h1.61a3.23,3.23,0,0,1,3.23,3.23H99.9V27.42A6.46,6.46,0,0,0,93.45,21h29V85.48h5.65a5.65,5.65,0,0,1,0,11.29H40.23V21H70.87a6.46,6.46,0,0,0-6.45,6.45V38.71h3.23a3.23,3.23,0,0,1,3.23-3.23h1.61V32.26H70.87a6.4,6.4,0,0,0-3.23.87v-5.7a3.23,3.23,0,0,1,3.23-3.23h1.61V17.74H37V100h91.13A8.88,8.88,0,0,0,137,91.13V13.71a8.88,8.88,0,0,0-8.87-8.87Z" style="fill:#5c5c5c"/><polygon points="80.55 35.48 83.77 35.48 83.77 48.39 80.55 48.39 80.55 35.48 80.55 35.48" style="fill:#5c5c5c"/><polygon points="80.55 51.61 83.77 51.61 83.77 54.84 80.55 54.84 80.55 51.61 80.55 51.61" style="fill:#5c5c5c"/><path d="M82.16,24.19A4.84,4.84,0,1,1,87,19.35a4.84,4.84,0,0,1-4.84,4.84ZM86.64,5.88,82.16,3.23,77.69,5.88a15.27,15.27,0,0,0-6.81,12.73V35.48H93.45V18.62A15.27,15.27,0,0,0,86.64,5.88Z" style="fill:#ff8752"/><polygon points="74.1 35.48 77.32 35.48 77.32 43.55 74.1 43.55 74.1 35.48 74.1 35.48" style="fill:#5c5c5c"/><polygon points="74.1 46.77 77.32 46.77 77.32 50 74.1 50 74.1 46.77 74.1 46.77" style="fill:#5c5c5c"/><polygon points="87 35.48 90.23 35.48 90.23 43.55 87 43.55 87 35.48 87 35.48" style="fill:#5c5c5c"/><polygon points="87 46.77 90.23 46.77 90.23 50 87 50 87 46.77 87 46.77" style="fill:#5c5c5c"/><path d="M74.1,62.9a1.61,1.61,0,1,1-1.61,1.61A1.61,1.61,0,0,1,74.1,62.9ZM90.23,80.65A1.61,1.61,0,1,1,88.61,79a1.61,1.61,0,0,1,1.61,1.61Zm22.58-27.42a1.61,1.61,0,1,1-1.61,1.61,1.61,1.61,0,0,1,1.61-1.61ZM49.9,88.71a1.61,1.61,0,1,1,1.61-1.61,1.61,1.61,0,0,1-1.61,1.61ZM69.26,64.52a4.78,4.78,0,0,0,.44,2L52.06,82.79a4.79,4.79,0,0,0-2.16-.53,4.84,4.84,0,1,0,4.84,4.84,4.78,4.78,0,0,0-.44-2L71.94,68.82a4.7,4.7,0,0,0,4.09.12l8.3,9.49a4.79,4.79,0,0,0-.56,2.21,4.84,4.84,0,0,0,9.68,0,4.78,4.78,0,0,0-.53-2.15l17.89-19.26a4.78,4.78,0,0,0,2,.44A4.84,4.84,0,1,0,108,54.84a4.78,4.78,0,0,0,.53,2.15L90.61,76.25a4.74,4.74,0,0,0-3.93,0l-8.3-9.49a4.79,4.79,0,0,0,.56-2.21,4.84,4.84,0,1,0-9.68,0Z" style="fill:#5c5c5c"/><path d="M82.16,16.13a3.23,3.23,0,1,1-3.23,3.23,3.23,3.23,0,0,1,3.23-3.23Zm0,9.68a6.45,6.45,0,1,0-6.45-6.45,6.46,6.46,0,0,0,6.45,6.45Z" style="fill:#5c5c5c"/></g></g></g></g></g></g></svg>