<svg xmlns="http://www.w3.org/2000/svg" width="174" height="100" viewBox="0 0 174 100"><title>exp-7</title><g id="bfc84b54-9f3a-4040-ad84-94fa9b8c0a50" data-name="Слой 2"><g id="fc2021fe-c792-4937-9c8a-c9751086c092" data-name="Desktop_Content_W1194px"><g id="f2567569-ee9f-4838-afed-21b4133ffbac" data-name="Expertise"><g id="74f10786-9314-4fc9-b7b2-64b302fefd81" data-name="Content"><g id="359e27d2-beb8-4f9c-b92a-222989d4f46e" data-name="Data Management"><g id="fcaf487b-7806-4b31-b067-d7562252c6ed" data-name="Icon"><rect width="174" height="100" style="fill:none"/><path d="M122.31,64.8a23.9,23.9,0,0,0-1.55-7.19,30.69,30.69,0,1,0-39.28-9,24.54,24.54,0,0,0-4.39,5.61,11.29,11.29,0,0,0-14.38,4.37A21,21,0,1,0,57.83,100h61.29a17.74,17.74,0,0,0,3.19-35.2Zm-29-34.16A34.52,34.52,0,0,1,95.69,17.9a39.1,39.1,0,0,0,8.91,1.4V29H103v3.23h1.61V42a39.25,39.25,0,0,0-8.92,1.41,34.68,34.68,0,0,1-2.37-12.75Zm26.54,13.76a38.07,38.07,0,0,0,2.42-12.15h11.28a27.27,27.27,0,0,1-6.23,15.87,36.7,36.7,0,0,0-7.46-3.72Zm-12,11.91V45.21a35.71,35.71,0,0,1,7.56,1.18,35,35,0,0,1-7.56,9.93Zm0-14.33V32.26H119a34.41,34.41,0,0,1-2.31,11.13,39.26,39.26,0,0,0-8.91-1.4Zm0-37a34.67,34.67,0,0,1,7.57,9.94,35.9,35.9,0,0,1-7.57,1.17Zm0,14.34a39.23,39.23,0,0,0,8.92-1.41A34.53,34.53,0,0,1,119,29H107.83ZM122.27,29a38.05,38.05,0,0,0-2.42-12.15,36.72,36.72,0,0,0,7.46-3.72A27.28,27.28,0,0,1,133.55,29Zm-3.71-15.12a37.25,37.25,0,0,0-7.33-10.21,27.33,27.33,0,0,1,13.83,7.07,35,35,0,0,1-6.5,3.13ZM104.6,5v11.1A35.74,35.74,0,0,1,97,14.9,35,35,0,0,1,104.6,5ZM93.87,13.9a35.47,35.47,0,0,1-6.5-3.13A27.31,27.31,0,0,1,101.2,3.71a37.3,37.3,0,0,0-7.33,10.2ZM104.6,45.21V56.33A34.67,34.67,0,0,1,97,46.39a35.76,35.76,0,0,1,7.57-1.17Zm-3.4,12.37a27.33,27.33,0,0,1-13.83-7.07,35.07,35.07,0,0,1,6.5-3.13,37.31,37.31,0,0,0,7.33,10.21Zm17.36-10.2a35.47,35.47,0,0,1,6.5,3.13,27.31,27.31,0,0,1-13.82,7.07,37.3,37.3,0,0,0,7.33-10.2ZM85.11,13.16a36.73,36.73,0,0,0,7.46,3.72,38.21,38.21,0,0,0-2.49,13.76,38.2,38.2,0,0,0,2.49,13.76,36.59,36.59,0,0,0-7.46,3.72,27.35,27.35,0,0,1,0-35Zm34,83.61H57.83a17.74,17.74,0,1,1,5.23-34.7l1.36.42L65,61.2a8.06,8.06,0,0,1,11.85-3.37l1.56,1.05.8-1.7a21.17,21.17,0,0,1,4.32-6A30.49,30.49,0,0,0,117.83,59,20.6,20.6,0,0,1,119.12,66v1.62l1.45.14a14.52,14.52,0,0,1-1.45,29Zm0,0" style="fill:#5c5c5c"/><path d="M112.67,27.42V22.3a9.6,9.6,0,0,0-13.21,3.51h-23A17.65,17.65,0,0,0,74.93,22l2.76-2.76L70.85,12.4l-2.76,2.76a17.72,17.72,0,0,0-3.81-1.57V9.68H54.6v3.91a17.72,17.72,0,0,0-3.81,1.57L48,12.4l-6.84,6.84L44,22a17.68,17.68,0,0,0-1.57,3.81H38.47v9.68h3.91A17.7,17.7,0,0,0,44,39.29L41.19,42,48,48.89l2.76-2.76A17.67,17.67,0,0,0,54.6,47.7v3.91h9.68V47.7a17.67,17.67,0,0,0,3.81-1.57l2.76,2.76L77.69,42l-2.76-2.76a17.61,17.61,0,0,0,1.57-3.81h23a9.66,9.66,0,0,0,8.37,4.84A9.56,9.56,0,0,0,112.67,39V33.87h-6.2l-1.86-3.23,1.86-3.23Zm-47.58,13H53.8l-5.65-9.78,5.65-9.78H65.09l5.65,9.78Zm0,0" style="fill:#ff8752"/><path d="M66,41.94l6.58-11.29L66,19.35H52.87L46.29,30.65l6.58,11.29ZM54.73,22.58h9.43l4.71,8.06-4.71,8.06H54.73L50,30.65Zm0,0" style="fill:#5c5c5c"/></g></g></g></g></g></g></svg>