<svg xmlns="http://www.w3.org/2000/svg" width="174" height="100.27" viewBox="0 0 174 100.27"><title>exp-2</title><g id="978bac77-10df-44ec-85a3-9e492236832e" data-name="Слой 2"><g id="e7d5b7d9-b43f-43da-85ae-f8ddc680f5cc" data-name="Desktop_Content_W1194px"><g id="eeb1bd7a-cbef-483a-80de-93ff438fac70" data-name="Expertise"><g id="e29cdd3e-9d0e-4420-b4b3-7a485dc03823" data-name="Content"><g id="729259b6-a5a4-417b-ad62-29bad4a43e49" data-name="Banking and Transactions"><g id="d846ab28-9c24-4422-a908-60f19a68c625" data-name="Icon"><rect y="0.27" width="174" height="100" style="fill:none"/><path d="M36.77,100.27h100V89h-100ZM40,92.21h93.55V97H40Zm0,0" style="fill:#5c5c5c"/><path d="M135.59,22.86,108.17,6.73H97.82L86.76,0,75.71,6.73H65.36L37.94,22.86H36.77V34.15h100V22.86ZM107.29,10l21.93,12.9h-4.92L103.11,10ZM66.24,10h4.18l-21.2,12.9H44.3Zm67.3,21H40V26.08H68.7V22.86H55.42L86.76,3.78l31.35,19.08H104.83v3.23h28.71Zm0,0" style="fill:#5c5c5c"/><path d="M40,79.31v8.06H59.35V79.31H54.51V43.82h4.84V35.76H40v8.06h4.84V79.31Zm16.13,3.23v1.61H43.22V82.53ZM43.22,40.6V39h12.9V40.6Zm4.84,3.23h3.23V79.31H48.05Zm0,0" style="fill:#5c5c5c"/><path d="M64.18,79.31v8.06H83.54V79.31H78.7V43.82h4.84V35.76H64.18v8.06H69V79.31Zm16.13,3.23v1.61H67.41V82.53ZM67.41,40.6V39h12.9V40.6Zm4.84,3.23h3.23V79.31H72.25Zm0,0" style="fill:#5c5c5c"/><path d="M90,79.31v8.06h19.35V79.31h-4.84V43.82h4.84V35.76H90v8.06h4.84V79.31Zm16.13,3.23v1.61H93.22V82.53ZM93.22,40.6V39h12.9V40.6Zm4.84,3.23h3.23V79.31H98.06Zm0,0" style="fill:#5c5c5c"/><path d="M114.18,79.31v8.06h19.36V79.31H128.7V43.82h4.84V35.76H114.18v8.06H119V79.31Zm16.13,3.23v1.61h-12.9V82.53ZM117.41,40.6V39h12.9V40.6Zm4.84,3.23h3.23V79.31h-3.23Zm0,0" style="fill:#5c5c5c"/><path d="M86.76,29a9.67,9.67,0,1,1,9.67-9.67A9.68,9.68,0,0,1,86.76,29Zm0,0" style="fill:#ff8752"/></g></g></g></g></g></g></svg>