<svg xmlns="http://www.w3.org/2000/svg" width="174" height="100" viewBox="0 0 174 100"><title>exp-5</title><g id="5dfa8073-f476-4fcf-9a5e-7788d8454407" data-name="Слой 2"><g id="d7f11c92-2dd4-4dce-bc38-21182ae67b32" data-name="Desktop_Content_W1194px"><g id="b88e4d80-9033-424d-94b8-9d244266de8d" data-name="Expertise"><g id="f57098d5-b569-4144-9ddc-4327a8004026" data-name="Content"><g id="03afd5cd-196d-45eb-af86-12cebae66f00" data-name="Risk Management"><g id="6fd92c78-2adc-42d2-8164-3d68e64d4519" data-name="Icon"><rect width="174" height="100" style="fill:none"/><path d="M41.84,8.06V77.42h8.23a8.06,8.06,0,1,1,15.8,0H79.1a8.06,8.06,0,1,1,15.8,0h13.23a8.06,8.06,0,1,1,15.8,0h8.23V8.06Z" style="fill:#ff8752"/><path d="M95.54,22.11l2.75,2.75a37.68,37.68,0,0,0-19,12.84,47.55,47.55,0,0,0-10,25.13l3.22.17A44.87,44.87,0,0,1,81.8,39.73,34.75,34.75,0,0,1,99.32,27.93l-1,3.93,3.13.78,1.84-7.34-5.48-5.48-2.28,2.28Z" style="fill:#5c5c5c"/><path d="M113.61,21a2.42,2.42,0,1,1-2.42,2.42A2.42,2.42,0,0,1,113.61,21Zm0,8.06A5.65,5.65,0,1,0,108,23.39,5.65,5.65,0,0,0,113.61,29Z" style="fill:#5c5c5c"/><polygon points="68.78 26.95 71.68 24.05 74.57 26.95 76.85 24.67 73.96 21.77 76.85 18.88 74.57 16.6 71.68 19.49 68.78 16.6 66.5 18.88 69.4 21.77 66.5 24.67 68.78 26.95 68.78 26.95" style="fill:#fff"/><polygon points="52.66 46.3 55.55 43.41 58.44 46.3 60.72 44.02 57.83 41.13 60.72 38.24 58.44 35.96 55.55 38.85 52.66 35.96 50.38 38.24 53.27 41.13 50.38 44.02 52.66 46.3 52.66 46.3" style="fill:#fff"/><polygon points="100.38 45.63 97.48 48.53 94.59 45.63 92.31 47.91 95.2 50.81 92.31 53.7 94.59 55.98 97.48 53.09 100.38 55.98 102.66 53.7 99.77 50.81 102.66 47.91 100.38 45.63 100.38 45.63" style="fill:#fff"/><path d="M133.77,6.45H40.23V3.23h93.55V6.45ZM37,0V9.68H137V0Z" style="fill:#5c5c5c"/><path d="M66,96.77H49.9V95.16a8.06,8.06,0,0,1,16.13,0v1.61Zm-14.52-21A6.45,6.45,0,1,1,58,82.26a6.46,6.46,0,0,1-6.45-6.45ZM62,84.61a9.68,9.68,0,1,0-8,0,11.3,11.3,0,0,0-7.3,10.55V100H69.26V95.16A11.3,11.3,0,0,0,62,84.61Z" style="fill:#5c5c5c"/><path d="M95.06,96.77H78.94V95.16a8.06,8.06,0,0,1,16.13,0v1.61Zm-14.52-21A6.45,6.45,0,1,1,87,82.26a6.46,6.46,0,0,1-6.45-6.45ZM91,84.61a9.68,9.68,0,1,0-8,0,11.3,11.3,0,0,0-7.3,10.55V100H98.29V95.16A11.3,11.3,0,0,0,91,84.61Z" style="fill:#5c5c5c"/><path d="M124.1,96.77H108V95.16a8.06,8.06,0,1,1,16.13,0v1.61Zm-14.52-21A6.45,6.45,0,1,1,116,82.26a6.46,6.46,0,0,1-6.45-6.45ZM120,84.61a9.68,9.68,0,1,0-8,0,11.3,11.3,0,0,0-7.3,10.55V100h22.58V95.16A11.3,11.3,0,0,0,120,84.61Z" style="fill:#5c5c5c"/></g></g></g></g></g></g></svg>