<svg xmlns="http://www.w3.org/2000/svg" xmlns:xlink="http://www.w3.org/1999/xlink" width="174" height="100" viewBox="0 0 174 100"><defs><clipPath id="93b71f15-b024-4f01-9db2-026d67b296d8"><rect x="40.48" width="84.66" height="100" style="fill:none"/></clipPath></defs><title>exp-6</title><g id="9396523b-0eea-4840-9612-cc21f1060256" data-name="Слой 2"><g id="44cbf725-f7c0-46b9-bfd0-b68f09eee429" data-name="Desktop_Content_W1194px"><g id="2183444d-97ad-477f-ba97-c9abbf86dcd5" data-name="Expertise"><g id="fb548f2d-7bfa-47de-9afb-06d258f15791" data-name="Content"><g id="e9f70519-5b48-4cbd-b32e-9d3729725dad" data-name="Robo-Advising"><g id="c33dcf46-2c76-43bd-a5c9-895eebd34cbe" data-name="Icon"><rect width="174" height="100" style="fill:none"/><g style="clip-path:url(#93b71f15-b024-4f01-9db2-026d67b296d8)"><polygon points="96.1 48.37 79.96 48.37 76.73 45.14 76.73 29.01 79.96 25.78 96.1 25.78 99.32 29.01 99.32 45.14 96.1 48.37 96.1 48.37" style="fill:#ff8752"/><path d="M125.13,37.09A37.23,37.23,0,0,0,88.53,0h-.47A37.37,37.37,0,0,0,51.72,29.68a36.21,36.21,0,0,0-.34,13.07L40.48,62.27l12.06,3.45,0,19.76H68.69V100h3.23V82.25H55.79l0-19-10.48-3,9.47-16.94-.1-.56a33,33,0,0,1,.22-12.43A34.13,34.13,0,0,1,88.06,3.23h.43a34,34,0,0,1,33.42,33.86V43a39.26,39.26,0,0,1-17,32.37l-.7.48V100h3.23V77.52A42.49,42.49,0,0,0,125.14,43V37.09Z" style="fill:#5c5c5c"/></g><path d="M94.48,14.49a1.61,1.61,0,1,1,1.61-1.61,1.61,1.61,0,0,1-1.61,1.61Zm0-6.45a4.83,4.83,0,0,0-1.61,9.38v8.36H96.1V17.42A4.83,4.83,0,0,0,94.48,8Z" style="fill:#5c5c5c"/><path d="M81.58,14.49a1.61,1.61,0,1,1,1.61-1.61,1.61,1.61,0,0,1-1.61,1.61Zm0-6.45A4.83,4.83,0,0,0,80,17.42v8.36h3.23V17.42A4.83,4.83,0,0,0,81.58,8Z" style="fill:#5c5c5c"/><path d="M109,19.33a1.61,1.61,0,1,1-1.61,1.61A1.61,1.61,0,0,1,109,19.33ZM103.67,29H99.32v3.23h5.33l6-4V25.49a4.84,4.84,0,1,0-3.23,0v1L103.67,29Z" style="fill:#5c5c5c"/><path d="M104.16,58.05a1.61,1.61,0,1,1,1.61,1.61,1.61,1.61,0,0,1-1.61-1.61Zm9.68-16.13a1.61,1.61,0,1,1-1.61,1.61,1.61,1.61,0,0,1,1.61-1.61Zm-3.23,16.13a4.83,4.83,0,0,0-3.23-4.54V45.14h1.91a4.84,4.84,0,1,0,0-3.23h-10v3.23h4.84v8.36a4.83,4.83,0,1,0,6.45,4.54Z" style="fill:#5c5c5c"/><path d="M67.05,56.44a1.61,1.61,0,1,1,1.61-1.61,1.61,1.61,0,0,1-1.61,1.61Zm5.33-11.29h4.35V41.92H71.41l-6,4v4.39a4.84,4.84,0,1,0,3.23,0V47.62l3.72-2.48Z" style="fill:#5c5c5c"/><path d="M62.21,32.24a1.61,1.61,0,1,1,1.61-1.61,1.61,1.61,0,0,1-1.61,1.61Zm8.07-12.91a1.61,1.61,0,1,1-1.61,1.61,1.61,1.61,0,0,1,1.61-1.61ZM66.76,29a4.84,4.84,0,1,0,0,3.23h10V29H71.9V25.49a4.84,4.84,0,1,0-3.23,0V29Z" style="fill:#5c5c5c"/><path d="M94.48,61.28a1.61,1.61,0,1,1,1.61-1.61,1.61,1.61,0,0,1-1.61,1.61Zm1.61-6.16V48.37H92.87v6.75a4.84,4.84,0,1,0,3.23,0Z" style="fill:#5c5c5c"/><path d="M81.58,61.28a1.61,1.61,0,1,1,1.61-1.61,1.61,1.61,0,0,1-1.61,1.61Zm1.61-6.16V48.37H80v6.75a4.84,4.84,0,1,0,3.23,0Z" style="fill:#5c5c5c"/><polygon points="81.58 32.24 94.48 32.24 94.48 35.46 81.58 35.46 81.58 32.24 81.58 32.24" style="fill:#5c5c5c"/><polygon points="81.58 38.69 89.64 38.69 89.64 41.92 81.58 41.92 81.58 38.69 81.58 38.69" style="fill:#5c5c5c"/></g></g></g></g></g></g></svg>