<svg xmlns="http://www.w3.org/2000/svg" width="174" height="100" viewBox="0 0 174 100"><title>exp-8</title><g id="6db99375-675a-42e1-9f4f-78f981ada79e" data-name="Слой 2"><g id="f694fe1d-ccec-4d8f-b563-fe146fef751a" data-name="Desktop_Content_W1194px"><g id="fcd70678-4078-434e-b795-9df7dc596e36" data-name="Expertise"><g id="f5e89860-ae4d-474f-8588-3eb494b05536" data-name="Content"><g id="b75a374d-66fa-47ff-8a8c-1c3cf9d3ff2f" data-name="Analytics and Reporting"><g id="b06e8a10-0a60-4262-8990-15ecba4a0da1" data-name="Icon"><rect width="174" height="100" style="fill:none"/><path d="M93.45,80.65H80.55V75a25.48,25.48,0,0,1-6.65-2.76l-4,4-9.12-9.12,4-4A25.48,25.48,0,0,1,62,56.45H56.35V43.55H62a25.48,25.48,0,0,1,2.76-6.65l-4-4,9.12-9.12,4,4A25.48,25.48,0,0,1,80.55,25V19.35h12.9V25a25.48,25.48,0,0,1,6.65,2.76l4-4,9.12,9.12-4,4A25.48,25.48,0,0,1,112,43.55h5.65v12.9H112a25.48,25.48,0,0,1-2.76,6.65l4,4-9.12,9.12-4-4A25.48,25.48,0,0,1,93.45,75v5.65Z" style="fill:#ff8752"/><path d="M87,37.1a9.67,9.67,0,0,1,5.53,17.61l-.69.48v2.87H88.61V51.32a4.84,4.84,0,1,0-3.23,0v6.75H82.16V55.19l-.69-.48A9.67,9.67,0,0,1,87,37.1ZM91.84,62.9H82.16V61.29h9.68V62.9Zm-12.9-6.06v1.23H77.32v3.23h1.61v4.84H95.06V61.29h1.61V58.06H95.06V56.84a12.9,12.9,0,1,0-16.13,0Z" style="fill:#5c5c5c"/><path d="M98.29,0H64.9a13.32,13.32,0,0,0-9.58,22.58h-3.8V25.8h9.32l1.92-7.67-3.13-.78-1,3.92L58.32,21A10.1,10.1,0,0,1,64.9,3.23h33.4V0Z" style="fill:#5c5c5c"/><path d="M54.35,77.37l3.92,1-.28.33A10.1,10.1,0,0,1,40.23,72.1V38.71H37V72.1A13.32,13.32,0,0,0,50.3,85.43c.32,0,.65,0,1,0a13.2,13.2,0,0,0,8.3-3.71v3.8H62.8V76.16l-7.67-1.92-.78,3.13Z" style="fill:#5c5c5c"/><path d="M111.24,81.87l3.13.78,1-3.92.33.28a10.1,10.1,0,0,1-6.57,17.76H75.71V100h33.4a13.32,13.32,0,0,0,9.58-22.58h3.8V74.2h-9.32l-1.92,7.67Z" style="fill:#5c5c5c"/><path d="M132.45,17.87a13.32,13.32,0,0,0-18,.45v-3.8H111.2v9.32l7.67,1.92.78-3.13-3.92-1,.28-.33a10.1,10.1,0,0,1,17.76,6.57v33.4H137V27.9a13.33,13.33,0,0,0-4.55-10Z" style="fill:#5c5c5c"/><path d="M85.39,46.77A1.61,1.61,0,1,1,87,48.39a1.61,1.61,0,0,1-1.61-1.61Z" style="fill:#fff"/></g></g></g></g></g></g></svg>