<svg xmlns="http://www.w3.org/2000/svg" width="174" height="100" viewBox="0 0 174 100"><title>exp-3</title><g id="877887ae-a2c5-4dbf-8a72-8eb34c99e8c2" data-name="Слой 2"><g id="9b1f696b-aa38-43ba-bded-ff58058dbdbf" data-name="Desktop_Content_W1194px"><g id="57a58af1-e5d7-400f-be4b-2daae8475196" data-name="Expertise"><g id="98a5567e-577e-4503-88c4-5363bbfaef96" data-name="Content"><g id="6dd89d0f-c3ba-434b-94c9-6aa1cb39a455" data-name="Planning"><g id="874ea9a8-634e-4cea-8573-2391f3b7ed2b" data-name="Icon"><rect width="174" height="100" style="fill:none"/><path d="M125.71,19.35a8.06,8.06,0,1,1-8.06,8.06,8.06,8.06,0,0,1,8.06-8.06Z" style="fill:#ff8752"/><path d="M101.52,17.74a1.61,1.61,0,1,1-1.61,1.61,1.61,1.61,0,0,1,1.61-1.61ZM83.77,40.32a1.61,1.61,0,1,1,1.61-1.61,1.61,1.61,0,0,1-1.61,1.61ZM67.65,24.19a1.61,1.61,0,1,1,1.61,1.61,1.61,1.61,0,0,1-1.61-1.61Zm-14.52,21a1.61,1.61,0,1,1,1.61-1.61,1.61,1.61,0,0,1-1.61,1.61Zm48.39-21a4.84,4.84,0,1,0-4.84-4.84,4.79,4.79,0,0,0,.54,2.18l-6.46,7.18-2.4-3.77-2.72,1.73,2.88,4.53L85.74,34.3a4.7,4.7,0,0,0-4,.06l-8.09-8.09a4.79,4.79,0,0,0,.48-2.07,4.84,4.84,0,1,0-9.68,0A4.78,4.78,0,0,0,65,26.5L55,39.08a4.79,4.79,0,0,0-1.83-.37A4.84,4.84,0,1,0,58,43.55a4.78,4.78,0,0,0-.61-2.3L67.42,28.67a4.72,4.72,0,0,0,3.91-.12l8.09,8.09a4.79,4.79,0,0,0-.48,2.07,4.84,4.84,0,1,0,9.68,0,4.79,4.79,0,0,0-.54-2.18L90.32,34l6.61,10.39,2.72-1.73L92.56,31.54l7-7.77a4.81,4.81,0,0,0,2,.42Z" style="fill:#5c5c5c"/><path d="M135.39,69.35V47.17a9.94,9.94,0,0,0-8.54-10A9.64,9.64,0,0,0,121,38.33c-.23.13-13,8.45-13,8.45l-7.26-7.26a3.42,3.42,0,0,0-4.84,0h0a3.42,3.42,0,0,0,0,4.84l8.28,8.28a4.53,4.53,0,0,0,5.05.94l6.83-3V69.35Z" style="fill:#ff8752"/><path d="M133.77,6.45H40.23V3.23h93.55V6.45ZM58,69.35a6.45,6.45,0,1,1-6.45,6.45A6.46,6.46,0,0,1,58,69.35ZM66,95.16v1.61H49.9V95.16a8.06,8.06,0,0,1,16.13,0ZM87,69.35a6.45,6.45,0,1,1-6.45,6.45A6.46,6.46,0,0,1,87,69.35Zm8.06,25.81v1.61H78.94V95.16a8.06,8.06,0,0,1,16.13,0Zm21-25.81a6.45,6.45,0,1,1-6.45,6.45A6.46,6.46,0,0,1,116,69.35Zm8.06,25.81v1.61H108V95.16a8.06,8.06,0,1,1,16.13,0ZM137,0H37V9.68h4.84V77.42h6.6A9.7,9.7,0,0,0,54,84.61a11.3,11.3,0,0,0-7.3,10.55V100H69.26V95.16A11.3,11.3,0,0,0,62,84.61a9.7,9.7,0,0,0,5.54-7.19h10A9.7,9.7,0,0,0,83,84.61a11.3,11.3,0,0,0-7.3,10.55V100H98.29V95.16A11.3,11.3,0,0,0,91,84.61a9.7,9.7,0,0,0,5.54-7.19h10A9.7,9.7,0,0,0,112,84.61a11.3,11.3,0,0,0-7.3,10.55V100h22.58V95.16A11.3,11.3,0,0,0,120,84.61,9.67,9.67,0,1,0,106.5,74.19h-10a9.67,9.67,0,0,0-19.06,0h-10a9.67,9.67,0,0,0-19.06,0H45.06V9.68h83.87v8.06h3.23V9.68H137V0Z" style="fill:#5c5c5c"/><polygon points="62.81 51.61 88.61 51.61 88.61 54.84 62.81 54.84 62.81 51.61 62.81 51.61" style="fill:#5c5c5c"/><polygon points="67.64 58.06 88.61 58.06 88.61 61.29 67.64 61.29 67.64 58.06 67.64 58.06" style="fill:#5c5c5c"/></g></g></g></g></g></g></svg>