<svg xmlns="http://www.w3.org/2000/svg" width="174" height="100" viewBox="0 0 174 100"><title>exp-1</title><g id="6e974c58-462d-4c03-995f-b719bc82ac09" data-name="Слой 2"><g id="451cb231-2dda-4d0f-9e21-e4d21a357b0c" data-name="Desktop_Content_W1194px"><g id="8485f0da-2edf-4052-8abf-79fbbd15d88d" data-name="Expertise"><g id="cdac3638-4d07-41d0-9a3a-57b21d462cf2" data-name="Content"><g id="7f9fbf0f-3e9a-4d46-b39d-29a905aeca8e" data-name="Clients and Custodians"><g id="3d50caa8-cfbd-4434-8052-bab1c50a5ae2" data-name="Icon"><rect width="174" height="100" style="fill:none"/><path d="M107.18,49.3a30.64,30.64,0,0,0-5.61-3.92,39,39,0,0,0,2.55-13h10.26a27.21,27.21,0,0,1-7.2,16.91ZM59.81,32.39H70.07a39,39,0,0,0,2.55,13A31,31,0,0,0,67,49.28a27.22,27.22,0,0,1-7.18-16.89ZM67,12.26a30.64,30.64,0,0,0,5.64,3.94,38.81,38.81,0,0,0-2.57,13H59.81A27.22,27.22,0,0,1,67,12.26ZM88.71,41.8V32.39h12.16A36.12,36.12,0,0,1,98.65,44a30.46,30.46,0,0,0-9.95-2.18Zm11.54,6.56a27.26,27.26,0,0,1,4.62,3.2,27.28,27.28,0,0,1-11.55,5.85,30.88,30.88,0,0,0,6.93-9ZM88.71,56.94V45A27.35,27.35,0,0,1,97.31,47a27.05,27.05,0,0,1-8.6,10Zm-7.82.47a27.27,27.27,0,0,1-11.55-5.85A27.71,27.71,0,0,1,74,48.36a30.91,30.91,0,0,0,6.93,9Zm4.6-37.65v9.41H73.3a35.7,35.7,0,0,1,2.26-11.59,30.4,30.4,0,0,0,9.92,2.17ZM93.26,4.14A27.27,27.27,0,0,1,104.87,10a27.44,27.44,0,0,1-4.64,3.23,30.94,30.94,0,0,0-7-9.1Zm-4.55.52a27.76,27.76,0,0,1,8.61,10,27.22,27.22,0,0,1-8.61,1.9V4.66ZM75.35,10.79c-.5.8-1,1.62-1.38,2.45A27.37,27.37,0,0,1,69.33,10,27.27,27.27,0,0,1,81,4.13c-.59.53-1.19,1.09-1.81,1.74l2.34,2.22a25.78,25.78,0,0,1,4-3.44V16.54a27.18,27.18,0,0,1-8.62-1.9c.38-.73.77-1.45,1.21-2.14l-2.73-1.71Zm2.48,32.37c-.76.24-1.51.53-2.26.83a35.73,35.73,0,0,1-2.25-11.6H85.49V41.8c-.48,0-1,0-1.43.07l.32,3.2c.37,0,.74,0,1.12,0V56.91a27.71,27.71,0,0,1-8.56-10c.62-.25,1.24-.52,1.89-.72l-1-3.07Zm36.55-14H104.12c0-.9-.08-1.79-.16-2.64l-3.21.3c.07.76.11,1.55.14,2.34H88.71V19.76a30.45,30.45,0,0,0,9.92-2.17,31.5,31.5,0,0,1,1.17,3.6l3.12-.8a35.27,35.27,0,0,0-1.37-4.19,30.66,30.66,0,0,0,5.64-3.94,27.23,27.23,0,0,1,7.2,16.91ZM87.1.19a30.59,30.59,0,1,0,30.59,30.59A30.62,30.62,0,0,0,87.1.19Z" style="fill:#5c5c5c"/><path d="M133.78,96.78h-16.1V83.9h16.1V96.78ZM119.29,71.51l6.44-9.66V58.15a1.61,1.61,0,1,1,3.22,0V69.41h3.22V58.15a4.84,4.84,0,0,0-4.83-4.83V50.1l-1.2-8.55a1.69,1.69,0,0,1,2.62-1.64,1.67,1.67,0,0,1,.73,1.17l1.11,7.73,3.19,15.94v9.34l-1.32,6.6H119.29V71.51ZM114.8,61a1.81,1.81,0,1,1,2.55-2.55l4,4,0,0-2,3.06L114.8,61ZM118,52a1.85,1.85,0,0,1,2.55,0l3.06,3.06a4.78,4.78,0,0,0-1.11,3v.94l-2.89-2.89L118,54.59A1.81,1.81,0,0,1,118,52Zm3.22-6.44a1.78,1.78,0,0,1,2.19-.24l.69,4.85V51l-1.28-1.28-1.61-1.61a1.81,1.81,0,0,1,0-2.55Zm15.73,29,0-10-3.24-16.33-1.09-7.64a4.91,4.91,0,0,0-9.73,1.28,5,5,0,0,0-5.14,6.68,4.8,4.8,0,0,0-2.06,1.19A5,5,0,0,0,114.58,55a4.8,4.8,0,0,0-2.06,1.19,5,5,0,0,0,0,7.11l5,5-1.47,2.21V80.68h-1.61V100H137V80.68h-1.26L137,74.56Z" style="fill:#5c5c5c"/><path d="M59.2,61,54.63,65.6l-2-3.06,0,0h0l4-4a1.81,1.81,0,0,1,2.55,0,1.81,1.81,0,0,1,0,2.55ZM41.54,80.68l-1.32-6.6V64.74l3.2-16,1.09-7.64a1.69,1.69,0,0,1,2.08-1.4,1.69,1.69,0,0,1,1.26,1.88l-1.19,8.32v3.45h0a4.84,4.84,0,0,0-4.83,4.83V69.41H45V58.15a1.61,1.61,0,1,1,3.22,0v3.71l6.44,9.66v9.17Zm14.78,16.1H40.22V83.9h16.1V96.78ZM52.76,45.6a1.81,1.81,0,0,1,0,2.55l-1.61,1.61L49.88,51v-.83l.69-4.85a1.78,1.78,0,0,1,2.19.24Zm3.22,9L54.37,56.2l-2.89,2.88v-.94a4.78,4.78,0,0,0-1.11-3L53.43,52A1.81,1.81,0,0,1,56,54.59Zm3.44.39a4.94,4.94,0,0,0-3.22-6.44,5,5,0,0,0-5.15-6.65,4.91,4.91,0,0,0-9.73-1.28l-1.08,7.56L37,64.27l0,10,1.26,6.44H37V100H59.54V80.68H57.93V70.54l-1.47-2.21,5-5A5,5,0,0,0,59.43,55Z" style="fill:#5c5c5c"/><path d="M78.36,13.69a4.51,4.51,0,1,1,4.51-4.51,4.51,4.51,0,0,1-4.51,4.51Z" style="fill:#ff8752"/><path d="M102,28.19a4.51,4.51,0,1,1,4.51-4.51A4.51,4.51,0,0,1,102,28.19Z" style="fill:#ff8752"/><path d="M81.22,48.49A4.51,4.51,0,1,1,85.73,44a4.51,4.51,0,0,1-4.51,4.51Z" style="fill:#ff8752"/></g></g></g></g></g></g></svg>