<svg xmlns="http://www.w3.org/2000/svg" width="199" height="44" viewBox="0 0 199 44"><g id="1a4d052e-f73b-48fb-a5fe-804f2f81ee83" data-name="Слой 2"><g id="bfcb735e-0537-467b-96cd-f6ce81951e28" data-name="Слой 1"><g id="6780075e-7747-490e-a89f-5b51095eb912" data-name="CLIENTS-BANNERS"><g id="6c93e791-f944-4af9-841d-1093faeb3ab7" data-name="Hosted-PCI"><g id="328aa442-633b-4bf2-b239-7dccbf0976b1" data-name="Logo"><g id="52c94b26-38e2-4169-be95-297869a9df9d" data-name="HostedPCI"><path id="c6ef5ec2-f94b-47dc-8390-ed55233dda6b" data-name="Fill-1" d="M134,28.51l12-6.78,5.79,11.5S163.39,8.31,176,3c0,0-1.34,5.53,0,15.63,0,.52-12,6.93-23.3,25.36.3.44-18.7-15.48-18.7-15.48" style="fill:#fff"/><path id="bf84ec39-2e4d-4d37-9aaa-7da7023691a1" data-name="Fill-3" d="M170.45,32.35v5.3h1.08a3.53,3.53,0,0,0,.87-.08,1.29,1.29,0,0,0,.58-.33,1.76,1.76,0,0,0,.38-.77,5.83,5.83,0,0,0,.15-1.46,5.34,5.34,0,0,0-.15-1.42,1.89,1.89,0,0,0-.41-.77,1.33,1.33,0,0,0-.67-.38,5.9,5.9,0,0,0-1.19-.08ZM169,31h2.64a4.65,4.65,0,0,1,1.36.15,2.36,2.36,0,0,1,1.08.74,3.6,3.6,0,0,1,.68,1.3,6.55,6.55,0,0,1,.23,1.89,5.83,5.83,0,0,1-.22,1.7,3.62,3.62,0,0,1-.77,1.41,2.48,2.48,0,0,1-1,.64,3.93,3.93,0,0,1-1.28.17H169Z" style="fill:#fff"/><path id="4fa3d28d-540f-49ab-9935-5b3093a8b57c" data-name="Fill-5" d="M177.5,34a3,3,0,0,0,.57,2,1.86,1.86,0,0,0,2.87,0,3.1,3.1,0,0,0,.56-2,3.06,3.06,0,0,0-.54-2,1.92,1.92,0,0,0-2.9,0,3.07,3.07,0,0,0-.55,2M176,34a5.23,5.23,0,0,1,.33-2A3.67,3.67,0,0,1,177,31a2.81,2.81,0,0,1,.93-.7,3.73,3.73,0,0,1,1.56-.31A3.27,3.27,0,0,1,182,31.06,4.24,4.24,0,0,1,183,34a4.23,4.23,0,0,1-1,2.93,3.61,3.61,0,0,1-5.1,0A4.17,4.17,0,0,1,176,34" style="fill:#fff"/><polygon id="386f82d6-c348-4e92-8cb7-5ede06c64f43" data-name="Fill-7" points="184 39 184 31 185.49 31 188.58 36.34 188.58 31 190 31 190 39 188.47 39 185.42 33.78 185.42 39 184 39" style="fill:#fff"/><polygon id="52ec3acc-5c17-4070-bf92-532957876c4d" data-name="Fill-9" points="192 39 192 31 197.85 31 197.85 32.35 193.59 32.35 193.59 34.13 197.55 34.13 197.55 35.47 193.59 35.47 193.59 37.65 198 37.65 198 39 192 39" style="fill:#fff"/><polygon id="d17081ff-5877-4101-b5ed-0889864f2c39" data-name="Fill-11" points="198 37 199 37 199 39 198 39 198 37" style="fill:#fff"/><path id="9928b1fc-e330-4c6d-a4fb-6e5b6a1db973" data-name="Fill-13" d="M47,35a3.57,3.57,0,0,0,.87.08c1.27,0,2-.6,2-1.7s-.76-1.56-1.92-1.56a4.47,4.47,0,0,0-1,.08Zm-1-3.83A12.44,12.44,0,0,1,48,31a3.39,3.39,0,0,1,2.28.66A2.11,2.11,0,0,1,51,33.32a2.31,2.31,0,0,1-.63,1.7,3.41,3.41,0,0,1-2.48.87,3.68,3.68,0,0,1-.84-.07V39H46Z" style="fill:#fff"/><path id="037af1ef-8db3-43a2-8d40-31bf025fe17d" data-name="Fill-14" d="M58,39.59A4.65,4.65,0,0,1,55.9,40c-2.23,0-3.9-1.55-3.9-4.42S53.68,31,56.13,31a3.89,3.89,0,0,1,1.87.39l-.25.92a3.42,3.42,0,0,0-1.59-.36c-1.85,0-3.08,1.31-3.08,3.6,0,2.14,1.11,3.51,3,3.51a3.75,3.75,0,0,0,1.66-.36Z" style="fill:#fff"/><polygon id="2fbb179c-b820-4c28-9e3a-fb4ebe9198b8" data-name="Fill-15" points="61 39 60 39 60 31 61 31 61 39" style="fill:#fff"/><path id="2acd02dd-bef9-4646-b210-18fa638ec83e" data-name="Fill-16" d="M71,39.59A4.65,4.65,0,0,1,68.9,40c-2.23,0-3.9-1.55-3.9-4.42S66.68,31,69.13,31a3.89,3.89,0,0,1,1.87.39l-.25.92a3.42,3.42,0,0,0-1.59-.36c-1.85,0-3.08,1.31-3.08,3.6,0,2.14,1.11,3.51,3,3.51a3.75,3.75,0,0,0,1.66-.36Z" style="fill:#fff"/><path id="cdfa7f36-1f7d-4e5b-abd2-3cf2d9682ffc" data-name="Fill-17" d="M72.06,35.55c0,1.86.89,3.53,2.44,3.53S77,37.44,77,35.46c0-1.73-.8-3.54-2.44-3.54s-2.45,1.72-2.45,3.63M78,35.41c0,3-1.6,4.59-3.56,4.59S71,38.22,71,35.58,72.51,31,74.56,31,78,32.82,78,35.41" style="fill:#fff"/><path id="a50357b7-566b-4dad-b079-43b8f66de4dd" data-name="Fill-18" d="M86.81,35.49c-.06-1.12-.13-2.46-.12-3.45h0c-.27.94-.59,1.93-1,3L84.29,39h-.77l-1.27-3.81C81.88,34,81.57,33,81.35,32h0c0,1-.08,2.34-.15,3.54L81,39H80l.55-8h1.29l1.34,3.87c.33,1,.59,1.86.79,2.69h0c.2-.81.48-1.69.83-2.69L86.22,31h1.29L88,39H87Z" style="fill:#fff"/><path id="4c474e40-e060-484e-bd62-8b81983a4289" data-name="Fill-19" d="M91,35a3.57,3.57,0,0,0,.87.08c1.27,0,2-.6,2-1.7s-.76-1.56-1.92-1.56a4.47,4.47,0,0,0-1,.08Zm-1-3.83A12.44,12.44,0,0,1,92,31a3.39,3.39,0,0,1,2.28.66A2.11,2.11,0,0,1,95,33.32a2.31,2.31,0,0,1-.63,1.7,3.41,3.41,0,0,1-2.48.87,3.68,3.68,0,0,1-.84-.07V39H90Z" style="fill:#fff"/><polygon id="fa0dae98-3641-4c47-947f-dceca0178987" data-name="Fill-20" points="96 31 96.93 31 96.93 38.13 100 38.13 100 39 96 39 96 31" style="fill:#fff"/><polygon id="da09b245-532f-4140-a85b-f858907e1622" data-name="Fill-21" points="103 39 102 39 102 31 103 31 103 39" style="fill:#fff"/><path id="cab32235-27cd-4fbb-a8c5-6d77ba05f270" data-name="Fill-22" d="M108.73,35.68l-.82-2.3c-.19-.52-.31-1-.43-1.46h0c-.12.47-.26,1-.42,1.45l-.82,2.31Zm-2.74.81L105.12,39H104l2.84-8h1.3L111,39h-1.15L109,36.48Z" style="fill:#fff"/><path id="2f305502-b796-425f-8e30-a35113ea27e6" data-name="Fill-23" d="M112,39V31h1.13l2.56,4a22.58,22.58,0,0,1,1.43,2.6h0c-.1-1.07-.12-2-.12-3.29V31h1v8h-1l-2.54-4.06a25.39,25.39,0,0,1-1.49-2.67h0c.06,1,.08,2,.08,3.3V39Z" style="fill:#fff"/><path id="e9e8d055-1fa7-4bb0-a600-edebe0aaa992" data-name="Fill-24" d="M125,39.59a4.65,4.65,0,0,1-2.09.41c-2.23,0-3.9-1.55-3.9-4.42S120.68,31,123.13,31a3.89,3.89,0,0,1,1.87.39l-.25.92a3.42,3.42,0,0,0-1.59-.36c-1.85,0-3.08,1.31-3.08,3.6,0,2.14,1.11,3.51,3,3.51a3.75,3.75,0,0,0,1.66-.36Z" style="fill:#fff"/><polygon id="03188bc9-ee27-45d8-be58-d2663aa29d43" data-name="Fill-25" points="131.6 35.25 128.15 35.25 128.15 38.13 132 38.13 132 39 127 39 127 31 131.8 31 131.8 31.87 128.15 31.87 128.15 34.4 131.6 34.4 131.6 35.25" style="fill:#fff"/><path id="ef007c69-2193-435a-a6cd-e0d55d5d655c" data-name="Fill-26" d="M0,4H2.56v9.36h.06a4.91,4.91,0,0,1,1.84-1.92,5,5,0,0,1,2.62-.78C9,10.66,12,11.9,12,17.08V26H9.44V17.39c0-2.42-.84-4.46-3.26-4.46a3.72,3.72,0,0,0-3.44,2.73A3.5,3.5,0,0,0,2.56,17v9H0Z" style="fill:#fff"/><path id="8982ec55-12c9-4970-bd8e-358258e04a01" data-name="Fill-27" d="M17.45,17.53c0,3.14,1.68,5.51,4,5.51s4-2.34,4-5.57c0-2.43-1.13-5.51-4-5.51s-4.09,2.85-4.09,5.57M28,17.38C28,22.69,24.59,25,21.38,25,17.78,25,15,22.15,15,17.62c0-4.8,2.91-7.62,6.6-7.62S28,13,28,17.38" style="fill:#fff"/><path id="0dd1530c-f713-44bc-ab91-23770ff71c92" data-name="Fill-28" d="M30.62,22a6.35,6.35,0,0,0,3.29,1c1.82,0,2.67-1,2.67-2.14S35.88,19,34,18.29c-2.47-.92-3.63-2.35-3.63-4.07,0-2.32,1.79-4.22,4.74-4.22a6.63,6.63,0,0,1,3.38.89l-.62,1.9A5.18,5.18,0,0,0,35.08,12a2,2,0,0,0-2.3,2c0,1.19.82,1.72,2.61,2.44,2.39,1,3.61,2.2,3.61,4.34C39,23.22,37.13,25,33.86,25A7.56,7.56,0,0,1,30,24Z" style="fill:#fff"/><path id="3772f488-1e4f-4602-a739-92779644874e" data-name="Fill-29" d="M45.49,6v4.17H49v2H45.49V20c0,1.8.47,2.82,1.84,2.82a5.09,5.09,0,0,0,1.42-.18l.11,2a5.63,5.63,0,0,1-2.17.36A3.28,3.28,0,0,1,44,23.89a5.68,5.68,0,0,1-.95-3.78V12.18H41v-2h2.09V6.69Z" style="fill:#fff"/><path id="d8c9eb9c-0f02-4858-9ba9-8c261558fa88" data-name="Fill-30" d="M59.61,16.12c0-1.66-.65-4.25-3.43-4.25-2.5,0-3.6,2.44-3.79,4.25ZM52.36,18c.06,3.53,2.19,5,4.67,5a8.53,8.53,0,0,0,3.77-.74l.42,1.87a10.52,10.52,0,0,1-4.52.89C52.5,25,50,22.09,50,17.75S52.42,10,56.38,10C60.82,10,62,14.13,62,16.77A10.5,10.5,0,0,1,61.92,18Z" style="fill:#fff"/><path id="9cdc9db0-f1dc-426d-957f-f59232e30c10" data-name="Fill-31" d="M75.38,16.91a5,5,0,0,0-.11-1.13,3.75,3.75,0,0,0-3.61-3.11c-2.59,0-4.12,2.44-4.12,5.71,0,3,1.37,5.46,4.07,5.46a3.83,3.83,0,0,0,3.67-3.2,5,5,0,0,0,.11-1.16ZM77.89,4V21.85c0,1.31,0,2.81.11,3.81H75.75l-.11-2.56h-.06A5.05,5.05,0,0,1,70.89,26C67.56,26,65,23,65,18.49c0-4.91,2.82-7.93,6.17-7.93a4.53,4.53,0,0,1,4.15,2.26h.06V4Z" style="fill:#fff"/><path id="376f388d-0ea7-4080-8d3d-5dc7c854ac35" data-name="Fill-32" d="M86.62,11.31a9.11,9.11,0,0,0,1.9.14c3,0,4.87-1.45,4.87-3.89,0-2.19-1.6-3.5-4.43-3.5a10.15,10.15,0,0,0-2.34.21ZM81,.5A48.78,48.78,0,0,1,88.66,0c3.5,0,6,.64,7.66,1.91A6.83,6.83,0,0,1,99,7.42a7.42,7.42,0,0,1-2.31,5.66c-1.93,1.73-4.8,2.51-8.14,2.51a15,15,0,0,1-1.93-.11V24H81Z" style="fill:#fff"/><path id="9aca9539-cacc-4505-ad74-1a6ac08adb55" data-name="Fill-33" d="M119.72,24a15.31,15.31,0,0,1-6.16,1C105.27,25,101,19.78,101,12.88,101,4.6,106.84,0,114.09,0A14,14,0,0,1,120,1.08l-1.1,4.35a11.61,11.61,0,0,0-4.55-.9c-4.31,0-7.65,2.63-7.65,8,0,4.86,2.85,7.91,7.69,7.91a13.42,13.42,0,0,0,4.52-.79Z" style="fill:#fff"/><polygon id="bb25bc5b-762d-4bcd-bf1c-c6da731d60d5" data-name="Fill-34" points="130 25 124 25 124 1 130 1 130 25" style="fill:#fff"/></g></g></g></g></g></g></svg>