<svg xmlns="http://www.w3.org/2000/svg" width="199.95" height="66.44" viewBox="0 0 199.95 66.44"><g id="cb9a87f5-b5ea-4188-80cf-014bdd75efab" data-name="Слой 2"><g id="c7e363c0-b795-4229-99f8-7ae2f81f7a15" data-name="Слой 1"><g id="fc1102cb-b64f-4ab7-ac90-c9cca86093f9" data-name="CLIENTS-BANNERS"><g id="a4a67b38-281a-4d2e-8104-384fec656018" data-name="Invoca"><g id="a05fba29-76fd-4de8-b33c-03cbceed001f" data-name="Logo"><g id="2f518b98-03fb-4bdf-b8cf-d3f98f971eb6" data-name="Invoca"><path id="1a4d8983-d752-468a-b4dd-1d625193f678" data-name="Fill-1" d="M0,22.39H6.16a6.45,6.45,0,0,1,.08.71c0,7.08,0,14.16,0,21.24a3.5,3.5,0,0,1-3.84,3.75c-.53-.05-1.08,0-1.61,0H0Z" style="fill:#fff"/><path id="0930d346-8945-43f3-b45d-4cb33574c548" data-name="Fill-3" d="M188.25,24.21c.37-.14.64-.26.93-.36a5.21,5.21,0,0,0,3.53-5c-.08-2.15,0-4.31,0-6.47a5.07,5.07,0,0,0-5.06-5.08q-6.82,0-13.64,0a5.11,5.11,0,0,0-5.11,5.17c0,2.12.08,4.24,0,6.36a5.28,5.28,0,0,0,5.33,5.34c2.23-.07,4.47,0,6.7,0a3.78,3.78,0,0,1,1.72.48c1.57.9,3.08,1.9,4.62,2.84.34.21.71.37,1.29.67l-.27-3.91m-25.6,11.33L168,30c-.4-.31-.68-.54-1-.76A12,12,0,0,1,161.61,19c0-2.31,0-4.63,0-6.94a12.38,12.38,0,0,1,10.74-12,9.4,9.4,0,0,1,1.39,0c4.71,0,9.41.05,14.12,0a12.41,12.41,0,0,1,12,10.36,9.42,9.42,0,0,1,.07,1.62c0,2.47,0,4.94,0,7.41a12.27,12.27,0,0,1-9.82,11.72,14.17,14.17,0,0,1-2.29.22c-1.31,0-2.63.09-3.93,0a28.17,28.17,0,0,0-10.67,1.49c-3.18,1-6.43,1.85-9.65,2.76-.27.08-.55.11-.83.16l-.11-.19" style="fill:#fff"/><path id="5ff6e9c0-a7e0-43d4-a689-f491eb132b3c" data-name="Fill-6" d="M37.32,22.39V48H32.16L19.06,31.92c0,.47-.07.74-.07,1,0,3.82-.08,7.64,0,11.45a3.5,3.5,0,0,1-3.76,3.7c-.69-.06-1.38,0-2.16,0V22.46h5.59L31.28,38c0-.63.08-1,.08-1.34,0-3.47.09-6.94,0-10.41a3.49,3.49,0,0,1,3.85-3.84,19.09,19.09,0,0,0,2.14,0" style="fill:#fff"/><path id="75455ab7-cde8-4e2e-9b9b-ec5ddcad7fae" data-name="Fill-8" d="M84.81,27.21a7.87,7.87,0,0,0-8.23,8,8,8,0,0,0,8.2,8.07A7.91,7.91,0,0,0,93,35.38a8,8,0,0,0-8.2-8.17m.74-5.29a14.22,14.22,0,0,1,11.21,5.52A12.76,12.76,0,0,1,93.4,46a15.48,15.48,0,0,1-16.27.59,12.13,12.13,0,0,1-6.86-11.81c.17-5.22,2.88-8.89,7.42-11.26a16.41,16.41,0,0,1,7.86-1.63" style="fill:#fff"/><path id="df97656e-632f-4371-90b5-7d288a105031" data-name="Fill-10" d="M149.15,37.18l-3.53-8.07-3.52,8.07Zm2.2,5.12H140.49c-.19,0-.38,0-.62,0-.47,1.06-1,2.09-1.39,3.16a3.65,3.65,0,0,1-4,2.6c-1-.06-2.08,0-3.32,0l11.72-25.83h5.66l11.71,25.8c-1.66,0-3.19.1-4.7,0A3.1,3.1,0,0,1,153,46c-.52-1.2-1.05-2.39-1.61-3.66Z" style="fill:#fff"/><path id="427f76c0-4c5c-4b58-8237-112c385c0c1f" data-name="Fill-12" d="M128.47,44.54a12.09,12.09,0,0,1-4.75,3,17,17,0,0,1-11.88-.09,13.11,13.11,0,0,1,1.63-25c5.7-1.32,10.86-.31,15.23,4.11a34.17,34.17,0,0,1-2.82,2.55,2.29,2.29,0,0,1-2.8-.2,9.3,9.3,0,0,0-6-1.68,7.81,7.81,0,0,0-7.37,8,7.8,7.8,0,0,0,7.3,8,9.48,9.48,0,0,0,5.62-1.43c1.65-1,2.51-.88,3.84.54.66.7,1.3,1.41,2,2.18" style="fill:#fff"/><path id="03237cf3-f8e8-45be-8f2f-9d0dac92857e" data-name="Fill-14" d="M55.38,40.32l2.94-7.39c1.08-2.72,2.15-5.44,3.24-8.15.74-1.84,1.54-2.38,3.5-2.38h3.58a2.63,2.63,0,0,1,.37.08L58,48.23h-5.4L41.53,22.41c1.82,0,3.47-.09,5.11,0a2.94,2.94,0,0,1,2.48,2.15c1.67,4.26,3.37,8.51,5.06,12.77.36.92.74,1.83,1.2,3" style="fill:#fff"/><polygon id="957d2196-16a3-4154-8522-4774fb10082d" data-name="Fill-16" points="61.47 64.25 61.47 55.65 58.25 55.65 58.25 54.65 65.79 54.65 65.79 55.65 62.57 55.65 62.57 64.25 61.47 64.25" style="fill:#fff"/><path id="af1f942a-3237-42d6-b37b-d39539d73aff" data-name="Fill-18" d="M67.44,64.25v-10h1.06v4.16A2.67,2.67,0,0,1,70.92,57a2.6,2.6,0,0,1,2,.77,2.9,2.9,0,0,1,.73,2.06v4.4H72.58V60.11a2.26,2.26,0,0,0-.51-1.57A1.85,1.85,0,0,0,70.62,58a2,2,0,0,0-1.52.62,2.2,2.2,0,0,0-.6,1.6v4.06Z" style="fill:#fff"/><path id="9137b3d5-13d7-4b02-9506-6f6872428b37" data-name="Fill-20" d="M76.52,60.29h4.57a3,3,0,0,0-.68-1.71,2,2,0,0,0-1.58-.68,2.07,2.07,0,0,0-1.55.67,2.82,2.82,0,0,0-.75,1.71Zm0,.85a2.57,2.57,0,0,0,.82,1.72A2.42,2.42,0,0,0,79,63.5a3,3,0,0,0,2.24-1l.66.59A3.77,3.77,0,0,1,79,64.41a3.4,3.4,0,0,1-2.52-1,3.64,3.64,0,0,1-1-2.67,3.77,3.77,0,0,1,1-2.63A3.14,3.14,0,0,1,78.85,57a3,3,0,0,1,2.41,1.07,4.06,4.06,0,0,1,.89,2.69q0,.21,0,.37Z" style="fill:#fff"/><path id="72b693ef-b496-46ff-bbaf-a5f460ec1b72" data-name="Fill-22" d="M91.7,63.45a2.36,2.36,0,0,0,1.78-.75,2.79,2.79,0,0,0,.71-2,2.75,2.75,0,0,0-.73-2A2.35,2.35,0,0,0,91.7,58a2.44,2.44,0,0,0-1.8.78,2.91,2.91,0,0,0,0,3.94,2.45,2.45,0,0,0,1.8.77Zm-3.58,3V57.16h1.06v1.43A3.18,3.18,0,0,1,91.89,57a3.26,3.26,0,0,1,2.37,1,4.06,4.06,0,0,1,0,5.37,3.25,3.25,0,0,1-2.37,1,3.17,3.17,0,0,1-2.72-1.51v3.55Z" style="fill:#fff"/><path id="a6eb83ca-0b27-460d-972f-55c4c2007223" data-name="Fill-25" d="M100.49,63.47a2.43,2.43,0,0,0,1.87-.8,2.95,2.95,0,0,0,0-3.92,2.47,2.47,0,0,0-1.87-.81,2.4,2.4,0,0,0-1.87.8,2.82,2.82,0,0,0-.73,2,2.75,2.75,0,0,0,.75,2,2.46,2.46,0,0,0,1.87.8m2.62-.14a3.56,3.56,0,0,1-2.65,1.09,3.5,3.5,0,0,1-2.63-1.08,3.77,3.77,0,0,1,0-5.23,3.74,3.74,0,0,1,5.27,0,3.75,3.75,0,0,1,0,5.23" style="fill:#fff"/><polygon id="fb18a0ca-222a-4fbf-a81a-002db389c3ed" data-name="Fill-27" points="107.62 64.3 105.14 57.16 106.26 57.16 108.13 62.85 110.03 57.13 110.91 57.13 112.83 62.85 114.7 57.16 115.8 57.16 113.3 64.3 112.38 64.3 110.47 58.71 108.55 64.3 107.62 64.3" style="fill:#fff"/><path id="dfa449f1-de7f-4f53-9cb8-519a6424462a" data-name="Fill-29" d="M117.84,60.29h4.57a3,3,0,0,0-.68-1.71,2,2,0,0,0-1.58-.68,2.07,2.07,0,0,0-1.55.67,2.82,2.82,0,0,0-.75,1.71Zm0,.85a2.57,2.57,0,0,0,.82,1.72,2.42,2.42,0,0,0,1.68.64,3,3,0,0,0,2.24-1l.66.59a3.78,3.78,0,0,1-2.92,1.33,3.4,3.4,0,0,1-2.52-1,3.64,3.64,0,0,1-1-2.67,3.77,3.77,0,0,1,1-2.63A3.14,3.14,0,0,1,120.17,57a3,3,0,0,1,2.41,1.07,4.06,4.06,0,0,1,.89,2.69q0,.21,0,.37Z" style="fill:#fff"/><path id="f18e540a-5af1-483f-bf09-e0823f4fea4e" data-name="Fill-31" d="M125.33,64.25V57.16h1.06V59a3.58,3.58,0,0,1,1.17-1.47,2.66,2.66,0,0,1,1.73-.51v1.14h-.08a2.64,2.64,0,0,0-2,.85,3.38,3.38,0,0,0-.8,2.4v2.83Z" style="fill:#fff"/><path id="83b9a2ae-f1e2-45f7-a503-f659eebb63db" data-name="Fill-33" d="M138.26,63.47a2.43,2.43,0,0,0,1.87-.8,2.95,2.95,0,0,0,0-3.92,2.47,2.47,0,0,0-1.87-.81,2.4,2.4,0,0,0-1.87.8,2.82,2.82,0,0,0-.73,2,2.75,2.75,0,0,0,.75,2,2.46,2.46,0,0,0,1.86.8m2.62-.14a3.56,3.56,0,0,1-2.65,1.09,3.5,3.5,0,0,1-2.63-1.08,3.77,3.77,0,0,1,0-5.23,3.74,3.74,0,0,1,5.27,0,3.75,3.75,0,0,1,0,5.23" style="fill:#fff"/><path id="ec663708-8b3e-46ec-867f-5f00660fe454" data-name="Fill-35" d="M144.25,64.25V58.09h-1v-.92h1v-.62a2.47,2.47,0,0,1,.62-1.82,2.06,2.06,0,0,1,1.52-.55,3.43,3.43,0,0,1,1.17.18v.92a4,4,0,0,0-1-.18q-1.23,0-1.23,1.51v.58h2.25v.91h-2.24v6.16Z" style="fill:#fff"/><path id="60de595e-dd91-4f4a-b887-0822bbf3df58" data-name="Fill-37" d="M155.38,64.37a2.1,2.1,0,0,1-1.46-.49,1.94,1.94,0,0,1-.54-1.52V58.09h-1v-.93h1V55h1.06v2.14h2.25v.93h-2.25v4.14a1,1,0,0,0,1.19,1.18,2.33,2.33,0,0,0,1-.25v.91a2.71,2.71,0,0,1-1.28.3" style="fill:#fff"/><path id="1d916acb-22ab-47a4-a6e5-42ee46e50456" data-name="Fill-39" d="M160.86,63.55a2.64,2.64,0,0,0,1.67-.53,1.67,1.67,0,0,0,.69-1.37V61a7.44,7.44,0,0,0-2.07-.3,2.59,2.59,0,0,0-1.52.39,1.24,1.24,0,0,0-.55,1.06,1.22,1.22,0,0,0,.51,1,2.06,2.06,0,0,0,1.27.38m-.21.85a3,3,0,0,1-1.87-.59,1.94,1.94,0,0,1-.78-1.65,2,2,0,0,1,.82-1.71,3.65,3.65,0,0,1,2.21-.6,8,8,0,0,1,2.17.3v-.22a1.82,1.82,0,0,0-.55-1.43,2.24,2.24,0,0,0-1.55-.49,5.17,5.17,0,0,0-2.15.51l-.32-.86a6.16,6.16,0,0,1,2.58-.6,3.1,3.1,0,0,1,2.29.78,2.82,2.82,0,0,1,.74,2.08v4.33h-1V63.19a3.07,3.07,0,0,1-2.55,1.21" style="fill:#fff"/><polygon id="43bd10cd-853b-48b6-8dc6-ea5a01a27f30" data-name="Fill-41" points="166.58 54.24 167.64 54.24 167.64 64.25 166.58 64.25 166.58 54.24" style="fill:#fff"/><polygon id="354715dc-9a9c-49d8-833c-1352c9bc2f9c" data-name="Fill-43" points="170.09 64.25 170.09 54.24 171.15 54.24 171.15 61.15 174.98 57.16 176.29 57.16 173.32 60.2 176.39 64.25 175.13 64.25 172.59 60.94 171.15 62.4 171.15 64.25 170.09 64.25" style="fill:#fff"/><path id="a7953cb4-0de4-48fe-8404-96c9f8562218" data-name="Fill-44" d="M155.46,23.82a1.79,1.79,0,1,0,1.79,1.79,1.79,1.79,0,0,0-1.79-1.79m0,4.08a2.29,2.29,0,1,1,2.29-2.29,2.29,2.29,0,0,1-2.29,2.29" style="fill:#fff"/><path id="0f821dd0-a5b5-457d-92a7-1f9f91c3b1d9" data-name="Fill-45" d="M155.1,25.54h.41a.37.37,0,0,0,.24-.07.24.24,0,0,0,.09-.2.24.24,0,0,0-.09-.2.39.39,0,0,0-.25-.07h-.41Zm-.28.81V24.75h.72a.64.64,0,0,1,.44.14.52.52,0,0,1,.05.69.56.56,0,0,1-.28.17l.43.61h-.33l-.4-.56h-.35v.56Z" style="fill:#fff"/></g></g></g></g></g></g></svg>