<svg xmlns="http://www.w3.org/2000/svg" width="199.98" height="82.81" viewBox="0 0 199.98 82.81"><g id="d1c6f2fd-9549-4b0f-85b9-d2c659948938" data-name="Слой 2"><g id="3ef74e80-d6c0-4f6a-9ae9-7e6f392eb8d6" data-name="Слой 1"><g id="8e078785-8ed1-42b2-88b6-3f3f5e56f69b" data-name="CLIENTS-BANNERS"><g id="14fc2683-338d-4137-bbd5-dfbaa8b21581" data-name="Kollective"><g id="9cb66cb6-001c-4e95-a771-92ce97a721ba" data-name="Logo"><g id="67959199-a742-43e4-8aeb-d3d6f4e73f68" data-name="Kollective"><path id="4ea05c21-7385-4d0c-a701-a3f5d9e22a8f" data-name="Fill-1" d="M55.76,65.13c1-.56,1.5-2.48.92-3.22a2.74,2.74,0,0,0-.92,3.22Zm1-44.22c.48-.69.11-1.37-.08-2a1.67,1.67,0,0,0-.92-1.24,2.72,2.72,0,0,0,1,3.25Zm-11.58,58c-.07-.11-.15-.42-.32-.49a.84.84,0,0,0-.68.15,2,2,0,0,0-.8,1.54.72.72,0,0,0,.28.57.74.74,0,0,0,.63-.06,2.09,2.09,0,0,0,.89-1.7Zm0-75a2.12,2.12,0,0,0-.91-1.72c-.47-.29-.92-.05-.9.49a2,2,0,0,0,.89,1.63.74.74,0,0,0,.62.09c.16-.08.23-.35.3-.49ZM43.62,67.55a2.27,2.27,0,0,0-.42-.62c-.28-.23-.56,0-.8.18a2.64,2.64,0,0,0-1,1.68,1.1,1.1,0,0,0,.06.53.56.56,0,0,0,.92.33,2.72,2.72,0,0,0,1.21-2.11Zm0-52.28a2.69,2.69,0,0,0-1-2,1.05,1.05,0,0,0-.79-.2.71.71,0,0,0-.4.86,2.5,2.5,0,0,0,1,1.74c.2.14.56.28.73.19s.36-.46.48-.62Zm-18,40.39a1.66,1.66,0,0,0,1.71,1.75,2.33,2.33,0,0,0,2.16-2.19,1.73,1.73,0,0,0-1.76-1.67,2.18,2.18,0,0,0-2.11,2.11Zm0-28.48a2.18,2.18,0,0,0,2.13,2.08,1.74,1.74,0,0,0,1.73-1.69,2.33,2.33,0,0,0-2.18-2.17,1.66,1.66,0,0,0-1.68,1.78ZM21.85,9.72A1.55,1.55,0,0,0,23.24,9a1.57,1.57,0,0,0,0-1.69A2.73,2.73,0,0,0,21.29,6a1.71,1.71,0,0,0-1.76.66,1.59,1.59,0,0,0,0,1.76,2.59,2.59,0,0,0,2.29,1.32Zm-.91,67.16a2.8,2.8,0,0,0,2.4-1.69,1.46,1.46,0,0,0-1-2,2.59,2.59,0,0,0-2.94,1.68,1.55,1.55,0,0,0,1.57,2ZM5.77,43.34l0,.11a7.83,7.83,0,0,0,1.31-.54A1.74,1.74,0,0,0,7.27,40a2.23,2.23,0,0,0-2.14-.43,1.93,1.93,0,0,0-1.55,2.06,2.1,2.1,0,0,0,2,1.71Zm43.07-2.07a6.74,6.74,0,0,0,1.26,4,4.37,4.37,0,0,0,7,.37,6.67,6.67,0,0,0,.22-8.23,4.32,4.32,0,0,0-7-.2,6.47,6.47,0,0,0-1.49,4.06Zm-6.2,41.54c-1.06-.65-.93-1.68-.76-2.65a6,6,0,0,1,2.19-3.65,1.44,1.44,0,0,1,.53-.32,1.84,1.84,0,0,0,1.15-1.1,49.7,49.7,0,0,0,3.63-9,60.58,60.58,0,0,0,2.17-9.39,25.78,25.78,0,0,0,.2-7.14c0-.23-.08-.45-.14-.68,0-.06-.07-.1-.18-.26-.1.37-.17.65-.24.93a73.28,73.28,0,0,1-3.19,10,32.14,32.14,0,0,1-2.49,5,1.46,1.46,0,0,0-.21,1,5.54,5.54,0,0,1-.07,1.7,7.71,7.71,0,0,1-2.18,4.07,3.81,3.81,0,0,1-.89.63,1.76,1.76,0,0,1-2.66-1.55,7.74,7.74,0,0,1,.33-2.16,7.06,7.06,0,0,1,1.39-2.6,2.89,2.89,0,0,1,2.21-1.22,41.47,41.47,0,0,0,5.94-17.33c-.14.16-.29.32-.42.49-1.9,2.57-3.78,5.16-5.7,7.71-2.71,3.6-5.5,7.14-8.53,10.47a52.31,52.31,0,0,1-6.82,6.52l-1,.73a.39.39,0,0,0-.07.11,6.53,6.53,0,0,1-5.45,6.9A5.45,5.45,0,0,1,18.6,80a4.2,4.2,0,0,1-2.49-5.73,7.15,7.15,0,0,1,3.73-3.79A5.43,5.43,0,0,1,23.66,70a13.78,13.78,0,0,1,1.77.72v.17a5.86,5.86,0,0,0,1-.47c1.09-.76,2.2-1.51,3.21-2.37a55.46,55.46,0,0,0,5.61-5.79A119.7,119.7,0,0,0,43,52.4a52.52,52.52,0,0,0,4.32-6.89,3.5,3.5,0,0,0,.33-1.12,44.28,44.28,0,0,1-14.87,9.1,26.24,26.24,0,0,1-.41,2.87,5.43,5.43,0,0,1-7,3.75,4.13,4.13,0,0,1-2.68-2.76A5.36,5.36,0,0,1,25,50.93a5.6,5.6,0,0,1,6.14,0,1.17,1.17,0,0,0,1,.17,33,33,0,0,0,12.62-6.57A11.47,11.47,0,0,0,46.14,43a3.81,3.81,0,0,0,.39-.78c-.58-.23-34,.22-35.24.45-.28.54-.52,1.12-.85,1.64A5.34,5.34,0,0,1,5.79,47,5.67,5.67,0,0,1,.19,42.82c-.06-.2-.12-.39-.19-.58V40.58a13.93,13.93,0,0,1,.63-1.66A5.48,5.48,0,0,1,5.8,35.83a5.46,5.46,0,0,1,5.11,3.48c.1.21.17.43.26.64a1.56,1.56,0,0,0,.1.17,4.26,4.26,0,0,0,.49.06l9.58.15,10,.14,8.76.14,5.44.12h1.06a4.69,4.69,0,0,0-.52-1,20.24,20.24,0,0,0-2.25-2.22,33.44,33.44,0,0,0-11.66-5.8,1,1,0,0,0-1,.1,4.73,4.73,0,0,1-4,.9,5.6,5.6,0,0,1-4.52-6.95,4.45,4.45,0,0,1,5-3.32,5.69,5.69,0,0,1,5,5.89c0,.3,0,.59,0,1a42.56,42.56,0,0,1,14.89,9.21l.16-.12c-.12-.33-.21-.66-.36-1A42.63,42.63,0,0,0,44,31.79a114,114,0,0,0-8.59-11.13c-1.29-1.47-2.58-2.93-4-4.31a23,23,0,0,0-4.86-3.94c-.34-.19-.7-.34-1-.47-.13,0-.18,0-.22.07a4.07,4.07,0,0,1-3.82.82,7.25,7.25,0,0,1-5.34-4.05A4.25,4.25,0,0,1,20.08,2.6c2.81-.09,6.37,2.19,6.75,5.71,0,.41,0,.82,0,1.42a2.87,2.87,0,0,1,.28.17A48.88,48.88,0,0,1,35.6,18c4.66,5.28,8.8,11,12.95,16.65.25.35.52.69.82,1.07.46-2.81-3.34-13.87-5.93-17.34A3.21,3.21,0,0,1,41,16.77a8.46,8.46,0,0,1-1.48-3.6,2.53,2.53,0,0,1,0-.34,2,2,0,0,1,1-2.09,1.91,1.91,0,0,1,2.23.42,7.66,7.66,0,0,1,2.64,5.43c-.34,1,.19,1.74.65,2.54a44.05,44.05,0,0,1,3.75,9.1c.55,1.8,1,3.63,1.51,5.45,0,.14.1.28.2.57A7.24,7.24,0,0,0,51.89,32,35.25,35.25,0,0,0,51,23a63.88,63.88,0,0,0-4-12.61c-.46-1.05-1-2.06-1.55-3.08A1.1,1.1,0,0,0,45,6.8,4,4,0,0,1,43.2,5.43a5.93,5.93,0,0,1-1.4-3.66A1.85,1.85,0,0,1,42.65,0h.83a6.06,6.06,0,0,1,2.85,3.32A5,5,0,0,1,46.59,6a1.08,1.08,0,0,0,.1.64,56.47,56.47,0,0,1,3.94,9A56.77,56.77,0,0,1,53,25.18c.43,2.84.81,5.68,1.22,8.52a6.17,6.17,0,0,0,.17.66,1,1,0,0,0,.67-.82c.26-.95.52-1.91.69-2.87a33.46,33.46,0,0,0,.42-6.8,1.35,1.35,0,0,0-.25-.82,7.47,7.47,0,0,1-1.69-3.79,5.85,5.85,0,0,1,0-2.87c.32-1.08,1.11-1.26,1.89-.43a6.28,6.28,0,0,1,1.39,2.52,7.45,7.45,0,0,1,.4,3.93,1.62,1.62,0,0,1-.22.65,2.05,2.05,0,0,0-.25,1.57,20,20,0,0,1,0,3.17c-.22,2-.57,4-.85,6.07a6.39,6.39,0,0,0-.05,1c0,.55.07.62.73.88a7.67,7.67,0,0,0,1.47-2.12,15.49,15.49,0,0,0,1.42-5.51c0-.34.06-.69.1-1A2.21,2.21,0,0,0,60,25.59a3.43,3.43,0,0,1-.21-3c.32-.89,1-1,1.62-.28a3.64,3.64,0,0,1,.66,3.51c-.1.36-.47.65-.81,1.09-.23,3.37-.81,6.79-3.3,9.58.09.16.16.3.25.43a4.08,4.08,0,0,0,.29.33,8.06,8.06,0,0,0,3-2.46c.16-.2.28-.42.43-.63a1.43,1.43,0,0,0,.25-1.35,3.05,3.05,0,0,1,.32-2.46.85.85,0,0,1,1.55-.08,3.74,3.74,0,0,1,.39,3.55c-.22.6-.53.73-1.36.74a8.52,8.52,0,0,1-4,3.8L59.8,41q2.23,0,4.5,0c.14-.39.24-.72.37-1a.92.92,0,0,1,.8-.67.89.89,0,0,1,.84.62,3.38,3.38,0,0,1,0,3.06.85.85,0,0,1-1.65-.06c-.12-.3-.21-.6-.31-.89a19.11,19.11,0,0,0-4.58-.05l-.68,2.48a8.68,8.68,0,0,1,4,3.78c1.15.13,1.55.56,1.62,1.72a4,4,0,0,1-.44,2.34c-.23.4-.49.75-1,.74s-.73-.43-.9-.84a3.31,3.31,0,0,1-.16-2.23,1.12,1.12,0,0,0,0-.93,8.45,8.45,0,0,0-3.41-3.32,2,2,0,0,0-.3-.1l-.52.7c2.5,2.81,3.11,6.24,3.33,9.76a2.89,2.89,0,0,1,.7,3.52,3.4,3.4,0,0,1-.51.89c-.65.79-1.36.67-1.7-.3a3.35,3.35,0,0,1,.2-2.87,2.4,2.4,0,0,0,.28-1.65c-.17-1.18-.26-2.38-.51-3.54a10.72,10.72,0,0,0-2-4.44c-.15-.2-.32-.38-.47-.55-.68.27-.78.34-.73,1,.08.91.2,1.82.36,2.73a33.13,33.13,0,0,1,.6,6.58,4.54,4.54,0,0,1,0,.76,2.26,2.26,0,0,0,.25,1.71,2.83,2.83,0,0,1,.32,1.39,8.85,8.85,0,0,1-1.59,5.26,2.88,2.88,0,0,1-.67.68.86.86,0,0,1-1.41-.41,4.21,4.21,0,0,1-.28-2.1,7.48,7.48,0,0,1,1.37-4.27A3.43,3.43,0,0,0,56.2,58a33.26,33.26,0,0,0-.85-7.93A6.81,6.81,0,0,0,54.92,49a4.43,4.43,0,0,0-.49-.66c-.1.39-.18.59-.21.8-.32,2.3-.64,4.59-1,6.89A58.27,58.27,0,0,1,49,71.37c-.71,1.62-1.55,3.18-2.32,4.78a1.19,1.19,0,0,0-.13.7,5.84,5.84,0,0,1-2.84,5.77,1.94,1.94,0,0,0-.28.2Z" style="fill:#fff"/><path id="c4a83925-2425-4249-b9e1-bc58d18f197b" data-name="Fill-3" d="M196.46,42.48a3,3,0,0,0-3.39-2.71,2.86,2.86,0,0,0-2.81,2.71ZM200,45c-.71,0-1.42,0-2.13,0h-7.57a3.2,3.2,0,0,0,2.56,2.83,5.37,5.37,0,0,0,4.08-.79c.18-.11.34-.23.59-.4L199.1,49a5.22,5.22,0,0,1-.51.47,8.78,8.78,0,0,1-9.08.39,6.44,6.44,0,0,1-3-4.63,7.38,7.38,0,0,1,1-5.23,6.79,6.79,0,0,1,6.81-3.1,6.28,6.28,0,0,1,5.5,5c.06.22.15.43.22.64Z" style="fill:#fff"/><path id="c6180fd9-1de9-4545-bd15-832cccfb4b86" data-name="Fill-5" d="M78.69,50.56h-4V32.17h4c0,1.3,0,2.6,0,3.9s0,2.6,0,4.07l6.32-8h5l-7.27,8.61,7.78,9.75a7.22,7.22,0,0,1-.72.09c-1.22,0-2.44,0-3.66,0a1,1,0,0,1-.92-.47c-1.56-2.08-3.13-4.14-4.7-6.21L80,43.31c-.45.54-.88,1-1.27,1.56a1.13,1.13,0,0,0-.07.6c0,1.43,0,2.85,0,4.28Z" style="fill:#fff"/><path id="ba30c934-4af8-4117-9938-345ac9109bfb" data-name="Fill-7" d="M94.48,43.76a13.55,13.55,0,0,0,.27,1.56,3.08,3.08,0,0,0,2.71,2.3,3,3,0,0,0,3.2-1.67,4.33,4.33,0,0,0,0-4.17,3.18,3.18,0,0,0-5.83.43,12.62,12.62,0,0,0-.35,1.55m-3.74.18a7.11,7.11,0,0,1,14.19-.69c.28,4.08-2.29,7.49-6.74,7.67a6.82,6.82,0,0,1-7.45-7" style="fill:#fff"/><path id="e380cc28-a943-478b-88c7-acb1aaf7eb91" data-name="Fill-9" d="M132.54,42.48a2.77,2.77,0,0,0-2.88-2.72,3,3,0,0,0-3.26,2.72ZM136.11,45h-9.72A3.42,3.42,0,0,0,129.81,48a5.57,5.57,0,0,0,3.38-1l.34-.23.17,0L135.26,49a5,5,0,0,1-.58.49,8.48,8.48,0,0,1-8.89.41,6.19,6.19,0,0,1-3.21-5,7,7,0,0,1,2.27-6.36c3.21-2.9,9.74-2.37,11.12,3.57a6.42,6.42,0,0,1,.14,3Z" style="fill:#fff"/><path id="7fd6121f-fa98-4743-9889-41a44996d6ac" data-name="Fill-11" d="M180.59,50.57H176.7l-5.37-13.4h3.89l3.41,9.07,3.42-9.11c1.3,0,2.55-.07,3.91,0l-5.38,13.39" style="fill:#fff"/><path id="5725b992-259c-40de-b897-d38b36719b52" data-name="Fill-13" d="M148.59,46.15,151,48.36c-1,1.92-4.2,3.16-7.44,2.28a6.8,6.8,0,0,1-5-6.94A6.76,6.76,0,0,1,143.86,37c3-.67,6,.37,7.11,2.33l-2.24,2.13a2.63,2.63,0,0,1-.35-.27,3.47,3.47,0,0,0-6,2,3.91,3.91,0,0,0,1,3.39,3.47,3.47,0,0,0,4.9,0,4,4,0,0,0,.36-.52" style="fill:#fff"/><path id="ecce6638-db74-441c-8740-e9c0e10b49a7" data-name="Fill-15" d="M162,50a4,4,0,0,1-2.68.94,5.89,5.89,0,0,1-1.64-.16,3.05,3.05,0,0,1-2.5-3.19c0-2.14,0-4.27,0-6.41v-.82h-2.15V37.13h2.14V33.57h3.63V37.1h2.65a16.1,16.1,0,0,1,0,3.23h-2.6c0,.25-.05.43-.05.61q0,2.62,0,5.24c0,.09,0,.18,0,.28a1.14,1.14,0,0,0,1.44,1.16,8.65,8.65,0,0,0,1-.25L162,50" style="fill:#fff"/><path id="ffcff69d-b3e7-4205-8a78-a3a7eb6ec4c8" data-name="Fill-17" d="M119.33,50.54a26.73,26.73,0,0,1-3.47.06c-.21-.56-.25-17.66-.05-18.44h3.53Z" style="fill:#fff"/><polygon id="2a43a6df-e3e8-4ff0-8b2b-14e87305bfa5" data-name="Fill-19" points="108.11 32.16 111.64 32.16 111.64 50.56 108.11 50.56 108.11 32.16" style="fill:#fff"/><path id="c351586d-6545-4ad6-ab98-7c1c48aae8ee" data-name="Fill-21" d="M165.49,37.17H169c.17.52.23,12.2.07,13.4a25.45,25.45,0,0,1-3.53,0Z" style="fill:#fff"/><path id="17087964-1634-4619-a211-352855b9ae94" data-name="Fill-22" d="M167.34,35.05a2.07,2.07,0,1,1-.1-4.13,2.07,2.07,0,0,1,.1,4.13" style="fill:#fff"/></g></g></g></g></g></g></svg>