<svg xmlns="http://www.w3.org/2000/svg" width="199.96" height="40.29" viewBox="0 0 199.96 40.29"><g id="de039b8a-59ba-4b12-84f1-993e32e1abd3" data-name="Слой 2"><g id="29fa910d-6125-4701-848b-9bff18436446" data-name="Слой 1"><g id="bc1a9588-1daf-4e7c-b117-86cb14c80d0b" data-name="CLIENTS-BANNERS"><g id="66307f44-b668-446e-b7b5-46d52c48948f" data-name="One-Inc"><g id="dfb8a7f0-427b-428e-82da-2e2e4f3ba961" data-name="Logo"><g id="64060c66-0630-43f9-b340-6ba2b822439b" data-name="OneInc"><path id="ee0d58dd-362d-4082-963a-19e3da8c562f" data-name="Fill-1" d="M20.74,0c.78.12,1.56.21,2.33.37a19,19,0,0,1,7.22,3.11c.16.12.28.22.2.45a12.71,12.71,0,0,1-3,5,13.49,13.49,0,0,0-17.36.63L9.58,9a12.71,12.71,0,0,1-2.73-4.1A.43.43,0,0,1,7,4.35,19.14,19.14,0,0,1,16.75.14L17.7,0Z" style="fill:#fff"/><path id="66ef8cb9-9e34-4db8-b5b3-17334f69cc4e" data-name="Fill-3" d="M0,18.14c.14-.91.25-1.83.44-2.73A18.77,18.77,0,0,1,3.73,8.19.4.4,0,0,1,4.27,8,13,13,0,0,1,8.6,10.6c.24.22.23.36,0,.6A13.47,13.47,0,0,0,8.87,28.3l.21.26a.55.55,0,0,1,0,.13c-.36.31-.72.66-1.11,1a12.61,12.61,0,0,1-3.38,2,.41.41,0,0,1-.56-.16A19.06,19.06,0,0,1,.13,22c0-.3-.09-.61-.13-.91Z" style="fill:#fff"/><path id="99383434-6d3e-43fc-b236-077a171631fe" data-name="Fill-6" d="M148.86,40.29l-.22-.3a5,5,0,0,0,.46-.63,7.93,7.93,0,0,0,.49-1.11.37.37,0,0,0-.29-.53,1,1,0,0,1-.66-1.08,1.16,1.16,0,0,1,.92-1.06,1,1,0,0,1,1.14.57,2.36,2.36,0,0,1,0,1.94,4.74,4.74,0,0,1-1.46,2l-.22.2Z" style="fill:#fff"/><path id="a5317901-0901-4926-acf6-85fb7b0d40b1" data-name="Fill-9" d="M200,37.1a1.26,1.26,0,0,1-1.15.77,1.15,1.15,0,0,1-.38-2.23,1.12,1.12,0,0,1,1.38.47l.15.25Z" style="fill:#fff"/><path id="4fc7c9c5-67ba-4a06-80bf-1afa420db5b8" data-name="Fill-12" d="M54.71,18.13c0,4.49.87,7.67,2.69,10.37,3.49,5.19,8.35,7.75,14.63,7.09a14.58,14.58,0,0,0,11.83-8.26A17.28,17.28,0,0,0,85.5,16.13a15.76,15.76,0,0,0-4.64-9A15,15,0,0,0,69.23,2.88a14.3,14.3,0,0,0-9.29,4,16.07,16.07,0,0,0-5.23,11.27M70.74.36A17.79,17.79,0,0,1,88.23,14.62a19.52,19.52,0,0,1-2.4,14.82A17.64,17.64,0,0,1,72.66,38a17.52,17.52,0,0,1-14.94-4.67,18.1,18.1,0,0,1-5.89-12.13A18.93,18.93,0,0,1,56.09,7.11,18,18,0,0,1,67.54.67C68.59.5,69.67.46,70.74.36" style="fill:#fff"/><path id="759990d3-2765-4083-a76f-096fdad73d8e" data-name="Fill-14" d="M119.08,31.15V1.42c0-.54,0-.54.54-.54s1,0,1.52,0c.34,0,.45.11.41.43a1.4,1.4,0,0,0,0,.18q0,18,0,36a3.22,3.22,0,0,1-.11.58,2.82,2.82,0,0,1-.46-.38q-9.36-11.81-18.71-23.63c-1.71-2.17-3.36-4.39-5-6.59a.33.33,0,0,0-.2-.13v.45Q97,22.4,97,37c0,.7.06.61-.61.62H94.87c-.23,0-.32-.08-.3-.3s0-.17,0-.26q0-18.11,0-36.21a2.65,2.65,0,0,1,.1-.51,2.38,2.38,0,0,1,.44.35q10.66,13.51,21.31,27c.81,1,1.56,2.1,2.34,3.15l.23.31.09,0" style="fill:#fff"/><path id="38b9c00b-d603-4921-a8d3-e3cd5a90ddb1" data-name="Fill-16" d="M129.53,19.26V1.41c0-.52,0-.53.52-.53h14.48c.5,0,.5,0,.5.51s0,1,0,1.52c0,.33-.09.45-.43.45-1.59,0-3.18,0-4.78,0-2.38,0-4.76,0-7.15,0-.36,0-.48.08-.48.47q0,6.65,0,13.29c0,.38.1.48.48.48h11c.54,0,.54,0,.54.55s0,.91,0,1.37,0,.51-.5.51h-11c-.54,0-.55,0-.55.54q0,7,0,14.07c0,.48,0,.48.48.48h12.44c.48,0,.48,0,.48.49s0,1.14,0,1.7c0,.26-.09.34-.34.34-.88,0-1.75,0-2.63,0H130c-.48,0-.48,0-.48-.48q0-8.94,0-17.89" style="fill:#fff"/><path id="fbf11112-caaf-459f-9b95-913f09937ac5" data-name="Fill-18" d="M38.46,18.94A19.51,19.51,0,0,1,35,30.31a.47.47,0,0,1-.64.22,13.12,13.12,0,0,1-4.21-2.35c-.22-.18-.28-.3-.09-.56a13.42,13.42,0,0,0-.88-17.11c-.23-.25-.23-.39,0-.63a13,13,0,0,1,4.36-2.94.37.37,0,0,1,.5.13,19,19,0,0,1,4.24,9.82c.1.81.13,1.62.17,2" style="fill:#fff"/><path id="abb7c608-94c2-415c-ab46-defc5823de9a" data-name="Fill-20" d="M10.29,29.77a13.55,13.55,0,0,0,18-.14c.24.27.48.52.7.78a13,13,0,0,1,2,3.33.47.47,0,0,1-.16.65,18.78,18.78,0,0,1-8.74,4A19,19,0,0,1,7.71,35.34a.58.58,0,0,1-.27-.81A12.86,12.86,0,0,1,10,30.12c.09-.1.16-.22.26-.35" style="fill:#fff"/><path id="6a6c2fc5-06df-4b64-a43e-8bae55cc8843" data-name="Fill-22" d="M177.88,34.33V19.78c0-.52,0-.53.52-.52.86,0,.74-.13.74.74q0,8.66,0,17.33c0,.16,0,.33,0,.49l-.13.06L166.87,22.55V23q0,7,0,14.07c0,.53,0,.54-.55.53-.78,0-.7.13-.7-.71q0-8.7,0-17.4V19l.14-.06,12.12,15.39" style="fill:#fff"/><path id="8be2f829-45d7-4fd9-a15a-66e97e71594b" data-name="Fill-24" d="M195.46,20.68c-.7-.13-1.32-.27-1.93-.34a10.76,10.76,0,0,0-5.14.49A6.86,6.86,0,0,0,184,25.33a8.9,8.9,0,0,0,.38,6.88,7.65,7.65,0,0,0,6.71,4.36,9.36,9.36,0,0,0,4.18-.55c0,.45,0,.85,0,1.24,0,.06-.17.13-.27.15-.71.14-1.42.31-2.14.39a10.12,10.12,0,0,1-6.29-1.19,8.74,8.74,0,0,1-4.45-6.95,10,10,0,0,1,.77-5.47,8.7,8.7,0,0,1,6.24-4.93,13.49,13.49,0,0,1,6,0c.25.05.33.16.32.4s0,.61,0,1" style="fill:#fff"/><path id="218dc262-b577-498f-a792-13f4ed2b6909" data-name="Fill-26" d="M28.21,26.34a12.35,12.35,0,0,1-.66-14,11,11,0,0,1,.66,14" style="fill:#fff"/><path id="4dd14a44-d19e-41fc-a4ef-f3af5ae620b5" data-name="Fill-28" d="M12.24,28.45a12.34,12.34,0,0,1,14.07-.11,11,11,0,0,1-14.07.11" style="fill:#fff"/><path id="fe11c6a2-4bf2-4318-8863-17531accc26d" data-name="Fill-30" d="M10.68,26.9a11,11,0,0,1-.32-14,12.32,12.32,0,0,1,2.29,6.55,12.4,12.4,0,0,1-2,7.46" style="fill:#fff"/><path id="e3e297da-66d3-47c6-b3dc-72e01ebc8536" data-name="Fill-32" d="M25.76,10.63A12.3,12.3,0,0,1,12,11.16a11,11,0,0,1,13.75-.53" style="fill:#fff"/><path id="5e0ad573-e586-4de5-a9fe-b910cefe36bd" data-name="Fill-34" d="M160.32,37.63V19.25c.39,0,.74,0,1.1,0,.08,0,.18.13.22.22a.75.75,0,0,1,0,.29q0,8.66,0,17.33c0,.52,0,.52-.52.53h-.81" style="fill:#fff"/></g></g></g></g></g></g></svg>