<svg xmlns="http://www.w3.org/2000/svg" width="199.85" height="49.12" viewBox="0 0 199.85 49.12"><g id="c88e16af-1e8d-4b7a-98be-854078f7f106" data-name="Слой 2"><g id="6246d1d4-f418-4bf0-a58d-58dcfccddcbf" data-name="Слой 1"><g id="518bbdd5-d7b7-43cb-bfd4-a8a515e7229a" data-name="CLIENTS-BANNERS"><g id="94db8438-4d3e-443f-ad95-660592b422db" data-name="OpenPay"><g id="d2e05e1e-d916-4c04-a5ac-b43778bd6cf1" data-name="Logo"><g id="840615a8-b5f6-4444-b936-b56b421f7001" data-name="OpenPay"><path id="59914c29-77ca-4c0e-ab76-c636c39bce50" data-name="Fill-1" d="M49.44,21.55A6.1,6.1,0,0,1,54,19.78a5.79,5.79,0,0,1,4.41,1.83,6.65,6.65,0,0,1,1.74,4.76A6.32,6.32,0,0,1,58.39,31,5.74,5.74,0,0,1,54,32.76,6,6,0,0,1,49.44,31a6.58,6.58,0,0,1-1.76-4.71,6.44,6.44,0,0,1,1.76-4.71m5.49-7.08A11,11,0,0,0,48,16.92V15.07H41.68v34S46,45,48,45V35.5A11,11,0,0,0,55,38a11.22,11.22,0,0,0,8.29-3.33,11.45,11.45,0,0,0,3.31-8.35,11.61,11.61,0,0,0-3.33-8.48,11.19,11.19,0,0,0-8.36-3.4" style="fill:#fff"/><path id="61657ddb-40ca-4ab9-8a70-d8e94abdc38c" data-name="Fill-3" d="M115.62,17a9,9,0,0,0-6.72-2.49,9.63,9.63,0,0,0-6,2.1v-1.5H96.58V37.41h6.31V26.62c0-2.58.35-4.4,1-5.4a3.93,3.93,0,0,1,3.5-1.45,3.72,3.72,0,0,1,3.1,1.08c.58.73.88,2.13.88,4.14V37.41h6.31V23.81c0-3.13-.71-5.43-2.1-6.84" style="fill:#fff"/><path id="23c21120-4175-4ccd-a11c-94de7b4c5679" data-name="Fill-5" d="M128.5,21.55a6.15,6.15,0,0,1,4.61-1.77,5.83,5.83,0,0,1,4.43,1.83,6.63,6.63,0,0,1,1.74,4.76A6.3,6.3,0,0,1,137.49,31a5.78,5.78,0,0,1-4.41,1.81A6,6,0,0,1,128.51,31a6.56,6.56,0,0,1-1.77-4.71,6.42,6.42,0,0,1,1.76-4.71M134,14.47a11,11,0,0,0-7,2.44V15.07H120.7v34s3.3-3.89,6.35-3.89V35.5A11.07,11.07,0,0,0,134.11,38a11.29,11.29,0,0,0,8.33-3.33,11.42,11.42,0,0,0,3.32-8.35,11.58,11.58,0,0,0-3.34-8.48,11.27,11.27,0,0,0-8.4-3.4" style="fill:#fff"/><path id="14895660-ba7d-4768-a02b-bfb5c4fbe373" data-name="Fill-7" d="M165.12,30.86a5.92,5.92,0,0,1-4.56,1.84,5.59,5.59,0,0,1-4.36-1.9,7.16,7.16,0,0,1-1.7-4.94,6.84,6.84,0,0,1,1.74-4.75,5.67,5.67,0,0,1,4.37-1.89,5.82,5.82,0,0,1,4.51,1.86A7,7,0,0,1,166.86,26a7,7,0,0,1-1.74,4.89Zm1.4-14.48a10.41,10.41,0,0,0-6.93-2.68,10.85,10.85,0,0,0-8.2,3.48,12.21,12.21,0,0,0-3.27,8.67,12.57,12.57,0,0,0,3.27,8.83,11.06,11.06,0,0,0,8.35,3.48,10.8,10.8,0,0,0,6.78-2.5v1.86h6.28V14.33h-6.28Z" style="fill:#fff"/><path id="807b45b4-46c1-49c7-a1eb-35ca532fd3e4" data-name="Fill-9" d="M193.68,15.07l-6.56,14-5.38-14h-7l8.8,21.52-5.44,12s4.94-3.18,7.23-2.67l14.52-30.86Z" style="fill:#fff"/><path id="d4c0a893-e3d1-41dd-af14-936b033a4318" data-name="Fill-11" d="M75.76,23.35a5.49,5.49,0,0,1,.79-1.66,5.27,5.27,0,0,1,1.25-1.25,5.66,5.66,0,0,1,1.62-.8,6.37,6.37,0,0,1,1.9-.28q4.44,0,5.6,4Zm17.3,2.89c0-3.64-1.07-6.54-3.18-8.62a11.93,11.93,0,0,0-8.7-3.15,12,12,0,0,0-8.75,3.24,11.61,11.61,0,0,0-3.28,8.55,11.34,11.34,0,0,0,3.38,8.55A12.5,12.5,0,0,0,81.48,38a13.19,13.19,0,0,0,9.41-4.21l.39-.46L85.5,31.43l-.17.09a11.09,11.09,0,0,1-3.65,1.25,5.77,5.77,0,0,1-4.07-1.43,5.69,5.69,0,0,1-1.74-3.51H93Z" style="fill:#fff"/><path id="c5879677-7dff-4d79-9855-50edf787df09" data-name="Fill-13" d="M31.71,19.69a12,12,0,1,1-12-12h12ZM19.69,0A19.69,19.69,0,1,0,39.37,19.69,19.69,19.69,0,0,0,19.69,0Z" style="fill:#fff"/></g></g></g></g></g></g></svg>