<svg xmlns="http://www.w3.org/2000/svg" width="199.97" height="37.72" viewBox="0 0 199.97 37.72"><g id="034d1cfa-595f-47f2-b503-65fea8ee2dfb" data-name="Слой 2"><g id="5dfb60eb-825f-4795-9db9-1240af3063d0" data-name="Слой 1"><g id="eb902d8b-9cea-45c1-8b6e-8866e98b323b" data-name="CLIENTS-BANNERS"><g id="97a57790-6769-4e05-a281-8355e2e814c8" data-name="Ortess"><g id="5a510c9d-8cf3-42d4-88e0-3356fe056ed5" data-name="Logo"><g id="6ff5cb25-7fba-4dbd-bd46-eb601c21d47b" data-name="Ortess"><path id="8caac337-895a-4355-bed2-2aad549db9c5" data-name="Fill-1" d="M27.61,23.59a10.44,10.44,0,0,1-1.83,3.72,8.59,8.59,0,0,1-3,2.43,9.41,9.41,0,0,1-4.15.87,9.36,9.36,0,0,1-4.18-.87,8.63,8.63,0,0,1-3-2.43,10.42,10.42,0,0,1-1.83-3.72A17.55,17.55,0,0,1,9,18.86a17.56,17.56,0,0,1,.6-4.73,10.43,10.43,0,0,1,1.83-3.72,8.64,8.64,0,0,1,3-2.43,9.37,9.37,0,0,1,4.18-.87A9.42,9.42,0,0,1,22.74,8a8.6,8.6,0,0,1,3,2.43,10.46,10.46,0,0,1,1.83,3.72,17.62,17.62,0,0,1,.6,4.73,17.61,17.61,0,0,1-.6,4.73m4.67-18A17.2,17.2,0,0,0,26.46,1.5,19.51,19.51,0,0,0,18.59,0a19.71,19.71,0,0,0-7.9,1.5A17.14,17.14,0,0,0,4.84,5.58a17.36,17.36,0,0,0-3.61,6A21.37,21.37,0,0,0,0,18.86a21.37,21.37,0,0,0,1.23,7.3,17.33,17.33,0,0,0,3.61,6,17.12,17.12,0,0,0,5.85,4.07,19.71,19.71,0,0,0,7.9,1.5,19.51,19.51,0,0,0,7.87-1.5,17.18,17.18,0,0,0,5.82-4.07,17.7,17.7,0,0,0,3.63-6,21,21,0,0,0,1.26-7.3,21,21,0,0,0-1.26-7.3,17.73,17.73,0,0,0-3.63-6" style="fill:#fff"/><path id="fdbdae4f-51ac-42d8-aef0-977cd696f906" data-name="Fill-4" d="M57.39,16.35a7.77,7.77,0,0,1-5,1.42H50.49V7.54h2.27a8.18,8.18,0,0,1,4.73,1.18,4.12,4.12,0,0,1,1.69,3.63,4.81,4.81,0,0,1-1.78,4M65,18.59a11.33,11.33,0,0,0,1.81-6.4,11.47,11.47,0,0,0-1.06-5.11A9.91,9.91,0,0,0,62.79,3.5a13.09,13.09,0,0,0-4.44-2.13A20.64,20.64,0,0,0,52.81.66H42.59V37.07h7.91V24.44h1.45l8.82,12.63H70.5L59.94,22.74a11.36,11.36,0,0,0,5-4.16" style="fill:#fff"/><polygon id="43070bff-b2f3-4b3c-a8a8-9952f67a653e" data-name="Fill-6" points="70.78 7.76 80.57 7.76 80.57 37.07 89.53 37.07 99.32 37.07 99.32 7.76 99.32 3.99 99.32 0.66 70.78 0.66 70.78 7.76" style="fill:#fff"/><path id="87c6719f-5bee-4d2a-87fc-e84f3390ecc1" data-name="Fill-8" d="M165.92,22.19a20.84,20.84,0,0,1-7.82-4.68,9.47,9.47,0,0,1-2.46-6.73q0-5.38,3.47-8.2A11.45,11.45,0,0,1,162.63.66H146.51a18,18,0,0,1,4,1.58L149,9a21.58,21.58,0,0,0-4.18-1.52,18.74,18.74,0,0,0-4.67-.58,6.61,6.61,0,0,0-3.25.69A2.48,2.48,0,0,0,135.63,10a3.64,3.64,0,0,0,.22,1.33,2.75,2.75,0,0,0,.79,1.05,7.29,7.29,0,0,0,1.61,1q1,.5,2.63,1.16,2.3.94,4.32,2a15.62,15.62,0,0,1,3.5,2.44A10.55,10.55,0,0,1,151,22.13a9.55,9.55,0,0,1,.85,4.16,11.06,11.06,0,0,1-1,4.57,10.73,10.73,0,0,1-2.76,3.71,13.35,13.35,0,0,1-4.37,2.49H160a24,24,0,0,1-4.68-1.69l1.8-6.93a26.09,26.09,0,0,0,4.32,1.64,18.67,18.67,0,0,0,5.19.69,7.42,7.42,0,0,0,3.77-.86,3,3,0,0,0,1.48-2.8,3.33,3.33,0,0,0-1.29-2.52,16,16,0,0,0-4.67-2.41" style="fill:#fff"/><path id="6471bdf8-bf70-4698-a121-c2a5556571b3" data-name="Fill-10" d="M175.49.66a18,18,0,0,1,4,1.58L177.94,9a21.58,21.58,0,0,0-4.18-1.52,18.73,18.73,0,0,0-4.67-.58,6.61,6.61,0,0,0-3.25.69A2.48,2.48,0,0,0,164.6,10a3.64,3.64,0,0,0,.22,1.33,2.75,2.75,0,0,0,.79,1.05,7.29,7.29,0,0,0,1.61,1q1,.5,2.63,1.16,2.3.94,4.32,2a15.62,15.62,0,0,1,3.5,2.44A10.55,10.55,0,0,1,180,22.13a9.55,9.55,0,0,1,.85,4.16,11.06,11.06,0,0,1-1,4.57,10.73,10.73,0,0,1-2.76,3.71,13.35,13.35,0,0,1-4.37,2.49H200V.66Z" style="fill:#fff"/><path id="76f5d165-e914-4a6d-83e5-0b81dac81a74" data-name="Fill-12" d="M136.94,22.19a20.84,20.84,0,0,1-7.82-4.68,9.47,9.47,0,0,1-2.46-6.73q0-5.38,3.47-8.2A11.45,11.45,0,0,1,133.65.66h-12V7.76H107.91v7.33H121V22.2H107.91V30H121.8v7.11H131a24,24,0,0,1-4.68-1.69l1.8-6.93a26.09,26.09,0,0,0,4.32,1.64,18.67,18.67,0,0,0,5.19.69,7.42,7.42,0,0,0,3.77-.86,3,3,0,0,0,1.48-2.8,3.33,3.33,0,0,0-1.29-2.52,16,16,0,0,0-4.67-2.41" style="fill:#fff"/></g></g></g></g></g></g></svg>