<svg xmlns="http://www.w3.org/2000/svg" width="199.94" height="48.32" viewBox="0 0 199.94 48.32"><g id="5425e692-d6f6-456a-9c36-ba22d3424766" data-name="Слой 2"><g id="6d6816cc-89dc-4a2e-ab7c-e2960c0bbfd8" data-name="Слой 1"><g id="98891b29-5665-4dfb-bf32-99b244261f58" data-name="CLIENTS-BANNERS"><g id="054de286-4cc6-4f0c-a2ed-74e4344c7895" data-name="PayOn"><g id="7b5c40c7-e4d8-4777-8ded-3129d2164bed" data-name="Logo"><g id="cfa10172-8d4d-45a1-8ea8-167197b08040" data-name="PayOn"><path id="269c99db-f6e9-4bb6-8b10-4268914582b7" data-name="Fill-1" d="M34.51,13.59a52.08,52.08,0,0,0-21,0,51.49,51.49,0,0,0,0,21.12,51.47,51.47,0,0,0,21,0,53.14,53.14,0,0,0,0-21.12M0,24.18A24,24,0,1,1,24,48.32,24,24,0,0,1,0,24.18" style="fill:#fff"/><path id="c504d34d-7391-4772-ab53-c0fad5f53233" data-name="Fill-4" d="M194.72,31.65V10.22h5.23v27.7h-8L181.4,15.28l-.35.1V37.89h-5.39V10.2h8.44l10.22,21.51.4-.07" style="fill:#fff"/><path id="83140ba5-d0ab-480d-8594-f7f68160bd3c" data-name="Fill-7" d="M163.74,17.72a6.67,6.67,0,0,0-12.53.84,18.43,18.43,0,0,0,0,11.06A9.83,9.83,0,0,0,152.42,32a5.3,5.3,0,0,0,3.3,2.26c3.67.91,6.69-.48,8-4,.72-1.94,1.68-9.23,0-12.51M144.31,24c.13-1.06.21-2.54.5-4,1.32-6.6,5.64-10.25,12.36-10.42a18.84,18.84,0,0,1,4.07.36c4.93,1,7.74,4.2,9,8.88a19.52,19.52,0,0,1-.49,11.83,11.18,11.18,0,0,1-8.66,7.69,15.9,15.9,0,0,1-8.11-.26c-5-1.48-7.92-5.29-8.51-10.84-.1-.94-.12-1.89-.2-3.26" style="fill:#fff"/><path id="b0bd1a2e-20a9-4faa-8b9c-6bc93c837075" data-name="Fill-9" d="M97.31,15.87h-.39l-4,11.63H101L97.31,15.87m-3.55-5.69h7l9.59,27.74h-5.82l-2-5.86H91.4l-2.1,5.87H83.79l10-27.75" style="fill:#fff"/><path id="54bc7bcd-1354-40b6-8639-516171019236" data-name="Fill-11" d="M72.1,23a45.52,45.52,0,0,0,5.31-.5c1.75-.37,2.59-1.73,2.68-3.64s-.51-3.17-2-3.77c-2-.79-4-.43-6-.47ZM66.41,10.09c4.3.12,8.45.09,12.58.4,3.14.24,5.68,1.79,6.65,5a9.2,9.2,0,0,1-1.94,9.44C82.12,26.64,80,27,77.79,27.09c-1.78.07-3.56,0-5.53,0V37.88H66.41Z" style="fill:#fff"/><path id="99e3e2f6-923b-4035-8371-85141911d290" data-name="Fill-13" d="M122.08,37.93h-5.68l-.18-9.19s-9-17.8-9.26-18.36h6.77l5.76,12.73,5.89-12.76h5.9L122.06,28.9Z" style="fill:#fff"/><path id="6c47a345-4ae5-441b-8139-93cd54efdb02" data-name="Fill-15" d="M131.55,27.46a13.15,13.15,0,0,1,0-5.78,15.09,15.09,0,0,1,5.74-.06,13.94,13.94,0,0,1,.05,5.84,12.67,12.67,0,0,1-5.77,0" style="fill:#fff"/></g></g></g></g></g></g></svg>