<svg xmlns="http://www.w3.org/2000/svg" width="199.94" height="37.17" viewBox="0 0 199.94 37.17"><title>Protect</title><g id="abda0896-e81a-4d55-a9ac-d2966651e016" data-name="Слой 2"><g id="69234c3c-de75-4a45-8dc8-54342a946ac1" data-name="Слой 1"><g id="b2385975-8810-4b94-ae70-4d4436a5ba36" data-name="CLIENTS-BANNERS"><g id="b3885b14-a8e2-4f68-9153-eefda6131716" data-name="Protectimus"><g id="08a0e4f6-951e-426b-9bfc-9c6d0c19f746" data-name="Logo"><g id="19378c77-9eff-442f-b163-076d91c77c6d" data-name="Protect"><path id="022fdaaa-875c-4c60-87ea-2414398c5872" data-name="Fill-1" d="M66.63,30.27V26.49a.64.64,0,0,0-.65-.64H60.5v5.06H66a.64.64,0,0,0,.65-.64Zm18.69,3.68a.64.64,0,0,1-.65-.65V26.49a.64.64,0,0,1,.65-.64h5.15a.64.64,0,0,1,.64.64V33.3a.64.64,0,0,1-.64.65Zm-3.78-.43C81.54,34.74,83.77,37,85,37H90.8c1.23,0,3.46-2.24,3.46-3.46V26.28c0-1.22-2.23-3.47-3.46-3.47H85c-1.24,0-3.47,2.24-3.47,3.47v7.23Zm21-7.66V36.79a.19.19,0,0,1-.19.19H99.58a.19.19,0,0,1-.19-.19V25.85H95.53a.19.19,0,0,1-.19-.19V23a.19.19,0,0,1,.19-.19h10.85a.19.19,0,0,1,.19.19v2.66a.19.19,0,0,1-.19.19Zm37,0V36.79a.19.19,0,0,1-.19.19h-2.75a.19.19,0,0,1-.19-.19V25.85h-3.86a.19.19,0,0,1-.19-.19V23a.19.19,0,0,1,.19-.19h10.86a.19.19,0,0,1,.19.19v2.66a.19.19,0,0,1-.19.19Zm5.91-3h2.76a.19.19,0,0,1,.19.19V36.79a.19.19,0,0,1-.19.19h-2.76a.19.19,0,0,1-.19-.19V23a.19.19,0,0,1,.19-.19Zm-37.64,10.7c0,1.23,2.23,3.46,3.47,3.46h7.43a.19.19,0,0,0,.19-.19V34.13a.19.19,0,0,0-.19-.19h-7.12a.65.65,0,0,1-.64-.65V31.44h6.6a.19.19,0,0,0,.19-.19V28.59a.19.19,0,0,0-.19-.19H111V26.49a.64.64,0,0,1,.64-.64h7.12a.19.19,0,0,0,.19-.19V23a.19.19,0,0,0-.19-.19h-7.45c-1.25,0-3.45,2.15-3.45,3.41Zm12.74,0c0,1.23,2.23,3.46,3.47,3.46h6.59a.19.19,0,0,0,.19-.19V34.13a.19.19,0,0,0-.19-.19h-6.28a.64.64,0,0,1-.64-.65V26.49a.64.64,0,0,1,.64-.64h6.28a.19.19,0,0,0,.19-.19V23a.19.19,0,0,0-.19-.19H124c-1.26,0-3.47,2.15-3.47,3.41Zm40-9.71a3.38,3.38,0,0,0-1.89-1h-4.12c-1.24,0-3.45,2.25-3.45,3.47V36.79a.19.19,0,0,0,.19.19H154a.19.19,0,0,0,.19-.19V26.49a.64.64,0,0,1,.64-.64h3.48a.64.64,0,0,1,.64.62V36.79a.19.19,0,0,0,.19.19h2.76a.19.19,0,0,0,.19-.19V26.47a.65.65,0,0,1,.64-.62h3.48a.64.64,0,0,1,.64.64v10.3a.19.19,0,0,0,.19.19h2.76a.19.19,0,0,0,.19-.19V26.28c0-1.22-2.23-3.47-3.46-3.47h-4.11a3.38,3.38,0,0,0-1.9,1Zm21.25-.8a.19.19,0,0,1,.19-.19h2.76a.19.19,0,0,1,.19.19V33.51c0,1.23-2.23,3.46-3.47,3.46h-5.32c-1.23,0-3.46-2.24-3.46-3.46V23a.19.19,0,0,1,.19-.19h2.76a.18.18,0,0,1,.19.19V33.3a.65.65,0,0,0,.64.65h4.69a.64.64,0,0,0,.64-.65Zm5.26,3.25c0-1.23,2.24-3.43,3.46-3.43h8.4a.19.19,0,0,1,.19.19v2.66a.19.19,0,0,1-.19.19h-8.08a.65.65,0,0,0-.64.65v1.24a.64.64,0,0,0,.64.64h5.63c1.27,0,3.47,2.16,3.47,3.42v1.71c0,1.23-2.23,3.46-3.47,3.46h-9a.19.19,0,0,1-.19-.19V34.13a.19.19,0,0,1,.19-.19h8.71a.64.64,0,0,0,.64-.65V32.06a.64.64,0,0,0-.64-.64h-5.64c-1.23,0-3.47-2.24-3.46-3.47Zm-115.18,0c0-1.22,2.22-3.45,3.46-3.47h4.93a.19.19,0,0,1,.19.19v2.66a.19.19,0,0,1-.19.19H75.65a.65.65,0,0,0-.63.64V37a.19.19,0,0,1-.19.19H72.07a.19.19,0,0,1-.19-.19V26.28ZM57.56,22.81H66.3c1.23,0,3.46,2.24,3.46,3.47v4.2a4.27,4.27,0,0,1-3.46,3.46H60.5v2.84a.19.19,0,0,1-.18.19H57.56a.19.19,0,0,1-.19-.19V23a.19.19,0,0,1,.19-.19Z" style="fill:#fff"/><path id="e7e81c31-04b5-4b9e-b04d-dac51b962511" data-name="Fill-4" d="M37.72,14.69H22.35l-9,12.84h9L18,33.69h-5.2A9.5,9.5,0,0,1,9.19,15.41a9,9,0,0,1,3.35-.72,12.66,12.66,0,0,1,25.18,0m3.55,9.51H19.7L24,18H41.74a7.85,7.85,0,0,1-.26,15.69H30.68L28.34,37h13a11.19,11.19,0,1,0,.08-22.38h-.41A16,16,0,0,0,9.72,11.74,12.84,12.84,0,0,0,12.85,37h6.85l6.66-9.51H41.28a1.66,1.66,0,1,0,0-3.33" style="fill:#fff"/></g></g></g></g></g></g></svg>