<svg xmlns="http://www.w3.org/2000/svg" width="199.99" height="38.78" viewBox="0 0 199.99 38.78"><g id="a94f39d9-4bd3-4b2d-a0e5-aa208534661c" data-name="Слой 2"><g id="f7251fef-8455-4cdc-9443-c032c8a22cbc" data-name="Слой 1"><g id="32a10f46-3783-45b8-a0a6-675aa89300e2" data-name="CLIENTS-BANNERS"><g id="00eae99c-9979-4e97-ae70-dd9847f49d6f" data-name="Real-Funds"><g id="8b1d953c-2e70-4a27-b48f-0611a69448fc" data-name="Logo"><g id="8240e2e5-e673-4341-8faf-f0d157bcec08" data-name="RealFunds"><path id="ea84b39e-9821-4d12-afbc-283bbbef3228" data-name="Fill-1" d="M182,25.27a5.6,5.6,0,0,1-1.09,2,5,5,0,0,1-1.81,1.3,6.3,6.3,0,0,1-2.53.47h-3.65V16.45h3.65a6.32,6.32,0,0,1,2.49.46,5,5,0,0,1,1.8,1.28,5.77,5.77,0,0,1,1.12,2,8,8,0,0,1,.39,2.55,8.38,8.38,0,0,1-.37,2.55m1.48-5.54a7.18,7.18,0,0,0-1.38-2.49,6.52,6.52,0,0,0-2.31-1.7,7.86,7.86,0,0,0-3.22-.62h-5.21V30.57h5.21a7.93,7.93,0,0,0,3-.56A6.59,6.59,0,0,0,182,28.4a7.14,7.14,0,0,0,1.48-2.48,9.5,9.5,0,0,0,.51-3.2,9.67,9.67,0,0,0-.46-3" style="fill:#fff"/><polygon id="c307d87c-058e-4f97-beb8-3e9ae343507f" data-name="Fill-3" points="82.21 14.92 75.89 29.66 75.51 30.57 75.89 30.57 77.21 30.57 82.81 17.37 88.36 30.57 90.09 30.57 83.38 14.92 82.21 14.92" style="fill:#fff"/><polygon id="cbd63b4e-a945-4800-857a-2f1f151b385e" data-name="Fill-5" points="61.67 29.04 61.45 29.04 61.45 30.57 61.67 30.57 71.85 30.57 72.02 30.57 72.02 29.04 71.85 29.04 61.67 29.04" style="fill:#fff"/><polygon id="a362fef8-42bb-4960-a631-6f47a9660e7c" data-name="Fill-7" points="117.95 30.57 119.51 30.57 119.51 23.34 127.01 23.34 127.01 21.83 117.95 21.83 117.95 30.57" style="fill:#fff"/><polygon id="6f08881c-e12d-428f-b12e-8f541da0447f" data-name="Fill-9" points="70.73 23.34 70.73 21.81 63.01 21.81 63.01 16.45 71.83 16.45 71.83 14.92 61.67 14.92 61.45 14.92 61.45 23.34 61.67 23.34 70.73 23.34" style="fill:#fff"/><polygon id="2ffd2deb-5f27-4342-b3b5-41b46e48b5dd" data-name="Fill-11" points="96.12 14.92 94.55 14.92 94.55 30.57 105.14 30.57 105.14 29.04 96.12 29.04 96.12 14.92" style="fill:#fff"/><polygon id="4ef9817c-7c1f-4678-9567-f8fadcb5d9f3" data-name="Fill-13" points="117.95 16.45 128.31 16.45 128.31 14.92 117.95 14.92 117.95 16.45" style="fill:#fff"/><path id="3bc24187-30ae-47af-ad90-df8af3695a14" data-name="Fill-15" d="M199.56,24.59a3.63,3.63,0,0,0-1.2-1.26,6.8,6.8,0,0,0-1.77-.79c-.66-.2-1.41-.38-2.21-.55s-1.45-.33-2-.48a4.7,4.7,0,0,1-1.28-.54,1.78,1.78,0,0,1-.66-.7,2.35,2.35,0,0,1-.21-1.06,2.55,2.55,0,0,1,.9-2.07,4.89,4.89,0,0,1,3.14-.79,6.1,6.1,0,0,1,2.13.34A4,4,0,0,1,198,17.82l.36.4.92-1.27-.25-.26a6,6,0,0,0-2.11-1.43,7.29,7.29,0,0,0-2.65-.45,8.29,8.29,0,0,0-2.25.29,5.31,5.31,0,0,0-1.77.85,4,4,0,0,0-1.17,1.42,4.35,4.35,0,0,0-.42,1.93A3.65,3.65,0,0,0,189,21a3.21,3.21,0,0,0,1.1,1.18,6.2,6.2,0,0,0,1.68.74c.63.18,1.36.36,2.17.53A21.24,21.24,0,0,1,196,24a5.67,5.67,0,0,1,1.37.62,2.09,2.09,0,0,1,.73.78,2.45,2.45,0,0,1,.24,1.14,2.14,2.14,0,0,1-1,2,5.65,5.65,0,0,1-3,.69,7.5,7.5,0,0,1-2.84-.51,6.54,6.54,0,0,1-2.21-1.5l-.34-.35L188,28l.28.27A8.24,8.24,0,0,0,191,30.09a9.08,9.08,0,0,0,3.32.58,9.34,9.34,0,0,0,2.25-.25,5.34,5.34,0,0,0,1.79-.78,3.78,3.78,0,0,0,1.19-1.34,3.93,3.93,0,0,0,.42-1.85,3.77,3.77,0,0,0-.43-1.86" style="fill:#fff"/><polygon id="500c9458-591d-4ddc-80ff-2d246d103607" data-name="Fill-16" points="163.5 27.75 153.33 14.92 152.15 14.92 152.15 30.57 153.72 30.57 153.72 17.96 163.72 30.57 165.06 30.57 165.06 14.94 163.5 14.94 163.5 27.75" style="fill:#fff"/><path id="f0912dc0-dd10-4c0d-8de5-43d671b86297" data-name="Fill-17" d="M144.21,24.6a4.27,4.27,0,1,1-8.52,0V14.92h-1.53V24.6a5.79,5.79,0,1,0,11.58,0V14.92h-1.53Z" style="fill:#fff"/><path id="9876a5ee-44ab-402c-894b-86859bc26ccd" data-name="Fill-19" d="M51.44,23.33h-5V16.45H51.3a2.49,2.49,0,0,1,1.16.28,3.39,3.39,0,0,1,1,.76,3.68,3.68,0,0,1,.68,1.1,3.45,3.45,0,0,1,.25,1.29,4.08,4.08,0,0,1-.22,1.3,3.62,3.62,0,0,1-.6,1.12,3,3,0,0,1-.92.77,2.48,2.48,0,0,1-1.18.28Zm6.13,6.39-4.83-5.11a3.89,3.89,0,0,0,.85-.38,4.71,4.71,0,0,0,1.26-1.1,4.82,4.82,0,0,0,.82-1.51A5.49,5.49,0,0,0,56,19.87a5,5,0,0,0-.34-1.8,5.17,5.17,0,0,0-.95-1.58,4.9,4.9,0,0,0-1.46-1.13,4.11,4.11,0,0,0-1.88-.44H44.84V30.57h1.57V24.86h4.51l5.25,5.71h2.19Z" style="fill:#fff"/><path id="b6a15a47-c28a-465b-a264-9ecc9596b064" data-name="Fill-18" d="M1.39,11V38.78h8.4V7.68l12.49,8.45-.92.78V38.78h7.4l-.08-16.21-4.47-2.64,5.09-3.18V8.61L16.42,0,8.33,4.19V2.79L4.24,4.89V6.2L0,8.45C1.52,10.12,1.39,11,1.39,11" style="fill:#fff"/></g></g></g></g></g></g></svg>