<svg xmlns="http://www.w3.org/2000/svg" width="199.87" height="72.02" viewBox="0 0 199.87 72.02"><title>salsa</title><g id="9574c9f9-cf35-4724-96fd-21e6b306b719" data-name="Слой 2"><g id="786f46e6-fdd0-437d-bcbe-328aa9aa526c" data-name="Слой 1"><g id="991adb6a-c277-4d14-b414-be133e99d847" data-name="CLIENTS-BANNERS"><g id="4512787b-77bd-4a52-ba07-21a2a6d28adf" data-name="Salsa-Labs"><g id="23d535b8-09ad-4a1b-b6d5-e6f072249381" data-name="Logo"><g id="51207c76-173c-4126-bdd0-8c3727bae032" data-name="SALSA"><path id="009298a9-6077-4705-b3b2-07c4a8446a80" data-name="Fill-1" d="M35.86,14.43a27.56,27.56,0,0,1-5.55-9.61.14.14,0,0,0-.27,0c-.24,1.39-.65,5.71,1.7,13.06a12.21,12.21,0,0,0,4.12-3.47" style="fill:#fff"/><path id="94ddb867-e73b-430a-8abc-6e0b3d0a3fd8" data-name="Fill-3" d="M40.53.1c-.68,10.83-4.67,14.29-4.67,14.29A12.34,12.34,0,0,0,40,17.9C44,10.83,41,1.52,40.8.12c0-.14-.26-.16-.27,0" style="fill:#fff"/><path id="82495059-ae47-4e4f-b97f-1edfe2761e49" data-name="Fill-5" d="M35.86,5.46A1.82,1.82,0,1,0,34,3.63a1.82,1.82,0,0,0,1.82,1.82" style="fill:#fff"/><path id="889cd7dd-5ffa-4126-becd-3f5d6e8a6b0a" data-name="Fill-7" d="M36.07,57.59a27.56,27.56,0,0,1,5.55,9.61.14.14,0,0,0,.27,0c.24-1.39.65-5.71-1.7-13.06a12.21,12.21,0,0,0-4.12,3.47" style="fill:#fff"/><path id="a725e410-904c-4ae8-b913-f33d76d427d1" data-name="Fill-9" d="M36.07,57.63a12.35,12.35,0,0,0-4.17-3.51c-3.95,7.07-1,16.38-.77,17.78,0,.14.26.16.27,0,.68-10.83,4.67-14.29,4.67-14.29" style="fill:#fff"/><path id="0259d540-023b-4e8d-9ee5-5cf33c4b037a" data-name="Fill-12" d="M36.07,66.57a1.82,1.82,0,1,0,1.82,1.82,1.82,1.82,0,0,0-1.82-1.82" style="fill:#fff"/><path id="600a3f28-8099-4eb1-8eec-a907080792d5" data-name="Fill-14" d="M54.05,31.78a12.22,12.22,0,0,0,3.47,4.13,27.52,27.52,0,0,1,9.59-5.56.14.14,0,0,0,0-.27c-1.38-.24-5.7-.65-13,1.7" style="fill:#fff"/><path id="0b478592-7cf9-45ff-9ed4-45d6c76c77e8" data-name="Fill-16" d="M71.83,40.58C61,39.91,57.56,35.91,57.56,35.91a12.36,12.36,0,0,0-3.5,4.17c7.06,4,16.36,1,17.76.77.14,0,.16-.26,0-.27" style="fill:#fff"/><path id="2f1f71f5-ec7a-4c57-9992-5d9eef153604" data-name="Fill-18" d="M66.48,35.91a1.82,1.82,0,1,0,1.82-1.82,1.82,1.82,0,0,0-1.82,1.82" style="fill:#fff"/><path id="d014e157-f64e-4973-8068-4c475d8b50da" data-name="Fill-20" d="M17.88,40.24a12.22,12.22,0,0,0-3.47-4.13,27.51,27.51,0,0,1-9.59,5.56.14.14,0,0,0,0,.27c1.38.24,5.7.65,13-1.7" style="fill:#fff"/><path id="007db676-f62c-4bb0-b112-e9dfe6ddda47" data-name="Fill-22" d="M14.37,36.11a12.35,12.35,0,0,0,3.5-4.17c-7.06-4-16.36-1-17.76-.77-.14,0-.16.26,0,.27,10.81.68,14.27,4.68,14.27,4.68" style="fill:#fff"/><path id="90b81be9-f749-40e1-ad78-c87b448765e6" data-name="Fill-25" d="M5.45,36.11a1.82,1.82,0,1,0-1.82,1.82,1.82,1.82,0,0,0,1.82-1.82" style="fill:#fff"/><path id="6c188877-465f-47b8-b8e3-d38cfd5dc3e8" data-name="Fill-27" d="M51.13,20.68A27.59,27.59,0,0,1,54,10a.14.14,0,0,0-.2-.18c-1.15.81-4.49,3.58-8,10.44a12.19,12.19,0,0,0,5.36.46" style="fill:#fff"/><path id="b7fbfdbb-b3db-449a-9fdb-d13ee33e753b" data-name="Fill-29" d="M51.16,20.65a12.38,12.38,0,0,0,.47,5.43c7.78-2.2,12.29-10.86,13.1-12,.08-.12-.07-.3-.18-.2-8.13,7.18-13.39,6.8-13.39,6.8" style="fill:#fff"/><path id="d8cd3b99-8a5e-4c3a-8a26-37233e86fdcd" data-name="Fill-31" d="M60,14.33a1.82,1.82,0,1,0-2.58,0,1.83,1.83,0,0,0,2.58,0" style="fill:#fff"/><path id="05f14347-e589-4bcc-a7c1-3328993b2218" data-name="Fill-33" d="M20.8,51.34a27.59,27.59,0,0,1-2.86,10.72.14.14,0,0,0,.2.18c1.15-.81,4.49-3.58,8-10.44a12.19,12.19,0,0,0-5.36-.46" style="fill:#fff"/><path id="db7aacbe-ff32-4a64-bc08-c5735ac03c84" data-name="Fill-35" d="M20.77,51.37a12.38,12.38,0,0,0-.47-5.43C12.52,48.14,8,56.8,7.2,58c-.08.12.07.3.18.2,8.13-7.18,13.39-6.8,13.39-6.8" style="fill:#fff"/><path id="b3eef680-2a00-4fc4-986b-baf0e01fc232" data-name="Fill-37" d="M11.88,57.69a1.82,1.82,0,1,0,2.58,0,1.83,1.83,0,0,0-2.58,0" style="fill:#fff"/><path id="7ed288ff-4afb-463b-800f-2c54541eb511" data-name="Fill-39" d="M51.74,45.83a12.24,12.24,0,0,0-.46,5.37A27.49,27.49,0,0,1,62,54.06a.14.14,0,0,0,.18-.2c-.81-1.15-3.57-4.49-10.42-8" style="fill:#fff"/><path id="44d2c7e5-5891-4a38-b1de-6a4935650d9c" data-name="Fill-41" d="M51.31,51.23a12.33,12.33,0,0,0-5.42.47c2.2,7.79,10.85,12.3,12,13.12.12.08.3-.07.2-.18-7.17-8.14-6.79-13.41-6.79-13.41" style="fill:#fff"/><path id="2ae16f4a-3632-4426-8e48-86d1cc2b9a3b" data-name="Fill-43" d="M57.62,57.54a1.82,1.82,0,1,0,2.58,0,1.83,1.83,0,0,0-2.58,0" style="fill:#fff"/><path id="6a5ccf88-25c0-4d4d-98a4-73e2b392e053" data-name="Fill-45" d="M20.19,26.19a12.24,12.24,0,0,0,.46-5.37A27.49,27.49,0,0,1,9.94,18a.14.14,0,0,0-.18.2c.81,1.15,3.57,4.49,10.42,8" style="fill:#fff"/><path id="23fae4cc-dbc9-48d4-860e-eaf031748021" data-name="Fill-47" d="M20.62,20.8A12.33,12.33,0,0,0,26,20.33C23.85,12.54,15.2,8,14,7.21c-.12-.08-.3.07-.2.18C21,15.52,20.62,20.8,20.62,20.8" style="fill:#fff"/><path id="f37ecfe9-1350-4f0b-ae12-dbb73dce3d58" data-name="Fill-49" d="M14.31,14.48a1.82,1.82,0,1,0-2.58,0,1.83,1.83,0,0,0,2.58,0" style="fill:#fff"/><path id="23a0acb0-17d8-4916-9b20-8f4ac0b5a10a" data-name="Fill-51" d="M96.74,43.25a3.56,3.56,0,0,0-1.47-3,14.16,14.16,0,0,0-5.14-1.87,24.26,24.26,0,0,1-5.81-1.88,8.27,8.27,0,0,1-3.18-2.61,6.25,6.25,0,0,1-1-3.6A7.33,7.33,0,0,1,83,24.37a11.45,11.45,0,0,1,7.5-2.4,11.78,11.78,0,0,1,7.78,2.48,7.88,7.88,0,0,1,3,6.34H96.45a4.36,4.36,0,0,0-1.68-3.42,6.3,6.3,0,0,0-4.24-1.44,6.59,6.59,0,0,0-4.12,1.15,3.62,3.62,0,0,0-1.49,3,2.93,2.93,0,0,0,1.38,2.64,17,17,0,0,0,5,1.7,26,26,0,0,1,5.85,1.93,8.55,8.55,0,0,1,3.32,2.7,6.66,6.66,0,0,1,1.08,3.85,7.23,7.23,0,0,1-3,6.07,12.67,12.67,0,0,1-7.85,2.28,14.19,14.19,0,0,1-6-1.2,9.77,9.77,0,0,1-4.08-3.35A8.1,8.1,0,0,1,79.14,42H84a5,5,0,0,0,1.94,3.85,7.53,7.53,0,0,0,4.79,1.42,7.76,7.76,0,0,0,4.39-1.11,3.41,3.41,0,0,0,1.66-3" style="fill:#fff"/><path id="10fdaa1b-a23b-45db-a0b3-ee2882743178" data-name="Fill-53" d="M117.26,47.06a8.47,8.47,0,0,0,4.3-1.17,7.11,7.11,0,0,0,2.95-3.05V35.54a46.57,46.57,0,0,1-6.44,1.63q-6.21.71-6.21,5.06a4.4,4.4,0,0,0,1.51,3.55,5.81,5.81,0,0,0,3.89,1.28Zm8,3.68a10.13,10.13,0,0,1-.68-3,10.76,10.76,0,0,1-8,3.5,10,10,0,0,1-6.85-2.36,7.65,7.65,0,0,1-2.67-6,8,8,0,0,1,3.35-6.85,13.55,13.55,0,0,1,6.56-2.29,30.68,30.68,0,0,0,6.25-1.28l1.31-.44v-.66a5.44,5.44,0,0,0-1.51-4,6.08,6.08,0,0,0-4.46-1.5,7,7,0,0,0-4.33,1.3,3.85,3.85,0,0,0-1.75,3.16h-4.85a6.67,6.67,0,0,1,1.5-4.09,10.23,10.23,0,0,1,4.07-3.12A13.67,13.67,0,0,1,118.83,22q4.87,0,7.64,2.44a8.81,8.81,0,0,1,2.87,6.72v13a15.92,15.92,0,0,0,1,6.19v.42Z" style="fill:#fff"/><polygon id="2e9ce5d0-1952-4f28-b898-962574307a28" data-name="Fill-55" points="142.14 50.74 137.31 50.74 137.31 10.64 142.14 10.64 142.14 50.74" style="fill:#fff"/><path id="53a1c2c3-80a8-4ffa-8bab-5ed4d35e19fe" data-name="Fill-57" d="M166.28,43.25a3.56,3.56,0,0,0-1.47-3,14.16,14.16,0,0,0-5.14-1.87,24.26,24.26,0,0,1-5.81-1.88,8.27,8.27,0,0,1-3.18-2.61,6.25,6.25,0,0,1-1-3.6,7.33,7.33,0,0,1,2.93-5.87,11.45,11.45,0,0,1,7.5-2.4,11.78,11.78,0,0,1,7.78,2.48,7.88,7.88,0,0,1,3,6.34H166a4.36,4.36,0,0,0-1.68-3.42,6.3,6.3,0,0,0-4.24-1.44A6.59,6.59,0,0,0,156,27.09a3.62,3.62,0,0,0-1.49,3,2.93,2.93,0,0,0,1.38,2.64,17,17,0,0,0,5,1.7,26,26,0,0,1,5.85,1.93,8.55,8.55,0,0,1,3.32,2.7,6.65,6.65,0,0,1,1.08,3.85,7.23,7.23,0,0,1-3,6.07,12.67,12.67,0,0,1-7.85,2.28,14.19,14.19,0,0,1-6-1.2,9.76,9.76,0,0,1-4.08-3.35A8.1,8.1,0,0,1,148.68,42h4.82a5,5,0,0,0,1.94,3.85,7.53,7.53,0,0,0,4.79,1.42,7.76,7.76,0,0,0,4.39-1.11,3.41,3.41,0,0,0,1.66-3" style="fill:#fff"/><path id="d06b0a43-a0eb-4b97-85c7-2cf004054f07" data-name="Fill-58" d="M186.8,47.06a8.47,8.47,0,0,0,4.3-1.17,7.11,7.11,0,0,0,2.95-3.05V35.47l-.23.44a21.86,21.86,0,0,1-6.21,1.25q-6.21.71-6.21,5.06a4.4,4.4,0,0,0,1.51,3.55,5.81,5.81,0,0,0,3.89,1.28Zm8,3.68a10.13,10.13,0,0,1-.68-3,10.76,10.76,0,0,1-8,3.5,10,10,0,0,1-6.85-2.36,7.65,7.65,0,0,1-2.67-6,8,8,0,0,1,3.35-6.85,13.55,13.55,0,0,1,6.56-2.29,30.68,30.68,0,0,0,6.25-1.28l1.31-.44v-.66a5.44,5.44,0,0,0-1.51-4,6.08,6.08,0,0,0-4.46-1.5,7,7,0,0,0-4.33,1.3A3.85,3.85,0,0,0,182,30.32h-4.85a6.67,6.67,0,0,1,1.5-4.09,10.23,10.23,0,0,1,4.07-3.12A13.67,13.67,0,0,1,188.37,22q4.87,0,7.64,2.44a8.81,8.81,0,0,1,2.87,6.72v13a15.92,15.92,0,0,0,1,6.19v.42Z" style="fill:#fff"/></g></g></g></g></g></g></svg>