<svg xmlns="http://www.w3.org/2000/svg" width="199.95" height="70.61" viewBox="0 0 199.95 70.61">
    <g id="5276e3d5-493e-4749-9cdd-dc15efbf2442" data-name="Слой 2">
        <g id="333ace9e-b47f-407a-9d34-4aa1f6d2ae57" data-name="Слой 1">
            <g id="04f6eddc-eff5-4614-80f9-fa4490ebc96e" data-name="CLIENTS-BANNERS">
                <g id="1352c7cf-3a79-4845-a5d2-34b472128001" data-name="Taurus">
                    <g id="e14cab90-0fe7-494d-b5a1-accce4bfc1a6" data-name="Logo">
                        <g id="4f99d1db-0fee-44d8-bf1b-345230db6e2a" data-name="Taurus">
                            <path id="0aaca715-65d6-4415-8675-78d8299b5333" data-name="Fill-1" d="M13.32,11.94a.63.63,0,0,1-.38-1.12,33.41,33.41,0,0,1,40.4-.41.63.63,0,1,1-.75,1,32.16,32.16,0,0,0-38.88.4.62.62,0,0,1-.38.13" style="fill:#fff" />
                            <path id="dd2f9427-42a9-4430-8588-23d8697b0f58" data-name="Fill-3" d="M33.4,70.61A33.41,33.41,0,0,1,4,21.37a.63.63,0,0,1,1.1.59A32.15,32.15,0,1,0,65.55,37.21,31.8,31.8,0,0,0,62,22.55.63.63,0,0,1,63.13,22,33,33,0,0,1,66.8,37.21a33.44,33.44,0,0,1-33.4,33.4" style="fill:#fff" />
                            <path id="d2c7e703-8793-4f61-b284-e2b5701b988e" data-name="Fill-5" d="M102.5,33.59a65.89,65.89,0,0,0-2.6-10.53c-1.16,3.43-1.53,7-2.52,10.53ZM95.65,17.94h8.43l7.69,24.35H105l-1.15-4.11H96.08L94.89,42.3H88.05l7.59-24.36Z" style="fill:#fff" />
                            <path id="f71bfb22-475e-46f4-9f5a-e30265021aae" data-name="Fill-7" d="M145,29.58a4.11,4.11,0,0,0,4.7-1.94,3.3,3.3,0,0,0-.08-4,4.32,4.32,0,0,0-4.63-1.6Zm6.53,12.71-4.87-8.88H145v8.9h-6.23V18c.33,0,.63-.08.93-.08,2.85,0,5.7,0,8.55.13a11.9,11.9,0,0,1,3.35.67c3.58,1.24,4.63,4.31,4.22,7.46a6.93,6.93,0,0,1-3.22,5l-.7.49,6.72,10.64Z" style="fill:#fff" />
                            <path id="5b992285-68d1-4fe7-a26a-ba1e02f744a7" data-name="Fill-9" d="M128.24,18.56l6.24-.64c0,.48.05.82.05,1.16,0,4.52,0,9,0,13.57a13,13,0,0,1-.73,4.49,8,8,0,0,1-5.39,5.11,14.35,14.35,0,0,1-7.71.11,8.12,8.12,0,0,1-6.23-7.59c-.17-1.86-.12-3.75-.14-5.63,0-3.24,0-6.47,0-9.71,0-.17,0-.34,0-.65l6.26-.88v1.27c0,4.45,0,8.91,0,13.36a8.61,8.61,0,0,0,.23,2.06c.47,1.85,1.68,2.88,4,2.72s3.11-1.47,3.39-3.75a15.93,15.93,0,0,0,0-1.88q0-5.9,0-11.79Z" style="fill:#fff" />
                            <path id="70696829-cbcd-4030-99e1-87c4537de8d2" data-name="Fill-11" d="M160,18.79l6.33-.88V19.2c0,4.31,0,8.62,0,12.94a11.51,11.51,0,0,0,.26,2.58,3.4,3.4,0,0,0,3.63,2.66,3.28,3.28,0,0,0,3.52-2.89,11.79,11.79,0,0,0,.21-2.17c0-4.17,0-8.35,0-12.52V18.56l6.11-.63a8.1,8.1,0,0,1,.11.91c0,5.08.08,10.16-.08,15.23a8.39,8.39,0,0,1-7.26,8.49,14.82,14.82,0,0,1-6.4-.18A8.15,8.15,0,0,1,160.15,35c-.12-1.17-.17-2.36-.18-3.53,0-3.82,0-7.65,0-11.47Z" style="fill:#fff" />
                            <path id="28cde8d2-9806-49cc-b829-80030835d12f" data-name="Fill-13" d="M183.76,35.44c1.26.51,2.41,1.08,3.63,1.44a9,9,0,0,0,4.32.36A1.8,1.8,0,0,0,193.32,36a1.64,1.64,0,0,0-.83-1.87c-.79-.5-1.63-.92-2.45-1.36-1.07-.58-2.17-1.1-3.21-1.72-3.62-2.15-4-6.38-2.78-9.35a6.16,6.16,0,0,1,4.12-3.58c3.91-1.24,7.66-.56,11.44,1.06L197.73,24a10.47,10.47,0,0,0-1.09-.43q-2.1-.57-4.21-1.09a2.37,2.37,0,0,0-.73,0,2,2,0,0,0-2,1.4A1.75,1.75,0,0,0,190.79,26c1.1.65,2.27,1.2,3.4,1.82.88.48,1.77,1,2.61,1.52a6.33,6.33,0,0,1,2.79,6.13,7.08,7.08,0,0,1-5.81,7,17.71,17.71,0,0,1-11.39-1.24l1.38-5.71" style="fill:#fff" />
                            <path id="85aa4679-96af-4290-ab26-9f16479513c0" data-name="Fill-15" d="M90.39,18l-1.51,5.38H83.23c0,1.3,0,2.53,0,3.76s0,2.5,0,3.75V42.28H76.88V23.38h-5.4V18Z" style="fill:#fff" />
                            <path id="471ad231-fa4c-4f19-93c6-96f273f2a059" data-name="Fill-17" d="M19.57,20.54c-.4,1.29-.8,2.58-1.24,3.86a2,2,0,0,0,.17,1.9A3.82,3.82,0,0,1,21.74,25,13.13,13.13,0,0,1,24,25.8a13.86,13.86,0,0,0,2.49,1c2.23.38,2.87.16,4-1.73a7.51,7.51,0,0,0,1-5.22,8.56,8.56,0,0,1,.44-4.37c.28-.84.52-1.69.81-2.65-1.25.19-2.39.11-3.39.83a7,7,0,0,1-6.11,1.21,5.28,5.28,0,0,0-3.69.69l.1.66a9.44,9.44,0,0,1,0,4.33" style="fill:#fff" />
                            <path id="b4ef3b8f-df9e-4855-a545-ec54d3bfd7db" data-name="Fill-19" d="M23.72,31.62a2.92,2.92,0,0,0,3.75-.13,10.79,10.79,0,0,0,3.45-5A3.5,3.5,0,0,1,28.42,28a8.24,8.24,0,0,1-5.19-1.14,3.55,3.55,0,0,0-4.57.65c.41,1.54.43,1.49,1.86,2a11.49,11.49,0,0,1,2.07,1.14c.41.26.73.65,1.13.92" style="fill:#fff" />
                            <path id="636bd021-6416-49c1-a2f5-769f6ec69d5a" data-name="Fill-21" d="M25.52,46.24a4.53,4.53,0,0,0,1.39,3.35l2.42-3.13a4,4,0,0,0,.76-3.14,25.07,25.07,0,0,0-1.69-5.87,5,5,0,0,1-.34-2.75c.14-.77.26-1.55.42-2.48a3.26,3.26,0,0,1-3,1.3,4,4,0,0,1-3-1.42A3.65,3.65,0,0,0,20,30.53c.23.24.36.36.47.49,1.4,1.68,2.87,3.31,4.16,5.07a7.57,7.57,0,0,1,1.3,6,26.47,26.47,0,0,0-.44,4.12" style="fill:#fff" />
                            <path id="f4d59ac0-fc26-4f07-8d52-b744ad755aa0" data-name="Fill-23" d="M32.19,19.92c.12,1,.21,2.07.34,3.1A10.12,10.12,0,0,1,31,29.77,26.77,26.77,0,0,0,29.38,33a3.36,3.36,0,0,0-.17,2.34c.53,1.83,1,3.69,1.53,5.5a11.89,11.89,0,0,1,.63,3.56,3.25,3.25,0,0,1-.79,2.19q-1.5,1.86-2.88,3.83a14.38,14.38,0,0,0-1,2,8.56,8.56,0,0,0,1-.06,8.35,8.35,0,0,1,4.22.14,2.31,2.31,0,0,0,1.14,0,2.31,2.31,0,0,0,1.14,0,8.35,8.35,0,0,1,4.22-.14,8.56,8.56,0,0,0,1,.06,14.38,14.38,0,0,0-1-2q-1.37-2-2.88-3.83a3.25,3.25,0,0,1-.79-2.19,11.89,11.89,0,0,1,.63-3.56c.58-1.81,1-3.67,1.53-5.5A3.36,3.36,0,0,0,36.89,33a26.77,26.77,0,0,0-1.63-3.25A10.12,10.12,0,0,1,33.74,23c.13-1,.22-2.07.34-3.1.2-1.78-2.1-1.78-1.89,0" style="fill:#fff" />
                            <path id="31b8fb86-b026-498d-8a5e-c5715795e8b9" data-name="Fill-25" d="M7.35,20c2.7,2.45,6.08,3.32,9.57,4A9.85,9.85,0,0,0,18.21,16c-1.13.29-2.15.5-3.13.8-2.47.74-5.46-1.4-6-3.76a8,8,0,0,1,.46-4.78A17.92,17.92,0,0,1,14.81,1a6.53,6.53,0,0,0,.82-1h-.21a5.74,5.74,0,0,1-.65.44c-.74.37-1.52.69-2.24,1.09A20.3,20.3,0,0,0,5.13,7.95a7.84,7.84,0,0,0-1.37,3.88A9.83,9.83,0,0,0,7.35,20" style="fill:#fff" />
                            <path id="68aa03c5-ee51-491d-babf-b1e1e3059ffb" data-name="Fill-27" d="M21.45,34.07l-1.39-1.69c-.11-.13-.21-.31-.35-.37a2.25,2.25,0,0,0-1.12-.32c-.47.1-.62.58-.63,1.07a1.88,1.88,0,0,0,1.12,1.93,2.06,2.06,0,0,0,2.38-.62" style="fill:#fff" />
                            <path id="501dde3f-eaf3-429d-87e2-72638409448e" data-name="Fill-29" d="M14.18,25.73c-3.48-.49-6.3.54-8.17,3.65-.27.45-.52.91-.89,1.55a5.71,5.71,0,0,0,.83-.21,3.78,3.78,0,0,1,2.43-.3c.58.11,1.15.25,1.73.31a7.51,7.51,0,0,0,1.26-.1C10,29,8.29,29.68,6.58,29.48a4.45,4.45,0,0,1,6.09.4,8.73,8.73,0,0,0,1.62,1.28,2,2,0,0,0,1.79.2,2.34,2.34,0,0,0,1.24-3.62,4.23,4.23,0,0,0-3.14-2" style="fill:#fff" />
                            <path id="8d270043-a81f-45c8-8b5e-7e6e140bdc74" data-name="Fill-31" d="M25.88,51.25a29.59,29.59,0,0,1-1.31-3.13,10.18,10.18,0,0,1,.33-5.34,5.69,5.69,0,0,0-.19-3.46c-.19-.52-.37-1-.61-1.55a6.41,6.41,0,0,0-1.87-2.43c-1.48.93-1.48.93-3.52.57A8.37,8.37,0,0,0,20.61,40a16.62,16.62,0,0,1,1.62,2.66,5.44,5.44,0,0,1,.42,2.11c0,1.21-.12,2.43-.13,3.65A13.69,13.69,0,0,0,23,53a16.18,16.18,0,0,0,.81,1.7l1.46-1.11.62-2.38" style="fill:#fff" />
                            <path id="2b885572-0417-4cfe-b4ad-979943b54d5e" data-name="Fill-33" d="M34.87,19.84a7.51,7.51,0,0,0,1,5.22c1.1,1.89,1.74,2.11,4,1.73a13.87,13.87,0,0,0,2.49-1A13.14,13.14,0,0,1,44.53,25a3.82,3.82,0,0,1,3.24,1.27,2,2,0,0,0,.17-1.9c-.44-1.27-.84-2.57-1.24-3.86a9.44,9.44,0,0,1,0-4.33l.1-.66a5.28,5.28,0,0,0-3.69-.69A7,7,0,0,1,37,13.64c-1-.72-2.14-.64-3.39-.83.29,1,.54,1.81.81,2.65a8.56,8.56,0,0,1,.44,4.37" style="fill:#fff" />
                            <path id="7e665d63-12fe-4e6d-ae12-c5a62c17a04d" data-name="Fill-35" d="M47.61,27.53A3.55,3.55,0,0,0,43,26.88,8.24,8.24,0,0,1,37.85,28a3.5,3.5,0,0,1-2.5-1.49,10.79,10.79,0,0,0,3.45,5,2.92,2.92,0,0,0,3.75.13c.4-.27.72-.67,1.13-.92a11.52,11.52,0,0,1,2.07-1.14c1.43-.53,1.45-.49,1.86-2" style="fill:#fff" />
                            <path id="7e9e9101-6194-4dd8-ae4d-1b192c89eda4" data-name="Fill-37" d="M45.77,31c.11-.13.23-.25.47-.49a3.66,3.66,0,0,0-2.45,1.57,4,4,0,0,1-3,1.43,3.26,3.26,0,0,1-3-1.3c.16.93.28,1.71.42,2.48a5,5,0,0,1-.34,2.75,25.08,25.08,0,0,0-1.69,5.87,4,4,0,0,0,.76,3.14l2.42,3.13a4.53,4.53,0,0,0,1.39-3.35,26.45,26.45,0,0,0-.44-4.12,7.57,7.57,0,0,1,1.3-6c1.29-1.76,2.76-3.38,4.16-5.07" style="fill:#fff" />
                            <path id="8c450e9e-67e1-4861-b4f5-2fd3faed2be9" data-name="Fill-39" d="M58.92,20a9.83,9.83,0,0,0,3.59-8.18,7.84,7.84,0,0,0-1.37-3.88,20.3,20.3,0,0,0-7.41-6.42C53,1.13,52.24.81,51.49.44A5.76,5.76,0,0,1,50.85,0h-.21a6.53,6.53,0,0,0,.82,1,17.92,17.92,0,0,1,5.27,7.25,8,8,0,0,1,.46,4.78c-.53,2.36-3.53,4.5-6,3.76-1-.3-2-.51-3.13-.8A9.85,9.85,0,0,0,49.35,24c3.49-.64,6.87-1.51,9.57-4" style="fill:#fff" />
                            <path id="f8a3ac69-f878-4002-a40b-6f33b1a861a8" data-name="Fill-41" d="M37,53.45a32.32,32.32,0,0,1-3.9.19,32.32,32.32,0,0,1-3.9-.19A4.8,4.8,0,0,0,24,59.64,3.23,3.23,0,0,0,28.14,62c0-1.44,0-2.84,0-4.25,0-.5.19-.86.71-.8a2.67,2.67,0,0,1,1.32.44A2.73,2.73,0,0,1,31,60.64,1.52,1.52,0,0,0,32.51,62a3.75,3.75,0,0,0,.62,0,3.74,3.74,0,0,0,.62,0,1.52,1.52,0,0,0,1.55-1.33,2.73,2.73,0,0,1,.79-3.28,2.67,2.67,0,0,1,1.32-.44c.51-.06.71.3.71.8,0,1.41,0,2.81,0,4.25a3.23,3.23,0,0,0,4.1-2.34A4.8,4.8,0,0,0,37,53.45" style="fill:#fff" />
                            <path id="5f3185f6-2731-4492-a539-013d1ae760cb" data-name="Fill-43" d="M36.72,59.76a.24.24,0,0,0-.41.2h0a2.4,2.4,0,0,1-1.84,3.17,5,5,0,0,1-1.33.24,5,5,0,0,1-1.33-.24A2.4,2.4,0,0,1,30,60h0a.31.31,0,0,0-.59-.18A3.28,3.28,0,0,0,29.1,61c0,.66.07,2.17,1.21,2.78a6.53,6.53,0,0,0,2.82.71,5.69,5.69,0,0,0,2.61-.71A3,3,0,0,0,37.17,61a1.63,1.63,0,0,0-.45-1.26" style="fill:#fff" />
                            <path id="62344b9b-a7db-41fa-b2bd-42674fc8f12f" data-name="Fill-45" d="M47.69,31.69a2.25,2.25,0,0,0-1.12.32c-.14.06-.24.24-.35.37l-1.39,1.69a2.06,2.06,0,0,0,2.38.62,1.88,1.88,0,0,0,1.12-1.93c0-.49-.16-1-.63-1.07" style="fill:#fff" />
                            <path id="e24926c2-2d5a-4dde-9f7a-d8add4e2a7f4" data-name="Fill-47" d="M52.09,25.73a4.23,4.23,0,0,0-3.14,2,2.34,2.34,0,0,0,1.24,3.62,2,2,0,0,0,1.79-.2,8.73,8.73,0,0,0,1.62-1.28,4.45,4.45,0,0,1,6.09-.4c-1.71.2-3.41-.44-4.79,1.15a7.51,7.51,0,0,0,1.26.1c.58-.06,1.16-.2,1.73-.31a3.78,3.78,0,0,1,2.43.3,5.71,5.71,0,0,0,.83.21c-.37-.64-.62-1.1-.89-1.55-1.88-3.11-4.69-4.15-8.17-3.65" style="fill:#fff" />
                            <path id="5e9b6667-b49b-4efc-abe4-156f96eaf8ab" data-name="Fill-49" d="M44,35.33a6.41,6.41,0,0,0-1.87,2.43c-.24.5-.41,1-.61,1.55a5.69,5.69,0,0,0-.19,3.46,10.18,10.18,0,0,1,.33,5.34,29.52,29.52,0,0,1-1.31,3.13L41,53.63l1.46,1.11a16.18,16.18,0,0,0,.81-1.7,13.69,13.69,0,0,0,.47-4.64c0-1.22-.15-2.43-.13-3.65A5.44,5.44,0,0,1,44,42.65,16.64,16.64,0,0,1,45.66,40a8.37,8.37,0,0,0,1.9-4.09c-2,.35-2,.35-3.52-.57" style="fill:#fff" />
                            <path id="93af2dcf-28c3-42e0-b93c-2c96cfb7900b" data-name="Fill-51" d="M82.24,54.46a1.24,1.24,0,0,0-.2-.7,1.55,1.55,0,0,0-.54-.49,2.71,2.71,0,0,0-.79-.29,4.79,4.79,0,0,0-1-.09H78.41V56h1.5a3.18,3.18,0,0,0,1.7-.39,1.29,1.29,0,0,0,.63-1.17Zm-2.63-2.55a3.63,3.63,0,0,0,.9-.11,2.37,2.37,0,0,0,.72-.31A1.51,1.51,0,0,0,81.7,51a1.2,1.2,0,0,0,.17-.64,1.1,1.1,0,0,0-.53-1A2.57,2.57,0,0,0,80,49.06H78.41v2.85Zm3.87,2.59a2,2,0,0,1-.26,1,2.37,2.37,0,0,1-.74.79,3.77,3.77,0,0,1-1.15.51,5.74,5.74,0,0,1-1.49.18H77.17V48.08h2.92a4.76,4.76,0,0,1,1.25.15,3,3,0,0,1,1,.44,2.05,2.05,0,0,1,.62.69,1.81,1.81,0,0,1,.22.88,1.74,1.74,0,0,1-.55,1.3,3.46,3.46,0,0,1-1.4.8,3.36,3.36,0,0,1,1.66.73,1.81,1.81,0,0,1,.62,1.43Z" style="fill:#fff" />
                            <polygon id="3956ad22-ba7f-4758-b7f2-b26393df66bf" data-name="Fill-53" points="86.58 57 85.28 57 85.28 48.08 86.58 48.08 86.58 57" style="fill:#fff" />
                            <polygon id="97658fa9-74b1-4bd4-a3c2-9a5f2c958905" data-name="Fill-55" points="94.93 48.08 94.93 49.09 92.16 49.09 92.16 57 90.86 57 90.86 49.09 88.09 49.09 88.09 48.08 94.93 48.08" style="fill:#fff" />
                            <path id="ee040d45-1c98-4baa-9322-d5cf660dd38f" data-name="Fill-56" d="M100.46,47.92a8.23,8.23,0,0,1,1.33.11,5.58,5.58,0,0,1,1.16.3l-.21,1a7.49,7.49,0,0,0-1-.26,6.06,6.06,0,0,0-1.09-.1,3.85,3.85,0,0,0-2.76.94,4.12,4.12,0,0,0,0,5.36,3.85,3.85,0,0,0,2.76.94,6.08,6.08,0,0,0,1.09-.1,7.49,7.49,0,0,0,1-.26l.21,1a5.55,5.55,0,0,1-1.16.3,8.2,8.2,0,0,1-1.33.11,5.77,5.77,0,0,1-2.07-.35,4.35,4.35,0,0,1-1.53-1,4.18,4.18,0,0,1-1-1.46,5.31,5.31,0,0,1,0-3.7,4.18,4.18,0,0,1,1-1.46,4.35,4.35,0,0,1,1.53-1,5.77,5.77,0,0,1,2.07-.35" style="fill:#fff" />
                            <path id="50fe0899-f285-4921-bcea-414210ee2f93" data-name="Fill-57" d="M108.57,56.17a3.43,3.43,0,0,0,1.43-.28,2.83,2.83,0,0,0,1-.78,3.44,3.44,0,0,0,.62-1.16,4.82,4.82,0,0,0,0-2.83A3.37,3.37,0,0,0,111,50a2.93,2.93,0,0,0-1-.78,3.68,3.68,0,0,0-2.86,0,2.93,2.93,0,0,0-1,.78,3.36,3.36,0,0,0-.62,1.15,4.82,4.82,0,0,0,0,2.83,3.43,3.43,0,0,0,.62,1.16,2.83,2.83,0,0,0,1,.78,3.43,3.43,0,0,0,1.43.28m0,1a4.89,4.89,0,0,1-2-.37,4.21,4.21,0,0,1-1.44-1,4.3,4.3,0,0,1-.88-1.47,5.3,5.3,0,0,1,0-3.54,4.3,4.3,0,0,1,.88-1.47,4.21,4.21,0,0,1,1.44-1,5.33,5.33,0,0,1,3.93,0,4.22,4.22,0,0,1,1.44,1,4.3,4.3,0,0,1,.88,1.47,5.29,5.29,0,0,1,0,3.54,4.3,4.3,0,0,1-.88,1.47,4.21,4.21,0,0,1-1.44,1,4.89,4.89,0,0,1-2,.37" style="fill:#fff" />
                            <polygon id="0532c10d-fab5-4f13-84f9-4e9536817690" data-name="Fill-58" points="116.3 57 115 57 115 48.08 116.3 48.08 116.3 57" style="fill:#fff" />
                            <polygon id="5d1a7f25-aced-4833-b10a-2b3a1059f18d" data-name="Fill-59" points="125.15 57 119.88 50 119.88 57 118.64 57 118.64 48.08 119.88 48.08 125.15 55.09 125.15 48.08 126.39 48.08 126.39 57 125.15 57" style="fill:#fff" />
                            <polygon id="8cf83839-6ba9-4784-bcb9-5c97ca51a115" data-name="Fill-60" points="131.69 48.08 136.94 48.08 136.94 49.09 133 49.09 133 51.94 136.77 51.94 136.77 52.94 133 52.94 133 56 136.98 56 136.98 57 131.69 57 131.69 48.08" style="fill:#fff" />
                            <polygon id="d2e2e20f-9ad5-4898-95c9-23b0d09ac334" data-name="Fill-61" points="142.08 53.48 139.64 57 138.27 57 141.41 52.51 138.31 48.08 139.68 48.08 142.08 51.54 144.49 48.08 145.86 48.08 142.76 52.51 145.9 57 144.53 57 142.08 53.48" style="fill:#fff" />
                            <path id="b9a30b6d-a700-4947-8090-084a44a44414" data-name="Fill-62" d="M151.58,47.92a8.23,8.23,0,0,1,1.33.11,5.57,5.57,0,0,1,1.16.3l-.21,1a7.49,7.49,0,0,0-1-.26,6.06,6.06,0,0,0-1.09-.1,3.85,3.85,0,0,0-2.76.94,4.12,4.12,0,0,0,0,5.36,3.85,3.85,0,0,0,2.76.94,6.08,6.08,0,0,0,1.09-.1,7.49,7.49,0,0,0,1-.26l.21,1a5.55,5.55,0,0,1-1.16.3,8.21,8.21,0,0,1-1.33.11,5.78,5.78,0,0,1-2.07-.35,4.35,4.35,0,0,1-1.53-1,4.18,4.18,0,0,1-1-1.46,5.31,5.31,0,0,1,0-3.7,4.19,4.19,0,0,1,1-1.46,4.36,4.36,0,0,1,1.53-1,5.78,5.78,0,0,1,2.07-.35" style="fill:#fff" />
                            <polygon id="9a3b346e-c19a-433c-99d4-9e61d3c8412a" data-name="Fill-63" points="161.96 57 161.96 53 157.14 53 157.14 57 155.84 57 155.84 48.08 157.14 48.08 157.14 51.95 161.96 51.95 161.96 48.08 163.26 48.08 163.26 57 161.96 57" style="fill:#fff" />
                            <path id="237be672-8702-4c83-afb8-147adc0b5a77" data-name="Fill-64" d="M167.35,53.85H171l-1.81-4.65ZM173.55,57h-1.33l-.86-2.16H167L166.11,57h-1.33l3.75-8.92h1.27Z" style="fill:#fff" />
                            <polygon id="48ad9f52-202e-46ff-acc0-ab94e4157df4" data-name="Fill-65" points="181.59 57 176.32 50 176.32 57 175.07 57 175.07 48.08 176.32 48.08 181.59 55.09 181.59 48.08 182.83 48.08 182.83 57 181.59 57" style="fill:#fff" />
                            <path id="b34340c2-92ed-40a8-99b0-e6dbfd9080b4" data-name="Fill-66" d="M189.62,47.92a8.72,8.72,0,0,1,1.51.13,5.29,5.29,0,0,1,1.3.4l-.21,1a8.35,8.35,0,0,0-1.27-.36,6.6,6.6,0,0,0-1.32-.13,3.8,3.8,0,0,0-2.76,1,3.64,3.64,0,0,0-1,2.75,3.48,3.48,0,0,0,.95,2.63,3.94,3.94,0,0,0,2.84.92,7,7,0,0,0,.91-.06,5.42,5.42,0,0,0,.78-.15V53.06h1.19v3.6a6.78,6.78,0,0,1-1.37.36,9.91,9.91,0,0,1-1.67.14,6.15,6.15,0,0,1-2.08-.33,4.4,4.4,0,0,1-1.55-.92,3.92,3.92,0,0,1-1-1.43,4.9,4.9,0,0,1-.33-1.83,5.14,5.14,0,0,1,.35-1.92,4.18,4.18,0,0,1,1-1.49,4.56,4.56,0,0,1,1.58-1,6,6,0,0,1,2.12-.35" style="fill:#fff" />
                            <polygon id="2e75712f-1bcf-4aea-85ee-4d3b851d518d" data-name="Fill-67" points="194.66 48.08 199.91 48.08 199.91 49.09 195.96 49.09 195.96 51.94 199.74 51.94 199.74 52.94 195.96 52.94 195.96 56 199.95 56 199.95 57 194.66 57 194.66 48.08" style="fill:#fff" />
                        </g>
                    </g>
                </g>
            </g>
        </g>
    </g>
</svg>