<svg xmlns="http://www.w3.org/2000/svg" xmlns:xlink="http://www.w3.org/1999/xlink" width="105.74" height="105.36" viewBox="0 0 105.74 105.36"><defs><clipPath id="4c61157b-3d5b-42fc-949d-69a15410ead0" transform="translate(0 -9.38)"><rect x="5" y="14" width="96" height="96" style="fill:none"/></clipPath><clipPath id="563f0b18-d6a4-4eed-92f3-4ac2c98eb58d" transform="translate(0 -9.38)"><rect x="29.36" y="49.72" width="3.32" height="4.28" style="fill:none"/></clipPath><clipPath id="93fdc122-ec88-43f6-965f-4cf6810c8336" transform="translate(0 -9.38)"><rect x="5" width="276" height="133" style="fill:none"/></clipPath><clipPath id="f482a603-d45c-42d5-aed3-0b691acc8290" transform="translate(0 -9.38)"><rect x="29.36" y="57.02" width="3.32" height="4.28" style="fill:none"/></clipPath><clipPath id="aa658ad9-7849-4e70-88ad-c794fbc08776" transform="translate(0 -9.38)"><rect x="29.36" y="64.4" width="3.32" height="4.28" style="fill:none"/></clipPath><clipPath id="87838555-65bc-44c4-bf64-4cf2af442818" transform="translate(0 -9.38)"><rect x="36.78" y="49.72" width="3.32" height="4.28" style="fill:none"/></clipPath><clipPath id="c38428da-4aa9-4e97-a16c-37abfd36e002" transform="translate(0 -9.38)"><rect x="36.78" y="57.02" width="3.32" height="4.28" style="fill:none"/></clipPath><clipPath id="69286292-3bc6-48de-b629-065a71a60710" transform="translate(0 -9.38)"><rect x="36.78" y="64.4" width="3.32" height="4.28" style="fill:none"/></clipPath><clipPath id="28800a91-27c6-41cd-af88-9d0380f98be9" transform="translate(0 -9.38)"><rect x="41.55" y="49.72" width="3.32" height="4.28" style="fill:none"/></clipPath><clipPath id="9a756a02-a940-4e21-92aa-144694f0d69e" transform="translate(0 -9.38)"><rect x="41.55" y="57.02" width="3.32" height="4.28" style="fill:none"/></clipPath><clipPath id="c68050d6-6718-465c-a062-a81518c1111f" transform="translate(0 -9.38)"><rect x="41.55" y="64.4" width="3.32" height="4.28" style="fill:none"/></clipPath><clipPath id="44d0320a-a6b4-43f2-9bd5-a98889297d28" transform="translate(0 -9.38)"><path d="M49.67,49.51a1.27,1.27,0,0,0-1.28-1.27h-.07A1.27,1.27,0,0,0,47,49.51V54h2.62Z" style="fill:none;clip-rule:evenodd"/></clipPath><clipPath id="8a1dacb0-9dc8-4c60-b13a-adfbc72e3ef5" transform="translate(0 -9.38)"><path d="M49.67,57.57a1.27,1.27,0,0,0-1.28-1.27h-.07A1.27,1.27,0,0,0,47,57.57v4.5h2.62Z" style="fill:none;clip-rule:evenodd"/></clipPath><clipPath id="6266d9a9-6872-40a0-9e61-f08f515b4333" transform="translate(0 -9.38)"><path d="M49.67,65.15a1.27,1.27,0,0,0-1.28-1.27h-.07A1.27,1.27,0,0,0,47,65.15v4.5h2.62Z" style="fill:none;clip-rule:evenodd"/></clipPath><clipPath id="f821187a-fae7-4c1b-a6bd-2aa0e5da62cf" transform="translate(0 -9.38)"><path d="M54.28,54v-4.5A1.27,1.27,0,0,0,53,48.23h-.16a1.27,1.27,0,0,0-1.28,1.27V54h2.72Z" style="fill:none;clip-rule:evenodd"/></clipPath><clipPath id="6edcbfc4-5c75-4831-8c2e-73af8b79c699" transform="translate(0 -9.38)"><polygon points="42.05 73.1 42.05 74.57 52.92 74.57 63.8 74.57 63.8 73.1 52.92 73.1 42.05 73.1" style="fill:none;clip-rule:evenodd"/></clipPath><clipPath id="82b7b09f-df89-42dd-86c7-eb67e4029494" transform="translate(0 -9.38)"><polygon points="44.65 72.31 52.92 72.31 61.2 72.31 61.2 70.84 52.92 70.84 44.65 70.84 44.65 72.31" style="fill:none;clip-rule:evenodd"/></clipPath><clipPath id="b4ccbe0d-b9d4-4e5d-9622-f76938439576" transform="translate(0 -9.38)"><path d="M77.84,46.6H64.62V45.52h2.51V43.89H64.62V42h0L53,35.09,53,35l0,0,0,0-.05.09L41.23,42v1.9H38.71v1.63h2.51V46.6H26.37v30H79.48v-30Zm-35-3.68,10.06-6,10.06,6v1H61.76l-8.68-5.16L53,38.59l-.07,0-.07,0-.08.14-8.68,5.16H42.86ZM28,75h6.12V48.23H28Zm25,0H35.77V48.23h7.1V45.52h1.69l8.37-5,8.37,5H63v2.71h7.1V75Zm18.75,0h6.12V48.23H71.72Z" style="fill:none;clip-rule:evenodd"/></clipPath><clipPath id="b5e8487b-2a27-4cd7-bf63-7e64354b7523" transform="translate(0 -9.38)"><rect x="73.17" y="49.72" width="3.33" height="4.28" style="fill:none"/></clipPath><clipPath id="0ba88ae9-1181-400b-8247-0b2f28563316" transform="translate(0 -9.38)"><rect x="73.17" y="57.02" width="3.33" height="4.28" style="fill:none"/></clipPath><clipPath id="e4bda0a2-1fb7-4690-9628-54d478264b0a" transform="translate(0 -9.38)"><rect x="73.17" y="64.4" width="3.33" height="4.28" style="fill:none"/></clipPath><clipPath id="5cab5f98-0acc-4413-b36e-753fd3c22695" transform="translate(0 -9.38)"><rect x="65.74" y="49.72" width="3.32" height="4.28" style="fill:none"/></clipPath><clipPath id="ee1d109e-4dcf-4298-9a29-3c5d39a958d3" transform="translate(0 -9.38)"><rect x="65.74" y="57.02" width="3.32" height="4.28" style="fill:none"/></clipPath><clipPath id="974e3ac5-7b4f-4ff2-8121-f6284127c26d" transform="translate(0 -9.38)"><rect x="65.74" y="64.4" width="3.32" height="4.28" style="fill:none"/></clipPath><clipPath id="28c0b069-ccdd-42ee-b72e-a019d7c95a9d" transform="translate(0 -9.38)"><rect x="60.97" y="49.72" width="3.32" height="4.28" style="fill:none"/></clipPath><clipPath id="dfa998a1-b4ad-4077-a182-16ee9785d6f6" transform="translate(0 -9.38)"><rect x="60.97" y="57.02" width="3.32" height="4.28" style="fill:none"/></clipPath><clipPath id="ecb5c459-a778-42c2-8718-863bc4ce8519" transform="translate(0 -9.38)"><rect x="60.97" y="64.4" width="3.32" height="4.28" style="fill:none"/></clipPath><clipPath id="fa48d9a6-7ed2-4b1f-8fc3-eea3e13acc80" transform="translate(0 -9.38)"><path d="M58.8,49.51a1.27,1.27,0,0,0-1.28-1.27h-.07a1.27,1.27,0,0,0-1.28,1.27V54H58.8Z" style="fill:none;clip-rule:evenodd"/></clipPath><clipPath id="ea2ebae3-26ea-4331-aa62-8be7331d35bb" transform="translate(0 -9.38)"><path d="M58.8,57.57a1.27,1.27,0,0,0-1.28-1.27h-.07a1.28,1.28,0,0,0-1.28,1.27v4.5H58.8Z" style="fill:none;clip-rule:evenodd"/></clipPath><clipPath id="335d51c4-45b0-407b-936a-fcda84277289" transform="translate(0 -9.38)"><path d="M58.8,65.15a1.27,1.27,0,0,0-1.28-1.27h-.07a1.27,1.27,0,0,0-1.28,1.27v4.5H58.8Z" style="fill:none;clip-rule:evenodd"/></clipPath><clipPath id="59c9a053-0dc9-40d8-9526-3eed7982725a" transform="translate(0 -9.38)"><path d="M51.57,62.06h2.72v-4.5A1.27,1.27,0,0,0,53,56.3h-.16a1.27,1.27,0,0,0-1.28,1.27Z" style="fill:none;clip-rule:evenodd"/></clipPath><clipPath id="292c9b73-9114-408a-ab06-9acac67b531f" transform="translate(0 -9.38)"><path d="M51.57,69.65h2.72v-4.5A1.27,1.27,0,0,0,53,63.88h-.16a1.27,1.27,0,0,0-1.28,1.27Z" style="fill:none;clip-rule:evenodd"/></clipPath><clipPath id="f58e86e9-188d-4307-91eb-4725596a05a7" transform="translate(0 -9.38)"><path d="M52.93,46.23a2.09,2.09,0,1,0-2.1-2.09,2.09,2.09,0,0,0,2.1,2.09" style="fill:none;clip-rule:evenodd"/></clipPath><clipPath id="04897ef9-50e0-4006-8276-c9409a741359" transform="translate(0 -9.38)"><path d="M42.85,89.76v-.42l1-.1a.4.4,0,0,0,.23-.09.52.52,0,0,0,.11-.28,14.34,14.34,0,0,0,.07-1.8V85.81q0-.64,0-1.39l0-.45a.45.45,0,0,0,0-.21.09.09,0,0,0-.08,0l-.23.09q-1,.45-1.29.59l-.06,0c0-.07,0-.18-.05-.33s0-.22-.06-.32v0l1.48-.45q.55-.18,1.72-.62l.11.08c0,.06,0,.22,0,.49s0,.44,0,.52q0,.45,0,2.31v.77q0,1.13,0,1.56a3.17,3.17,0,0,0,.07.78.21.21,0,0,0,.1.1,2.5,2.5,0,0,0,.75.09l.34,0v.42q-1.13-.05-1.83-.05l-2.21.05" style="fill:none;clip-rule:evenodd"/></clipPath><clipPath id="e35363cf-17b5-4905-8d72-94f440089a30" transform="translate(0 -9.38)"><path d="M49,86.35a2.9,2.9,0,0,1-.62-.44,1.45,1.45,0,0,1-.31-.51,1.89,1.89,0,0,1-.12-.68,1.86,1.86,0,0,1,.3-1.05A2,2,0,0,1,49,83a2.65,2.65,0,0,1,1.19-.24,1.92,1.92,0,0,1,1.35.44A1.41,1.41,0,0,1,52,84.26a1.46,1.46,0,0,1-.14.63,1.81,1.81,0,0,1-.39.53,3.14,3.14,0,0,1-.47.34,3.16,3.16,0,0,1,.68.37,1.54,1.54,0,0,1,.37.39,1.63,1.63,0,0,1,.2.48,2.3,2.3,0,0,1,.07.56A2.35,2.35,0,0,1,52,88.87a2.31,2.31,0,0,1-1,.86,2.75,2.75,0,0,1-1.1.2,2.39,2.39,0,0,1-1-.19,2,2,0,0,1-.53-.37,1.83,1.83,0,0,1-.4-.55,1.78,1.78,0,0,1-.15-.76,1.88,1.88,0,0,1,.1-.63,1.49,1.49,0,0,1,.28-.49,1.79,1.79,0,0,1,.38-.34Zm.45.2a1.93,1.93,0,0,0-.55.63,1.62,1.62,0,0,0-.18.77,1.43,1.43,0,0,0,.39,1,1.26,1.26,0,0,0,.94.4,1.11,1.11,0,0,0,.83-.34,1.18,1.18,0,0,0,.33-.86,1.33,1.33,0,0,0-.13-.62,1.26,1.26,0,0,0-.44-.45,7.17,7.17,0,0,0-1-.51Zm1.08-1a1.39,1.39,0,0,0,.46-.51,1.37,1.37,0,0,0,.17-.66,1.09,1.09,0,0,0-.31-.81,1.12,1.12,0,0,0-.82-.3,1,1,0,0,0-.72.27,1,1,0,0,0-.23,1,1,1,0,0,0,.15.28,1.2,1.2,0,0,0,.26.24,2.58,2.58,0,0,0,.39.22l.38.18Z" style="fill:none;clip-rule:evenodd"/></clipPath><clipPath id="0746f968-9bbd-4cf8-bb91-e893845fa664" transform="translate(0 -9.38)"><path d="M54.33,86.35a2.93,2.93,0,0,1-.62-.44,1.46,1.46,0,0,1-.31-.51,1.89,1.89,0,0,1-.12-.68,1.86,1.86,0,0,1,.3-1.05,2,2,0,0,1,.78-.69,2.66,2.66,0,0,1,1.19-.24,1.92,1.92,0,0,1,1.35.44,1.41,1.41,0,0,1,.48,1.08,1.45,1.45,0,0,1-.14.63,1.79,1.79,0,0,1-.39.53,3.09,3.09,0,0,1-.47.34,3.16,3.16,0,0,1,.68.37,1.54,1.54,0,0,1,.37.39,1.63,1.63,0,0,1,.2.48,2.31,2.31,0,0,1,.06.56,2.35,2.35,0,0,1-.37,1.31,2.31,2.31,0,0,1-1,.86,2.75,2.75,0,0,1-1.1.2,2.38,2.38,0,0,1-1-.19,2,2,0,0,1-.53-.37,1.81,1.81,0,0,1-.4-.55,1.78,1.78,0,0,1-.15-.76,1.88,1.88,0,0,1,.1-.63,1.51,1.51,0,0,1,.28-.49,1.77,1.77,0,0,1,.38-.34Zm.45.2a1.92,1.92,0,0,0-.55.63,1.62,1.62,0,0,0-.19.77,1.43,1.43,0,0,0,.39,1,1.26,1.26,0,0,0,.94.4A1.11,1.11,0,0,0,56.2,89a1.18,1.18,0,0,0,.33-.86,1.32,1.32,0,0,0-.13-.62,1.25,1.25,0,0,0-.44-.45,7.14,7.14,0,0,0-1-.51Zm1.08-1a1.39,1.39,0,0,0,.46-.51,1.37,1.37,0,0,0,.17-.66,1.09,1.09,0,0,0-.31-.81,1.12,1.12,0,0,0-.82-.3,1,1,0,0,0-.72.27,1,1,0,0,0-.23,1,1,1,0,0,0,.15.28,1.21,1.21,0,0,0,.26.24,2.63,2.63,0,0,0,.39.22l.38.18Z" style="fill:none;clip-rule:evenodd"/></clipPath><clipPath id="cff8eead-8ce2-40d8-a9e3-579ce12d610c" transform="translate(0 -9.38)"><path d="M59,86.83l-.2-.11c0-.18,0-.44,0-.78l0-.83v-.68l0-.57c0-.26,0-.41,0-.46s0-.18,0-.26,0-.19,0-.3l.07-.05q1.26.05,2.17.05h.55l1,0,0,.08c0,.38-.06.62-.06.73s0,.21,0,.35l-.05.07-.46,0L61,84c-.74,0-1.25,0-1.54,0l0,1.64a4.1,4.1,0,0,1,.75-.28,2.83,2.83,0,0,1,.66-.07,2.11,2.11,0,0,1,1.52.53,1.84,1.84,0,0,1,.55,1.39,2.53,2.53,0,0,1-.4,1.34,2.84,2.84,0,0,1-1.22,1.05,3.22,3.22,0,0,1-1.44.31,3.16,3.16,0,0,1-.59,0,3.68,3.68,0,0,1-.61-.19q0-.23-.08-.46t-.27-1l.34-.12a2.58,2.58,0,0,0,.41.66,1.75,1.75,0,0,0,1.28.57,1.25,1.25,0,0,0,.94-.39,1.46,1.46,0,0,0,.37-1.06,1.49,1.49,0,0,0-.38-1.08,1.38,1.38,0,0,0-1-.39,1.81,1.81,0,0,0-.46.05,1.72,1.72,0,0,0-.34.13l-.39.24" style="fill:none;clip-rule:evenodd"/></clipPath><clipPath id="296f2305-7d86-45f4-be5b-0d82985825a8" transform="translate(0 -9.38)"><path d="M74.06,96.14a1.8,1.8,0,1,0,1.8,1.8,1.8,1.8,0,0,0-1.8-1.8" style="fill:none;clip-rule:evenodd"/></clipPath><clipPath id="988d4ce7-0c62-4d6d-b38a-6fe8dae1a93d" transform="translate(0 -9.38)"><path d="M52.87,14.38a47.68,47.68,0,1,0,47.87,47.68A47.78,47.78,0,0,0,52.87,14.38ZM96.94,51.58a3.84,3.84,0,0,1,.28.82,4.71,4.71,0,0,1,.11.89,3,3,0,0,1-.07.78l-.1.06-.56,0-.71.11-.08-.36a5.53,5.53,0,0,0,.69-.19,1.1,1.1,0,0,0,.23-.53,1.79,1.79,0,0,0,0-.76,1.3,1.3,0,0,0-.49-.83.93.93,0,0,0-.75-.17,1.07,1.07,0,0,0-.43.19.7.7,0,0,0-.22.31,1.89,1.89,0,0,0-.08.53q0,.26,0,.71c0,.3,0,.5,0,.59a2.25,2.25,0,0,1-.09.6,1.19,1.19,0,0,1-.21.4,1.39,1.39,0,0,1-.37.3,1.86,1.86,0,0,1-.54.2,2,2,0,0,1-1,0,2.08,2.08,0,0,1-.67-.34,2.3,2.3,0,0,1-.52-.53,3.36,3.36,0,0,1-.47-1.17,4.07,4.07,0,0,1-.11-.95,4.49,4.49,0,0,1,.14-1,6.39,6.39,0,0,0,1.5-.19l.08.36a5.29,5.29,0,0,0-.75.21,1.37,1.37,0,0,0-.34.65,1.89,1.89,0,0,0,0,.89,1.77,1.77,0,0,0,.3.69,1,1,0,0,0,.49.37,1.16,1.16,0,0,0,.6,0,1,1,0,0,0,.44-.2.74.74,0,0,0,.24-.38,3.37,3.37,0,0,0,.07-.8c0-.53,0-.89,0-1.06a1.48,1.48,0,0,1,.19-.66,1.33,1.33,0,0,1,.43-.44,1.85,1.85,0,0,1,.61-.25,2,2,0,0,1,.92,0,1.62,1.62,0,0,1,.74.39A2.24,2.24,0,0,1,96.94,51.58Zm-4-10.06.34-.14c.13.34.22.6.29.76l.26.57.17.36q-.73,1.28-1.64,3-.66,1.27-1,2.07l.93-.39q2.16-.91,2.52-1.12.14-.08.16-.15a1.6,1.6,0,0,0-.18-.66l.34-.14q.18.5.36.9c.11.26.26.6.46,1l-.34.14a1.75,1.75,0,0,0-.32-.55.11.11,0,0,0-.08,0,4.93,4.93,0,0,0-.95.31l-1.06.43Q90.52,49.06,90,49.35l-.06,0q-.09-.36-.19-.73.9-1.9,2.79-5.48l-2,.84-1.29.57a3.4,3.4,0,0,0-.55.29.18.18,0,0,0-.05.09.3.3,0,0,0,0,.15,3.68,3.68,0,0,0,.13.39l0,.08-.32.14-.36-.87q-.16-.39-.47-1l.34-.14a4.83,4.83,0,0,0,.27.52.19.19,0,0,0,.08.05.4.4,0,0,0,.17,0l.76-.25.87-.35L91.46,43l1.16-.51a2.59,2.59,0,0,0,.37-.18.32.32,0,0,0,.11-.11.28.28,0,0,0,0-.15A4.1,4.1,0,0,0,92.94,41.52ZM89,39l.94-.59a5.4,5.4,0,0,0,.56-.41.19.19,0,0,0,.05-.08.21.21,0,0,0,0-.11,4.35,4.35,0,0,0-.26-.48l.33-.2q.27.48.64,1.08t.82,1.26l-.33.2a4.2,4.2,0,0,0-.3-.42.32.32,0,0,0-.1-.07h-.09a1.08,1.08,0,0,0-.26.11l-.37.21-1,.59L88.18,41l-.67.43a2.36,2.36,0,0,0-.47.34.17.17,0,0,0,0,.1A.32.32,0,0,0,87,42a4,4,0,0,0,.25.45l-.32.2q-.35-.61-.78-1.29t-.68-1l.32-.2.3.43a.27.27,0,0,0,.11.08h.08l.37-.19q.46-.25.84-.48ZM85.83,31a5.81,5.81,0,0,1,.68.81,7.27,7.27,0,0,1,.54,1l0,.05a2.73,2.73,0,0,0-.44.28q-.4.3-.71.58l-.24-.24c.22-.23.39-.42.52-.57a1.9,1.9,0,0,0-.14-.78,2.43,2.43,0,0,0-.54-.76,2.16,2.16,0,0,0-1.61-.71,2.52,2.52,0,0,0-1.72.82,3.33,3.33,0,0,0-.73,1,2.47,2.47,0,0,0-.23,1,2.38,2.38,0,0,0,.13.84,2.85,2.85,0,0,0,.66,1,3.43,3.43,0,0,0,.66.53,4,4,0,0,0,.85.37v.15l-.45.17a4.41,4.41,0,0,1-1-.42,4.63,4.63,0,0,1-.83-.69A4.22,4.22,0,0,1,80.31,34a2.91,2.91,0,0,1,0-2.11,3.45,3.45,0,0,1,.83-1.26,2.92,2.92,0,0,1,2.25-.9A3.76,3.76,0,0,1,85.83,31ZM79.44,26a4.56,4.56,0,0,0-.42-.36l.23-.3q.42.35,1,.78t1.21.89l-.23.3a3.8,3.8,0,0,0-.44-.29l-.12,0-.08,0a1.06,1.06,0,0,0-.21.2l-.27.33-.71.9-1.06,1.39-.47.64a2.38,2.38,0,0,0-.32.49.17.17,0,0,0,0,.11.33.33,0,0,0,.07.12,4.12,4.12,0,0,0,.39.33l-.23.3q-.55-.45-1.19-.93c-.37-.28-.71-.53-1-.73l.23-.3.43.29a.27.27,0,0,0,.13,0l.08,0,.28-.3q.34-.39.61-.74l1.1-1.44.67-.89a5.61,5.61,0,0,0,.38-.58.19.19,0,0,0,0-.09A.22.22,0,0,0,79.44,26ZM69.33,26a.37.37,0,0,0,.12-.12c.07-.09.21-.31.43-.67q.19-.31.46-.82L71,23.19l.58-1.12a2.44,2.44,0,0,0,.17-.37.32.32,0,0,0,0-.15.28.28,0,0,0-.09-.13,4.39,4.39,0,0,0-.46-.31l.17-.32.7.41.56.29.36.18q.24,1.45.64,3.39.29,1.4.53,2.23l.47-.88q1.11-2.05,1.26-2.44a.3.3,0,0,0,0-.22,1.61,1.61,0,0,0-.56-.4l.17-.32.85.48,1,.5-.17.32a1.75,1.75,0,0,0-.59-.23.12.12,0,0,0-.07,0,5,5,0,0,0-.54.83l-.56,1q-1.37,2.54-1.61,3.11h-.07l-.6-.45q-.49-2-1.28-6l-1,1.9q-.32.59-.64,1.24a3.27,3.27,0,0,0-.24.56.17.17,0,0,0,0,.1.31.31,0,0,0,.11.11l.35.22.08,0-.17.31-.82-.45-1-.52.17-.32a4.75,4.75,0,0,0,.54.23Zm-8.41-2.66.49.12a.33.33,0,0,0,.14,0,.18.18,0,0,0,.09-.07,2.59,2.59,0,0,0,.22-.57l.26-.82.57-1.95.23-.82a2.63,2.63,0,0,0,.13-.6.18.18,0,0,0,0-.11.34.34,0,0,0-.11-.09,4,4,0,0,0-.48-.17l.11-.37q.68.23,1.44.45t1.21.33l-.11.37-.54-.12a.2.2,0,0,0-.13,0,.75.75,0,0,0-.14.28q-.16.41-.4,1.21l-.14.48Q64,21,65,21.31q1.21.36,1.5.41l.14-.48c.13-.43.21-.71.24-.83q.13-.56.13-.64a.16.16,0,0,0,0-.09.23.23,0,0,0-.09-.08,4.63,4.63,0,0,0-.51-.19l.11-.36,1.2.38,1.45.4L69,20.2l-.49-.12a.33.33,0,0,0-.14,0,.17.17,0,0,0-.09.07,2.59,2.59,0,0,0-.22.56l-.26.83-.57,1.95-.22.82a2.88,2.88,0,0,0-.13.6.21.21,0,0,0,0,.11.29.29,0,0,0,.11.09l.48.17-.11.37L66,25.21q-.68-.2-1.21-.33l.11-.37.54.12a.21.21,0,0,0,.13,0,.8.8,0,0,0,.14-.28q.16-.41.4-1.21l.26-.87q-.2-.09-1.21-.38l-1.29-.37-.26-.05-.26.87q-.19.65-.23.83-.13.56-.14.64a.16.16,0,0,0,0,.08.23.23,0,0,0,.09.08l.51.19-.11.36-1.2-.38-1.45-.4ZM54.23,20a2.9,2.9,0,0,1,1.14-2.13,3.77,3.77,0,0,1,2.72-.62,5.84,5.84,0,0,1,1,.18,7.11,7.11,0,0,1,1.05.41l0,.06a2.71,2.71,0,0,0-.16.5c-.07.32-.13.62-.17.9l-.34,0c0-.32,0-.57,0-.76a1.92,1.92,0,0,0-.61-.51,2.48,2.48,0,0,0-.91-.23,2.16,2.16,0,0,0-1.69.49,2.5,2.5,0,0,0-.78,1.73,3.31,3.31,0,0,0,.09,1.23,2.48,2.48,0,0,0,.47.91,2.4,2.4,0,0,0,.64.56,2.85,2.85,0,0,0,1.13.31,3.43,3.43,0,0,0,.85,0,4,4,0,0,0,.89-.26l.1.11-.24.42a4.45,4.45,0,0,1-1,.3,4.62,4.62,0,0,1-1.09,0,4.27,4.27,0,0,1-1.6-.44,2.93,2.93,0,0,1-1.4-1.59A3.45,3.45,0,0,1,54.23,20Zm-6-2.66.57,0,1.32-.11.88-.09.64,0h.15l0,.05,0,.63s0,.25,0,.63l-.34,0a4,4,0,0,0-.09-.62.16.16,0,0,0-.06-.08,1.07,1.07,0,0,0-.35,0,7.9,7.9,0,0,0-.85,0c-.26,0-.52,0-.79.09a10.54,10.54,0,0,0,0,1.24l.07.89.62,0,.72-.07a.84.84,0,0,0,.27-.05.16.16,0,0,0,.06-.1,2.18,2.18,0,0,0,0-.55l.35,0,.06,1,.09.94-.37,0a1.58,1.58,0,0,0-.11-.61.25.25,0,0,0-.2-.09,5.23,5.23,0,0,0-.77,0q-.42,0-.69.08l.14,1.83c0,.21,0,.38.05.53.24,0,.52,0,.83,0s.6-.06.86-.1a1.43,1.43,0,0,0,.48-.12.15.15,0,0,0,.05-.08,4.53,4.53,0,0,0,.11-.8l.36,0a13.32,13.32,0,0,0,0,1.42l-.05.06a7.69,7.69,0,0,1-.79.09l-.7,0-1.42.09-1.45.14,0-.23a2.16,2.16,0,0,0,.41-.28c0-.12,0-.32,0-.59,0-.5,0-.86,0-1.08l-.15-1.94q0-.11-.08-.84a2.19,2.19,0,0,0-.11-.59.14.14,0,0,0-.07-.06,2.44,2.44,0,0,0-.63,0l0-.37Zm-8.47,1.65.43-.07,1.4-.33,1.71-.41,1.42-.36.39-.12.05,0a4.4,4.4,0,0,0,.06.46l.21.93-.35.08a5,5,0,0,0-.21-.61.45.45,0,0,0-.1-.17.3.3,0,0,0-.14,0c-.24,0-.52.09-.84.17l-.6.15q0,.15.27,1.16l.61,2.52a7.27,7.27,0,0,0,.31,1.08.26.26,0,0,0,.17.13,2.05,2.05,0,0,0,.62-.08l.08.35c-.55.11-1,.21-1.39.3s-.86.22-1.37.37l-.08-.35A2.14,2.14,0,0,0,43,24a.27.27,0,0,0,.09-.2,7.07,7.07,0,0,0-.22-1.1l-.61-2.52q-.25-1-.29-1.15l-.6.15c-.3.07-.57.15-.8.22a.37.37,0,0,0-.15.07.29.29,0,0,0,0,.16,4.34,4.34,0,0,0,.1.68l-.35.08-.26-1c0-.12-.08-.25-.14-.39Zm-6.29,2.53.4-.3a2.06,2.06,0,0,1,.46.09,2.82,2.82,0,0,1,.48.26,10.51,10.51,0,0,1,1,.74l1,.87.15-1q0-.27.18-1.66c0-.32.06-.52.06-.62l.63-.27.08.18q-.2.86-.38,2t-.2,1.42a1.41,1.41,0,0,0,0,.35,1.45,1.45,0,0,0,.11.31l.29.67c.15.34.26.58.34.72a.83.83,0,0,0,.18.25.23.23,0,0,0,.15,0,3.54,3.54,0,0,0,.54-.19l.15.35-1.39.57-1.2.55-.15-.35a4.46,4.46,0,0,0,.52-.27A.2.2,0,0,0,37,26a.66.66,0,0,0-.06-.26c-.11-.31-.22-.57-.31-.78l-.33-.76A1.24,1.24,0,0,0,36,23.9q-.67-.52-1.39-1a7.12,7.12,0,0,0-1-.59,1.56,1.56,0,0,0-.4-.14,1.41,1.41,0,0,0-.36.13l-.13-.3Zm-4.92,2.81q.67-.41,1.27-.8l.2.32a2,2,0,0,0-.47.38.15.15,0,0,0,0,.11,3.83,3.83,0,0,0,.25.48q.23.42.62,1L31,26.86l.65,1,.39.63.71-.4a7.53,7.53,0,0,0,.94-.67.53.53,0,0,0,.15-.16.37.37,0,0,0,0-.17c-.07-.22-.15-.46-.25-.73l.31-.19.06.13.37.8.23.44a1.47,1.47,0,0,1-.19.17q-.21.16-.69.45l-.88.52-.86.51q-.36.22-1.08.71l-.12-.19a2.8,2.8,0,0,0,.18-.31A.41.41,0,0,0,31,29.3a.1.1,0,0,0,0-.05,7.63,7.63,0,0,0-.37-.68q-.33-.58-.82-1.37-.72-1.17-.9-1.44a6,6,0,0,0-.54-.77.14.14,0,0,0-.1,0,1.94,1.94,0,0,0-.61.27l-.2-.33Q27.94,24.65,28.54,24.28Zm-6.8,6.31a2.76,2.76,0,0,1,.33-1.09A4.51,4.51,0,0,1,23,28.34a4.39,4.39,0,0,1,1.22-.79,2.62,2.62,0,0,1,1-.2,2.59,2.59,0,0,1,.85.11,2.83,2.83,0,0,1,.71.35,3.68,3.68,0,0,1,.66.59,4,4,0,0,1,.8,1.31,2.72,2.72,0,0,1,.16,1.09,2.82,2.82,0,0,1-.27,1.07,4.16,4.16,0,0,1-1,1.29,3.7,3.7,0,0,1-1.49.86,2.63,2.63,0,0,1-1.52,0,3.39,3.39,0,0,1-1.45-1,3.66,3.66,0,0,1-.75-1.19A2.73,2.73,0,0,1,21.74,30.58Zm-5,4.8,1.16-1.56a2.76,2.76,0,0,1,.64-.64,1.22,1.22,0,0,1,.69-.19,1.28,1.28,0,0,1,.78.3,1.89,1.89,0,0,1,.58.74,1.75,1.75,0,0,1,.11,1,2.07,2.07,0,0,1-.42,1l-.18.21-.2.18a1.83,1.83,0,0,0-.34-.07l0-.13.15-.11L19.8,36a.9.9,0,0,0,.19-.73,1.24,1.24,0,0,0-.52-.74,1.25,1.25,0,0,0-.88-.32,1.06,1.06,0,0,0-.73.45,2.91,2.91,0,0,0-.29.46c.13.12.34.29.61.5l.67.53,1.3,1,1,.76a2.14,2.14,0,0,0,.41.25h.1A.34.34,0,0,0,21.8,38l.39-.44.3.23-1,1.3c-.25.33-.49.64-.7.95l-.3-.23a1.75,1.75,0,0,0,.31-.52.14.14,0,0,0,0-.09,1.15,1.15,0,0,0-.22-.23q-.52-.46-1.19-1l-1.21-.94-.66-.48-.53-.39a.52.52,0,0,0-.17-.08h-.08l-.13.09-.32.36-.28-.22ZM10.91,46l.59-1.44.35.15a2.61,2.61,0,0,0-.17.5.25.25,0,0,0,0,.15.15.15,0,0,0,.08.08,3.84,3.84,0,0,0,.87.06h.55l2.9.05-1.82-1.83-.63-.61q-.4-.39-.55-.49l-.09,0a.2.2,0,0,0-.11,0l-.07,0a.58.58,0,0,0-.08.14q-.14.25-.22.43L12.17,43l.46-1,.35-.87.35.15a1.42,1.42,0,0,0-.11.48,4,4,0,0,0,.71.84l.54.57,1.06,1.09q1.35,1.39,1.93,1.93l-.26.61-1.87,0-1.6,0q-1.88,0-2.25,0a1.05,1.05,0,0,0-.45.08,1.39,1.39,0,0,0-.29.46l-.35-.15ZM9.47,50.62c.13-.51.25-1,.35-1.46l.37.1a4,4,0,0,0-.1.51.28.28,0,0,0,0,.13.14.14,0,0,0,.06.06,1,1,0,0,0,.26.11l.41.12L12,50.5l1.7.44.77.19a2.33,2.33,0,0,0,.57.1.18.18,0,0,0,.11,0,.34.34,0,0,0,.08-.11,4.19,4.19,0,0,0,.16-.49l.37.1q-.21.68-.41,1.45T15,53.36l-.37-.1q.1-.44.1-.51a.25.25,0,0,0,0-.13.14.14,0,0,0-.06-.06l-.39-.14c-.33-.11-.64-.2-.93-.28l-1.76-.46-1.08-.27a5.44,5.44,0,0,0-.68-.12l-.09,0a.21.21,0,0,0-.07.09,4.56,4.56,0,0,0-.18.52l-.37-.1C9.24,51.48,9.35,51.08,9.47,50.62ZM8.08,59.05q.08-.78.13-1.49l.38,0a2,2,0,0,0,0,.61.24.24,0,0,0,.16.11,7.19,7.19,0,0,0,1.06.16l1.2.12,0-.07a13.1,13.1,0,0,0-.94-1.22l-.56-.68-.4-.46-.41-.43-.34,0c0-.29.06-.48.07-.58l.1-1,.35,0a2.41,2.41,0,0,0,0,.59,1.44,1.44,0,0,0,.22.47q.18.29.84,1.2l.74.91.8-.54L12.74,56l1.11-.78a1.3,1.3,0,0,0,.33-.31,1,1,0,0,0,.09-.36l.38,0q-.08.62-.13,1.08c0,.23,0,.46-.05.67a2.48,2.48,0,0,0-.53.28l-1.06.74-1.3.89a.93.93,0,0,0-.25.23.23.23,0,0,0,0,.1.1.1,0,0,0,0,.06l0,0,.1,0,1,.1.86.08a1,1,0,0,0,.43,0,.21.21,0,0,0,.09-.11,3.12,3.12,0,0,0,.11-.56l.38,0q-.1.7-.18,1.49T14,60.93l-.38,0a3.11,3.11,0,0,0,0-.58.17.17,0,0,0,0-.08.29.29,0,0,0-.11-.07l-.34-.07L12.18,60l-1.57-.16-1.34-.11a4.84,4.84,0,0,0-.66,0,.3.3,0,0,0-.13,0,.2.2,0,0,0-.06.08,4.38,4.38,0,0,0-.11.57l-.38,0Q8,59.76,8.08,59.05Zm.77,8.65a.16.16,0,0,0-.07.07,2.44,2.44,0,0,0,0,.65l-.36,0c0-.07,0-.3,0-.69,0-.19,0-.47-.06-.82s-.05-.56-.08-.78-.08-.65-.09-.88a3.91,3.91,0,0,1,0-1,1.11,1.11,0,0,1,.36-.61,1.2,1.2,0,0,1,.73-.3,1.55,1.55,0,0,1,1,.25,2.16,2.16,0,0,1,.76.94l.38-.28.23-.18.08-.06,1-.75.41-.32.48-.44a.45.45,0,0,0,.1-.15.8.8,0,0,0,0-.28L14,62q0,.67.06,1t.07.69a1,1,0,0,0-.24.12l-1.46,1c-.42.3-.74.55-1,.76a1.31,1.31,0,0,0-.27.29l-.15,0a1.77,1.77,0,0,0-.17-.77,1,1,0,0,0-.48-.41,1.42,1.42,0,0,0-.73-.12,1.12,1.12,0,0,0-.65.24,1,1,0,0,0-.33.5,2.15,2.15,0,0,0,0,.65,2.45,2.45,0,0,0,.07.41l.7,0,1.64-.11,1.38-.12,1-.11a1,1,0,0,0,.31-.07.17.17,0,0,0,.06-.06.32.32,0,0,0,0-.13,4.34,4.34,0,0,0,0-.5l.38,0q0,.74.1,1.5T14.45,68l-.38,0a3.33,3.33,0,0,0-.1-.58.14.14,0,0,0,0-.07l-.12,0a4.25,4.25,0,0,0-.52,0L12,67.37l-1.61.13-.91.09A2.74,2.74,0,0,0,8.84,67.7Zm.84,6.52-.16-.59,3.86-3.07.5-.42.34-.27a.43.43,0,0,0,.09-.11.25.25,0,0,0,0-.1,1.42,1.42,0,0,0,0-.25l0-.19.35-.1.3,1.17.43,1.46-.35.09a2.52,2.52,0,0,0-.21-.55.13.13,0,0,0-.14,0,1.12,1.12,0,0,0-.32.19l-.82.61.59,2.15.55,0a3.37,3.37,0,0,0,.78,0,.16.16,0,0,0,.12-.11,1.89,1.89,0,0,0-.09-.62l.35-.1.24,1,.29,1-.35.09a3.35,3.35,0,0,0-.16-.39.31.31,0,0,0-.09-.09l-.15-.06-.72-.11-1.14-.14-3-.35ZM14.53,84.6a4.17,4.17,0,0,0,.2.47l-.34.17q-.3-.65-.66-1.35t-.59-1.1l.34-.17a4.81,4.81,0,0,0,.28.47.21.21,0,0,0,.11.08.81.81,0,0,0,.3-.09q.41-.16,1.16-.54l.45-.22q-.12-.29-.57-1.18-.57-1.12-.73-1.37L14,80l-.77.4-.56.34a.17.17,0,0,0-.05.07.24.24,0,0,0,0,.11,4.54,4.54,0,0,0,.21.5l-.34.17q-.22-.5-.54-1.13t-.71-1.33l.34-.17a4.6,4.6,0,0,0,.25.44.33.33,0,0,0,.11.1.18.18,0,0,0,.11,0,2.65,2.65,0,0,0,.56-.23l.78-.38L15.25,78l.75-.4a2.87,2.87,0,0,0,.53-.31.22.22,0,0,0,.06-.1.3.3,0,0,0,0-.14,4.41,4.41,0,0,0-.21-.46l.34-.17q.3.65.66,1.35T18,78.83l-.34.17a4.54,4.54,0,0,0-.28-.47.21.21,0,0,0-.11-.08.8.8,0,0,0-.29.09q-.41.17-1.16.55L15,79.5q.07.21.55,1.14l.61,1.19.14.23.81-.41.77-.4.56-.34a.15.15,0,0,0,0-.07.22.22,0,0,0,0-.11,4.81,4.81,0,0,0-.21-.5l.34-.17q.23.5.55,1.13t.7,1.32l-.34.17a4.28,4.28,0,0,0-.25-.44.32.32,0,0,0-.1-.1.18.18,0,0,0-.11,0,2.64,2.64,0,0,0-.56.23l-.78.38-1.82.92-.76.4a2.62,2.62,0,0,0-.53.32.18.18,0,0,0-.06.09A.33.33,0,0,0,14.53,84.6Zm9.57,4.05a3.18,3.18,0,0,0-.41-.42l-.09,0-.13,0-.29.19-.76.54-1.24,1-1,.86a5.07,5.07,0,0,0-.49.44.3.3,0,0,0-.07.12.19.19,0,0,0,0,.1,4.32,4.32,0,0,0,.32.48l-.3.24q-.32-.45-.76-1t-1-1.16l.3-.24a2,2,0,0,0,.43.44.24.24,0,0,0,.19,0,7.12,7.12,0,0,0,.88-.62l.94-.74,0-.07a13.24,13.24,0,0,0-1.53-.22l-.88-.09-.61-.06-.59,0-.26.22-.36-.47-.64-.79.28-.22a2.35,2.35,0,0,0,.42.42,1.47,1.47,0,0,0,.49.19c.22.05.7.14,1.44.27l1.16.14c0-.22.12-.53.2-.94L20,85.72c.13-.66.21-1.11.25-1.33a1.31,1.31,0,0,0,0-.45,1,1,0,0,0-.19-.32l.3-.23.66.86.43.52a2.57,2.57,0,0,0-.18.57l-.24,1.27q-.3,1.45-.3,1.54a1,1,0,0,0,0,.33.24.24,0,0,0,0,.1l.05,0h0l.08-.06.77-.6.67-.54a1,1,0,0,0,.3-.31.22.22,0,0,0,0-.14,3.18,3.18,0,0,0-.32-.47l.3-.23q.42.57.91,1.19t.8,1Zm5.62,11.08a2.56,2.56,0,1,1,2.57-2.56A2.57,2.57,0,0,1,29.72,99.73Zm19.22,1.77a1.71,1.71,0,0,0-.63-.06.11.11,0,0,0-.06.05,5,5,0,0,0-.3.94q-.19.75-.27,1.1-.64,2.8-.72,3.41l-.06,0-.7-.27q-1-1.83-2.83-5.43l-.48,2.09q-.15.65-.28,1.36a3.23,3.23,0,0,0-.08.6.17.17,0,0,0,0,.09.31.31,0,0,0,.13.08l.39.12h.08l-.08.34-.91-.21-1.12-.23.08-.36a5,5,0,0,0,.58.08l.09,0a.38.38,0,0,0,.09-.14c0-.1.12-.36.23-.76q.1-.34.22-.9l.31-1.35.26-1.23a2.51,2.51,0,0,0,.07-.4.31.31,0,0,0,0-.15.28.28,0,0,0-.12-.1,4.19,4.19,0,0,0-.53-.18l.08-.35.78.2.61.13.39.07q.61,1.33,1.51,3.08.65,1.27,1.1,2l.22-1q.51-2.26.56-2.67a.31.31,0,0,0,0-.22,1.62,1.62,0,0,0-.64-.23l.08-.35.94.24,1.08.22Zm6.88.19s0,.34,0,.94h-.36a5,5,0,0,0-.06-.64.42.42,0,0,0-.06-.18.3.3,0,0,0-.14,0c-.24,0-.52,0-.85,0h-.62c0,.1,0,.49,0,1.18v2.58a7,7,0,0,0,.05,1.12.25.25,0,0,0,.13.17,2,2,0,0,0,.62.07v.35q-.84,0-1.42,0t-1.42,0v-.35a2.11,2.11,0,0,0,.62-.07.27.27,0,0,0,.13-.17,7,7,0,0,0,0-1.12v-2.58q0-1.06,0-1.18h-.62c-.31,0-.59,0-.82,0a.38.38,0,0,0-.16,0,.28.28,0,0,0-.05.15,4.13,4.13,0,0,0-.06.68h-.36q0-.88,0-1c0-.13,0-.26,0-.41l0,0,.43,0H54l1.46,0,.4,0,0,0C55.84,101.4,55.82,101.56,55.82,101.69Zm7.77,3.21a1.84,1.84,0,0,1-.35.63,2.19,2.19,0,0,1-.64.52,3.64,3.64,0,0,1-.94.34,4.1,4.1,0,0,1-1.24.1,2,2,0,0,1-.74-.19,1.57,1.57,0,0,1-.5-.38,1.55,1.55,0,0,1-.28-.47q-.06-.15-.21-.81l-.18-.81-.25-1.07q-.14-.59-.27-1.05a.86.86,0,0,0-.11-.26.36.36,0,0,0-.13-.08l-.56.07-.08-.35,1.38-.29.57-.14.57-.14.16,0,.08.35a1.31,1.31,0,0,0-.56.21.21.21,0,0,0-.05.17,6.86,6.86,0,0,0,.21,1.16l.23,1,.12.49c.12.51.2.83.24.95a1.41,1.41,0,0,0,.35.59,1.14,1.14,0,0,0,.58.28,2.11,2.11,0,0,0,.88,0,1.93,1.93,0,0,0,.89-.42,1.18,1.18,0,0,0,.38-.63A3.4,3.4,0,0,0,63,103.3l-.2-.86-.32-1.35a2.65,2.65,0,0,0-.21-.62.2.2,0,0,0-.12-.08,1.72,1.72,0,0,0-.63.06l-.08-.35.91-.18.11,0,.93-.24.08.35a1.19,1.19,0,0,0-.48.18.25.25,0,0,0-.05.15,6.56,6.56,0,0,0,.14.86q.14.76.25,1.2l.23,1a6.09,6.09,0,0,1,.13.79A1.87,1.87,0,0,1,63.59,104.9Zm10.47-4.4a2.56,2.56,0,1,1,2.57-2.56A2.57,2.57,0,0,1,74.06,100.5Zm-21.19-2A36.47,36.47,0,1,1,89.49,62.06,36.54,36.54,0,0,1,52.87,98.54Zm34.24-7.2-.39.42-.89,1-.58.66-.44.45-.12.09-.06,0-.4-.48L83.78,93l.23-.25a3.91,3.91,0,0,0,.49.4.16.16,0,0,0,.1,0,1,1,0,0,0,.29-.21,7.69,7.69,0,0,0,.61-.59c.18-.19.35-.39.52-.6a10.43,10.43,0,0,0-.88-.89l-.65-.6q-.22.2-.44.44l-.48.54a.81.81,0,0,0-.17.22.16.16,0,0,0,0,.11,2.2,2.2,0,0,0,.36.42l-.24.26-.69-.66L82.15,91l.25-.27a1.57,1.57,0,0,0,.5.37.25.25,0,0,0,.21-.06,5,5,0,0,0,.56-.53c.19-.21.34-.38.45-.53l-1.35-1.25-.4-.35c-.17.16-.37.36-.59.59s-.4.45-.57.65a1.42,1.42,0,0,0-.27.42.16.16,0,0,0,0,.09,4.58,4.58,0,0,0,.47.66l-.24.26a13.52,13.52,0,0,0-1-1V89.9c.11-.15.28-.35.52-.6l.48-.5,1-1,1-1.08.17.16a2.07,2.07,0,0,0-.1.48q.12.14.4.43.52.53.78.76l1.44,1.32.63.56a2.23,2.23,0,0,0,.48.36.14.14,0,0,0,.09,0,2.45,2.45,0,0,0,.48-.41l.27.25Zm4.8-6.59q-.22.3-.81,1.19l-1,1.46q-.61.91-.8,1.22l-.2.35h-.06c-.13-.12-.25-.22-.36-.3l-.79-.54.2-.3a5.12,5.12,0,0,0,.57.31.46.46,0,0,0,.19.06.32.32,0,0,0,.1-.1q.23-.28.5-.69l.34-.52-1-.67-2.17-1.43a7.08,7.08,0,0,0-1-.58.26.26,0,0,0-.21,0,2,2,0,0,0-.4.48l-.3-.2q.5-.68.82-1.16t.75-1.2l.3.2a2.12,2.12,0,0,0-.28.55.27.27,0,0,0,.07.21,7.15,7.15,0,0,0,.91.66l2.17,1.43,1,.65.34-.52c.17-.26.32-.49.43-.7a.39.39,0,0,0,.06-.16.3.3,0,0,0-.1-.13,4.22,4.22,0,0,0-.53-.43l.2-.3.85.53.37.19,0,.06Zm3.31-6.9-.22.54-.22.54-.06.15-.33-.14a1.3,1.3,0,0,0,.16-.58.21.21,0,0,0-.11-.14,7.06,7.06,0,0,0-1.07-.52l-.93-.39-.47-.2q-.73-.31-.91-.37a1.43,1.43,0,0,0-.69-.07,1.16,1.16,0,0,0-.57.31,2.1,2.1,0,0,0-.48.73,1.91,1.91,0,0,0-.19,1,1.19,1.19,0,0,0,.29.68,3.42,3.42,0,0,0,1.1.63l.82.35,1.29.54a2.7,2.7,0,0,0,.63.2A.21.21,0,0,0,93.4,81a1.74,1.74,0,0,0,.32-.54l.33.14-.4.84,0,.11-.35.9-.33-.14a1.18,1.18,0,0,0,.14-.49.24.24,0,0,0-.09-.13,6.42,6.42,0,0,0-.79-.4l-1.12-.51-.94-.4a6.06,6.06,0,0,1-.72-.37,1.92,1.92,0,0,1-.57-.49,1.83,1.83,0,0,1-.3-.65,2.17,2.17,0,0,1,0-.82,3.69,3.69,0,0,1,.28-1,4.1,4.1,0,0,1,.65-1.06,2,2,0,0,1,.59-.49,1.6,1.6,0,0,1,.61-.18,1.58,1.58,0,0,1,.55.05c.1,0,.36.13.79.31l.77.33,1,.43c.37.16.71.29,1,.4A.88.88,0,0,0,95,77a.34.34,0,0,0,.15-.06l.28-.49.33.14Zm2.29-8.3q-.09.36-.33,1.4l-.39,1.71q-.24,1.07-.31,1.43c0,.13,0,.26-.06.4l-.05,0-.44-.15L95,74.13l.08-.35a5.27,5.27,0,0,0,.65.09.44.44,0,0,0,.19,0,.31.31,0,0,0,.06-.13q.11-.34.22-.83l.14-.6L95.19,72l-2.54-.57a7.32,7.32,0,0,0-1.11-.2.26.26,0,0,0-.19.09,2,2,0,0,0-.21.59l-.35-.08c.15-.54.26-1,.35-1.37s.18-.86.27-1.39l.35.08a2.08,2.08,0,0,0-.07.62.27.27,0,0,0,.14.17,7.14,7.14,0,0,0,1.09.29l2.54.57,1.17.25.14-.6q.1-.46.15-.81a.4.4,0,0,0,0-.17.3.3,0,0,0-.14-.08,4.23,4.23,0,0,0-.65-.21l.08-.35,1,.2.41,0,0,0C97.59,69.25,97.55,69.39,97.51,69.54Zm.44-4q-.07.79-.1,1.5l-.38,0a4.47,4.47,0,0,0,0-.52.31.31,0,0,0,0-.12.14.14,0,0,0-.07-.05,1,1,0,0,0-.28-.07l-.42,0-1.15-.11L93.78,66,93,65.93a2.4,2.4,0,0,0-.59,0,.18.18,0,0,0-.1.05.33.33,0,0,0-.06.13,4,4,0,0,0-.07.51l-.38,0q.08-.7.15-1.5c0-.46.06-.88.07-1.24l.38,0c0,.3,0,.47,0,.52a.26.26,0,0,0,0,.13.13.13,0,0,0,.07,0l.4.07q.52.08,1,.11l1.81.15,1.11.08a5.63,5.63,0,0,0,.69,0l.09,0a.22.22,0,0,0,.06-.1,4.72,4.72,0,0,0,.08-.54l.38,0Q98,64.88,98,65.58Zm-.25-3.36-1,0,0-.36a5.09,5.09,0,0,0,.64-.09.44.44,0,0,0,.18-.07.31.31,0,0,0,0-.14q0-.36,0-.85l0-.62-1.19.05-2.6.14a7.33,7.33,0,0,0-1.13.11.26.26,0,0,0-.16.14,2,2,0,0,0,0,.62l-.36,0q0-.84,0-1.42t-.12-1.41l.36,0a2.11,2.11,0,0,0,.1.61.27.27,0,0,0,.18.12,7.16,7.16,0,0,0,1.13,0l2.6-.14,1.19-.08,0-.62c0-.31,0-.58-.08-.82a.38.38,0,0,0,0-.16.3.3,0,0,0-.16,0,4.13,4.13,0,0,0-.68,0l0-.36,1-.08.41-.07,0,0c0,.14,0,.28,0,.43s0,.73.07,1.43l.1,1.75q.06,1.09.09,1.46c0,.13,0,.27.05.4l0,0Z" style="fill:none;clip-rule:evenodd"/></clipPath><clipPath id="9d153722-6623-4d93-ade7-f6847f22b9eb" transform="translate(0 -9.38)"><path d="M29.72,95.37a1.8,1.8,0,1,0,1.8,1.8,1.8,1.8,0,0,0-1.8-1.8" style="fill:none;clip-rule:evenodd"/></clipPath><clipPath id="85964c78-bf92-4d34-b9bc-2a92aeb433ad" transform="translate(0 -9.38)"><path d="M23.47,31.89A4.36,4.36,0,0,0,24.8,33a2,2,0,0,0,1.16.22,1.9,1.9,0,0,0,.95-.48,1.86,1.86,0,0,0,.56-.85,1.71,1.71,0,0,0-.08-1.11,4.09,4.09,0,0,0-.83-1.28,4.36,4.36,0,0,0-.84-.74,2.67,2.67,0,0,0-.86-.38,1.76,1.76,0,0,0-.8,0,1.84,1.84,0,0,0-.79.46,1.88,1.88,0,0,0-.61.94,1.66,1.66,0,0,0,.11,1.09,3.91,3.91,0,0,0,.71,1.09" style="fill:none;clip-rule:evenodd"/></clipPath><clipPath id="d5de07d5-42fb-478b-974d-e3543e317562" transform="translate(0 -9.38)"><path d="M13.08,72.4l-1.92,1.49,2.4.26q-.1-.4-.23-.89c-.09-.32-.17-.61-.25-.86" style="fill:none;clip-rule:evenodd"/></clipPath></defs><title>1885</title><g id="524302af-7a29-4c99-aac6-ca133e387840" data-name="Слой 2"><g id="e02d2efc-f70a-433c-a2f8-733ed2d93c47" data-name="Слой 1"><g style="opacity:0.7547000050544739;isolation:isolate"><g style="clip-path:url(#4c61157b-3d5b-42fc-949d-69a15410ead0)"><g style="clip-path:url(#563f0b18-d6a4-4eed-92f3-4ac2c98eb58d)"><g style="clip-path:url(#93fdc122-ec88-43f6-965f-4cf6810c8336)"><rect x="24.36" y="35.34" width="13.32" height="14.28" style="fill:#4b4b4b"/></g></g><g style="clip-path:url(#f482a603-d45c-42d5-aed3-0b691acc8290)"><g style="clip-path:url(#93fdc122-ec88-43f6-965f-4cf6810c8336)"><rect x="24.36" y="42.63" width="13.32" height="14.28" style="fill:#4b4b4b"/></g></g><g style="clip-path:url(#aa658ad9-7849-4e70-88ad-c794fbc08776)"><g style="clip-path:url(#93fdc122-ec88-43f6-965f-4cf6810c8336)"><rect x="24.36" y="50.02" width="13.32" height="14.28" style="fill:#4b4b4b"/></g></g><g style="clip-path:url(#87838555-65bc-44c4-bf64-4cf2af442818)"><g style="clip-path:url(#93fdc122-ec88-43f6-965f-4cf6810c8336)"><rect x="31.78" y="35.34" width="13.32" height="14.28" style="fill:#4b4b4b"/></g></g><g style="clip-path:url(#c38428da-4aa9-4e97-a16c-37abfd36e002)"><g style="clip-path:url(#93fdc122-ec88-43f6-965f-4cf6810c8336)"><rect x="31.78" y="42.63" width="13.32" height="14.28" style="fill:#4b4b4b"/></g></g><g style="clip-path:url(#69286292-3bc6-48de-b629-065a71a60710)"><g style="clip-path:url(#93fdc122-ec88-43f6-965f-4cf6810c8336)"><rect x="31.78" y="50.02" width="13.32" height="14.28" style="fill:#4b4b4b"/></g></g><g style="clip-path:url(#28800a91-27c6-41cd-af88-9d0380f98be9)"><g style="clip-path:url(#93fdc122-ec88-43f6-965f-4cf6810c8336)"><rect x="36.55" y="35.34" width="13.32" height="14.28" style="fill:#4b4b4b"/></g></g><g style="clip-path:url(#9a756a02-a940-4e21-92aa-144694f0d69e)"><g style="clip-path:url(#93fdc122-ec88-43f6-965f-4cf6810c8336)"><rect x="36.55" y="42.63" width="13.32" height="14.28" style="fill:#4b4b4b"/></g></g><g style="clip-path:url(#c68050d6-6718-465c-a062-a81518c1111f)"><g style="clip-path:url(#93fdc122-ec88-43f6-965f-4cf6810c8336)"><rect x="36.55" y="50.02" width="13.32" height="14.28" style="fill:#4b4b4b"/></g></g><g style="clip-path:url(#44d0320a-a6b4-43f2-9bd5-a98889297d28)"><g style="clip-path:url(#93fdc122-ec88-43f6-965f-4cf6810c8336)"><rect x="42.05" y="33.85" width="12.62" height="15.77" style="fill:#4b4b4b"/></g></g><g style="clip-path:url(#8a1dacb0-9dc8-4c60-b13a-adfbc72e3ef5)"><g style="clip-path:url(#93fdc122-ec88-43f6-965f-4cf6810c8336)"><rect x="42.05" y="41.91" width="12.62" height="15.77" style="fill:#4b4b4b"/></g></g><g style="clip-path:url(#6266d9a9-6872-40a0-9e61-f08f515b4333)"><g style="clip-path:url(#93fdc122-ec88-43f6-965f-4cf6810c8336)"><rect x="42.05" y="49.49" width="12.62" height="15.77" style="fill:#4b4b4b"/></g></g><g style="clip-path:url(#f821187a-fae7-4c1b-a6bd-2aa0e5da62cf)"><g style="clip-path:url(#93fdc122-ec88-43f6-965f-4cf6810c8336)"><rect x="46.57" y="33.85" width="12.72" height="15.77" style="fill:#4b4b4b"/></g></g><g style="clip-path:url(#6edcbfc4-5c75-4831-8c2e-73af8b79c699)"><g style="clip-path:url(#93fdc122-ec88-43f6-965f-4cf6810c8336)"><rect x="37.05" y="58.71" width="31.76" height="11.47" style="fill:#4b4b4b"/></g></g><g style="clip-path:url(#82b7b09f-df89-42dd-86c7-eb67e4029494)"><g style="clip-path:url(#93fdc122-ec88-43f6-965f-4cf6810c8336)"><rect x="39.65" y="56.46" width="26.55" height="11.47" style="fill:#4b4b4b"/></g></g><g style="clip-path:url(#b4ccbe0d-b9d4-4e5d-9622-f76938439576)"><g style="clip-path:url(#93fdc122-ec88-43f6-965f-4cf6810c8336)"><rect x="21.37" y="20.62" width="63.11" height="51.65" style="fill:#4b4b4b"/></g></g><g style="clip-path:url(#b5e8487b-2a27-4cd7-bf63-7e64354b7523)"><g style="clip-path:url(#93fdc122-ec88-43f6-965f-4cf6810c8336)"><rect x="68.17" y="35.34" width="13.33" height="14.28" style="fill:#4b4b4b"/></g></g><g style="clip-path:url(#0ba88ae9-1181-400b-8247-0b2f28563316)"><g style="clip-path:url(#93fdc122-ec88-43f6-965f-4cf6810c8336)"><rect x="68.17" y="42.63" width="13.33" height="14.28" style="fill:#4b4b4b"/></g></g><g style="clip-path:url(#e4bda0a2-1fb7-4690-9628-54d478264b0a)"><g style="clip-path:url(#93fdc122-ec88-43f6-965f-4cf6810c8336)"><rect x="68.17" y="50.02" width="13.33" height="14.28" style="fill:#4b4b4b"/></g></g><g style="clip-path:url(#5cab5f98-0acc-4413-b36e-753fd3c22695)"><g style="clip-path:url(#93fdc122-ec88-43f6-965f-4cf6810c8336)"><rect x="60.74" y="35.34" width="13.32" height="14.28" style="fill:#4b4b4b"/></g></g><g style="clip-path:url(#ee1d109e-4dcf-4298-9a29-3c5d39a958d3)"><g style="clip-path:url(#93fdc122-ec88-43f6-965f-4cf6810c8336)"><rect x="60.74" y="42.63" width="13.32" height="14.28" style="fill:#4b4b4b"/></g></g><g style="clip-path:url(#974e3ac5-7b4f-4ff2-8121-f6284127c26d)"><g style="clip-path:url(#93fdc122-ec88-43f6-965f-4cf6810c8336)"><rect x="60.74" y="50.02" width="13.32" height="14.28" style="fill:#4b4b4b"/></g></g><g style="clip-path:url(#28c0b069-ccdd-42ee-b72e-a019d7c95a9d)"><g style="clip-path:url(#93fdc122-ec88-43f6-965f-4cf6810c8336)"><rect x="55.97" y="35.34" width="13.32" height="14.28" style="fill:#4b4b4b"/></g></g><g style="clip-path:url(#dfa998a1-b4ad-4077-a182-16ee9785d6f6)"><g style="clip-path:url(#93fdc122-ec88-43f6-965f-4cf6810c8336)"><rect x="55.97" y="42.63" width="13.32" height="14.28" style="fill:#4b4b4b"/></g></g><g style="clip-path:url(#ecb5c459-a778-42c2-8718-863bc4ce8519)"><g style="clip-path:url(#93fdc122-ec88-43f6-965f-4cf6810c8336)"><rect x="55.97" y="50.02" width="13.32" height="14.28" style="fill:#4b4b4b"/></g></g><g style="clip-path:url(#fa48d9a6-7ed2-4b1f-8fc3-eea3e13acc80)"><g style="clip-path:url(#93fdc122-ec88-43f6-965f-4cf6810c8336)"><rect x="51.18" y="33.85" width="12.62" height="15.77" style="fill:#4b4b4b"/></g></g><g style="clip-path:url(#ea2ebae3-26ea-4331-aa62-8be7331d35bb)"><g style="clip-path:url(#93fdc122-ec88-43f6-965f-4cf6810c8336)"><rect x="51.18" y="41.91" width="12.62" height="15.77" style="fill:#4b4b4b"/></g></g><g style="clip-path:url(#335d51c4-45b0-407b-936a-fcda84277289)"><g style="clip-path:url(#93fdc122-ec88-43f6-965f-4cf6810c8336)"><rect x="51.18" y="49.49" width="12.62" height="15.77" style="fill:#4b4b4b"/></g></g><g style="clip-path:url(#59c9a053-0dc9-40d8-9526-3eed7982725a)"><g style="clip-path:url(#93fdc122-ec88-43f6-965f-4cf6810c8336)"><rect x="46.57" y="41.91" width="12.72" height="15.77" style="fill:#4b4b4b"/></g></g><g style="clip-path:url(#292c9b73-9114-408a-ab06-9acac67b531f)"><g style="clip-path:url(#93fdc122-ec88-43f6-965f-4cf6810c8336)"><rect x="46.57" y="49.49" width="12.72" height="15.77" style="fill:#4b4b4b"/></g></g><g style="clip-path:url(#f58e86e9-188d-4307-91eb-4725596a05a7)"><g style="clip-path:url(#93fdc122-ec88-43f6-965f-4cf6810c8336)"><rect x="45.83" y="27.67" width="14.19" height="14.18" style="fill:#4b4b4b"/></g></g><g style="clip-path:url(#04897ef9-50e0-4006-8276-c9409a741359)"><g style="clip-path:url(#93fdc122-ec88-43f6-965f-4cf6810c8336)"><rect x="37.41" y="68.22" width="14.48" height="17.15" style="fill:#4b4b4b"/></g></g><g style="clip-path:url(#e35363cf-17b5-4905-8d72-94f440089a30)"><g style="clip-path:url(#93fdc122-ec88-43f6-965f-4cf6810c8336)"><rect x="42.76" y="68.36" width="14.6" height="17.2" style="fill:#4b4b4b"/></g></g><g style="clip-path:url(#0746f968-9bbd-4cf8-bb91-e893845fa664)"><g style="clip-path:url(#93fdc122-ec88-43f6-965f-4cf6810c8336)"><rect x="48.09" y="68.36" width="14.6" height="17.2" style="fill:#4b4b4b"/></g></g><g style="clip-path:url(#cff8eead-8ce2-40d8-a9e3-579ce12d610c)"><g style="clip-path:url(#93fdc122-ec88-43f6-965f-4cf6810c8336)"><rect x="53.28" y="68.4" width="14.6" height="17.15" style="fill:#4b4b4b"/></g></g><g style="clip-path:url(#296f2305-7d86-45f4-be5b-0d82985825a8)"><g style="clip-path:url(#93fdc122-ec88-43f6-965f-4cf6810c8336)"><rect x="67.26" y="81.75" width="13.61" height="13.59" style="fill:#4b4b4b"/></g></g><g style="clip-path:url(#988d4ce7-0c62-4d6d-b38a-6fe8dae1a93d)"><g style="clip-path:url(#93fdc122-ec88-43f6-965f-4cf6810c8336)"><rect width="105.74" height="105.36" style="fill:#4b4b4b"/></g></g><g style="clip-path:url(#9d153722-6623-4d93-ade7-f6847f22b9eb)"><g style="clip-path:url(#93fdc122-ec88-43f6-965f-4cf6810c8336)"><rect x="22.92" y="80.99" width="13.61" height="13.59" style="fill:#4b4b4b"/></g></g><g style="clip-path:url(#85964c78-bf92-4d34-b9bc-2a92aeb433ad)"><g style="clip-path:url(#93fdc122-ec88-43f6-965f-4cf6810c8336)"><rect x="17.61" y="13.9" width="14.91" height="14.91" style="fill:#4b4b4b"/></g></g><g style="clip-path:url(#d5de07d5-42fb-478b-974d-e3543e317562)"><g style="clip-path:url(#93fdc122-ec88-43f6-965f-4cf6810c8336)"><rect x="6.16" y="58.01" width="12.4" height="11.75" style="fill:#4b4b4b"/></g></g></g></g></g></g></svg>