<svg xmlns="http://www.w3.org/2000/svg" xmlns:xlink="http://www.w3.org/1999/xlink" width="210" height="91.09" viewBox="0 0 210 91.09"><defs><clipPath id="1f7681d1-70c9-4f90-b0f1-b0d013aa1f36" transform="translate(0 -20.91)"><rect x="5" y="25" width="200" height="82" style="fill:none"/></clipPath><clipPath id="89ac416f-5a98-41d8-b605-4b0c4c79603a" transform="translate(0 -20.91)"><path d="M204.36,49.7a2.11,2.11,0,0,1,.64,1.55,2.21,2.21,0,0,1-2.2,2.2,2.19,2.19,0,0,1-2.19-2.19,2.13,2.13,0,0,1,.64-1.55,2.19,2.19,0,0,1,3.11,0m-.18,2.92a1.94,1.94,0,0,0,0-2.73,1.93,1.93,0,0,0-2.73,0,2,2,0,0,0,0,2.73,1.92,1.92,0,0,0,2.73,0" style="fill:none;clip-rule:evenodd"/></clipPath><clipPath id="c5db8cc0-f29b-4a2c-a2f3-bad415c08945" transform="translate(0 -20.91)"><rect x="5" width="276" height="133" style="fill:none"/></clipPath><clipPath id="c8c3d7dd-38b9-4934-8404-01376ab37106" transform="translate(0 -20.91)"><path d="M49.18,77.88l11.71-28h2.25l11.71,28h-3l-3.63-8.75H55.69L52.1,77.88ZM62,53.12,56.28,67H67.63Z" style="fill:none;clip-rule:evenodd"/></clipPath><clipPath id="f50322d2-56a6-407a-ba41-4da262ac3527" transform="translate(0 -20.91)"><path d="M77.87,77.88v-28H89.46c4.81,0,8.28,4.45,8.28,8.79,0,4.57-3.23,8.87-8,8.87H80.59V77.88Zm2.72-12.77h9c3.31,0,5.44-3,5.44-6.43s-2.6-6.35-5.68-6.35H80.59Z" style="fill:none;clip-rule:evenodd"/></clipPath><clipPath id="9afd28af-4b14-4c31-bac4-05baa7924e73" transform="translate(0 -20.91)"><path d="M96.21,77.88l11.71-28h2.25l11.71,28h-3l-3.63-8.75H102.72l-3.59,8.75Zm12.85-24.76L103.31,67h11.35Z" style="fill:none;clip-rule:evenodd"/></clipPath><clipPath id="ed492430-8454-4a11-a87d-832af8b58a40" transform="translate(0 -20.91)"><path d="M135.12,49.73a11,11,0,0,1,10.33,6.11l-2.21,1.34a8.81,8.81,0,0,0-8.28-5c-6.7,0-10.37,6-10.37,11.63,0,6.19,4.53,11.79,10.49,11.79a9.57,9.57,0,0,0,8.64-5.2L146,71.61c-1.81,4.18-6.78,6.51-11.08,6.51-7.69,0-13.09-7.33-13.09-14.43,0-6.74,4.85-14,13.29-14" style="fill:none;clip-rule:evenodd"/></clipPath><clipPath id="839057e7-5397-4d9e-b3b6-e4de8d6c044b" transform="translate(0 -20.91)"><polygon points="171.93 49.89 171.93 77.88 169.17 77.88 169.17 64.79 152.57 64.79 152.57 77.88 149.85 77.88 149.85 49.89 152.57 49.89 152.57 62.35 169.17 62.35 169.17 49.89 171.93 49.89" style="fill:none;clip-rule:evenodd"/></clipPath><clipPath id="7b1f5426-bbda-4d79-996a-087be89c525f" transform="translate(0 -20.91)"><polygon points="197.06 75.44 197.06 77.88 178.25 77.88 178.25 49.89 196.71 49.89 196.71 52.33 180.97 52.33 180.97 62.43 194.69 62.43 194.69 64.75 180.97 64.75 180.97 75.44 197.06 75.44" style="fill:none;clip-rule:evenodd"/></clipPath><clipPath id="3c0139f7-d8ca-4121-a55b-0d16093d5025" transform="translate(0 -20.91)"><path d="M51.79,83.81a3.13,3.13,0,0,1,.87.4l-.29.64a2.88,2.88,0,0,0-.81-.37,3,3,0,0,0-.82-.12,1.76,1.76,0,0,0-.91.21.64.64,0,0,0-.34.58.76.76,0,0,0,.19.53,1.29,1.29,0,0,0,.48.33c.19.08.45.17.79.27a9.39,9.39,0,0,1,1,.36,1.7,1.7,0,0,1,.63.5,1.36,1.36,0,0,1,.26.87,1.43,1.43,0,0,1-.27.86,1.71,1.71,0,0,1-.75.57,2.9,2.9,0,0,1-1.12.2,3.35,3.35,0,0,1-2.26-.9l.3-.61a2.92,2.92,0,0,0,.93.61,2.71,2.71,0,0,0,1,.22,1.8,1.8,0,0,0,1-.25.77.77,0,0,0,.37-.67.78.78,0,0,0-.19-.54,1.33,1.33,0,0,0-.48-.33c-.19-.08-.45-.17-.78-.27a8.37,8.37,0,0,1-1-.34A1.64,1.64,0,0,1,49,86a1.34,1.34,0,0,1-.26-.86,1.33,1.33,0,0,1,.25-.8,1.61,1.61,0,0,1,.72-.54,2.81,2.81,0,0,1,1.07-.19,3.51,3.51,0,0,1,1,.15" style="fill:none;clip-rule:evenodd"/></clipPath><clipPath id="d503945d-40d6-48df-aef9-e8697093ca05" transform="translate(0 -20.91)"><path d="M60.56,84.07a3,3,0,0,1,1.12,1.08,2.82,2.82,0,0,1,.41,1.5,2.86,2.86,0,0,1-.41,1.51,3,3,0,0,1-1.12,1.08,3.23,3.23,0,0,1-3.11,0,3,3,0,0,1-1.12-1.08,2.94,2.94,0,0,1,0-3,3,3,0,0,1,1.12-1.08,3.16,3.16,0,0,1,1.56-.4,3.12,3.12,0,0,1,1.55.4m-2.75.56a2.41,2.41,0,0,0-.88.84,2.17,2.17,0,0,0-.33,1.17,2.21,2.21,0,0,0,.33,1.18,2.43,2.43,0,0,0,4.15,0,2.23,2.23,0,0,0,.33-1.18,2.19,2.19,0,0,0-.33-1.17,2.4,2.4,0,0,0-.87-.84,2.37,2.37,0,0,0-1.2-.31,2.39,2.39,0,0,0-1.2.31" style="fill:none;clip-rule:evenodd"/></clipPath><clipPath id="7bb0339e-f8ff-4521-af8b-2c54aa4b130f" transform="translate(0 -20.91)"><polygon points="66.35 84.34 66.35 86.41 69.11 86.41 69.11 87.06 66.35 87.06 66.35 89.6 65.68 89.6 65.68 83.69 69.43 83.69 69.43 84.34 66.35 84.34" style="fill:none;clip-rule:evenodd"/></clipPath><clipPath id="b5b0c7c4-1b93-4fa5-84f4-d936fbdca618" transform="translate(0 -20.91)"><polygon points="74.92 84.34 74.92 89.6 74.24 89.6 74.24 84.34 72.32 84.34 72.32 83.69 76.85 83.69 76.85 84.34 74.92 84.34" style="fill:none;clip-rule:evenodd"/></clipPath><clipPath id="a94c75a2-336b-4e90-a058-4e745f8390fd" transform="translate(0 -20.91)"><polygon points="85.58 89.6 83.99 84.62 82.37 89.6 81.69 89.6 79.71 83.69 80.43 83.69 82.06 88.81 83.66 83.69 84.33 83.69 85.95 88.81 87.56 83.69 88.26 83.69 86.28 89.6 85.58 89.6" style="fill:none;clip-rule:evenodd"/></clipPath><clipPath id="fbb26a08-4d71-4f8e-8c38-065bfe9ed324" transform="translate(0 -20.91)"><path d="M91.63,88.1,91,89.6h-.72l2.65-5.91h.7l2.64,5.91h-.73l-.66-1.49Zm1.6-3.65-1.32,3h2.65Z" style="fill:none;clip-rule:evenodd"/></clipPath><clipPath id="04e1a319-f303-472e-ac99-9f81d88aa9b6" transform="translate(0 -20.91)"><path d="M102.12,87.71l-.4,0h-1.57V89.6h-.68V83.69h2.25a2.58,2.58,0,0,1,1.72.52,1.82,1.82,0,0,1,.61,1.47,2.06,2.06,0,0,1-.34,1.21,1.88,1.88,0,0,1-1,.7l1.38,2h-.77Zm.85-1a1.26,1.26,0,0,0,.44-1,1.21,1.21,0,0,0-.44-1,2,2,0,0,0-1.24-.34h-1.57v2.74h1.57A1.92,1.92,0,0,0,103,86.73Z" style="fill:none;clip-rule:evenodd"/></clipPath><clipPath id="86a939f5-3c2a-45aa-bd7a-6f30c19a0bb1" transform="translate(0 -20.91)"><polygon points="108.49 84.34 108.49 86.28 111.47 86.28 111.47 86.93 108.49 86.93 108.49 88.95 111.94 88.95 111.94 89.6 107.82 89.6 107.82 83.69 111.83 83.69 111.83 84.34 108.49 84.34" style="fill:none;clip-rule:evenodd"/></clipPath><clipPath id="e8c78afc-7f5d-4710-80a3-cb78a078376a" transform="translate(0 -20.91)"><polygon points="121.36 84.34 121.36 86.41 124.13 86.41 124.13 87.06 121.36 87.06 121.36 89.6 120.69 89.6 120.69 83.69 124.44 83.69 124.44 84.34 121.36 84.34" style="fill:none;clip-rule:evenodd"/></clipPath><clipPath id="d6787565-3c7a-4df9-8478-6c0d7e4bea4b" transform="translate(0 -20.91)"><path d="M131.92,84.07A3,3,0,0,1,133,85.15a2.82,2.82,0,0,1,.41,1.5,2.86,2.86,0,0,1-.41,1.51,3,3,0,0,1-1.12,1.08,3.23,3.23,0,0,1-3.11,0,3,3,0,0,1-1.12-1.08,2.94,2.94,0,0,1,0-3,3,3,0,0,1,1.12-1.08,3.16,3.16,0,0,1,1.56-.4,3.12,3.12,0,0,1,1.55.4m-2.75.56a2.42,2.42,0,0,0-.88.84,2.17,2.17,0,0,0-.33,1.17,2.21,2.21,0,0,0,.33,1.18A2.43,2.43,0,0,0,130.37,89a2.4,2.4,0,0,0,2.07-1.16,2.23,2.23,0,0,0,.33-1.18,2.19,2.19,0,0,0-.33-1.17,2.39,2.39,0,0,0-.87-.84,2.36,2.36,0,0,0-1.19-.31,2.39,2.39,0,0,0-1.2.31" style="fill:none;clip-rule:evenodd"/></clipPath><clipPath id="da85deb2-9bf5-41dc-8882-6bcce0dbc4c9" transform="translate(0 -20.91)"><path d="M141.22,89a2.87,2.87,0,0,1-3.65,0,2.44,2.44,0,0,1-.66-1.81V83.69h.68v3.48a1.81,1.81,0,1,0,3.61,0V83.69h.68v3.48a2.44,2.44,0,0,1-.66,1.81" style="fill:none;clip-rule:evenodd"/></clipPath><clipPath id="d74a069c-717e-4606-8b4b-85378a34c7d2" transform="translate(0 -20.91)"><polygon points="150.06 89.6 146.51 84.85 146.51 89.6 145.84 89.6 145.84 83.69 146.54 83.69 150.08 88.44 150.08 83.69 150.75 83.69 150.75 89.6 150.06 89.6" style="fill:none;clip-rule:evenodd"/></clipPath><clipPath id="6fed875d-b7ec-417a-ab19-d6dc45269753" transform="translate(0 -20.91)"><path d="M158.72,84.08a2.91,2.91,0,0,1,1.09,1.06,2.93,2.93,0,0,1-1.1,4.07,3.17,3.17,0,0,1-1.56.39h-2.37V83.69h2.39A3.08,3.08,0,0,1,158.72,84.08ZM155.47,89h1.72a2.4,2.4,0,0,0,1.19-.3,2.22,2.22,0,0,0,.85-.83,2.28,2.28,0,0,0,.31-1.18,2.22,2.22,0,0,0-.32-1.18,2.31,2.31,0,0,0-.86-.83,2.4,2.4,0,0,0-1.2-.3h-1.7Z" style="fill:none;clip-rule:evenodd"/></clipPath><clipPath id="bda61f41-8076-4edf-b2e6-198960f29a90" transform="translate(0 -20.91)"><path d="M164.06,88.1l-.66,1.49h-.72l2.65-5.91h.7l2.64,5.91h-.73l-.66-1.49Zm1.6-3.65-1.32,3H167Z" style="fill:none;clip-rule:evenodd"/></clipPath><clipPath id="fba0cd45-a175-498e-baea-0a2cc1b16f84" transform="translate(0 -20.91)"><polygon points="173.11 84.34 173.11 89.6 172.43 89.6 172.43 84.34 170.51 84.34 170.51 83.69 175.04 83.69 175.04 84.34 173.11 84.34" style="fill:none;clip-rule:evenodd"/></clipPath><clipPath id="b95dac51-1c70-4186-822d-5756109ee9f7" transform="translate(0 -20.91)"><rect x="178.29" y="83.69" width="0.68" height="5.91" style="fill:none"/></clipPath><clipPath id="2ec2ef1a-70f3-49e4-8f8d-f47420d7eeab" transform="translate(0 -20.91)"><path d="M187.21,84.07a3,3,0,0,1,1.12,1.08,2.82,2.82,0,0,1,.41,1.5,2.85,2.85,0,0,1-.41,1.51,3,3,0,0,1-1.12,1.08,3.23,3.23,0,0,1-3.11,0A3,3,0,0,1,183,88.15a2.94,2.94,0,0,1,0-3,3,3,0,0,1,1.12-1.08,3.16,3.16,0,0,1,1.56-.4,3.12,3.12,0,0,1,1.55.4m-2.75.56a2.41,2.41,0,0,0-.88.84,2.17,2.17,0,0,0-.33,1.17,2.21,2.21,0,0,0,.33,1.18,2.43,2.43,0,0,0,4.15,0,2.23,2.23,0,0,0,.33-1.18,2.19,2.19,0,0,0-.33-1.17,2.4,2.4,0,0,0-.87-.84,2.36,2.36,0,0,0-1.2-.31,2.39,2.39,0,0,0-1.2.31" style="fill:none;clip-rule:evenodd"/></clipPath><clipPath id="ba8a7a8f-5d32-4fef-85d6-6d454d69309c" transform="translate(0 -20.91)"><polygon points="196.55 89.6 193.01 84.85 193.01 89.6 192.33 89.6 192.33 83.69 193.03 83.69 196.58 88.44 196.58 83.69 197.24 83.69 197.24 89.6 196.55 89.6" style="fill:none;clip-rule:evenodd"/></clipPath><clipPath id="659a071f-d35f-420c-ae8e-9afd067e8c7f" transform="translate(0 -20.91)"><path d="M45.36,31.16a8.17,8.17,0,0,0-.56-2,4.21,4.21,0,0,0-.43-.8l-.12-.19c-.1-.14-.24-.34-.44-.57s-.25-.29-.4-.43-.24-.23-.38-.34l-.36-.28-.34-.22L42,26.16,41.67,26l-.3-.08-.29,0-.21,0h-.08l-.28,0-.27.06-.26.08-.25.11-.21.11,0,0a13.63,13.63,0,0,0-2.32,1.95c-.66.66-1.4,1.46-2.2,2.37-.44.51-.89,1-1.36,1.61l-.53.65c-.39.49-.79,1-1.2,1.53l-.15.19-.15.19-.15.2-.15.19-.15.2-.13.17v0l-.15.2-.14.2-.15.2-.14.2-.14.2-.14.2L30,37l-.14.2-.14.2-.14.2-.14.2-.14.2-.14.2-.14.2-.14.2-.14.2-.14.2,0,0-.11.16-.14.2-.14.2-.14.2-.14.2-.14.2-.14.2-.14.2-.14.2-.13.2-.13.2-.13.2-.13.2-.13.2-.13.2-.13.2-.13.2-.07.1-.06.1-.13.2-.13.2-.13.2-.13.2-.13.2-.13.2-.13.2-.13.2-.13.2-.13.2-.13.2-.13.2-.13.2-.13.2-.13.2h0l-.07.12,0,0L24,46h0l-.12.21-.12.21-.12.21-.12.21-.12.21-.12.21-.12.21-.12.21c-.37.62-.74,1.23-1.11,1.87l-.15.28c-.41.71-.8,1.44-1.2,2.17-.23.42-.46.82-.69,1.24s-.32.63-.48.94c-.38.73-.77,1.46-1.13,2.2l0,.05-.22.45-.1.2-.14.3-.24.5-.24.5-.24.5-.23.51-.23.51-.22.51-.23.51,0,.06-.19.45-.21.52-.21.52-.21.52-.2.52-.2.52-.2.52-.19.51v0c-.07.18-.12.35-.18.53l-.18.53-.18.53-.18.53-.11.32-.07.22-.16.54-.16.54-.16.54L13,69.5l-.1.36-.15.55-.14.55-.15.55-.14.55c0,.19-.08.37-.12.56l-.12.56c0,.19-.09.37-.12.56s-.08.33-.11.5l0,.11,0,.1c0,.14,0,.29-.07.43s-.06.36-.09.53l-.09.53c0,.18-.06.36-.09.53s-.07.36-.09.53-.05.36-.08.54,0,.37-.06.55,0,.37-.06.55,0,.37-.06.55,0,.37-.06.55,0,.28,0,.42v.2l-.07-.1a6.05,6.05,0,0,0-.83-1,13.64,13.64,0,0,0-1.73-1.38c-.5-.34-.85-.55-.85-.54l.14.21.56.83.5.81c.16.26.3.52.45.78s.27.51.4.76.24.49.35.74.21.48.3.72.16.46.23.68.13.44.19.66.11.43.15.65.06.41.08.61,0,.22,0,.34a3.34,3.34,0,0,1-.48,0A6,6,0,0,1,8.88,85a13.93,13.93,0,0,1-1.77-.53c.26.23.5.43.73.62a6.88,6.88,0,0,0,2.54,1.37,4.08,4.08,0,0,0-.63.1,5.45,5.45,0,0,0-.74.23c-.21.08-.42.17-.63.28l-.57.31-.53.33-.51.34-.49.35-.45.33.64-.24.7-.25.75-.23.81-.2a8.74,8.74,0,0,1,.93-.14,5.28,5.28,0,0,1,1.29,0l.26,0,0,.07-.17.49-.17.49-.17.5-.17.49-.17.5-.17.5-.17.5-.17.5-.17.5-.17.5-.17.5-.17.5-.17.5-.16.5-.16.5-.16.5-.16.5-.16.5-.16.5,0,.06,0,.06,0,.06,0,.06,0,.06,0,.06,0,.06,0,.06,0,.06,0,.06,0,.06,0,.06,0,.06,0,.06,0,.06,0,.06,0,.06,0,.06,0,.06,0,.06,0,.06,0,.06,0,.06,0,.06,0,.06,0,.06,0,.06,0,.06,0,.06,0,.06,0,.06,0,.06,0,.06,0,.06,0,.06,0,.06,0,.06,0,.06,0,.06,0,.06,0,.06,0,.06,0,.06,0,.06,0,.06,0,.06,0,.06,0,.06,0,.06,0,.06,0,.06,0,.06,0,.06,0,.06,0,.06,0,.06,0,.06,0,.06,0,.06,0,.06,0,.06,0,.06Q5.89,104.08,5,107a1.81,1.81,0,0,0,1.23-1.19c.14-.48.59-2,1.3-4.2l0-.06,0-.06,0-.06,0-.06,0-.06,0-.06,0-.06,0-.06,0-.06,0-.06,0-.06,0-.06,0-.06,0-.06,0-.06,0-.06,0-.06,0-.06,0-.06,0-.06,0-.06,0-.06,0-.06,0-.06L8,100l0-.06,0-.06,0-.06,0-.06,0-.06,0-.06,0-.06,0-.06,0-.06,0-.06,0-.06,0-.06,0-.06,0-.06,0-.06,0-.06,0-.06,0-.06,0-.06,0-.06,0-.06,0-.06,0-.06,0-.06,0-.06,0-.06,0-.06,0-.06,0-.06,0-.06,0-.06,0-.06,0-.06,0-.06,0-.06,0-.06,0-.06.16-.5.16-.5.17-.5.16-.5.17-.5.17-.5.17-.5.17-.5.17-.5.17-.5.17-.5.17-.5.17-.5.17-.5.17-.5.17-.5.17-.49.17-.5.17-.49.17-.49.17-.49.18-.49.18-.49.18-.49,0-.1.14-.39.18-.49v0l.09-.26.07-.2.18-.49.18-.49.18-.49.18-.49.18-.49.18-.49.11-.3.07-.19.18-.49,0-.12v0L15,80l.2-.52.2-.52.2-.52.2-.52.2-.52.18-.47,0,0,.2-.52.14-.35.07-.17.2-.52.21-.52.21-.52.2-.52.2-.52.21-.52.2-.52.13-.32.08-.2.21-.52.21-.52.21-.52.21-.52.21-.52.21-.52.21-.52.09-.2.13-.31.22-.51.22-.51.22-.51.22-.51L21,65l.22-.51.22-.51.06-.14.16-.37.23-.51.23-.51.23-.51.23-.51.23-.51.23-.51.22-.51.08-.17.15-.33.23-.51q.52-1.13,1-2.24l.44-.94.63-1.3.06-.13c.34-.7.69-1.4,1-2.09l.18-.36.07-.13.1-.19.11-.21.11-.21.11-.21.11-.21.11-.21.11-.21L28,50l.11-.21.11-.21.11-.21.11-.21.11-.21.11-.21.11-.21.11-.21.11-.21.1-.19v0l.12-.21.12-.21.12-.21.12-.21.12-.21.12-.21.12-.21.12-.21.12-.21.12-.21.12-.21.12-.21.11-.21.12-.21.12-.21.12-.21.12-.21.12-.21,0-.06.09-.14.12-.21.12-.21.12-.21.12-.21.12-.21.12-.21.12-.21.12-.21.12-.21.13-.2.13-.21.13-.2.13-.2L33,41l.13-.2.13-.2.13-.21.08-.14,0-.07.09-.15,0-.06.13-.2.13-.2.13-.2.13-.2.13-.2.13-.2.13-.2.13-.2.13-.2L35,38l.14-.2.14-.2.14-.2.14-.2.14-.2.14-.2.12-.17.51-.71c.69-1,1.39-1.89,2.09-2.77s1.43-1.73,2.16-2.52l.19-.21-.19.21c-.4.46-1.12,1.32-2.11,2.68-.58.8-1.27,1.78-2,2.94l-.31.46-.14.21-.13.2-.13.2-.13.2-.13.2-.13.2-.13.2-.13.2-.13.2-.13.2-.13.21-.13.2-.13.2-.12.21-.12.21-.12.2-.12.21-.06.09-.07.11-.06.1-.06.11-.12.21-.12.21-.12.21-.12.21-.12.21-.12.21-.12.21-.12.21-.12.21-.12.21-.12.21-.12.21-.12.21-.12.21-.12.21-.12.21-.12.21-.11.2h0l-.11.21-.11.21-.11.21-.11.21-.11.21-.11.21-.11.21-.11.21-.11.21-.11.21-.11.21-.11.21-.11.21-.11.21-.11.21-.11.21-.11.21-.11.21,0,.09-.06.12-.11.21-.11.21L29.2,49l-.11.21-.11.21-.11.21-.11.21-.11.21-.11.21-.11.21-.11.21-.11.21-.11.21-.11.21-.11.21-.11.21L27.7,52l-.06.11,0,.09-.13.26-.13.28-.79,1.65-.14.31-.73,1.56-.32.68-.13.29c-.29.64-.59,1.31-.89,2l-.23.51-.23.51,0,.05-.2.46-.22.51-.22.51-.22.51-.22.51-.22.51-.22.51-.21.48v0l-.22.51-.22.51-.22.51-.22.51-.21.52-.21.52-.21.52-.19.47,0,0-.21.52-.21.52-.21.52-.21.52-.21.52-.2.52-.21.52-.19.49v0l-.2.52-.2.52-.2.52-.2.52-.2.52-.2.52-.2.52-.1.25-.07.2,0,.07-.2.52-.19.52-.19.52-.2.52-.2.52-.2.53-.19.52-.14.37,0,.1-.16.44-.06.18-.14.38-.2.56-.2.56-.2.56-.2.56-.2.56-.06.17,0,0-.12.34-.05.15-.14.41-.19.56-.19.56-.19.56L13,88l-.13.37a2.93,2.93,0,0,1,.83.61,6.62,6.62,0,0,1,.82,1c.19.29.37.59.55.91l.07.13s0-.07,0-.1a5,5,0,0,0-.1-.7,4.92,4.92,0,0,0-.24-.77,4.77,4.77,0,0,0-.45-.86,4.93,4.93,0,0,0-.76-.91h.21c.48,0,1,0,1.42,0s.81-.05,1.2-.09.71-.09,1.06-.16.65-.12,1-.2.57-.16.85-.26.51-.2.75-.3.48-.2.71-.32.39-.25.59-.38.4-.24.58-.39.31-.29.46-.44.32-.28.46-.44.24-.32.37-.48.25-.31.36-.49.09-.11.13-.18.11-.22.18-.33.19-.34.28-.52l0,0,0,0a4.66,4.66,0,0,1-.43.45,3.56,3.56,0,0,1-.53.41,3.45,3.45,0,0,1-.69.33,4.44,4.44,0,0,1-.94.21,8,8,0,0,1-1.32,0h-.11l.05,0,.69-.33.67-.34.64-.35.59-.38.55-.39c.18-.14.36-.27.52-.41s.32-.28.48-.43.29-.3.43-.45l.4-.47c.13-.16.25-.31.37-.48s.22-.33.33-.5l.19-.28.13-.22.3-.51.28-.52.24-.45c-.13.14-.27.24-.4.37s-.31.3-.47.43-.35.28-.53.41-.37.28-.55.4-.42.25-.63.36-.44.25-.66.34-.51.21-.77.29a8.72,8.72,0,0,1-.87.25,9.06,9.06,0,0,1-1,.18,9.72,9.72,0,0,1-1.27.06,11.11,11.11,0,0,1-1.73-.15H18l-.15,0c.21,0,.42-.08.64-.12s.57-.12.87-.21.52-.15.79-.25.47-.19.7-.29l.68-.3.63-.32.61-.33.57-.35.57-.35.52-.37.52-.37.48-.39.47-.4.45-.41.42-.42c.12-.12.26-.24.37-.36l0-.05.38-.44.38-.44.35-.45.35-.45.33-.46.32-.47.31-.47.29-.48.29-.48.13-.22.14-.27.26-.49.26-.49c.09-.17.17-.32.26-.49l.24-.5.23-.51.23-.51.23-.51c.07-.16.14-.3.21-.46l0,0c.07-.17.14-.35.2-.52l.2-.52.2-.52c.07-.18.14-.34.2-.52L33.4,64l.18-.53c.15-.42.29-.82.43-1.26a8.4,8.4,0,0,1-1.76.65c-.18,0-.34.11-.53.15h-.56l0,0c.22-.1.45-.2.66-.31A9.37,9.37,0,0,0,34.13,61a11.65,11.65,0,0,0,1.58-2c.28-.44.55-.9.79-1.38a10.28,10.28,0,0,1-1.75.93,8.84,8.84,0,0,1-1.53.5h-.46a11.59,11.59,0,0,0,1.44-.76c.25-.16.51-.31.74-.48l.43-.35a8.2,8.2,0,0,0,.6-.58l.32-.35,0,0a9.6,9.6,0,0,0,.76-1l.22-.35.26-.51.07-.15.1-.22.1-.22.1-.22.1-.22.1-.22.09-.22.09-.22.09-.22.07-.16,0-.07.08-.22.09-.22.09-.22,0-.09,0-.13.06-.17,0-.06.07-.23.07-.23.07-.23h0l.05-.22.06-.24c0-.09,0-.17,0-.24l0-.1-.09.06-.23.15h0l-.27.14-.27.14-.29.13-.31.12-.31.12-.34.11-.35.1-.35.1-.38.08-.38.09-.11,0h-.05l-.25,0-.09,0,.06,0,.22-.11L35.8,51l.28-.14.26-.14.26-.14.25-.15.24-.15.24-.15.22-.16.22-.16.21-.17.2-.17.19-.17.18-.18.18-.18.16-.19.16-.19.15-.19.15-.19.15-.2,0,0,.12-.17.13-.2.13-.2.13-.2.13-.2.12-.18v0l.13-.21.12-.21.13-.21.12-.21.12-.21.13-.21.12-.21.12-.21.13-.21.12-.21.11-.21.11-.21.11-.21.11-.21.11-.21.11-.21.11-.21.11-.21.09-.16,0-.05.1-.22.1-.21.1-.21L43,42l.1-.22.1-.21.1-.22.1-.21.1-.22.09-.22.09-.22c.2-.45.4-.9.56-1.32a19.08,19.08,0,0,0,.67-2c.14-.53.25-1,.34-1.52,0-.18.05-.34.08-.52s.07-.47.09-.7,0-.54.06-.8,0-.66,0-1a11.55,11.55,0,0,0-.12-1.46" style="fill:none;clip-rule:evenodd"/></clipPath></defs><title>apache</title><g id="81e3371b-03ee-4e1f-94fe-64c8de0e5b97" data-name="Слой 2"><g id="93e90d75-5b71-464d-a621-ea1c22de239e" data-name="Слой 1"><g style="opacity:0.7547000050544739;isolation:isolate"><g style="clip-path:url(#1f7681d1-70c9-4f90-b0f1-b0d013aa1f36)"><g style="clip-path:url(#89ac416f-5a98-41d8-b605-4b0c4c79603a)"><g style="clip-path:url(#c5db8cc0-f29b-4a2c-a2f3-bad415c08945)"><rect x="195.6" y="23.15" width="14.4" height="14.4" style="fill:#4b4b4b"/></g></g><g style="clip-path:url(#c8c3d7dd-38b9-4934-8404-01376ab37106)"><g style="clip-path:url(#c5db8cc0-f29b-4a2c-a2f3-bad415c08945)"><rect x="44.18" y="23.98" width="35.67" height="37.99" style="fill:#4b4b4b"/></g></g><g style="clip-path:url(#f50322d2-56a6-407a-ba41-4da262ac3527)"><g style="clip-path:url(#c5db8cc0-f29b-4a2c-a2f3-bad415c08945)"><rect x="72.87" y="23.98" width="29.87" height="37.99" style="fill:#4b4b4b"/></g></g><g style="clip-path:url(#9afd28af-4b14-4c31-bac4-05baa7924e73)"><g style="clip-path:url(#c5db8cc0-f29b-4a2c-a2f3-bad415c08945)"><rect x="91.21" y="23.98" width="35.67" height="37.99" style="fill:#4b4b4b"/></g></g><g style="clip-path:url(#ed492430-8454-4a11-a87d-832af8b58a40)"><g style="clip-path:url(#c5db8cc0-f29b-4a2c-a2f3-bad415c08945)"><rect x="116.84" y="23.83" width="34.17" height="38.39" style="fill:#4b4b4b"/></g></g><g style="clip-path:url(#839057e7-5397-4d9e-b3b6-e4de8d6c044b)"><g style="clip-path:url(#c5db8cc0-f29b-4a2c-a2f3-bad415c08945)"><rect x="144.85" y="23.98" width="32.08" height="37.99" style="fill:#4b4b4b"/></g></g><g style="clip-path:url(#7b1f5426-bbda-4d79-996a-087be89c525f)"><g style="clip-path:url(#c5db8cc0-f29b-4a2c-a2f3-bad415c08945)"><rect x="173.25" y="23.98" width="28.81" height="37.99" style="fill:#4b4b4b"/></g></g><g style="clip-path:url(#3c0139f7-d8ca-4121-a55b-0d16093d5025)"><g style="clip-path:url(#c5db8cc0-f29b-4a2c-a2f3-bad415c08945)"><rect x="43.41" y="57.76" width="14.4" height="15.96" style="fill:#4b4b4b"/></g></g><g style="clip-path:url(#d503945d-40d6-48df-aef9-e8697093ca05)"><g style="clip-path:url(#c5db8cc0-f29b-4a2c-a2f3-bad415c08945)"><rect x="50.91" y="57.76" width="16.19" height="15.96" style="fill:#4b4b4b"/></g></g><g style="clip-path:url(#7bb0339e-f8ff-4521-af8b-2c54aa4b130f)"><g style="clip-path:url(#c5db8cc0-f29b-4a2c-a2f3-bad415c08945)"><rect x="60.68" y="57.78" width="13.76" height="15.91" style="fill:#4b4b4b"/></g></g><g style="clip-path:url(#b5b0c7c4-1b93-4fa5-84f4-d936fbdca618)"><g style="clip-path:url(#c5db8cc0-f29b-4a2c-a2f3-bad415c08945)"><rect x="67.32" y="57.78" width="14.53" height="15.91" style="fill:#4b4b4b"/></g></g><g style="clip-path:url(#a94c75a2-336b-4e90-a058-4e745f8390fd)"><g style="clip-path:url(#c5db8cc0-f29b-4a2c-a2f3-bad415c08945)"><rect x="74.71" y="57.78" width="18.55" height="15.91" style="fill:#4b4b4b"/></g></g><g style="clip-path:url(#fbb26a08-4d71-4f8e-8c38-065bfe9ed324)"><g style="clip-path:url(#c5db8cc0-f29b-4a2c-a2f3-bad415c08945)"><rect x="85.25" y="57.78" width="15.99" height="15.91" style="fill:#4b4b4b"/></g></g><g style="clip-path:url(#04e1a319-f303-472e-ac99-9f81d88aa9b6)"><g style="clip-path:url(#c5db8cc0-f29b-4a2c-a2f3-bad415c08945)"><rect x="94.48" y="57.78" width="14.63" height="15.91" style="fill:#4b4b4b"/></g></g><g style="clip-path:url(#86a939f5-3c2a-45aa-bd7a-6f30c19a0bb1)"><g style="clip-path:url(#c5db8cc0-f29b-4a2c-a2f3-bad415c08945)"><rect x="102.82" y="57.78" width="14.12" height="15.91" style="fill:#4b4b4b"/></g></g><g style="clip-path:url(#e8c78afc-7f5d-4710-80a3-cb78a078376a)"><g style="clip-path:url(#c5db8cc0-f29b-4a2c-a2f3-bad415c08945)"><rect x="115.69" y="57.78" width="13.76" height="15.91" style="fill:#4b4b4b"/></g></g><g style="clip-path:url(#d6787565-3c7a-4df9-8478-6c0d7e4bea4b)"><g style="clip-path:url(#c5db8cc0-f29b-4a2c-a2f3-bad415c08945)"><rect x="122.28" y="57.76" width="16.19" height="15.96" style="fill:#4b4b4b"/></g></g><g style="clip-path:url(#da85deb2-9bf5-41dc-8882-6bcce0dbc4c9)"><g style="clip-path:url(#c5db8cc0-f29b-4a2c-a2f3-bad415c08945)"><rect x="131.92" y="57.78" width="14.97" height="15.94" style="fill:#4b4b4b"/></g></g><g style="clip-path:url(#d74a069c-717e-4606-8b4b-85378a34c7d2)"><g style="clip-path:url(#c5db8cc0-f29b-4a2c-a2f3-bad415c08945)"><rect x="140.84" y="57.78" width="14.91" height="15.91" style="fill:#4b4b4b"/></g></g><g style="clip-path:url(#6fed875d-b7ec-417a-ab19-d6dc45269753)"><g style="clip-path:url(#c5db8cc0-f29b-4a2c-a2f3-bad415c08945)"><rect x="149.79" y="57.78" width="15.43" height="15.91" style="fill:#4b4b4b"/></g></g><g style="clip-path:url(#bda61f41-8076-4edf-b2e6-198960f29a90)"><g style="clip-path:url(#c5db8cc0-f29b-4a2c-a2f3-bad415c08945)"><rect x="157.68" y="57.78" width="15.99" height="15.91" style="fill:#4b4b4b"/></g></g><g style="clip-path:url(#fba0cd45-a175-498e-baea-0a2cc1b16f84)"><g style="clip-path:url(#c5db8cc0-f29b-4a2c-a2f3-bad415c08945)"><rect x="165.51" y="57.78" width="14.53" height="15.91" style="fill:#4b4b4b"/></g></g><g style="clip-path:url(#b95dac51-1c70-4186-822d-5756109ee9f7)"><g style="clip-path:url(#c5db8cc0-f29b-4a2c-a2f3-bad415c08945)"><rect x="173.29" y="57.78" width="10.68" height="15.91" style="fill:#4b4b4b"/></g></g><g style="clip-path:url(#2ec2ef1a-70f3-49e4-8f8d-f47420d7eeab)"><g style="clip-path:url(#c5db8cc0-f29b-4a2c-a2f3-bad415c08945)"><rect x="177.56" y="57.76" width="16.19" height="15.96" style="fill:#4b4b4b"/></g></g><g style="clip-path:url(#ba8a7a8f-5d32-4fef-85d6-6d454d69309c)"><g style="clip-path:url(#c5db8cc0-f29b-4a2c-a2f3-bad415c08945)"><rect x="187.33" y="57.78" width="14.91" height="15.91" style="fill:#4b4b4b"/></g></g><g style="clip-path:url(#659a071f-d35f-420c-ae8e-9afd067e8c7f)"><g style="clip-path:url(#c5db8cc0-f29b-4a2c-a2f3-bad415c08945)"><rect width="50.48" height="91.09" style="fill:#4b4b4b"/></g></g></g></g></g></g></svg>