<svg xmlns="http://www.w3.org/2000/svg" xmlns:xlink="http://www.w3.org/1999/xlink" width="119.69" height="54.29" viewBox="0 0 119.69 54.29"><defs><clipPath id="14b0faba-6e8c-4b6d-9faf-ba1259559058" transform="translate(0 -39.18)"><rect x="4" y="44" width="111" height="45" style="fill:none"/></clipPath><clipPath id="e06a3176-4c3a-4f20-a811-525f459604d0" transform="translate(0 -39.18)"><polyline points="114.69 47.33 96.43 47.33 97.56 44.18 114.69 44.18 114.69 47.33" style="fill:none;clip-rule:evenodd"/></clipPath><clipPath id="5f6be9c0-5898-4f59-a82d-04926ae9d8a7" transform="translate(0 -39.18)"><rect x="4" width="277" height="133" style="fill:none"/></clipPath><clipPath id="559c779a-69f7-4199-a2e4-2b01b9aa5401" transform="translate(0 -39.18)"><path d="M66,44.18H83l1.11,3.16H66s0-3.15,0-3.15" style="fill:none;clip-rule:evenodd"/></clipPath><clipPath id="d4abcf35-32d1-4ae3-adec-d810ffd41b48" transform="translate(0 -39.18)"><path d="M52.55,44.18a12.18,12.18,0,0,1,7.29,3.15H29.12V44.18H52.55" style="fill:none;clip-rule:evenodd"/></clipPath><clipPath id="547d3b9f-69d5-4844-a19c-f5abdfe9326b" transform="translate(0 -39.18)"><rect x="5.07" y="44.18" width="21.28" height="3.15" style="fill:none"/></clipPath><clipPath id="729f0992-1d29-4511-a109-29cd0b022cf7" transform="translate(0 -39.18)"><path d="M114.69,53.24H94.34s1.11-3.13,1.1-3.13h19.25v3.13" style="fill:none;clip-rule:evenodd"/></clipPath><clipPath id="39e98253-767a-469c-b2e9-9bccdcca91c2" transform="translate(0 -39.18)"><polyline points="86.18 53.24 66.02 53.24 66.02 50.1 85.07 50.1 86.18 53.24" style="fill:none;clip-rule:evenodd"/></clipPath><clipPath id="d07e385c-3e6f-4ae1-af92-569a973c22de" transform="translate(0 -39.18)"><path d="M62.24,50.1a8.13,8.13,0,0,1,.88,3.13h-34V50.1H62.24" style="fill:none;clip-rule:evenodd"/></clipPath><clipPath id="b59e3d8a-cbb3-4453-b903-f226efee5e2f" transform="translate(0 -39.18)"><rect x="5.07" y="50.1" width="21.28" height="3.13" style="fill:none"/></clipPath><clipPath id="28fd6285-837d-4a7b-8e91-9651e2dd5a97" transform="translate(0 -39.18)"><polyline points="92.26 59.16 93.38 56.01 108.66 56.02 108.66 59.15 92.26 59.16" style="fill:none;clip-rule:evenodd"/></clipPath><clipPath id="2953141d-9c88-4fcf-94c2-d0e8a384a45b" transform="translate(0 -39.18)"><polyline points="87.16 56.01 88.27 59.16 72.03 59.16 72.03 56.01 87.16 56.01" style="fill:none;clip-rule:evenodd"/></clipPath><clipPath id="73c7cfd3-de60-4acc-b22d-7e0cc38cf681" transform="translate(0 -39.18)"><path d="M63.39,56a10.29,10.29,0,0,1-.45,3.15H53.63V56h9.76" style="fill:none;clip-rule:evenodd"/></clipPath><clipPath id="c02d7fc5-b3ce-4c26-b82f-05fb4a2cc3ed" transform="translate(0 -39.18)"><rect x="10.95" y="56.03" width="9.18" height="3.13" style="fill:none"/></clipPath><clipPath id="6ae8a8cc-a652-4fdc-8c2b-0e86d4929760" transform="translate(0 -39.18)"><rect x="35.3" y="56.01" width="9.16" height="3.15" style="fill:none"/></clipPath><clipPath id="a800ad39-dd2c-48b7-adae-c410065d8a8b" transform="translate(0 -39.18)"><path d="M81,62.56s0,2.38,0,2.39H72V61.81h17.2l1.07,2.92s1-2.93,1-2.92h17.33v3.13h-9V62.56l-.83,2.39h-17L81,62.56" style="fill:none;clip-rule:evenodd"/></clipPath><clipPath id="12cd9699-3dbe-497a-8f8f-bd9b7bee1090" transform="translate(0 -39.18)"><path d="M35.3,61.81H61.59A11.8,11.8,0,0,1,59,64.95H35.3V61.81" style="fill:none;clip-rule:evenodd"/></clipPath><clipPath id="06ad24ed-9021-4127-b852-e637b0103d48" transform="translate(0 -39.18)"><rect x="10.95" y="61.81" width="9.18" height="3.13" style="fill:none"/></clipPath><clipPath id="b0d1e3b8-f690-4704-a184-163119332980" transform="translate(0 -39.18)"><rect x="99.67" y="67.72" width="8.98" height="3.13" style="fill:none"/></clipPath><clipPath id="6a00cd78-b5c7-4d85-8ab5-75db365edeef" transform="translate(0 -39.18)"><path d="M81,67.72H72v3.13h9s0-3.13,0-3.13" style="fill:none;clip-rule:evenodd"/></clipPath><clipPath id="ee2c2fa5-2a68-489a-8bb9-4bea84220cfa" transform="translate(0 -39.18)"><path d="M97.86,67.72s-1.05,3.13-1.09,3.13H84s-1.12-3.14-1.13-3.14h15" style="fill:none;clip-rule:evenodd"/></clipPath><clipPath id="fa409083-e4c2-4d9b-b364-e17d78f774d1" transform="translate(0 -39.18)"><path d="M35.3,67.72H58.94a15.43,15.43,0,0,1,2.82,3.13H35.3V67.72" style="fill:none;clip-rule:evenodd"/></clipPath><clipPath id="2d59c59b-08f4-4547-a9c8-7eda0d6e80bb" transform="translate(0 -39.18)"><path d="M20.13,70.85V67.72H11v3.13h9.16" style="fill:none;clip-rule:evenodd"/></clipPath><clipPath id="91f49736-abe2-47ab-b1f9-5012a1f13b86" transform="translate(0 -39.18)"><rect x="99.67" y="73.63" width="8.98" height="3.13" style="fill:none"/></clipPath><clipPath id="52dc2ce5-5cd1-4ff6-8333-e237688e860c" transform="translate(0 -39.18)"><rect x="72.03" y="73.63" width="9.02" height="3.13" style="fill:none"/></clipPath><clipPath id="721681f1-64d8-48fa-a5ae-f7ca5b8a0018" transform="translate(0 -39.18)"><path d="M94.67,76.78s1.11-3.15,1.12-3.15H84.92S86,76.76,86,76.76s8.63,0,8.63,0" style="fill:none;clip-rule:evenodd"/></clipPath><clipPath id="5259f45e-7f73-40c9-a0e0-d11e0e0b3cce" transform="translate(0 -39.18)"><path d="M35.3,76.76s0-3.13,0-3.13h9.3s0,3.14,0,3.14H35.3" style="fill:none;clip-rule:evenodd"/></clipPath><clipPath id="d9b33681-3956-48d9-a904-e008a7baa5b1" transform="translate(0 -39.18)"><path d="M63.06,73.63a9.09,9.09,0,0,1,.59,3.15H53.8V73.63h9.26" style="fill:none;clip-rule:evenodd"/></clipPath><clipPath id="a07a4de6-786c-4682-8e57-61e7cf88e01a" transform="translate(0 -39.18)"><rect x="10.97" y="73.63" width="9.16" height="3.13" style="fill:none"/></clipPath><clipPath id="883b1ee9-ad33-4f59-b813-0a317954bd3d" transform="translate(0 -39.18)"><rect x="99.67" y="79.41" width="15.02" height="3.14" style="fill:none"/></clipPath><clipPath id="e9124b9d-d750-4f32-ba0c-4014aeda6738" transform="translate(0 -39.18)"><rect x="66.02" y="79.41" width="15.03" height="3.14" style="fill:none"/></clipPath><clipPath id="a5837a79-a17d-41c5-8ef6-db72022bb243" transform="translate(0 -39.18)"><polyline points="92.64 82.55 88.06 82.55 86.96 79.41 93.71 79.41 92.64 82.55" style="fill:none;clip-rule:evenodd"/></clipPath><clipPath id="1082e9ef-3ed7-4f1f-a555-8c88a8ef4f01" transform="translate(0 -39.18)"><path d="M5,79.41v3.13H26.33s0-3.13,0-3.13H5" style="fill:none;clip-rule:evenodd"/></clipPath><clipPath id="fe4d738e-d4af-4a53-9f8b-540e18702411" transform="translate(0 -39.18)"><path d="M63.26,79.41a6.73,6.73,0,0,1-1.19,3.13H29.12V79.41H63.26" style="fill:none;clip-rule:evenodd"/></clipPath><clipPath id="b3dc1109-a738-4352-9134-8b2169299088" transform="translate(0 -39.18)"><polyline points="90.57 88.46 90.14 88.46 89.07 85.32 91.67 85.32 90.57 88.46" style="fill:none;clip-rule:evenodd"/></clipPath><clipPath id="072982a7-d7bc-404f-a175-ffddb00e800f" transform="translate(0 -39.18)"><rect x="99.67" y="85.32" width="15.02" height="3.15" style="fill:none"/></clipPath><clipPath id="81fc6cc1-3807-493c-9a34-4f02f0b085c4" transform="translate(0 -39.18)"><path d="M29.12,88.46V85.32H60a11.69,11.69,0,0,1-8,3.14H29.12" style="fill:none;clip-rule:evenodd"/></clipPath><clipPath id="a0281902-66e0-40bc-a4fd-2d90b11efef8" transform="translate(0 -39.18)"><rect x="66.02" y="85.32" width="15.03" height="3.15" style="fill:none"/></clipPath><clipPath id="7c030dac-72e2-4ea8-b31b-0754fadc096e" transform="translate(0 -39.18)"><path d="M26.33,85.33s0,3.13,0,3.13H5s0-3.14,0-3.14H26.33" style="fill:none;clip-rule:evenodd"/></clipPath></defs><title>ibm</title><g id="a072e16a-1865-4d9d-ac03-a90b69b0e2f9" data-name="Слой 2"><g id="c1eeef69-b8f0-4f88-84a3-ea0c60092ba3" data-name="Слой 1"><g style="opacity:0.7547000050544739;isolation:isolate"><g style="clip-path:url(#14b0faba-6e8c-4b6d-9faf-ba1259559058)"><g style="clip-path:url(#e06a3176-4c3a-4f20-a811-525f459604d0)"><g style="clip-path:url(#5f6be9c0-5898-4f59-a82d-04926ae9d8a7)"><rect x="91.43" width="28.26" height="13.15" style="fill:#4b4b4b"/></g></g><g style="clip-path:url(#559c779a-69f7-4199-a2e4-2b01b9aa5401)"><g style="clip-path:url(#5f6be9c0-5898-4f59-a82d-04926ae9d8a7)"><rect x="61.02" width="28.06" height="13.16" style="fill:#4b4b4b"/></g></g><g style="clip-path:url(#d4abcf35-32d1-4ae3-adec-d810ffd41b48)"><g style="clip-path:url(#5f6be9c0-5898-4f59-a82d-04926ae9d8a7)"><rect x="24.12" width="40.73" height="13.16" style="fill:#4b4b4b"/></g></g><g style="clip-path:url(#547d3b9f-69d5-4844-a19c-f5abdfe9326b)"><g style="clip-path:url(#5f6be9c0-5898-4f59-a82d-04926ae9d8a7)"><rect x="0.07" width="31.28" height="13.15" style="fill:#4b4b4b"/></g></g><g style="clip-path:url(#729f0992-1d29-4511-a109-29cd0b022cf7)"><g style="clip-path:url(#5f6be9c0-5898-4f59-a82d-04926ae9d8a7)"><rect x="89.34" y="5.92" width="30.35" height="13.13" style="fill:#4b4b4b"/></g></g><g style="clip-path:url(#39e98253-767a-469c-b2e9-9bccdcca91c2)"><g style="clip-path:url(#5f6be9c0-5898-4f59-a82d-04926ae9d8a7)"><rect x="61.02" y="5.92" width="30.16" height="13.14" style="fill:#4b4b4b"/></g></g><g style="clip-path:url(#d07e385c-3e6f-4ae1-af92-569a973c22de)"><g style="clip-path:url(#5f6be9c0-5898-4f59-a82d-04926ae9d8a7)"><rect x="24.12" y="5.92" width="44" height="13.13" style="fill:#4b4b4b"/></g></g><g style="clip-path:url(#b59e3d8a-cbb3-4453-b903-f226efee5e2f)"><g style="clip-path:url(#5f6be9c0-5898-4f59-a82d-04926ae9d8a7)"><rect x="0.07" y="5.92" width="31.28" height="13.13" style="fill:#4b4b4b"/></g></g><g style="clip-path:url(#28fd6285-837d-4a7b-8e91-9651e2dd5a97)"><g style="clip-path:url(#5f6be9c0-5898-4f59-a82d-04926ae9d8a7)"><rect x="87.26" y="11.83" width="26.4" height="13.15" style="fill:#4b4b4b"/></g></g><g style="clip-path:url(#2953141d-9c88-4fcf-94c2-d0e8a384a45b)"><g style="clip-path:url(#5f6be9c0-5898-4f59-a82d-04926ae9d8a7)"><rect x="67.03" y="11.83" width="26.24" height="13.15" style="fill:#4b4b4b"/></g></g><g style="clip-path:url(#73c7cfd3-de60-4acc-b22d-7e0cc38cf681)"><g style="clip-path:url(#5f6be9c0-5898-4f59-a82d-04926ae9d8a7)"><rect x="48.63" y="11.83" width="19.76" height="13.15" style="fill:#4b4b4b"/></g></g><g style="clip-path:url(#c02d7fc5-b3ce-4c26-b82f-05fb4a2cc3ed)"><g style="clip-path:url(#5f6be9c0-5898-4f59-a82d-04926ae9d8a7)"><rect x="5.95" y="11.84" width="19.18" height="13.13" style="fill:#4b4b4b"/></g></g><g style="clip-path:url(#6ae8a8cc-a652-4fdc-8c2b-0e86d4929760)"><g style="clip-path:url(#5f6be9c0-5898-4f59-a82d-04926ae9d8a7)"><rect x="30.3" y="11.83" width="19.16" height="13.15" style="fill:#4b4b4b"/></g></g><g style="clip-path:url(#a800ad39-dd2c-48b7-adae-c410065d8a8b)"><g style="clip-path:url(#5f6be9c0-5898-4f59-a82d-04926ae9d8a7)"><rect x="67.03" y="17.63" width="46.62" height="13.13" style="fill:#4b4b4b"/></g></g><g style="clip-path:url(#12cd9699-3dbe-497a-8f8f-bd9b7bee1090)"><g style="clip-path:url(#5f6be9c0-5898-4f59-a82d-04926ae9d8a7)"><rect x="30.3" y="17.63" width="36.29" height="13.14" style="fill:#4b4b4b"/></g></g><g style="clip-path:url(#06ad24ed-9021-4127-b852-e637b0103d48)"><g style="clip-path:url(#5f6be9c0-5898-4f59-a82d-04926ae9d8a7)"><rect x="5.95" y="17.63" width="19.18" height="13.13" style="fill:#4b4b4b"/></g></g><g style="clip-path:url(#b0d1e3b8-f690-4704-a184-163119332980)"><g style="clip-path:url(#5f6be9c0-5898-4f59-a82d-04926ae9d8a7)"><rect x="94.67" y="23.54" width="18.98" height="13.13" style="fill:#4b4b4b"/></g></g><g style="clip-path:url(#6a00cd78-b5c7-4d85-8ab5-75db365edeef)"><g style="clip-path:url(#5f6be9c0-5898-4f59-a82d-04926ae9d8a7)"><rect x="67.03" y="23.54" width="19.03" height="13.13" style="fill:#4b4b4b"/></g></g><g style="clip-path:url(#ee2c2fa5-2a68-489a-8bb9-4bea84220cfa)"><g style="clip-path:url(#5f6be9c0-5898-4f59-a82d-04926ae9d8a7)"><rect x="77.85" y="23.54" width="25.01" height="13.14" style="fill:#4b4b4b"/></g></g><g style="clip-path:url(#fa409083-e4c2-4d9b-b364-e17d78f774d1)"><g style="clip-path:url(#5f6be9c0-5898-4f59-a82d-04926ae9d8a7)"><rect x="30.3" y="23.54" width="36.46" height="13.13" style="fill:#4b4b4b"/></g></g><g style="clip-path:url(#2d59c59b-08f4-4547-a9c8-7eda0d6e80bb)"><g style="clip-path:url(#5f6be9c0-5898-4f59-a82d-04926ae9d8a7)"><rect x="5.97" y="23.54" width="19.16" height="13.13" style="fill:#4b4b4b"/></g></g><g style="clip-path:url(#91f49736-abe2-47ab-b1f9-5012a1f13b86)"><g style="clip-path:url(#5f6be9c0-5898-4f59-a82d-04926ae9d8a7)"><rect x="94.67" y="29.45" width="18.98" height="13.13" style="fill:#4b4b4b"/></g></g><g style="clip-path:url(#52dc2ce5-5cd1-4ff6-8333-e237688e860c)"><g style="clip-path:url(#5f6be9c0-5898-4f59-a82d-04926ae9d8a7)"><rect x="67.03" y="29.45" width="19.02" height="13.13" style="fill:#4b4b4b"/></g></g><g style="clip-path:url(#721681f1-64d8-48fa-a5ae-f7ca5b8a0018)"><g style="clip-path:url(#5f6be9c0-5898-4f59-a82d-04926ae9d8a7)"><rect x="79.92" y="29.45" width="20.87" height="13.15" style="fill:#4b4b4b"/></g></g><g style="clip-path:url(#5259f45e-7f73-40c9-a0e0-d11e0e0b3cce)"><g style="clip-path:url(#5f6be9c0-5898-4f59-a82d-04926ae9d8a7)"><rect x="30.3" y="29.44" width="19.3" height="13.14" style="fill:#4b4b4b"/></g></g><g style="clip-path:url(#d9b33681-3956-48d9-a904-e008a7baa5b1)"><g style="clip-path:url(#5f6be9c0-5898-4f59-a82d-04926ae9d8a7)"><rect x="48.8" y="29.44" width="19.85" height="13.15" style="fill:#4b4b4b"/></g></g><g style="clip-path:url(#a07a4de6-786c-4682-8e57-61e7cf88e01a)"><g style="clip-path:url(#5f6be9c0-5898-4f59-a82d-04926ae9d8a7)"><rect x="5.97" y="29.44" width="19.16" height="13.13" style="fill:#4b4b4b"/></g></g><g style="clip-path:url(#883b1ee9-ad33-4f59-b813-0a317954bd3d)"><g style="clip-path:url(#5f6be9c0-5898-4f59-a82d-04926ae9d8a7)"><rect x="94.67" y="35.23" width="25.02" height="13.14" style="fill:#4b4b4b"/></g></g><g style="clip-path:url(#e9124b9d-d750-4f32-ba0c-4014aeda6738)"><g style="clip-path:url(#5f6be9c0-5898-4f59-a82d-04926ae9d8a7)"><rect x="61.02" y="35.23" width="25.03" height="13.14" style="fill:#4b4b4b"/></g></g><g style="clip-path:url(#a5837a79-a17d-41c5-8ef6-db72022bb243)"><g style="clip-path:url(#5f6be9c0-5898-4f59-a82d-04926ae9d8a7)"><rect x="81.96" y="35.23" width="16.75" height="13.13" style="fill:#4b4b4b"/></g></g><g style="clip-path:url(#1082e9ef-3ed7-4f1f-a555-8c88a8ef4f01)"><g style="clip-path:url(#5f6be9c0-5898-4f59-a82d-04926ae9d8a7)"><rect y="35.23" width="31.34" height="13.13" style="fill:#4b4b4b"/></g></g><g style="clip-path:url(#fe4d738e-d4af-4a53-9f8b-540e18702411)"><g style="clip-path:url(#5f6be9c0-5898-4f59-a82d-04926ae9d8a7)"><rect x="24.12" y="35.23" width="44.14" height="13.13" style="fill:#4b4b4b"/></g></g><g style="clip-path:url(#b3dc1109-a738-4352-9134-8b2169299088)"><g style="clip-path:url(#5f6be9c0-5898-4f59-a82d-04926ae9d8a7)"><rect x="84.07" y="41.14" width="12.59" height="13.14" style="fill:#4b4b4b"/></g></g><g style="clip-path:url(#072982a7-d7bc-404f-a175-ffddb00e800f)"><g style="clip-path:url(#5f6be9c0-5898-4f59-a82d-04926ae9d8a7)"><rect x="94.67" y="41.14" width="25.02" height="13.15" style="fill:#4b4b4b"/></g></g><g style="clip-path:url(#81fc6cc1-3807-493c-9a34-4f02f0b085c4)"><g style="clip-path:url(#5f6be9c0-5898-4f59-a82d-04926ae9d8a7)"><rect x="24.12" y="41.14" width="40.91" height="13.14" style="fill:#4b4b4b"/></g></g><g style="clip-path:url(#a0281902-66e0-40bc-a4fd-2d90b11efef8)"><g style="clip-path:url(#5f6be9c0-5898-4f59-a82d-04926ae9d8a7)"><rect x="61.02" y="41.14" width="25.03" height="13.15" style="fill:#4b4b4b"/></g></g><g style="clip-path:url(#7c030dac-72e2-4ea8-b31b-0754fadc096e)"><g style="clip-path:url(#5f6be9c0-5898-4f59-a82d-04926ae9d8a7)"><rect y="41.14" width="31.33" height="13.14" style="fill:#4b4b4b"/></g></g></g></g></g></g></svg>