<svg xmlns="http://www.w3.org/2000/svg" xmlns:xlink="http://www.w3.org/1999/xlink" width="190.98" height="64.28" viewBox="0 0 190.98 64.28"><defs><clipPath id="68dd91b7-0d3d-445c-b906-1103ae75caf8" transform="translate(0 -31.77)"><rect x="4" y="36" width="182" height="56" style="fill:none"/></clipPath><clipPath id="6a4f7fb1-6744-40d7-b01c-3567006ea0bb" transform="translate(0 -31.77)"><path d="M41.46,55.68c1-.61,2.13-1,3.15-1.65a3.93,3.93,0,0,0,2-4.07c-.3-1.4-1.46-2.32-3.29-2.58a12.19,12.19,0,0,0-9.74,2.81c-6.07,4.94-7.93,14.91-4.2,22.08,2.3,4.43,5.66,7.24,10.6,8.1a9.49,9.49,0,0,0,4.36-.22l.27-.09a3,3,0,0,0,1.8-4.13,5.14,5.14,0,0,0-2.68-2.69,29.75,29.75,0,0,1-4-2.37,8.38,8.38,0,0,1-3.35-9.24c.77-2.77,2.76-4.54,5.11-6" style="fill:none;clip-rule:evenodd"/></clipPath><clipPath id="2019eff5-1df4-427b-98dc-eefa01cc5cc8" transform="translate(0 -31.77)"><rect x="4" width="277" height="133" style="fill:none"/></clipPath><clipPath id="06517e02-1483-43f6-885b-a38af7945bad" transform="translate(0 -31.77)"><path d="M24.85,50.68a3.71,3.71,0,0,0-3.16-3.33c-2-.16-3.68,1.26-4,3.63a116.32,116.32,0,0,0-.36,22A37.38,37.38,0,0,0,18,77.75a3.5,3.5,0,0,0,2.84,2.71A2.82,2.82,0,0,0,24,79.06,7.86,7.86,0,0,0,25,75.86c.31-4,.52-15.35.43-17-.14-2.72-.29-5.44-.63-8.14" style="fill:none;clip-rule:evenodd"/></clipPath><clipPath id="0b996cb6-2de8-4693-a116-87b14cfcd0bf" transform="translate(0 -31.77)"><path d="M56.94,46a8.9,8.9,0,0,0-7.5-7.23c-3.7-.72-7.08-1.25-10.32-1.63a73.66,73.66,0,0,0-22.58,1.15c-5.62,1.08-9,4.32-10,9.65A77.82,77.82,0,0,0,5,62.13C5,68,5.06,74.79,6.87,81.44,7.63,84.21,9,87.56,13,88.81a29.93,29.93,0,0,0,6.28,1.4c3,.29,6.1.46,9.06.62L32,91h.21l1.47,0c5.41-.14,11-.28,16.49-1.82h0c1.78-.5,4.21-1.18,5.49-3.67a14.31,14.31,0,0,0,1.49-4.34c.6-4,1.22-8.1,1.55-12.27A77.59,77.59,0,0,0,56.94,46M54.11,68.53c-.31,4-.92,8-1.51,11.94a9.77,9.77,0,0,1-1,2.92c-.33.65-1.22.94-2.63,1.33h0c-4.94,1.38-10,1.51-15.37,1.65l-1.38,0-3.59-.21c-2.92-.16-5.94-.33-8.88-.61a25.51,25.51,0,0,1-5.33-1.21c-1.51-.48-2.33-1.61-3-4.19-1.66-6.09-1.75-12.51-1.7-18.06a73.36,73.36,0,0,1,1.44-13.32c.66-3.47,2.56-5.26,6.34-6a76.9,76.9,0,0,1,14.46-1.48,57.8,57.8,0,0,1,6.72.38c3.13.37,6.4.88,10,1.58A4.32,4.32,0,0,1,52.44,47a73.05,73.05,0,0,1,1.67,21.5" style="fill:none;clip-rule:evenodd"/></clipPath><clipPath id="c599b39e-260c-47ab-8ce8-a741d21a16d3" transform="translate(0 -31.77)"><path d="M76,55.61a.11.11,0,0,1,.09,0l5.06,7a.42.42,0,0,0,.34.18h3.88a.42.42,0,0,0,.34-.67l-6.87-9.32a.12.12,0,0,1,0-.15L85.21,46a.42.42,0,0,0-.3-.72H81.08a.42.42,0,0,0-.31.14l-6.43,7a.11.11,0,0,1-.13,0,.11.11,0,0,1-.07-.11V45.67a.42.42,0,0,0-.42-.42H70.47a.42.42,0,0,0-.42.42V62.38a.42.42,0,0,0,.42.42h3.25a.42.42,0,0,0,.42-.42V57.49a.12.12,0,0,1,0-.08l1.69-1.76a.11.11,0,0,1,.09,0" style="fill:none;clip-rule:evenodd"/></clipPath><clipPath id="87cc362f-e50b-4696-91ef-24fc7b0e1a2a" transform="translate(0 -31.77)"><path d="M98.75,56v6.38a.42.42,0,0,0,.42.42h3.25a.42.42,0,0,0,.42-.42V45.67a.42.42,0,0,0-.42-.42H99.17a.42.42,0,0,0-.42.42V52a.12.12,0,0,1-.12.12H92.19a.12.12,0,0,1-.12-.12V45.67a.42.42,0,0,0-.42-.42H88.41a.42.42,0,0,0-.42.42V62.38a.42.42,0,0,0,.42.42h3.25a.42.42,0,0,0,.42-.42V56a.12.12,0,0,1,.12-.12h6.44a.12.12,0,0,1,.12.12" style="fill:none;clip-rule:evenodd"/></clipPath><clipPath id="97526440-7a24-496e-b32e-8fd418bbb555" transform="translate(0 -31.77)"><path d="M123.51,62.61a.42.42,0,0,0,0-.4l-7.14-16.83a.42.42,0,0,0-.39-.26h-3.13a.42.42,0,0,0-.39.26l-7.14,16.83a.42.42,0,0,0,.39.59H109a.42.42,0,0,0,.39-.26L110.84,59a.12.12,0,0,1,.11-.07h6.91A.11.11,0,0,1,118,59l1.44,3.53a.42.42,0,0,0,.39.26h3.37a.42.42,0,0,0,.35-.19m-7.13-7.39a.11.11,0,0,1-.1.05h-3.77a.12.12,0,0,1-.11-.16l1.88-4.61a.12.12,0,0,1,.22,0l1.88,4.61a.12.12,0,0,1,0,.11" style="fill:none;clip-rule:evenodd"/></clipPath><clipPath id="45707672-0b8d-4ef2-a389-5a7a24753a45" transform="translate(0 -31.77)"><path d="M126.49,62.81h3.25a.42.42,0,0,0,.42-.42v-5a.12.12,0,0,1,.12-.12h2.51a.11.11,0,0,1,.1.05l3.58,5.28a.42.42,0,0,0,.35.19h3.77a.42.42,0,0,0,.35-.66l-3.72-5.46a.12.12,0,0,1,0-.1.11.11,0,0,1,.06-.07,5.37,5.37,0,0,0,3.48-5.37A5.57,5.57,0,0,0,139.2,47a7,7,0,0,0-5.12-1.79h-7.59a.42.42,0,0,0-.42.42V62.38a.42.42,0,0,0,.42.42m3.67-9.29V49.1a.12.12,0,0,1,.12-.12h3.49a3.29,3.29,0,0,1,2.09.59,2,2,0,0,1,.73,1.72,2.14,2.14,0,0,1-.71,1.7,3,3,0,0,1-2,.64h-3.56a.12.12,0,0,1-.12-.12" style="fill:none;clip-rule:evenodd"/></clipPath><clipPath id="a878cf8b-eb5a-4c8a-ba75-0a69b8c07ba7" transform="translate(0 -31.77)"><path d="M152.57,52.81a.12.12,0,0,1,0-.15L159,46a.42.42,0,0,0-.3-.71h-3.82a.42.42,0,0,0-.31.14l-6.43,7a.12.12,0,0,1-.2-.08V45.67a.42.42,0,0,0-.42-.42h-3.25a.42.42,0,0,0-.42.42V62.38a.42.42,0,0,0,.42.42h3.25a.42.42,0,0,0,.42-.42V57.49a.12.12,0,0,1,0-.08l1.69-1.76a.11.11,0,0,1,.09,0,.11.11,0,0,1,.09,0l5.06,7a.42.42,0,0,0,.34.17h3.88a.42.42,0,0,0,.38-.23.42.42,0,0,0,0-.44Z" style="fill:none;clip-rule:evenodd"/></clipPath><clipPath id="bcde8e8f-701f-4483-aae5-937151dbc7d2" transform="translate(0 -31.77)"><path d="M162.36,62.8h3.25a.42.42,0,0,0,.42-.42V45.67a.42.42,0,0,0-.42-.42h-3.25a.42.42,0,0,0-.42.42V62.38a.42.42,0,0,0,.42.42" style="fill:none;clip-rule:evenodd"/></clipPath><clipPath id="69a08b27-5666-4b7a-a5b9-b559090497ed" transform="translate(0 -31.77)"><path d="M185.9,45.44a.42.42,0,0,0-.35-.19h-3.49a.42.42,0,0,0-.39.28l-4.18,11.29a.12.12,0,0,1-.22,0l-4.18-11.29a.42.42,0,0,0-.39-.28H169.1a.42.42,0,0,0-.39.58l6.74,16.83a.42.42,0,0,0,.39.27h3a.42.42,0,0,0,.39-.27l6.74-16.83a.42.42,0,0,0,0-.39" style="fill:none;clip-rule:evenodd"/></clipPath><clipPath id="aa374149-47b5-4d1b-b0cb-2190f4312f0c" transform="translate(0 -31.77)"><path d="M72.67,70.51H70.19a.42.42,0,0,0-.42.42V84.14a.42.42,0,0,0,.42.42h2.48a.42.42,0,0,0,.42-.42V70.93a.42.42,0,0,0-.42-.42" style="fill:none;clip-rule:evenodd"/></clipPath><clipPath id="4f212ecc-5aa4-441e-8d40-00d53aa31e8e" transform="translate(0 -31.77)"><path d="M86.48,70.51H75.66a.42.42,0,0,0-.42.42v2.25a.42.42,0,0,0,.42.42h3.64a.12.12,0,0,1,.12.12V84.14a.42.42,0,0,0,.42.42h2.48a.42.42,0,0,0,.42-.42V73.72a.12.12,0,0,1,.12-.12h3.64a.42.42,0,0,0,.42-.42V70.93a.42.42,0,0,0-.42-.42" style="fill:none;clip-rule:evenodd"/></clipPath><clipPath id="1d01f96d-3762-4f7d-872a-79531ee0b3b6" transform="translate(0 -31.77)"><path d="M105.36,80.33a.42.42,0,0,0-.59,0,6.93,6.93,0,0,1-1.48,1,4.15,4.15,0,0,1-1.83.38,3.53,3.53,0,0,1-2.74-1.21,4.59,4.59,0,0,1,0-5.94,3.55,3.55,0,0,1,2.74-1.2,4.24,4.24,0,0,1,1.81.35,6.35,6.35,0,0,1,1.42,1,.42.42,0,0,0,.6,0L106.74,73a.43.43,0,0,0,0-.59,8.6,8.6,0,0,0-2.16-1.51A7.37,7.37,0,0,0,96.23,82.7a6.92,6.92,0,0,0,5.13,2.1,8.19,8.19,0,0,0,3.26-.58,7.4,7.4,0,0,0,2.29-1.61.42.42,0,0,0,0-.59Z" style="fill:none;clip-rule:evenodd"/></clipPath><clipPath id="a57a78c0-aa20-41c3-9913-c52b91b884ac" transform="translate(0 -31.77)"><path d="M119,81.51h-6.3a.12.12,0,0,1-.12-.12V70.93a.42.42,0,0,0-.42-.42h-2.48a.42.42,0,0,0-.42.42V84.14a.42.42,0,0,0,.42.42H119a.42.42,0,0,0,.42-.42V81.93a.42.42,0,0,0-.42-.42" style="fill:none;clip-rule:evenodd"/></clipPath><clipPath id="1ec6e540-4207-4962-9b24-86dbbebc488f" transform="translate(0 -31.77)"><path d="M132.61,70.51h-2.48a.42.42,0,0,0-.42.42v7.61a3.38,3.38,0,0,1-.73,2.35,2.68,2.68,0,0,1-2.07.8,2.63,2.63,0,0,1-2.07-.82,3.56,3.56,0,0,1-.74-2.42V70.93a.42.42,0,0,0-.42-.42h-2.48a.42.42,0,0,0-.42.42v7.59a6.32,6.32,0,0,0,1.61,4.66,6.09,6.09,0,0,0,4.48,1.61,6.2,6.2,0,0,0,4.53-1.62A6.4,6.4,0,0,0,133,78.42V70.93a.42.42,0,0,0-.42-.42" style="fill:none;clip-rule:evenodd"/></clipPath><clipPath id="805b7688-5b72-423d-9085-0e6465399a3c" transform="translate(0 -31.77)"><path d="M144.91,77.58A8.41,8.41,0,0,0,141.55,76a11.06,11.06,0,0,1-2.35-.79.94.94,0,0,1-.49-.87.91.91,0,0,1,.4-.77,2,2,0,0,1,1.21-.31,6,6,0,0,1,3.26,1.18.42.42,0,0,0,.58-.11l1.27-1.85a.42.42,0,0,0-.09-.58,8.08,8.08,0,0,0-5-1.62,5.33,5.33,0,0,0-3.56,1.18,3.91,3.91,0,0,0-1.4,3.12,4.56,4.56,0,0,0,.32,1.78,2.93,2.93,0,0,0,1,1.25,6.46,6.46,0,0,0,1.41.78,16.32,16.32,0,0,0,1.92.59,8.35,8.35,0,0,1,2.17.78,1,1,0,0,1,.48.82,1,1,0,0,1-.46.86,2.46,2.46,0,0,1-1.37.33,6.15,6.15,0,0,1-3.8-1.47.42.42,0,0,0-.58.06l-1.45,1.74a.42.42,0,0,0,0,.59,8.6,8.6,0,0,0,5.72,2.06,5.77,5.77,0,0,0,3.75-1.16A4,4,0,0,0,146,80.35a3.49,3.49,0,0,0-1.11-2.77" style="fill:none;clip-rule:evenodd"/></clipPath><clipPath id="6bbe69fe-d2a5-4616-9a0a-84b478fb90af" transform="translate(0 -31.77)"><path d="M158.31,70.51H147.49a.42.42,0,0,0-.42.42v2.25a.42.42,0,0,0,.42.42h3.64a.12.12,0,0,1,.12.12V84.14a.42.42,0,0,0,.42.42h2.48a.42.42,0,0,0,.42-.42V73.72a.12.12,0,0,1,.12-.12h3.64a.42.42,0,0,0,.42-.42V70.93a.42.42,0,0,0-.42-.42" style="fill:none;clip-rule:evenodd"/></clipPath><clipPath id="9c26ea66-b6ad-4ed4-814b-76ed410f70dd" transform="translate(0 -31.77)"><path d="M171.07,81.57h-6.91a.12.12,0,0,1-.12-.12V79.1a.12.12,0,0,1,.12-.12h5.93a.42.42,0,0,0,.42-.42V76.41a.42.42,0,0,0-.42-.42h-5.93a.12.12,0,0,1-.12-.12V73.62a.12.12,0,0,1,.12-.12H171a.42.42,0,0,0,.42-.42V70.93a.42.42,0,0,0-.42-.42h-9.81a.42.42,0,0,0-.42.42V84.14a.42.42,0,0,0,.42.42h9.91a.42.42,0,0,0,.42-.42V82a.42.42,0,0,0-.42-.42" style="fill:none;clip-rule:evenodd"/></clipPath><clipPath id="1f7f791e-3f94-475d-a800-f4e038b7bcdb" transform="translate(0 -31.77)"><path d="M182.84,79.69a.12.12,0,0,1,0-.1.11.11,0,0,1,.06-.07,4.3,4.3,0,0,0,2.73-4.28,4.47,4.47,0,0,0-1.22-3.29,5.57,5.57,0,0,0-4.1-1.44h-6a.42.42,0,0,0-.42.42V84.14a.42.42,0,0,0,.42.42h2.48a.42.42,0,0,0,.42-.42V80.28a.12.12,0,0,1,.12-.12h1.92a.12.12,0,0,1,.1.05l2.82,4.17a.42.42,0,0,0,.35.19h2.88a.42.42,0,0,0,.35-.66Zm-.58-4.34a1.68,1.68,0,0,1-.56,1.33,2.34,2.34,0,0,1-1.6.5h-2.79a.12.12,0,0,1-.12-.12V73.66a.12.12,0,0,1,.12-.12H180a2.59,2.59,0,0,1,1.65.47A1.6,1.6,0,0,1,182.26,75.35Z" style="fill:none;clip-rule:evenodd"/></clipPath></defs><title>kharkiv</title><g id="8ac59c5e-0bc9-4042-a8ff-964dd0021c4f" data-name="Слой 2"><g id="e9e13c4c-22aa-4476-b7b5-8c4c4182797c" data-name="Слой 1"><g style="opacity:0.7547000050544739;isolation:isolate"><g style="clip-path:url(#68dd91b7-0d3d-445c-b906-1103ae75caf8)"><g style="clip-path:url(#6a4f7fb1-6744-40d7-b01c-3567006ea0bb)"><g style="clip-path:url(#2019eff5-1df4-427b-98dc-eefa01cc5cc8)"><rect x="22.48" y="10.48" width="29.21" height="43.28" style="fill:#4b4b4b"/></g></g><g style="clip-path:url(#06517e02-1483-43f6-885b-a38af7945bad)"><g style="clip-path:url(#2019eff5-1df4-427b-98dc-eefa01cc5cc8)"><rect x="12.02" y="10.56" width="18.48" height="43.19" style="fill:#4b4b4b"/></g></g><g style="clip-path:url(#0b996cb6-2de8-4693-a116-87b14cfcd0bf)"><g style="clip-path:url(#2019eff5-1df4-427b-98dc-eefa01cc5cc8)"><rect width="63.91" height="64.28" style="fill:#4b4b4b"/></g></g><g style="clip-path:url(#c599b39e-260c-47ab-8ce8-a741d21a16d3)"><g style="clip-path:url(#2019eff5-1df4-427b-98dc-eefa01cc5cc8)"><rect x="65.05" y="8.48" width="25.69" height="27.55" style="fill:#4b4b4b"/></g></g><g style="clip-path:url(#87cc362f-e50b-4696-91ef-24fc7b0e1a2a)"><g style="clip-path:url(#2019eff5-1df4-427b-98dc-eefa01cc5cc8)"><rect x="82.98" y="8.48" width="24.85" height="27.55" style="fill:#4b4b4b"/></g></g><g style="clip-path:url(#97526440-7a24-496e-b32e-8fd418bbb555)"><g style="clip-path:url(#2019eff5-1df4-427b-98dc-eefa01cc5cc8)"><rect x="100.32" y="8.36" width="28.26" height="27.68" style="fill:#4b4b4b"/></g></g><g style="clip-path:url(#45707672-0b8d-4ef2-a389-5a7a24753a45)"><g style="clip-path:url(#2019eff5-1df4-427b-98dc-eefa01cc5cc8)"><rect x="121.07" y="8.48" width="24.93" height="27.55" style="fill:#4b4b4b"/></g></g><g style="clip-path:url(#a878cf8b-eb5a-4c8a-ba75-0a69b8c07ba7)"><g style="clip-path:url(#2019eff5-1df4-427b-98dc-eefa01cc5cc8)"><rect x="138.83" y="8.48" width="25.69" height="27.55" style="fill:#4b4b4b"/></g></g><g style="clip-path:url(#bcde8e8f-701f-4483-aae5-937151dbc7d2)"><g style="clip-path:url(#2019eff5-1df4-427b-98dc-eefa01cc5cc8)"><rect x="156.94" y="8.48" width="14.09" height="27.55" style="fill:#4b4b4b"/></g></g><g style="clip-path:url(#69a08b27-5666-4b7a-a5b9-b559090497ed)"><g style="clip-path:url(#2019eff5-1df4-427b-98dc-eefa01cc5cc8)"><rect x="163.68" y="8.48" width="27.3" height="27.68" style="fill:#4b4b4b"/></g></g><g style="clip-path:url(#aa374149-47b5-4d1b-b0cb-2190f4312f0c)"><g style="clip-path:url(#2019eff5-1df4-427b-98dc-eefa01cc5cc8)"><rect x="64.77" y="33.73" width="13.32" height="24.06" style="fill:#4b4b4b"/></g></g><g style="clip-path:url(#4f212ecc-5aa4-441e-8d40-00d53aa31e8e)"><g style="clip-path:url(#2019eff5-1df4-427b-98dc-eefa01cc5cc8)"><rect x="70.23" y="33.73" width="21.67" height="24.06" style="fill:#4b4b4b"/></g></g><g style="clip-path:url(#1d01f96d-3762-4f7d-872a-79531ee0b3b6)"><g style="clip-path:url(#2019eff5-1df4-427b-98dc-eefa01cc5cc8)"><rect x="89.18" y="33.5" width="22.86" height="24.53" style="fill:#4b4b4b"/></g></g><g style="clip-path:url(#a57a78c0-aa20-41c3-9913-c52b91b884ac)"><g style="clip-path:url(#2019eff5-1df4-427b-98dc-eefa01cc5cc8)"><rect x="104.25" y="33.73" width="20.16" height="24.06" style="fill:#4b4b4b"/></g></g><g style="clip-path:url(#1ec6e540-4207-4962-9b24-86dbbebc488f)"><g style="clip-path:url(#2019eff5-1df4-427b-98dc-eefa01cc5cc8)"><rect x="115.77" y="33.73" width="22.26" height="24.28" style="fill:#4b4b4b"/></g></g><g style="clip-path:url(#805b7688-5b72-423d-9085-0e6465399a3c)"><g style="clip-path:url(#2019eff5-1df4-427b-98dc-eefa01cc5cc8)"><rect x="129.97" y="33.54" width="21.05" height="24.45" style="fill:#4b4b4b"/></g></g><g style="clip-path:url(#6bbe69fe-d2a5-4616-9a0a-84b478fb90af)"><g style="clip-path:url(#2019eff5-1df4-427b-98dc-eefa01cc5cc8)"><rect x="142.07" y="33.73" width="21.67" height="24.06" style="fill:#4b4b4b"/></g></g><g style="clip-path:url(#9c26ea66-b6ad-4ed4-814b-76ed410f70dd)"><g style="clip-path:url(#2019eff5-1df4-427b-98dc-eefa01cc5cc8)"><rect x="155.74" y="33.73" width="20.75" height="24.06" style="fill:#4b4b4b"/></g></g><g style="clip-path:url(#1f7f791e-3f94-475d-a800-f4e038b7bcdb)"><g style="clip-path:url(#2019eff5-1df4-427b-98dc-eefa01cc5cc8)"><rect x="168.87" y="33.73" width="21.92" height="24.06" style="fill:#4b4b4b"/></g></g></g></g></g></g></svg>