<svg xmlns="http://www.w3.org/2000/svg" xmlns:xlink="http://www.w3.org/1999/xlink" width="169.6" height="62.19" viewBox="0 0 169.6 62.19"><defs><clipPath id="73764c62-4b5c-469b-8436-6414d89c8601" transform="translate(0 -35.85)"><rect x="5" y="40" width="160" height="54" style="fill:none"/></clipPath><clipPath id="d7d924c0-a3cb-437e-a246-f7cc4828ded8" transform="translate(0 -35.85)"><rect x="5" y="40.85" width="52.19" height="11.12" style="fill:none"/></clipPath><clipPath id="d56ee57b-b50f-4f96-89e0-a0f15b5200cb" transform="translate(0 -35.85)"><rect x="5" width="276" height="133" style="fill:none"/></clipPath><clipPath id="e92cb194-86b3-4e72-871d-60dad71e371b" transform="translate(0 -35.85)"><rect x="46.07" y="40.86" width="11.12" height="52.19" style="fill:none"/></clipPath><clipPath id="3dae8750-a695-40a8-b872-1b8c665458d1" transform="translate(0 -35.85)"><rect x="41.79" y="81.93" width="15.4" height="11.12" style="fill:none"/></clipPath><clipPath id="e24739be-9067-467e-bad9-e2c479fa923b" transform="translate(0 -35.85)"><rect x="5" y="40.86" width="11.12" height="15.4" style="fill:none"/></clipPath><clipPath id="eb5c69cc-01ab-4c53-9abc-13d9cfd83184" transform="translate(0 -35.85)"><rect x="5" y="63.1" width="11.12" height="29.95" style="fill:none"/></clipPath><clipPath id="98e64c7a-2872-4aa9-8de1-c54bda462fc8" transform="translate(0 -35.85)"><rect x="5" y="81.93" width="29.95" height="11.12" style="fill:none"/></clipPath><clipPath id="9614f913-fd31-477a-a2ae-0304ca7ddf12" transform="translate(0 -35.85)"><polygon points="66.4 41.31 66.4 42.64 70.1 42.64 70.1 52.57 71.59 52.57 71.59 42.64 75.3 42.64 75.3 41.31 66.4 41.31" style="fill:none;clip-rule:evenodd"/></clipPath><clipPath id="3ec992f9-3602-4a6b-ac6d-a12c3bfa1e7d" transform="translate(0 -35.85)"><polygon points="84.19 41.31 84.19 45.93 78.36 45.93 78.36 41.31 76.87 41.31 76.87 52.57 78.36 52.57 78.36 47.26 84.19 47.26 84.19 52.57 85.68 52.57 85.68 41.31 84.19 41.31" style="fill:none;clip-rule:evenodd"/></clipPath><clipPath id="4bc13eab-22df-440e-9054-01af4fa95bfc" transform="translate(0 -35.85)"><polygon points="88.19 41.31 88.19 52.57 96.56 52.57 96.56 51.24 89.67 51.24 89.67 47.41 95.88 47.41 95.88 46.09 89.67 46.09 89.67 42.64 96.3 42.64 96.3 41.31 88.19 41.31" style="fill:none;clip-rule:evenodd"/></clipPath><clipPath id="61c3814c-2fb5-41f5-b704-4fd9f4bd5368" transform="translate(0 -35.85)"><polygon points="67.55 76 67.55 56.66 72.03 56.66 72.03 72.71 83.16 72.71 83.16 76 67.55 76" style="fill:none;clip-rule:evenodd"/></clipPath><clipPath id="c1978b3d-0e20-4e12-b031-9a41656fa81b" transform="translate(0 -35.85)"><rect x="87.77" y="56.5" width="4.48" height="19.5" style="fill:none"/></clipPath><clipPath id="e2336cb2-6cce-413a-90bb-e018ac8c8554" transform="translate(0 -35.85)"><polygon points="98.11 76 98.11 56.5 102.46 56.5 111.54 69.52 111.54 56.5 115.7 56.5 115.7 76 111.2 76 102.27 63.28 102.27 76 98.11 76" style="fill:none;clip-rule:evenodd"/></clipPath><clipPath id="7bea11f0-1f8c-402f-a46a-3e09434e804b" transform="translate(0 -35.85)"><path d="M121.95,56.5h4.48V67.06a19.3,19.3,0,0,0,.17,3.26A3.14,3.14,0,0,0,128,72.24a5.25,5.25,0,0,0,3,.72,5,5,0,0,0,2.87-.68A2.67,2.67,0,0,0,135,70.6a19.33,19.33,0,0,0,.2-3.31V56.5h4.48V66.74a23.28,23.28,0,0,1-.36,5,5.25,5.25,0,0,1-1.34,2.45,6.83,6.83,0,0,1-2.61,1.59,12.74,12.74,0,0,1-4.26.59,13.81,13.81,0,0,1-4.82-.65A6.89,6.89,0,0,1,123.64,74a5.16,5.16,0,0,1-1.26-2.16,20.94,20.94,0,0,1-.44-4.95Z" style="fill:none;clip-rule:evenodd"/></clipPath><clipPath id="a90b6d49-8f53-48b6-aca9-7306c9bb7fb7" transform="translate(0 -35.85)"><polygon points="143.65 76 151.22 65.82 144.36 56.5 149.59 56.5 154.04 62.77 158.39 56.5 163.58 56.5 156.68 65.97 164.26 76 158.86 76 153.95 69.26 149.01 76 143.65 76" style="fill:none;clip-rule:evenodd"/></clipPath><clipPath id="8eab4c6f-cb00-45e5-9e03-7427b9d698ef" transform="translate(0 -35.85)"><polygon points="67 92.85 67 81.47 74.4 81.47 74.4 82.81 68.46 82.81 68.46 86.34 73.6 86.34 73.6 87.68 68.46 87.68 68.46 92.85 67 92.85" style="fill:none;clip-rule:evenodd"/></clipPath><clipPath id="191073ab-3a3a-4a6e-88e8-a72a3f5e2e8e" transform="translate(0 -35.85)"><path d="M75.84,87.31a6.34,6.34,0,0,1,1.46-4.44,4.89,4.89,0,0,1,3.78-1.6,5.1,5.1,0,0,1,2.74.75,4.85,4.85,0,0,1,1.86,2.1,7,7,0,0,1,.64,3.06,6.94,6.94,0,0,1-.67,3.1,4.71,4.71,0,0,1-1.91,2.07,5.29,5.29,0,0,1-2.66.7,5,5,0,0,1-2.77-.78,4.93,4.93,0,0,1-1.85-2.12,6.62,6.62,0,0,1-.63-2.84m1.49,0a4.67,4.67,0,0,0,1.07,3.24,3.62,3.62,0,0,0,5.37,0,5,5,0,0,0,1.06-3.39,6,6,0,0,0-.45-2.43,3.59,3.59,0,0,0-1.32-1.61,3.5,3.5,0,0,0-2-.57,3.64,3.64,0,0,0-2.65,1.1,5,5,0,0,0-1.11,3.67" style="fill:none;clip-rule:evenodd"/></clipPath><clipPath id="9f8d15f4-8ca2-4dfc-975d-3c91062111f3" transform="translate(0 -35.85)"><path d="M95.39,81.47h1.45V88a8.07,8.07,0,0,1-.37,2.73,3.31,3.31,0,0,1-1.35,1.64,4.63,4.63,0,0,1-2.56.63A5.11,5.11,0,0,1,90,92.5a3.11,3.11,0,0,1-1.4-1.6A7.88,7.88,0,0,1,88.22,88V81.47h1.45V88a6.61,6.61,0,0,0,.27,2.19,2.07,2.07,0,0,0,.91,1.08,3.07,3.07,0,0,0,1.58.38,3,3,0,0,0,2.28-.75,4.47,4.47,0,0,0,.68-2.9Z" style="fill:none;clip-rule:evenodd"/></clipPath><clipPath id="137c6043-4e6d-45cd-97fe-d403f41ea29a" transform="translate(0 -35.85)"><polygon points="99.24 92.85 99.24 81.47 100.73 81.47 106.49 90.41 106.49 81.47 107.88 81.47 107.88 92.85 106.39 92.85 100.63 83.91 100.63 92.85 99.24 92.85" style="fill:none;clip-rule:evenodd"/></clipPath><clipPath id="fe7b66a7-84f8-4b05-8e55-4776fba6cc29" transform="translate(0 -35.85)"><path d="M110.32,92.85V81.46h3.78a8.79,8.79,0,0,1,2,.16,3.67,3.67,0,0,1,1.61.81,4.66,4.66,0,0,1,1.3,1.95,7.92,7.92,0,0,1,.43,2.71,8.26,8.26,0,0,1-.29,2.3,5.65,5.65,0,0,1-.75,1.66,4.06,4.06,0,0,1-1,1,4,4,0,0,1-1.31.57,7.23,7.23,0,0,1-1.76.19Zm1.45-1.34h2.34a5.49,5.49,0,0,0,1.7-.21,2.4,2.4,0,0,0,1-.59,3.62,3.62,0,0,0,.8-1.44,7.3,7.3,0,0,0,.29-2.19,5.47,5.47,0,0,0-.57-2.75A2.87,2.87,0,0,0,115.95,83a5.45,5.45,0,0,0-1.88-.23h-2.3Z" style="fill:none;clip-rule:evenodd"/></clipPath><clipPath id="6821a372-7ac5-4dcb-a8b4-c157b1fe39ca" transform="translate(0 -35.85)"><path d="M120.17,92.85l4.21-11.39h1.56l4.49,11.39h-1.65l-1.28-3.45h-4.58l-1.2,3.45Zm3.16-4.68h3.72L125.91,85q-.52-1.44-.78-2.36a15.16,15.16,0,0,1-.59,2.18Z" style="fill:none;clip-rule:evenodd"/></clipPath><clipPath id="e61b4be8-cd63-4979-ba66-9cee084d240b" transform="translate(0 -35.85)"><polygon points="133.24 92.85 133.24 82.81 129.63 82.81 129.63 81.47 138.32 81.47 138.32 82.81 134.69 82.81 134.69 92.85 133.24 92.85" style="fill:none;clip-rule:evenodd"/></clipPath><clipPath id="32d566be-273e-4411-bab8-41889cf04ac4" transform="translate(0 -35.85)"><rect x="140.06" y="81.47" width="1.45" height="11.39" style="fill:none"/></clipPath><clipPath id="02319b85-c8d7-4be0-b0a8-a830c7f1ab4c" transform="translate(0 -35.85)"><path d="M143.62,87.31a6.34,6.34,0,0,1,1.46-4.44,4.89,4.89,0,0,1,3.78-1.6,5.1,5.1,0,0,1,2.74.75,4.86,4.86,0,0,1,1.86,2.1,7,7,0,0,1,.64,3.06,6.93,6.93,0,0,1-.67,3.1,4.71,4.71,0,0,1-1.91,2.07,5.28,5.28,0,0,1-2.66.7,5,5,0,0,1-2.77-.78,4.93,4.93,0,0,1-1.85-2.12,6.62,6.62,0,0,1-.63-2.84m1.49,0a4.67,4.67,0,0,0,1.07,3.24,3.62,3.62,0,0,0,5.37,0,5,5,0,0,0,1.06-3.39,6,6,0,0,0-.45-2.43,3.59,3.59,0,0,0-1.32-1.61,3.5,3.5,0,0,0-2-.57,3.64,3.64,0,0,0-2.65,1.1,5,5,0,0,0-1.11,3.67" style="fill:none;clip-rule:evenodd"/></clipPath><clipPath id="ba2ac76f-89d7-4ccb-84cb-01feb108468e" transform="translate(0 -35.85)"><polygon points="155.96 92.85 155.96 81.47 157.45 81.47 163.21 90.41 163.21 81.47 164.6 81.47 164.6 92.85 163.11 92.85 157.35 83.91 157.35 92.85 155.96 92.85" style="fill:none;clip-rule:evenodd"/></clipPath></defs><title>linux</title><g id="18f2d07d-7056-4c48-aef1-3c7557468dd1" data-name="Слой 2"><g id="dfd5e8ac-ec8b-4b5d-b665-7e5075b117bd" data-name="Слой 1"><g style="opacity:0.7547000050544739;isolation:isolate"><g style="clip-path:url(#73764c62-4b5c-469b-8436-6414d89c8601)"><g style="clip-path:url(#d7d924c0-a3cb-437e-a246-f7cc4828ded8)"><g style="clip-path:url(#d56ee57b-b50f-4f96-89e0-a0f15b5200cb)"><rect width="62.19" height="21.12" style="fill:#4b4b4b"/></g></g><g style="clip-path:url(#e92cb194-86b3-4e72-871d-60dad71e371b)"><g style="clip-path:url(#d56ee57b-b50f-4f96-89e0-a0f15b5200cb)"><rect x="41.07" width="21.12" height="62.19" style="fill:#4b4b4b"/></g></g><g style="clip-path:url(#3dae8750-a695-40a8-b872-1b8c665458d1)"><g style="clip-path:url(#d56ee57b-b50f-4f96-89e0-a0f15b5200cb)"><rect x="36.79" y="41.07" width="25.4" height="21.12" style="fill:#4b4b4b"/></g></g><g style="clip-path:url(#e24739be-9067-467e-bad9-e2c479fa923b)"><g style="clip-path:url(#d56ee57b-b50f-4f96-89e0-a0f15b5200cb)"><rect width="21.12" height="25.4" style="fill:#4b4b4b"/></g></g><g style="clip-path:url(#eb5c69cc-01ab-4c53-9abc-13d9cfd83184)"><g style="clip-path:url(#d56ee57b-b50f-4f96-89e0-a0f15b5200cb)"><rect y="22.25" width="21.12" height="39.95" style="fill:#4b4b4b"/></g></g><g style="clip-path:url(#98e64c7a-2872-4aa9-8de1-c54bda462fc8)"><g style="clip-path:url(#d56ee57b-b50f-4f96-89e0-a0f15b5200cb)"><rect y="41.07" width="39.95" height="21.12" style="fill:#4b4b4b"/></g></g><g style="clip-path:url(#9614f913-fd31-477a-a2ae-0304ca7ddf12)"><g style="clip-path:url(#d56ee57b-b50f-4f96-89e0-a0f15b5200cb)"><rect x="61.4" y="0.46" width="18.9" height="21.26" style="fill:#4b4b4b"/></g></g><g style="clip-path:url(#3ec992f9-3602-4a6b-ac6d-a12c3bfa1e7d)"><g style="clip-path:url(#d56ee57b-b50f-4f96-89e0-a0f15b5200cb)"><rect x="71.87" y="0.46" width="18.81" height="21.26" style="fill:#4b4b4b"/></g></g><g style="clip-path:url(#4bc13eab-22df-440e-9054-01af4fa95bfc)"><g style="clip-path:url(#d56ee57b-b50f-4f96-89e0-a0f15b5200cb)"><rect x="83.19" y="0.46" width="18.38" height="21.26" style="fill:#4b4b4b"/></g></g><g style="clip-path:url(#61c3814c-2fb5-41f5-b704-4fd9f4bd5368)"><g style="clip-path:url(#d56ee57b-b50f-4f96-89e0-a0f15b5200cb)"><rect x="62.55" y="15.81" width="25.61" height="29.34" style="fill:#4b4b4b"/></g></g><g style="clip-path:url(#c1978b3d-0e20-4e12-b031-9a41656fa81b)"><g style="clip-path:url(#d56ee57b-b50f-4f96-89e0-a0f15b5200cb)"><rect x="82.77" y="15.65" width="14.48" height="29.5" style="fill:#4b4b4b"/></g></g><g style="clip-path:url(#e2336cb2-6cce-413a-90bb-e018ac8c8554)"><g style="clip-path:url(#d56ee57b-b50f-4f96-89e0-a0f15b5200cb)"><rect x="93.1" y="15.65" width="27.59" height="29.5" style="fill:#4b4b4b"/></g></g><g style="clip-path:url(#7bea11f0-1f8c-402f-a46a-3e09434e804b)"><g style="clip-path:url(#d56ee57b-b50f-4f96-89e0-a0f15b5200cb)"><rect x="116.95" y="15.65" width="27.68" height="29.83" style="fill:#4b4b4b"/></g></g><g style="clip-path:url(#a90b6d49-8f53-48b6-aca9-7306c9bb7fb7)"><g style="clip-path:url(#d56ee57b-b50f-4f96-89e0-a0f15b5200cb)"><rect x="138.65" y="15.65" width="30.62" height="29.5" style="fill:#4b4b4b"/></g></g><g style="clip-path:url(#8eab4c6f-cb00-45e5-9e03-7427b9d698ef)"><g style="clip-path:url(#d56ee57b-b50f-4f96-89e0-a0f15b5200cb)"><rect x="62.01" y="40.61" width="17.4" height="21.39" style="fill:#4b4b4b"/></g></g><g style="clip-path:url(#191073ab-3a3a-4a6e-88e8-a72a3f5e2e8e)"><g style="clip-path:url(#d56ee57b-b50f-4f96-89e0-a0f15b5200cb)"><rect x="70.84" y="40.41" width="20.48" height="21.78" style="fill:#4b4b4b"/></g></g><g style="clip-path:url(#9f8d15f4-8ca2-4dfc-975d-3c91062111f3)"><g style="clip-path:url(#d56ee57b-b50f-4f96-89e0-a0f15b5200cb)"><rect x="83.22" y="40.61" width="18.62" height="21.58" style="fill:#4b4b4b"/></g></g><g style="clip-path:url(#137c6043-4e6d-45cd-97fe-d403f41ea29a)"><g style="clip-path:url(#d56ee57b-b50f-4f96-89e0-a0f15b5200cb)"><rect x="94.24" y="40.61" width="18.64" height="21.39" style="fill:#4b4b4b"/></g></g><g style="clip-path:url(#fe7b66a7-84f8-4b05-8e55-4776fba6cc29)"><g style="clip-path:url(#d56ee57b-b50f-4f96-89e0-a0f15b5200cb)"><rect x="105.32" y="40.61" width="19.06" height="21.39" style="fill:#4b4b4b"/></g></g><g style="clip-path:url(#6821a372-7ac5-4dcb-a8b4-c157b1fe39ca)"><g style="clip-path:url(#d56ee57b-b50f-4f96-89e0-a0f15b5200cb)"><rect x="115.17" y="40.61" width="20.26" height="21.39" style="fill:#4b4b4b"/></g></g><g style="clip-path:url(#e61b4be8-cd63-4979-ba66-9cee084d240b)"><g style="clip-path:url(#d56ee57b-b50f-4f96-89e0-a0f15b5200cb)"><rect x="124.63" y="40.61" width="18.69" height="21.39" style="fill:#4b4b4b"/></g></g><g style="clip-path:url(#32d566be-273e-4411-bab8-41889cf04ac4)"><g style="clip-path:url(#d56ee57b-b50f-4f96-89e0-a0f15b5200cb)"><rect x="135.06" y="40.61" width="11.45" height="21.39" style="fill:#4b4b4b"/></g></g><g style="clip-path:url(#02319b85-c8d7-4be0-b0a8-a830c7f1ab4c)"><g style="clip-path:url(#d56ee57b-b50f-4f96-89e0-a0f15b5200cb)"><rect x="138.62" y="40.41" width="20.48" height="21.78" style="fill:#4b4b4b"/></g></g><g style="clip-path:url(#ba2ac76f-89d7-4ccb-84cb-01feb108468e)"><g style="clip-path:url(#d56ee57b-b50f-4f96-89e0-a0f15b5200cb)"><rect x="150.96" y="40.61" width="18.64" height="21.39" style="fill:#4b4b4b"/></g></g></g></g></g></g></svg>