<svg xmlns="http://www.w3.org/2000/svg" xmlns:xlink="http://www.w3.org/1999/xlink" width="209.41" height="35.01" viewBox="0 0 209.41 35.01"><defs><clipPath id="3882f69b-dfcf-4dca-a14b-85ba7d8057ca" transform="translate(0 -48.6)"><rect x="5" y="53" width="200" height="26" style="fill:none"/></clipPath><clipPath id="81c1c794-32e1-44bc-86e6-e66e7c07af3b" transform="translate(0 -48.6)"><path d="M180.11,74.24a8,8,0,0,1-7.71-5.83h20.35l2.8-4.36H172.4a8,8,0,0,1,7.71-5.84h14l2.81-4.37h-17.1a12.38,12.38,0,0,0,0,24.76h14.69l2.8-4.36ZM121.87,78.6a12.38,12.38,0,1,1,0-24.76H139l-2.8,4.37h-14a8,8,0,1,0,0,16h17.17l-2.8,4.36ZM31.45,74.24a8,8,0,0,0,0-16H17.7a8,8,0,0,0,0,16ZM17.38,78.6a12.38,12.38,0,1,1,0-24.76H31.77a12.38,12.38,0,0,1,0,24.76Zm50.14-8a8.37,8.37,0,0,0,0-16.74H46.68V78.6h4.76V58.21H67.19a4,4,0,0,1,0,8H53.77L68,78.6H74.9l-9.56-8Zm78.77,3.65V53.84h-4.76V76.23a2.34,2.34,0,0,0,.69,1.65,2.46,2.46,0,0,0,1.75.72h21.71l2.8-4.37ZM88,69.87h12.7L94,59,81.67,78.6H76.06l15-23.48a3.57,3.57,0,0,1,5.83,0l15.05,23.52h-5.62l-2.64-4.37H90.81Z" style="fill:none;clip-rule:evenodd"/></clipPath><clipPath id="1f036d20-9f4c-4ed3-869d-2f038fd1ebc0" transform="translate(0 -48.6)"><rect x="5" width="276" height="133" style="fill:none"/></clipPath><clipPath id="1c8a5e7b-b1cb-42c0-a4d7-e5d260a6e050" transform="translate(0 -48.6)"><path d="M201.58,56.24a.58.58,0,0,0,.52-.19.46.46,0,0,0,.07-.27.41.41,0,0,0-.24-.38,1.58,1.58,0,0,0-.57-.05h-.17v.9Zm-.22-1.41a2.17,2.17,0,0,1,.82.08.89.89,0,0,1,.6.88,1.2,1.2,0,0,1,0,.26.85.85,0,0,1-.39.53.42.42,0,0,1-.14.07l.72,1.3h-.7l-.63-1.19h-.42V58h-.61V54.84Zm.26,4.44a2.78,2.78,0,1,0-2.78-2.78A2.79,2.79,0,0,0,201.62,59.27Zm-2.19-2.79a2.19,2.19,0,1,1,2.19,2.19A2.19,2.19,0,0,1,199.44,56.48Z" style="fill:none;clip-rule:evenodd"/></clipPath></defs><title>oracle</title><g id="135f7b7f-4990-42b3-9b42-65aaa812a394" data-name="Слой 2"><g id="f1d6bef6-cf7d-4468-8a8e-fba2c68cf5c1" data-name="Слой 1"><g style="opacity:0.7547000050544739;isolation:isolate"><g style="clip-path:url(#3882f69b-dfcf-4dca-a14b-85ba7d8057ca)"><g style="clip-path:url(#81c1c794-32e1-44bc-86e6-e66e7c07af3b)"><g style="clip-path:url(#1f036d20-9f4c-4ed3-869d-2f038fd1ebc0)"><rect width="202.27" height="35.01" style="fill:#4b4b4b"/></g></g><g style="clip-path:url(#1c8a5e7b-b1cb-42c0-a4d7-e5d260a6e050)"><g style="clip-path:url(#1f036d20-9f4c-4ed3-869d-2f038fd1ebc0)"><rect x="193.84" y="0.11" width="15.57" height="15.57" style="fill:#4b4b4b"/></g></g></g></g></g></g></svg>