<svg xmlns="http://www.w3.org/2000/svg" xmlns:xlink="http://www.w3.org/1999/xlink" width="189.98" height="62.69" viewBox="0 0 189.98 62.69"><defs><clipPath id="0ba6e186-4a0e-4567-9532-899fdcf09be5" transform="translate(0 -35)"><rect x="5" y="40" width="180" height="53" style="fill:none"/></clipPath><clipPath id="60d264c7-f44a-4b31-bf2a-2d74e2122cdc" transform="translate(0 -35)"><path d="M39.25,83.31c-.83,1.27-1.66.73-2.35.34-1.16-.81-1.82.2-1.82.36v.37c.06.14.07.18.74.36a4.3,4.3,0,0,1,1.53.53,3.51,3.51,0,0,0,1.49,0c.57-.34.85-.26,1.09-1.26-.09-1-.67-.72-.67-.72" style="fill:none;clip-rule:evenodd"/></clipPath><clipPath id="0a8bf247-9ca6-4cde-b9dd-7723ab34ffed" transform="translate(0 -35)"><rect x="5" width="276" height="133" style="fill:none"/></clipPath><clipPath id="385dd176-5341-4911-b10d-fc41c3fb539a" transform="translate(0 -35)"><path d="M30.19,52.7c-1.82,0-3.39.05-4.31-1.52,0,0-.91.11-.83,1.41a3.34,3.34,0,0,0,2.54,2.7s.25-1.21,3.48-1.41a5.16,5.16,0,0,0,2.57-.51,3.42,3.42,0,0,0-3.45-.67" style="fill:none;clip-rule:evenodd"/></clipPath><clipPath id="c438081d-6dac-464f-b4cd-3c813a56f55c" transform="translate(0 -35)"><path d="M37,47.46c1.47.38,2.69.26,2.87.9.33.79-1.07,1.43-1.07,1.43s3.09.41,3.54-1.13c-.7-1.2-1.8-1.65-5.34-1.2" style="fill:none;clip-rule:evenodd"/></clipPath><clipPath id="17ed2a24-54e7-41e9-97fc-a777d2e10280" transform="translate(0 -35)"><path d="M33.75,40C17.87,40,5,53.11,5,69.28A27.63,27.63,0,0,0,6.63,79,.79.79,0,0,0,8,78.87c.08-.43-.16-.84-.11-1.66a30.94,30.94,0,0,0,4.83,0,7.67,7.67,0,0,1,1.86,0,2.84,2.84,0,0,1,2.26,1.57A3.47,3.47,0,0,0,20,80.5c.85-.07,1-1.33-.13-1.82a3.13,3.13,0,0,1-1.2-1.37,21.9,21.9,0,0,1-1.44-1.91,2.75,2.75,0,0,1,1.82-3.67c1,.09,1.93-.09,3.57,2.45.83,1.12,1.14,1.61,1.6,1.29a6,6,0,0,0,.61-.45s0,0,0,0h0a3.14,3.14,0,0,0,.53,0c.94.45,2,2,3.27,3.37,0,0,.74,1.14,3.05,1.37a19,19,0,0,0,4.71-.34,11.2,11.2,0,0,1,1.42,0l.9.36s.48.43,1.67-.24a7,7,0,0,1,1.67,0,5.08,5.08,0,0,0,4.16-.15c.63,0,.63,0,.48.86A16.81,16.81,0,0,0,46,83.87a5.1,5.1,0,0,1-1.55,3.07c-.7,1-1.54,2.17-2,2.89s-1.51,2-1.75,2.27c-.11.45,0,.71.86.54a5.52,5.52,0,0,0,2.94-2.21,5.41,5.41,0,0,1,2.37-1.7c1.55-.69,2.61-.83,1.77-2.34a9.85,9.85,0,0,1,4.08,0c.72,0,1.82,0,1.82,0s1.64-.22,2.19.34l0,0A29.51,29.51,0,0,0,62.5,69.28C62.5,53.11,49.63,40,33.75,40M52.39,75.86c-3.5,1.91-6.33,2.32-12.25,2.1a37.86,37.86,0,0,1-9.6-2C26,74.18,9.6,66.27,10.81,60.09c0,0,.18-1.46,3.2-2.74a21.31,21.31,0,0,1,3.68-.41l3.57.08s-1.55,2.66-.07,3.82c1.29,1.76,7.43,4.42,13,6.18a6.49,6.49,0,0,0,2.24.07c-.88-1-1.47-1.42-1.58-3.11-.15-1-.33-1.69-6.15-3.3s-7.73-2.85-7-6.6c0,0,1.21-6.11,2.13-6.74A5.4,5.4,0,0,1,28,45.55c2.21.19,6.48,1.31,7.54.22,1.44-.34,7.4-1.09,9.83,3.19a17.41,17.41,0,0,1,1.55,3.79c.55,1.46,3.2,6.33,1.95,10.08-.18.64-.74,2.29.11,1.31a5.44,5.44,0,0,0,1.19-2.75c.94.34,5.91,2.19,7.15,4.53,0,0,2.74,5.24-4.88,10" style="fill:none;clip-rule:evenodd"/></clipPath><clipPath id="7a5cfc46-6b17-4fda-8908-3b30e23c2cb5" transform="translate(0 -35)"><path d="M101.62,65.55c-5.33,0-9.82,4-9.82,10.74C91.8,83.65,96.56,87,102.5,87a19.21,19.21,0,0,0,6.87-1.29v-4.1a14.35,14.35,0,0,1-6.22,1.45c-3.91,0-5.75-2.49-5.91-5.15h13.54V76.69C110.79,74.84,110.64,65.55,101.62,65.55ZM97.25,74.2c0-2.74,1.76-4.87,4.07-4.87,1.92,0,4.18,1.37,4.11,4.87ZM83.4,70.37h-.12V65.87H78.53V86.71h5.22v-10c0-5.83,3-7,4.83-7,.54,0,1.3.08,1.69.12l.19-4a8.92,8.92,0,0,0-1.73-.24C85.66,65.55,83.86,67.84,83.4,70.37ZM182.53,84.9c-1.57,0-2.34-.52-2.34-4V68.2h4.68V66.07h-4.68V60l-2.42.92v5.15h-4V68.2h4V81c0,2.29.15,6,4.49,6a7.5,7.5,0,0,0,2.72-.44V84.46A5.4,5.4,0,0,1,182.53,84.9ZM127,56.53v8.73l.11,3.42H127a6.39,6.39,0,0,0-5.72-3.14c-4,0-8.59,3.14-8.59,10.74,0,6.6,3.3,10.74,8.36,10.74a6.84,6.84,0,0,0,6.48-3.94h.08v3.62h4.57V57.81Zm-4.41,26.16c-2.11,0-4.41-2-4.41-6.4s2.3-6.4,4.41-6.4,4.41,2,4.41,6.4S124.68,82.69,122.57,82.69Zm49.53-9.26c0-2.82-.58-7.69-6.95-7.69A13.71,13.71,0,0,0,159.28,67v2.42a11.77,11.77,0,0,1,5.87-1.57c4.49,0,4.53,4.06,4.53,5.51v.72h-1.27c-4,0-11.28.32-11.28,7.09,0,3.18,2.19,5.83,6.44,5.83A6.73,6.73,0,0,0,170,83.21h.08v3.5h2.15l-.12-4.5Zm-2.42,4.31c0,4.51-2.38,7.16-6.14,7.16A3.77,3.77,0,0,1,159.66,81c0-4.15,4.22-4.79,7.83-4.79h2.19Zm-23.44-12a6.74,6.74,0,0,0-6.29,4.59h-.08l.19-4.51v-6.1l-2.41-.59V86.71h2.41v-12c0-3.82,2.69-6.8,5.79-6.8,4.87,0,4.83,3.66,4.83,6.12V86.71h2.42V73.88C153.1,70.78,152.53,65.75,146.24,65.75Z" style="fill:none;clip-rule:evenodd"/></clipPath></defs><title>redhat</title><g id="f245637a-c890-460d-a7b6-8b02f0641ca4" data-name="Слой 2"><g id="f6751f49-f8cd-456b-8b0b-a5c029151044" data-name="Слой 1"><g style="opacity:0.7547000050544739;isolation:isolate"><g style="clip-path:url(#0ba6e186-4a0e-4567-9532-899fdcf09be5)"><g style="clip-path:url(#60d264c7-f44a-4b31-bf2a-2d74e2122cdc)"><g style="clip-path:url(#0a8bf247-9ca6-4cde-b9dd-7723ab34ffed)"><rect x="30.08" y="43.28" width="14.84" height="12.08" style="fill:#4b4b4b"/></g></g><g style="clip-path:url(#385dd176-5341-4911-b10d-fc41c3fb539a)"><g style="clip-path:url(#0a8bf247-9ca6-4cde-b9dd-7723ab34ffed)"><rect x="20.05" y="11.18" width="18.59" height="14.1" style="fill:#4b4b4b"/></g></g><g style="clip-path:url(#c438081d-6dac-464f-b4cd-3c813a56f55c)"><g style="clip-path:url(#0a8bf247-9ca6-4cde-b9dd-7723ab34ffed)"><rect x="31.99" y="7.29" width="15.34" height="12.55" style="fill:#4b4b4b"/></g></g><g style="clip-path:url(#17ed2a24-54e7-41e9-97fc-a777d2e10280)"><g style="clip-path:url(#0a8bf247-9ca6-4cde-b9dd-7723ab34ffed)"><rect width="67.5" height="62.69" style="fill:#4b4b4b"/></g></g><g style="clip-path:url(#7a5cfc46-6b17-4fda-8908-3b30e23c2cb5)"><g style="clip-path:url(#0a8bf247-9ca6-4cde-b9dd-7723ab34ffed)"><rect x="73.53" y="16.53" width="116.45" height="40.5" style="fill:#4b4b4b"/></g></g></g></g></g></g></svg>