<svg xmlns="http://www.w3.org/2000/svg" xmlns:xlink="http://www.w3.org/1999/xlink" width="179.85" height="81.92" viewBox="0 0 179.85 81.92"><defs><clipPath id="e94667f0-69f4-4327-8d67-3e021d536eef" transform="translate(0 -19.62)"><rect x="5" y="23" width="170" height="79" style="fill:none"/></clipPath><clipPath id="8bb2893d-8749-4a4f-99e6-a106be811111" transform="translate(0 -19.62)"><rect x="45.39" y="44.18" width="2.87" height="14.21" style="fill:none"/></clipPath><clipPath id="68a54f1a-d4a2-4141-9576-f1a00dc443c8" transform="translate(0 -19.62)"><rect x="5" width="276" height="133" style="fill:none"/></clipPath><clipPath id="95a04976-f62c-4d60-bc64-6457ef23fcac" transform="translate(0 -19.62)"><polygon points="53.37 46.28 61.32 46.28 61.32 58.38 64.19 58.38 64.19 46.28 71.92 46.28 71.92 44.18 53.37 44.18 53.37 46.28" style="fill:none;clip-rule:evenodd"/></clipPath><clipPath id="c9d3c22c-10a8-4562-bf89-28803e81a076" transform="translate(0 -19.62)"><path d="M45.22,72.78a3.63,3.63,0,0,0,.26,1.39,2.68,2.68,0,0,0,.83,1.08,4.12,4.12,0,0,0,1.48.71,8.29,8.29,0,0,0,2.2.25H60a7.22,7.22,0,0,0,2.1-.25,3.11,3.11,0,0,0,1.27-.71A2.29,2.29,0,0,0,64,74.17a5.62,5.62,0,0,0,.16-1.39V62H61.3V72.8q0,1.31-1.9,1.31H50q-1.9,0-1.9-1.31V62H45.22Z" style="fill:none;clip-rule:evenodd"/></clipPath><clipPath id="3addf354-7062-4d5b-94ea-be7698eeff01" transform="translate(0 -19.62)"><polygon points="69.77 62 66.9 62 66.9 76.21 69.77 76.21 69.77 69.87 74.7 69.87 80.43 76.21 83.73 76.21 77.01 68.62 83.75 62 80.35 62 74.64 67.77 69.77 67.77 69.77 62" style="fill:none;clip-rule:evenodd"/></clipPath><clipPath id="cf4d083a-5b33-4216-a814-a4b69e27d34e" transform="translate(0 -19.62)"><path d="M102.59,63a4.13,4.13,0,0,0-1.48-.71,8.29,8.29,0,0,0-2.2-.25H86V76.21H88.9V69.87h8l3.56,6.34h3.06l-3.58-6.38a4.39,4.39,0,0,0,2.89-1.1,3.22,3.22,0,0,0,.86-2.29v-1a3.62,3.62,0,0,0-.26-1.39A2.66,2.66,0,0,0,102.59,63Zm-1.78,3.5q0,1.31-1.9,1.31h-10V64.1h10q1.9,0,1.9,1.31Z" style="fill:none;clip-rule:evenodd"/></clipPath><clipPath id="d325bfbb-79c0-4c57-8754-d18af6222be1" transform="translate(0 -19.62)"><path d="M128,76.21,118,62h-2.09L105.83,76.21H109l2-2.85h11.84l2,2.85Zm-15.16-5.54,4.1-5.9,4,5.9Z" style="fill:none;clip-rule:evenodd"/></clipPath><clipPath id="07ff67ac-6ba9-41dd-86e8-a1e9b458fb35" transform="translate(0 -19.62)"><rect x="130.15" y="62" width="2.87" height="14.21" style="fill:none"/></clipPath><clipPath id="72c84dbb-b3fd-418f-aa4b-2e05fb32bceb" transform="translate(0 -19.62)"><polygon points="156.01 62 153.51 62 153.51 72.56 138.4 62 135.93 62 135.93 76.21 138.43 76.21 138.43 65.15 154.61 76.21 156.01 76.21 156.01 62" style="fill:none;clip-rule:evenodd"/></clipPath><clipPath id="c9eb10fa-1618-43e5-897f-317fc19c0f03" transform="translate(0 -19.62)"><polygon points="174.41 74.11 161.68 74.11 161.68 69.75 173.77 69.75 173.77 67.65 161.68 67.65 161.68 64.1 174.41 64.1 174.41 62 158.81 62 158.81 76.21 174.41 76.21 174.41 74.11" style="fill:none;clip-rule:evenodd"/></clipPath><clipPath id="7bc406d4-38d7-453f-b051-58b992ad6942" transform="translate(0 -19.62)"><path d="M92.12,79.63l-1.8,3.74h1.51l.23-.62h1.68l.24.62h1.55l-1.8-3.74Zm.27,2.32.52-1.34.53,1.34Z" style="fill:none;clip-rule:evenodd"/></clipPath><clipPath id="f4ea3170-2d9c-41a1-857c-c6348fcc5df1" transform="translate(0 -19.62)"><path d="M102.64,81.19a7.49,7.49,0,0,0-1.39-.33,1.44,1.44,0,0,1-.5-.14.2.2,0,0,1-.11-.16.25.25,0,0,1,.13-.21.72.72,0,0,1,.39-.09.89.89,0,0,1,.49.11.55.55,0,0,1,.23.37l1.4-.06a1.11,1.11,0,0,0-.57-.85,2.94,2.94,0,0,0-1.4-.27,3.76,3.76,0,0,0-1.18.15,1.4,1.4,0,0,0-.64.4.82.82,0,0,0,.2,1.27,3.73,3.73,0,0,0,1.39.46,2.23,2.23,0,0,1,.76.22.32.32,0,0,1,.16.26.33.33,0,0,1-.17.27.87.87,0,0,1-.49.12.88.88,0,0,1-.65-.23.73.73,0,0,1-.19-.41l-1.41.07a1.33,1.33,0,0,0,.53.93,2.85,2.85,0,0,0,1.69.37,3.62,3.62,0,0,0,1.15-.16,1.58,1.58,0,0,0,.71-.46,1,1,0,0,0,.25-.66.89.89,0,0,0-.19-.55,1.42,1.42,0,0,0-.61-.41" style="fill:none;clip-rule:evenodd"/></clipPath><clipPath id="ee1a7fcc-d2cb-4132-8961-0a62baa752c8" transform="translate(0 -19.62)"><path d="M110.81,81.19a7.49,7.49,0,0,0-1.39-.33,1.44,1.44,0,0,1-.5-.14.2.2,0,0,1-.11-.16.25.25,0,0,1,.13-.21.72.72,0,0,1,.39-.09.89.89,0,0,1,.49.11.55.55,0,0,1,.23.37l1.4-.06a1.11,1.11,0,0,0-.57-.85,3,3,0,0,0-1.4-.27,3.76,3.76,0,0,0-1.18.15,1.4,1.4,0,0,0-.64.4.82.82,0,0,0,.2,1.27,3.73,3.73,0,0,0,1.39.46,2.23,2.23,0,0,1,.76.22.32.32,0,0,1,.16.26.33.33,0,0,1-.17.27.88.88,0,0,1-.49.12.89.89,0,0,1-.65-.23.73.73,0,0,1-.19-.41l-1.41.07a1.33,1.33,0,0,0,.53.93,2.86,2.86,0,0,0,1.69.37,3.63,3.63,0,0,0,1.15-.16,1.58,1.58,0,0,0,.71-.46,1,1,0,0,0,.25-.66.89.89,0,0,0-.19-.55,1.41,1.41,0,0,0-.61-.41" style="fill:none;clip-rule:evenodd"/></clipPath><clipPath id="ded0127b-bcea-43d3-bec0-67aabdde36d3" transform="translate(0 -19.62)"><path d="M119.84,80.07a3,3,0,0,0-1.84-.5,2.89,2.89,0,0,0-1.82.51,1.71,1.71,0,0,0-.65,1.43,1.77,1.77,0,0,0,.33,1.09,1.91,1.91,0,0,0,.86.64,3.82,3.82,0,0,0,1.34.2,3.35,3.35,0,0,0,1.33-.23,1.85,1.85,0,0,0,.82-.65,1.88,1.88,0,0,0,.28-1.08,1.67,1.67,0,0,0-.65-1.41m-1.09,2.26a1.23,1.23,0,0,1-1.47,0,1.06,1.06,0,0,1-.27-.81,1.07,1.07,0,0,1,.27-.82,1,1,0,0,1,.72-.25,1.07,1.07,0,0,1,.74.24,1,1,0,0,1,.27.77,1.16,1.16,0,0,1-.26.87" style="fill:none;clip-rule:evenodd"/></clipPath><clipPath id="16411479-f0d5-4df4-a6ce-f5b1f7ff951f" transform="translate(0 -19.62)"><path d="M127.5,82.38a1,1,0,0,1-.64.19,1,1,0,0,1-.68-.23,1.17,1.17,0,0,1-.24-.85,1.11,1.11,0,0,1,.2-.74,1,1,0,0,1,.77-.32,1.09,1.09,0,0,1,.4.07.86.86,0,0,1,.3.21.79.79,0,0,1,.14.25l1.31-.23a1.75,1.75,0,0,0-.77-.88,3,3,0,0,0-1.42-.29,2.83,2.83,0,0,0-1.79.5,1.71,1.71,0,0,0-.63,1.43,1.77,1.77,0,0,0,.36,1.14,1.91,1.91,0,0,0,.85.62,3.86,3.86,0,0,0,1.28.18,3.27,3.27,0,0,0,1.06-.15,1.79,1.79,0,0,0,.7-.43,1.74,1.74,0,0,0,.41-.71l-1.3-.31a1.07,1.07,0,0,1-.32.54" style="fill:none;clip-rule:evenodd"/></clipPath><clipPath id="a935602b-bea6-4951-af3e-76c250a97de3" transform="translate(0 -19.62)"><rect x="133.23" y="79.63" width="1.48" height="3.74" style="fill:none"/></clipPath><clipPath id="cb5bf0e7-9886-4258-a010-17a501d89cea" transform="translate(0 -19.62)"><path d="M140.44,79.63l-1.8,3.74h1.51l.23-.62h1.68l.24.62h1.55l-1.8-3.74Zm.27,2.32.52-1.34.53,1.34Z" style="fill:none;clip-rule:evenodd"/></clipPath><clipPath id="4056ee82-6a1e-4249-bcf2-a7e34e7ef318" transform="translate(0 -19.62)"><polygon points="146.88 80.55 148.38 80.55 148.38 83.37 149.87 83.37 149.87 80.55 151.38 80.55 151.38 79.63 146.88 79.63 146.88 80.55" style="fill:none;clip-rule:evenodd"/></clipPath><clipPath id="602ff82e-6417-477b-984d-e11cb86107a6" transform="translate(0 -19.62)"><rect x="155.45" y="79.63" width="1.48" height="3.74" style="fill:none"/></clipPath><clipPath id="8c917395-a78b-4311-8e81-1de75a63c402" transform="translate(0 -19.62)"><path d="M165.47,80.07a3,3,0,0,0-1.84-.5,2.9,2.9,0,0,0-1.82.51,1.71,1.71,0,0,0-.65,1.43,1.76,1.76,0,0,0,.33,1.09,1.9,1.9,0,0,0,.86.64,3.83,3.83,0,0,0,1.34.2A3.34,3.34,0,0,0,165,83.2a1.84,1.84,0,0,0,.82-.65,1.89,1.89,0,0,0,.28-1.08,1.67,1.67,0,0,0-.65-1.41m-1.09,2.26a1.23,1.23,0,0,1-1.47,0,1.06,1.06,0,0,1-.27-.81,1.07,1.07,0,0,1,.27-.82,1,1,0,0,1,.72-.25,1.07,1.07,0,0,1,.74.24,1,1,0,0,1,.27.77,1.16,1.16,0,0,1-.26.87" style="fill:none;clip-rule:evenodd"/></clipPath><clipPath id="7e2ebbc8-a624-4296-b61e-74f9e6c37d22" transform="translate(0 -19.62)"><polygon points="173.45 79.63 173.45 81.7 171.65 79.63 170.27 79.63 170.27 83.37 171.66 83.37 171.66 81.32 173.45 83.37 174.85 83.37 174.85 79.63 173.45 79.63" style="fill:none;clip-rule:evenodd"/></clipPath><clipPath id="dffeff70-23c4-4089-94ce-4825145b04e6" transform="translate(0 -19.62)"><path d="M85.44,78.13c-.31,2.43-2.3,9-8,10.4-7.83,1.95-15.82,1.12-29.78-7.47-11.76-7.24-18.3-17.75-22-24.6s-3.75-15.4.62-19.31c5.58-5,17.06-2.8,23.89.93l7.45,4.44h2.64A59.46,59.46,0,0,0,22.32,24.69C10,23.78,5.31,31.68,5,39.1a30.84,30.84,0,0,0,5,17.84c4.58,7.12,13.57,18.37,24.29,26.29,26.83,19.85,46.84,13.94,51.29,5.06a12.7,12.7,0,0,0,.24-10.22.22.22,0,0,0-.42.05" style="fill:none;clip-rule:evenodd"/></clipPath></defs><title>ukraine</title><g id="c102193d-52c6-4a97-9497-a9e2ff07903b" data-name="Слой 2"><g id="040c6e8b-ee84-41ec-8cad-5d0683b371d8" data-name="Слой 1"><g style="opacity:0.7547000050544739;isolation:isolate"><g style="clip-path:url(#e94667f0-69f4-4327-8d67-3e021d536eef)"><g style="clip-path:url(#8bb2893d-8749-4a4f-99e6-a106be811111)"><g style="clip-path:url(#68a54f1a-d4a2-4141-9576-f1a00dc443c8)"><rect x="40.39" y="19.56" width="12.87" height="24.21" style="fill:#4b4b4b"/></g></g><g style="clip-path:url(#95a04976-f62c-4d60-bc64-6457ef23fcac)"><g style="clip-path:url(#68a54f1a-d4a2-4141-9576-f1a00dc443c8)"><rect x="48.37" y="19.56" width="28.55" height="24.21" style="fill:#4b4b4b"/></g></g><g style="clip-path:url(#c9d3c22c-10a8-4562-bf89-28803e81a076)"><g style="clip-path:url(#68a54f1a-d4a2-4141-9576-f1a00dc443c8)"><rect x="40.22" y="37.38" width="28.94" height="24.21" style="fill:#4b4b4b"/></g></g><g style="clip-path:url(#3addf354-7062-4d5b-94ea-be7698eeff01)"><g style="clip-path:url(#68a54f1a-d4a2-4141-9576-f1a00dc443c8)"><rect x="61.9" y="37.38" width="26.85" height="24.21" style="fill:#4b4b4b"/></g></g><g style="clip-path:url(#cf4d083a-5b33-4216-a814-a4b69e27d34e)"><g style="clip-path:url(#68a54f1a-d4a2-4141-9576-f1a00dc443c8)"><rect x="81.03" y="37.38" width="27.65" height="24.21" style="fill:#4b4b4b"/></g></g><g style="clip-path:url(#d325bfbb-79c0-4c57-8754-d18af6222be1)"><g style="clip-path:url(#68a54f1a-d4a2-4141-9576-f1a00dc443c8)"><rect x="100.83" y="37.38" width="32.2" height="24.21" style="fill:#4b4b4b"/></g></g><g style="clip-path:url(#07ff67ac-6ba9-41dd-86e8-a1e9b458fb35)"><g style="clip-path:url(#68a54f1a-d4a2-4141-9576-f1a00dc443c8)"><rect x="125.15" y="37.38" width="12.87" height="24.21" style="fill:#4b4b4b"/></g></g><g style="clip-path:url(#72c84dbb-b3fd-418f-aa4b-2e05fb32bceb)"><g style="clip-path:url(#68a54f1a-d4a2-4141-9576-f1a00dc443c8)"><rect x="130.93" y="37.38" width="30.08" height="24.21" style="fill:#4b4b4b"/></g></g><g style="clip-path:url(#c9eb10fa-1618-43e5-897f-317fc19c0f03)"><g style="clip-path:url(#68a54f1a-d4a2-4141-9576-f1a00dc443c8)"><rect x="153.81" y="37.38" width="25.6" height="24.21" style="fill:#4b4b4b"/></g></g><g style="clip-path:url(#7bc406d4-38d7-453f-b051-58b992ad6942)"><g style="clip-path:url(#68a54f1a-d4a2-4141-9576-f1a00dc443c8)"><rect x="85.32" y="55.01" width="15.21" height="13.74" style="fill:#4b4b4b"/></g></g><g style="clip-path:url(#f4ea3170-2d9c-41a1-857c-c6348fcc5df1)"><g style="clip-path:url(#68a54f1a-d4a2-4141-9576-f1a00dc443c8)"><rect x="94.09" y="54.94" width="14.34" height="13.87" style="fill:#4b4b4b"/></g></g><g style="clip-path:url(#ee1a7fcc-d2cb-4132-8961-0a62baa752c8)"><g style="clip-path:url(#68a54f1a-d4a2-4141-9576-f1a00dc443c8)"><rect x="102.27" y="54.94" width="14.34" height="13.87" style="fill:#4b4b4b"/></g></g><g style="clip-path:url(#ded0127b-bcea-43d3-bec0-67aabdde36d3)"><g style="clip-path:url(#68a54f1a-d4a2-4141-9576-f1a00dc443c8)"><rect x="110.52" y="54.94" width="14.96" height="13.87" style="fill:#4b4b4b"/></g></g><g style="clip-path:url(#16411479-f0d5-4df4-a6ce-f5b1f7ff951f)"><g style="clip-path:url(#68a54f1a-d4a2-4141-9576-f1a00dc443c8)"><rect x="119.45" y="54.94" width="14.66" height="13.87" style="fill:#4b4b4b"/></g></g><g style="clip-path:url(#a935602b-bea6-4951-af3e-76c250a97de3)"><g style="clip-path:url(#68a54f1a-d4a2-4141-9576-f1a00dc443c8)"><rect x="128.23" y="55.01" width="11.48" height="13.74" style="fill:#4b4b4b"/></g></g><g style="clip-path:url(#cb5bf0e7-9886-4258-a010-17a501d89cea)"><g style="clip-path:url(#68a54f1a-d4a2-4141-9576-f1a00dc443c8)"><rect x="133.64" y="55.01" width="15.21" height="13.74" style="fill:#4b4b4b"/></g></g><g style="clip-path:url(#4056ee82-6a1e-4249-bcf2-a7e34e7ef318)"><g style="clip-path:url(#68a54f1a-d4a2-4141-9576-f1a00dc443c8)"><rect x="141.88" y="55.01" width="14.5" height="13.74" style="fill:#4b4b4b"/></g></g><g style="clip-path:url(#602ff82e-6417-477b-984d-e11cb86107a6)"><g style="clip-path:url(#68a54f1a-d4a2-4141-9576-f1a00dc443c8)"><rect x="150.45" y="55.01" width="11.48" height="13.74" style="fill:#4b4b4b"/></g></g><g style="clip-path:url(#8c917395-a78b-4311-8e81-1de75a63c402)"><g style="clip-path:url(#68a54f1a-d4a2-4141-9576-f1a00dc443c8)"><rect x="156.15" y="54.94" width="14.96" height="13.87" style="fill:#4b4b4b"/></g></g><g style="clip-path:url(#7e2ebbc8-a624-4296-b61e-74f9e6c37d22)"><g style="clip-path:url(#68a54f1a-d4a2-4141-9576-f1a00dc443c8)"><rect x="165.27" y="55.01" width="14.58" height="13.74" style="fill:#4b4b4b"/></g></g><g style="clip-path:url(#dffeff70-23c4-4089-94ce-4825145b04e6)"><g style="clip-path:url(#68a54f1a-d4a2-4141-9576-f1a00dc443c8)"><rect width="91.83" height="81.92" style="fill:#4b4b4b"/></g></g></g></g></g></g></svg>